<svg width="14" height="14" viewBox="0 0 14 14" fill="none" xmlns="http://www.w3.org/2000/svg">
<path d="M7.84978 1.0827C7.84978 0.613549 7.4694 0.233252 7.00021 0.233252C6.53101 0.233252 6.15063 0.613549 6.15063 1.0827V6.14562H1.08158C0.612389 6.14562 0.232003 6.52592 0.232003 6.99507C0.232003 7.46423 0.612389 7.84452 1.08158 7.84452H6.15063V12.9171C6.15063 13.3863 6.53101 13.7666 7.0002 13.7666C7.4694 13.7666 7.84978 13.3863 7.84978 12.9171V7.84452H12.9158C13.385 7.84452 13.7654 7.46423 13.7654 6.99507C13.7654 6.52592 13.385 6.14562 12.9158 6.14562H7.84978V1.0827Z" fill="white" stroke="white" stroke-width="0.2"/>
</svg>
