<svg width="28" height="28" viewBox="0 0 28 28" fill="none" xmlns="http://www.w3.org/2000/svg">
<path fill-rule="evenodd" clip-rule="evenodd" d="M14.0013 24.6666C19.8923 24.6666 24.668 19.891 24.668 14C24.668 8.10892 19.8923 3.33329 14.0013 3.33329C8.11026 3.33329 3.33464 8.10892 3.33464 14C3.33464 19.891 8.11026 24.6666 14.0013 24.6666ZM14.0013 27.3333C21.3651 27.3333 27.3346 21.3638 27.3346 14C27.3346 6.63616 21.3651 0.666626 14.0013 0.666626C6.63751 0.666626 0.667969 6.63616 0.667969 14C0.667969 21.3638 6.63751 27.3333 14.0013 27.3333Z" fill="#121212"/>
<path d="M14.0013 7.33329C13.2649 7.33329 12.668 7.93025 12.668 8.66663V12.6666H8.66797C7.93159 12.6666 7.33463 13.2636 7.33463 14C7.33463 14.7363 7.93159 15.3333 8.66797 15.3333H12.668V19.3333C12.668 20.0697 13.2649 20.6666 14.0013 20.6666C14.7377 20.6666 15.3346 20.0697 15.3346 19.3333V15.3333H19.3346C20.071 15.3333 20.668 14.7363 20.668 14C20.668 13.2636 20.071 12.6666 19.3346 12.6666H15.3346V8.66663C15.3346 7.93025 14.7377 7.33329 14.0013 7.33329Z" fill="#121212"/>
</svg>
