<svg width="680" height="766" viewBox="0 0 680 766" fill="none" xmlns="http://www.w3.org/2000/svg">
<path d="M0.707596 679.46H37.7385M37.7385 679.46H75.4769M37.7385 679.46V680.168M37.7385 679.46V641.724M75.4769 679.46H113.215M75.4769 679.46V680.168M75.4769 679.46V641.724M113.215 679.46H150.954M113.215 679.46V680.168M113.215 679.46V641.724M150.954 679.46H188.692M150.954 679.46V680.168M150.954 679.46V641.724M188.692 679.46H226.431M188.692 679.46V680.168M188.692 679.46V641.724M226.431 679.46H264.169M226.431 679.46V680.168M226.431 679.46V641.724M264.169 679.46H301.908M264.169 679.46V680.168M264.169 679.46V641.724M301.908 679.46H339.646M301.908 679.46V680.168M301.908 679.46V641.724M339.646 679.46H377.385M339.646 679.46V680.168M339.646 679.46V641.724M377.385 679.46H415.123M377.385 679.46V680.168M377.385 679.46V641.724M415.123 679.46H452.862M415.123 679.46V680.168M415.123 679.46V641.724M452.862 679.46H490.6M452.862 679.46V680.168M452.862 679.46V641.724M490.6 679.46H528.339M490.6 679.46V680.168M490.6 679.46V641.724M528.339 679.46H566.077M528.339 679.46V680.168M528.339 679.46V641.724M566.077 679.46H603.815M566.077 679.46V680.168M566.077 679.46V641.724M603.815 679.46H641.554M603.815 679.46V680.168M603.815 679.46V641.724M641.554 679.46H679.292M641.554 679.46V680.168M641.554 679.46V641.724M679.292 679.46H680M679.292 679.46V680.168M679.292 679.46V641.724M0.707596 641.724H37.7385M37.7385 641.724H75.4769M37.7385 641.724V603.987M75.4769 641.724H113.215M75.4769 641.724V603.987M113.215 641.724H150.954M113.215 641.724V603.987M150.954 641.724H188.692M150.954 641.724V603.987M188.692 641.724H226.431M188.692 641.724V603.987M226.431 641.724H264.169M226.431 641.724V603.987M264.169 641.724H301.908M264.169 641.724V603.987M301.908 641.724H339.646M301.908 641.724V603.987M339.646 641.724H377.385M339.646 641.724V603.987M377.385 641.724H415.123M377.385 641.724V603.987M415.123 641.724H452.862M415.123 641.724V603.987M452.862 641.724H490.6M452.862 641.724V603.987M490.6 641.724H528.339M490.6 641.724V603.987M528.339 641.724H566.077M528.339 641.724V603.987M566.077 641.724H603.815M566.077 641.724V603.987M603.815 641.724H641.554M603.815 641.724V603.987M641.554 641.724H679.292M641.554 641.724V603.987M679.292 641.724H680M679.292 641.724V603.987M0.707596 603.987H37.7385M37.7385 603.987H75.4769M37.7385 603.987V566.25M75.4769 603.987H113.215M75.4769 603.987V566.25M113.215 603.987H150.954M113.215 603.987V566.25M150.954 603.987H188.692M150.954 603.987V566.25M188.692 603.987H226.431M188.692 603.987V566.25M226.431 603.987H264.169M226.431 603.987V566.25M264.169 603.987H301.908M264.169 603.987V566.25M301.908 603.987H339.646M301.908 603.987V566.25M339.646 603.987H377.385M339.646 603.987V566.25M377.385 603.987H415.123M377.385 603.987V566.25M415.123 603.987H452.862M415.123 603.987V566.25M452.862 603.987H490.6M452.862 603.987V566.25M490.6 603.987H528.339M490.6 603.987V566.25M528.339 603.987H566.077M528.339 603.987V566.25M566.077 603.987H603.815M566.077 603.987V566.25M603.815 603.987H641.554M603.815 603.987V566.25M641.554 603.987H679.292M641.554 603.987V566.25M679.292 603.987H680M679.292 603.987V566.25M0.707596 566.25H37.7385M37.7385 566.25H75.4769M37.7385 566.25V528.514M75.4769 566.25H113.215M75.4769 566.25V528.514M113.215 566.25H150.954M113.215 566.25V528.514M150.954 566.25H188.692M150.954 566.25V528.514M188.692 566.25H226.431M188.692 566.25V528.514M226.431 566.25H264.169M226.431 566.25V528.514M264.169 566.25H301.908M264.169 566.25V528.514M301.908 566.25H339.646M301.908 566.25V528.514M339.646 566.25H377.385M339.646 566.25V528.514M377.385 566.25H415.123M377.385 566.25V528.514M415.123 566.25H452.862M415.123 566.25V528.514M452.862 566.25H490.6M452.862 566.25V528.514M490.6 566.25H528.339M490.6 566.25V528.514M528.339 566.25H566.077M528.339 566.25V528.514M566.077 566.25H603.815M566.077 566.25V528.514M603.815 566.25H641.554M603.815 566.25V528.514M641.554 566.25H679.292M641.554 566.25V528.514M679.292 566.25H680M679.292 566.25V528.514M0.707596 528.514H37.7385M37.7385 528.514H75.4769M37.7385 528.514V490.777M75.4769 528.514H113.215M75.4769 528.514V490.777M113.215 528.514H150.954M113.215 528.514V490.777M150.954 528.514H188.692M150.954 528.514V490.777M188.692 528.514H226.431M188.692 528.514V490.777M226.431 528.514H264.169M226.431 528.514V490.777M264.169 528.514H301.908M264.169 528.514V490.777M301.908 528.514H339.646M301.908 528.514V490.777M339.646 528.514H377.385M339.646 528.514V490.777M377.385 528.514H415.123M377.385 528.514V490.777M415.123 528.514H452.862M415.123 528.514V490.777M452.862 528.514H490.6M452.862 528.514V490.777M490.6 528.514H528.339M490.6 528.514V490.777M528.339 528.514H566.077M528.339 528.514V490.777M566.077 528.514H603.815M566.077 528.514V490.777M603.815 528.514H641.554M603.815 528.514V490.777M641.554 528.514H679.292M641.554 528.514V490.777M679.292 528.514H680M679.292 528.514V490.777M0.707596 490.777H37.7385M37.7385 490.777H75.4769M37.7385 490.777V453.041M75.4769 490.777H113.215M75.4769 490.777V453.041M113.215 490.777H150.954M113.215 490.777V453.041M150.954 490.777H188.692M150.954 490.777V453.041M188.692 490.777H226.431M188.692 490.777V453.041M226.431 490.777H264.169M226.431 490.777V453.041M264.169 490.777H301.908M264.169 490.777V453.041M301.908 490.777H339.646M301.908 490.777V453.041M339.646 490.777H377.385M339.646 490.777V453.041M377.385 490.777H415.123M377.385 490.777V453.041M415.123 490.777H452.862M415.123 490.777V453.041M452.862 490.777H490.6M452.862 490.777V453.041M490.6 490.777H528.339M490.6 490.777V453.041M528.339 490.777H566.077M528.339 490.777V453.041M566.077 490.777H603.815M566.077 490.777V453.041M603.815 490.777H641.554M603.815 490.777V453.041M641.554 490.777H679.292M641.554 490.777V453.041M679.292 490.777H680M679.292 490.777V453.041M0.707596 453.041H37.7385M37.7385 453.041H75.4769M37.7385 453.041V415.304M75.4769 453.041H113.215M75.4769 453.041V415.304M113.215 453.041H150.954M113.215 453.041V415.304M150.954 453.041H188.692M150.954 453.041V415.304M188.692 453.041H226.431M188.692 453.041V415.304M226.431 453.041H264.169M226.431 453.041V415.304M264.169 453.041H301.908M264.169 453.041V415.304M301.908 453.041H339.646M301.908 453.041V415.304M339.646 453.041H377.385M339.646 453.041V415.304M377.385 453.041H415.123M377.385 453.041V415.304M415.123 453.041H452.862M415.123 453.041V415.304M452.862 453.041H490.6M452.862 453.041V415.304M490.6 453.041H528.339M490.6 453.041V415.304M528.339 453.041H566.077M528.339 453.041V415.304M566.077 453.041H603.815M566.077 453.041V415.304M603.815 453.041H641.554M603.815 453.041V415.304M641.554 453.041H679.292M641.554 453.041V415.304M679.292 453.041H680M679.292 453.041V415.304M0.707596 415.304H37.7385M37.7385 415.304H75.4769M37.7385 415.304V377.567M75.4769 415.304H113.215M75.4769 415.304V377.567M113.215 415.304H150.954M113.215 415.304V377.567M150.954 415.304H188.692M150.954 415.304V377.567M188.692 415.304H226.431M188.692 415.304V377.567M226.431 415.304H264.169M226.431 415.304V377.567M264.169 415.304H301.908M264.169 415.304V377.567M301.908 415.304H339.646M301.908 415.304V377.567M339.646 415.304H377.385M339.646 415.304V377.567M377.385 415.304H415.123M377.385 415.304V377.567M415.123 415.304H452.862M415.123 415.304V377.567M452.862 415.304H490.6M452.862 415.304V377.567M490.6 415.304H528.339M490.6 415.304V377.567M528.339 415.304H566.077M528.339 415.304V377.567M566.077 415.304H603.815M566.077 415.304V377.567M603.815 415.304H641.554M603.815 415.304V377.567M641.554 415.304H679.292M641.554 415.304V377.567M679.292 415.304H680M679.292 415.304V377.567M0.707596 377.567H37.7385M37.7385 377.567H75.4769M37.7385 377.567V339.831M75.4769 377.567H113.215M75.4769 377.567V339.831M113.215 377.567H150.954M113.215 377.567V339.831M150.954 377.567H188.692M150.954 377.567V339.831M188.692 377.567H226.431M188.692 377.567V339.831M226.431 377.567H264.169M226.431 377.567V339.831M264.169 377.567H301.908M264.169 377.567V339.831M301.908 377.567H339.646M301.908 377.567V339.831M339.646 377.567H377.385M339.646 377.567V339.831M377.385 377.567H415.123M377.385 377.567V339.831M415.123 377.567H452.862M415.123 377.567V339.831M452.862 377.567H490.6M452.862 377.567V339.831M490.6 377.567H528.339M490.6 377.567V339.831M528.339 377.567H566.077M528.339 377.567V339.831M566.077 377.567H603.815M566.077 377.567V339.831M603.815 377.567H641.554M603.815 377.567V339.831M641.554 377.567H679.292M641.554 377.567V339.831M679.292 377.567H680M679.292 377.567V339.831M0.707596 339.831H37.7385M37.7385 339.831H75.4769M37.7385 339.831V302.094M75.4769 339.831H113.215M75.4769 339.831V302.094M113.215 339.831H150.954M113.215 339.831V302.094M150.954 339.831H188.692M150.954 339.831V302.094M188.692 339.831H226.431M188.692 339.831V302.094M226.431 339.831H264.169M226.431 339.831V302.094M264.169 339.831H301.908M264.169 339.831V302.094M301.908 339.831H339.646M301.908 339.831V302.094M339.646 339.831H377.385M339.646 339.831V302.094M377.385 339.831H415.123M377.385 339.831V302.094M415.123 339.831H452.862M415.123 339.831V302.094M452.862 339.831H490.6M452.862 339.831V302.094M490.6 339.831H528.339M490.6 339.831V302.094M528.339 339.831H566.077M528.339 339.831V302.094M566.077 339.831H603.815M566.077 339.831V302.094M603.815 339.831H641.554M603.815 339.831V302.094M641.554 339.831H679.292M641.554 339.831V302.094M679.292 339.831H680M679.292 339.831V302.094M0.707596 302.094H37.7385M37.7385 302.094H75.4769M37.7385 302.094V264.357M75.4769 302.094H113.215M75.4769 302.094V264.357M113.215 302.094H150.954M113.215 302.094V264.357M150.954 302.094H188.692M150.954 302.094V264.357M188.692 302.094H226.431M188.692 302.094V264.357M226.431 302.094H264.169M226.431 302.094V264.357M264.169 302.094H301.908M264.169 302.094V264.357M301.908 302.094H339.646M301.908 302.094V264.357M339.646 302.094H377.385M339.646 302.094V264.357M377.385 302.094H415.123M377.385 302.094V264.357M415.123 302.094H452.862M415.123 302.094V264.357M452.862 302.094H490.6M452.862 302.094V264.357M490.6 302.094H528.339M490.6 302.094V264.357M528.339 302.094H566.077M528.339 302.094V264.357M566.077 302.094H603.815M566.077 302.094V264.357M603.815 302.094H641.554M603.815 302.094V264.357M641.554 302.094H679.292M641.554 302.094V264.357M679.292 302.094H680M679.292 302.094V264.357M0.707596 264.357H37.7385M37.7385 264.357H75.4769M37.7385 264.357V226.621M75.4769 264.357H113.215M75.4769 264.357V226.621M113.215 264.357H150.954M113.215 264.357V226.621M150.954 264.357H188.692M150.954 264.357V226.621M188.692 264.357H226.431M188.692 264.357V226.621M226.431 264.357H264.169M226.431 264.357V226.621M264.169 264.357H301.908M264.169 264.357V226.621M301.908 264.357H339.646M301.908 264.357V226.621M339.646 264.357H377.385M339.646 264.357V226.621M377.385 264.357H415.123M377.385 264.357V226.621M415.123 264.357H452.862M415.123 264.357V226.621M452.862 264.357H490.6M452.862 264.357V226.621M490.6 264.357H528.339M490.6 264.357V226.621M528.339 264.357H566.077M528.339 264.357V226.621M566.077 264.357H603.815M566.077 264.357V226.621M603.815 264.357H641.554M603.815 264.357V226.621M641.554 264.357H679.292M641.554 264.357V226.621M679.292 264.357H680M679.292 264.357V226.621M0.707596 226.621H37.7385M37.7385 226.621H75.4769M37.7385 226.621V188.884M75.4769 226.621H113.215M75.4769 226.621V188.884M113.215 226.621H150.954M113.215 226.621V188.884M150.954 226.621H188.692M150.954 226.621V188.884M188.692 226.621H226.431M188.692 226.621V188.884M226.431 226.621H264.169M226.431 226.621V188.884M264.169 226.621H301.908M264.169 226.621V188.884M301.908 226.621H339.646M301.908 226.621V188.884M339.646 226.621H377.385M339.646 226.621V188.884M377.385 226.621H415.123M377.385 226.621V188.884M415.123 226.621H452.862M415.123 226.621V188.884M452.862 226.621H490.6M452.862 226.621V188.884M490.6 226.621H528.339M490.6 226.621V188.884M528.339 226.621H566.077M528.339 226.621V188.884M566.077 226.621H603.815M566.077 226.621V188.884M603.815 226.621H641.554M603.815 226.621V188.884M641.554 226.621H679.292M641.554 226.621V188.884M679.292 226.621H680M679.292 226.621V188.884M0.707596 188.884H37.7385M37.7385 188.884H75.4769M37.7385 188.884V151.148M75.4769 188.884H113.215M75.4769 188.884V151.148M113.215 188.884H150.954M113.215 188.884V151.148M150.954 188.884H188.692M150.954 188.884V151.148M188.692 188.884H226.431M188.692 188.884V151.148M226.431 188.884H264.169M226.431 188.884V151.148M264.169 188.884H301.908M264.169 188.884V151.148M301.908 188.884H339.646M301.908 188.884V151.148M339.646 188.884H377.385M339.646 188.884V151.148M377.385 188.884H415.123M377.385 188.884V151.148M415.123 188.884H452.862M415.123 188.884V151.148M452.862 188.884H490.6M452.862 188.884V151.148M490.6 188.884H528.339M490.6 188.884V151.148M528.339 188.884H566.077M528.339 188.884V151.148M566.077 188.884H603.815M566.077 188.884V151.148M603.815 188.884H641.554M603.815 188.884V151.148M641.554 188.884H679.292M641.554 188.884V151.148M679.292 188.884H680M679.292 188.884V151.148M0.707596 151.148H37.7385M37.7385 151.148H75.4769M37.7385 151.148V113.411M75.4769 151.148H113.215M75.4769 151.148V113.411M113.215 151.148H150.954M113.215 151.148V113.411M150.954 151.148H188.692M150.954 151.148V113.411M188.692 151.148H226.431M188.692 151.148V113.411M226.431 151.148H264.169M226.431 151.148V113.411M264.169 151.148H301.908M264.169 151.148V113.411M301.908 151.148H339.646M301.908 151.148V113.411M339.646 151.148H377.385M339.646 151.148V113.411M377.385 151.148H415.123M377.385 151.148V113.411M415.123 151.148H452.862M415.123 151.148V113.411M452.862 151.148H490.6M452.862 151.148V113.411M490.6 151.148H528.339M490.6 151.148V113.411M528.339 151.148H566.077M528.339 151.148V113.411M566.077 151.148H603.815M566.077 151.148V113.411M603.815 151.148H641.554M603.815 151.148V113.411M641.554 151.148H679.292M641.554 151.148V113.411M679.292 151.148H680M679.292 151.148V113.411M0.707596 113.411H37.7385M37.7385 113.411H75.4769M37.7385 113.411V75.6744M75.4769 113.411H113.215M75.4769 113.411V75.6744M113.215 113.411H150.954M113.215 113.411V75.6744M150.954 113.411H188.692M150.954 113.411V75.6744M188.692 113.411H226.431M188.692 113.411V75.6744M226.431 113.411H264.169M226.431 113.411V75.6744M264.169 113.411H301.908M264.169 113.411V75.6744M301.908 113.411H339.646M301.908 113.411V75.6744M339.646 113.411H377.385M339.646 113.411V75.6744M377.385 113.411H415.123M377.385 113.411V75.6744M415.123 113.411H452.862M415.123 113.411V75.6744M452.862 113.411H490.6M452.862 113.411V75.6744M490.6 113.411H528.339M490.6 113.411V75.6744M528.339 113.411H566.077M528.339 113.411V75.6744M566.077 113.411H603.815M566.077 113.411V75.6744M603.815 113.411H641.554M603.815 113.411V75.6744M641.554 113.411H679.292M641.554 113.411V75.6744M679.292 113.411H680M679.292 113.411V75.6744M0.707596 75.6744H37.7385M37.7385 75.6744H75.4769M37.7385 75.6744V37.9378M75.4769 75.6744H113.215M75.4769 75.6744V37.9378M113.215 75.6744H150.954M113.215 75.6744V37.9378M150.954 75.6744H188.692M150.954 75.6744V37.9378M188.692 75.6744H226.431M188.692 75.6744V37.9378M226.431 75.6744H264.169M226.431 75.6744V37.9378M264.169 75.6744H301.908M264.169 75.6744V37.9378M301.908 75.6744H339.646M301.908 75.6744V37.9378M339.646 75.6744H377.385M339.646 75.6744V37.9378M377.385 75.6744H415.123M377.385 75.6744V37.9378M415.123 75.6744H452.862M415.123 75.6744V37.9378M452.862 75.6744H490.6M452.862 75.6744V37.9378M490.6 75.6744H528.339M490.6 75.6744V37.9378M528.339 75.6744H566.077M528.339 75.6744V37.9378M566.077 75.6744H603.815M566.077 75.6744V37.9378M603.815 75.6744H641.554M603.815 75.6744V37.9378M641.554 75.6744H679.292M641.554 75.6744V37.9378M679.292 75.6744H680M679.292 75.6744V37.9378M0.707596 37.9378H37.7385M37.7385 37.9378H75.4769M37.7385 37.9378V0.908733M75.4769 37.9378H113.215M75.4769 37.9378V0.908733M113.215 37.9378H150.954M113.215 37.9378V0.908733M150.954 37.9378H188.692M150.954 37.9378V0.908733M188.692 37.9378H226.431M188.692 37.9378V0.908733M226.431 37.9378H264.169M226.431 37.9378V0.908733M264.169 37.9378H301.908M264.169 37.9378V0.908733M301.908 37.9378H339.646M301.908 37.9378V0.908733M339.646 37.9378H377.385M339.646 37.9378V0.908733M377.385 37.9378H415.123M377.385 37.9378V0.908733M415.123 37.9378H452.862M415.123 37.9378V0.908733M452.862 37.9378H490.6M452.862 37.9378V0.908733M490.6 37.9378H528.339M490.6 37.9378V0.908733M528.339 37.9378H566.077M528.339 37.9378V0.908733M566.077 37.9378H603.815M566.077 37.9378V0.908733M603.815 37.9378H641.554M603.815 37.9378V0.908733M641.554 37.9378H679.292M641.554 37.9378V0.908733M679.292 37.9378H680M679.292 37.9378V0.908733M0.707596 0.201172H680M0 680.168V0.908733M0.707596 1358.48H37.7385M37.7385 1358.48H75.4769M37.7385 1358.48V1359.19M37.7385 1358.48V1320.75M75.4769 1358.48H113.215M75.4769 1358.48V1359.19M75.4769 1358.48V1320.75M113.215 1358.48H150.954M113.215 1358.48V1359.19M113.215 1358.48V1320.75M150.954 1358.48H188.692M150.954 1358.48V1359.19M150.954 1358.48V1320.75M188.692 1358.48H226.431M188.692 1358.48V1359.19M188.692 1358.48V1320.75M226.431 1358.48H264.169M226.431 1358.48V1359.19M226.431 1358.48V1320.75M264.169 1358.48H301.908M264.169 1358.48V1359.19M264.169 1358.48V1320.75M301.908 1358.48H339.646M301.908 1358.48V1359.19M301.908 1358.48V1320.75M339.646 1358.48H377.385M339.646 1358.48V1359.19M339.646 1358.48V1320.75M377.385 1358.48H415.123M377.385 1358.48V1359.19M377.385 1358.48V1320.75M415.123 1358.48H452.862M415.123 1358.48V1359.19M415.123 1358.48V1320.75M452.862 1358.48H490.6M452.862 1358.48V1359.19M452.862 1358.48V1320.75M490.6 1358.48H528.339M490.6 1358.48V1359.19M490.6 1358.48V1320.75M528.339 1358.48H566.077M528.339 1358.48V1359.19M528.339 1358.48V1320.75M566.077 1358.48H603.815M566.077 1358.48V1359.19M566.077 1358.48V1320.75M603.815 1358.48H641.554M603.815 1358.48V1359.19M603.815 1358.48V1320.75M641.554 1358.48H679.292M641.554 1358.48V1359.19M641.554 1358.48V1320.75M679.292 1358.48H680M679.292 1358.48V1359.19M679.292 1358.48V1320.75M0.707596 1320.75H37.7385M37.7385 1320.75H75.4769M37.7385 1320.75V1283.01M75.4769 1320.75H113.215M75.4769 1320.75V1283.01M113.215 1320.75H150.954M113.215 1320.75V1283.01M150.954 1320.75H188.692M150.954 1320.75V1283.01M188.692 1320.75H226.431M188.692 1320.75V1283.01M226.431 1320.75H264.169M226.431 1320.75V1283.01M264.169 1320.75H301.908M264.169 1320.75V1283.01M301.908 1320.75H339.646M301.908 1320.75V1283.01M339.646 1320.75H377.385M339.646 1320.75V1283.01M377.385 1320.75H415.123M377.385 1320.75V1283.01M415.123 1320.75H452.862M415.123 1320.75V1283.01M452.862 1320.75H490.6M452.862 1320.75V1283.01M490.6 1320.75H528.339M490.6 1320.75V1283.01M528.339 1320.75H566.077M528.339 1320.75V1283.01M566.077 1320.75H603.815M566.077 1320.75V1283.01M603.815 1320.75H641.554M603.815 1320.75V1283.01M641.554 1320.75H679.292M641.554 1320.75V1283.01M679.292 1320.75H680M679.292 1320.75V1283.01M0.707596 1283.01H37.7385M37.7385 1283.01H75.4769M37.7385 1283.01V1245.27M75.4769 1283.01H113.215M75.4769 1283.01V1245.27M113.215 1283.01H150.954M113.215 1283.01V1245.27M150.954 1283.01H188.692M150.954 1283.01V1245.27M188.692 1283.01H226.431M188.692 1283.01V1245.27M226.431 1283.01H264.169M226.431 1283.01V1245.27M264.169 1283.01H301.908M264.169 1283.01V1245.27M301.908 1283.01H339.646M301.908 1283.01V1245.27M339.646 1283.01H377.385M339.646 1283.01V1245.27M377.385 1283.01H415.123M377.385 1283.01V1245.27M415.123 1283.01H452.862M415.123 1283.01V1245.27M452.862 1283.01H490.6M452.862 1283.01V1245.27M490.6 1283.01H528.339M490.6 1283.01V1245.27M528.339 1283.01H566.077M528.339 1283.01V1245.27M566.077 1283.01H603.815M566.077 1283.01V1245.27M603.815 1283.01H641.554M603.815 1283.01V1245.27M641.554 1283.01H679.292M641.554 1283.01V1245.27M679.292 1283.01H680M679.292 1283.01V1245.27M0.707596 1245.27H37.7385M37.7385 1245.27H75.4769M37.7385 1245.27V1207.54M75.4769 1245.27H113.215M75.4769 1245.27V1207.54M113.215 1245.27H150.954M113.215 1245.27V1207.54M150.954 1245.27H188.692M150.954 1245.27V1207.54M188.692 1245.27H226.431M188.692 1245.27V1207.54M226.431 1245.27H264.169M226.431 1245.27V1207.54M264.169 1245.27H301.908M264.169 1245.27V1207.54M301.908 1245.27H339.646M301.908 1245.27V1207.54M339.646 1245.27H377.385M339.646 1245.27V1207.54M377.385 1245.27H415.123M377.385 1245.27V1207.54M415.123 1245.27H452.862M415.123 1245.27V1207.54M452.862 1245.27H490.6M452.862 1245.27V1207.54M490.6 1245.27H528.339M490.6 1245.27V1207.54M528.339 1245.27H566.077M528.339 1245.27V1207.54M566.077 1245.27H603.815M566.077 1245.27V1207.54M603.815 1245.27H641.554M603.815 1245.27V1207.54M641.554 1245.27H679.292M641.554 1245.27V1207.54M679.292 1245.27H680M679.292 1245.27V1207.54M0.707596 1207.54H37.7385M37.7385 1207.54H75.4769M37.7385 1207.54V1169.8M75.4769 1207.54H113.215M75.4769 1207.54V1169.8M113.215 1207.54H150.954M113.215 1207.54V1169.8M150.954 1207.54H188.692M150.954 1207.54V1169.8M188.692 1207.54H226.431M188.692 1207.54V1169.8M226.431 1207.54H264.169M226.431 1207.54V1169.8M264.169 1207.54H301.908M264.169 1207.54V1169.8M301.908 1207.54H339.646M301.908 1207.54V1169.8M339.646 1207.54H377.385M339.646 1207.54V1169.8M377.385 1207.54H415.123M377.385 1207.54V1169.8M415.123 1207.54H452.862M415.123 1207.54V1169.8M452.862 1207.54H490.6M452.862 1207.54V1169.8M490.6 1207.54H528.339M490.6 1207.54V1169.8M528.339 1207.54H566.077M528.339 1207.54V1169.8M566.077 1207.54H603.815M566.077 1207.54V1169.8M603.815 1207.54H641.554M603.815 1207.54V1169.8M641.554 1207.54H679.292M641.554 1207.54V1169.8M679.292 1207.54H680M679.292 1207.54V1169.8M0.707596 1169.8H37.7385M37.7385 1169.8H75.4769M37.7385 1169.8V1132.06M75.4769 1169.8H113.215M75.4769 1169.8V1132.06M113.215 1169.8H150.954M113.215 1169.8V1132.06M150.954 1169.8H188.692M150.954 1169.8V1132.06M188.692 1169.8H226.431M188.692 1169.8V1132.06M226.431 1169.8H264.169M226.431 1169.8V1132.06M264.169 1169.8H301.908M264.169 1169.8V1132.06M301.908 1169.8H339.646M301.908 1169.8V1132.06M339.646 1169.8H377.385M339.646 1169.8V1132.06M377.385 1169.8H415.123M377.385 1169.8V1132.06M415.123 1169.8H452.862M415.123 1169.8V1132.06M452.862 1169.8H490.6M452.862 1169.8V1132.06M490.6 1169.8H528.339M490.6 1169.8V1132.06M528.339 1169.8H566.077M528.339 1169.8V1132.06M566.077 1169.8H603.815M566.077 1169.8V1132.06M603.815 1169.8H641.554M603.815 1169.8V1132.06M641.554 1169.8H679.292M641.554 1169.8V1132.06M679.292 1169.8H680M679.292 1169.8V1132.06M0.707596 1132.06H37.7385M37.7385 1132.06H75.4769M37.7385 1132.06V1094.33M75.4769 1132.06H113.215M75.4769 1132.06V1094.33M113.215 1132.06H150.954M113.215 1132.06V1094.33M150.954 1132.06H188.692M150.954 1132.06V1094.33M188.692 1132.06H226.431M188.692 1132.06V1094.33M226.431 1132.06H264.169M226.431 1132.06V1094.33M264.169 1132.06H301.908M264.169 1132.06V1094.33M301.908 1132.06H339.646M301.908 1132.06V1094.33M339.646 1132.06H377.385M339.646 1132.06V1094.33M377.385 1132.06H415.123M377.385 1132.06V1094.33M415.123 1132.06H452.862M415.123 1132.06V1094.33M452.862 1132.06H490.6M452.862 1132.06V1094.33M490.6 1132.06H528.339M490.6 1132.06V1094.33M528.339 1132.06H566.077M528.339 1132.06V1094.33M566.077 1132.06H603.815M566.077 1132.06V1094.33M603.815 1132.06H641.554M603.815 1132.06V1094.33M641.554 1132.06H679.292M641.554 1132.06V1094.33M679.292 1132.06H680M679.292 1132.06V1094.33M0.707596 1094.33H37.7385M37.7385 1094.33H75.4769M37.7385 1094.33V1056.59M75.4769 1094.33H113.215M75.4769 1094.33V1056.59M113.215 1094.33H150.954M113.215 1094.33V1056.59M150.954 1094.33H188.692M150.954 1094.33V1056.59M188.692 1094.33H226.431M188.692 1094.33V1056.59M226.431 1094.33H264.169M226.431 1094.33V1056.59M264.169 1094.33H301.908M264.169 1094.33V1056.59M301.908 1094.33H339.646M301.908 1094.33V1056.59M339.646 1094.33H377.385M339.646 1094.33V1056.59M377.385 1094.33H415.123M377.385 1094.33V1056.59M415.123 1094.33H452.862M415.123 1094.33V1056.59M452.862 1094.33H490.6M452.862 1094.33V1056.59M490.6 1094.33H528.339M490.6 1094.33V1056.59M528.339 1094.33H566.077M528.339 1094.33V1056.59M566.077 1094.33H603.815M566.077 1094.33V1056.59M603.815 1094.33H641.554M603.815 1094.33V1056.59M641.554 1094.33H679.292M641.554 1094.33V1056.59M679.292 1094.33H680M679.292 1094.33V1056.59M0.707596 1056.59H37.7385M37.7385 1056.59H75.4769M37.7385 1056.59V1018.85M75.4769 1056.59H113.215M75.4769 1056.59V1018.85M113.215 1056.59H150.954M113.215 1056.59V1018.85M150.954 1056.59H188.692M150.954 1056.59V1018.85M188.692 1056.59H226.431M188.692 1056.59V1018.85M226.431 1056.59H264.169M226.431 1056.59V1018.85M264.169 1056.59H301.908M264.169 1056.59V1018.85M301.908 1056.59H339.646M301.908 1056.59V1018.85M339.646 1056.59H377.385M339.646 1056.59V1018.85M377.385 1056.59H415.123M377.385 1056.59V1018.85M415.123 1056.59H452.862M415.123 1056.59V1018.85M452.862 1056.59H490.6M452.862 1056.59V1018.85M490.6 1056.59H528.339M490.6 1056.59V1018.85M528.339 1056.59H566.077M528.339 1056.59V1018.85M566.077 1056.59H603.815M566.077 1056.59V1018.85M603.815 1056.59H641.554M603.815 1056.59V1018.85M641.554 1056.59H679.292M641.554 1056.59V1018.85M679.292 1056.59H680M679.292 1056.59V1018.85M0.707596 1018.85H37.7385M37.7385 1018.85H75.4769M37.7385 1018.85V981.116M75.4769 1018.85H113.215M75.4769 1018.85V981.116M113.215 1018.85H150.954M113.215 1018.85V981.116M150.954 1018.85H188.692M150.954 1018.85V981.116M188.692 1018.85H226.431M188.692 1018.85V981.116M226.431 1018.85H264.169M226.431 1018.85V981.116M264.169 1018.85H301.908M264.169 1018.85V981.116M301.908 1018.85H339.646M301.908 1018.85V981.116M339.646 1018.85H377.385M339.646 1018.85V981.116M377.385 1018.85H415.123M377.385 1018.85V981.116M415.123 1018.85H452.862M415.123 1018.85V981.116M452.862 1018.85H490.6M452.862 1018.85V981.116M490.6 1018.85H528.339M490.6 1018.85V981.116M528.339 1018.85H566.077M528.339 1018.85V981.116M566.077 1018.85H603.815M566.077 1018.85V981.116M603.815 1018.85H641.554M603.815 1018.85V981.116M641.554 1018.85H679.292M641.554 1018.85V981.116M679.292 1018.85H680M679.292 1018.85V981.116M0.707596 981.116H37.7385M37.7385 981.116H75.4769M37.7385 981.116V943.38M75.4769 981.116H113.215M75.4769 981.116V943.38M113.215 981.116H150.954M113.215 981.116V943.38M150.954 981.116H188.692M150.954 981.116V943.38M188.692 981.116H226.431M188.692 981.116V943.38M226.431 981.116H264.169M226.431 981.116V943.38M264.169 981.116H301.908M264.169 981.116V943.38M301.908 981.116H339.646M301.908 981.116V943.38M339.646 981.116H377.385M339.646 981.116V943.38M377.385 981.116H415.123M377.385 981.116V943.38M415.123 981.116H452.862M415.123 981.116V943.38M452.862 981.116H490.6M452.862 981.116V943.38M490.6 981.116H528.339M490.6 981.116V943.38M528.339 981.116H566.077M528.339 981.116V943.38M566.077 981.116H603.815M566.077 981.116V943.38M603.815 981.116H641.554M603.815 981.116V943.38M641.554 981.116H679.292M641.554 981.116V943.38M679.292 981.116H680M679.292 981.116V943.38M0.707596 943.38H37.7385M37.7385 943.38H75.4769M37.7385 943.38V905.643M75.4769 943.38H113.215M75.4769 943.38V905.643M113.215 943.38H150.954M113.215 943.38V905.643M150.954 943.38H188.692M150.954 943.38V905.643M188.692 943.38H226.431M188.692 943.38V905.643M226.431 943.38H264.169M226.431 943.38V905.643M264.169 943.38H301.908M264.169 943.38V905.643M301.908 943.38H339.646M301.908 943.38V905.643M339.646 943.38H377.385M339.646 943.38V905.643M377.385 943.38H415.123M377.385 943.38V905.643M415.123 943.38H452.862M415.123 943.38V905.643M452.862 943.38H490.6M452.862 943.38V905.643M490.6 943.38H528.339M490.6 943.38V905.643M528.339 943.38H566.077M528.339 943.38V905.643M566.077 943.38H603.815M566.077 943.38V905.643M603.815 943.38H641.554M603.815 943.38V905.643M641.554 943.38H679.292M641.554 943.38V905.643M679.292 943.38H680M679.292 943.38V905.643M0.707596 905.643H37.7385M37.7385 905.643H75.4769M37.7385 905.643V867.906M75.4769 905.643H113.215M75.4769 905.643V867.906M113.215 905.643H150.954M113.215 905.643V867.906M150.954 905.643H188.692M150.954 905.643V867.906M188.692 905.643H226.431M188.692 905.643V867.906M226.431 905.643H264.169M226.431 905.643V867.906M264.169 905.643H301.908M264.169 905.643V867.906M301.908 905.643H339.646M301.908 905.643V867.906M339.646 905.643H377.385M339.646 905.643V867.906M377.385 905.643H415.123M377.385 905.643V867.906M415.123 905.643H452.862M415.123 905.643V867.906M452.862 905.643H490.6M452.862 905.643V867.906M490.6 905.643H528.339M490.6 905.643V867.906M528.339 905.643H566.077M528.339 905.643V867.906M566.077 905.643H603.815M566.077 905.643V867.906M603.815 905.643H641.554M603.815 905.643V867.906M641.554 905.643H679.292M641.554 905.643V867.906M679.292 905.643H680M679.292 905.643V867.906M0.707596 867.906H37.7385M37.7385 867.906H75.4769M37.7385 867.906V830.17M75.4769 867.906H113.215M75.4769 867.906V830.17M113.215 867.906H150.954M113.215 867.906V830.17M150.954 867.906H188.692M150.954 867.906V830.17M188.692 867.906H226.431M188.692 867.906V830.17M226.431 867.906H264.169M226.431 867.906V830.17M264.169 867.906H301.908M264.169 867.906V830.17M301.908 867.906H339.646M301.908 867.906V830.17M339.646 867.906H377.385M339.646 867.906V830.17M377.385 867.906H415.123M377.385 867.906V830.17M415.123 867.906H452.862M415.123 867.906V830.17M452.862 867.906H490.6M452.862 867.906V830.17M490.6 867.906H528.339M490.6 867.906V830.17M528.339 867.906H566.077M528.339 867.906V830.17M566.077 867.906H603.815M566.077 867.906V830.17M603.815 867.906H641.554M603.815 867.906V830.17M641.554 867.906H679.292M641.554 867.906V830.17M679.292 867.906H680M679.292 867.906V830.17M0.707596 830.17H37.7385M37.7385 830.17H75.4769M37.7385 830.17V792.433M75.4769 830.17H113.215M75.4769 830.17V792.433M113.215 830.17H150.954M113.215 830.17V792.433M150.954 830.17H188.692M150.954 830.17V792.433M188.692 830.17H226.431M188.692 830.17V792.433M226.431 830.17H264.169M226.431 830.17V792.433M264.169 830.17H301.908M264.169 830.17V792.433M301.908 830.17H339.646M301.908 830.17V792.433M339.646 830.17H377.385M339.646 830.17V792.433M377.385 830.17H415.123M377.385 830.17V792.433M415.123 830.17H452.862M415.123 830.17V792.433M452.862 830.17H490.6M452.862 830.17V792.433M490.6 830.17H528.339M490.6 830.17V792.433M528.339 830.17H566.077M528.339 830.17V792.433M566.077 830.17H603.815M566.077 830.17V792.433M603.815 830.17H641.554M603.815 830.17V792.433M641.554 830.17H679.292M641.554 830.17V792.433M679.292 830.17H680M679.292 830.17V792.433M0.707596 792.433H37.7385M37.7385 792.433H75.4769M37.7385 792.433V754.697M75.4769 792.433H113.215M75.4769 792.433V754.697M113.215 792.433H150.954M113.215 792.433V754.697M150.954 792.433H188.692M150.954 792.433V754.697M188.692 792.433H226.431M188.692 792.433V754.697M226.431 792.433H264.169M226.431 792.433V754.697M264.169 792.433H301.908M264.169 792.433V754.697M301.908 792.433H339.646M301.908 792.433V754.697M339.646 792.433H377.385M339.646 792.433V754.697M377.385 792.433H415.123M377.385 792.433V754.697M415.123 792.433H452.862M415.123 792.433V754.697M452.862 792.433H490.6M452.862 792.433V754.697M490.6 792.433H528.339M490.6 792.433V754.697M528.339 792.433H566.077M528.339 792.433V754.697M566.077 792.433H603.815M566.077 792.433V754.697M603.815 792.433H641.554M603.815 792.433V754.697M641.554 792.433H679.292M641.554 792.433V754.697M679.292 792.433H680M679.292 792.433V754.697M0.707596 754.697H37.7385M37.7385 754.697H75.4769M37.7385 754.697V716.96M75.4769 754.697H113.215M75.4769 754.697V716.96M113.215 754.697H150.954M113.215 754.697V716.96M150.954 754.697H188.692M150.954 754.697V716.96M188.692 754.697H226.431M188.692 754.697V716.96M226.431 754.697H264.169M226.431 754.697V716.96M264.169 754.697H301.908M264.169 754.697V716.96M301.908 754.697H339.646M301.908 754.697V716.96M339.646 754.697H377.385M339.646 754.697V716.96M377.385 754.697H415.123M377.385 754.697V716.96M415.123 754.697H452.862M415.123 754.697V716.96M452.862 754.697H490.6M452.862 754.697V716.96M490.6 754.697H528.339M490.6 754.697V716.96M528.339 754.697H566.077M528.339 754.697V716.96M566.077 754.697H603.815M566.077 754.697V716.96M603.815 754.697H641.554M603.815 754.697V716.96M641.554 754.697H679.292M641.554 754.697V716.96M679.292 754.697H680M679.292 754.697V716.96M0.707596 716.96H37.7385M37.7385 716.96H75.4769M37.7385 716.96V679.931M75.4769 716.96H113.215M75.4769 716.96V679.931M113.215 716.96H150.954M113.215 716.96V679.931M150.954 716.96H188.692M150.954 716.96V679.931M188.692 716.96H226.431M188.692 716.96V679.931M226.431 716.96H264.169M226.431 716.96V679.931M264.169 716.96H301.908M264.169 716.96V679.931M301.908 716.96H339.646M301.908 716.96V679.931M339.646 716.96H377.385M339.646 716.96V679.931M377.385 716.96H415.123M377.385 716.96V679.931M415.123 716.96H452.862M415.123 716.96V679.931M452.862 716.96H490.6M452.862 716.96V679.931M490.6 716.96H528.339M490.6 716.96V679.931M528.339 716.96H566.077M528.339 716.96V679.931M566.077 716.96H603.815M566.077 716.96V679.931M603.815 716.96H641.554M603.815 716.96V679.931M641.554 716.96H679.292M641.554 716.96V679.931M679.292 716.96H680M679.292 716.96V679.931M0.707596 679.223H680M0 1359.19V679.931M0.707596 2037.98H37.7385M37.7385 2037.98H75.4769M37.7385 2037.98V2038.68M37.7385 2037.98V2000.24M75.4769 2037.98H113.215M75.4769 2037.98V2038.68M75.4769 2037.98V2000.24M113.215 2037.98H150.954M113.215 2037.98V2038.68M113.215 2037.98V2000.24M150.954 2037.98H188.692M150.954 2037.98V2038.68M150.954 2037.98V2000.24M188.692 2037.98H226.431M188.692 2037.98V2038.68M188.692 2037.98V2000.24M226.431 2037.98H264.169M226.431 2037.98V2038.68M226.431 2037.98V2000.24M264.169 2037.98H301.908M264.169 2037.98V2038.68M264.169 2037.98V2000.24M301.908 2037.98H339.646M301.908 2037.98V2038.68M301.908 2037.98V2000.24M339.646 2037.98H377.385M339.646 2037.98V2038.68M339.646 2037.98V2000.24M377.385 2037.98H415.123M377.385 2037.98V2038.68M377.385 2037.98V2000.24M415.123 2037.98H452.862M415.123 2037.98V2038.68M415.123 2037.98V2000.24M452.862 2037.98H490.6M452.862 2037.98V2038.68M452.862 2037.98V2000.24M490.6 2037.98H528.339M490.6 2037.98V2038.68M490.6 2037.98V2000.24M528.339 2037.98H566.077M528.339 2037.98V2038.68M528.339 2037.98V2000.24M566.077 2037.98H603.815M566.077 2037.98V2038.68M566.077 2037.98V2000.24M603.815 2037.98H641.554M603.815 2037.98V2038.68M603.815 2037.98V2000.24M641.554 2037.98H679.292M641.554 2037.98V2038.68M641.554 2037.98V2000.24M679.292 2037.98H680M679.292 2037.98V2038.68M679.292 2037.98V2000.24M0.707596 2000.24H37.7385M37.7385 2000.24H75.4769M37.7385 2000.24V1962.5M75.4769 2000.24H113.215M75.4769 2000.24V1962.5M113.215 2000.24H150.954M113.215 2000.24V1962.5M150.954 2000.24H188.692M150.954 2000.24V1962.5M188.692 2000.24H226.431M188.692 2000.24V1962.5M226.431 2000.24H264.169M226.431 2000.24V1962.5M264.169 2000.24H301.908M264.169 2000.24V1962.5M301.908 2000.24H339.646M301.908 2000.24V1962.5M339.646 2000.24H377.385M339.646 2000.24V1962.5M377.385 2000.24H415.123M377.385 2000.24V1962.5M415.123 2000.24H452.862M415.123 2000.24V1962.5M452.862 2000.24H490.6M452.862 2000.24V1962.5M490.6 2000.24H528.339M490.6 2000.24V1962.5M528.339 2000.24H566.077M528.339 2000.24V1962.5M566.077 2000.24H603.815M566.077 2000.24V1962.5M603.815 2000.24H641.554M603.815 2000.24V1962.5M641.554 2000.24H679.292M641.554 2000.24V1962.5M679.292 2000.24H680M679.292 2000.24V1962.5M0.707596 1962.5H37.7385M37.7385 1962.5H75.4769M37.7385 1962.5V1924.77M75.4769 1962.5H113.215M75.4769 1962.5V1924.77M113.215 1962.5H150.954M113.215 1962.5V1924.77M150.954 1962.5H188.692M150.954 1962.5V1924.77M188.692 1962.5H226.431M188.692 1962.5V1924.77M226.431 1962.5H264.169M226.431 1962.5V1924.77M264.169 1962.5H301.908M264.169 1962.5V1924.77M301.908 1962.5H339.646M301.908 1962.5V1924.77M339.646 1962.5H377.385M339.646 1962.5V1924.77M377.385 1962.5H415.123M377.385 1962.5V1924.77M415.123 1962.5H452.862M415.123 1962.5V1924.77M452.862 1962.5H490.6M452.862 1962.5V1924.77M490.6 1962.5H528.339M490.6 1962.5V1924.77M528.339 1962.5H566.077M528.339 1962.5V1924.77M566.077 1962.5H603.815M566.077 1962.5V1924.77M603.815 1962.5H641.554M603.815 1962.5V1924.77M641.554 1962.5H679.292M641.554 1962.5V1924.77M679.292 1962.5H680M679.292 1962.5V1924.77M0.707596 1924.77H37.7385M37.7385 1924.77H75.4769M37.7385 1924.77V1887.03M75.4769 1924.77H113.215M75.4769 1924.77V1887.03M113.215 1924.77H150.954M113.215 1924.77V1887.03M150.954 1924.77H188.692M150.954 1924.77V1887.03M188.692 1924.77H226.431M188.692 1924.77V1887.03M226.431 1924.77H264.169M226.431 1924.77V1887.03M264.169 1924.77H301.908M264.169 1924.77V1887.03M301.908 1924.77H339.646M301.908 1924.77V1887.03M339.646 1924.77H377.385M339.646 1924.77V1887.03M377.385 1924.77H415.123M377.385 1924.77V1887.03M415.123 1924.77H452.862M415.123 1924.77V1887.03M452.862 1924.77H490.6M452.862 1924.77V1887.03M490.6 1924.77H528.339M490.6 1924.77V1887.03M528.339 1924.77H566.077M528.339 1924.77V1887.03M566.077 1924.77H603.815M566.077 1924.77V1887.03M603.815 1924.77H641.554M603.815 1924.77V1887.03M641.554 1924.77H679.292M641.554 1924.77V1887.03M679.292 1924.77H680M679.292 1924.77V1887.03M0.707596 1887.03H37.7385M37.7385 1887.03H75.4769M37.7385 1887.03V1849.29M75.4769 1887.03H113.215M75.4769 1887.03V1849.29M113.215 1887.03H150.954M113.215 1887.03V1849.29M150.954 1887.03H188.692M150.954 1887.03V1849.29M188.692 1887.03H226.431M188.692 1887.03V1849.29M226.431 1887.03H264.169M226.431 1887.03V1849.29M264.169 1887.03H301.908M264.169 1887.03V1849.29M301.908 1887.03H339.646M301.908 1887.03V1849.29M339.646 1887.03H377.385M339.646 1887.03V1849.29M377.385 1887.03H415.123M377.385 1887.03V1849.29M415.123 1887.03H452.862M415.123 1887.03V1849.29M452.862 1887.03H490.6M452.862 1887.03V1849.29M490.6 1887.03H528.339M490.6 1887.03V1849.29M528.339 1887.03H566.077M528.339 1887.03V1849.29M566.077 1887.03H603.815M566.077 1887.03V1849.29M603.815 1887.03H641.554M603.815 1887.03V1849.29M641.554 1887.03H679.292M641.554 1887.03V1849.29M679.292 1887.03H680M679.292 1887.03V1849.29M0.707596 1849.29H37.7385M37.7385 1849.29H75.4769M37.7385 1849.29V1811.56M75.4769 1849.29H113.215M75.4769 1849.29V1811.56M113.215 1849.29H150.954M113.215 1849.29V1811.56M150.954 1849.29H188.692M150.954 1849.29V1811.56M188.692 1849.29H226.431M188.692 1849.29V1811.56M226.431 1849.29H264.169M226.431 1849.29V1811.56M264.169 1849.29H301.908M264.169 1849.29V1811.56M301.908 1849.29H339.646M301.908 1849.29V1811.56M339.646 1849.29H377.385M339.646 1849.29V1811.56M377.385 1849.29H415.123M377.385 1849.29V1811.56M415.123 1849.29H452.862M415.123 1849.29V1811.56M452.862 1849.29H490.6M452.862 1849.29V1811.56M490.6 1849.29H528.339M490.6 1849.29V1811.56M528.339 1849.29H566.077M528.339 1849.29V1811.56M566.077 1849.29H603.815M566.077 1849.29V1811.56M603.815 1849.29H641.554M603.815 1849.29V1811.56M641.554 1849.29H679.292M641.554 1849.29V1811.56M679.292 1849.29H680M679.292 1849.29V1811.56M0.707596 1811.56H37.7385M37.7385 1811.56H75.4769M37.7385 1811.56V1773.82M75.4769 1811.56H113.215M75.4769 1811.56V1773.82M113.215 1811.56H150.954M113.215 1811.56V1773.82M150.954 1811.56H188.692M150.954 1811.56V1773.82M188.692 1811.56H226.431M188.692 1811.56V1773.82M226.431 1811.56H264.169M226.431 1811.56V1773.82M264.169 1811.56H301.908M264.169 1811.56V1773.82M301.908 1811.56H339.646M301.908 1811.56V1773.82M339.646 1811.56H377.385M339.646 1811.56V1773.82M377.385 1811.56H415.123M377.385 1811.56V1773.82M415.123 1811.56H452.862M415.123 1811.56V1773.82M452.862 1811.56H490.6M452.862 1811.56V1773.82M490.6 1811.56H528.339M490.6 1811.56V1773.82M528.339 1811.56H566.077M528.339 1811.56V1773.82M566.077 1811.56H603.815M566.077 1811.56V1773.82M603.815 1811.56H641.554M603.815 1811.56V1773.82M641.554 1811.56H679.292M641.554 1811.56V1773.82M679.292 1811.56H680M679.292 1811.56V1773.82M0.707596 1773.82H37.7385M37.7385 1773.82H75.4769M37.7385 1773.82V1736.08M75.4769 1773.82H113.215M75.4769 1773.82V1736.08M113.215 1773.82H150.954M113.215 1773.82V1736.08M150.954 1773.82H188.692M150.954 1773.82V1736.08M188.692 1773.82H226.431M188.692 1773.82V1736.08M226.431 1773.82H264.169M226.431 1773.82V1736.08M264.169 1773.82H301.908M264.169 1773.82V1736.08M301.908 1773.82H339.646M301.908 1773.82V1736.08M339.646 1773.82H377.385M339.646 1773.82V1736.08M377.385 1773.82H415.123M377.385 1773.82V1736.08M415.123 1773.82H452.862M415.123 1773.82V1736.08M452.862 1773.82H490.6M452.862 1773.82V1736.08M490.6 1773.82H528.339M490.6 1773.82V1736.08M528.339 1773.82H566.077M528.339 1773.82V1736.08M566.077 1773.82H603.815M566.077 1773.82V1736.08M603.815 1773.82H641.554M603.815 1773.82V1736.08M641.554 1773.82H679.292M641.554 1773.82V1736.08M679.292 1773.82H680M679.292 1773.82V1736.08M0.707596 1736.08H37.7385M37.7385 1736.08H75.4769M37.7385 1736.08V1698.35M75.4769 1736.08H113.215M75.4769 1736.08V1698.35M113.215 1736.08H150.954M113.215 1736.08V1698.35M150.954 1736.08H188.692M150.954 1736.08V1698.35M188.692 1736.08H226.431M188.692 1736.08V1698.35M226.431 1736.08H264.169M226.431 1736.08V1698.35M264.169 1736.08H301.908M264.169 1736.08V1698.35M301.908 1736.08H339.646M301.908 1736.08V1698.35M339.646 1736.08H377.385M339.646 1736.08V1698.35M377.385 1736.08H415.123M377.385 1736.08V1698.35M415.123 1736.08H452.862M415.123 1736.08V1698.35M452.862 1736.08H490.6M452.862 1736.08V1698.35M490.6 1736.08H528.339M490.6 1736.08V1698.35M528.339 1736.08H566.077M528.339 1736.08V1698.35M566.077 1736.08H603.815M566.077 1736.08V1698.35M603.815 1736.08H641.554M603.815 1736.08V1698.35M641.554 1736.08H679.292M641.554 1736.08V1698.35M679.292 1736.08H680M679.292 1736.08V1698.35M0.707596 1698.35H37.7385M37.7385 1698.35H75.4769M37.7385 1698.35V1660.61M75.4769 1698.35H113.215M75.4769 1698.35V1660.61M113.215 1698.35H150.954M113.215 1698.35V1660.61M150.954 1698.35H188.692M150.954 1698.35V1660.61M188.692 1698.35H226.431M188.692 1698.35V1660.61M226.431 1698.35H264.169M226.431 1698.35V1660.61M264.169 1698.35H301.908M264.169 1698.35V1660.61M301.908 1698.35H339.646M301.908 1698.35V1660.61M339.646 1698.35H377.385M339.646 1698.35V1660.61M377.385 1698.35H415.123M377.385 1698.35V1660.61M415.123 1698.35H452.862M415.123 1698.35V1660.61M452.862 1698.35H490.6M452.862 1698.35V1660.61M490.6 1698.35H528.339M490.6 1698.35V1660.61M528.339 1698.35H566.077M528.339 1698.35V1660.61M566.077 1698.35H603.815M566.077 1698.35V1660.61M603.815 1698.35H641.554M603.815 1698.35V1660.61M641.554 1698.35H679.292M641.554 1698.35V1660.61M679.292 1698.35H680M679.292 1698.35V1660.61M0.707596 1660.61H37.7385M37.7385 1660.61H75.4769M37.7385 1660.61V1622.87M75.4769 1660.61H113.215M75.4769 1660.61V1622.87M113.215 1660.61H150.954M113.215 1660.61V1622.87M150.954 1660.61H188.692M150.954 1660.61V1622.87M188.692 1660.61H226.431M188.692 1660.61V1622.87M226.431 1660.61H264.169M226.431 1660.61V1622.87M264.169 1660.61H301.908M264.169 1660.61V1622.87M301.908 1660.61H339.646M301.908 1660.61V1622.87M339.646 1660.61H377.385M339.646 1660.61V1622.87M377.385 1660.61H415.123M377.385 1660.61V1622.87M415.123 1660.61H452.862M415.123 1660.61V1622.87M452.862 1660.61H490.6M452.862 1660.61V1622.87M490.6 1660.61H528.339M490.6 1660.61V1622.87M528.339 1660.61H566.077M528.339 1660.61V1622.87M566.077 1660.61H603.815M566.077 1660.61V1622.87M603.815 1660.61H641.554M603.815 1660.61V1622.87M641.554 1660.61H679.292M641.554 1660.61V1622.87M679.292 1660.61H680M679.292 1660.61V1622.87M0.707596 1622.87H37.7385M37.7385 1622.87H75.4769M37.7385 1622.87V1585.14M75.4769 1622.87H113.215M75.4769 1622.87V1585.14M113.215 1622.87H150.954M113.215 1622.87V1585.14M150.954 1622.87H188.692M150.954 1622.87V1585.14M188.692 1622.87H226.431M188.692 1622.87V1585.14M226.431 1622.87H264.169M226.431 1622.87V1585.14M264.169 1622.87H301.908M264.169 1622.87V1585.14M301.908 1622.87H339.646M301.908 1622.87V1585.14M339.646 1622.87H377.385M339.646 1622.87V1585.14M377.385 1622.87H415.123M377.385 1622.87V1585.14M415.123 1622.87H452.862M415.123 1622.87V1585.14M452.862 1622.87H490.6M452.862 1622.87V1585.14M490.6 1622.87H528.339M490.6 1622.87V1585.14M528.339 1622.87H566.077M528.339 1622.87V1585.14M566.077 1622.87H603.815M566.077 1622.87V1585.14M603.815 1622.87H641.554M603.815 1622.87V1585.14M641.554 1622.87H679.292M641.554 1622.87V1585.14M679.292 1622.87H680M679.292 1622.87V1585.14M0.707596 1585.14H37.7385M37.7385 1585.14H75.4769M37.7385 1585.14V1547.4M75.4769 1585.14H113.215M75.4769 1585.14V1547.4M113.215 1585.14H150.954M113.215 1585.14V1547.4M150.954 1585.14H188.692M150.954 1585.14V1547.4M188.692 1585.14H226.431M188.692 1585.14V1547.4M226.431 1585.14H264.169M226.431 1585.14V1547.4M264.169 1585.14H301.908M264.169 1585.14V1547.4M301.908 1585.14H339.646M301.908 1585.14V1547.4M339.646 1585.14H377.385M339.646 1585.14V1547.4M377.385 1585.14H415.123M377.385 1585.14V1547.4M415.123 1585.14H452.862M415.123 1585.14V1547.4M452.862 1585.14H490.6M452.862 1585.14V1547.4M490.6 1585.14H528.339M490.6 1585.14V1547.4M528.339 1585.14H566.077M528.339 1585.14V1547.4M566.077 1585.14H603.815M566.077 1585.14V1547.4M603.815 1585.14H641.554M603.815 1585.14V1547.4M641.554 1585.14H679.292M641.554 1585.14V1547.4M679.292 1585.14H680M679.292 1585.14V1547.4M0.707596 1547.4H37.7385M37.7385 1547.4H75.4769M37.7385 1547.4V1509.66M75.4769 1547.4H113.215M75.4769 1547.4V1509.66M113.215 1547.4H150.954M113.215 1547.4V1509.66M150.954 1547.4H188.692M150.954 1547.4V1509.66M188.692 1547.4H226.431M188.692 1547.4V1509.66M226.431 1547.4H264.169M226.431 1547.4V1509.66M264.169 1547.4H301.908M264.169 1547.4V1509.66M301.908 1547.4H339.646M301.908 1547.4V1509.66M339.646 1547.4H377.385M339.646 1547.4V1509.66M377.385 1547.4H415.123M377.385 1547.4V1509.66M415.123 1547.4H452.862M415.123 1547.4V1509.66M452.862 1547.4H490.6M452.862 1547.4V1509.66M490.6 1547.4H528.339M490.6 1547.4V1509.66M528.339 1547.4H566.077M528.339 1547.4V1509.66M566.077 1547.4H603.815M566.077 1547.4V1509.66M603.815 1547.4H641.554M603.815 1547.4V1509.66M641.554 1547.4H679.292M641.554 1547.4V1509.66M679.292 1547.4H680M679.292 1547.4V1509.66M0.707596 1509.66H37.7385M37.7385 1509.66H75.4769M37.7385 1509.66V1471.93M75.4769 1509.66H113.215M75.4769 1509.66V1471.93M113.215 1509.66H150.954M113.215 1509.66V1471.93M150.954 1509.66H188.692M150.954 1509.66V1471.93M188.692 1509.66H226.431M188.692 1509.66V1471.93M226.431 1509.66H264.169M226.431 1509.66V1471.93M264.169 1509.66H301.908M264.169 1509.66V1471.93M301.908 1509.66H339.646M301.908 1509.66V1471.93M339.646 1509.66H377.385M339.646 1509.66V1471.93M377.385 1509.66H415.123M377.385 1509.66V1471.93M415.123 1509.66H452.862M415.123 1509.66V1471.93M452.862 1509.66H490.6M452.862 1509.66V1471.93M490.6 1509.66H528.339M490.6 1509.66V1471.93M528.339 1509.66H566.077M528.339 1509.66V1471.93M566.077 1509.66H603.815M566.077 1509.66V1471.93M603.815 1509.66H641.554M603.815 1509.66V1471.93M641.554 1509.66H679.292M641.554 1509.66V1471.93M679.292 1509.66H680M679.292 1509.66V1471.93M0.707596 1471.93H37.7385M37.7385 1471.93H75.4769M37.7385 1471.93V1434.19M75.4769 1471.93H113.215M75.4769 1471.93V1434.19M113.215 1471.93H150.954M113.215 1471.93V1434.19M150.954 1471.93H188.692M150.954 1471.93V1434.19M188.692 1471.93H226.431M188.692 1471.93V1434.19M226.431 1471.93H264.169M226.431 1471.93V1434.19M264.169 1471.93H301.908M264.169 1471.93V1434.19M301.908 1471.93H339.646M301.908 1471.93V1434.19M339.646 1471.93H377.385M339.646 1471.93V1434.19M377.385 1471.93H415.123M377.385 1471.93V1434.19M415.123 1471.93H452.862M415.123 1471.93V1434.19M452.862 1471.93H490.6M452.862 1471.93V1434.19M490.6 1471.93H528.339M490.6 1471.93V1434.19M528.339 1471.93H566.077M528.339 1471.93V1434.19M566.077 1471.93H603.815M566.077 1471.93V1434.19M603.815 1471.93H641.554M603.815 1471.93V1434.19M641.554 1471.93H679.292M641.554 1471.93V1434.19M679.292 1471.93H680M679.292 1471.93V1434.19M0.707596 1434.19H37.7385M37.7385 1434.19H75.4769M37.7385 1434.19V1396.45M75.4769 1434.19H113.215M75.4769 1434.19V1396.45M113.215 1434.19H150.954M113.215 1434.19V1396.45M150.954 1434.19H188.692M150.954 1434.19V1396.45M188.692 1434.19H226.431M188.692 1434.19V1396.45M226.431 1434.19H264.169M226.431 1434.19V1396.45M264.169 1434.19H301.908M264.169 1434.19V1396.45M301.908 1434.19H339.646M301.908 1434.19V1396.45M339.646 1434.19H377.385M339.646 1434.19V1396.45M377.385 1434.19H415.123M377.385 1434.19V1396.45M415.123 1434.19H452.862M415.123 1434.19V1396.45M452.862 1434.19H490.6M452.862 1434.19V1396.45M490.6 1434.19H528.339M490.6 1434.19V1396.45M528.339 1434.19H566.077M528.339 1434.19V1396.45M566.077 1434.19H603.815M566.077 1434.19V1396.45M603.815 1434.19H641.554M603.815 1434.19V1396.45M641.554 1434.19H679.292M641.554 1434.19V1396.45M679.292 1434.19H680M679.292 1434.19V1396.45M0.707596 1396.45H37.7385M37.7385 1396.45H75.4769M37.7385 1396.45V1359.43M75.4769 1396.45H113.215M75.4769 1396.45V1359.43M113.215 1396.45H150.954M113.215 1396.45V1359.43M150.954 1396.45H188.692M150.954 1396.45V1359.43M188.692 1396.45H226.431M188.692 1396.45V1359.43M226.431 1396.45H264.169M226.431 1396.45V1359.43M264.169 1396.45H301.908M264.169 1396.45V1359.43M301.908 1396.45H339.646M301.908 1396.45V1359.43M339.646 1396.45H377.385M339.646 1396.45V1359.43M377.385 1396.45H415.123M377.385 1396.45V1359.43M415.123 1396.45H452.862M415.123 1396.45V1359.43M452.862 1396.45H490.6M452.862 1396.45V1359.43M490.6 1396.45H528.339M490.6 1396.45V1359.43M528.339 1396.45H566.077M528.339 1396.45V1359.43M566.077 1396.45H603.815M566.077 1396.45V1359.43M603.815 1396.45H641.554M603.815 1396.45V1359.43M641.554 1396.45H679.292M641.554 1396.45V1359.43M679.292 1396.45H680M679.292 1396.45V1359.43M0.707596 1358.72H680M0 2038.68V1359.43M0.707596 2717H37.7385M37.7385 2717H75.4769M37.7385 2717V2717.71M37.7385 2717V2679.26M75.4769 2717H113.215M75.4769 2717V2717.71M75.4769 2717V2679.26M113.215 2717H150.954M113.215 2717V2717.71M113.215 2717V2679.26M150.954 2717H188.692M150.954 2717V2717.71M150.954 2717V2679.26M188.692 2717H226.431M188.692 2717V2717.71M188.692 2717V2679.26M226.431 2717H264.169M226.431 2717V2717.71M226.431 2717V2679.26M264.169 2717H301.908M264.169 2717V2717.71M264.169 2717V2679.26M301.908 2717H339.646M301.908 2717V2717.71M301.908 2717V2679.26M339.646 2717H377.385M339.646 2717V2717.71M339.646 2717V2679.26M377.385 2717H415.123M377.385 2717V2717.71M377.385 2717V2679.26M415.123 2717H452.862M415.123 2717V2717.71M415.123 2717V2679.26M452.862 2717H490.6M452.862 2717V2717.71M452.862 2717V2679.26M490.6 2717H528.339M490.6 2717V2717.71M490.6 2717V2679.26M528.339 2717H566.077M528.339 2717V2717.71M528.339 2717V2679.26M566.077 2717H603.815M566.077 2717V2717.71M566.077 2717V2679.26M603.815 2717H641.554M603.815 2717V2717.71M603.815 2717V2679.26M641.554 2717H679.292M641.554 2717V2717.71M641.554 2717V2679.26M679.292 2717H680M679.292 2717V2717.71M679.292 2717V2679.26M0.707596 2679.26H37.7385M37.7385 2679.26H75.4769M37.7385 2679.26V2641.53M75.4769 2679.26H113.215M75.4769 2679.26V2641.53M113.215 2679.26H150.954M113.215 2679.26V2641.53M150.954 2679.26H188.692M150.954 2679.26V2641.53M188.692 2679.26H226.431M188.692 2679.26V2641.53M226.431 2679.26H264.169M226.431 2679.26V2641.53M264.169 2679.26H301.908M264.169 2679.26V2641.53M301.908 2679.26H339.646M301.908 2679.26V2641.53M339.646 2679.26H377.385M339.646 2679.26V2641.53M377.385 2679.26H415.123M377.385 2679.26V2641.53M415.123 2679.26H452.862M415.123 2679.26V2641.53M452.862 2679.26H490.6M452.862 2679.26V2641.53M490.6 2679.26H528.339M490.6 2679.26V2641.53M528.339 2679.26H566.077M528.339 2679.26V2641.53M566.077 2679.26H603.815M566.077 2679.26V2641.53M603.815 2679.26H641.554M603.815 2679.26V2641.53M641.554 2679.26H679.292M641.554 2679.26V2641.53M679.292 2679.26H680M679.292 2679.26V2641.53M0.707596 2641.53H37.7385M37.7385 2641.53H75.4769M37.7385 2641.53V2603.79M75.4769 2641.53H113.215M75.4769 2641.53V2603.79M113.215 2641.53H150.954M113.215 2641.53V2603.79M150.954 2641.53H188.692M150.954 2641.53V2603.79M188.692 2641.53H226.431M188.692 2641.53V2603.79M226.431 2641.53H264.169M226.431 2641.53V2603.79M264.169 2641.53H301.908M264.169 2641.53V2603.79M301.908 2641.53H339.646M301.908 2641.53V2603.79M339.646 2641.53H377.385M339.646 2641.53V2603.79M377.385 2641.53H415.123M377.385 2641.53V2603.79M415.123 2641.53H452.862M415.123 2641.53V2603.79M452.862 2641.53H490.6M452.862 2641.53V2603.79M490.6 2641.53H528.339M490.6 2641.53V2603.79M528.339 2641.53H566.077M528.339 2641.53V2603.79M566.077 2641.53H603.815M566.077 2641.53V2603.79M603.815 2641.53H641.554M603.815 2641.53V2603.79M641.554 2641.53H679.292M641.554 2641.53V2603.79M679.292 2641.53H680M679.292 2641.53V2603.79M0.707596 2603.79H37.7385M37.7385 2603.79H75.4769M37.7385 2603.79V2566.05M75.4769 2603.79H113.215M75.4769 2603.79V2566.05M113.215 2603.79H150.954M113.215 2603.79V2566.05M150.954 2603.79H188.692M150.954 2603.79V2566.05M188.692 2603.79H226.431M188.692 2603.79V2566.05M226.431 2603.79H264.169M226.431 2603.79V2566.05M264.169 2603.79H301.908M264.169 2603.79V2566.05M301.908 2603.79H339.646M301.908 2603.79V2566.05M339.646 2603.79H377.385M339.646 2603.79V2566.05M377.385 2603.79H415.123M377.385 2603.79V2566.05M415.123 2603.79H452.862M415.123 2603.79V2566.05M452.862 2603.79H490.6M452.862 2603.79V2566.05M490.6 2603.79H528.339M490.6 2603.79V2566.05M528.339 2603.79H566.077M528.339 2603.79V2566.05M566.077 2603.79H603.815M566.077 2603.79V2566.05M603.815 2603.79H641.554M603.815 2603.79V2566.05M641.554 2603.79H679.292M641.554 2603.79V2566.05M679.292 2603.79H680M679.292 2603.79V2566.05M0.707596 2566.05H37.7385M37.7385 2566.05H75.4769M37.7385 2566.05V2528.32M75.4769 2566.05H113.215M75.4769 2566.05V2528.32M113.215 2566.05H150.954M113.215 2566.05V2528.32M150.954 2566.05H188.692M150.954 2566.05V2528.32M188.692 2566.05H226.431M188.692 2566.05V2528.32M226.431 2566.05H264.169M226.431 2566.05V2528.32M264.169 2566.05H301.908M264.169 2566.05V2528.32M301.908 2566.05H339.646M301.908 2566.05V2528.32M339.646 2566.05H377.385M339.646 2566.05V2528.32M377.385 2566.05H415.123M377.385 2566.05V2528.32M415.123 2566.05H452.862M415.123 2566.05V2528.32M452.862 2566.05H490.6M452.862 2566.05V2528.32M490.6 2566.05H528.339M490.6 2566.05V2528.32M528.339 2566.05H566.077M528.339 2566.05V2528.32M566.077 2566.05H603.815M566.077 2566.05V2528.32M603.815 2566.05H641.554M603.815 2566.05V2528.32M641.554 2566.05H679.292M641.554 2566.05V2528.32M679.292 2566.05H680M679.292 2566.05V2528.32M0.707596 2528.32H37.7385M37.7385 2528.32H75.4769M37.7385 2528.32V2490.58M75.4769 2528.32H113.215M75.4769 2528.32V2490.58M113.215 2528.32H150.954M113.215 2528.32V2490.58M150.954 2528.32H188.692M150.954 2528.32V2490.58M188.692 2528.32H226.431M188.692 2528.32V2490.58M226.431 2528.32H264.169M226.431 2528.32V2490.58M264.169 2528.32H301.908M264.169 2528.32V2490.58M301.908 2528.32H339.646M301.908 2528.32V2490.58M339.646 2528.32H377.385M339.646 2528.32V2490.58M377.385 2528.32H415.123M377.385 2528.32V2490.58M415.123 2528.32H452.862M415.123 2528.32V2490.58M452.862 2528.32H490.6M452.862 2528.32V2490.58M490.6 2528.32H528.339M490.6 2528.32V2490.58M528.339 2528.32H566.077M528.339 2528.32V2490.58M566.077 2528.32H603.815M566.077 2528.32V2490.58M603.815 2528.32H641.554M603.815 2528.32V2490.58M641.554 2528.32H679.292M641.554 2528.32V2490.58M679.292 2528.32H680M679.292 2528.32V2490.58M0.707596 2490.58H37.7385M37.7385 2490.58H75.4769M37.7385 2490.58V2452.84M75.4769 2490.58H113.215M75.4769 2490.58V2452.84M113.215 2490.58H150.954M113.215 2490.58V2452.84M150.954 2490.58H188.692M150.954 2490.58V2452.84M188.692 2490.58H226.431M188.692 2490.58V2452.84M226.431 2490.58H264.169M226.431 2490.58V2452.84M264.169 2490.58H301.908M264.169 2490.58V2452.84M301.908 2490.58H339.646M301.908 2490.58V2452.84M339.646 2490.58H377.385M339.646 2490.58V2452.84M377.385 2490.58H415.123M377.385 2490.58V2452.84M415.123 2490.58H452.862M415.123 2490.58V2452.84M452.862 2490.58H490.6M452.862 2490.58V2452.84M490.6 2490.58H528.339M490.6 2490.58V2452.84M528.339 2490.58H566.077M528.339 2490.58V2452.84M566.077 2490.58H603.815M566.077 2490.58V2452.84M603.815 2490.58H641.554M603.815 2490.58V2452.84M641.554 2490.58H679.292M641.554 2490.58V2452.84M679.292 2490.58H680M679.292 2490.58V2452.84M0.707596 2452.84H37.7385M37.7385 2452.84H75.4769M37.7385 2452.84V2415.11M75.4769 2452.84H113.215M75.4769 2452.84V2415.11M113.215 2452.84H150.954M113.215 2452.84V2415.11M150.954 2452.84H188.692M150.954 2452.84V2415.11M188.692 2452.84H226.431M188.692 2452.84V2415.11M226.431 2452.84H264.169M226.431 2452.84V2415.11M264.169 2452.84H301.908M264.169 2452.84V2415.11M301.908 2452.84H339.646M301.908 2452.84V2415.11M339.646 2452.84H377.385M339.646 2452.84V2415.11M377.385 2452.84H415.123M377.385 2452.84V2415.11M415.123 2452.84H452.862M415.123 2452.84V2415.11M452.862 2452.84H490.6M452.862 2452.84V2415.11M490.6 2452.84H528.339M490.6 2452.84V2415.11M528.339 2452.84H566.077M528.339 2452.84V2415.11M566.077 2452.84H603.815M566.077 2452.84V2415.11M603.815 2452.84H641.554M603.815 2452.84V2415.11M641.554 2452.84H679.292M641.554 2452.84V2415.11M679.292 2452.84H680M679.292 2452.84V2415.11M0.707596 2415.11H37.7385M37.7385 2415.11H75.4769M37.7385 2415.11V2377.37M75.4769 2415.11H113.215M75.4769 2415.11V2377.37M113.215 2415.11H150.954M113.215 2415.11V2377.37M150.954 2415.11H188.692M150.954 2415.11V2377.37M188.692 2415.11H226.431M188.692 2415.11V2377.37M226.431 2415.11H264.169M226.431 2415.11V2377.37M264.169 2415.11H301.908M264.169 2415.11V2377.37M301.908 2415.11H339.646M301.908 2415.11V2377.37M339.646 2415.11H377.385M339.646 2415.11V2377.37M377.385 2415.11H415.123M377.385 2415.11V2377.37M415.123 2415.11H452.862M415.123 2415.11V2377.37M452.862 2415.11H490.6M452.862 2415.11V2377.37M490.6 2415.11H528.339M490.6 2415.11V2377.37M528.339 2415.11H566.077M528.339 2415.11V2377.37M566.077 2415.11H603.815M566.077 2415.11V2377.37M603.815 2415.11H641.554M603.815 2415.11V2377.37M641.554 2415.11H679.292M641.554 2415.11V2377.37M679.292 2415.11H680M679.292 2415.11V2377.37M0.707596 2377.37H37.7385M37.7385 2377.37H75.4769M37.7385 2377.37V2339.63M75.4769 2377.37H113.215M75.4769 2377.37V2339.63M113.215 2377.37H150.954M113.215 2377.37V2339.63M150.954 2377.37H188.692M150.954 2377.37V2339.63M188.692 2377.37H226.431M188.692 2377.37V2339.63M226.431 2377.37H264.169M226.431 2377.37V2339.63M264.169 2377.37H301.908M264.169 2377.37V2339.63M301.908 2377.37H339.646M301.908 2377.37V2339.63M339.646 2377.37H377.385M339.646 2377.37V2339.63M377.385 2377.37H415.123M377.385 2377.37V2339.63M415.123 2377.37H452.862M415.123 2377.37V2339.63M452.862 2377.37H490.6M452.862 2377.37V2339.63M490.6 2377.37H528.339M490.6 2377.37V2339.63M528.339 2377.37H566.077M528.339 2377.37V2339.63M566.077 2377.37H603.815M566.077 2377.37V2339.63M603.815 2377.37H641.554M603.815 2377.37V2339.63M641.554 2377.37H679.292M641.554 2377.37V2339.63M679.292 2377.37H680M679.292 2377.37V2339.63M0.707596 2339.63H37.7385M37.7385 2339.63H75.4769M37.7385 2339.63V2301.9M75.4769 2339.63H113.215M75.4769 2339.63V2301.9M113.215 2339.63H150.954M113.215 2339.63V2301.9M150.954 2339.63H188.692M150.954 2339.63V2301.9M188.692 2339.63H226.431M188.692 2339.63V2301.9M226.431 2339.63H264.169M226.431 2339.63V2301.9M264.169 2339.63H301.908M264.169 2339.63V2301.9M301.908 2339.63H339.646M301.908 2339.63V2301.9M339.646 2339.63H377.385M339.646 2339.63V2301.9M377.385 2339.63H415.123M377.385 2339.63V2301.9M415.123 2339.63H452.862M415.123 2339.63V2301.9M452.862 2339.63H490.6M452.862 2339.63V2301.9M490.6 2339.63H528.339M490.6 2339.63V2301.9M528.339 2339.63H566.077M528.339 2339.63V2301.9M566.077 2339.63H603.815M566.077 2339.63V2301.9M603.815 2339.63H641.554M603.815 2339.63V2301.9M641.554 2339.63H679.292M641.554 2339.63V2301.9M679.292 2339.63H680M679.292 2339.63V2301.9M0.707596 2301.9H37.7385M37.7385 2301.9H75.4769M37.7385 2301.9V2264.16M75.4769 2301.9H113.215M75.4769 2301.9V2264.16M113.215 2301.9H150.954M113.215 2301.9V2264.16M150.954 2301.9H188.692M150.954 2301.9V2264.16M188.692 2301.9H226.431M188.692 2301.9V2264.16M226.431 2301.9H264.169M226.431 2301.9V2264.16M264.169 2301.9H301.908M264.169 2301.9V2264.16M301.908 2301.9H339.646M301.908 2301.9V2264.16M339.646 2301.9H377.385M339.646 2301.9V2264.16M377.385 2301.9H415.123M377.385 2301.9V2264.16M415.123 2301.9H452.862M415.123 2301.9V2264.16M452.862 2301.9H490.6M452.862 2301.9V2264.16M490.6 2301.9H528.339M490.6 2301.9V2264.16M528.339 2301.9H566.077M528.339 2301.9V2264.16M566.077 2301.9H603.815M566.077 2301.9V2264.16M603.815 2301.9H641.554M603.815 2301.9V2264.16M641.554 2301.9H679.292M641.554 2301.9V2264.16M679.292 2301.9H680M679.292 2301.9V2264.16M0.707596 2264.16H37.7385M37.7385 2264.16H75.4769M37.7385 2264.16V2226.42M75.4769 2264.16H113.215M75.4769 2264.16V2226.42M113.215 2264.16H150.954M113.215 2264.16V2226.42M150.954 2264.16H188.692M150.954 2264.16V2226.42M188.692 2264.16H226.431M188.692 2264.16V2226.42M226.431 2264.16H264.169M226.431 2264.16V2226.42M264.169 2264.16H301.908M264.169 2264.16V2226.42M301.908 2264.16H339.646M301.908 2264.16V2226.42M339.646 2264.16H377.385M339.646 2264.16V2226.42M377.385 2264.16H415.123M377.385 2264.16V2226.42M415.123 2264.16H452.862M415.123 2264.16V2226.42M452.862 2264.16H490.6M452.862 2264.16V2226.42M490.6 2264.16H528.339M490.6 2264.16V2226.42M528.339 2264.16H566.077M528.339 2264.16V2226.42M566.077 2264.16H603.815M566.077 2264.16V2226.42M603.815 2264.16H641.554M603.815 2264.16V2226.42M641.554 2264.16H679.292M641.554 2264.16V2226.42M679.292 2264.16H680M679.292 2264.16V2226.42M0.707596 2226.42H37.7385M37.7385 2226.42H75.4769M37.7385 2226.42V2188.69M75.4769 2226.42H113.215M75.4769 2226.42V2188.69M113.215 2226.42H150.954M113.215 2226.42V2188.69M150.954 2226.42H188.692M150.954 2226.42V2188.69M188.692 2226.42H226.431M188.692 2226.42V2188.69M226.431 2226.42H264.169M226.431 2226.42V2188.69M264.169 2226.42H301.908M264.169 2226.42V2188.69M301.908 2226.42H339.646M301.908 2226.42V2188.69M339.646 2226.42H377.385M339.646 2226.42V2188.69M377.385 2226.42H415.123M377.385 2226.42V2188.69M415.123 2226.42H452.862M415.123 2226.42V2188.69M452.862 2226.42H490.6M452.862 2226.42V2188.69M490.6 2226.42H528.339M490.6 2226.42V2188.69M528.339 2226.42H566.077M528.339 2226.42V2188.69M566.077 2226.42H603.815M566.077 2226.42V2188.69M603.815 2226.42H641.554M603.815 2226.42V2188.69M641.554 2226.42H679.292M641.554 2226.42V2188.69M679.292 2226.42H680M679.292 2226.42V2188.69M0.707596 2188.69H37.7385M37.7385 2188.69H75.4769M37.7385 2188.69V2150.95M75.4769 2188.69H113.215M75.4769 2188.69V2150.95M113.215 2188.69H150.954M113.215 2188.69V2150.95M150.954 2188.69H188.692M150.954 2188.69V2150.95M188.692 2188.69H226.431M188.692 2188.69V2150.95M226.431 2188.69H264.169M226.431 2188.69V2150.95M264.169 2188.69H301.908M264.169 2188.69V2150.95M301.908 2188.69H339.646M301.908 2188.69V2150.95M339.646 2188.69H377.385M339.646 2188.69V2150.95M377.385 2188.69H415.123M377.385 2188.69V2150.95M415.123 2188.69H452.862M415.123 2188.69V2150.95M452.862 2188.69H490.6M452.862 2188.69V2150.95M490.6 2188.69H528.339M490.6 2188.69V2150.95M528.339 2188.69H566.077M528.339 2188.69V2150.95M566.077 2188.69H603.815M566.077 2188.69V2150.95M603.815 2188.69H641.554M603.815 2188.69V2150.95M641.554 2188.69H679.292M641.554 2188.69V2150.95M679.292 2188.69H680M679.292 2188.69V2150.95M0.707596 2150.95H37.7385M37.7385 2150.95H75.4769M37.7385 2150.95V2113.21M75.4769 2150.95H113.215M75.4769 2150.95V2113.21M113.215 2150.95H150.954M113.215 2150.95V2113.21M150.954 2150.95H188.692M150.954 2150.95V2113.21M188.692 2150.95H226.431M188.692 2150.95V2113.21M226.431 2150.95H264.169M226.431 2150.95V2113.21M264.169 2150.95H301.908M264.169 2150.95V2113.21M301.908 2150.95H339.646M301.908 2150.95V2113.21M339.646 2150.95H377.385M339.646 2150.95V2113.21M377.385 2150.95H415.123M377.385 2150.95V2113.21M415.123 2150.95H452.862M415.123 2150.95V2113.21M452.862 2150.95H490.6M452.862 2150.95V2113.21M490.6 2150.95H528.339M490.6 2150.95V2113.21M528.339 2150.95H566.077M528.339 2150.95V2113.21M566.077 2150.95H603.815M566.077 2150.95V2113.21M603.815 2150.95H641.554M603.815 2150.95V2113.21M641.554 2150.95H679.292M641.554 2150.95V2113.21M679.292 2150.95H680M679.292 2150.95V2113.21M0.707596 2113.21H37.7385M37.7385 2113.21H75.4769M37.7385 2113.21V2075.48M75.4769 2113.21H113.215M75.4769 2113.21V2075.48M113.215 2113.21H150.954M113.215 2113.21V2075.48M150.954 2113.21H188.692M150.954 2113.21V2075.48M188.692 2113.21H226.431M188.692 2113.21V2075.48M226.431 2113.21H264.169M226.431 2113.21V2075.48M264.169 2113.21H301.908M264.169 2113.21V2075.48M301.908 2113.21H339.646M301.908 2113.21V2075.48M339.646 2113.21H377.385M339.646 2113.21V2075.48M377.385 2113.21H415.123M377.385 2113.21V2075.48M415.123 2113.21H452.862M415.123 2113.21V2075.48M452.862 2113.21H490.6M452.862 2113.21V2075.48M490.6 2113.21H528.339M490.6 2113.21V2075.48M528.339 2113.21H566.077M528.339 2113.21V2075.48M566.077 2113.21H603.815M566.077 2113.21V2075.48M603.815 2113.21H641.554M603.815 2113.21V2075.48M641.554 2113.21H679.292M641.554 2113.21V2075.48M679.292 2113.21H680M679.292 2113.21V2075.48M0.707596 2075.48H37.7385M37.7385 2075.48H75.4769M37.7385 2075.48V2038.45M75.4769 2075.48H113.215M75.4769 2075.48V2038.45M113.215 2075.48H150.954M113.215 2075.48V2038.45M150.954 2075.48H188.692M150.954 2075.48V2038.45M188.692 2075.48H226.431M188.692 2075.48V2038.45M226.431 2075.48H264.169M226.431 2075.48V2038.45M264.169 2075.48H301.908M264.169 2075.48V2038.45M301.908 2075.48H339.646M301.908 2075.48V2038.45M339.646 2075.48H377.385M339.646 2075.48V2038.45M377.385 2075.48H415.123M377.385 2075.48V2038.45M415.123 2075.48H452.862M415.123 2075.48V2038.45M452.862 2075.48H490.6M452.862 2075.48V2038.45M490.6 2075.48H528.339M490.6 2075.48V2038.45M528.339 2075.48H566.077M528.339 2075.48V2038.45M566.077 2075.48H603.815M566.077 2075.48V2038.45M603.815 2075.48H641.554M603.815 2075.48V2038.45M641.554 2075.48H679.292M641.554 2075.48V2038.45M679.292 2075.48H680M679.292 2075.48V2038.45M0.707596 2037.74H680M0 2717.71V2038.45M0.707596 3396.49H37.7385M37.7385 3396.49H75.4769M37.7385 3396.49V3397.2M37.7385 3396.49V3358.76M75.4769 3396.49H113.215M75.4769 3396.49V3397.2M75.4769 3396.49V3358.76M113.215 3396.49H150.954M113.215 3396.49V3397.2M113.215 3396.49V3358.76M150.954 3396.49H188.692M150.954 3396.49V3397.2M150.954 3396.49V3358.76M188.692 3396.49H226.431M188.692 3396.49V3397.2M188.692 3396.49V3358.76M226.431 3396.49H264.169M226.431 3396.49V3397.2M226.431 3396.49V3358.76M264.169 3396.49H301.908M264.169 3396.49V3397.2M264.169 3396.49V3358.76M301.908 3396.49H339.646M301.908 3396.49V3397.2M301.908 3396.49V3358.76M339.646 3396.49H377.385M339.646 3396.49V3397.2M339.646 3396.49V3358.76M377.385 3396.49H415.123M377.385 3396.49V3397.2M377.385 3396.49V3358.76M415.123 3396.49H452.862M415.123 3396.49V3397.2M415.123 3396.49V3358.76M452.862 3396.49H490.6M452.862 3396.49V3397.2M452.862 3396.49V3358.76M490.6 3396.49H528.339M490.6 3396.49V3397.2M490.6 3396.49V3358.76M528.339 3396.49H566.077M528.339 3396.49V3397.2M528.339 3396.49V3358.76M566.077 3396.49H603.815M566.077 3396.49V3397.2M566.077 3396.49V3358.76M603.815 3396.49H641.554M603.815 3396.49V3397.2M603.815 3396.49V3358.76M641.554 3396.49H679.292M641.554 3396.49V3397.2M641.554 3396.49V3358.76M679.292 3396.49H680M679.292 3396.49V3397.2M679.292 3396.49V3358.76M0.707596 3358.76H37.7385M37.7385 3358.76H75.4769M37.7385 3358.76V3321.02M75.4769 3358.76H113.215M75.4769 3358.76V3321.02M113.215 3358.76H150.954M113.215 3358.76V3321.02M150.954 3358.76H188.692M150.954 3358.76V3321.02M188.692 3358.76H226.431M188.692 3358.76V3321.02M226.431 3358.76H264.169M226.431 3358.76V3321.02M264.169 3358.76H301.908M264.169 3358.76V3321.02M301.908 3358.76H339.646M301.908 3358.76V3321.02M339.646 3358.76H377.385M339.646 3358.76V3321.02M377.385 3358.76H415.123M377.385 3358.76V3321.02M415.123 3358.76H452.862M415.123 3358.76V3321.02M452.862 3358.76H490.6M452.862 3358.76V3321.02M490.6 3358.76H528.339M490.6 3358.76V3321.02M528.339 3358.76H566.077M528.339 3358.76V3321.02M566.077 3358.76H603.815M566.077 3358.76V3321.02M603.815 3358.76H641.554M603.815 3358.76V3321.02M641.554 3358.76H679.292M641.554 3358.76V3321.02M679.292 3358.76H680M679.292 3358.76V3321.02M0.707596 3321.02H37.7385M37.7385 3321.02H75.4769M37.7385 3321.02V3283.28M75.4769 3321.02H113.215M75.4769 3321.02V3283.28M113.215 3321.02H150.954M113.215 3321.02V3283.28M150.954 3321.02H188.692M150.954 3321.02V3283.28M188.692 3321.02H226.431M188.692 3321.02V3283.28M226.431 3321.02H264.169M226.431 3321.02V3283.28M264.169 3321.02H301.908M264.169 3321.02V3283.28M301.908 3321.02H339.646M301.908 3321.02V3283.28M339.646 3321.02H377.385M339.646 3321.02V3283.28M377.385 3321.02H415.123M377.385 3321.02V3283.28M415.123 3321.02H452.862M415.123 3321.02V3283.28M452.862 3321.02H490.6M452.862 3321.02V3283.28M490.6 3321.02H528.339M490.6 3321.02V3283.28M528.339 3321.02H566.077M528.339 3321.02V3283.28M566.077 3321.02H603.815M566.077 3321.02V3283.28M603.815 3321.02H641.554M603.815 3321.02V3283.28M641.554 3321.02H679.292M641.554 3321.02V3283.28M679.292 3321.02H680M679.292 3321.02V3283.28M0.707596 3283.28H37.7385M37.7385 3283.28H75.4769M37.7385 3283.28V3245.55M75.4769 3283.28H113.215M75.4769 3283.28V3245.55M113.215 3283.28H150.954M113.215 3283.28V3245.55M150.954 3283.28H188.692M150.954 3283.28V3245.55M188.692 3283.28H226.431M188.692 3283.28V3245.55M226.431 3283.28H264.169M226.431 3283.28V3245.55M264.169 3283.28H301.908M264.169 3283.28V3245.55M301.908 3283.28H339.646M301.908 3283.28V3245.55M339.646 3283.28H377.385M339.646 3283.28V3245.55M377.385 3283.28H415.123M377.385 3283.28V3245.55M415.123 3283.28H452.862M415.123 3283.28V3245.55M452.862 3283.28H490.6M452.862 3283.28V3245.55M490.6 3283.28H528.339M490.6 3283.28V3245.55M528.339 3283.28H566.077M528.339 3283.28V3245.55M566.077 3283.28H603.815M566.077 3283.28V3245.55M603.815 3283.28H641.554M603.815 3283.28V3245.55M641.554 3283.28H679.292M641.554 3283.28V3245.55M679.292 3283.28H680M679.292 3283.28V3245.55M0.707596 3245.55H37.7385M37.7385 3245.55H75.4769M37.7385 3245.55V3207.81M75.4769 3245.55H113.215M75.4769 3245.55V3207.81M113.215 3245.55H150.954M113.215 3245.55V3207.81M150.954 3245.55H188.692M150.954 3245.55V3207.81M188.692 3245.55H226.431M188.692 3245.55V3207.81M226.431 3245.55H264.169M226.431 3245.55V3207.81M264.169 3245.55H301.908M264.169 3245.55V3207.81M301.908 3245.55H339.646M301.908 3245.55V3207.81M339.646 3245.55H377.385M339.646 3245.55V3207.81M377.385 3245.55H415.123M377.385 3245.55V3207.81M415.123 3245.55H452.862M415.123 3245.55V3207.81M452.862 3245.55H490.6M452.862 3245.55V3207.81M490.6 3245.55H528.339M490.6 3245.55V3207.81M528.339 3245.55H566.077M528.339 3245.55V3207.81M566.077 3245.55H603.815M566.077 3245.55V3207.81M603.815 3245.55H641.554M603.815 3245.55V3207.81M641.554 3245.55H679.292M641.554 3245.55V3207.81M679.292 3245.55H680M679.292 3245.55V3207.81M0.707596 3207.81H37.7385M37.7385 3207.81H75.4769M37.7385 3207.81V3170.07M75.4769 3207.81H113.215M75.4769 3207.81V3170.07M113.215 3207.81H150.954M113.215 3207.81V3170.07M150.954 3207.81H188.692M150.954 3207.81V3170.07M188.692 3207.81H226.431M188.692 3207.81V3170.07M226.431 3207.81H264.169M226.431 3207.81V3170.07M264.169 3207.81H301.908M264.169 3207.81V3170.07M301.908 3207.81H339.646M301.908 3207.81V3170.07M339.646 3207.81H377.385M339.646 3207.81V3170.07M377.385 3207.81H415.123M377.385 3207.81V3170.07M415.123 3207.81H452.862M415.123 3207.81V3170.07M452.862 3207.81H490.6M452.862 3207.81V3170.07M490.6 3207.81H528.339M490.6 3207.81V3170.07M528.339 3207.81H566.077M528.339 3207.81V3170.07M566.077 3207.81H603.815M566.077 3207.81V3170.07M603.815 3207.81H641.554M603.815 3207.81V3170.07M641.554 3207.81H679.292M641.554 3207.81V3170.07M679.292 3207.81H680M679.292 3207.81V3170.07M0.707596 3170.07H37.7385M37.7385 3170.07H75.4769M37.7385 3170.07V3132.34M75.4769 3170.07H113.215M75.4769 3170.07V3132.34M113.215 3170.07H150.954M113.215 3170.07V3132.34M150.954 3170.07H188.692M150.954 3170.07V3132.34M188.692 3170.07H226.431M188.692 3170.07V3132.34M226.431 3170.07H264.169M226.431 3170.07V3132.34M264.169 3170.07H301.908M264.169 3170.07V3132.34M301.908 3170.07H339.646M301.908 3170.07V3132.34M339.646 3170.07H377.385M339.646 3170.07V3132.34M377.385 3170.07H415.123M377.385 3170.07V3132.34M415.123 3170.07H452.862M415.123 3170.07V3132.34M452.862 3170.07H490.6M452.862 3170.07V3132.34M490.6 3170.07H528.339M490.6 3170.07V3132.34M528.339 3170.07H566.077M528.339 3170.07V3132.34M566.077 3170.07H603.815M566.077 3170.07V3132.34M603.815 3170.07H641.554M603.815 3170.07V3132.34M641.554 3170.07H679.292M641.554 3170.07V3132.34M679.292 3170.07H680M679.292 3170.07V3132.34M0.707596 3132.34H37.7385M37.7385 3132.34H75.4769M37.7385 3132.34V3094.6M75.4769 3132.34H113.215M75.4769 3132.34V3094.6M113.215 3132.34H150.954M113.215 3132.34V3094.6M150.954 3132.34H188.692M150.954 3132.34V3094.6M188.692 3132.34H226.431M188.692 3132.34V3094.6M226.431 3132.34H264.169M226.431 3132.34V3094.6M264.169 3132.34H301.908M264.169 3132.34V3094.6M301.908 3132.34H339.646M301.908 3132.34V3094.6M339.646 3132.34H377.385M339.646 3132.34V3094.6M377.385 3132.34H415.123M377.385 3132.34V3094.6M415.123 3132.34H452.862M415.123 3132.34V3094.6M452.862 3132.34H490.6M452.862 3132.34V3094.6M490.6 3132.34H528.339M490.6 3132.34V3094.6M528.339 3132.34H566.077M528.339 3132.34V3094.6M566.077 3132.34H603.815M566.077 3132.34V3094.6M603.815 3132.34H641.554M603.815 3132.34V3094.6M641.554 3132.34H679.292M641.554 3132.34V3094.6M679.292 3132.34H680M679.292 3132.34V3094.6M0.707596 3094.6H37.7385M37.7385 3094.6H75.4769M37.7385 3094.6V3056.86M75.4769 3094.6H113.215M75.4769 3094.6V3056.86M113.215 3094.6H150.954M113.215 3094.6V3056.86M150.954 3094.6H188.692M150.954 3094.6V3056.86M188.692 3094.6H226.431M188.692 3094.6V3056.86M226.431 3094.6H264.169M226.431 3094.6V3056.86M264.169 3094.6H301.908M264.169 3094.6V3056.86M301.908 3094.6H339.646M301.908 3094.6V3056.86M339.646 3094.6H377.385M339.646 3094.6V3056.86M377.385 3094.6H415.123M377.385 3094.6V3056.86M415.123 3094.6H452.862M415.123 3094.6V3056.86M452.862 3094.6H490.6M452.862 3094.6V3056.86M490.6 3094.6H528.339M490.6 3094.6V3056.86M528.339 3094.6H566.077M528.339 3094.6V3056.86M566.077 3094.6H603.815M566.077 3094.6V3056.86M603.815 3094.6H641.554M603.815 3094.6V3056.86M641.554 3094.6H679.292M641.554 3094.6V3056.86M679.292 3094.6H680M679.292 3094.6V3056.86M0.707596 3056.86H37.7385M37.7385 3056.86H75.4769M37.7385 3056.86V3019.13M75.4769 3056.86H113.215M75.4769 3056.86V3019.13M113.215 3056.86H150.954M113.215 3056.86V3019.13M150.954 3056.86H188.692M150.954 3056.86V3019.13M188.692 3056.86H226.431M188.692 3056.86V3019.13M226.431 3056.86H264.169M226.431 3056.86V3019.13M264.169 3056.86H301.908M264.169 3056.86V3019.13M301.908 3056.86H339.646M301.908 3056.86V3019.13M339.646 3056.86H377.385M339.646 3056.86V3019.13M377.385 3056.86H415.123M377.385 3056.86V3019.13M415.123 3056.86H452.862M415.123 3056.86V3019.13M452.862 3056.86H490.6M452.862 3056.86V3019.13M490.6 3056.86H528.339M490.6 3056.86V3019.13M528.339 3056.86H566.077M528.339 3056.86V3019.13M566.077 3056.86H603.815M566.077 3056.86V3019.13M603.815 3056.86H641.554M603.815 3056.86V3019.13M641.554 3056.86H679.292M641.554 3056.86V3019.13M679.292 3056.86H680M679.292 3056.86V3019.13M0.707596 3019.13H37.7385M37.7385 3019.13H75.4769M37.7385 3019.13V2981.39M75.4769 3019.13H113.215M75.4769 3019.13V2981.39M113.215 3019.13H150.954M113.215 3019.13V2981.39M150.954 3019.13H188.692M150.954 3019.13V2981.39M188.692 3019.13H226.431M188.692 3019.13V2981.39M226.431 3019.13H264.169M226.431 3019.13V2981.39M264.169 3019.13H301.908M264.169 3019.13V2981.39M301.908 3019.13H339.646M301.908 3019.13V2981.39M339.646 3019.13H377.385M339.646 3019.13V2981.39M377.385 3019.13H415.123M377.385 3019.13V2981.39M415.123 3019.13H452.862M415.123 3019.13V2981.39M452.862 3019.13H490.6M452.862 3019.13V2981.39M490.6 3019.13H528.339M490.6 3019.13V2981.39M528.339 3019.13H566.077M528.339 3019.13V2981.39M566.077 3019.13H603.815M566.077 3019.13V2981.39M603.815 3019.13H641.554M603.815 3019.13V2981.39M641.554 3019.13H679.292M641.554 3019.13V2981.39M679.292 3019.13H680M679.292 3019.13V2981.39M0.707596 2981.39H37.7385M37.7385 2981.39H75.4769M37.7385 2981.39V2943.65M75.4769 2981.39H113.215M75.4769 2981.39V2943.65M113.215 2981.39H150.954M113.215 2981.39V2943.65M150.954 2981.39H188.692M150.954 2981.39V2943.65M188.692 2981.39H226.431M188.692 2981.39V2943.65M226.431 2981.39H264.169M226.431 2981.39V2943.65M264.169 2981.39H301.908M264.169 2981.39V2943.65M301.908 2981.39H339.646M301.908 2981.39V2943.65M339.646 2981.39H377.385M339.646 2981.39V2943.65M377.385 2981.39H415.123M377.385 2981.39V2943.65M415.123 2981.39H452.862M415.123 2981.39V2943.65M452.862 2981.39H490.6M452.862 2981.39V2943.65M490.6 2981.39H528.339M490.6 2981.39V2943.65M528.339 2981.39H566.077M528.339 2981.39V2943.65M566.077 2981.39H603.815M566.077 2981.39V2943.65M603.815 2981.39H641.554M603.815 2981.39V2943.65M641.554 2981.39H679.292M641.554 2981.39V2943.65M679.292 2981.39H680M679.292 2981.39V2943.65M0.707596 2943.65H37.7385M37.7385 2943.65H75.4769M37.7385 2943.65V2905.92M75.4769 2943.65H113.215M75.4769 2943.65V2905.92M113.215 2943.65H150.954M113.215 2943.65V2905.92M150.954 2943.65H188.692M150.954 2943.65V2905.92M188.692 2943.65H226.431M188.692 2943.65V2905.92M226.431 2943.65H264.169M226.431 2943.65V2905.92M264.169 2943.65H301.908M264.169 2943.65V2905.92M301.908 2943.65H339.646M301.908 2943.65V2905.92M339.646 2943.65H377.385M339.646 2943.65V2905.92M377.385 2943.65H415.123M377.385 2943.65V2905.92M415.123 2943.65H452.862M415.123 2943.65V2905.92M452.862 2943.65H490.6M452.862 2943.65V2905.92M490.6 2943.65H528.339M490.6 2943.65V2905.92M528.339 2943.65H566.077M528.339 2943.65V2905.92M566.077 2943.65H603.815M566.077 2943.65V2905.92M603.815 2943.65H641.554M603.815 2943.65V2905.92M641.554 2943.65H679.292M641.554 2943.65V2905.92M679.292 2943.65H680M679.292 2943.65V2905.92M0.707596 2905.92H37.7385M37.7385 2905.92H75.4769M37.7385 2905.92V2868.18M75.4769 2905.92H113.215M75.4769 2905.92V2868.18M113.215 2905.92H150.954M113.215 2905.92V2868.18M150.954 2905.92H188.692M150.954 2905.92V2868.18M188.692 2905.92H226.431M188.692 2905.92V2868.18M226.431 2905.92H264.169M226.431 2905.92V2868.18M264.169 2905.92H301.908M264.169 2905.92V2868.18M301.908 2905.92H339.646M301.908 2905.92V2868.18M339.646 2905.92H377.385M339.646 2905.92V2868.18M377.385 2905.92H415.123M377.385 2905.92V2868.18M415.123 2905.92H452.862M415.123 2905.92V2868.18M452.862 2905.92H490.6M452.862 2905.92V2868.18M490.6 2905.92H528.339M490.6 2905.92V2868.18M528.339 2905.92H566.077M528.339 2905.92V2868.18M566.077 2905.92H603.815M566.077 2905.92V2868.18M603.815 2905.92H641.554M603.815 2905.92V2868.18M641.554 2905.92H679.292M641.554 2905.92V2868.18M679.292 2905.92H680M679.292 2905.92V2868.18M0.707596 2868.18H37.7385M37.7385 2868.18H75.4769M37.7385 2868.18V2830.44M75.4769 2868.18H113.215M75.4769 2868.18V2830.44M113.215 2868.18H150.954M113.215 2868.18V2830.44M150.954 2868.18H188.692M150.954 2868.18V2830.44M188.692 2868.18H226.431M188.692 2868.18V2830.44M226.431 2868.18H264.169M226.431 2868.18V2830.44M264.169 2868.18H301.908M264.169 2868.18V2830.44M301.908 2868.18H339.646M301.908 2868.18V2830.44M339.646 2868.18H377.385M339.646 2868.18V2830.44M377.385 2868.18H415.123M377.385 2868.18V2830.44M415.123 2868.18H452.862M415.123 2868.18V2830.44M452.862 2868.18H490.6M452.862 2868.18V2830.44M490.6 2868.18H528.339M490.6 2868.18V2830.44M528.339 2868.18H566.077M528.339 2868.18V2830.44M566.077 2868.18H603.815M566.077 2868.18V2830.44M603.815 2868.18H641.554M603.815 2868.18V2830.44M641.554 2868.18H679.292M641.554 2868.18V2830.44M679.292 2868.18H680M679.292 2868.18V2830.44M0.707596 2830.44H37.7385M37.7385 2830.44H75.4769M37.7385 2830.44V2792.71M75.4769 2830.44H113.215M75.4769 2830.44V2792.71M113.215 2830.44H150.954M113.215 2830.44V2792.71M150.954 2830.44H188.692M150.954 2830.44V2792.71M188.692 2830.44H226.431M188.692 2830.44V2792.71M226.431 2830.44H264.169M226.431 2830.44V2792.71M264.169 2830.44H301.908M264.169 2830.44V2792.71M301.908 2830.44H339.646M301.908 2830.44V2792.71M339.646 2830.44H377.385M339.646 2830.44V2792.71M377.385 2830.44H415.123M377.385 2830.44V2792.71M415.123 2830.44H452.862M415.123 2830.44V2792.71M452.862 2830.44H490.6M452.862 2830.44V2792.71M490.6 2830.44H528.339M490.6 2830.44V2792.71M528.339 2830.44H566.077M528.339 2830.44V2792.71M566.077 2830.44H603.815M566.077 2830.44V2792.71M603.815 2830.44H641.554M603.815 2830.44V2792.71M641.554 2830.44H679.292M641.554 2830.44V2792.71M679.292 2830.44H680M679.292 2830.44V2792.71M0.707596 2792.71H37.7385M37.7385 2792.71H75.4769M37.7385 2792.71V2754.97M75.4769 2792.71H113.215M75.4769 2792.71V2754.97M113.215 2792.71H150.954M113.215 2792.71V2754.97M150.954 2792.71H188.692M150.954 2792.71V2754.97M188.692 2792.71H226.431M188.692 2792.71V2754.97M226.431 2792.71H264.169M226.431 2792.71V2754.97M264.169 2792.71H301.908M264.169 2792.71V2754.97M301.908 2792.71H339.646M301.908 2792.71V2754.97M339.646 2792.71H377.385M339.646 2792.71V2754.97M377.385 2792.71H415.123M377.385 2792.71V2754.97M415.123 2792.71H452.862M415.123 2792.71V2754.97M452.862 2792.71H490.6M452.862 2792.71V2754.97M490.6 2792.71H528.339M490.6 2792.71V2754.97M528.339 2792.71H566.077M528.339 2792.71V2754.97M566.077 2792.71H603.815M566.077 2792.71V2754.97M603.815 2792.71H641.554M603.815 2792.71V2754.97M641.554 2792.71H679.292M641.554 2792.71V2754.97M679.292 2792.71H680M679.292 2792.71V2754.97M0.707596 2754.97H37.7385M37.7385 2754.97H75.4769M37.7385 2754.97V2717.94M75.4769 2754.97H113.215M75.4769 2754.97V2717.94M113.215 2754.97H150.954M113.215 2754.97V2717.94M150.954 2754.97H188.692M150.954 2754.97V2717.94M188.692 2754.97H226.431M188.692 2754.97V2717.94M226.431 2754.97H264.169M226.431 2754.97V2717.94M264.169 2754.97H301.908M264.169 2754.97V2717.94M301.908 2754.97H339.646M301.908 2754.97V2717.94M339.646 2754.97H377.385M339.646 2754.97V2717.94M377.385 2754.97H415.123M377.385 2754.97V2717.94M415.123 2754.97H452.862M415.123 2754.97V2717.94M452.862 2754.97H490.6M452.862 2754.97V2717.94M490.6 2754.97H528.339M490.6 2754.97V2717.94M528.339 2754.97H566.077M528.339 2754.97V2717.94M566.077 2754.97H603.815M566.077 2754.97V2717.94M603.815 2754.97H641.554M603.815 2754.97V2717.94M641.554 2754.97H679.292M641.554 2754.97V2717.94M679.292 2754.97H680M679.292 2754.97V2717.94M0.707596 2717.23H680M0 3397.2V2717.94" stroke="#2F52FF" stroke-opacity="0.1" stroke-width="1.74359"/>
</svg>
