<svg width="552" height="307" viewBox="0 0 552 307" fill="none" xmlns="http://www.w3.org/2000/svg">
<g clip-path="url(#clip0_499_1459)">
<rect y="0.587891" width="552" height="305.824" rx="15.1648" fill="#9ECBFF"/>
<path d="M318.461 56.9358C269.182 58.4232 246.804 25.4613 223.02 -1.08545L490.176 -0.377317C484.734 145.561 411.934 123.364 376.215 94.0236C353.001 76.7959 337.78 56.8705 318.461 56.9358Z" fill="#BADAFE"/>
<path d="M86.2913 197.719C54.2451 164.44 14.8083 168.425 -0.904297 174.578L-0.608326 308.653L295.223 307.986C268.525 262.219 213.54 245.374 189.385 242.672C168.373 241.554 118.337 230.998 86.2913 197.719Z" fill="#BADAFE"/>
<circle cx="461.092" cy="348.82" r="75.8242" fill="#BADAFE"/>
<circle cx="559.078" cy="111.579" r="75.8242" fill="#BADAFE"/>
<path d="M49.2404 292.736C41.4992 253.899 54.2787 176.934 167.326 179.768C182.933 179.611 226.497 184.036 262.976 187.64C310.632 192.348 352.943 173.444 394.025 140.604" stroke="#72AEF5" stroke-width="1.51648" stroke-linejoin="round" stroke-dasharray="4.04 4.04"/>
<path d="M519.742 188.318C533.152 151.057 555.646 78.2218 445.177 31.7331C416.543 20.1922 370.048 12.8512 318.599 16.0833C270.805 19.0857 218.717 38.1769 174.069 24.8286" stroke="#72AEF5" stroke-width="1.51648" stroke-linejoin="round" stroke-dasharray="4.04 4.04"/>
<circle cx="501.111" cy="36.4779" r="3.53846" fill="#4991EF"/>
<rect width="84.6119" height="104.459" rx="10.4459" transform="matrix(0.882948 0.469471 -0.469472 0.882947 165.633 68.8997)" fill="#FFF4E1"/>
<path d="M216.67 91.2248C216.941 90.7154 217.573 90.5221 218.082 90.7929L233.379 98.9261C233.888 99.1969 234.082 99.8294 233.811 100.339L222.536 121.543C222.113 122.339 220.949 122.262 220.635 121.418L217.518 113.052C217.343 112.58 216.856 112.301 216.361 112.387L206.408 114.115C205.552 114.264 204.899 113.363 205.307 112.595L216.67 91.2248Z" fill="#FFAB6E"/>
<rect width="110.727" height="137.886" rx="10.4459" transform="matrix(0.829038 -0.559192 0.559194 0.829037 59.4824 114.615)" fill="#F19A5B"/>
<rect width="110.727" height="137.886" rx="10.4459" transform="matrix(0.906308 -0.422617 0.422619 0.906307 55.127 115.741)" fill="#FDB858"/>
<path d="M59.5416 125.208C57.1035 119.979 59.3656 113.764 64.5942 111.326L68.3811 109.56L126.654 234.527L122.867 236.293C117.639 238.731 111.424 236.469 108.985 231.24L59.5416 125.208Z" fill="#FFF4E1"/>
<rect width="60.5863" height="35.516" rx="5.22295" transform="matrix(0.906308 -0.422617 0.422619 0.906307 95.1387 121.441)" fill="#FFF4E1"/>
<path d="M295.599 62.1917C293.943 61.7088 293.502 62.8875 293.473 63.739C293.467 63.927 293.458 64.1156 293.416 64.2991L265.226 188.698C265.012 189.644 265.553 190.598 266.475 190.9L363.616 222.689C396.575 228.859 462.719 241.257 463.621 241.485C464.408 241.685 464.728 241.27 464.818 240.95C464.842 240.864 464.853 240.779 464.874 240.692C475.396 198.035 496.452 112.661 496.754 111.416C497.034 110.26 496.01 109.827 495.345 109.732C495.246 109.718 495.151 109.705 495.053 109.682C429.244 94.0539 297.447 62.7308 295.599 62.1917Z" fill="#899CF7"/>
<path d="M363.521 222.659C405.114 228.653 427.33 232.772 464.62 241.701C464.279 242.452 463.226 244.174 461.747 245.061C460.269 245.949 456.695 245.48 455.093 245.135C426.145 238.125 369.679 229.782 368.365 230.393C367.202 231.407 366.375 231.363 365.783 231.46C362.952 231.399 358.381 230.697 357.002 229.348C355.959 227.973 354.558 226.781 353.702 226.536C325.355 217.249 268.179 198.537 266.254 197.987C264.329 197.437 263.271 195.256 263.43 194.429L264.596 190.041C300.789 201.357 324.151 209.583 363.521 222.659Z" fill="#032AEA"/>
<path d="M489.695 118.677L486.533 112.426C486.01 111.393 484.487 111.56 484.2 112.681L454.381 229.011C454.214 229.662 453.553 230.063 452.896 229.924C416.645 222.283 397.536 219.159 366.766 215.919C366.662 215.908 366.556 215.883 366.459 215.847C329.492 202.194 309.852 195.7 276.787 185.501C276.095 185.287 275.357 185.701 275.189 186.405L274.542 189.121C274.391 189.755 274.752 190.399 275.371 190.602L364.722 219.949C364.78 219.968 364.839 219.982 364.899 219.993L460.431 236.551C461.082 236.664 461.709 236.252 461.864 235.609L489.796 119.536C489.865 119.246 489.83 118.942 489.695 118.677Z" fill="#506EFF"/>
<path d="M456.455 228.306L458.362 225.189C457.648 225.333 456.326 225.028 455.258 224.362C441.865 220.27 389.788 210.473 367.512 208.379C339.901 199.415 284.152 181.426 282.05 181.18C279.947 180.935 278.517 179.852 278.064 179.341C277.991 180.509 277.836 183.213 277.801 184.684C277.766 186.156 279.466 187.082 280.32 187.36C314.173 197.428 333.016 203.8 366.497 215.887C389.836 217.957 444.414 227.378 451.209 230.087C453.466 230.987 455.83 229.266 456.455 228.306Z" fill="#D9DCDB"/>
<path d="M489.513 97.8604C490.025 95.5767 489.201 95.3994 488.725 95.5963L395.779 79.8596C368.077 71.2153 312.029 53.6858 309.459 52.722C306.889 51.7583 306.045 53.5921 305.945 54.6294C296.88 93.7893 278.53 172.953 277.654 176.33C276.778 179.708 280.103 180.969 281.875 181.177L367.382 208.307C394.268 210.959 451.708 222.242 456.965 225.173C458.281 225.906 459.044 224.712 459.214 224.009C469.101 182.911 489.001 100.144 489.513 97.8604Z" fill="#F4F4F0"/>
<path d="M456.964 225.173C458.331 225.806 459.043 224.712 459.214 224.009L482.587 126.603C482.337 124.569 481.418 119.261 478.936 114.039C476.453 108.818 470.411 97.4537 467.7 92.4246L430.066 181.988L367.381 208.307C381.805 208.296 439.506 217.086 456.964 225.173Z" fill="#E7E7E7"/>
<path d="M468.403 68.1718C458.176 75.9484 428.372 79.7175 414.749 80.6299L394.229 86.9393L366.725 207.735C366.725 207.735 374.45 209.416 379.477 209.502C384.502 209.587 387.369 209.251 392.277 208.171C405.77 205.199 413.543 199.423 422.76 190.212C438.947 179.547 451.651 153.631 453.945 145.389C460.161 120.066 472.509 69.0178 472.18 67.4087C471.85 65.7997 469.525 67.247 468.403 68.1718Z" fill="#F4F4F4"/>
<path d="M453.944 145.389C453.518 146.921 452.732 149.062 451.631 151.603C435.928 192.667 422.156 204.957 392.275 208.17C405.769 205.199 413.542 199.423 422.759 190.212C435.938 181.529 446.808 162.736 451.631 151.603C452.397 149.601 453.167 147.53 453.944 145.389Z" fill="#FEFEFE"/>
<path d="M427.307 83.6231L418.713 83.0798C414.981 103.69 404.591 147.273 397.781 167.714C390.439 189.754 375.454 204.188 368.137 208.171C387.028 202.849 398.468 184.234 401.827 175.592C410.765 148.162 428.858 92.3154 429.727 88.3644C430.596 84.4133 428.476 83.5573 427.307 83.6231Z" fill="#EEEEEE"/>
<path d="M303.541 175.899C298.838 166.876 302.973 146.089 305.489 134.957C299.759 166.129 310.182 179.302 337.176 194.997C324.28 190.25 311.599 185.342 303.541 175.899Z" fill="#EDEDEC"/>
<path d="M404.658 145.171C398.015 174.805 379.264 203.689 366.71 207.898C356.288 205.261 334.921 195.464 326.999 188.672C316.752 179.884 312.939 168.494 311.949 161.161C303.496 156.482 306.414 133.049 308.93 121.917C314.086 98.9301 324.492 52.256 324.871 49.4542C325.25 46.6523 327.878 48.1082 329.144 49.1864C349.523 65.1859 363.859 72.1074 396.077 79.7571C400.955 81.2325 416.652 65.2807 421.763 55.544C422.489 53.7006 424.556 55.1165 423.833 57.3632C420.09 75.5768 410.886 117.39 404.658 145.171Z" fill="white"/>
<path d="M311.948 161.161C303.496 156.482 306.414 133.049 308.929 121.917C298.835 157.288 303.116 171.728 326.999 188.672C316.751 179.884 312.938 168.494 311.948 161.161Z" fill="#F3F3F3"/>
<path d="M396.058 79.747L392.469 78.8337C379.504 120.148 354.06 203.055 356.008 204.168C357.956 205.281 363.995 207.031 366.771 207.767L396.058 79.747Z" fill="#F9F9F9"/>
<path d="M147.638 17.9127C148.494 16.348 150.741 16.348 151.597 17.9127L155.948 25.8676C156.155 26.2461 156.466 26.5574 156.844 26.7644L164.799 31.1151C166.364 31.9709 166.364 34.2181 164.799 35.0739L156.844 39.4246C156.466 39.6316 156.155 39.9429 155.948 40.3214L151.597 48.2763C150.741 49.841 148.494 49.841 147.638 48.2763L143.287 40.3214C143.08 39.9429 142.769 39.6316 142.391 39.4246L134.436 35.0739C132.871 34.2182 132.871 31.9709 134.436 31.1151L142.391 26.7644C142.769 26.5574 143.08 26.2461 143.287 25.8676L147.638 17.9127Z" fill="#0530A1"/>
<path d="M397.116 34.7598C397.544 33.9775 398.667 33.9774 399.095 34.7598L401.271 38.7373C401.374 38.9265 401.53 39.0822 401.719 39.1857L405.697 41.361C406.479 41.7889 406.479 42.9125 405.697 43.3404L401.719 45.5158C401.53 45.6193 401.374 45.7749 401.271 45.9642L399.095 49.9416C398.667 50.724 397.544 50.724 397.116 49.9416L394.941 45.9642C394.837 45.7749 394.681 45.6193 394.492 45.5158L390.515 43.3404C389.732 42.9125 389.732 41.7889 390.515 41.361L394.492 39.1857C394.681 39.0822 394.837 38.9265 394.941 38.7373L397.116 34.7598Z" fill="#0530A1"/>
<path d="M345.68 272.632C346.108 271.849 347.232 271.849 347.66 272.632L349.835 276.609C349.939 276.798 350.094 276.954 350.284 277.057L354.261 279.233C355.043 279.661 355.043 280.784 354.261 281.212L350.284 283.388C350.094 283.491 349.939 283.647 349.835 283.836L347.66 287.813C347.232 288.596 346.108 288.596 345.68 287.813L343.505 283.836C343.401 283.647 343.246 283.491 343.057 283.388L339.079 281.212C338.297 280.784 338.297 279.661 339.079 279.233L343.057 277.057C343.246 276.954 343.401 276.798 343.505 276.609L345.68 272.632Z" fill="#0530A1"/>
<path d="M301.34 231.606L297.146 233.365C297.89 235.228 299.666 239.643 300.881 242.709C302.009 245.556 302.478 250.169 298.884 253.32C308.96 248.301 307.051 243.223 305.87 239.918C305.022 237.759 303.227 233.223 302.838 232.354C302.448 231.486 301.677 231.493 301.34 231.606Z" fill="#EAEEEF"/>
<path d="M276.869 241.905L281.079 240.185C281.869 242.028 283.736 246.405 285.045 249.433C286.26 252.243 289.17 255.688 293.939 255.374C283.309 258.936 281.064 254.197 279.561 251.025L279.543 250.986C278.616 248.86 276.678 244.384 276.34 243.494C276.001 242.604 276.551 242.064 276.869 241.905Z" fill="#EAEEEF"/>
<path d="M297.179 233.384L281.158 240.09L284.491 248.371C286.312 252.738 290.269 257.345 296.545 254.665C303.052 251.886 301.823 245.483 300.749 242.463L297.179 233.384Z" fill="#D8D8D8"/>
<path d="M265.064 161.918L253.637 166.705L257.681 176.346L269.489 171.391L265.064 161.918Z" fill="#D8D8D8"/>
<path d="M271.402 169.541L254.365 176.531C251.772 177.595 251.418 178.566 251.802 179.58L254.231 186.038L278.065 176.26C277.429 174.865 275.966 171.678 275.205 170.084C274.444 168.491 272.353 169.058 271.402 169.541Z" fill="#DBDBDB"/>
<circle cx="239.768" cy="113.438" r="56.4031" fill="#656565"/>
<circle cx="239.768" cy="113.438" r="53.2696" fill="#3C3C3C"/>
<circle opacity="0.5" cx="239.768" cy="113.438" r="43.8691" fill="#BADAFE"/>
<path d="M254.223 186.029L258.401 184.327L281.479 240.074L276.908 241.906L254.223 186.029Z" fill="#5C5C5C"/>
<path d="M274.398 177.809L278.065 176.271L301.228 231.67L297.184 233.461L274.398 177.809Z" fill="#5C5C5C"/>
<path d="M274.407 177.812L258.441 184.322L281.402 240.105L297.186 233.457L274.407 177.812Z" fill="#3C3C3C"/>
<path d="M-7.02517 235.417C-3.59715 236.134 -0.082652 240.233 1.24609 242.193L-22.3441 301.186L-38.5275 288.862C-40.573 280.694 -38.7202 269.111 -35.8524 267.836C-32.9846 266.562 -27.9527 268.832 -25.7952 270.126C-35.7528 246.626 -11.3102 234.52 -7.02517 235.417Z" fill="#075759"/>
<path d="M57.4191 272.183C55.0578 269.596 48.8171 268.67 46.4537 268.523L6.79563 318.837L27.1591 326.999C35.2323 324.605 44.5325 316.611 44.171 313.493C43.8096 310.376 39.2954 307.198 37.0835 305.999C64.7992 304.089 60.3708 275.416 57.4191 272.183Z" fill="#075759"/>
<path d="M-22.5926 301.062C-28.7112 247.016 15.7096 231.129 38.4222 230.384C62.5006 278.732 29.2878 311.196 7.53331 318.739L-22.5926 301.062Z" fill="#006E7C"/>
<path d="M-13.8977 355.945C18.3027 361.311 33.6202 338.754 37.2539 327.434C23.8371 331.459 -39.8927 293.053 -44.5048 280.894C-65.0492 308.147 -50.7939 331.627 -39.8927 341.689C-31.1976 349.093 -25.6769 352.432 -13.8977 355.945Z" fill="#FF835C"/>
<path d="M498.144 16.365C500.131 15.8324 502.252 16.4007 503.707 17.8558L529.551 43.6993C531.006 45.1544 531.574 47.2753 531.042 49.263L521.582 84.5659C521.05 86.5536 519.497 88.1062 517.509 88.6388L482.206 98.0982C480.219 98.6308 478.098 98.0625 476.643 96.6074L450.799 70.7638C449.344 69.3087 448.776 67.1879 449.308 65.2002L458.768 29.8972C459.3 27.9095 460.853 26.357 462.841 25.8244L498.144 16.365Z" fill="#E98944"/>
<path d="M497.192 24.3662C498.385 24.0466 499.657 24.3876 500.531 25.2606L522.146 46.8761C523.019 47.7491 523.36 49.0216 523.04 50.2142L515.129 79.7415C514.809 80.9341 513.878 81.8656 512.685 82.1852L483.158 90.097C481.965 90.4166 480.693 90.0756 479.819 89.2025L458.204 67.5871C457.331 66.714 456.99 65.4415 457.31 64.2489L465.221 34.7217C465.541 33.5291 466.472 32.5975 467.665 32.278L497.192 24.3662Z" fill="#FDB858"/>
<path d="M491.866 42.9368C493.126 41.5015 495.485 42.1335 495.858 44.0063L497.1 50.2439C497.249 50.9876 497.753 51.6108 498.45 51.9103L504.293 54.4228C506.047 55.1772 506.175 57.6157 504.509 58.5492L498.961 61.6587C498.299 62.0294 497.862 62.7019 497.793 63.457L497.209 69.7904C497.034 71.692 494.754 72.567 493.351 71.2712L488.679 66.9553C488.122 66.4408 487.348 66.2332 486.608 66.4004L480.404 67.8021C478.542 68.223 477.005 66.3253 477.804 64.5909L480.465 58.8141C480.782 58.1253 480.74 57.3245 480.353 56.6727L477.103 51.2057C476.127 49.5643 477.457 47.5164 479.353 47.7402L485.669 48.4858C486.423 48.5747 487.171 48.2874 487.671 47.7174L491.866 42.9368Z" fill="#FFF4E1"/>
</g>
<defs>
<clipPath id="clip0_499_1459">
<rect y="0.587891" width="552" height="305.824" rx="15.1648" fill="white"/>
</clipPath>
</defs>
</svg>
