<svg width="500" height="50" viewBox="0 0 500 50" fill="none" xmlns="http://www.w3.org/2000/svg">
<line x1="62.5" y1="24.5" x2="437.5" y2="24.5" stroke="black" stroke-linecap="round" stroke-dasharray="5 5"/>
<circle cx="475" cy="25" r="25" fill="#2F52FF"/>
<path d="M470.948 29.912L475.076 25.528C475.417 25.1653 475.695 24.84 475.908 24.552C476.121 24.264 476.276 23.992 476.372 23.736C476.468 23.48 476.516 23.2187 476.516 22.952C476.516 22.4507 476.351 22.0613 476.02 21.784C475.7 21.496 475.289 21.352 474.788 21.352C474.255 21.352 473.785 21.4853 473.38 21.752C472.975 22.0187 472.612 22.4347 472.292 23L471.012 21.944C471.449 21.1867 471.988 20.616 472.628 20.232C473.268 19.8373 474.009 19.64 474.852 19.64C475.545 19.64 476.153 19.7787 476.676 20.056C477.199 20.3333 477.604 20.7227 477.892 21.224C478.18 21.7147 478.324 22.2853 478.324 22.936C478.324 23.4053 478.265 23.8267 478.148 24.2C478.041 24.5627 477.855 24.9307 477.588 25.304C477.321 25.6667 476.953 26.0933 476.484 26.584L473.316 29.864L470.948 29.912ZM470.948 31V29.912L472.532 29.352H478.548V31H470.948Z" fill="white"/>
<circle cx="25" cy="25" r="25" fill="#2F52FF"/>
<path d="M18.332 25.0001L22.4568 29.1249L31.2964 20.2861" stroke="white" stroke-width="1.66667" stroke-linecap="round" stroke-linejoin="round"/>
</svg>
