<svg width="1240" height="512" viewBox="0 0 1240 512" fill="none" xmlns="http://www.w3.org/2000/svg">
<g clip-path="url(#clip0_1991_59845)">
<rect y="0.00195312" width="1240" height="512" rx="20" fill="#9ECBFF"/>
<path d="M715.379 126.581C604.68 129.922 554.411 55.8772 500.981 -3.75684L1101.12 -2.16611C1088.89 325.667 925.355 275.805 845.116 209.894C792.968 171.194 758.776 126.434 715.379 126.581Z" fill="#BADAFE"/>
<path d="M193.841 442.832C121.853 368.075 33.2632 377.028 -2.0332 390.85L-1.36834 692.032L663.179 690.535C603.206 587.723 479.69 549.883 425.428 543.815C378.228 541.303 265.829 517.589 193.841 442.832Z" fill="#BADAFE"/>
<circle cx="1255.9" cy="249.331" r="170.33" fill="#BADAFE"/>
<path d="M110.611 656.277C93.2218 569.035 121.929 396.141 375.877 402.507C410.936 402.156 508.797 412.095 590.743 420.191C697.795 430.767 792.843 388.302 885.126 314.532" stroke="#72AEF5" stroke-width="3.40659" stroke-linejoin="round" stroke-dasharray="9.08 9.08"/>
<path d="M1167.54 421.715C1197.66 338.012 1248.19 174.397 1000.04 69.9659C935.715 44.0406 831.27 27.55 715.696 34.8104C608.334 41.555 491.323 84.4411 391.027 54.4558" stroke="#72AEF5" stroke-width="3.40659" stroke-linejoin="round" stroke-dasharray="9.08 9.08"/>
<path d="M1003.64 454.71C989.48 425.936 982.101 390.235 995.661 372.978C1010.31 370.836 1036.37 398.705 1049.9 424.641C1065.2 453.972 1069.46 501.725 1060.09 506.798C1035.38 501.731 1016.99 481.828 1003.64 454.71Z" fill="#AD394D" stroke="#AD394D" stroke-width="1.50019" stroke-linejoin="round"/>
<path d="M1029.11 437.451C1035.46 451.42 1044.6 459.85 1060.93 462.658C1060.93 462.658 1056.64 441.212 1049.19 428.324C1041.11 410.732 1030.43 398.751 1030.43 398.751C1022.89 413.256 1023.01 424.053 1029.11 437.451Z" fill="white"/>
<path d="M1101.81 345.247L995.805 372.242C1035.98 375.45 1079.91 476.318 1060.97 506.203L1148.66 431.39C1153.29 427.224 1153.85 426.276 1152.54 419.15C1146.77 387.749 1137.97 372.94 1116.26 349.55C1111.83 344.778 1109.8 343.805 1101.81 345.247Z" fill="#E23D5A" stroke="#E23D5A" stroke-width="1.50019" stroke-miterlimit="16" stroke-linejoin="round"/>
<ellipse cx="1192.75" cy="348.966" rx="18.0023" ry="18.0022" transform="rotate(10.8725 1192.75 348.966)" fill="#E23D5A"/>
<ellipse cx="1243.45" cy="514.519" rx="21.0026" ry="21.0026" transform="rotate(10.8725 1243.45 514.519)" fill="#E23D5A"/>
<rect width="9.00112" height="141.017" transform="matrix(0.955652 -0.294498 0.294501 0.955652 1193.18 364.702)" fill="#E23D5A"/>
<rect width="9.00112" height="47.3204" transform="matrix(0.516946 0.856019 -0.856019 0.516943 1175.69 351.75)" fill="#E23D5A"/>
<ellipse cx="1019.24" cy="39.5056" rx="6.54416" ry="6.54416" fill="#4991EF"/>
<rect width="135.012" height="166.681" rx="16.6681" transform="matrix(0.882948 0.46947 -0.469473 0.882947 452.29 348.46)" fill="#FFF4E1"/>
<path d="M533.73 384.084C534.162 383.271 535.172 382.962 535.984 383.394L560.392 396.372C561.205 396.804 561.514 397.814 561.081 398.626L543.091 432.461C542.416 433.731 540.559 433.608 540.057 432.261L535.084 418.912C534.804 418.16 534.027 417.714 533.237 417.851L517.356 420.608C515.989 420.845 514.948 419.408 515.599 418.183L533.73 384.084Z" fill="#FFAB6E"/>
<rect width="176.682" height="220.019" rx="16.6681" transform="matrix(0.829039 -0.559191 0.559194 0.829036 282.916 421.406)" fill="#F19A5B"/>
<rect width="176.682" height="220.018" rx="16.6681" transform="matrix(0.906308 -0.422617 0.42262 0.906307 275.965 423.204)" fill="#FDB858"/>
<path d="M283.009 438.31C279.119 429.967 282.728 420.05 291.071 416.159L297.114 413.342L390.098 612.746L384.055 615.564C375.712 619.454 365.795 615.845 361.905 607.502L283.009 438.31Z" fill="#FFF4E1"/>
<rect width="96.675" height="56.6714" rx="8.33404" transform="matrix(0.906308 -0.422617 0.42262 0.906307 339.809 432.299)" fill="#FFF4E1"/>
<rect opacity="0.2" x="686.871" y="31.5908" width="560.928" height="392.649" rx="28.0464" transform="rotate(-27 686.871 31.5908)" fill="#EBF4FF"/>
<path d="M915.344 155.353L926.013 158.82L932.945 137.482" stroke="#4991EF" stroke-width="7.47904" stroke-linecap="round" stroke-linejoin="round"/>
<path d="M887.87 20.567L876.651 17.8504M876.651 17.8504L865.433 15.1338M876.651 17.8504L880.296 9.4895M876.651 17.8504L873.006 26.2113" stroke="#4991EF" stroke-width="7.47904" stroke-linecap="round" stroke-linejoin="round"/>
<rect x="976.683" y="75.0298" width="84.1392" height="84.1391" rx="7.47904" transform="rotate(-27 976.683 75.0298)" fill="#4991EF"/>
<path d="M927.725 239.689C925.85 236.008 927.314 231.505 930.994 229.629L992.635 198.222C996.315 196.347 1000.82 197.81 1002.69 201.49L1034.1 263.131C1035.98 266.812 1034.51 271.315 1030.83 273.19L992.46 292.742C990.735 293.621 988.737 293.797 986.885 293.233L969.204 287.847L951.885 282.257C949.993 281.646 948.421 280.307 947.519 278.535L927.725 239.689Z" fill="#4991EF"/>
<path d="M975.745 267.747C975.12 266.367 989.782 293.517 989.782 293.517C988.084 294.342 951.275 283.189 949.572 281.037C949.572 281.037 975.992 268.291 975.745 267.747Z" fill="#64BFFC"/>
<path d="M699.604 55.6453C692.572 41.8439 698.059 24.9551 711.861 17.923L1161.67 -211.267C1175.47 -218.299 1192.36 -212.812 1199.39 -199.011L1203.64 -190.681L703.848 63.9751L699.604 55.6453Z" fill="#2D80EC"/>
<path d="M815.268 51.1592L941.442 301.639" stroke="#2D80EC" stroke-width="2.80464" stroke-linecap="round"/>
<path d="M920.592 0.371582L1046.77 250.851" stroke="#2D80EC" stroke-width="2.80464" stroke-linecap="round"/>
<path d="M1025.3 -52.9165L1151.47 197.563" stroke="#2D80EC" stroke-width="2.80464" stroke-linecap="round"/>
<path d="M1130 -106.205L1256.18 144.275" stroke="#2D80EC" stroke-width="2.80464" stroke-linecap="round"/>
<path d="M841.431 255.275L1277.08 36.5136" stroke="#2D80EC" stroke-width="2.80464" stroke-linecap="round"/>
<path d="M789.708 150.887L1225.36 -67.8746" stroke="#2D80EC" stroke-width="2.80464" stroke-linecap="round"/>
<g clip-path="url(#clip1_1991_59845)">
<path d="M980.584 -14.8917C980.003 -16.4973 977.677 -16.3177 977.35 -14.642L973.73 3.89653C973.462 5.27321 974.896 6.35514 976.146 5.71834L983.599 1.92081L986.871 10.771C987.459 12.3618 989.765 12.1819 990.099 10.5192L994.02 -8.98442C994.298 -10.3639 992.86 -11.4542 991.607 -10.8155L983.543 -6.70673L980.584 -14.8917Z" fill="#4991EF"/>
</g>
<ellipse cx="838.037" cy="191.481" rx="6.54416" ry="6.54416" fill="#4991EF"/>
<ellipse cx="1088.39" cy="191.48" rx="6.54416" ry="6.54416" fill="#4991EF"/>
<path d="M438.186 -73.3721C443.676 -74.8432 449.534 -73.2735 453.554 -69.2544L524.936 2.12833C528.955 6.14746 530.525 12.0055 529.054 17.4957L502.926 115.006C501.455 120.497 497.167 124.785 491.676 126.256L394.166 152.384C388.675 153.855 382.817 152.285 378.798 148.266L307.416 76.8835C303.396 72.8644 301.827 67.0064 303.298 61.5161L329.426 -35.9945C330.897 -41.4847 335.185 -45.7731 340.675 -47.2442L438.186 -73.3721Z" fill="#E98944"/>
<path d="M435.559 -51.272C438.853 -52.1546 442.368 -51.2128 444.779 -48.8013L504.483 10.9028C506.895 13.3143 507.837 16.8291 506.954 20.1233L485.101 101.681C484.218 104.975 481.645 107.548 478.351 108.431L396.793 130.284C393.499 131.166 389.984 130.225 387.573 127.813L327.869 68.109C325.457 65.6975 324.515 62.1827 325.398 58.8886L347.251 -22.6689C348.134 -25.963 350.707 -28.536 354.001 -29.4187L435.559 -51.272Z" fill="#FDB858"/>
<path d="M420.848 0.0222375C424.327 -3.94229 430.841 -2.19664 431.872 2.97622L435.305 20.2053C435.714 22.2595 437.108 23.9807 439.032 24.8081L455.171 31.7478C460.016 33.8314 460.369 40.5668 455.768 43.1455L440.443 51.7342C438.616 52.7581 437.41 54.6156 437.217 56.7013L435.604 74.1948C435.12 79.4471 428.823 81.8641 424.949 78.285L412.045 66.364C410.507 64.9427 408.367 64.3695 406.324 64.8311L389.189 68.703C384.044 69.8655 379.799 64.6239 382.006 59.8332L389.356 43.8769C390.232 41.9745 390.116 39.7627 389.046 37.9623L380.068 22.8618C377.373 18.328 381.046 12.6715 386.284 13.2898L403.731 15.3493C405.811 15.5948 407.879 14.8011 409.26 13.2268L420.848 0.0222375Z" fill="#FFF4E1"/>
<path d="M79.5016 407.535C85.8416 408.862 92.3414 416.443 94.7988 420.068L51.1703 529.172L21.2402 506.379C17.4571 491.272 20.8838 469.851 26.1876 467.494C31.4914 465.136 40.7976 469.335 44.7878 471.729C26.3717 428.267 71.5768 405.877 79.5016 407.535Z" fill="#075759"/>
<path d="M198.685 475.532C194.318 470.749 182.776 469.036 178.405 468.764L105.06 561.815L142.721 576.911C157.652 572.483 174.852 557.699 174.184 551.933C173.515 546.168 165.167 540.291 161.076 538.074C212.334 534.54 204.144 481.512 198.685 475.532Z" fill="#075759"/>
<path d="M50.7093 528.942C39.3933 428.987 121.547 399.607 163.552 398.228C208.084 487.645 146.659 547.684 106.425 561.635L50.7093 528.942Z" fill="#006E7C"/>
<path d="M10.1725 491.698C12.0147 488.977 17.5777 488.991 19.8629 489.601C19.3603 495.588 20.491 502.771 21.1191 505.615C16.8801 501.934 8.33038 494.418 10.1725 491.698Z" fill="#DF6037"/>
<path d="M66.792 630.445C126.344 640.37 154.673 598.653 161.394 577.716C136.58 585.16 18.7158 514.132 10.1861 491.644C-27.8096 542.047 -1.44521 585.47 18.7158 604.081C34.7969 617.773 45.0071 623.948 66.792 630.445Z" fill="#FF835C"/>
<path d="M90.0701 -22.9829C90.1668 -31.4516 97.1104 -38.2385 105.579 -38.1419L163.848 -37.4768C172.317 -37.3801 179.104 -30.4365 179.007 -21.9678L178.044 62.369L89.1074 61.3539L90.0701 -22.9829Z" fill="#13409A"/>
<rect x="119.165" y="-37.9951" width="30.6699" height="99.6772" transform="rotate(0.65396 119.165 -37.9951)" fill="#2957B1"/>
<ellipse cx="134.671" cy="107.129" rx="69.0073" ry="69.0073" transform="rotate(32.654 134.671 107.129)" fill="#F19A5B"/>
<ellipse cx="134.439" cy="106.069" rx="42.1712" ry="42.1711" transform="rotate(32.654 134.439 106.069)" fill="#FDB858"/>
<path d="M869.263 379.492L839.631 439.39L795.282 529.627L651.586 591.963C670.735 547.476 708.38 456.773 712.709 450.086C716.701 443.919 728.608 437.452 734.719 435.343L869.263 379.492Z" fill="#13409A"/>
<path d="M750.469 464.575C717.03 495.638 683.8 542.211 704.205 563.611L750.111 610.101C777.115 621.511 896.547 503.022 879.462 481.608L839.829 440.17C822.346 417.195 780.043 437.103 750.469 464.575Z" fill="#2957B1"/>
<path d="M854.831 408.536L857.476 403.813L879.555 425.751C893.376 418.842 897.609 429.193 897.998 435.232C900.369 436.219 907.399 437.183 912.103 442.241C916.505 446.974 915.231 450.542 913.299 452.667L904.685 462.544C902.968 464.209 900.649 467.012 895.136 465.107C889.019 462.993 885.42 452.786 884.321 448.12C869.857 444.594 873.286 433.809 876.808 428.858L854.831 408.536Z" fill="#13409A"/>
<path d="M879.464 481.607C896.549 503.021 777.117 621.51 750.113 610.1C737.155 595.116 822.842 487.709 879.464 481.607Z" fill="#13409A"/>
<path d="M869.183 379.872C869.183 379.872 864.119 363.117 857.685 365.777C802.903 386.839 706.228 425.979 703.242 429.224C699.677 432.229 644.402 561.565 637.873 577.352C635.132 583.98 651.621 591.949 651.621 591.949C670.77 547.462 710.085 457.269 713.025 450.537C715.966 443.805 728.089 438.69 734.716 435.341L869.183 379.872Z" fill="#2957B1"/>
</g>
<defs>
<clipPath id="clip0_1991_59845">
<rect y="0.00195312" width="1240" height="512" rx="20" fill="white"/>
</clipPath>
<clipPath id="clip1_1991_59845">
<rect width="33.6557" height="33.6557" fill="white" transform="translate(961.404 -9.59131) rotate(-27)"/>
</clipPath>
</defs>
</svg>
