<svg width="191" height="200" viewBox="0 0 191 200" fill="none" xmlns="http://www.w3.org/2000/svg">
<path fill-rule="evenodd" clip-rule="evenodd" d="M151.855 172.506C175.548 155.134 190.931 127.097 190.931 95.4657C190.931 42.7415 148.19 0 95.4657 0C42.7415 0 0 42.7415 0 95.4657C0 148.19 42.7415 190.931 95.4657 190.931C98.8408 190.931 102.175 190.756 105.46 190.415L134.834 199.856C136.219 200.302 137.723 199.683 138.394 198.393L151.855 172.506Z" fill="#2D81F7"/>
<circle cx="86.5168" cy="71.5991" r="23.8664" fill="white"/>
<path d="M138.274 86.0944L59.7012 117.384C58.0777 118.031 57.2948 119.94 58.0349 121.523C62.8528 131.827 79.0373 161.75 117.841 149.911C143.157 139.785 153.208 116.131 142.067 87.6992C141.479 86.1983 139.772 85.498 138.274 86.0944Z" fill="white"/>
</svg>
