<svg width="552" height="307" viewBox="0 0 552 307" fill="none" xmlns="http://www.w3.org/2000/svg">
<g clip-path="url(#clip0_496_3353)">
<rect y="0.629883" width="551.937" height="305.789" rx="15.1631" fill="#9ECBFF"/>
<path d="M318.425 56.9714C269.151 58.4587 246.776 25.5005 222.994 -1.04321L490.121 -0.335162C484.678 145.587 411.887 123.393 376.172 94.055C352.96 76.8293 337.741 56.9061 318.425 56.9714Z" fill="#BADAFE"/>
<path d="M86.2814 197.739C54.2388 164.463 14.8065 168.449 -0.904297 174.6L-0.60836 308.66L295.189 307.994C268.494 262.231 213.516 245.388 189.363 242.687C168.354 241.569 118.324 231.014 86.2814 197.739Z" fill="#BADAFE"/>
<circle cx="461.04" cy="348.823" r="75.8156" fill="#BADAFE"/>
<circle cx="559.013" cy="111.609" r="75.8156" fill="#BADAFE"/>
<path d="M49.2344 292.745C41.494 253.913 54.272 176.956 167.307 179.789C182.912 179.633 226.471 184.057 262.946 187.661C310.596 192.368 352.903 173.467 393.979 140.631" stroke="#72AEF5" stroke-width="1.51631" stroke-linejoin="round" stroke-dasharray="4.04 4.04"/>
<path d="M519.685 188.339C533.093 151.082 555.584 78.255 445.128 31.7716C416.497 20.232 370.007 12.8919 318.564 16.1236C270.776 19.1256 218.694 38.2147 174.051 24.8679" stroke="#72AEF5" stroke-width="1.51631" stroke-linejoin="round" stroke-dasharray="4.04 4.04"/>
<path d="M426.799 262.563C417.763 244.202 413.054 221.421 421.707 210.41C431.054 209.043 447.683 226.826 456.315 243.376C466.077 262.091 468.801 292.563 462.818 295.8C447.049 292.567 435.314 279.866 426.799 262.563Z" fill="#AD394D" stroke="#AD394D" stroke-width="0.957265" stroke-linejoin="round"/>
<path d="M443.048 251.55C447.104 260.463 452.937 265.842 463.353 267.634C463.353 267.634 460.62 253.95 455.864 245.726C450.709 234.501 443.892 226.855 443.892 226.855C439.081 236.111 439.158 243.001 443.048 251.55Z" fill="white"/>
<path d="M489.44 192.715L421.797 209.94C447.434 211.987 475.465 276.35 463.377 295.42L519.335 247.682C522.29 245.024 522.646 244.419 521.81 239.872C518.126 219.835 512.515 210.385 498.66 195.46C495.834 192.415 494.537 191.794 489.44 192.715Z" fill="#E23D5A" stroke="#E23D5A" stroke-width="0.957265" stroke-miterlimit="16" stroke-linejoin="round"/>
<ellipse cx="547.472" cy="195.088" rx="11.4872" ry="11.4872" transform="rotate(10.8725 547.472 195.088)" fill="#E23D5A"/>
<rect width="5.7436" height="89.9828" transform="matrix(0.955652 -0.294498 0.294501 0.955651 547.742 205.129)" fill="#E23D5A"/>
<rect width="5.74359" height="30.195" transform="matrix(0.516946 0.856018 -0.85602 0.516943 536.586 196.864)" fill="#E23D5A"/>
<circle cx="501.054" cy="36.5158" r="3.53806" fill="#4991EF"/>
<path d="M371.021 240.08L355.001 272.464L331.024 321.25L253.335 354.952C263.688 330.9 284.041 281.862 286.381 278.247C288.54 274.913 294.977 271.416 298.281 270.276L371.021 240.08Z" fill="#13409A"/>
<path d="M306.797 286.08C288.718 302.874 270.752 328.053 281.784 339.623L306.603 364.758C321.203 370.926 385.773 306.866 376.536 295.288L355.108 272.885C345.657 260.464 322.786 271.227 306.797 286.08Z" fill="#2957B1"/>
<path d="M363.219 255.783L364.649 253.23L376.585 265.09C384.058 261.355 386.346 266.951 386.557 270.216C387.838 270.749 391.639 271.271 394.182 274.005C396.562 276.564 395.874 278.493 394.829 279.642L390.172 284.982C389.243 285.882 387.99 287.398 385.009 286.368C381.702 285.225 379.756 279.706 379.162 277.184C371.342 275.277 373.196 269.447 375.1 266.77L363.219 255.783Z" fill="#13409A"/>
<path d="M376.537 295.288C385.774 306.866 321.203 370.926 306.604 364.757C299.598 356.656 345.924 298.587 376.537 295.288Z" fill="#13409A"/>
<path d="M370.979 240.285C370.979 240.285 368.241 231.227 364.763 232.666C335.145 244.053 282.878 265.213 281.264 266.968C279.336 268.592 249.452 338.517 245.922 347.052C244.441 350.636 253.355 354.944 253.355 354.944C263.708 330.892 284.963 282.13 286.553 278.49C288.143 274.851 294.697 272.085 298.28 270.275L370.979 240.285Z" fill="#2957B1"/>
<path d="M47.6046 5.78948C47.6569 1.21092 51.4109 -2.45837 55.9894 -2.40611L87.4923 -2.04652C92.0708 -1.99426 95.7401 1.75975 95.6878 6.33831L95.1674 51.9345L47.0841 51.3857L47.6046 5.78948Z" fill="#13409A"/>
<rect x="63.3359" y="-2.32642" width="16.5815" height="53.8899" transform="rotate(0.653959 63.3359 -2.32642)" fill="#2957B1"/>
<circle cx="71.7169" cy="76.1339" r="37.3084" transform="rotate(32.654 71.7169 76.1339)" fill="#F19A5B"/>
<circle cx="71.5914" cy="75.5613" r="22.7996" transform="rotate(32.654 71.5914 75.5613)" fill="#FDB858"/>
<path d="M-7.00666 235.489C-3.57902 236.206 -0.0649227 240.305 1.26367 242.264L-22.3238 301.251L-38.5053 288.928C-40.5507 280.761 -38.6981 269.179 -35.8306 267.905C-32.9631 266.631 -27.9318 268.9 -25.7745 270.195C-35.731 246.697 -11.2912 234.592 -7.00666 235.489Z" fill="#075759"/>
<path d="M57.4284 272.251C55.0674 269.665 48.8273 268.739 46.4643 268.592L6.81065 318.899L27.1718 327.061C35.2441 324.667 44.5432 316.674 44.1818 313.557C43.8204 310.44 39.3067 307.262 37.0951 306.064C64.8076 304.153 60.3797 275.484 57.4284 272.251Z" fill="#075759"/>
<path d="M-22.573 301.126C-28.6909 247.087 15.7249 231.202 38.4348 230.457C62.5105 278.8 29.3015 311.259 7.54949 318.802L-22.573 301.126Z" fill="#006E7C"/>
<path d="M-13.8782 356.003C18.3185 361.37 33.6343 338.815 37.2676 327.496C23.8523 331.521 -39.8703 293.119 -44.4818 280.962C-65.0239 308.211 -50.7702 331.688 -39.8703 341.75C-31.1761 349.152 -25.656 352.491 -13.8782 356.003Z" fill="#FF835C"/>
<rect width="90.9864" height="112.329" rx="11.2329" transform="matrix(0.882948 0.469471 -0.469472 0.882947 198.344 187.005)" fill="#FFF4E1"/>
<path d="M253.229 211.012C253.52 210.464 254.2 210.256 254.748 210.548L271.196 219.294C271.744 219.585 271.952 220.265 271.661 220.813L259.537 243.615C259.082 244.47 257.831 244.387 257.492 243.48L254.141 234.483C253.952 233.977 253.429 233.676 252.896 233.769L242.193 235.627C241.273 235.786 240.571 234.818 241.01 233.993L253.229 211.012Z" fill="#FFAB6E"/>
<rect width="119.069" height="148.274" rx="11.2329" transform="matrix(0.829038 -0.559192 0.559194 0.829037 84.1973 236.164)" fill="#F19A5B"/>
<rect width="119.069" height="148.274" rx="11.2329" transform="matrix(0.906308 -0.422617 0.422619 0.906307 79.5137 237.375)" fill="#FDB858"/>
<path d="M84.2609 247.555C81.6391 241.933 84.0716 235.25 89.6941 232.628L93.7663 230.729L156.43 365.111L152.357 367.01C146.735 369.631 140.052 367.199 137.43 361.576L84.2609 247.555Z" fill="#FFF4E1"/>
<rect width="65.1507" height="38.1918" rx="5.61644" transform="matrix(0.906308 -0.422617 0.422619 0.906307 122.539 243.505)" fill="#FFF4E1"/>
<rect opacity="0.5" x="258.783" y="31.1553" width="303.262" height="212.284" rx="15.1631" transform="rotate(-27 258.783 31.1553)" fill="#EBF4FF"/>
<path d="M382.306 98.0667L388.075 99.941L391.823 88.4046" stroke="#4991EF" stroke-width="4.0435" stroke-linecap="round" stroke-linejoin="round"/>
<path d="M367.453 43.7279L361.388 41.7485M361.388 41.7485L355.322 39.769M361.388 41.7485L363.358 35.6564M361.388 41.7485L359.417 47.8406" stroke="#4991EF" stroke-width="4.0435" stroke-linecap="round" stroke-linejoin="round"/>
<rect x="415.469" y="54.6404" width="45.4893" height="45.4893" rx="4.0435" transform="rotate(-27 415.469 54.6404)" fill="#4991EF"/>
<path d="M389 143.662C387.986 141.672 388.777 139.237 390.767 138.223L424.093 121.243C426.082 120.229 428.517 121.02 429.531 123.01L446.511 156.336C447.525 158.326 446.734 160.761 444.744 161.774L423.998 172.345C423.066 172.82 421.985 172.915 420.984 172.61L411.425 169.698L402.062 166.676C401.038 166.346 400.189 165.622 399.701 164.664L389 143.662Z" fill="#4991EF"/>
<path d="M414.962 158.831C414.624 158.085 422.551 172.764 422.551 172.764C421.633 173.21 401.732 167.18 400.812 166.016C400.812 166.016 415.095 159.126 414.962 158.831Z" fill="#64BFFC"/>
<path d="M265.667 44.1603C261.865 36.6987 264.832 27.5679 272.294 23.766L515.481 -100.144C522.943 -103.946 532.074 -100.979 535.876 -93.5178L538.17 -89.0144L267.962 48.6638L265.667 44.1603Z" fill="#2D80EC"/>
<path d="M328.199 41.7346L396.415 177.155" stroke="#2D80EC" stroke-width="1.51631" stroke-linecap="round"/>
<path d="M385.143 14.2766L453.358 149.697" stroke="#2D80EC" stroke-width="1.51631" stroke-linecap="round"/>
<path d="M441.752 -14.5334L509.967 120.887" stroke="#2D80EC" stroke-width="1.51631" stroke-linecap="round"/>
<path d="M498.359 -43.3433L566.575 92.077" stroke="#2D80EC" stroke-width="1.51631" stroke-linecap="round"/>
<path d="M342.346 152.089L577.879 33.8166" stroke="#2D80EC" stroke-width="1.51631" stroke-linecap="round"/>
<path d="M314.381 95.6519L549.915 -22.6204" stroke="#2D80EC" stroke-width="1.51631" stroke-linecap="round"/>
<g clip-path="url(#clip1_496_3353)">
<path d="M417.577 6.02485C417.263 5.15676 416.005 5.25385 415.828 6.15982L413.871 16.1826C413.726 16.9269 414.502 17.5118 415.177 17.1675L419.207 15.1144L420.976 19.8992C421.294 20.7593 422.54 20.662 422.721 19.7631L424.841 9.21857C424.991 8.47278 424.214 7.88327 423.536 8.22862L419.176 10.45L417.577 6.02485Z" fill="#4991EF"/>
</g>
<circle cx="340.511" cy="117.599" r="3.53806" fill="#4991EF"/>
<circle cx="475.858" cy="117.598" r="3.53806" fill="#4991EF"/>
<path d="M186.91 -24.5109C189.878 -25.3062 193.045 -24.4576 195.218 -22.2847L233.811 16.308C235.984 18.4809 236.832 21.648 236.037 24.6163L221.911 77.3348C221.116 80.3031 218.797 82.6215 215.829 83.4169L163.111 97.5428C160.142 98.3381 156.975 97.4895 154.802 95.3166L116.21 56.7239C114.037 54.551 113.188 51.3839 113.983 48.4156L128.109 -4.30291C128.905 -7.27117 131.223 -9.58964 134.191 -10.385L186.91 -24.5109Z" fill="#E98944"/>
<path d="M185.489 -12.5626C187.27 -13.0398 189.171 -12.5306 190.474 -11.2269L222.753 21.0519C224.057 22.3556 224.566 24.2559 224.089 26.0368L212.274 70.1304C211.797 71.9113 210.406 73.3024 208.625 73.7796L164.531 85.5945C162.75 86.0717 160.85 85.5625 159.546 84.2588L127.267 51.98C125.964 50.6763 125.455 48.776 125.932 46.9951L137.747 2.90151C138.224 1.12055 139.615 -0.270537 141.396 -0.747741L185.489 -12.5626Z" fill="#FDB858"/>
<path d="M177.536 15.1693C179.417 13.0259 182.939 13.9697 183.496 16.7664L185.352 26.0812C185.573 27.1918 186.327 28.1223 187.367 28.5697L196.093 32.3216C198.712 33.4481 198.903 37.0895 196.416 38.4836L188.13 43.1271C187.142 43.6807 186.49 44.6849 186.386 45.8125L185.514 55.2703C185.252 58.1099 181.848 59.4167 179.753 57.4816L172.777 51.0366C171.945 50.2682 170.789 49.9583 169.684 50.2079L160.42 52.3012C157.638 52.9296 155.343 50.0958 156.536 47.5058L160.51 38.8791C160.984 37.8506 160.921 36.6548 160.343 35.6814L155.489 27.5174C154.032 25.0662 156.018 22.0081 158.85 22.3424L168.282 23.4558C169.407 23.5885 170.524 23.1594 171.271 22.3083L177.536 15.1693Z" fill="#FFF4E1"/>
</g>
<defs>
<clipPath id="clip0_496_3353">
<rect y="0.629883" width="551.937" height="305.789" rx="15.1631" fill="white"/>
</clipPath>
<clipPath id="clip1_496_3353">
<rect width="18.1957" height="18.1957" fill="white" transform="translate(407.207 8.89038) rotate(-27)"/>
</clipPath>
</defs>
</svg>
