<svg width="85" height="32" viewBox="0 0 85 32" fill="none" xmlns="http://www.w3.org/2000/svg">
<path d="M12.0363 5.38139L9.93318 8.64866C17.7526 7.43145 35.0417 7.34175 40.9953 17.4895C35.43 5.49671 19.3705 4.42043 12.0363 5.38139Z" fill="#BBBBBB"/>
<path d="M73.1899 5.38139L75.2931 8.64866C67.4736 7.43145 50.1845 7.34175 44.231 17.4895C49.7963 5.49671 65.8558 4.42043 73.1899 5.38139Z" fill="#BBBBBB"/>
<path d="M20.6108 0L18.3458 3.0751C24.8171 3.4595 33.5533 4.61263 40.9953 13.2612C34.2005 3.07507 26.2732 2.34609e-05 20.6108 0Z" fill="#EEEEEE"/>
<path d="M64.6155 0L66.8804 3.0751C60.4092 3.4595 51.6729 4.61263 44.231 13.2612C51.0258 3.07507 58.9531 2.34609e-05 64.6155 0Z" fill="#EEEEEE"/>
<path d="M3.94725 12.6847L1.52052 16.3363C10.4725 13.1972 30.9001 10.1477 40.9953 23.0631C34.0063 7.84145 13.3845 9.80181 3.94725 12.6847Z" fill="#676767"/>
<path d="M81.279 12.6847L83.7058 16.3363C74.7538 13.1972 54.3262 10.1477 44.231 23.0631C51.2199 7.84145 71.8418 9.80181 81.279 12.6847Z" fill="#676767"/>
<path d="M2.49119 19.4114C0.0609448 20.1712 -0.151245 21.4615 0.0644644 22.1021C0.452747 23.1784 1.84407 22.935 2.49119 22.6787C24.3318 16.9129 33.6917 20.9489 37.9214 29.4054C39.6518 32.8648 45.3634 32.8649 47.3048 29.4054C51.619 21.7178 60.0856 16.9129 82.5733 22.6787C83.2743 22.8068 84.7411 22.794 85 21.7178C84.8706 20.6415 83.6518 19.8599 83.0586 19.6036C63.8066 14.2222 51.3494 17.6817 47.4666 24.0241C44.1721 29.4054 40.9167 29.4054 37.9214 24.2162C34.0387 17.4895 22.0668 14.6066 2.49119 19.4114Z" fill="#121212"/>
</svg>
