<svg width="193" height="200" viewBox="0 0 193 200" fill="none" xmlns="http://www.w3.org/2000/svg">
<g clip-path="url(#clip0_2120_15433)">
<path d="M45.4269 42.4058C49.9815 40.9099 56.9533 43.3638 59.8698 44.7778L72.2809 130.856L44.6618 127.322C36.6464 119.039 30.9155 104.041 33.4427 100.567C35.97 97.0934 43.4887 96.3406 46.9322 96.3985C19.0444 75.3559 39.7337 44.2757 45.4269 42.4058Z" fill="#075759"/>
<path d="M146.982 41.8844C142.413 40.4343 134.381 43.6079 131.479 45.0511L118.902 131.836L148.628 127.575C156.559 119.212 162.113 103.37 159.551 99.9222C156.989 96.4741 149.463 95.797 146.02 95.8894C177.567 74.6554 152.694 43.6969 146.982 41.8844Z" fill="#075759"/>
<path d="M71.9029 130.879C27.66 70.9986 69.4452 21.7644 95.8591 5.3358C157.493 46.1704 140.339 107.385 119.714 131.216L71.9029 130.879Z" fill="#006E7C"/>
<path d="M32.1356 122.008C32.3094 119.582 35.8803 117.532 37.5708 117.078C39.4643 121.101 42.8474 125.287 44.3022 126.877C40.223 126.087 31.9617 124.433 32.1356 122.008Z" fill="#DF6037"/>
<path d="M160.952 121.456C160.746 119.033 157.301 117.563 155.605 117.132C153.766 121.18 150.439 125.411 149.006 127.021C153.074 126.175 161.159 123.879 160.952 121.456Z" fill="#DF6037"/>
<path d="M119.771 189.988C161.616 174.312 164.335 137.088 160.895 121.182C147.745 135.136 45.9126 133.226 32.1236 121.969C26.4216 168.336 59.39 186.413 79.1995 190.881C94.574 193.706 103.404 193.886 119.771 189.988Z" fill="#FF835C"/>
</g>
<defs>
<clipPath id="clip0_2120_15433">
<rect width="192.857" height="200" fill="white" transform="translate(-0.000976562)"/>
</clipPath>
</defs>
</svg>
