<svg width="128" height="82" viewBox="0 0 128 82" fill="none" xmlns="http://www.w3.org/2000/svg">
<path d="M64.4088 0H63.5371V17.6928H64.4088V0Z" fill="#665C7A"/>
<path d="M73.0559 0.607666H64.4082V6.14617H73.0559V0.607666Z" fill="#FE5016"/>
<path d="M124.625 77.1521H3.36328V82H124.625V77.1521Z" fill="#CCCCCC"/>
<path d="M126.756 35.5098H1.24609V77.1658H126.756V35.5098Z" fill="#DBDBDB"/>
<path d="M105.031 42.8025H96.4805V54.501H105.031V42.8025Z" fill="#F0F0F0"/>
<path d="M103.939 43.9072H97.5742V53.4097H103.939V43.9072Z" fill="#74AABE"/>
<path d="M120.473 42.8025H111.908V54.501H120.473V42.8025Z" fill="#F0F0F0"/>
<path d="M119.38 43.9072H113.016V53.4097H119.38V43.9072Z" fill="#74AABE"/>
<path d="M105.031 61.3652H96.4805V73.0637H105.031V61.3652Z" fill="#F0F0F0"/>
<path d="M103.939 62.4565H97.5742V71.9589H103.939V62.4565Z" fill="#74AABE"/>
<path d="M120.473 61.3652H111.908V73.0637H120.473V61.3652Z" fill="#F0F0F0"/>
<path d="M119.38 62.4565H113.016V71.9589H119.38V62.4565Z" fill="#74AABE"/>
<g style="mix-blend-mode:multiply">
<path d="M120.473 42.8025V45.2748H114.62V54.5148H111.908V42.8025H120.473Z" fill="#BEC7C8"/>
</g>
<g style="mix-blend-mode:multiply">
<path d="M105.045 42.8025V45.2748H99.1786V54.5148H96.4805V42.8025H105.045Z" fill="#BEC7C8"/>
</g>
<g style="mix-blend-mode:multiply">
<path d="M120.473 61.3652V63.8375H114.62V73.0637H111.908V61.3652H120.473Z" fill="#BEC7C8"/>
</g>
<g style="mix-blend-mode:multiply">
<path d="M105.045 61.3652V63.8375H99.1786V73.0637H96.4805V61.3652H105.045Z" fill="#BEC7C8"/>
</g>
<path d="M15.8284 42.8025H7.26367V54.501H15.8284V42.8025Z" fill="#F0F0F0"/>
<path d="M88.6911 77.1245H39.5859V82H88.6911V77.1245Z" fill="#DEDEDE"/>
<path d="M14.7221 43.9072H8.35742V53.4097H14.7221V43.9072Z" fill="#74AABE"/>
<path d="M31.2561 42.8025H22.6914V54.501H31.2561V42.8025Z" fill="#F0F0F0"/>
<path d="M30.1499 43.9072H23.7852V53.4097H30.1499V43.9072Z" fill="#74AABE"/>
<path d="M15.8284 61.3652H7.26367V73.0637H15.8284V61.3652Z" fill="#F0F0F0"/>
<path d="M14.7221 62.4565H8.35742V71.9589H14.7221V62.4565Z" fill="#74AABE"/>
<path d="M31.2561 61.3652H22.6914V73.0637H31.2561V61.3652Z" fill="#F0F0F0"/>
<path d="M30.1499 62.4565H23.7852V71.9589H30.1499V62.4565Z" fill="#74AABE"/>
<g style="mix-blend-mode:multiply">
<path d="M31.2561 42.8025V45.2748H25.3895V54.5148H22.6914V42.8025H31.2561Z" fill="#BEC7C8"/>
</g>
<g style="mix-blend-mode:multiply">
<path d="M15.8145 42.8025V45.2748H9.96176V54.5148H7.26367V42.8025H15.8145Z" fill="#BEC7C8"/>
</g>
<g style="mix-blend-mode:multiply">
<path d="M31.2561 61.3652V63.8375H25.3895V73.0637H22.6914V61.3652H31.2561Z" fill="#BEC7C8"/>
</g>
<g style="mix-blend-mode:multiply">
<path d="M15.8145 61.3652V63.8375H9.96176V73.0637H7.26367V61.3652H15.8145Z" fill="#BEC7C8"/>
</g>
<path d="M89.8389 30.4963V77.166H38.1602V30.4963H44.6771L63.9926 13.0383L83.322 30.4963H89.8389Z" fill="#F2F2F2"/>
<path d="M83.8208 36.5458V77.2074H44.1797V36.5458H46.9885L63.9933 21.1733L81.012 36.5458H83.8208Z" fill="#D9DADB"/>
<g style="mix-blend-mode:multiply" opacity="0.27">
<path d="M83.8205 36.5458V77.2074H82.2017V38.1755H79.3791L62.3604 22.8169L62.2773 22.7202L63.9931 21.1733L81.0118 36.5458H83.8205Z" fill="#BEC7C8"/>
</g>
<path d="M73.7335 41.8494H54.252V48.9762H73.7335V41.8494Z" fill="#FFE840"/>
<path d="M57.8769 46.7389C57.8769 47.0842 57.7939 47.3742 57.614 47.6228C57.4895 47.7886 57.3235 47.9129 57.1021 47.9681C56.9776 48.0095 56.8392 48.0234 56.687 48.0234C56.3964 48.0234 56.1474 47.9543 55.9675 47.8024C55.8015 47.6919 55.677 47.5261 55.5801 47.319C55.4832 47.1118 55.4279 46.877 55.4141 46.6146L56.1197 46.5593C56.1474 46.8494 56.2304 47.0566 56.3549 47.1809C56.438 47.2776 56.5486 47.319 56.6593 47.319C56.8254 47.319 56.9499 47.2361 57.0468 47.0842C57.1021 47.0013 57.1159 46.9046 57.1159 46.7527C57.1159 46.5455 57.0191 46.3384 56.8392 46.145C56.687 46.0069 56.4656 45.7997 56.1751 45.5096C55.926 45.2748 55.76 45.0538 55.6493 44.8605C55.5386 44.6533 55.4832 44.4185 55.4832 44.1699C55.4832 43.7141 55.6354 43.3826 55.9398 43.1478C56.1197 43.0097 56.3549 42.9407 56.6317 42.9407C56.9084 42.9407 57.1298 42.9959 57.3096 43.1202C57.4618 43.2169 57.5725 43.3412 57.6694 43.507C57.7662 43.6727 57.8216 43.8661 57.8354 44.0732L57.1159 44.1975C57.0883 43.9904 57.0329 43.8384 56.9361 43.728C56.8669 43.6451 56.77 43.6036 56.6455 43.6036C56.5071 43.6036 56.3964 43.6589 56.3273 43.7832C56.2719 43.8798 56.2442 44.0042 56.2442 44.1423C56.2442 44.3633 56.3411 44.5981 56.5348 44.8329C56.604 44.9295 56.7147 45.0262 56.8669 45.1506C57.0468 45.2887 57.1574 45.3992 57.2128 45.4544C57.3927 45.634 57.5449 45.8135 57.6417 45.993C57.6832 46.0759 57.7247 46.1588 57.7524 46.2279C57.8216 46.4074 57.8631 46.5593 57.8631 46.6975L57.8769 46.7389Z" fill="#665C7A"/>
<path d="M59.6763 48.0372C59.3442 48.0372 59.0675 47.9267 58.8322 47.6919C58.597 47.4571 58.4863 47.1808 58.4863 46.8632V44.1561C58.4863 43.8246 58.597 43.5484 58.8322 43.3136C59.0675 43.0788 59.3442 42.9683 59.6763 42.9683C60.0083 42.9683 60.2851 43.0788 60.5203 43.3136C60.7417 43.5484 60.8662 43.8246 60.8662 44.1561V44.7224H60.0913V44.1423C60.0913 44.018 60.0498 43.9213 59.9668 43.8384C59.8838 43.7555 59.7869 43.7141 59.6624 43.7141C59.5379 43.7141 59.441 43.7555 59.358 43.8384C59.275 43.9213 59.2335 44.018 59.2335 44.1423V46.8493C59.2335 46.9598 59.275 47.0703 59.358 47.1532C59.441 47.2361 59.5379 47.2775 59.6624 47.2775C59.7869 47.2775 59.8838 47.2361 59.9668 47.1532C60.0498 47.0703 60.0913 46.9736 60.0913 46.8493V46.1588H60.8662V46.8493C60.8662 47.1808 60.7555 47.4571 60.5203 47.6919C60.2851 47.9267 60.0083 48.0372 59.6901 48.0372H59.6763Z" fill="#665C7A"/>
<path d="M62.2218 45.8689V47.9682H61.4746V43.0237H62.2218V45.123H63.1211V43.0237H63.8683V47.9682H63.1211V45.8689H62.2218Z" fill="#665C7A"/>
<path d="M65.7075 42.9546C66.0396 42.9546 66.3163 43.0651 66.5515 43.2999C66.7867 43.5347 66.8974 43.8109 66.8974 44.1424V46.8495C66.8974 47.181 66.7867 47.4572 66.5515 47.692C66.3163 47.9268 66.0396 48.0373 65.7075 48.0373C65.3754 48.0373 65.0987 47.9268 64.8635 47.692C64.6283 47.4572 64.5176 47.181 64.5176 46.8495V44.1424C64.5176 43.8109 64.6283 43.5347 64.8635 43.2999C65.0987 43.0651 65.3754 42.9546 65.6937 42.9546H65.7075ZM66.1088 44.1286C66.1088 44.0043 66.0672 43.9076 65.9842 43.8247C65.9012 43.7419 65.8044 43.7004 65.6798 43.7004C65.5553 43.7004 65.4585 43.7419 65.3754 43.8247C65.2924 43.9076 65.2509 44.0043 65.2509 44.1286V46.8357C65.2509 46.96 65.2924 47.0567 65.3754 47.1396C65.4585 47.2224 65.5553 47.2639 65.6798 47.2639C65.8044 47.2639 65.9012 47.2224 65.9842 47.1396C66.0672 47.0567 66.1088 46.96 66.1088 46.8357V44.1286Z" fill="#665C7A"/>
<path d="M68.7251 42.9546C69.0572 42.9546 69.3339 43.0651 69.5691 43.2999C69.8043 43.5347 69.915 43.8109 69.915 44.1424V46.8495C69.915 47.181 69.8043 47.4572 69.5691 47.692C69.3339 47.9268 69.0572 48.0373 68.7251 48.0373C68.393 48.0373 68.1163 47.9268 67.8811 47.692C67.6458 47.4572 67.5352 47.181 67.5352 46.8495V44.1424C67.5352 43.8109 67.6458 43.5347 67.8811 43.2999C68.1163 43.0651 68.393 42.9546 68.7112 42.9546H68.7251ZM69.1263 44.1286C69.1263 44.0043 69.0848 43.9076 69.0018 43.8247C68.9188 43.7419 68.8219 43.7004 68.6974 43.7004C68.5729 43.7004 68.476 43.7419 68.393 43.8247C68.31 43.9076 68.2685 44.0043 68.2685 44.1286V46.8357C68.2685 46.96 68.31 47.0567 68.393 47.1396C68.476 47.2224 68.5729 47.2639 68.6974 47.2639C68.8219 47.2639 68.9188 47.2224 69.0018 47.1396C69.0848 47.0567 69.1263 46.96 69.1263 46.8357V44.1286Z" fill="#665C7A"/>
<path d="M72.5984 47.9682H70.5645V43.0237H71.3116V47.2224H72.5984V47.9682Z" fill="#665C7A"/>
<path d="M73.6371 59.3489H54.377V77.2074H73.6371V59.3489Z" fill="#665C7A"/>
<path d="M63.2882 60.8542H55.8027V77.152H63.2882V60.8542Z" fill="#534B64"/>
<path d="M72.1847 60.8542H64.6992V77.152H72.1847V60.8542Z" fill="#534B64"/>
<path d="M76.3343 77.1521H51.6641V78.7681H76.3343V77.1521Z" fill="#E5E5E5"/>
<path d="M78.0648 78.7681H49.9355V80.384H78.0648V78.7681Z" fill="#F2F2F2"/>
<path d="M79.7794 80.384H48.2188V82H79.7794V80.384Z" fill="white"/>
<path d="M63.9938 37.6645C61.019 37.6645 58.5977 35.2474 58.5977 32.2779C58.5977 29.3084 61.019 26.8914 63.9938 26.8914C66.9686 26.8914 69.39 29.3084 69.39 32.2779C69.39 35.2474 66.9686 37.6645 63.9938 37.6645Z" fill="#64C3CA"/>
<path d="M68.4353 32.2779C68.4353 34.7226 66.4429 36.6976 64.0077 36.6976C61.5725 36.6976 59.5801 34.7226 59.5801 32.2779C59.5801 29.8332 61.5587 27.8582 64.0077 27.8582C66.4567 27.8582 68.4353 29.8332 68.4353 32.2779Z" fill="white"/>
<path d="M64.1867 32.6645C64.0622 32.7888 63.8546 32.7888 63.7301 32.6645C63.6056 32.5402 63.6056 32.333 63.7301 32.2087L66.3175 29.6259C66.442 29.5016 66.6496 29.5016 66.7741 29.6259C66.8986 29.7502 66.8986 29.9574 66.7741 30.0818L64.1867 32.6645Z" fill="#4D4D4D"/>
<path d="M64.1044 32.1811C64.2566 32.2778 64.312 32.4712 64.229 32.6231C64.1459 32.775 63.9384 32.8303 63.7862 32.7474L61.9736 31.6977C61.8214 31.6148 61.7661 31.4077 61.8491 31.2558C61.946 31.1038 62.1397 31.0486 62.2919 31.1453L64.1044 32.195V32.1811Z" fill="#4D4D4D"/>
<path d="M66.6781 35.1231L66.5121 35.275L64.0354 32.6508C64.0354 32.6508 63.98 32.6508 63.9523 32.6508C63.814 32.6508 63.6895 32.5403 63.6895 32.4022C63.6895 32.264 63.8001 32.1536 63.9523 32.1536C64.1045 32.1536 64.2014 32.264 64.2014 32.4022C64.2014 32.4298 64.2014 32.4712 64.1876 32.4989L66.6643 35.1231H66.6781Z" fill="#F57932"/>
<path d="M38.1745 33.7144H0V35.5237H38.1745V33.7144Z" fill="#E9E8E8"/>
<path d="M128 33.7144H89.8398V35.5237H128V33.7144Z" fill="#E9E8E8"/>
<g style="mix-blend-mode:multiply" opacity="0.58">
<path d="M38.1615 35.5098H1.24609V37.6644H38.1615V35.5098Z" fill="#BEC7C8"/>
</g>
<g style="mix-blend-mode:multiply" opacity="0.58">
<path d="M126.755 35.5098H89.8398V37.6644H126.755V35.5098Z" fill="#BEC7C8"/>
</g>
<path opacity="0.26" d="M73.6653 41.8218L54.1699 48.9624V41.8218H73.6653Z" fill="white"/>
<g style="mix-blend-mode:multiply" opacity="0.53">
<path d="M39.5728 77.1659V82L3.36305 81.9862V77.1521H1.24609V67.3458L7.2649 61.3515L14.1001 54.5148L15.8158 52.8021L22.6924 45.9515L23.7855 44.8604L24.7402 43.9073L25.8333 42.8163L30.9942 37.6783L33.1527 35.5099L34.9653 33.7144H38.1753L38.1615 77.1659H39.5728Z" fill="#BEC7C8"/>
</g>
</svg>
