<svg width="91" height="88" viewBox="0 0 91 88" fill="none" xmlns="http://www.w3.org/2000/svg">
<path d="M82.0105 63.5H44.28C40.8735 63.5 38.1074 59.6813 38.1074 55.0002C38.1074 52.6734 38.7887 50.4971 40.0287 48.8684C41.1733 47.3628 42.6858 46.5142 44.2664 46.5142H81.9969C81.411 46.9522 80.8659 47.486 80.389 48.1156C79.04 49.8812 78.2089 52.3175 78.2089 55.0002C78.2089 58.6547 79.735 61.8439 81.9969 63.5H82.0105Z" fill="#EBEBEB"/>
<path d="M51.2692 12.1728C49.3343 8.57305 45.9687 5.73979 41.6901 4.6585C37.4252 3.56352 33.1194 4.42583 29.6992 6.65685C31.6341 10.2566 34.9997 13.0898 39.2647 14.1848C43.5297 15.2798 47.8355 14.4175 51.2556 12.1865L51.2692 12.1728Z" fill="#A3BD12"/>
<path d="M32.8735 33.6892C35.8031 41.4635 43.4064 45.9666 50.7509 44.7484C58.0817 45.9803 65.7122 41.4635 68.6418 33.6892C71.953 24.9293 68.0832 15.3072 59.9893 12.2139C56.9507 11.0505 53.7486 10.982 50.7509 11.817C47.7667 10.982 44.5646 11.0505 41.526 12.2139C33.4185 15.2935 29.5624 24.9156 32.8735 33.6892Z" fill="#FE5016"/>
<g style="mix-blend-mode:multiply" opacity="0.93">
<path d="M32.8735 33.6892C35.8031 41.4635 43.4064 45.9666 50.7509 44.7484C56.3103 45.6929 62.0605 43.2976 65.794 38.685C64.2951 39.7663 62.7281 40.6286 61.1203 41.0803C57.1278 42.0247 51.4185 39.3694 47.9984 37.8364C43.6381 35.7286 38.3103 37.0699 36.2119 31.7319C34.5086 27.5162 34.822 22.1782 37.5472 18.3184C39.2641 15.8821 40.4768 15.6083 42.5889 13.5416C43.2156 12.9256 45.7637 11.9538 45.3549 11.3105C44.0741 11.4337 42.7932 11.7212 41.526 12.2139C33.4185 15.2935 29.5624 24.9157 32.8735 33.6892Z" fill="#E1BFA3"/>
</g>
<path d="M47.3186 2.52332C49.1309 4.80908 51.7744 8.57308 49.9348 11.5158C48.9401 13.0899 50.5071 14.048 51.4882 12.4739C54.118 8.28564 52.0332 3.78254 49.2672 0.278615C48.4087 -0.816362 46.5965 1.60627 47.3186 2.537V2.52332Z" fill="#604B3B"/>
<path opacity="0.25" d="M59.5542 23.5196C61.1894 26.9414 63.9282 29.0218 65.686 28.1869C67.4301 27.3383 67.5255 23.8891 65.8903 20.4673C64.2552 17.0455 61.5164 14.965 59.7586 15.8C58.0145 16.6486 57.9191 20.0978 59.5542 23.5196Z" fill="white"/>
<path d="M85.43 63.4999L85.5527 65.9772C85.4028 66.0046 85.2801 66.0046 85.1303 66.0046H44.2658C42.8214 66.0046 41.4588 65.5529 40.2461 64.7591C39.7147 64.4032 39.2241 63.9789 38.7609 63.5135C36.8396 61.4878 35.5996 58.4219 35.5996 55.0138C35.5996 52.1395 36.458 49.4294 38.0387 47.3626C38.2567 47.0615 38.5156 46.7741 38.7609 46.5277C39.2241 46.0349 39.7147 45.6107 40.2597 45.2822C41.4724 44.4746 42.8623 44.0366 44.2658 44.0366H85.1303C85.2801 44.0366 85.4028 44.0366 85.5527 44.064L85.43 46.5414H44.2658C42.6715 46.5414 41.1727 47.3763 40.0281 48.8956C38.7881 50.5381 38.1068 52.7143 38.1068 55.0275C38.1068 59.7222 40.8729 63.5272 44.2794 63.5272H85.4437L85.43 63.4999Z" fill="#41B4AF"/>
<path d="M40.2593 64.7454C41.4584 65.5393 42.8346 65.991 44.279 65.991H22.6681C17.8853 65.991 13.9883 61.0499 13.9883 54.9864C13.9883 48.923 17.8853 43.9956 22.6681 43.9956H44.279C42.8755 43.9956 41.4856 44.4336 40.2729 45.2411C39.7415 45.5833 39.2373 46.0076 38.774 46.4867C38.5288 46.733 38.2699 47.0205 38.0519 47.3216C36.4712 49.3884 35.6128 52.0984 35.6128 54.9728C35.6128 58.3809 36.8391 61.4468 38.774 63.4725C39.2373 63.9516 39.7279 64.3622 40.2593 64.7181V64.7454Z" fill="#389B96"/>
<path d="M87.2964 85.4951H49.7703C46.3637 85.4951 43.5977 81.6764 43.5977 77.009C43.5977 74.6822 44.279 72.5059 45.5326 70.8635C46.6771 69.3579 48.176 68.5093 49.7703 68.5093H87.2827C86.6832 68.9473 86.1518 69.4811 85.6749 70.1107C84.3259 71.89 83.4947 74.3126 83.4947 77.009C83.4947 80.6635 85.0208 83.8389 87.2964 85.4951Z" fill="#EBEBEB"/>
<path d="M90.7996 85.4952L90.7724 88H49.7716C48.3273 88 46.9647 87.5483 45.7519 86.7544C45.2342 86.3986 44.73 85.9743 44.2667 85.5089C42.3318 83.4969 41.1055 80.431 41.1055 77.0228C41.1055 74.1622 41.9639 71.4384 43.5309 69.358C43.7489 69.0569 44.0078 68.7831 44.2531 68.5231C44.7164 68.0303 45.2205 67.606 45.7519 67.2775C46.9783 66.47 48.3545 66.032 49.758 66.032H90.7588L90.786 68.5367H49.758C48.1638 68.5367 46.6649 69.3717 45.5203 70.891C44.2803 72.5471 43.5854 74.7234 43.5854 77.0365C43.5854 81.7175 46.3515 85.5226 49.758 85.5226H90.786L90.7996 85.4952Z" fill="#665C7A"/>
<path d="M45.7511 86.7408C46.9638 87.5347 48.3265 87.9863 49.7708 87.9863H9.47861C4.69587 87.9863 0.798828 83.0589 0.798828 76.9955C0.798828 70.9321 4.69587 65.991 9.47861 65.991H49.7708C48.3673 65.991 46.9775 66.429 45.7648 67.2365C45.2333 67.5787 44.7156 68.003 44.2659 68.4821C44.0206 68.7421 43.7617 69.0159 43.5437 69.317C41.9767 71.3974 41.1183 74.1212 41.1183 76.9818C41.1183 80.3899 42.3446 83.4559 44.2795 85.4679C44.7428 85.9469 45.2333 86.3575 45.7648 86.7134L45.7511 86.7408Z" fill="#534B64"/>
<g style="mix-blend-mode:multiply">
<path d="M34.6057 63.5H30.7632C29.1826 61.1047 28.2969 58.1209 28.2969 55.0002C28.2969 51.8795 29.1689 48.882 30.7496 46.5142H34.5921C33.0115 48.8957 32.1258 51.8795 32.1258 55.0002C32.1258 58.1209 33.0115 61.1184 34.6057 63.5Z" fill="#D3D5DA"/>
</g>
<g style="mix-blend-mode:multiply">
<path d="M27.4923 63.5H21.197C21.197 63.5 21.197 63.4726 21.1698 63.459C19.0441 61.9807 17.6406 59.2022 17.6406 55.0002C17.6406 50.7983 19.3166 48.184 21.1561 46.5415C21.1561 46.5415 21.1561 46.5142 21.1834 46.5005H27.4786C25.8844 48.8821 25.0123 51.8659 25.0123 54.9866C25.0123 58.1072 25.898 61.1047 27.4923 63.4863V63.5Z" fill="#D3D5DA"/>
</g>
<g style="mix-blend-mode:multiply">
<path d="M20.5422 85.4951H10.8132C7.44754 85.4951 4.62695 81.6079 4.62695 77.009C4.62695 72.4101 7.44754 68.5093 10.8132 68.5093H20.5285C18.9479 70.8909 18.0759 73.902 18.0759 77.009C18.0759 80.116 18.9615 83.1272 20.5422 85.4951Z" fill="#D3D5DA"/>
</g>
<g style="mix-blend-mode:multiply">
<path d="M38.1069 85.4951H29.3999C27.8193 83.1272 26.9336 80.1297 26.9336 77.009C26.9336 73.8883 27.8057 70.8909 29.3863 68.5093H38.0933C36.5127 70.8909 35.6406 73.902 35.6406 77.009C35.6406 80.116 36.5263 83.1272 38.1069 85.4951Z" fill="#D3D5DA"/>
</g>
<g style="mix-blend-mode:multiply">
<path d="M82.0242 46.5142C81.4383 46.9522 80.8933 47.486 80.4164 48.1156C79.299 49.5938 78.5223 51.5237 78.318 53.6863L68.5481 63.5H44.3074C40.9009 63.5 38.1348 59.6813 38.1348 55.0002C38.1348 52.6734 38.8161 50.4971 40.0697 48.8684C41.2143 47.3628 42.7131 46.5142 44.3074 46.5142H82.0242Z" fill="#D3D5DA"/>
</g>
<g style="mix-blend-mode:multiply">
<path d="M87.3238 68.5093C86.7242 68.9473 86.1928 69.4811 85.7159 70.1107C84.5849 71.6163 83.8082 73.5735 83.6039 75.7909L73.9294 85.5088H49.8113C46.4048 85.5088 43.6387 81.6901 43.6387 77.0227C43.6387 74.6959 44.32 72.5196 45.5736 70.8772C46.7182 69.3579 48.217 68.523 49.8113 68.523H87.3238V68.5093Z" fill="#D3D5DA"/>
</g>
</svg>
