<svg width="128" height="88" viewBox="0 0 128 88" fill="none" xmlns="http://www.w3.org/2000/svg">
<path d="M124.705 0H3.29492V88H124.705V0Z" fill="#DAC382"/>
<path d="M117.514 7.14502H10.4863V80.8552H117.514V7.14502Z" fill="#3A9C9B"/>
<path opacity="0.08" d="M117.514 7.12695L10.4863 80.8552V7.12695H117.514Z" fill="white"/>
<path d="M128 84.3098H0V87.9818H128V84.3098Z" fill="#FEE398"/>
<path d="M40.2872 82.3022C40.2872 83.3875 39.5226 84.2738 38.5577 84.2738H27.7803C26.8336 84.2738 26.0508 83.3875 26.0508 82.3022C26.0508 81.2169 26.8154 80.3306 27.7803 80.3306H38.5577C39.5043 80.3306 40.2872 81.2169 40.2872 82.3022Z" fill="#F2F2F2"/>
<g style="mix-blend-mode:multiply" opacity="0.52">
<path d="M117.514 7.12695V10.7085H14.2912V80.8371H10.4863V7.12695H117.514Z" fill="#B3B3B3"/>
</g>
<path d="M61.0052 75.7903H44.2383V82.7181H61.0052V75.7903Z" fill="#88D2E4"/>
<path d="M61.0052 82.7H44.2383V84.2556H61.0052V82.7Z" fill="#7B7982"/>
<path d="M39.4874 49.8243C39.0141 50.3127 38.4679 50.7649 37.8672 51.1267C37.2664 51.5065 36.6474 51.8141 35.992 52.0673C35.3366 52.3205 34.6813 52.5014 33.9895 52.628C33.3159 52.7546 32.6605 52.827 32.0233 52.827C31.3315 52.827 30.6944 52.7547 30.0936 52.5919C29.4928 52.4291 28.9649 52.1939 28.5098 51.8683C28.0546 51.5427 27.6905 51.1267 27.4357 50.6383C27.1808 50.1499 27.0352 49.553 27.0352 48.8656C27.0352 48.2687 27.1444 47.6899 27.3628 47.1473C27.5813 46.6046 27.909 46.1162 28.3459 45.6821C28.8011 45.2661 29.3654 44.9224 30.0572 44.6511C30.749 44.3978 31.5864 44.2531 32.5695 44.2169C31.9323 44.2169 31.368 44.1265 30.8946 43.9456C30.4213 43.7647 30.0208 43.5115 29.7113 43.204C29.4018 42.8965 29.1651 42.5347 29.0013 42.1006C28.8374 41.6846 28.7646 41.2324 28.7646 40.7801C28.7646 40.346 28.8375 39.9481 28.9831 39.5863C29.1288 39.2245 29.3472 38.8989 29.6021 38.6095C29.8752 38.3201 30.1846 38.0669 30.5487 37.8498C30.9128 37.6328 31.3133 37.4519 31.732 37.3072C32.1508 37.1625 32.6059 37.0539 33.061 36.9816C33.5344 36.9092 33.9895 36.873 34.4628 36.873C35.1546 36.873 35.8282 36.9454 36.5018 37.0901C37.1572 37.2348 37.7579 37.47 38.2677 37.7594C38.7774 38.0488 39.1962 38.4286 39.5057 38.8809C39.8151 39.3331 39.979 39.8395 39.979 40.4365C39.979 40.6535 39.9061 40.8525 39.7605 41.0515C39.6149 41.2504 39.4328 41.4313 39.2325 41.5941C39.0323 41.7569 38.8139 41.8835 38.5954 41.974C38.3769 42.0644 38.1949 42.1187 38.031 42.1187C37.9036 42.1187 37.849 42.0102 37.849 41.7931C37.849 41.5941 37.8854 41.359 37.94 41.0515C37.9946 40.744 38.1039 40.3641 38.2495 39.9119C38.0857 39.7853 37.849 39.6587 37.5577 39.532C37.2482 39.4054 36.9023 39.2788 36.52 39.1884C36.1377 39.0798 35.719 38.9894 35.2821 38.9351C34.8451 38.8628 34.4082 38.8266 33.9895 38.8266C33.589 38.8266 33.2066 38.8628 32.8608 38.9351C32.4967 39.0075 32.1872 39.116 31.9141 39.2788C31.641 39.4416 31.4226 39.6587 31.2588 39.9119C31.0949 40.1832 31.0221 40.5088 31.0221 40.8887C31.0221 41.1962 31.0767 41.4675 31.2041 41.6846C31.3134 41.9016 31.4772 42.0825 31.6593 42.2453C31.8595 42.39 32.078 42.5166 32.3146 42.6252C32.5695 42.7156 32.8244 42.806 33.0974 42.8784C33.3705 42.9507 33.6254 43.0231 33.8803 43.0955C34.1352 43.1678 34.3718 43.2402 34.5903 43.3487C34.8087 43.4391 34.9907 43.5477 35.1364 43.6924C35.282 43.819 35.3913 43.9999 35.4277 44.1988C35.4277 44.3255 35.4459 44.4521 35.4641 44.5787C35.4641 44.7053 35.4641 44.8319 35.4641 44.9586C35.4641 45.3203 35.4095 45.5736 35.2821 45.7364C35.1546 45.8992 34.918 45.9715 34.5539 45.9715C34.4082 45.9715 34.208 45.9715 33.9713 45.9534C33.7346 45.9534 33.5161 45.9353 33.3159 45.9353C32.8425 45.9353 32.3874 45.9896 31.9505 46.1162C31.4954 46.2247 31.0949 46.4056 30.749 46.6408C30.4031 46.8759 30.1118 47.1473 29.8934 47.4909C29.6749 47.8346 29.5656 48.2145 29.5656 48.6667C29.5656 49.1189 29.6203 49.4445 29.7477 49.7339C29.8751 50.0233 30.039 50.2404 30.2574 50.4212C30.4759 50.6021 30.7308 50.7107 31.0221 50.8011C31.3134 50.8735 31.641 50.9096 31.9687 50.9096C32.3874 50.9096 32.8244 50.8735 33.2977 50.783C33.7528 50.7107 34.2261 50.6021 34.6813 50.4574C35.1364 50.3127 35.5916 50.1499 36.0285 49.969C36.4654 49.7701 36.8659 49.5711 37.2482 49.354C37.6305 49.137 37.9582 48.9018 38.2313 48.6667C38.5226 48.4315 38.741 48.1783 38.8867 47.9431L39.5057 49.8786L39.4874 49.8243Z" fill="#F2F2F2"/>
<path d="M48.9723 50.1498C48.5535 50.4935 48.1348 50.801 47.7343 51.0543C47.5705 51.1628 47.3884 51.2713 47.1882 51.3798C47.0061 51.4884 46.8059 51.5788 46.642 51.6693C46.46 51.7597 46.2779 51.814 46.114 51.8682C45.9502 51.9225 45.7864 51.9406 45.6407 51.9406C45.5497 51.9406 45.4223 51.9225 45.2585 51.8863C45.0946 51.8501 44.9125 51.7778 44.7123 51.6512C44.512 51.5426 44.33 51.3618 44.1297 51.1628C43.9294 50.9457 43.7656 50.6563 43.62 50.2945C43.4015 50.5116 43.1648 50.7287 42.9282 50.9276C42.6915 51.1266 42.4366 51.3075 42.1636 51.4522C41.9087 51.5969 41.6356 51.7235 41.3625 51.814C41.0895 51.9044 40.8164 51.9406 40.5615 51.9406C40.1792 51.9406 39.8515 51.8682 39.5784 51.7054C39.3053 51.5426 39.0687 51.3437 38.8867 51.0723C38.7046 50.801 38.559 50.5116 38.4679 50.186C38.3769 49.8604 38.3223 49.5167 38.3223 49.155C38.3223 48.7751 38.3769 48.3953 38.4679 47.9973C38.559 47.6175 38.7046 47.2376 38.8867 46.8758C39.0687 46.5141 39.269 46.1342 39.5056 45.7363C39.7241 45.3383 40.0336 44.9766 40.3977 44.651C40.7618 44.3254 41.1441 44.0721 41.5446 43.9093C41.9451 43.7465 42.3638 43.638 42.8008 43.6018C42.8008 42.8421 42.8918 42.1729 43.0374 41.594C43.1831 41.0152 43.3469 40.4002 43.5107 39.7309C43.6746 39.0617 43.893 38.4466 44.1479 37.8859C44.4028 37.3252 44.6941 36.8368 45.0036 36.4388C45.313 36.0228 45.6589 35.7153 46.0048 35.4802C46.3507 35.245 46.733 35.1365 47.0971 35.1365C47.3702 35.1365 47.6069 35.2088 47.8072 35.3535C48.0074 35.4982 48.153 35.6791 48.2805 35.9324C48.4079 36.1675 48.4807 36.4388 48.5354 36.7644C48.59 37.0719 48.6082 37.3975 48.6082 37.7412C48.6082 37.9402 48.6082 38.1572 48.6082 38.3743C48.6082 39.2064 48.4625 39.9842 48.2258 40.7077C47.9892 41.4312 47.7343 42.1367 47.4976 42.8421C47.261 43.5476 46.9697 44.253 46.642 44.9404C46.1323 45.9895 45.8046 46.713 45.6589 47.0929C45.6225 47.1833 45.6043 47.2738 45.5679 47.4004C45.5315 47.527 45.5133 47.6536 45.4769 47.7803C45.4587 47.925 45.4223 48.0697 45.4041 48.1963C45.3859 48.341 45.3677 48.4857 45.3677 48.6123C45.3677 48.7751 45.3677 48.9379 45.4041 49.1007C45.4223 49.2635 45.4587 49.3901 45.4951 49.5167C45.5315 49.6434 45.6043 49.7338 45.6771 49.8062C45.75 49.8785 45.8592 49.9147 45.9684 49.9147C46.0777 49.9147 46.2051 49.8966 46.3326 49.8423C46.46 49.8061 46.6056 49.7338 46.7512 49.6614C46.8969 49.5891 47.0425 49.4987 47.2064 49.4082C47.352 49.3178 47.4977 49.2092 47.6433 49.1188C47.971 48.8836 48.2987 48.6123 48.6628 48.3229L48.9359 50.1498H48.9723ZM42.8554 44.9766C42.4731 45.1574 42.1272 45.4107 41.8177 45.7182C41.5082 46.0257 41.2715 46.4417 41.053 46.9482C40.8528 47.4547 40.6889 47.8888 40.5979 48.2506C40.4887 48.6123 40.4341 48.9379 40.4341 49.2454C40.4341 49.3359 40.4341 49.4263 40.4705 49.5167C40.4887 49.6072 40.5433 49.6976 40.6161 49.77C40.6889 49.8423 40.78 49.8966 40.9074 49.9509C41.0348 49.987 41.1987 50.0232 41.4172 50.0232C41.5264 50.0232 41.6356 50.0051 41.7267 49.9509C41.8359 49.8966 41.9269 49.8423 42.0179 49.77C42.1089 49.6976 42.2 49.6072 42.291 49.5167C42.382 49.4263 42.4549 49.3178 42.5277 49.2092C42.6915 48.9741 42.8372 48.7028 42.9828 48.3953C42.9828 48.3048 42.9464 48.1782 42.9464 47.9973C42.9464 47.8164 42.9282 47.5451 42.9282 47.1833C42.9282 46.8216 42.9282 46.5141 42.9282 46.2789C42.9282 46.0438 42.9282 45.8267 42.9282 45.6277C42.9282 45.4288 42.9282 45.266 42.9282 45.1574C42.9282 45.0308 42.9282 44.9766 42.9282 44.9766H42.8554ZM47.0061 39.0074C47.0425 38.5914 47.0607 38.2658 47.0607 38.0306C47.0607 37.7231 47.0243 37.488 46.9697 37.3794C46.9151 37.2528 46.8241 37.1985 46.7331 37.1985C46.5328 37.1985 46.3689 37.3252 46.2051 37.5603C46.0595 37.7955 45.932 38.103 45.841 38.4828C45.75 38.8627 45.6408 39.2606 45.5315 39.6947C45.4223 40.1289 45.3313 40.563 45.2948 40.979C45.2402 41.395 45.2038 41.7749 45.1674 42.1186C45.131 42.4623 45.1128 42.6974 45.0946 42.8421C45.0764 43.1315 45.04 43.4029 45.0218 43.6742C45.0218 43.9455 45.0035 44.1807 44.9853 44.4158C44.9853 44.6329 44.9853 44.8318 44.9853 44.9946V45.4649C45.313 44.6871 45.6043 43.9093 45.8956 43.1315C46.0048 42.8059 46.1141 42.4623 46.2415 42.1005C46.3507 41.7387 46.4599 41.3951 46.5692 41.0333C46.6784 40.6896 46.7695 40.3278 46.8423 39.9842C46.9151 39.6405 46.9697 39.3149 47.0061 39.0074Z" fill="#F2F2F2"/>
<path d="M55.0891 43.8188C55.0891 43.9816 55.0891 44.1987 55.0891 44.47C55.0891 44.7413 55.0345 45.0308 54.9799 45.3563C54.9253 45.6819 54.8524 46.0618 54.7614 46.514C54.6704 46.9662 54.5976 47.3461 54.5429 47.6355C54.4883 47.943 54.4337 48.1962 54.3973 48.4133C54.3609 48.6303 54.3427 48.7931 54.3427 48.9017C54.3427 49.0645 54.3427 49.2092 54.3427 49.3539C54.3427 49.4986 54.3609 49.6071 54.3973 49.7156C54.4155 49.8242 54.4701 49.8965 54.5065 49.9508C54.5612 50.0051 54.634 50.0412 54.7432 50.0412C54.8707 50.0412 55.0345 50.0051 55.2165 49.9508C55.3986 49.8784 55.5989 49.8061 55.8173 49.6976C56.0176 49.589 56.236 49.4624 56.4545 49.3358C56.673 49.1911 56.8732 49.0464 57.0735 48.9017C57.2737 48.757 57.4558 48.5942 57.6196 48.4495C57.7834 48.3047 57.9109 48.16 58.002 48.0334C58.002 48.2324 58.002 48.3952 58.002 48.558C58.002 48.7208 58.002 48.8655 58.002 49.0102C58.002 49.1549 58.002 49.2996 58.002 49.4624C58.002 49.6071 58.002 49.788 58.002 49.9689C57.8745 50.0955 57.7107 50.2221 57.5286 50.3668C57.3465 50.5115 57.1281 50.6562 56.8914 50.8009C56.6547 50.9456 56.4181 51.0904 56.145 51.217C55.8901 51.3436 55.6171 51.4702 55.3622 51.5607C55.1073 51.6692 54.8343 51.7415 54.5794 51.7958C54.3245 51.8501 54.0878 51.8862 53.8876 51.8862C53.6873 51.8862 53.4871 51.8501 53.3232 51.7596C53.1594 51.6692 53.0319 51.5607 52.9227 51.3979C52.8135 51.2351 52.7225 51.0542 52.6314 50.8371C52.5586 50.6201 52.4858 50.3849 52.4311 50.1136C52.2127 50.3849 51.9942 50.6382 51.7576 50.8552C51.5209 51.0904 51.2842 51.2712 51.0294 51.4521C50.7927 51.6149 50.5378 51.7415 50.283 51.8501C50.0281 51.9405 49.7914 51.9948 49.5548 51.9948C49.3545 51.9948 49.1725 51.9586 49.0086 51.9043C48.8448 51.832 48.6809 51.7234 48.5535 51.5787C48.4261 51.434 48.3168 51.2351 48.244 50.9818C48.1712 50.7286 48.1348 50.4211 48.1348 50.0593C48.1348 49.2996 48.2076 48.7027 48.3168 48.3047C48.4989 47.7078 48.6627 46.8215 48.8083 45.6457C48.8083 45.5553 48.8448 45.4468 48.8812 45.284C48.8994 45.1393 48.954 44.9765 49.0086 44.7956C49.0632 44.6147 49.136 44.4338 49.2089 44.2529C49.2817 44.0721 49.3909 43.9093 49.5001 43.7646C49.6094 43.6198 49.7368 43.4932 49.9007 43.4028C50.0463 43.3124 50.2101 43.2581 50.4104 43.2581C50.7199 43.2581 50.9383 43.3304 51.084 43.4028C51.2114 43.4932 51.2843 43.6018 51.2843 43.7284C51.2297 44.1263 51.175 44.5062 51.1022 44.8679C51.0294 45.2297 50.9747 45.5915 50.9019 45.9713C50.8291 46.3331 50.7563 46.7491 50.6835 47.2014C50.6106 47.6536 50.5379 48.0153 50.4832 48.2867C50.4286 48.558 50.3922 48.775 50.3558 48.9378C50.3194 49.1006 50.3194 49.1911 50.3194 49.1911C50.3194 49.2996 50.3194 49.4081 50.3558 49.4986C50.374 49.589 50.4104 49.6795 50.4468 49.7699C50.4832 49.8423 50.5378 49.9146 50.6106 49.9508C50.6835 50.0051 50.7563 50.0231 50.8473 50.0231C50.9747 50.0231 51.1022 49.987 51.2478 49.9146C51.3753 49.8423 51.5027 49.7518 51.6302 49.6252C51.7576 49.4986 51.8668 49.3539 51.9578 49.1549C52.0489 48.974 52.1217 48.757 52.1763 48.5218L53.1412 43.7465C53.1776 43.6018 53.2868 43.4932 53.4871 43.3847C53.6873 43.2943 53.924 43.24 54.1789 43.24C54.4702 43.24 54.7068 43.2943 54.8707 43.4028C55.0345 43.5113 55.1255 43.6379 55.1255 43.8007L55.0891 43.8188Z" fill="#F2F2F2"/>
<path d="M59.7671 51.9767C59.2209 51.9767 58.7476 51.8862 58.3289 51.6873C57.9102 51.4883 57.5825 51.2169 57.2912 50.8914C57.0181 50.5658 56.7996 50.1678 56.654 49.7337C56.5084 49.2996 56.4355 48.8474 56.4355 48.359C56.4355 48.0153 56.4902 47.6174 56.6176 47.1471C56.7268 46.6768 56.8725 46.2607 56.9999 45.9171C57.1455 45.5553 57.3094 45.2297 57.5096 44.9041C57.7099 44.5785 57.9466 44.3072 58.2197 44.054C58.4927 43.8188 58.784 43.6198 59.1117 43.4751C59.4394 43.3304 59.8035 43.2581 60.204 43.2581C60.5681 43.2581 60.8958 43.3123 61.1871 43.4028C61.4966 43.5113 61.7514 43.6379 61.9699 43.8188C62.1884 43.9997 62.3522 44.2167 62.4797 44.47C62.6071 44.7232 62.6617 44.9765 62.6617 45.2659C62.6617 45.4648 62.6253 45.6638 62.5707 45.8447C62.516 46.0437 62.4068 46.2607 62.243 46.5321C62.0791 46.7853 61.9153 46.9662 61.7696 47.0566C61.6058 47.1471 61.442 47.2013 61.2417 47.2013C60.9504 47.2013 60.7502 47.129 60.6591 46.9843C60.5135 46.7491 60.4771 46.5501 60.5317 46.3874C60.5317 46.2969 60.6045 46.0798 60.6955 45.7362C60.6955 45.6819 60.6955 45.5915 60.6955 45.4287C60.6955 45.284 60.6956 45.1754 60.6591 45.085C60.6227 44.9945 60.5681 44.9403 60.4589 44.9403C60.2222 44.9403 60.0219 44.9945 59.8399 45.1031C59.676 45.2116 59.5304 45.3744 59.403 45.5553C59.2756 45.7362 59.1663 46.0075 59.0571 46.3331C58.9479 46.6768 58.8568 46.9481 58.8022 47.1832C58.7476 47.4184 58.7294 47.6354 58.7112 47.8344C58.7112 48.0334 58.7112 48.2143 58.7112 48.359C58.7112 48.576 58.7294 48.7931 58.7658 49.0102C58.8022 49.2453 58.875 49.4443 59.0025 49.6433C59.1117 49.8241 59.2573 49.9869 59.4394 50.1136C59.6214 50.2402 59.8581 50.2944 60.1494 50.2944C60.4407 50.2944 60.7501 50.204 61.0778 50.0412C61.4055 49.8784 61.7515 49.6433 62.0974 49.39C62.4433 49.1187 62.7709 48.8474 63.0804 48.5218C63.3899 48.2143 63.663 47.9068 63.8814 47.6354L64.4822 48.6484C64.0453 49.2815 63.572 49.8241 63.0622 50.3125C62.8438 50.5296 62.6071 50.7286 62.3522 50.9275C62.0973 51.1265 61.8243 51.3074 61.5512 51.4521C61.2781 51.6149 60.9868 51.7234 60.6773 51.8319C60.3678 51.9224 60.0766 51.9767 59.7489 51.9767H59.7671Z" fill="#F2F2F2"/>
<path d="M72.9121 49.806C72.7847 49.9869 72.6027 50.222 72.366 50.4753C72.1475 50.7285 71.8926 50.9636 71.6014 51.1988C71.3283 51.4339 71.0188 51.6148 70.6911 51.7776C70.3634 51.9404 70.0357 52.0128 69.7262 52.0128C69.3439 52.0128 69.0163 51.8862 68.7432 51.651C68.4883 51.3978 68.2517 51.0541 68.0696 50.5838C67.924 50.7466 67.7601 50.9094 67.5417 51.0722C67.3414 51.235 67.1047 51.3978 66.8681 51.5244C66.6314 51.6691 66.3583 51.7776 66.1034 51.85C65.8304 51.9404 65.5755 51.9766 65.3024 51.9766C65.0293 51.9766 64.7381 51.9223 64.4832 51.7957C64.2283 51.6691 63.9734 51.5244 63.7732 51.3073C63.5729 51.0903 63.4091 50.837 63.2817 50.5295C63.1542 50.222 63.0996 49.8783 63.0996 49.4804C63.0996 49.0463 63.1542 48.5941 63.2817 48.1419C63.4091 47.6897 63.5911 47.1832 63.8642 46.6586C64.1191 46.116 64.4104 45.6637 64.7017 45.2658C64.9929 44.8679 65.3206 44.5423 65.6847 44.2529C66.0488 43.9634 66.413 43.7283 66.8135 43.5655C67.214 43.3846 67.6145 43.3123 68.015 43.3123C68.1424 43.3123 68.2516 43.3303 68.3245 43.3846C68.3973 43.4389 68.4701 43.4931 68.5247 43.5655C68.5794 43.6378 68.6157 43.6921 68.6704 43.7645C68.725 43.8368 68.7796 43.873 68.8524 43.9092C68.9252 43.9454 68.9981 43.9634 69.0709 43.9634C69.1437 43.9634 69.2165 43.9634 69.2893 43.9634C69.3622 43.9634 69.4168 43.9634 69.4896 43.9634C69.5624 43.9634 69.617 43.9634 69.6898 43.9634C69.7809 43.9634 69.8537 43.9634 69.9447 43.9815C70.0176 43.9996 70.0904 44.0358 70.145 44.0901C70.1996 44.1443 70.2542 44.2348 70.2906 44.3433C70.3271 44.4518 70.3453 44.5965 70.3453 44.7774C70.3453 45.0488 70.3088 45.3743 70.2542 45.6999C70.1996 46.0436 70.1268 46.3873 70.054 46.7491C69.9811 47.1108 69.8901 47.5088 69.7991 47.961C69.708 48.4132 69.6535 48.8111 69.6535 49.1186C69.6535 49.39 69.6716 49.5889 69.7262 49.7517C69.7808 49.8964 69.8901 49.9688 70.054 49.9688C70.1814 49.9688 70.3088 49.9326 70.4363 49.8783C70.5637 49.8241 70.7094 49.7336 70.855 49.6432C71.0006 49.5527 71.128 49.4261 71.2737 49.3176C71.4193 49.191 71.5468 49.0644 71.656 48.9377C71.9473 48.6302 72.2386 48.2685 72.5298 47.8705L72.9486 49.806H72.9121ZM65.357 49.1186C65.357 49.2633 65.3571 49.4081 65.3935 49.5528C65.4117 49.6975 65.4481 49.8241 65.5027 49.9326C65.5573 50.0411 65.6301 50.1316 65.7211 50.2039C65.8122 50.2763 65.9214 50.3125 66.0488 50.3125C66.2673 50.3125 66.4676 50.222 66.6314 50.023C66.8135 49.8422 66.9591 49.607 67.0865 49.3357C67.214 49.0644 67.3232 48.793 67.396 48.5217C67.4688 48.2323 67.5235 47.9972 67.5417 47.8163L68.197 44.9764C67.9603 44.9764 67.7237 45.0307 67.487 45.1573C67.2504 45.2839 67.0319 45.4286 66.8316 45.6457C66.6314 45.8446 66.4493 46.0798 66.2673 46.333C66.1034 46.5863 65.9214 46.9119 65.7575 47.2917C65.5937 47.6716 65.4845 48.0152 65.4116 48.3047C65.3388 48.5941 65.3024 48.8654 65.3024 49.1186H65.357Z" fill="#F2F2F2"/>
<path d="M79.5392 50.0233C78.9748 50.3489 78.4651 50.6383 78.0282 50.8734C77.5912 51.1267 77.1907 51.3256 76.8448 51.4884C76.4989 51.6512 76.1894 51.7778 75.9345 51.8502C75.6615 51.9406 75.4248 51.9768 75.2063 51.9768C74.7694 51.9768 74.3689 51.8502 74.023 51.5789C73.6771 51.3075 73.404 50.9277 73.1674 50.4212C72.9307 49.9147 72.7669 49.2997 72.6576 48.5943C72.5484 47.8708 72.4938 47.0749 72.4938 46.1704C72.4938 45.8268 72.4938 45.4469 72.5302 45.049C72.5666 44.651 72.603 44.2531 72.6576 43.8732C72.4756 43.8551 72.3481 43.819 72.2389 43.8009C72.1297 43.7828 72.0387 43.7466 71.9294 43.7285C71.8202 43.7104 71.6746 43.6743 71.5107 43.6562C71.3469 43.6381 71.092 43.6019 70.7825 43.5657C70.6369 43.5476 70.5277 43.5115 70.4548 43.4572C70.382 43.4029 70.3274 43.3306 70.291 43.2582C70.2546 43.1859 70.2363 43.1135 70.2363 43.0231C70.2363 42.9507 70.2363 42.8784 70.2363 42.806C70.2363 42.7156 70.291 42.6432 70.4002 42.589C70.5095 42.5347 70.6551 42.4985 70.8371 42.4804C71.0192 42.4623 71.2194 42.4442 71.4379 42.4442C71.6563 42.4442 71.8566 42.4442 72.0568 42.4442C72.2571 42.4442 72.4392 42.4442 72.5848 42.4442C72.7486 42.4442 72.8579 42.4442 72.9125 42.4442C73.0763 41.6664 73.2766 40.8886 73.5133 40.1651C73.7499 39.4235 74.023 38.7723 74.3325 38.1935C74.642 37.6146 74.9697 37.1624 75.3156 36.8188C75.6797 36.4751 76.0438 36.2942 76.4443 36.2942C76.6991 36.2942 76.9358 36.3665 77.1361 36.5113C77.3363 36.656 77.5184 36.8368 77.664 37.072C77.8097 37.3071 77.9189 37.5785 78.0099 37.886C78.0828 38.1935 78.1374 38.5191 78.1374 38.8627C78.1374 39.1341 78.101 39.4416 78.0099 39.7491C77.9371 40.0566 77.8097 40.3822 77.6823 40.7078C77.5366 41.0334 77.3727 41.3589 77.1907 41.6845C76.9904 42.0101 76.7902 42.3357 76.5899 42.6613C76.6446 42.6432 76.7356 42.6432 76.863 42.6613C76.9904 42.6613 77.1361 42.6794 77.2817 42.6794C77.4456 42.6794 77.6276 42.6794 77.8097 42.6794C77.9917 42.6794 78.1738 42.6794 78.3558 42.6794C78.5379 42.6794 78.7017 42.6794 78.8474 42.6794C78.993 42.6794 79.1204 42.6794 79.2296 42.6794C79.3571 42.6794 79.4299 42.7517 79.4845 42.8784C79.5392 43.005 79.5574 43.1497 79.5574 43.3487C79.5574 43.5657 79.5028 43.7466 79.3753 43.8732C79.2479 44.0179 79.1205 44.0722 78.993 44.0722H75.6069C75.443 44.3073 75.2609 44.5425 75.0789 44.7596C74.8968 44.9766 74.7512 45.1937 74.6056 45.3746C74.5874 45.7363 74.5692 46.0981 74.551 46.4418C74.551 46.5865 74.551 46.7493 74.551 46.9121C74.551 47.0749 74.551 47.2377 74.551 47.3824C74.551 47.5452 74.551 47.6899 74.551 47.8346C74.551 47.9793 74.551 48.1059 74.551 48.2325C74.551 48.54 74.5874 48.8114 74.642 49.0284C74.6966 49.2455 74.7877 49.4264 74.8969 49.553C75.0061 49.6977 75.1517 49.7881 75.3156 49.8424C75.4794 49.8967 75.6615 49.9328 75.8618 49.9328C75.9892 49.9328 76.1348 49.8967 76.3169 49.8424C76.4989 49.7881 76.6992 49.6977 76.9176 49.6072C77.1361 49.4987 77.3728 49.3902 77.6094 49.2455C77.8461 49.1008 78.101 48.9561 78.3376 48.7933C78.5743 48.6305 78.8109 48.4496 79.0112 48.2687C79.2297 48.0878 79.4299 47.8888 79.612 47.708V49.9509L79.5392 50.0233ZM76.7174 38.9351C76.7174 38.9351 76.7174 38.8085 76.7174 38.718C76.7174 38.6457 76.681 38.5733 76.6628 38.501C76.6264 38.4286 76.5899 38.3744 76.5171 38.3201C76.4625 38.2658 76.3715 38.2477 76.2623 38.2477C76.1166 38.2477 75.9528 38.3744 75.7889 38.6457C75.6433 38.917 75.4794 39.2607 75.3338 39.6586C75.1881 40.0747 75.0607 40.5269 74.9333 41.0334C74.8058 41.5398 74.6966 42.0101 74.5874 42.4804C74.6784 42.4804 74.7694 42.4804 74.8604 42.4985C74.9515 42.4985 75.0425 42.4985 75.1335 42.5166C75.3156 42.2272 75.4976 41.9016 75.6797 41.5579C75.8799 41.2142 76.0438 40.8705 76.1894 40.545C76.3351 40.2194 76.4625 39.8938 76.5717 39.6224C76.6627 39.333 76.7174 39.0979 76.7174 38.917V38.9351Z" fill="#F2F2F2"/>
<path d="M84.2172 50.1136C83.9987 50.3125 83.7438 50.5115 83.4343 50.7286C83.1248 50.9456 82.7789 51.1446 82.4148 51.3255C82.0507 51.5064 81.6866 51.6692 81.3043 51.7777C80.922 51.8862 80.5579 51.9586 80.2302 51.9586C79.9208 51.9586 79.6659 51.9224 79.4656 51.8319C79.2653 51.7415 79.0833 51.633 78.9559 51.4702C78.8284 51.3255 78.7374 51.1265 78.6828 50.9095C78.6282 50.6924 78.5918 50.4572 78.5918 50.1859C78.5918 49.8241 78.6282 49.39 78.7192 48.9016C78.883 47.8887 78.9923 47.3099 79.0469 47.2013C79.1197 46.9481 79.2836 46.4054 79.5202 45.5372C79.7387 44.8318 79.8843 44.3795 79.939 44.1806C79.9754 44.0359 80.0482 43.9092 80.1756 43.7826C80.3031 43.6741 80.4305 43.5837 80.5943 43.5294C80.74 43.457 80.9038 43.4209 81.0677 43.3847C81.2315 43.3485 81.3771 43.3304 81.5228 43.3304C81.7595 43.3304 81.9233 43.3666 82.0143 43.457C82.1053 43.5475 82.1418 43.6741 82.1418 43.8188C82.1418 43.9454 82.1054 44.1263 82.0508 44.3614C81.9961 44.5966 81.9233 44.8679 81.8505 45.1573C81.7776 45.4648 81.6502 45.8447 81.5046 46.315C81.3589 46.7853 81.2497 47.1832 81.1951 47.5269C81.1405 47.8525 81.0677 48.1962 80.9767 48.5218C80.8856 48.8474 80.8492 49.1549 80.8492 49.4081C80.8492 49.6613 80.8856 49.8784 80.9402 50.0412C80.9948 50.204 81.1223 50.2764 81.3043 50.2764C81.5228 50.2764 81.7594 50.204 82.0143 50.0593C82.2692 49.9146 82.5423 49.7337 82.7972 49.5347C83.0702 49.3358 83.3251 49.1187 83.58 48.8835C83.8348 48.6665 84.0533 48.4675 84.2536 48.3228V50.0955L84.2172 50.1136ZM80.2849 40.9247C80.2849 40.798 80.3212 40.6352 80.3759 40.4724C80.4305 40.3096 80.5215 40.1469 80.6671 39.9841C80.7946 39.8394 80.9767 39.7127 81.1951 39.6042C81.4136 39.4957 81.6866 39.4414 82.0143 39.4414C82.2146 39.4414 82.4148 39.4595 82.5969 39.5138C82.7789 39.568 82.9428 39.6404 83.0702 39.7308C83.1977 39.8213 83.3069 39.9479 83.3979 40.1107C83.4707 40.2735 83.5254 40.4544 83.5254 40.6714C83.5254 40.8704 83.4889 41.0694 83.4343 41.2502C83.3615 41.4311 83.2705 41.612 83.1248 41.7567C82.9792 41.9014 82.8153 42.0281 82.5969 42.1185C82.3784 42.2089 82.1236 42.2632 81.8323 42.2632C81.3226 42.2632 80.9402 42.1366 80.6854 41.9014C80.4305 41.6482 80.3212 41.3407 80.3212 40.9247H80.2849Z" fill="#F2F2F2"/>
<path d="M89.0045 45.2298C89.1683 45.5735 89.2957 45.9172 89.3868 46.297C89.4778 46.6769 89.5142 47.0929 89.5142 47.5632C89.5142 47.9069 89.4778 48.2506 89.405 48.6123C89.3322 48.956 89.2229 49.2997 89.0773 49.6253C88.9316 49.9509 88.7496 50.2584 88.5493 50.5478C88.3491 50.8372 88.0942 51.0904 87.8393 51.2894C87.5662 51.5065 87.2749 51.6693 86.9655 51.7959C86.656 51.9225 86.3101 51.9768 85.946 51.9768C85.4362 51.9768 84.9811 51.8682 84.617 51.6331C84.2529 51.416 83.9434 51.1085 83.7068 50.7468C83.4701 50.385 83.3063 49.9689 83.197 49.5167C83.0878 49.0645 83.0332 48.5942 83.0332 48.142C83.0332 47.3642 83.1242 46.713 83.3244 46.1523C83.5247 45.5916 83.7978 45.1032 84.1619 44.7052C84.526 44.2892 84.9629 43.9636 85.4908 43.7285C86.0188 43.4933 86.6014 43.3667 87.2567 43.3667C87.8211 43.3667 88.3309 43.4571 88.8224 43.6199C89.3139 43.8008 89.7691 44.0179 90.1878 44.3073C90.6065 44.5967 91.007 44.9585 91.3711 45.3926C91.7352 45.8267 92.0811 46.2427 92.3906 46.6407L92.2268 47.8707C92.0629 47.6536 91.8626 47.4366 91.5896 47.1833C91.3165 46.9301 91.0252 46.6588 90.7339 46.3694C90.4244 46.0799 90.1332 45.8267 89.8419 45.6097C89.5506 45.4107 89.2957 45.2298 89.0773 45.0851L89.0045 45.1755V45.2298ZM86.2737 50.2945C86.474 50.2945 86.6742 50.186 86.8562 49.987C87.0383 49.7881 87.2022 49.5348 87.3478 49.2273C87.4934 48.9198 87.6027 48.5581 87.6937 48.1239C87.7847 47.6898 87.8211 47.31 87.8211 46.9663C87.8211 46.695 87.8029 46.4417 87.7665 46.2247C87.7301 45.9895 87.6573 45.7905 87.5845 45.6277C87.5117 45.465 87.4024 45.3202 87.275 45.2298C87.1475 45.1394 86.9837 45.0851 86.8016 45.0851C86.5649 45.0851 86.3283 45.1936 86.1098 45.3926C85.8914 45.5916 85.7093 45.8629 85.5455 46.1704C85.3816 46.4779 85.2542 46.8397 85.1632 47.2195C85.0721 47.5994 85.0176 48.0335 85.0176 48.5219C85.0176 48.7751 85.0357 48.9922 85.0903 49.2092C85.1449 49.4263 85.2178 49.6072 85.3088 49.77C85.3999 49.9328 85.5455 50.0594 85.7093 50.1498C85.8731 50.2403 86.0734 50.2945 86.2919 50.2945H86.2737Z" fill="#F2F2F2"/>
<path d="M91.2088 50.1499C91.2088 49.77 91.2271 49.3178 91.2817 48.8113C91.3363 48.3049 91.3909 47.7441 91.4637 47.1472C91.5365 46.5503 91.6093 46.0076 91.7004 45.5193C91.7914 45.0309 91.8824 44.6148 91.9553 44.2712C92.0281 43.9998 92.1373 43.7828 92.3375 43.6019C92.5196 43.421 92.7745 43.3306 93.084 43.3306C93.3934 43.3306 93.6301 43.421 93.7393 43.62C93.8668 43.819 93.9214 44.0722 93.9214 44.3978C93.9214 44.4882 93.9214 44.5968 93.9032 44.7596C93.9032 44.9043 93.8668 45.067 93.8304 45.2479C93.8122 45.4288 93.7757 45.6097 93.7393 45.8087C93.7029 46.0077 93.6847 46.2066 93.6483 46.4599C93.6301 46.695 93.5937 46.8759 93.5755 47.0025C93.5755 47.1291 93.5573 47.2015 93.5573 47.2377H93.7393C93.7393 47.2377 93.8303 47.0749 93.9032 46.9302C93.976 46.7854 94.067 46.5865 94.1763 46.3152C94.2855 46.0438 94.3765 45.8087 94.504 45.6097C94.6132 45.4107 94.7224 45.2118 94.8316 45.0128C94.9227 44.8138 95.0137 44.651 95.1047 44.5063C95.1775 44.3616 95.2503 44.2531 95.2868 44.1807C95.4688 43.8732 95.6873 43.6562 95.9239 43.5295C96.1606 43.421 96.4337 43.3487 96.725 43.3487C97.0163 43.3487 97.2529 43.4753 97.4168 43.7104C97.5806 43.9637 97.6716 44.2893 97.6716 44.7234C97.6716 44.7957 97.6716 44.9043 97.6352 45.049C97.617 45.1937 97.5806 45.3746 97.526 45.5916C97.4896 45.8087 97.4349 46.08 97.3803 46.4056C97.3257 46.7312 97.2893 47.0387 97.2347 47.2919C97.1983 47.5633 97.1619 47.8165 97.1255 48.0697C97.1073 48.323 97.089 48.5581 97.089 48.7752C97.089 49.1369 97.1255 49.4264 97.2165 49.6615C97.3075 49.8967 97.4532 50.0052 97.6535 50.0052C97.7263 50.0052 97.8173 49.9871 97.9447 49.9328C98.1449 49.8605 98.2542 49.8062 98.3088 49.7519C98.5637 49.553 98.7093 49.4625 98.7093 49.4625C98.7093 49.4625 98.9278 49.354 99.2919 49.1188C99.7652 48.8294 100.33 48.4496 100.967 48.0335V49.9871L100.512 50.3127C100.475 50.3489 100.202 50.4936 99.6742 50.7649C98.9278 51.1628 98.4545 51.398 98.2724 51.4884C97.8173 51.6874 97.526 51.814 97.4168 51.8321C97.1255 51.9225 96.816 51.9768 96.4883 51.9768C96.1606 51.9768 95.8875 51.7417 95.669 51.2895C95.4506 50.8192 95.3414 50.1499 95.3414 49.2455C95.3414 48.9018 95.3596 48.5219 95.4142 48.1059C95.4688 47.708 95.5234 47.2557 95.5963 46.8035H95.4506L93.1386 51.3618C93.0111 51.6151 92.8837 51.7778 92.7381 51.8502C92.5924 51.9406 92.4286 51.9768 92.2283 51.9768C91.9917 51.9768 91.7914 51.9225 91.6457 51.8321C91.5001 51.7236 91.3909 51.597 91.2998 51.4161C91.227 51.2352 91.1724 51.0543 91.136 50.8372C91.1178 50.6202 91.0996 50.385 91.0996 50.1499H91.2088Z" fill="#F2F2F2"/>
</svg>
