<svg width="120" height="200" viewBox="0 0 120 200" fill="none" xmlns="http://www.w3.org/2000/svg">
<path d="M114.659 171.142L110.583 172.867C111.306 174.693 113.032 179.021 114.213 182.027C115.309 184.818 115.765 189.341 112.272 192.43C122.064 187.509 120.209 182.531 119.062 179.29C118.237 177.174 116.493 172.727 116.114 171.876C115.736 171.024 114.986 171.032 114.659 171.142Z" fill="#EAEEEF"/>
<path d="M90.8742 181.239L94.9655 179.552C95.734 181.359 97.5481 185.651 98.8201 188.618C100.001 191.374 102.83 194.75 107.464 194.443C97.1326 197.935 94.9511 193.289 93.4906 190.179L93.473 190.142C92.5724 188.057 90.6889 183.669 90.3596 182.796C90.0302 181.924 90.5654 181.395 90.8742 181.239Z" fill="#EAEEEF"/>
<path d="M110.615 172.885L95.0449 179.46L98.2837 187.578C100.054 191.859 103.899 196.375 109.999 193.748C116.324 191.024 115.128 184.746 114.085 181.786L110.615 172.885Z" fill="#D8D8D8"/>
<path d="M79.4028 102.823L68.2969 107.516L72.2274 116.967L83.7031 112.11L79.4028 102.823Z" fill="#D8D8D8"/>
<path d="M85.5629 110.296L69.0054 117.149C66.485 118.192 66.1412 119.143 66.5145 120.138L68.8748 126.469L92.039 116.883C91.4204 115.516 89.9985 112.391 89.2592 110.829C88.5199 109.266 86.4869 109.823 85.5629 110.296Z" fill="#DBDBDB"/>
<ellipse cx="54.8173" cy="55.2952" rx="54.8173" ry="55.2952" fill="#656565"/>
<ellipse cx="54.8178" cy="55.295" rx="51.7719" ry="52.2232" fill="#3C3C3C"/>
<ellipse opacity="0.5" cx="54.8164" cy="55.2955" rx="42.6357" ry="43.0074" fill="#BADAFE"/>
<path d="M68.8643 126.46L72.925 124.792L95.354 179.444L90.9113 181.24L68.8643 126.46Z" fill="#5C5C5C"/>
<path d="M88.4727 118.402L92.036 116.894L114.548 171.205L110.618 172.96L88.4727 118.402Z" fill="#5C5C5C"/>
<path d="M88.4816 118.405L72.9648 124.787L95.2796 179.474L110.62 172.957L88.4816 118.405Z" fill="#3C3C3C"/>
</svg>
