<svg width="128" height="76" viewBox="0 0 128 76" fill="none" xmlns="http://www.w3.org/2000/svg">
<path d="M118.548 26.6246L104.303 28.1467L104.958 34.2149L119.203 32.6928L118.548 26.6246Z" fill="#DF572D"/>
<path d="M122.288 31.0153L122.22 30.3779L121.252 30.0931L122.138 29.6319L122.056 28.886L121.484 28.6961L122.002 28.3706L121.934 27.679L122.806 27.8824L123.569 28.0452C123.706 28.0994 123.747 28.113 123.76 28.2215L123.965 30.1202C123.965 30.2151 123.937 30.2423 123.815 30.3236L123.092 30.6627L122.288 31.0289V31.0153Z" fill="#4D4D4D"/>
<path d="M119.221 32.6564L118.566 26.594L122.833 27.8282L122.792 27.8553L122.002 28.3571L121.484 28.6826L122.056 28.8725L122.983 29.1844L122.138 29.6184L121.252 30.0931L122.22 30.3779L123.079 30.6491L123.133 30.6627L119.221 32.6564Z" fill="#F2E3C3"/>
<path d="M123.242 9.81729L73.5391 34.6229L78.2967 44.0623L128 19.2431L123.242 9.80371V9.81729ZM120.625 14.7404C120.257 14.0216 120.557 13.1401 121.279 12.7739C122.015 12.4077 122.901 12.7061 123.256 13.4249C123.624 14.1573 123.338 15.0252 122.601 15.3914C121.879 15.7576 120.993 15.4728 120.625 14.7404Z" fill="#F4CA4B"/>
<g style="mix-blend-mode:multiply">
<path d="M124.176 17.0807L123.043 17.6472L124.678 20.8826L125.811 20.316L124.176 17.0807Z" fill="#A3A381"/>
</g>
<g style="mix-blend-mode:multiply">
<path d="M122.176 19.0354L121.287 19.48L122.579 22.0369L123.468 21.5924L122.176 19.0354Z" fill="#A3A381"/>
</g>
<g style="mix-blend-mode:multiply">
<path d="M119.057 20.5315L120.352 23.0948L121.238 22.6473L119.943 20.084L119.057 20.5315Z" fill="#A3A381"/>
</g>
<g style="mix-blend-mode:multiply">
<path d="M117.727 21.1418L116.838 21.5857L118.128 24.1435L119.017 23.6996L117.727 21.1418Z" fill="#A3A381"/>
</g>
<g style="mix-blend-mode:multiply">
<path d="M115.278 21.5559L114.145 22.1218L115.778 25.358L116.911 24.7921L115.278 21.5559Z" fill="#A3A381"/>
</g>
<g style="mix-blend-mode:multiply">
<path d="M113.276 23.3623L112.387 23.8071L113.679 26.3637L114.568 25.9188L113.276 23.3623Z" fill="#A3A381"/>
</g>
<g style="mix-blend-mode:multiply">
<path d="M111.054 24.5473L110.164 24.9907L111.452 27.5493L112.342 27.1058L111.054 24.5473Z" fill="#A3A381"/>
</g>
<g style="mix-blend-mode:multiply">
<path d="M107.934 26.0921L109.229 28.6418L110.115 28.1943L108.82 25.6445L107.934 26.0921Z" fill="#A3A381"/>
</g>
<g style="mix-blend-mode:multiply">
<path d="M105.248 26.5803L106.87 29.8082L108.002 29.2521L106.366 26.0107L105.248 26.5803Z" fill="#A3A381"/>
</g>
<g style="mix-blend-mode:multiply">
<path d="M104.374 27.8839L103.484 28.3271L104.772 30.8859L105.662 30.4426L104.374 27.8839Z" fill="#A3A381"/>
</g>
<g style="mix-blend-mode:multiply">
<path d="M102.129 29.0252L101.24 29.4697L102.532 32.0267L103.421 31.5822L102.129 29.0252Z" fill="#A3A381"/>
</g>
<g style="mix-blend-mode:multiply">
<path d="M99.9226 30.0907L99.0332 30.5349L100.324 33.0923L101.213 32.6481L99.9226 30.0907Z" fill="#A3A381"/>
</g>
<g style="mix-blend-mode:multiply">
<path d="M97.4827 30.4243L96.3496 30.99L97.9822 34.2264L99.1153 33.6607L97.4827 30.4243Z" fill="#A3A381"/>
</g>
<g style="mix-blend-mode:multiply">
<path d="M95.4693 32.3327L94.5801 32.7771L95.8712 35.3343L96.7604 34.8899L95.4693 32.3327Z" fill="#A3A381"/>
</g>
<g style="mix-blend-mode:multiply">
<path d="M93.2412 33.4577L92.3516 33.9014L93.6404 36.4597L94.5301 36.0161L93.2412 33.4577Z" fill="#A3A381"/>
</g>
<g style="mix-blend-mode:multiply">
<path d="M91.0243 34.5131L90.1348 34.957L91.4245 37.5149L92.314 37.071L91.0243 34.5131Z" fill="#A3A381"/>
</g>
<g style="mix-blend-mode:multiply">
<path d="M88.5825 34.8856L87.4492 35.4509L89.0807 38.6879L90.214 38.1226L88.5825 34.8856Z" fill="#A3A381"/>
</g>
<g style="mix-blend-mode:multiply">
<path d="M79.6663 39.3693L78.5332 39.9351L80.1658 43.1715L81.2989 42.6058L79.6663 39.3693Z" fill="#A3A381"/>
</g>
<g style="mix-blend-mode:multiply">
<path d="M86.5648 36.7131L85.6758 37.158L86.9682 39.7145L87.8572 39.2696L86.5648 36.7131Z" fill="#A3A381"/>
</g>
<g style="mix-blend-mode:multiply">
<path d="M84.3445 37.8335L83.4551 38.2776L84.7453 40.8353L85.6347 40.3912L84.3445 37.8335Z" fill="#A3A381"/>
</g>
<g style="mix-blend-mode:multiply">
<path d="M82.1121 38.9436L81.2227 39.3877L82.5128 41.9454L83.4023 41.5013L82.1121 38.9436Z" fill="#A3A381"/>
</g>
<path d="M3.01989 22.4982L6.22346 23.1085C5.90992 25.9702 4.86025 29.4014 2.91085 29.2116C-0.0200783 28.8318 -0.606265 21.8472 0.566105 19.2568C1.64305 16.8156 3.89236 15.7712 5.84176 15.3915C7.4231 15.0389 8.82722 14.8354 9.80874 15.4864L9.86324 15.5135C10.6675 16.0696 11.1719 17.1817 11.3083 19.2568L25.3086 24.736V25.4005L5.32373 18.1175C5.20104 18.0362 5.07836 17.9955 4.94203 17.9819C3.7833 17.8192 2.44735 20.0705 3.03353 22.5117L3.01989 22.4982Z" fill="#CCCCCC"/>
<path d="M25.3086 22.6473V24.7359L11.3083 19.2567C11.172 17.1816 10.6539 16.0695 9.86328 15.5134L25.3086 22.6473Z" fill="#F2F2F2"/>
<path d="M25.3079 25.3868V32.3037L2.91016 29.2115C4.87319 29.4013 5.90923 25.97 6.22277 23.1084C6.34546 21.942 6.34543 20.8706 6.23638 20.1654C6.04553 19.0261 5.71836 18.3887 5.3094 18.1174L25.2942 25.4004L25.3079 25.3868Z" fill="#E5E5E5"/>
<path d="M6.22317 23.1084L3.01959 22.4981C2.43341 20.0569 3.76936 17.8055 4.9281 17.9683L5.3098 18.1039C5.70513 18.3751 6.04592 19.0261 6.23678 20.1518C6.34583 20.857 6.34586 21.9285 6.22317 23.0949V23.1084Z" fill="#B3B3B3"/>
<path d="M34.5128 20.5684L15.9844 22.9004L19.0931 47.3484L37.6216 45.0164L34.5128 20.5684Z" fill="#FEA639"/>
<path d="M104.688 16.9783H24.9531V75.5H104.688V16.9783Z" fill="#4F485F"/>
<path d="M107.36 14.6186V54.6954C98.0631 57.9368 82.4405 60.0525 64.6914 60.0525C46.9423 60.0525 31.7287 57.991 22.4043 54.8174V14.605H107.36V14.6186Z" fill="#665C7A"/>
<path d="M81.1061 11.2821H77.5344C77.5344 7.29475 74.2627 4.05336 70.2548 4.05336H59.2673C55.2594 4.05336 51.9877 7.29475 51.9877 11.2821H48.416C48.416 8.31193 49.6293 5.61302 51.5923 3.66004C53.569 1.70705 56.2682 0.5 59.2536 0.5H70.2412C76.2394 0.5 81.0924 5.31464 81.0924 11.2821H81.1061Z" fill="#4F485F"/>
<path d="M53.0903 11.2822H47.1875V16.2461H53.0903V11.2822Z" fill="#F5CA4E"/>
<path d="M82.4281 11.2822H76.5254V16.2461H82.4281V11.2822Z" fill="#F5CA4E"/>
<path d="M70.6364 52.8779H59.1172V67.2269H70.6364V52.8779Z" fill="#F8CF15"/>
<path d="M69.3004 58.5741V58.642H60.4395V58.5741C60.4395 56.1329 62.4298 54.1528 64.8699 54.1528C66.1105 54.1528 67.2147 54.6546 68.019 55.4548C68.8096 56.255 69.3004 57.3535 69.3004 58.5741Z" fill="#F3B012"/>
<path d="M69.3004 60.4187H60.4395V62.4124H69.3004V60.4187Z" fill="#F3B012"/>
<g style="mix-blend-mode:multiply">
<path d="M104.743 55.5498V64.0534H25.0078V55.6312C34.4686 58.3301 48.7551 60.0525 64.7457 60.0525C80.7363 60.0525 95.2818 58.303 104.743 55.5498Z" fill="#D0C5BA"/>
</g>
<g style="mix-blend-mode:multiply">
<path d="M111.765 15.5542V33.4566L107.361 33.9313V17.7513L111.765 15.5542Z" fill="#ABA18F"/>
</g>
<g style="mix-blend-mode:multiply">
<path d="M22.4039 21.3182V46.9647L19.0777 47.3851L17.5781 35.6401V19.094L22.4039 21.3182Z" fill="#ABA18F"/>
</g>
</svg>
