<svg width="24" height="28" viewBox="0 0 24 28" fill="none" xmlns="http://www.w3.org/2000/svg">
<path d="M0 1.5C0 0.671572 0.671573 0 1.5 0H15L24 9V26.5C24 27.3284 23.3284 28 22.5 28H1.5C0.671573 28 0 27.3284 0 26.5V1.5Z" fill="url(#paint0_linear_1534_7819)"/>
<path d="M15 7.5V0L24 9H16.5C15.6716 9 15 8.32843 15 7.5Z" fill="#BA253D"/>
<path d="M4.72656 20.0001V15.1001H6.84756C7.28623 15.1001 7.66423 15.1724 7.98156 15.3171C8.2989 15.4571 8.5439 15.6601 8.71656 15.9261C8.88923 16.1921 8.97556 16.5094 8.97556 16.8781C8.97556 17.2421 8.88923 17.5571 8.71656 17.8231C8.5439 18.0891 8.2989 18.2944 7.98156 18.4391C7.66423 18.5791 7.28623 18.6491 6.84756 18.6491H5.35656L5.86056 18.1381V20.0001H4.72656ZM5.86056 18.2641L5.35656 17.7251H6.78456C7.13456 17.7251 7.3959 17.6504 7.56856 17.5011C7.74123 17.3518 7.82756 17.1441 7.82756 16.8781C7.82756 16.6074 7.74123 16.3974 7.56856 16.2481C7.3959 16.0988 7.13456 16.0241 6.78456 16.0241H5.35656L5.86056 15.4851V18.2641Z" fill="white"/>
<path d="M9.98516 20.0001V15.1001H12.2112C12.7432 15.1001 13.2122 15.2028 13.6182 15.4081C14.0242 15.6088 14.3415 15.8911 14.5702 16.2551C14.7988 16.6191 14.9132 17.0508 14.9132 17.5501C14.9132 18.0448 14.7988 18.4764 14.5702 18.8451C14.3415 19.2091 14.0242 19.4938 13.6182 19.6991C13.2122 19.8998 12.7432 20.0001 12.2112 20.0001H9.98516ZM11.1192 19.0691H12.1552C12.4818 19.0691 12.7642 19.0084 13.0022 18.8871C13.2448 18.7611 13.4315 18.5838 13.5622 18.3551C13.6975 18.1264 13.7652 17.8581 13.7652 17.5501C13.7652 17.2374 13.6975 16.9691 13.5622 16.7451C13.4315 16.5164 13.2448 16.3414 13.0022 16.2201C12.7642 16.0941 12.4818 16.0311 12.1552 16.0311H11.1192V19.0691Z" fill="white"/>
<path d="M17.0184 17.3051H19.3704V18.2151H17.0184V17.3051ZM17.1024 20.0001H15.9684V15.1001H19.6714V16.0101H17.1024V20.0001Z" fill="white"/>
<defs>
<linearGradient id="paint0_linear_1534_7819" x1="12" y1="0" x2="12" y2="28" gradientUnits="userSpaceOnUse">
<stop stop-color="#FA6976"/>
<stop offset="1" stop-color="#E44B5F"/>
</linearGradient>
</defs>
</svg>
