<svg width="20" height="20" viewBox="0 0 20 20" fill="none" xmlns="http://www.w3.org/2000/svg">
<path fill-rule="evenodd" clip-rule="evenodd" d="M2.04459 8.86322C1.92519 8.97456 1.82996 9.10927 1.76484 9.25898C1.69971 9.40869 1.66607 9.57019 1.66602 9.73345V16.5477C1.66602 17.0213 1.85415 17.4755 2.18904 17.8104C2.52393 18.1453 2.97813 18.3335 3.45173 18.3335H8.80887V14.762C8.80887 14.4463 8.9343 14.1435 9.15756 13.9202C9.38081 13.697 9.68361 13.5715 9.99935 13.5715C10.3151 13.5715 10.6179 13.697 10.8411 13.9202C11.0644 14.1435 11.1898 14.4463 11.1898 14.762V18.3335H16.547C17.0206 18.3335 17.4748 18.1453 17.8097 17.8104C18.1445 17.4755 18.3327 17.0213 18.3327 16.5477V9.73345C18.3326 9.57019 18.299 9.40869 18.2339 9.25898C18.1687 9.10927 18.0735 8.97456 17.9541 8.86322L10.3863 1.80964C10.2784 1.71742 10.1412 1.66675 9.99935 1.66675C9.85747 1.66675 9.72026 1.71742 9.61244 1.80964L2.04459 8.86322Z" fill="#0530A1"/>
</svg>
