<svg width="74" height="75" viewBox="0 0 74 75" fill="none" xmlns="http://www.w3.org/2000/svg">
<rect x="5" y="5.5" width="64" height="64" rx="32" fill="#F2F4F7"/>
<rect x="5" y="5.5" width="64" height="64" rx="32" stroke="#F9FAFB" stroke-width="9.6"/>
<g clip-path="url(#clip0_1511_9825)">
<path d="M41.3924 43.776C41.9131 44.2967 42.7573 44.2967 43.278 43.776C43.7987 43.2553 43.7987 42.4111 43.278 41.8904L41.3924 43.776ZM37.0019 37.4999L37.9447 36.5571C37.424 36.0364 36.5798 36.0364 36.0591 36.5571L37.0019 37.4999ZM30.7258 41.8904C30.2051 42.4111 30.2051 43.2553 30.7258 43.776C31.2465 44.2967 32.0907 44.2967 32.6114 43.776L30.7258 41.8904ZM35.6686 49.4999C35.6686 50.2363 36.2655 50.8332 37.0019 50.8332C37.7383 50.8332 38.3352 50.2363 38.3352 49.4999H35.6686ZM47.5504 44.8492C46.9038 45.2017 46.6654 46.0116 47.0179 46.6581C47.3704 47.3047 48.1802 47.543 48.8268 47.1906L47.5504 44.8492ZM45.0019 33.4999L45.0028 32.1666H45.0019V33.4999ZM43.3219 33.4999L42.031 33.8336C42.1832 34.4221 42.7141 34.8332 43.3219 34.8332V33.4999ZM24.0028 44.1162C24.4904 44.6679 25.333 44.72 25.8848 44.2323C26.4366 43.7447 26.4886 42.9021 26.001 42.3503L24.0028 44.1162ZM43.278 41.8904L37.9447 36.5571L36.0591 38.4427L41.3924 43.776L43.278 41.8904ZM36.0591 36.5571L30.7258 41.8904L32.6114 43.776L37.9447 38.4427L36.0591 36.5571ZM35.6686 37.4999V49.4999H38.3352V37.4999H35.6686ZM48.8268 47.1906C50.3873 46.3398 51.6201 44.9936 52.3306 43.3644L49.8862 42.2984C49.4126 43.3846 48.5907 44.2821 47.5504 44.8492L48.8268 47.1906ZM52.3306 43.3644C53.041 41.7352 53.1887 39.9157 52.7503 38.1933L50.166 38.851C50.4583 39.9993 50.3599 41.2123 49.8862 42.2984L52.3306 43.3644ZM52.7503 38.1933C52.3119 36.4708 51.3124 34.9434 49.9095 33.8521L48.2721 35.9569C49.2074 36.6844 49.8738 37.7027 50.166 38.851L52.7503 38.1933ZM49.9095 33.8521C48.5065 32.7608 46.7802 32.1677 45.0028 32.1666L45.001 34.8332C46.1859 34.834 47.3369 35.2294 48.2721 35.9569L49.9095 33.8521ZM45.0019 32.1666H43.3219V34.8332H45.0019V32.1666ZM44.6128 33.1662C44.1588 31.41 43.3125 29.7797 42.1377 28.3976L40.106 30.1248C41.0197 31.1997 41.6779 32.4678 42.031 33.8336L44.6128 33.1662ZM42.1377 28.3976C40.9629 27.0156 39.4901 25.9179 37.8299 25.1871L36.7555 27.6277C38.0467 28.1961 39.1922 29.0499 40.106 30.1248L42.1377 28.3976ZM37.8299 25.1871C36.1698 24.4562 34.3656 24.1112 32.553 24.178L32.6511 26.8428C34.061 26.7909 35.4643 27.0592 36.7555 27.6277L37.8299 25.1871ZM32.553 24.178C30.7403 24.2448 28.9664 24.7216 27.3646 25.5727L28.6157 27.9276C29.8616 27.2657 31.2413 26.8948 32.6511 26.8428L32.553 24.178ZM27.3646 25.5727C25.7627 26.4237 24.3747 27.6268 23.3047 29.0915L25.4581 30.6645C26.2902 29.5253 27.3698 28.5895 28.6157 27.9276L27.3646 25.5727ZM23.3047 29.0915C22.2348 30.5562 21.5108 32.2445 21.1873 34.0292L23.8112 34.5049C24.0628 33.1168 24.6259 31.8037 25.4581 30.6645L23.3047 29.0915ZM21.1873 34.0292C20.8637 35.814 20.9489 37.6489 21.4366 39.396L24.0051 38.6791C23.6258 37.3203 23.5595 35.8931 23.8112 34.5049L21.1873 34.0292ZM21.4366 39.396C21.9243 41.1431 22.8017 42.757 24.0028 44.1162L26.001 42.3503C25.0668 41.2931 24.3844 40.038 24.0051 38.6791L21.4366 39.396Z" fill="#475467"/>
</g>
<defs>
<clipPath id="clip0_1511_9825">
<rect width="32" height="32" fill="white" transform="translate(21 21.5)"/>
</clipPath>
</defs>
</svg>
