<svg width="500" height="50" viewBox="0 0 500 50" fill="none" xmlns="http://www.w3.org/2000/svg">
<circle cx="250" cy="25" r="25" fill="#0530A1"/>
<path d="M243.334 25.0001L247.459 29.1249L256.298 20.2861" stroke="white" stroke-width="1.66667" stroke-linecap="round" stroke-linejoin="round"/>
<line x1="62.5" y1="24.5" x2="211.5" y2="24.5" stroke="black" stroke-linecap="round" stroke-dasharray="5 5"/>
<line x1="288.5" y1="24.5" x2="437.5" y2="24.5" stroke="black" stroke-linecap="round" stroke-dasharray="5 5"/>
<circle cx="475" cy="25" r="25" fill="#0530A1"/>
<path d="M474.436 31.16C473.689 31.16 473.012 31.0267 472.404 30.76C471.807 30.4827 471.3 30.0827 470.884 29.56L472.132 28.312C472.356 28.6533 472.671 28.9253 473.076 29.128C473.481 29.3307 473.924 29.432 474.404 29.432C474.863 29.432 475.257 29.3467 475.588 29.176C475.919 29.0053 476.175 28.7653 476.356 28.456C476.548 28.1467 476.644 27.7893 476.644 27.384C476.644 26.9573 476.548 26.5947 476.356 26.296C476.175 25.9973 475.908 25.768 475.556 25.608C475.215 25.4373 474.799 25.352 474.308 25.352C474.116 25.352 473.919 25.368 473.716 25.4C473.513 25.4213 473.332 25.4587 473.172 25.512L473.988 24.456C474.212 24.3707 474.447 24.3013 474.692 24.248C474.948 24.184 475.193 24.152 475.428 24.152C476.004 24.152 476.521 24.2907 476.98 24.568C477.449 24.8453 477.817 25.2347 478.084 25.736C478.361 26.2267 478.5 26.808 478.5 27.48C478.5 28.2053 478.329 28.8453 477.988 29.4C477.647 29.9547 477.172 30.3867 476.564 30.696C475.956 31.0053 475.247 31.16 474.436 31.16ZM473.172 25.512V24.424L476.164 20.936L478.372 20.888L475.252 24.472L473.172 25.512ZM471.444 21.448V19.8H478.372V20.888L476.788 21.448H471.444Z" fill="white"/>
<circle cx="25" cy="25" r="25" fill="#0530A1"/>
<path d="M18.334 25.0001L22.4588 29.1249L31.2984 20.2861" stroke="white" stroke-width="1.66667" stroke-linecap="round" stroke-linejoin="round"/>
</svg>
