<svg width="500" height="51" viewBox="0 0 500 51" fill="none" xmlns="http://www.w3.org/2000/svg">
<circle cx="250" cy="25.5" r="24.5" stroke="#4D4D4D" stroke-opacity="0.7"/>
<path d="M246.448 30.412L250.576 26.028C250.917 25.6653 251.195 25.34 251.408 25.052C251.621 24.764 251.776 24.492 251.872 24.236C251.968 23.98 252.016 23.7187 252.016 23.452C252.016 22.9507 251.851 22.5613 251.52 22.284C251.2 21.996 250.789 21.852 250.288 21.852C249.755 21.852 249.285 21.9853 248.88 22.252C248.475 22.5187 248.112 22.9347 247.792 23.5L246.512 22.444C246.949 21.6867 247.488 21.116 248.128 20.732C248.768 20.3373 249.509 20.14 250.352 20.14C251.045 20.14 251.653 20.2787 252.176 20.556C252.699 20.8333 253.104 21.2227 253.392 21.724C253.68 22.2147 253.824 22.7853 253.824 23.436C253.824 23.9053 253.765 24.3267 253.648 24.7C253.541 25.0627 253.355 25.4307 253.088 25.804C252.821 26.1667 252.453 26.5933 251.984 27.084L248.816 30.364L246.448 30.412ZM246.448 31.5V30.412L248.032 29.852H254.048V31.5H246.448Z" fill="#4D4D4D" fill-opacity="0.7"/>
<line opacity="0.6" x1="62.5" y1="25" x2="211.5" y2="25" stroke="black" stroke-linecap="round" stroke-dasharray="5 5"/>
<line x1="288.5" y1="25" x2="437.5" y2="25" stroke="black" stroke-opacity="0.2" stroke-linecap="round" stroke-dasharray="5 5"/>
<circle cx="475" cy="25.5" r="24.5" stroke="#4D4D4D" stroke-opacity="0.7"/>
<path d="M474.936 31.66C474.189 31.66 473.512 31.5267 472.904 31.26C472.307 30.9827 471.8 30.5827 471.384 30.06L472.632 28.812C472.856 29.1533 473.171 29.4253 473.576 29.628C473.981 29.8307 474.424 29.932 474.904 29.932C475.363 29.932 475.757 29.8467 476.088 29.676C476.419 29.5053 476.675 29.2653 476.856 28.956C477.048 28.6467 477.144 28.2893 477.144 27.884C477.144 27.4573 477.048 27.0947 476.856 26.796C476.675 26.4973 476.408 26.268 476.056 26.108C475.715 25.9373 475.299 25.852 474.808 25.852C474.616 25.852 474.419 25.868 474.216 25.9C474.013 25.9213 473.832 25.9587 473.672 26.012L474.488 24.956C474.712 24.8707 474.947 24.8013 475.192 24.748C475.448 24.684 475.693 24.652 475.928 24.652C476.504 24.652 477.021 24.7907 477.48 25.068C477.949 25.3453 478.317 25.7347 478.584 26.236C478.861 26.7267 479 27.308 479 27.98C479 28.7053 478.829 29.3453 478.488 29.9C478.147 30.4547 477.672 30.8867 477.064 31.196C476.456 31.5053 475.747 31.66 474.936 31.66ZM473.672 26.012V24.924L476.664 21.436L478.872 21.388L475.752 24.972L473.672 26.012ZM471.944 21.948V20.3H478.872V21.388L477.288 21.948H471.944Z" fill="#4D4D4D" fill-opacity="0.7"/>
<circle cx="25" cy="25.5" r="25" fill="#2F52FF"/>
<path d="M24.656 31.5V20.3H26.464V31.5H24.656ZM22.416 21.948V20.3H26.304V21.948H22.416Z" fill="white"/>
</svg>
