<svg width="500" height="50" viewBox="0 0 500 50" fill="none" xmlns="http://www.w3.org/2000/svg">
<circle cx="250" cy="25" r="25" fill="#0530A1"/>
<path d="M245.948 29.912L250.076 25.528C250.417 25.1653 250.695 24.84 250.908 24.552C251.121 24.264 251.276 23.992 251.372 23.736C251.468 23.48 251.516 23.2187 251.516 22.952C251.516 22.4507 251.351 22.0613 251.02 21.784C250.7 21.496 250.289 21.352 249.788 21.352C249.255 21.352 248.785 21.4853 248.38 21.752C247.975 22.0187 247.612 22.4347 247.292 23L246.012 21.944C246.449 21.1867 246.988 20.616 247.628 20.232C248.268 19.8373 249.009 19.64 249.852 19.64C250.545 19.64 251.153 19.7787 251.676 20.056C252.199 20.3333 252.604 20.7227 252.892 21.224C253.18 21.7147 253.324 22.2853 253.324 22.936C253.324 23.4053 253.265 23.8267 253.148 24.2C253.041 24.5627 252.855 24.9307 252.588 25.304C252.321 25.6667 251.953 26.0933 251.484 26.584L248.316 29.864L245.948 29.912ZM245.948 31V29.912L247.532 29.352H253.548V31H245.948Z" fill="white"/>
<line x1="62.5" y1="24.5" x2="211.5" y2="24.5" stroke="black" stroke-linecap="round" stroke-dasharray="5 5"/>
<line opacity="0.6" x1="288.5" y1="24.5" x2="437.5" y2="24.5" stroke="black" stroke-linecap="round" stroke-dasharray="5 5"/>
<circle cx="475" cy="25" r="24.5" stroke="#4D4D4D" stroke-opacity="0.7"/>
<path d="M474.936 31.16C474.189 31.16 473.512 31.0267 472.904 30.76C472.307 30.4827 471.8 30.0827 471.384 29.56L472.632 28.312C472.856 28.6533 473.171 28.9253 473.576 29.128C473.981 29.3307 474.424 29.432 474.904 29.432C475.363 29.432 475.757 29.3467 476.088 29.176C476.419 29.0053 476.675 28.7653 476.856 28.456C477.048 28.1467 477.144 27.7893 477.144 27.384C477.144 26.9573 477.048 26.5947 476.856 26.296C476.675 25.9973 476.408 25.768 476.056 25.608C475.715 25.4373 475.299 25.352 474.808 25.352C474.616 25.352 474.419 25.368 474.216 25.4C474.013 25.4213 473.832 25.4587 473.672 25.512L474.488 24.456C474.712 24.3707 474.947 24.3013 475.192 24.248C475.448 24.184 475.693 24.152 475.928 24.152C476.504 24.152 477.021 24.2907 477.48 24.568C477.949 24.8453 478.317 25.2347 478.584 25.736C478.861 26.2267 479 26.808 479 27.48C479 28.2053 478.829 28.8453 478.488 29.4C478.147 29.9547 477.672 30.3867 477.064 30.696C476.456 31.0053 475.747 31.16 474.936 31.16ZM473.672 25.512V24.424L476.664 20.936L478.872 20.888L475.752 24.472L473.672 25.512ZM471.944 21.448V19.8H478.872V20.888L477.288 21.448H471.944Z" fill="#4D4D4D" fill-opacity="0.7"/>
<circle cx="25" cy="25" r="25" fill="#0530A1"/>
<path d="M18.334 25.0001L22.4588 29.1249L31.2984 20.2861" stroke="white" stroke-width="1.66667" stroke-linecap="round" stroke-linejoin="round"/>
</svg>
