<svg width="234" height="70" viewBox="0 0 234 70" fill="none" xmlns="http://www.w3.org/2000/svg">
<path d="M23.0729 30.6625C14.5189 32.5804 1.33203 55.2162 1.33203 55.2162V68.9836H232.332V40.1436C232.332 40.1436 215.983 21.089 212.239 18.9934C208.494 16.8977 198.806 16.3192 190.258 16.5623C181.71 16.8054 174.786 3.92074 167.612 3.67764C160.437 3.43453 151.789 22.3968 144.965 22.8831C138.141 23.3693 126.338 6.83802 117.878 5.37938C109.418 3.92074 99.967 12.9157 91.1238 13.1588C82.2805 13.4019 77.4803 0.760356 68.3661 1.00346C59.252 1.24657 55.7852 26.3038 45.9416 31.878C37.2515 36.799 31.9665 28.6684 23.0729 30.6625Z" fill="url(#paint0_linear_829_4995)"/>
<path d="M1.33203 55.2162C1.33203 55.2162 14.5189 32.5804 23.0729 30.6625C31.9665 28.6684 37.2515 36.799 45.9416 31.878C55.7852 26.3038 59.252 1.24657 68.3661 1.00346C77.4803 0.760356 82.2805 13.4019 91.1238 13.1588C99.967 12.9157 109.418 3.92074 117.878 5.37938C126.338 6.83802 138.141 23.3693 144.965 22.8831C151.789 22.3968 160.437 3.43453 167.612 3.67763C174.786 3.92074 181.71 16.8054 190.258 16.5623C198.806 16.3192 208.494 16.8977 212.239 18.9933C215.983 21.089 232.332 40.1436 232.332 40.1436" stroke="#3694EB" stroke-width="2" stroke-linecap="round" stroke-linejoin="round"/>
<defs>
<linearGradient id="paint0_linear_829_4995" x1="116.832" y1="1" x2="116.832" y2="68.9836" gradientUnits="userSpaceOnUse">
<stop stop-color="#3694EB" stop-opacity="0.3"/>
<stop offset="1" stop-color="white" stop-opacity="0"/>
</linearGradient>
</defs>
</svg>
