<svg width="216" height="70" viewBox="0 0 216 70" fill="none" xmlns="http://www.w3.org/2000/svg">
<path opacity="0.8" d="M41.8167 28.1944C24.8777 27.5765 1.95312 37.2602 1.95312 37.2602V68.9908H214.382V28.1944C214.382 28.1944 198.058 33.8786 186.92 32.9123C169.143 31.3699 179.197 15.3634 161.939 12.6529C149.439 10.6896 141.321 18.5559 129.162 16.0757C116.928 13.5801 121.096 5.04696 109.496 1.82936C83.2632 -5.44758 104.825 37.5637 75.125 37.2602C60.4589 37.1104 56.45 28.7281 41.8167 28.1944Z" fill="url(#paint0_linear_701_13030)"/>
<path d="M1.95312 37.2602C1.95312 37.2602 24.8777 27.5765 41.8167 28.1944C56.45 28.7281 60.4589 37.1104 75.125 37.2602C104.825 37.5637 83.2632 -5.44758 109.496 1.82936C121.096 5.04696 116.928 13.5801 129.162 16.0757C141.321 18.5559 149.439 10.6896 161.939 12.6529C179.197 15.3634 169.143 31.3699 186.92 32.9123C198.058 33.8786 214.382 28.1944 214.382 28.1944" stroke="#F04438" stroke-width="2" stroke-linecap="round" stroke-linejoin="round"/>
<defs>
<linearGradient id="paint0_linear_701_13030" x1="108.168" y1="1" x2="108.168" y2="68.9908" gradientUnits="userSpaceOnUse">
<stop stop-color="#F04438" stop-opacity="0.3"/>
<stop offset="1" stop-color="white" stop-opacity="0"/>
</linearGradient>
</defs>
</svg>
