<svg width="118" height="118" viewBox="0 0 118 118" fill="none" xmlns="http://www.w3.org/2000/svg">
<path d="M118 59C118 91.5848 91.5848 118 59 118C26.4152 118 0 91.5848 0 59C0 26.4152 26.4152 0 59 0C91.5848 0 118 26.4152 118 59ZM29.5 59C29.5 75.2924 42.7076 88.5 59 88.5C75.2924 88.5 88.5 75.2924 88.5 59C88.5 42.7076 75.2924 29.5 59 29.5C42.7076 29.5 29.5 42.7076 29.5 59Z" fill="#E5EAFF"/>
<path d="M59 0C71.4596 1.48579e-07 83.5993 3.94444 93.6793 11.268C103.759 18.5916 111.262 28.9182 115.112 40.768L87.0562 49.884C85.1311 43.9591 81.3797 38.7958 76.3397 35.134C71.2997 31.4722 65.2298 29.5 59 29.5V0Z" fill="#0530A1"/>
<path d="M115.112 40.768C118.475 51.1164 118.91 62.193 116.37 72.7733C113.83 83.3535 108.413 93.0253 100.719 100.719C93.0253 108.413 83.3536 113.83 72.7733 116.37C62.193 118.91 51.1164 118.475 40.768 115.112L49.884 87.0562C55.0582 88.7374 60.5965 88.955 65.8866 87.6849C71.1768 86.4149 76.0127 83.7066 79.8596 79.8596C83.7066 76.0127 86.4149 71.1768 87.6849 65.8866C88.955 60.5965 88.7374 55.0582 87.0562 49.884L115.112 40.768Z" fill="#0530A1"/>
<path d="M40.768 115.112C28.9182 111.262 18.5915 103.759 11.268 93.6793L35.134 76.3397C38.7958 81.3797 43.9591 85.1311 49.884 87.0562L40.768 115.112Z" fill="#0530A1"/>
<path d="M11.268 93.6793C2.44741 81.5388 -1.41558 66.4935 0.465234 51.6053L29.7326 55.3027C28.7922 62.7467 30.7237 70.2694 35.134 76.3397L11.268 93.6793Z" fill="#0530A1"/>
</svg>
