<svg width="17" height="16" viewBox="0 0 17 16" fill="none" xmlns="http://www.w3.org/2000/svg">
<path d="M8.83598 12.6157C8.83598 12.1555 9.20907 11.7824 9.66931 11.7824H15.5026C15.9629 11.7824 16.336 12.1555 16.336 12.6157C16.336 13.0759 15.9629 13.449 15.5026 13.449H9.66931C9.20907 13.449 8.83598 13.0759 8.83598 12.6157Z" fill="#0530A1"/>
<path d="M9.66931 2.81163C9.20907 2.81163 8.83598 3.18472 8.83598 3.64496C8.83598 4.1052 9.20907 4.47829 9.66931 4.47829H15.5026C15.9629 4.47829 16.336 4.1052 16.336 3.64496C16.336 3.18472 15.9629 2.81163 15.5026 2.81163H9.66931Z" fill="#0530A1"/>
<path fill-rule="evenodd" clip-rule="evenodd" d="M1.73326 0.520752C0.822391 0.520752 0.0839844 1.25863 0.0839844 2.16885V5.12116C0.0839844 6.03138 0.822391 6.76926 1.73326 6.76926H4.68471C5.59558 6.76926 6.33398 6.03138 6.33398 5.12116V2.16885C6.33398 1.25863 5.59558 0.520752 4.68471 0.520752H1.73326ZM1.73326 2.16885H4.68471V5.12116H1.73326V2.16885Z" fill="#0530A1"/>
<path d="M4.63582 9.91386C4.96405 9.58436 5.49621 9.58436 5.82444 9.91386C6.15267 10.2434 6.15267 10.7776 5.82444 11.1071L4.37747 12.5597L5.87541 14.0629C6.20364 14.3924 6.20364 14.9266 5.87541 15.2561C5.54718 15.5857 5.01502 15.5857 4.68679 15.2561L3.18885 13.753L1.72304 15.2246C1.39481 15.5541 0.862649 15.5541 0.534421 15.2246C0.206191 14.8951 0.206191 14.3608 0.534421 14.0313L2.00023 12.5597L0.585318 11.1388C0.257089 10.8092 0.257089 10.275 0.585318 9.94551C0.913547 9.616 1.44571 9.616 1.77394 9.94551L3.18885 11.3665L4.63582 9.91386Z" fill="#0530A1"/>
</svg>
