<svg width="20" height="20" viewBox="0 0 20 20" fill="none" xmlns="http://www.w3.org/2000/svg">
<path d="M17.0827 13.3333V15.4167C17.0827 17.025 15.7743 18.3333 14.166 18.3333H5.83268C4.22435 18.3333 2.91602 17.025 2.91602 15.4167V14.875C2.91602 13.5667 3.98268 12.5 5.29102 12.5H16.2493C16.7077 12.5 17.0827 12.875 17.0827 13.3333Z" fill="#2F52FF"/>
<path d="M12.916 1.66675H7.08268C3.74935 1.66675 2.91602 2.50008 2.91602 5.83341V12.1501C3.54935 11.5917 4.38268 11.2501 5.29102 11.2501H16.2493C16.7077 11.2501 17.0827 10.8751 17.0827 10.4167V5.83341C17.0827 2.50008 16.2493 1.66675 12.916 1.66675ZM10.8327 8.95841H6.66602C6.32435 8.95841 6.04102 8.67508 6.04102 8.33341C6.04102 7.99175 6.32435 7.70841 6.66602 7.70841H10.8327C11.1743 7.70841 11.4577 7.99175 11.4577 8.33341C11.4577 8.67508 11.1743 8.95841 10.8327 8.95841ZM13.3327 6.04175H6.66602C6.32435 6.04175 6.04102 5.75841 6.04102 5.41675C6.04102 5.07508 6.32435 4.79175 6.66602 4.79175H13.3327C13.6743 4.79175 13.9577 5.07508 13.9577 5.41675C13.9577 5.75841 13.6743 6.04175 13.3327 6.04175Z" fill="#2F52FF"/>
</svg>
