<svg width="36" height="36" viewBox="0 0 36 36" fill="none" xmlns="http://www.w3.org/2000/svg">
<path d="M18 15.8392C20.9823 15.8392 23.4 13.4215 23.4 10.4392C23.4 7.45685 20.9823 5.03918 18 5.03918C15.0177 5.03918 12.6 7.45685 12.6 10.4392C12.6 13.4215 15.0177 15.8392 18 15.8392Z" fill="#0530A1"/>
<path d="M11.7354 12.4805C11.7354 14.726 9.91507 16.5464 7.66955 16.5464C5.42403 16.5464 3.60367 14.726 3.60367 12.4805C3.60367 10.235 5.42403 8.41462 7.66955 8.41462C9.91507 8.41462 11.7354 10.235 11.7354 12.4805Z" fill="#0530A1"/>
<path d="M17.9997 17.4464C13.9947 17.4464 11.5928 18.9372 10.2366 20.9192C8.92586 22.8349 8.71707 26.8295 8.71291 28.0444C8.70871 29.2661 9.68566 30.0636 10.6873 30.0636H25.312C26.3137 30.0636 27.2906 29.2661 27.2864 28.0444C27.2822 26.8295 27.0735 22.8349 25.7628 20.9192C24.4066 18.9372 22.0047 17.4464 17.9997 17.4464Z" fill="#0530A1"/>
<path d="M9.77243 18.623C9.30473 19.0671 8.9 19.5493 8.55188 20.0581C6.95648 22.3898 6.70236 26.8612 6.69728 28.34C6.69626 28.6372 6.74294 28.9137 6.82802 29.1661H1.63056C0.803368 29.1661 -0.0034505 28.5075 1.10989e-05 27.4985C0.0034536 26.4951 0.175888 22.8829 1.25837 21.3009C2.3784 19.6639 4.36201 18.4328 7.66959 18.4328C8.44052 18.4328 9.13952 18.4996 9.77243 18.623Z" fill="#0530A1"/>
<path d="M29.1737 29.1661C29.2587 28.9137 29.3054 28.6372 29.3044 28.34C29.2993 26.8612 29.0452 22.3898 27.4499 20.0581C27.1016 19.5492 26.6968 19.0669 26.2289 18.6226C26.8613 18.4995 27.5596 18.4328 28.3297 18.4328C31.6373 18.4328 33.6209 19.6639 34.741 21.3009C35.8234 22.8829 35.9958 26.4951 35.9993 27.4985C36.0027 28.5075 35.1959 29.1661 34.3687 29.1661H29.1737Z" fill="#0530A1"/>
<path d="M32.3956 12.4805C32.3956 14.726 30.5752 16.5464 28.3297 16.5464C26.0842 16.5464 24.2638 14.726 24.2638 12.4805C24.2638 10.235 26.0842 8.41462 28.3297 8.41462C30.5752 8.41462 32.3956 10.235 32.3956 12.4805Z" fill="#0530A1"/>
</svg>
