<svg width="18" height="17" viewBox="0 0 18 17" fill="none" xmlns="http://www.w3.org/2000/svg">
<path d="M3.16602 7.9023L7.984 10.0651C8.63042 10.3553 9.36828 10.3553 10.0147 10.0651L14.8327 7.9023V13.3874C14.8327 14.5496 12.221 16.3333 8.99935 16.3333C5.77769 16.3333 3.16602 14.5496 3.16602 13.3874V7.9023Z" fill="#2F52FF"/>
<path d="M10.0147 0.717631C9.36828 0.427456 8.63042 0.427456 7.984 0.717632L1.1609 3.78053C0.85996 3.91562 0.666016 4.21705 0.666016 4.54968C0.666016 4.8823 0.85996 5.18373 1.1609 5.31882L7.984 8.38172C8.63042 8.6719 9.36828 8.67189 10.0147 8.38172L16.8378 5.31882C17.1387 5.18373 17.3327 4.8823 17.3327 4.54968C17.3327 4.21705 17.1387 3.91562 16.8378 3.78053L10.0147 0.717631Z" fill="#2F52FF"/>
</svg>
