<svg width="18" height="18" viewBox="0 0 18 18" fill="none" xmlns="http://www.w3.org/2000/svg">
<path fill-rule="evenodd" clip-rule="evenodd" d="M6.00404 2.18184C6.00404 1.34504 6.67456 0.666687 7.50169 0.666687H10.497C11.3241 0.666687 11.9947 1.34504 11.9947 2.18184V2.89057C12.2496 3.01876 12.4954 3.1628 12.7308 3.32142L13.3383 2.9666C14.0546 2.54821 14.9706 2.7965 15.3841 3.52119L16.8818 6.14551C17.2953 6.87019 17.0499 7.79684 16.3336 8.21524L15.7256 8.57036C15.7344 8.71244 15.7388 8.85571 15.7388 9.00002C15.7388 9.14436 15.7344 9.28765 15.7256 9.42976L16.3335 9.7848C17.0498 10.2032 17.2952 11.1298 16.8817 11.8545L15.384 14.4789C14.9704 15.2035 14.0545 15.4518 13.3382 15.0334L12.7308 14.6787C12.4954 14.8373 12.2496 14.9813 11.9947 15.1095V15.8182C11.9947 16.655 11.3241 17.3334 10.497 17.3334H7.50169C6.67456 17.3334 6.00404 16.655 6.00404 15.8182V15.1095C5.74909 14.9813 5.5033 14.8373 5.26793 14.6786L4.66054 15.0334C3.94422 15.4518 3.02827 15.2035 2.6147 14.4788L1.11705 11.8545C0.70348 11.1298 0.948908 10.2032 1.66523 9.78478L2.27307 9.42975C2.26433 9.28764 2.2599 9.14435 2.2599 9.00002C2.2599 8.85571 2.26433 8.71245 2.27306 8.57037L1.66509 8.21526C0.948776 7.79686 0.703347 6.87021 1.11691 6.14552L2.61457 3.5212C3.02813 2.79652 3.94409 2.54822 4.6604 2.96662L5.26787 3.32143C5.50325 3.1628 5.74906 3.01876 6.00404 2.89057V2.18184ZM8.99955 12.7879C11.0674 12.7879 12.7437 11.092 12.7437 9.00002C12.7437 6.90803 11.0674 5.21214 8.99955 5.21214C6.93172 5.21214 5.25541 6.90803 5.25541 9.00002C5.25541 11.092 6.93172 12.7879 8.99955 12.7879Z" fill="#2F52FF"/>
<path d="M11.246 9.00002C11.246 10.2552 10.2402 11.2727 8.99955 11.2727C7.75885 11.2727 6.75307 10.2552 6.75307 9.00002C6.75307 7.74483 7.75885 6.72729 8.99955 6.72729C10.2402 6.72729 11.246 7.74483 11.246 9.00002Z" fill="#2F52FF"/>
</svg>
