<svg width="98" height="98" viewBox="0 0 98 98" fill="none" xmlns="http://www.w3.org/2000/svg">
<rect width="44.6239" height="54.6314" rx="5.52715" transform="matrix(0.885836 0.463999 -0.474972 0.880001 58.4707 8.44531)" fill="#FFF4E1"/>
<path d="M85.4719 20.0882C85.6168 19.8196 85.9536 19.7166 86.224 19.8583L94.3144 24.096C94.5848 24.2377 94.6865 24.5702 94.5415 24.8389L88.5824 35.8795C88.3566 36.298 87.7395 36.261 87.5723 35.819L85.9235 31.4592C85.8306 31.2135 85.5743 31.0685 85.3122 31.1133L80.0465 32.0138C79.5916 32.0915 79.2481 31.6192 79.466 31.2155L85.4719 20.0882Z" fill="#FFAB6E"/>
<rect width="58.3166" height="72.214" rx="5.52715" transform="matrix(0.832893 -0.553434 0.564957 0.825121 2.30469 32.2744)" fill="#F19A5B"/>
<rect width="58.433" height="72.0679" rx="5.52715" transform="matrix(0.908708 -0.417433 0.42784 0.903855 0 32.8611)" fill="#FDB858"/>
<path d="M2.36473 37.8568C1.05873 35.0978 2.24868 31.8281 5.02256 30.5539L7.01302 29.6395L37.8466 94.7784L35.8561 95.6928C33.0822 96.967 29.7748 95.7633 28.4688 93.0043L2.36473 37.8568Z" fill="#FFF4E1"/>
<rect width="31.9728" height="18.5629" rx="2.76357" transform="matrix(0.908708 -0.417433 0.42784 0.903855 21.1699 35.8325)" fill="#FFF4E1"/>
</svg>
