<svg width="24" height="24" viewBox="0 0 24 24" fill="none" xmlns="http://www.w3.org/2000/svg">
<path fill-rule="evenodd" clip-rule="evenodd" d="M3 2.99272C3 2.44445 3.44716 2 3.99876 2H12.9876C13.5392 2 13.9863 2.44445 13.9863 2.99272V14.9053C13.9863 15.4536 13.5392 15.898 12.9876 15.898H3.99876C3.44716 15.898 3 15.4536 3 14.9053V2.99272ZM4.99751 3.98543V13.9126H11.9888V3.98543H4.99751Z" fill="#929292"/>
<path fill-rule="evenodd" clip-rule="evenodd" d="M16.0183 7.20072C16.1624 6.67151 16.7109 6.35864 17.2433 6.50191L21.262 7.58326C21.7934 7.72626 22.1082 8.2698 21.9657 8.79841L18.6053 21.264C18.4625 21.7936 17.9148 22.1078 17.382 21.9659L9.73255 19.9287C9.19975 19.7868 8.88356 19.2424 9.02632 18.7128C9.16909 18.1833 9.71674 17.869 10.2495 18.0109L16.9343 19.7912L19.7784 9.24096L16.7213 8.41835C16.1889 8.27508 15.8741 7.72993 16.0183 7.20072Z" fill="#929292"/>
</svg>
