<svg width="156" height="215" viewBox="0 0 156 215" fill="none" xmlns="http://www.w3.org/2000/svg">
<path d="M62.3744 151.605C63.2557 151.095 63.2557 149.442 62.3744 147.913C61.493 146.384 60.0649 145.557 59.1836 146.067L63.8798 145.247C64.9644 145.047 65.3457 145.849 65.459 146.062C65.709 146.536 65.8385 147.302 65.3816 147.812L62.3744 151.605Z" fill="#B8C8F4"/>
<path d="M62.3752 151.605C61.4939 152.115 60.0658 151.288 59.1844 149.759C58.3031 148.23 58.3031 146.577 59.1844 146.067C60.0658 145.557 61.4939 146.384 62.3752 147.913C63.2565 149.442 63.2565 151.095 62.3752 151.605Z" fill="#1C6DF6"/>
<path d="M53.1583 147.924C52.8867 147.924 52.6241 147.773 52.4964 147.51C52.3183 147.144 52.4694 146.702 52.8346 146.523C55.5703 145.186 57.7951 141.561 57.7951 138.444C57.7951 137.052 57.3455 136.004 56.5289 135.492C55.7411 134.999 54.6584 135.045 53.4785 135.622C53.1133 135.801 52.6727 135.649 52.4946 135.283C52.3166 134.917 52.4677 134.476 52.8328 134.297C54.4839 133.49 56.0739 133.47 57.3077 134.241C58.5704 135.031 59.2664 136.524 59.2664 138.444C59.2664 142.13 56.725 146.26 53.4803 147.848C53.376 147.899 53.2662 147.924 53.1583 147.924Z" fill="#121E51"/>
<path d="M30.2754 168.796C30.2754 174.619 38.4339 179.341 48.4972 179.341C58.5605 179.341 66.719 174.619 66.719 168.796V170.013C66.719 175.836 58.5605 180.558 48.4972 180.558C38.4339 180.558 30.2754 175.836 30.2754 170.013V168.796Z" fill="#1C6DF6"/>
<path d="M48.4972 179.34C58.5609 179.34 66.719 174.62 66.719 168.796C66.719 162.973 58.5609 158.252 48.4972 158.252C38.4336 158.252 30.2754 162.973 30.2754 168.796C30.2754 174.62 38.4336 179.34 48.4972 179.34Z" fill="#99C1FD"/>
<path d="M32.0273 163.19C32.0273 168.452 39.3999 172.719 48.4955 172.719C57.5912 172.719 64.9637 168.452 64.9637 163.19V168.796C64.9637 174.058 57.5912 178.326 48.4955 178.326C39.3999 178.326 32.0273 174.058 32.0273 168.796V163.19Z" fill="#69A4FC"/>
<path d="M32.0273 163.189C32.0273 157.927 39.3999 153.66 48.4955 153.66C57.5912 153.66 64.9637 157.927 64.9637 163.189C64.9637 168.452 57.5912 172.719 48.4955 172.719C39.3999 172.719 32.0273 168.454 32.0273 163.189Z" fill="#88BEFF"/>
<path d="M58.8548 153.643C59.7361 153.132 59.7361 151.479 58.8548 149.95C57.9735 148.422 56.5454 147.594 55.6641 148.104L59.0653 146.994C59.9466 146.484 61.0581 147.309 61.6301 148.344C62.1391 149.264 62.2668 150.845 61.3855 151.355L58.8548 153.643Z" fill="#B8C8F4"/>
<path d="M58.8557 153.643C57.9743 154.153 56.5462 153.325 55.6649 151.797C54.7836 150.268 54.7836 148.615 55.6649 148.105C56.5462 147.594 57.9743 148.422 58.8557 149.951C59.737 151.479 59.737 153.132 58.8557 153.643Z" fill="#1C6DF6"/>
<path d="M55.599 155.694C56.4803 155.184 56.4803 153.53 55.599 152.002C54.7176 150.473 53.2895 149.646 52.4082 150.156L55.8094 149.045C56.6907 148.535 57.8023 149.361 58.3742 150.396C58.8832 151.315 59.0109 152.896 58.1296 153.406L55.599 155.694Z" fill="#B8C8F4"/>
<path d="M55.5998 155.694C54.7185 156.204 53.2904 155.377 52.409 153.848C51.5277 152.319 51.5277 150.666 52.409 150.156C53.2904 149.646 54.7185 150.473 55.5998 152.002C56.4811 153.531 56.4811 155.184 55.5998 155.694Z" fill="#1C6DF6"/>
<path d="M51.9798 157.791C52.8611 157.281 52.8611 155.627 51.9798 154.099C51.0985 152.57 49.6704 151.742 48.7891 152.253L52.1902 151.142C53.0716 150.632 54.1831 151.458 54.7551 152.492C55.2641 153.412 55.3918 154.993 54.5105 155.503L51.9798 157.791Z" fill="#121E51"/>
<path d="M51.9807 157.791C51.0993 158.301 49.6712 157.473 48.7899 155.945C47.9086 154.416 47.9086 152.761 48.7899 152.253C49.6712 151.743 51.0993 152.57 51.9807 154.099C52.862 155.627 52.862 157.281 51.9807 157.791Z" fill="#006272"/>
<path d="M44.2695 150.554C44.2695 151.906 46.1635 153.001 48.4981 153.001C50.8327 153.001 52.7266 151.904 52.7266 150.554V160.806C52.7266 162.158 50.8327 163.253 48.4981 163.253C46.1635 163.253 44.2695 162.157 44.2695 160.806V150.554Z" fill="#1C6DF6"/>
<path d="M44.2656 147.237C44.2656 148.589 46.1596 149.684 48.4942 149.684C50.8288 149.684 52.7227 148.588 52.7227 147.237V150.554C52.7227 151.906 50.8288 153.001 48.4942 153.001C46.1596 153.001 44.2656 151.905 44.2656 150.554V147.237Z" fill="#3C94A3"/>
<path d="M44.2656 147.237C44.2656 145.885 46.1596 144.791 48.4942 144.791C50.8288 144.791 52.7227 145.887 52.7227 147.237C52.7227 148.589 50.8288 149.684 48.4942 149.684C46.1596 149.684 44.2656 148.588 44.2656 147.237Z" fill="#2B6C81"/>
<path d="M45.9102 144.564C45.9102 145.391 47.0685 146.062 48.4984 146.062C49.9283 146.062 51.0866 145.391 51.0866 144.564V146.594C51.0866 147.421 49.9283 148.092 48.4984 148.092C47.0685 148.092 45.9102 147.421 45.9102 146.594V144.564Z" fill="#3C94A3"/>
<path d="M45.9102 144.564C45.9102 143.736 47.0685 143.065 48.4984 143.065C49.9283 143.065 51.0866 143.736 51.0866 144.564C51.0866 145.391 49.9283 146.062 48.4984 146.062C47.0685 146.06 45.9102 145.389 45.9102 144.564Z" fill="#2B6C81"/>
<path d="M43.1641 146.804C43.1641 148.508 45.5508 149.889 48.4952 149.889C51.4395 149.889 53.8263 148.508 53.8263 146.804V150.987C53.8263 152.69 51.4395 154.071 48.4952 154.071C45.5508 154.071 43.1641 152.69 43.1641 150.987V146.804Z" fill="#69A4FC"/>
<path d="M43.1641 146.804C43.1641 145.101 45.5508 143.72 48.4952 143.72C51.4395 143.72 53.8263 145.101 53.8263 146.804C53.8263 148.508 51.4395 149.889 48.4952 149.889C45.5508 149.889 43.1641 148.508 43.1641 146.804Z" fill="#88BEFF"/>
<path d="M45.9102 144.564C45.9102 145.391 47.0685 146.062 48.4984 146.062C49.9283 146.062 51.0866 145.391 51.0866 144.564V146.594C51.0866 147.421 49.9283 148.092 48.4984 148.092C47.0685 148.092 45.9102 147.421 45.9102 146.594V144.564Z" fill="#1C6DF6"/>
<path d="M45.9102 144.564C45.9102 143.736 47.0685 143.065 48.4984 143.065C49.9283 143.065 51.0866 143.736 51.0866 144.564C51.0866 145.391 49.9283 146.062 48.4984 146.062C47.0685 146.06 45.9102 145.389 45.9102 144.564Z" fill="#2B6C81"/>
<path d="M44.2656 141.472C44.2656 142.824 46.1596 143.918 48.4942 143.918C50.8288 143.918 52.7227 142.822 52.7227 141.472V144.789C52.7227 146.141 50.8288 147.236 48.4942 147.236C46.1596 147.236 44.2656 146.139 44.2656 144.789V141.472Z" fill="#69A4FC"/>
<path d="M44.2656 141.472C44.2656 140.12 46.1596 139.026 48.4942 139.026C50.8288 139.026 52.7227 140.122 52.7227 141.472C52.7227 142.824 50.8288 143.919 48.4942 143.919C46.1596 143.92 44.2656 142.824 44.2656 141.472Z" fill="#1C6DF6"/>
<path d="M45.9082 138.798C45.9082 139.626 47.0665 140.296 48.4964 140.296C49.9263 140.296 51.0846 139.626 51.0846 138.798V140.828C51.0846 141.656 49.9263 142.326 48.4964 142.326C47.0665 142.326 45.9082 141.656 45.9082 140.828V138.798Z" fill="#3C94A3"/>
<path d="M45.9082 138.798C45.9082 137.971 47.0665 137.3 48.4964 137.3C49.9263 137.3 51.0846 137.971 51.0846 138.798C51.0846 139.626 49.9263 140.296 48.4964 140.296C47.0665 140.296 45.9082 139.626 45.9082 138.798Z" fill="#2B6C81"/>
<path d="M42.248 135.209C42.248 137.207 45.0467 138.827 48.5001 138.827C51.9534 138.827 54.7521 137.208 54.7521 135.209V138.798C54.7521 140.796 51.9534 142.417 48.5001 142.417C45.0467 142.417 42.248 140.798 42.248 138.798V135.209Z" fill="#69A4FC"/>
<path d="M42.248 135.209C42.248 133.212 45.0467 131.591 48.5001 131.591C51.9534 131.591 54.7521 133.21 54.7521 135.209C54.7521 137.207 51.9534 138.827 48.5001 138.827C45.0467 138.827 42.248 137.207 42.248 135.209Z" fill="#88BEFF"/>
<path d="M51.358 136.333C50.626 136.756 49.6152 137.018 48.4982 137.018C46.2644 137.018 44.4531 135.97 44.4531 134.678V131.061C44.4531 132.354 46.2644 133.401 48.4982 133.401C49.6152 133.401 50.626 133.14 51.358 132.716C52.0901 132.293 52.5433 131.707 52.5433 131.061V134.678C52.5433 135.325 52.0901 135.909 51.358 136.333Z" fill="#1C6DF6"/>
<path d="M51.358 132.716C50.626 133.14 49.6152 133.401 48.4982 133.401C46.2644 133.401 44.4531 132.354 44.4531 131.061C44.4531 130.414 44.9064 129.83 45.6384 129.406C46.3705 128.983 47.3813 128.721 48.4982 128.721C50.7321 128.721 52.5433 129.769 52.5433 131.061C52.5433 131.707 52.0901 132.292 51.358 132.716Z" fill="#2B6C81"/>
<path d="M43.1973 119.177C43.1973 120.87 45.5697 122.242 48.4942 122.242C51.4206 122.242 53.7911 120.87 53.7911 119.177V131.061C53.7911 132.754 51.4188 134.126 48.4942 134.126C45.5679 134.126 43.1973 132.754 43.1973 131.061V119.177Z" fill="#69A4FC"/>
<path d="M43.1973 119.177C43.1973 117.485 45.5697 116.113 48.4942 116.113C51.4206 116.113 53.7911 117.485 53.7911 119.177C53.7911 120.87 51.4188 122.242 48.4942 122.242C45.5679 122.242 43.1973 120.87 43.1973 119.177Z" fill="#88BEFF"/>
<path d="M48.4942 121.334C46.4888 121.334 44.8574 120.366 44.8574 119.178C44.8574 117.988 46.4888 117.022 48.4942 117.022C50.4997 117.022 52.1311 117.988 52.1311 119.178C52.1311 120.366 50.4997 121.334 48.4942 121.334ZM48.4942 117.267C46.6237 117.267 45.102 118.123 45.102 119.178C45.102 120.231 46.6237 121.089 48.4942 121.089C50.3648 121.089 51.8864 120.232 51.8864 119.178C51.8864 118.123 50.3648 117.267 48.4942 117.267Z" fill="#1C6DF6"/>
<path d="M41.7085 153.04C40.9711 153.04 40.284 152.851 39.6815 152.474C38.4189 151.685 37.7246 150.192 37.7246 148.272C37.7246 144.585 40.2661 140.455 43.5108 138.869C43.8759 138.69 44.3165 138.842 44.4946 139.208C44.6727 139.574 44.5216 140.015 44.1565 140.194C41.4208 141.531 39.1959 145.157 39.1959 148.272C39.1959 149.664 39.6455 150.713 40.4621 151.223C41.2499 151.715 42.3327 151.67 43.5126 151.093C43.8777 150.915 44.3184 151.066 44.4964 151.432C44.6745 151.798 44.5234 152.24 44.1583 152.418C43.3111 152.833 42.482 153.04 41.7085 153.04Z" fill="#121E51"/>
<path d="M45.0851 161.088C45.8981 160.617 45.8981 159.094 45.0851 157.682C44.2721 156.273 42.9556 155.51 42.1426 155.98L44.0869 154.856C44.8999 154.385 46.2164 155.148 47.0294 156.557C47.8424 157.967 47.8424 159.492 47.0294 159.963L45.0851 161.088Z" fill="#121E51"/>
<path d="M45.0835 161.088C44.2706 161.558 42.954 160.795 42.141 159.386C41.328 157.976 41.328 156.451 42.141 155.98C42.954 155.51 44.2706 156.272 45.0835 157.682C45.8947 159.094 45.8947 160.617 45.0835 161.088Z" fill="#202A5F"/>
<path d="M42.6161 160.596C42.9704 160.39 42.9704 159.723 42.6161 159.107C42.2618 158.49 41.6844 158.157 41.3301 158.362L42.7546 157.538C43.1089 157.333 43.6863 157.666 44.0406 158.283C44.3949 158.899 44.3949 159.566 44.0406 159.772L42.6161 160.596Z" fill="#121E51"/>
<path d="M42.6143 160.596C42.2599 160.801 41.6826 160.468 41.3282 159.851C40.9739 159.234 40.9739 158.567 41.3282 158.362C41.6844 158.156 42.2599 158.49 42.6143 159.106C42.9704 159.723 42.9704 160.39 42.6143 160.596Z" fill="#B8C8F4"/>
<path d="M41.3914 161.939C41.8968 161.645 41.8968 160.696 41.3914 159.817C40.886 158.939 40.064 158.463 39.5586 158.757L40.4147 158.261C40.9201 157.969 41.7421 158.443 42.2475 159.321C42.7529 160.199 42.7529 161.149 42.2475 161.443L41.3914 161.939Z" fill="#69A4FC"/>
<path d="M41.3915 161.938C40.8861 162.23 40.0642 161.756 39.5587 160.878C39.0533 160 39.0533 159.05 39.5587 158.757C40.0642 158.465 40.8861 158.939 41.3915 159.817C41.8969 160.695 41.8969 161.645 41.3915 161.938Z" fill="#00ABAC"/>
<path d="M39.9191 166.995C41.4282 166.121 41.4282 163.289 39.9191 160.668C38.4101 158.046 35.9622 156.631 34.4531 157.504L36.1312 156.532C37.6403 155.658 40.0882 157.075 41.5972 159.696C43.1063 162.317 43.1063 165.149 41.5972 166.023L39.9191 166.995Z" fill="#99C1FD"/>
<path d="M39.9181 166.995C38.4091 167.87 35.9611 166.453 34.4521 163.831C32.9431 161.21 32.9431 158.378 34.4521 157.504C35.9611 156.629 38.4091 158.046 39.9181 160.668C41.4272 163.289 41.4272 166.123 39.9181 166.995Z" fill="#69A4FC"/>
<path d="M48.4973 119.178C48.4973 119.178 42.6176 118.462 44.9828 111.766C46.0206 108.828 48.4973 105.01 48.4973 105.01C48.4973 105.01 51.5748 109.289 52.0118 112.873C52.4471 116.455 52.0118 118.235 48.4973 119.178Z" fill="#FEB30F"/>
<path opacity="0.67" d="M48.4434 119.066C48.4434 119.066 45.3624 118 46.411 114.643C47.5405 111.027 48.4111 109.864 48.0729 110.405C48.0729 110.405 50.2115 112.709 50.3338 114.735C50.4561 116.764 50.2187 118.703 48.4434 119.066Z" fill="#FBC22C"/>
<path opacity="0.67" d="M48.574 118.707C48.574 118.707 47.1603 118.218 47.6405 116.677C48.1585 115.017 48.5596 114.483 48.4031 114.732C48.4031 114.732 49.3852 115.79 49.441 116.72C49.4985 117.649 49.3906 118.539 48.574 118.707Z" fill="#F2DBD1"/>
<path d="M84.0342 86.1692L71.1992 93.5965V123.782L84.0342 116.354V86.1692Z" fill="#99C1FD"/>
<path d="M71.2012 93.5967L69.5879 92.6628V122.848L71.2012 123.782V93.5967Z" fill="#5195FB"/>
<path d="M84.0362 86.1692L82.4229 85.2354L69.5879 92.6627L71.2012 93.5965L84.0362 86.1692Z" fill="#C9DEFE"/>
<path d="M79.0176 118.943C79.0176 118.321 79.4277 117.697 80.2478 117.223C81.8882 116.275 84.5483 116.275 86.1887 117.223C87.0089 117.697 87.4189 118.319 87.4189 118.941V120.127C87.4189 119.505 87.0089 118.883 86.1887 118.409C84.5483 117.459 81.8882 117.459 80.2478 118.409C79.4277 118.883 79.0176 119.505 79.0176 120.129V118.943Z" fill="#5195FB"/>
<path d="M83.1824 124.27L74.0508 118.986V120.17L83.1824 125.454V124.27Z" fill="#7788BD"/>
<path d="M83.1824 124.27L92.4237 118.923L83.2921 113.639L74.0508 118.986L83.1824 124.27ZM80.2489 120.663C78.6085 119.714 78.6085 118.173 80.2489 117.225C81.8892 116.277 84.5493 116.277 86.1897 117.225C87.83 118.173 87.83 119.714 86.1897 120.663C84.5493 121.611 81.8892 121.611 80.2489 120.663Z" fill="#C9DEFE"/>
<path d="M88.1172 124.207C88.1172 123.585 88.5273 122.961 89.3474 122.487C90.9878 121.539 93.6479 121.539 95.2883 122.487C96.1085 122.961 96.5185 123.583 96.5185 124.205V125.392C96.5185 124.77 96.1085 124.148 95.2883 123.674C93.6479 122.725 90.9878 122.725 89.3474 123.674C88.5273 124.148 88.1172 124.771 88.1172 125.393V124.207Z" fill="#5195FB"/>
<path d="M92.3351 129.565L83.1855 124.27V125.455L92.3351 130.749V129.565Z" fill="#7788BD"/>
<path d="M92.3332 129.565L101.575 124.218L92.4249 118.923L83.1836 124.27L92.3332 129.565ZM89.3439 125.925C87.7035 124.977 87.7035 123.436 89.3439 122.487C90.9842 121.539 93.6444 121.539 95.2847 122.487C96.9251 123.437 96.9251 124.977 95.2847 125.925C93.6462 126.873 90.9842 126.873 89.3439 125.925Z" fill="#C9DEFE"/>
<path d="M97.2109 129.47C97.2109 128.848 97.621 128.224 98.4412 127.75C100.082 126.802 102.742 126.802 104.382 127.75C105.202 128.224 105.612 128.846 105.612 129.468V130.654C105.612 130.032 105.202 129.41 104.382 128.936C102.742 127.988 100.082 127.988 98.4412 128.936C97.621 129.41 97.2109 130.034 97.2109 130.656V129.47Z" fill="#5195FB"/>
<path d="M101.486 134.86L92.3359 129.565V130.75L101.486 136.044V134.86Z" fill="#7788BD"/>
<path d="M92.3359 129.565L101.486 134.86L110.727 129.511L101.577 124.216L92.3359 129.565ZM98.4422 131.188C96.8019 130.239 96.8019 128.698 98.4422 127.75C100.083 126.801 102.743 126.801 104.383 127.75C106.023 128.698 106.023 130.239 104.383 131.188C102.743 132.138 100.083 132.138 98.4422 131.188Z" fill="#C9DEFE"/>
<path d="M106.311 134.733C106.311 134.111 106.721 133.487 107.541 133.013C109.181 132.065 111.841 132.065 113.482 133.013C114.302 133.487 114.712 134.109 114.712 134.731V135.917C114.712 135.295 114.302 134.674 113.482 134.199C111.841 133.249 109.181 133.249 107.541 134.199C106.721 134.674 106.311 135.295 106.311 135.919V134.733Z" fill="#5195FB"/>
<path d="M110.638 140.154L101.486 134.859V136.044L110.638 141.34V140.154Z" fill="#7788BD"/>
<path d="M110.732 129.51L101.49 134.859L110.64 140.154L119.881 134.805L110.732 129.51ZM113.482 133.013C115.122 133.961 115.122 135.503 113.482 136.451C111.841 137.399 109.181 137.399 107.541 136.451C105.9 135.503 105.9 133.961 107.541 133.013C109.181 132.063 111.841 132.063 113.482 133.013Z" fill="#C9DEFE"/>
<path d="M115.398 139.995C115.398 139.374 115.809 138.75 116.629 138.276C118.269 137.327 120.929 137.327 122.57 138.276C123.39 138.75 123.8 139.372 123.8 139.994V141.18C123.8 140.558 123.39 139.936 122.57 139.462C120.929 138.514 118.269 138.514 116.629 139.462C115.809 139.936 115.398 140.56 115.398 141.182V139.995Z" fill="#5195FB"/>
<path d="M129.28 140.25L120.037 145.598V146.783L129.28 141.436V140.25Z" fill="#C9DEFE"/>
<path d="M120.04 145.598L110.635 140.154V141.34L120.04 146.783V145.598Z" fill="#7788BD"/>
<path d="M119.878 134.807L110.637 140.156L120.044 145.6L129.285 140.251L119.878 134.807ZM122.572 138.276C124.213 139.226 124.213 140.765 122.572 141.713C120.932 142.662 118.272 142.662 116.632 141.713C114.991 140.765 114.991 139.224 116.632 138.276C118.272 137.327 120.934 137.327 122.572 138.276Z" fill="#C9DEFE"/>
<path d="M77.7012 104.517C77.7012 103.895 78.1112 103.273 78.9314 102.797C80.5718 101.847 83.2319 101.847 84.8723 102.797C85.6924 103.272 86.1025 103.894 86.1025 104.516V105.702C86.1025 105.08 85.6924 104.458 84.8723 103.984C83.2319 103.035 80.5718 103.035 78.9314 103.984C78.1112 104.458 77.7012 105.082 77.7012 105.704V104.517Z" fill="#5195FB"/>
<path d="M84.873 102.8C83.2327 101.849 80.5725 101.849 78.9321 102.8C77.799 103.456 77.4501 104.393 77.8818 105.222L72.9355 104.678L82.1769 99.3311L91.5836 104.774L85.8479 105.347C86.3856 104.487 86.0637 103.488 84.873 102.8Z" fill="#C9DEFE"/>
<path d="M78.2559 117.687C78.2559 119.61 79.8117 120.643 81.7308 120.643C83.6499 120.643 85.2057 119.61 85.2057 117.687C85.2057 115.763 83.6499 114.204 81.7308 114.204C79.8117 114.204 78.2559 115.763 78.2559 117.687Z" fill="#81B2FC"/>
<path d="M78.252 94.6245V117.541C78.252 118.652 79.806 119.551 81.7251 119.551C83.4985 119.551 84.9608 118.783 85.1731 117.79C85.191 117.707 85.2 117.626 85.2 117.541V94.6245C85.2 95.735 83.6442 96.6346 81.7251 96.6346C79.806 96.6346 78.252 95.7332 78.252 94.6245Z" fill="#B1D0FE"/>
<path d="M78.252 94.6244V117.541C78.252 118.651 79.806 119.551 81.7251 119.551C83.4985 119.551 84.9608 118.783 85.1731 117.79C85.0508 117.903 84.9105 118.017 84.7504 118.121C83.664 118.846 82.0722 118.121 81.0596 114.712C80.047 111.302 80.047 98.1704 80.047 98.1704C80.047 98.1704 80.047 98.1704 83.0867 97.4439C84.0957 97.2023 84.7612 96.7155 85.2 96.1621V94.6226C85.2 95.7331 83.6442 96.6326 81.7251 96.6326C79.806 96.6344 78.252 95.7331 78.252 94.6244Z" fill="#81B2FC"/>
<path d="M85.202 94.6243C85.202 93.5138 83.6462 92.6143 81.727 92.6143C79.8079 92.6143 78.2539 93.5138 78.2539 94.6243C78.2539 95.7348 79.8097 96.6344 81.727 96.6344C83.6462 96.6344 85.202 95.7348 85.202 94.6243Z" fill="#81B2FC"/>
<path d="M77.6758 94.6242C77.6758 93.1712 79.4564 92.0337 81.7281 92.0337C84.0015 92.0337 85.7821 93.1712 85.7821 94.6242C85.7821 96.0773 84.0015 97.2148 81.7281 97.2148C79.4564 97.2148 77.6758 96.0773 77.6758 94.6242ZM78.8341 94.6242C78.8341 95.3003 80.0715 96.0538 81.7299 96.0538C83.3864 96.0538 84.6257 95.2985 84.6257 94.6242C84.6257 93.95 83.3882 93.1947 81.7299 93.1947C80.0715 93.1929 78.8341 93.9482 78.8341 94.6242Z" fill="#E1EDFF"/>
<path d="M84.3406 98.001V107.336C84.3406 107.336 84.2921 110.528 83.8097 110.141C83.3273 109.753 83.4191 106.997 83.4191 106.997V98.4354C83.4191 98.4354 83.9393 98.4859 84.3406 98.001Z" fill="white"/>
<path d="M91.583 104.771L82.3398 110.12V111.305L91.583 105.958V104.771Z" fill="#C9DEFE"/>
<path d="M82.3425 110.12L72.9375 104.678V105.862L82.3425 111.305V110.12Z" fill="#7788BD"/>
<path d="M77.8837 105.222C78.078 105.594 78.4269 105.943 78.9341 106.237C80.5744 107.187 83.2346 107.187 84.8749 106.237C85.3246 105.976 85.6466 105.671 85.8498 105.347L91.5856 104.773L82.3443 110.122L72.9375 104.678L77.8837 105.222Z" fill="#C9DEFE"/>
<path d="M87.1289 109.973C87.1289 109.351 87.539 108.727 88.3591 108.253C89.9995 107.305 92.6597 107.305 94.3 108.253C95.1202 108.727 95.5302 109.349 95.5302 109.971V111.157C95.5302 110.535 95.1202 109.914 94.3 109.439C92.6597 108.489 89.9995 108.489 88.3591 109.439C87.539 109.914 87.1289 110.535 87.1289 111.159V109.973Z" fill="#5195FB"/>
<path d="M94.3007 108.253C92.6604 107.305 90.0002 107.305 88.3599 108.253C87.2267 108.909 86.8778 109.847 87.3095 110.676L82.3633 110.132L91.6046 104.785L101.011 110.229L95.2756 110.802C95.8115 109.941 95.4896 108.942 94.3007 108.253Z" fill="#C9DEFE"/>
<path d="M87.6816 123.14C87.6816 125.063 89.2375 126.096 91.1566 126.096C93.0757 126.096 94.6315 125.063 94.6315 123.14C94.6315 121.216 93.0757 119.657 91.1566 119.657C89.2375 119.657 87.6816 121.216 87.6816 123.14Z" fill="#81B2FC"/>
<path d="M87.6855 100.077V122.994C87.6855 124.104 89.2396 125.004 91.1587 125.004C92.9321 125.004 94.3944 124.236 94.6066 123.243C94.6246 123.162 94.6336 123.079 94.6336 122.994V100.077C94.6336 101.188 93.0778 102.087 91.1587 102.087C89.2414 102.087 87.6855 101.186 87.6855 100.077Z" fill="#B1D0FE"/>
<path d="M87.6855 100.077V122.994C87.6855 124.104 89.2396 125.004 91.1587 125.004C92.9321 125.004 94.3944 124.236 94.6066 123.243C94.4825 123.356 94.3423 123.47 94.184 123.574C93.0976 124.299 91.5058 123.574 90.4932 120.165C89.4806 116.755 89.4806 103.623 89.4806 103.623C89.4806 103.623 89.4805 103.623 92.5202 102.899C93.5292 102.657 94.1948 102.17 94.6336 101.617V100.077C94.6336 101.188 93.0778 102.087 91.1587 102.087C89.2414 102.087 87.6855 101.186 87.6855 100.077Z" fill="#81B2FC"/>
<path d="M94.6317 100.077C94.6317 98.967 93.0759 98.0674 91.1567 98.0674C89.2376 98.0674 87.6836 98.967 87.6836 100.077C87.6836 101.188 89.2394 102.088 91.1567 102.088C93.0741 102.088 94.6317 101.188 94.6317 100.077Z" fill="#81B2FC"/>
<path d="M87.1055 100.077C87.1055 98.6243 88.8861 97.4868 91.1596 97.4868C93.433 97.4868 95.2136 98.6243 95.2136 100.077C95.2136 101.53 93.433 102.668 91.1596 102.668C88.8861 102.668 87.1055 101.53 87.1055 100.077ZM88.2637 100.077C88.2637 100.753 89.5012 101.507 91.1596 101.507C92.8161 101.507 94.0553 100.752 94.0553 100.077C94.0553 99.4031 92.8179 98.6478 91.1596 98.6478C89.503 98.6478 88.2637 99.4013 88.2637 100.077Z" fill="#E1EDFF"/>
<path d="M93.7684 103.454V112.788C93.7684 112.788 93.7198 115.981 93.2374 115.594C92.755 115.206 92.8468 112.45 92.8468 112.45V103.888C92.8468 103.888 93.367 103.939 93.7684 103.454Z" fill="white"/>
<path d="M101.011 110.225L91.7695 115.574V116.76L101.011 111.411V110.225Z" fill="#C9DEFE"/>
<path d="M91.7701 115.574L82.3633 110.129V111.316L91.7701 116.76V115.574Z" fill="#7788BD"/>
<path d="M87.3095 110.676C87.5037 111.047 87.8526 111.397 88.3599 111.691C90.0002 112.639 92.6604 112.639 94.3007 111.691C94.7504 111.429 95.0723 111.125 95.2756 110.8L101.011 110.227L91.7701 115.574L82.3633 110.129L87.3095 110.676Z" fill="#C9DEFE"/>
<path d="M96.5547 115.426C96.5547 114.804 96.9648 114.181 97.7849 113.707C99.4253 112.758 102.085 112.758 103.726 113.707C104.546 114.181 104.956 114.803 104.956 115.425V116.611C104.956 115.989 104.546 115.367 103.726 114.893C102.085 113.945 99.4253 113.945 97.7849 114.893C96.9648 115.367 96.5547 115.991 96.5547 116.613V115.426Z" fill="#5195FB"/>
<path d="M103.727 113.707C102.086 112.758 99.426 112.758 97.7857 113.707C96.6526 114.363 96.3036 115.3 96.7353 116.13L91.7891 115.585L101.03 110.236L110.437 115.681L104.701 116.254C105.239 115.394 104.917 114.395 103.727 113.707Z" fill="#C9DEFE"/>
<path d="M97.1055 128.594C97.1055 130.517 98.6613 131.55 100.58 131.55C102.5 131.55 104.055 130.517 104.055 128.594C104.055 126.67 102.5 125.111 100.58 125.111C98.6595 125.111 97.1055 126.67 97.1055 128.594Z" fill="#81B2FC"/>
<path d="M97.1074 105.531V128.448C97.1074 129.558 98.6632 130.458 100.581 130.458C102.354 130.458 103.816 129.69 104.029 128.696C104.047 128.613 104.056 128.532 104.056 128.446V105.531C104.056 106.641 102.5 107.541 100.581 107.541C98.6614 107.541 97.1074 106.64 97.1074 105.531Z" fill="#B1D0FE"/>
<path d="M97.1074 105.531V128.448C97.1074 129.558 98.6632 130.458 100.581 130.458C102.354 130.458 103.816 129.69 104.029 128.696C103.904 128.81 103.764 128.922 103.606 129.028C102.519 129.753 100.928 129.028 99.9151 125.619C98.9025 122.208 98.9025 109.077 98.9025 109.077C98.9025 109.077 98.9025 109.077 101.942 108.352C102.951 108.111 103.617 107.624 104.056 107.071V105.531C104.056 106.641 102.5 107.541 100.581 107.541C98.6614 107.541 97.1074 106.64 97.1074 105.531Z" fill="#81B2FC"/>
<path d="M104.054 105.531C104.054 104.421 102.498 103.521 100.579 103.521C98.6595 103.521 97.1055 104.421 97.1055 105.531C97.1055 106.642 98.6613 107.541 100.579 107.541C102.496 107.541 104.054 106.642 104.054 105.531Z" fill="#81B2FC"/>
<path d="M96.5273 105.531C96.5273 104.078 98.308 102.94 100.581 102.94C102.855 102.94 104.636 104.078 104.636 105.531C104.636 106.984 102.855 108.122 100.581 108.122C98.308 108.122 96.5273 106.984 96.5273 105.531ZM97.6857 105.531C97.6857 106.205 98.9231 106.961 100.581 106.961C102.238 106.961 103.477 106.205 103.477 105.531C103.477 104.857 102.24 104.101 100.581 104.101C98.9231 104.101 97.6857 104.855 97.6857 105.531Z" fill="#E1EDFF"/>
<path d="M103.192 108.908V118.242C103.192 118.242 103.144 121.435 102.661 121.047C102.179 120.66 102.271 117.903 102.271 117.903V109.342C102.271 109.342 102.791 109.393 103.192 108.908Z" fill="white"/>
<path d="M110.435 115.679L101.191 121.027V122.214L110.435 116.865V115.679Z" fill="#C9DEFE"/>
<path d="M101.194 121.027L91.7891 115.585V116.769L101.194 122.214V121.027Z" fill="#7788BD"/>
<path d="M96.7353 116.129C96.9295 116.501 97.2785 116.85 97.7857 117.144C99.426 118.093 102.086 118.093 103.727 117.144C104.176 116.883 104.498 116.578 104.701 116.254L110.437 115.681L101.196 121.027L91.7891 115.585L96.7353 116.129Z" fill="#C9DEFE"/>
<path d="M105.979 120.879C105.979 120.257 106.389 119.635 107.209 119.159C108.849 118.211 111.509 118.211 113.15 119.159C113.97 119.634 114.38 120.255 114.38 120.877V122.064C114.38 121.442 113.97 120.82 113.15 120.346C111.509 119.397 108.849 119.397 107.209 120.346C106.389 120.82 105.979 121.444 105.979 122.065V120.879Z" fill="#5195FB"/>
<path d="M113.148 119.16C111.508 118.211 108.848 118.211 107.208 119.16C106.074 119.816 105.725 120.753 106.157 121.583L101.211 121.038L110.452 115.691L119.859 121.135L114.123 121.709C114.659 120.847 114.337 119.848 113.148 119.16Z" fill="#C9DEFE"/>
<path d="M106.527 134.046C106.527 135.97 108.083 137.003 110.002 137.003C111.921 137.003 113.477 135.97 113.477 134.046C113.477 132.123 111.921 130.563 110.002 130.563C108.083 130.563 106.527 132.123 106.527 134.046Z" fill="#81B2FC"/>
<path d="M106.527 110.984V133.901C106.527 135.011 108.083 135.911 110 135.911C111.774 135.911 113.236 135.143 113.448 134.149C113.466 134.068 113.475 133.985 113.475 133.901V110.984C113.475 112.095 111.92 112.994 110 112.994C108.083 112.994 106.527 112.095 106.527 110.984Z" fill="#B1D0FE"/>
<path d="M106.527 110.984V133.901C106.527 135.011 108.083 135.911 110 135.911C111.774 135.911 113.236 135.143 113.448 134.15C113.324 134.263 113.184 134.377 113.026 134.481C111.939 135.206 110.348 134.481 109.335 131.07C108.322 127.661 108.322 114.528 108.322 114.528C108.322 114.528 108.322 114.528 111.362 113.804C112.371 113.562 113.037 113.075 113.475 112.522V110.982C113.475 112.093 111.92 112.992 110 112.992C108.083 112.994 106.527 112.095 106.527 110.984Z" fill="#81B2FC"/>
<path d="M113.475 110.984C113.475 109.874 111.92 108.974 110 108.974C108.081 108.974 106.527 109.874 106.527 110.984C106.527 112.095 108.083 112.994 110 112.994C111.918 112.994 113.475 112.095 113.475 110.984Z" fill="#81B2FC"/>
<path d="M105.949 110.984C105.949 109.531 107.73 108.394 110.003 108.394C112.277 108.394 114.057 109.531 114.057 110.984C114.057 112.437 112.277 113.575 110.003 113.575C107.73 113.575 105.949 112.437 105.949 110.984ZM107.107 110.984C107.107 111.658 108.345 112.414 110.003 112.414C111.66 112.414 112.899 111.658 112.899 110.984C112.899 110.308 111.662 109.555 110.003 109.555C108.347 109.553 107.107 110.308 107.107 110.984Z" fill="#E1EDFF"/>
<path d="M112.612 114.361V123.695C112.612 123.695 112.564 126.888 112.081 126.501C111.599 126.113 111.691 123.357 111.691 123.357V114.795C111.691 114.795 112.211 114.846 112.612 114.361Z" fill="white"/>
<path d="M119.86 121.133L110.619 126.48V127.666L119.86 122.318V121.133Z" fill="#C9DEFE"/>
<path d="M110.618 126.481L101.211 121.038V122.222L110.618 127.667V126.481Z" fill="#7788BD"/>
<path d="M106.157 121.583C106.351 121.954 106.7 122.304 107.208 122.598C108.848 123.546 111.508 123.546 113.148 122.598C113.598 122.336 113.92 122.031 114.123 121.707L119.859 121.134L110.618 126.481L101.211 121.036L106.157 121.583Z" fill="#C9DEFE"/>
<path d="M115.396 126.333C115.396 125.711 115.807 125.087 116.627 124.613C118.267 123.665 120.927 123.665 122.568 124.613C123.388 125.087 123.798 125.709 123.798 126.331V127.517C123.798 126.895 123.388 126.273 122.568 125.799C120.927 124.851 118.267 124.851 116.627 125.799C115.807 126.273 115.396 126.897 115.396 127.519V126.333Z" fill="#5195FB"/>
<path d="M122.568 124.613C120.928 123.665 118.268 123.665 116.627 124.613C115.494 125.269 115.145 126.207 115.577 127.036L110.631 126.491L119.872 121.145L129.279 126.589L123.543 127.162C124.081 126.3 123.759 125.302 122.568 124.613Z" fill="#C9DEFE"/>
<path d="M115.949 139.5C115.949 141.424 117.505 142.457 119.424 142.457C121.343 142.457 122.899 141.424 122.899 139.5C122.899 137.576 121.343 136.017 119.424 136.017C117.505 136.017 115.949 137.576 115.949 139.5Z" fill="#81B2FC"/>
<path d="M115.945 116.438V139.354C115.945 140.465 117.501 141.364 119.418 141.364C121.192 141.364 122.654 140.596 122.866 139.603C122.884 139.522 122.893 139.439 122.893 139.354V116.438C122.893 117.548 121.338 118.448 119.418 118.448C117.499 118.448 115.945 117.548 115.945 116.438Z" fill="#B1D0FE"/>
<path d="M115.945 116.438V139.354C115.945 140.465 117.501 141.364 119.418 141.364C121.192 141.364 122.654 140.596 122.866 139.603C122.744 139.717 122.602 139.83 122.444 139.935C121.357 140.659 119.766 139.935 118.753 136.524C117.74 133.115 117.74 119.982 117.74 119.982C117.74 119.982 117.74 119.982 120.78 119.255C121.789 119.014 122.455 118.527 122.893 117.974V116.434C122.893 117.545 121.338 118.444 119.418 118.444C117.499 118.444 115.945 117.548 115.945 116.438Z" fill="#81B2FC"/>
<path d="M122.893 116.438C122.893 115.327 121.338 114.428 119.418 114.428C117.499 114.428 115.945 115.327 115.945 116.438C115.945 117.548 117.501 118.448 119.418 118.448C121.336 118.448 122.893 117.548 122.893 116.438Z" fill="#81B2FC"/>
<path d="M115.367 116.438C115.367 114.985 117.148 113.847 119.421 113.847C121.695 113.847 123.475 114.985 123.475 116.438C123.475 117.891 121.695 119.028 119.421 119.028C117.148 119.028 115.367 117.891 115.367 116.438ZM116.526 116.438C116.526 117.112 117.763 117.867 119.421 117.867C121.078 117.867 122.317 117.112 122.317 116.438C122.317 115.763 121.08 115.008 119.421 115.008C117.763 115.008 116.526 115.762 116.526 116.438Z" fill="#E1EDFF"/>
<path d="M122.034 119.814V129.149C122.034 129.149 121.985 132.342 121.503 131.954C121.021 131.566 121.112 128.81 121.112 128.81V120.249C121.112 120.249 121.633 120.299 122.034 119.814Z" fill="white"/>
<path d="M129.28 126.587L120.037 131.934V133.121L129.28 127.772V126.587Z" fill="#C9DEFE"/>
<path d="M120.04 131.934L110.635 126.492V127.676L120.04 133.12V131.934Z" fill="#7788BD"/>
<path d="M115.577 127.036C115.771 127.407 116.12 127.757 116.627 128.051C118.268 129.001 120.928 129.001 122.568 128.051C123.018 127.791 123.34 127.485 123.543 127.16L129.279 126.587L120.038 131.934L110.631 126.49L115.577 127.036Z" fill="#C9DEFE"/>
<path d="M131.524 113.649L118.688 121.076V151.261L131.524 143.834V113.649Z" fill="#99C1FD"/>
<path d="M118.688 121.076L117.074 120.143V150.328L118.688 151.262V121.076Z" fill="#5195FB"/>
<path d="M131.524 113.649L129.911 112.715L117.074 120.142L118.688 121.076L131.524 113.649Z" fill="#C9DEFE"/>
<path d="M48.0352 75.2627V75.3761C48.0424 75.3401 48.0352 75.3023 48.0352 75.2627Z" fill="#1E55AF"/>
<path d="M63.2222 87.2527C63.2222 95.6661 56.4216 102.482 48.0346 102.482C43.4319 102.482 39.3095 100.434 36.5306 97.1984C34.2302 94.5322 32.8398 91.0529 32.8398 87.2527C32.8398 78.8465 39.6404 72.0303 48.0346 72.0303C50.2991 72.0303 52.4574 72.5332 54.3909 73.4256C59.6033 75.8323 63.2222 81.1215 63.2222 87.2527Z" fill="#99C1FD"/>
<path d="M38.3529 78.5204C43.693 75.4305 52.3822 75.4305 57.7205 78.5204C59.0443 79.2866 60.0389 80.1735 60.7062 81.1182C58.4219 76.4004 53.6088 73.1338 48.0367 73.1338C42.4646 73.1338 37.6514 76.4022 35.3672 81.1182C36.0327 80.1717 37.0273 79.2866 38.3529 78.5204Z" fill="#B6D4FF"/>
<path d="M61.707 83.896C61.8114 86.0016 60.4894 88.1252 57.7195 89.7279C52.3794 92.8178 43.692 92.8178 38.3519 89.7279C35.5821 88.1252 34.2619 86.0016 34.3662 83.8978C34.1018 84.9758 33.9453 86.0972 33.9453 87.2563C33.9453 95.0442 40.2657 101.379 48.0357 101.379C55.8058 101.379 62.1261 95.0442 62.1261 87.2563C62.1261 86.0954 61.9714 84.974 61.707 83.896Z" fill="#FC7464"/>
<path d="M34.3672 83.896C34.6048 82.9262 34.9414 81.9978 35.368 81.1162L34.3672 83.896Z" fill="#195161"/>
<path d="M38.3531 89.728C43.6932 92.8179 52.3824 92.8179 57.7207 89.728C60.4906 88.1254 61.8108 86.0017 61.7082 83.8961C61.4708 82.9262 61.1345 81.9978 60.7082 81.1181C60.0409 80.1734 59.0463 79.2865 57.7225 78.5203C52.3824 75.4304 43.6932 75.4304 38.3549 78.5203C37.0293 79.2865 36.0365 80.1734 35.3692 81.1181C34.943 81.9978 34.6066 82.9262 34.3692 83.8979C34.2631 86.0017 35.5833 88.1254 38.3531 89.728Z" fill="#FF6666"/>
<path d="M40.6208 80.4238C40.6208 80.4238 41.8529 81.2351 42.441 81.6551C43.1461 82.1581 43.9051 82.2482 43.9051 82.2482C43.9051 82.2482 43.5058 83.6922 43.1371 84.891C42.7702 86.0881 42.6748 86.8218 42.6748 86.8218C42.6748 86.8218 39.8618 86.1836 38.8492 85.2588C37.5074 84.0311 37.1675 83.0901 37.4067 83.1874C37.4067 83.1874 38.1081 82.2212 39.1567 81.3901C39.9625 80.7501 40.6208 80.4238 40.6208 80.4238Z" fill="white"/>
<path d="M51.9114 53.7379C51.8016 53.9182 51.6667 54.0931 51.4797 54.2571C51.3286 54.3905 51.1524 54.5149 50.9509 54.6339C50.7674 54.7385 50.5678 54.8286 50.3627 54.9097C50.3124 54.9296 50.2602 54.9476 50.2099 54.9656C50.0372 55.0287 49.8573 55.0828 49.6739 55.1297C49.6307 55.1405 49.5894 55.1531 49.5444 55.1639C49.3196 55.2162 49.0893 55.2541 48.8555 55.2829C48.8105 55.2883 48.7656 55.2901 48.7224 55.2937C48.5264 55.3135 48.3303 55.3244 48.1325 55.3262C48.0731 55.3262 48.0119 55.328 47.9526 55.328C47.8357 55.3262 47.7206 55.3189 47.6055 55.3117V78.1327C48.7998 78.2048 50.0354 77.9795 50.9509 77.4459C51.6793 77.033 52.075 76.4958 52.1416 75.9496C52.156 75.8901 52.1632 75.8252 52.1632 75.7585V52.9465C52.1614 53.2133 52.0678 53.4819 51.9114 53.7379Z" fill="#B8C8F4"/>
<path d="M46.6845 55.2037C46.6503 55.1965 46.6215 55.1839 46.5874 55.1767C46.4309 55.1424 46.2816 55.0992 46.1323 55.0541C46.0172 55.018 45.8985 54.991 45.787 54.9495C45.6449 54.8973 45.5172 54.8288 45.3841 54.7657C45.2924 54.7206 45.1898 54.6863 45.1035 54.6359C45.0082 54.5836 44.9273 54.5259 44.8463 54.4664C44.7906 54.4286 44.7528 54.3853 44.7024 54.3456C44.6377 54.2933 44.5729 54.2429 44.5172 54.1888C44.4344 54.1113 44.3643 54.0319 44.2995 53.9508C44.2564 53.8985 44.2114 53.8481 44.1754 53.794C44.1161 53.7038 44.0747 53.6119 44.0333 53.5182C44.0135 53.4695 43.983 53.4226 43.9686 53.3739C43.929 53.2477 43.9092 53.1198 43.9056 52.9918C43.8984 52.9485 43.8984 75.7569 43.8984 75.7569C43.8984 75.8236 43.9056 75.8903 43.9128 75.9479C43.9794 76.4185 44.2959 76.8908 44.8463 77.273C44.9273 77.3325 45.0082 77.392 45.1035 77.4424C45.5658 77.7074 46.1036 77.8985 46.6827 78.0175C46.9831 78.077 47.2906 78.1112 47.6018 78.1293V55.3119C47.2924 55.2939 46.9831 55.2632 46.6845 55.2037Z" fill="#99C1FD"/>
<path d="M48.0259 51.1331C49.0151 51.1331 49.9756 51.3602 50.659 51.755C51.2526 52.094 51.5781 52.5176 51.5781 52.9449C51.5781 53.3649 51.2508 53.7849 50.659 54.1311C49.9756 54.5259 49.0151 54.753 48.0259 54.753C47.882 54.753 47.7417 54.7386 47.6014 54.7278V55.3119C47.7165 55.3191 47.8316 55.3263 47.9485 55.3281C48.0079 55.3281 48.069 55.3281 48.1284 55.3263C48.3262 55.3227 48.5241 55.3137 48.7183 55.2938C48.7633 55.2902 48.8083 55.2866 48.8514 55.283C49.0853 55.256 49.3155 55.2163 49.5403 55.164C49.5835 55.1532 49.6249 55.1406 49.6698 55.1298C49.8533 55.0829 50.0331 55.0288 50.2058 54.9657C50.2562 54.9477 50.3083 54.9297 50.3587 54.9099C50.5655 54.8269 50.7634 54.7386 50.9468 54.634C51.1483 54.5169 51.3264 54.3889 51.4756 54.2573C51.6627 54.0932 51.7976 53.9183 51.9073 53.7381C52.0638 53.4821 52.1573 53.2153 52.1573 52.9467C52.1573 52.3337 51.7562 51.7172 50.9468 51.2539C50.0313 50.7239 48.7939 50.5057 47.5996 50.5778V51.1583C47.7417 51.1493 47.882 51.1331 48.0259 51.1331Z" fill="#99C1FD"/>
<path d="M43.9053 52.9937C43.9089 53.1217 43.9287 53.2496 43.9683 53.3758C43.9827 53.4245 44.0132 53.4714 44.033 53.5201C44.0726 53.6138 44.1158 53.7057 44.1751 53.7959C44.2111 53.85 44.2561 53.9004 44.2992 53.9527C44.364 54.0338 44.4341 54.1132 44.5168 54.1907C44.5726 54.2448 44.6392 54.2952 44.7021 54.3475C44.8262 54.4467 44.9503 54.5476 45.1032 54.636C45.1913 54.6864 45.2921 54.7207 45.3838 54.7658C45.5169 54.8288 45.6446 54.8974 45.7867 54.9496C45.8982 54.9911 46.0169 55.0199 46.132 55.0542C46.2813 55.0993 46.4306 55.1443 46.5871 55.1768C46.9162 55.2471 47.258 55.2904 47.6015 55.312V54.7279C46.7669 54.672 45.9773 54.4683 45.3928 54.1294C44.81 53.7887 44.4737 53.356 44.4737 52.945C44.4737 52.5249 44.8082 52.0923 45.391 51.7552C45.9755 51.4163 46.7651 51.2125 47.5997 51.1567V50.5762C46.6878 50.6303 45.8011 50.8484 45.1014 51.2522C44.2974 51.7155 43.8945 52.3338 43.8945 52.9486L43.9053 52.9937Z" fill="#99C1FD"/>
<path d="M50.36 54.9116C50.3096 54.9314 50.2574 54.9494 50.207 54.9674C50.2592 54.9476 50.3096 54.9314 50.36 54.9116Z" fill="#99C1FD"/>
<path d="M48.8539 55.2812C48.8089 55.2867 48.7639 55.2884 48.7207 55.292C48.7657 55.2884 48.8107 55.2867 48.8539 55.2812Z" fill="#99C1FD"/>
<path d="M46.5862 55.1764C46.4296 55.144 46.2803 55.099 46.1309 55.054C46.2803 55.099 46.4296 55.1422 46.5862 55.1764Z" fill="#99C1FD"/>
<path d="M48.1292 55.3264C48.0698 55.3264 48.0086 55.3282 47.9492 55.3282C48.0086 55.3282 48.068 55.3264 48.1292 55.3264Z" fill="#99C1FD"/>
<path d="M45.786 54.9492C45.6438 54.897 45.516 54.8286 45.3828 54.7656C45.5142 54.8286 45.6438 54.8952 45.786 54.9492Z" fill="#99C1FD"/>
<path d="M45.3899 51.7552C44.8054 52.0923 44.4727 52.5249 44.4727 52.945C44.4727 53.3578 44.809 53.7887 45.3918 54.1294C45.9763 54.4683 46.7659 54.672 47.6005 54.7279V51.1584C46.7659 51.2125 45.9763 51.418 45.3899 51.7552Z" fill="#8AACEA"/>
<path d="M50.6631 54.131C51.2567 53.7867 51.5822 53.3667 51.5822 52.9448C51.5822 52.5176 51.2567 52.0939 50.6631 51.755C49.9796 51.3602 49.0192 51.1331 48.03 51.1331C47.8861 51.1331 47.7458 51.1475 47.6055 51.1583V54.7277C47.7476 54.7367 47.8879 54.753 48.03 54.753C49.0192 54.753 49.9796 54.5258 50.6631 54.131Z" fill="#8AACEA"/>
<path d="M46.686 55.2036V78.021C46.105 77.9038 45.5691 77.7109 45.1068 77.4459C45.0115 77.3937 44.9305 77.336 44.8496 77.2765V54.4663C44.9305 54.5258 45.0115 54.5835 45.1068 54.6358C45.5691 54.899 46.105 55.0919 46.686 55.2036Z" fill="white"/>
<path d="M53.5497 51.9712C53.5497 52.7842 53.1918 53.929 52.109 54.5545C49.9542 55.802 46.4541 55.802 44.2994 54.5545C43.2256 53.9272 42.5098 52.7824 42.5098 51.9712C42.5098 51.1509 43.0493 50.3289 44.1249 49.7105C46.2797 48.463 49.7798 48.463 51.9345 49.7105C53.0173 50.3289 53.5497 51.1491 53.5497 51.9712Z" fill="#88BEFF"/>
<path d="M51.8768 52.4869C51.7149 52.7771 51.4145 53.062 50.99 53.3054C50.2202 53.747 49.1428 54.0012 48.0295 54.0012C46.9126 54.0012 45.8352 53.7452 45.0636 53.2981C44.6517 53.0548 44.3513 52.7753 44.1895 52.4851C44.3513 52.1895 44.6535 51.91 45.0636 51.6721C45.8352 51.225 46.9126 50.969 48.0295 50.969C49.1428 50.969 50.2202 51.225 50.99 51.6721C51.4127 51.9172 51.7131 52.1967 51.8768 52.4869Z" fill="#99C1FD"/>
<path d="M0.5 187.048C0.5 192.33 11.155 194.935 17.3099 191.235C19.2308 190.08 20.1949 188.566 20.1949 187.049V189.516C20.1949 194.789 9.54168 197.403 3.385 193.702C1.46227 192.546 0.501784 191.03 0.501784 189.514L0.5 187.048Z" fill="#69A4FC"/>
<path d="M0.5 187.048C0.5 181.766 11.155 179.161 17.3099 182.86C21.1536 185.171 21.1572 188.921 17.3099 191.235C11.1586 194.933 0.5 192.315 0.5 187.048Z" fill="#88BEFF"/>
<path d="M8.38802 41.2541C5.74045 38.9159 5.74045 31.8365 8.38802 32.682C11.0356 35.022 11.0356 42.1014 8.38802 41.2541Z" fill="#195161"/>
<path d="M40.2949 62.0669V70.5128C40.509 71.5115 41.223 72.4651 42.4911 73.2313C46.8653 75.8687 54.5868 74.3021 55.2361 70.5128C55.2775 70.5128 55.2774 62.0669 55.2774 62.0669H51.7396C51.7072 62.3319 51.6011 62.5879 51.4302 62.8096C49.5165 65.1802 44.1044 64.3041 43.8328 62.0669H40.2949Z" fill="#69A4FC"/>
<path d="M49.7227 63.9185V74.396C50.8306 74.232 52.0573 73.8246 53.0897 73.2296V58.6941H51.7587C51.7587 61.4523 51.7839 61.8904 51.7371 62.0652C51.6256 62.9918 50.5464 63.6625 49.7227 63.9185Z" fill="#99C1FD"/>
<path d="M40.2966 62.0668C40.3812 63.8479 42.1942 65.0936 43.8129 65.7066C47.2339 66.9847 52.1855 66.4601 54.4266 63.9867C55.504 62.842 55.5345 60.9653 54.4266 59.7701C53.8528 59.1392 53.0039 58.5298 51.7628 58.0611C51.7628 61.2898 51.788 61.8919 51.7413 62.0686C51.4715 64.2968 46.0504 65.1802 44.1439 62.8113C43.6547 62.1732 43.8129 61.6991 43.8129 58.0503C42.6402 58.4938 41.6384 59.15 40.9369 60.0153C40.4675 60.6012 40.2624 61.3331 40.2966 62.0668Z" fill="#88BEFF"/>
<path d="M15 90.1751L42.4901 72.8381C44.1772 71.3616 44.8427 66.7718 43.6844 65.0574C43.3499 64.5617 42.9254 64.4211 42.4901 64.5887C42.4901 64.5653 15 81.9005 15 81.9005V90.1751Z" fill="#1C6DF6"/>
<path d="M13.5137 85.8593L44.2 66.6023C44.1136 65.975 43.941 65.436 43.6856 65.0574L13.5137 84.0042V85.8593Z" fill="#99C1FD"/>
<path d="M14.9154 90.3715C17.5629 88.0316 17.5629 80.954 14.9154 81.7995C12.2678 84.1394 12.2678 91.217 14.9154 90.3715Z" fill="#195161"/>
<path d="M14.2967 29.5076C14.2967 33.4141 14.3291 34.6382 14.2805 34.8131C14.2482 35.0799 14.142 35.334 13.9712 35.5558C13.0341 36.7204 11.0304 37.1656 9.29297 36.888V31.7051C11.4495 32.0639 14.2392 31.1607 14.2967 29.5076Z" fill="#1C6DF6"/>
<path d="M7.51627 31.096V36.2681C6.85389 35.8679 6.35352 35.3505 6.35352 34.5807V29.5078C6.37871 30.2163 6.91509 30.7319 7.51627 31.096Z" fill="#1C6DF6"/>
<path d="M6.35352 29.5078H14.2962C14.2854 29.8179 14.1721 30.1298 13.9707 30.3839C12.021 32.8086 6.43445 31.8279 6.35352 29.5078Z" fill="#195161"/>
<path d="M14.2962 34.5806V186.684C14.1829 187.207 13.8016 187.715 13.1289 188.115C10.7943 189.52 6.74022 188.687 6.3733 186.684C6.35352 186.684 6.35352 34.5806 6.35352 34.5806C6.35352 37.1026 12.0605 37.9301 13.9707 35.5577C14.1793 35.2872 14.2962 34.9664 14.2962 34.5806Z" fill="#1C6DF6"/>
<path d="M9.29265 31.705V36.8879C8.72428 36.8068 8.03003 36.5887 7.51562 36.2678V31.0957C8.02463 31.4058 8.64155 31.6059 9.29265 31.705Z" fill="#99C1FD"/>
<path d="M9.29265 36.8898V188.739C8.64155 188.627 8.02643 188.429 7.51562 188.117V36.2678C8.02823 36.5887 8.72248 36.8068 9.29265 36.8898Z" fill="#99C1FD"/>
<path d="M9.29265 27.7212V31.7053C8.64155 31.6061 8.02643 31.406 7.51562 31.0959V27.7212H9.29265Z" fill="#99C1FD"/>
<path d="M14.2964 29.5074C14.1525 31.9502 8.55522 32.7127 6.68286 30.3836C6.22421 29.8067 6.25838 28.9504 6.68286 28.4312C8.61278 26.0389 14.4493 26.9151 14.2964 29.5074Z" fill="#88BEFF"/>
<path d="M17.8145 34.8149V43.2608C17.6023 44.2595 16.8883 45.2132 15.6202 45.9812C11.2892 48.5843 3.52987 47.088 2.87517 43.2608C2.83201 43.2608 2.83203 34.8149 2.83203 34.8149H6.36991C6.40229 35.0817 6.5084 35.3359 6.67927 35.5577C8.593 37.9301 14.0069 37.0522 14.2766 34.8149H17.8145Z" fill="#69A4FC"/>
<path d="M8.38459 36.6663V47.1438C7.26764 46.978 6.06797 46.576 5.01758 45.9793V31.4419H6.35216C6.35216 34.0108 6.32336 34.6382 6.37192 34.813C6.48164 35.7396 7.56442 36.4121 8.38459 36.6663Z" fill="#99C1FD"/>
<path d="M17.8153 34.8147C17.7308 36.594 15.9178 37.8415 14.299 38.4545C10.8439 39.747 5.90306 39.1774 3.68536 36.7346C2.60619 35.5881 2.5828 33.7078 3.68536 32.518C4.4084 31.723 5.35267 31.1876 6.35091 30.809C6.35091 34.0269 6.32213 34.6398 6.37069 34.8147C6.63869 37.0429 12.0615 37.9281 13.9681 35.5574C14.4627 34.9139 14.2936 34.4343 14.2936 30.7964C15.4645 31.2399 16.4736 31.8943 17.175 32.7614C17.6445 33.3491 17.8495 34.081 17.8153 34.8147Z" fill="#88BEFF"/>
<path d="M17.8145 82.957V91.4029C17.6023 92.4016 16.8883 93.3553 15.6202 94.1215C11.2892 96.7246 3.52987 95.2283 2.87517 91.4029C2.83201 91.4029 2.83203 82.957 2.83203 82.957H6.36991C6.40229 83.2238 6.5084 83.478 6.67927 83.6998C8.593 86.0704 14.0069 85.1942 14.2766 82.957H17.8145Z" fill="#69A4FC"/>
<path d="M8.38459 84.8085V95.2861C7.26764 95.1202 6.06797 94.7182 5.01758 94.1215V79.5859H6.35035C6.35035 82.3514 6.32336 82.7822 6.37192 82.9571C6.48164 83.8837 7.56082 84.5525 8.38459 84.8085Z" fill="#99C1FD"/>
<path d="M17.8153 82.957C17.7308 84.74 15.9124 85.9875 14.299 86.5968C10.8439 87.8894 5.90306 87.3197 3.68536 84.877C2.60619 83.7286 2.5828 81.8502 3.68536 80.6603C4.412 79.8599 5.36525 79.3245 6.3491 78.9513C6.3491 82.1801 6.32213 82.7822 6.37069 82.957C6.64049 85.1852 12.0633 86.0686 13.9681 83.6998C14.4573 83.0634 14.299 82.5947 14.299 78.9387C15.4717 79.3822 16.4735 80.0384 17.1768 80.9037C17.6444 81.4914 17.8495 82.2233 17.8153 82.957Z" fill="#88BEFF"/>
<path d="M92.5994 70.8912C92.2396 70.8912 91.8979 70.6731 91.7612 70.3161L82.6872 46.8732C82.5055 46.4099 82.7357 45.8871 83.1998 45.7068C83.6602 45.5301 84.1836 45.7573 84.3617 46.2224L93.4357 69.6653C93.6156 70.1286 93.3871 70.6514 92.9231 70.8317C92.817 70.8714 92.7073 70.8912 92.5994 70.8912Z" fill="#DD6C2D"/>
<path d="M88.9082 71.8576C88.9082 74.2174 90.8166 76.1265 93.1674 76.1265C94.5865 76.1265 95.8455 75.4306 96.6207 74.358C97.1261 73.6549 97.4265 72.795 97.4265 71.8576C97.4265 69.5014 95.5182 67.5923 93.1674 67.5923C92.3256 67.5923 91.5396 67.8375 90.8777 68.2629C89.6942 69.0183 88.9082 70.3451 88.9082 71.8576Z" fill="#FEB30F"/>
<path d="M90.0684 70.7632C90.0684 73.1194 91.9731 75.0321 94.3275 75.0321C95.1728 75.0321 95.9589 74.7869 96.6207 74.356C97.1262 73.653 97.4265 72.7931 97.4265 71.8556C97.4265 69.4994 95.5182 67.5903 93.1674 67.5903C92.3256 67.5903 91.5396 67.8355 90.8777 68.261C90.3687 68.9658 90.0684 69.8311 90.0684 70.7632Z" fill="#FCD561"/>
<path d="M93.5605 70.5018C93.5605 70.9489 93.9221 71.3112 94.3681 71.3112C94.8142 71.3112 95.1757 70.9489 95.1757 70.5018C95.1757 70.0547 94.8142 69.6924 94.3681 69.6924C93.9221 69.6924 93.5605 70.0547 93.5605 70.5018Z" fill="#FFEFCA"/>
<path d="M113.576 84.8463C113.423 84.8463 113.268 84.8084 113.126 84.7255L94.6509 74.0334C94.221 73.7846 94.0735 73.233 94.3217 72.8021C94.5699 72.3694 95.1203 72.2252 95.5502 72.4722L114.026 83.1643C114.455 83.4131 114.603 83.9647 114.355 84.3956C114.189 84.6858 113.885 84.8463 113.576 84.8463Z" fill="#DD6C2D"/>
<path d="M111.369 84.7328C111.369 87.0926 113.277 89.0017 115.628 89.0017C117.047 89.0017 118.306 88.3059 119.082 87.2332C119.587 86.5302 119.887 85.6703 119.887 84.7328C119.887 82.3766 117.979 80.4675 115.628 80.4675C114.787 80.4675 114.001 80.7127 113.339 81.1382C112.155 81.8953 111.369 83.2221 111.369 84.7328Z" fill="#FEB30F"/>
<path d="M112.529 83.6403C112.529 85.9965 114.434 87.9092 116.788 87.9092C117.634 87.9092 118.422 87.664 119.082 87.2349C119.587 86.5319 119.887 85.672 119.887 84.7345C119.887 82.3783 117.979 80.4692 115.628 80.4692C114.787 80.4692 114.001 80.7144 113.339 81.1399C112.831 81.8429 112.529 82.7082 112.529 83.6403Z" fill="#FCD561"/>
<path d="M116.588 85.6433C116.409 85.6433 116.229 85.591 116.072 85.4793C115.664 85.1926 115.569 84.6302 115.853 84.2227L125.09 71.0501C125.376 70.6445 125.939 70.5453 126.342 70.8301C126.751 71.1168 126.846 71.6792 126.562 72.0867L117.324 85.2593C117.148 85.5081 116.871 85.6433 116.588 85.6433Z" fill="#DD6C2D"/>
<path d="M92.8466 31.6113L83.6074 44.7844L85.0789 45.8212L94.318 32.648L92.8466 31.6113Z" fill="#DD6C2D"/>
<path d="M78.7852 45.3263C78.7852 47.6861 80.6935 49.5952 83.0443 49.5952C84.4634 49.5952 85.7224 48.8994 86.4976 47.8267C87.003 47.1237 87.3034 46.2638 87.3034 45.3263C87.3034 42.9719 85.3951 41.061 83.0443 41.061C82.2025 41.061 81.4165 41.3062 80.7546 41.7317C79.5712 42.4888 78.7852 43.8156 78.7852 45.3263Z" fill="#FEB30F"/>
<path d="M79.9453 44.2339C79.9453 46.5901 81.8501 48.5028 84.2045 48.5028C85.0498 48.5028 85.8358 48.2576 86.4977 47.8267C87.0031 47.1237 87.3035 46.2638 87.3035 45.3263C87.3035 42.9719 85.3951 41.061 83.0444 41.061C82.2026 41.061 81.4166 41.3062 80.7547 41.7317C80.2457 42.4365 79.9453 43.3018 79.9453 44.2339Z" fill="#FCD561"/>
<path d="M83.6758 43.9724C83.6758 44.2879 83.9314 44.5457 84.2482 44.5457C84.5632 44.5457 84.8205 44.2897 84.8205 43.9724C84.8205 43.657 84.565 43.3992 84.2482 43.3992C83.9314 43.3992 83.6758 43.6552 83.6758 43.9724Z" fill="#FFEFCA"/>
<path d="M89.5078 31.2687C89.5078 33.6285 91.4162 35.5376 93.767 35.5376C95.1861 35.5376 96.4451 34.8418 97.2203 33.7691C97.7257 33.0661 98.0261 32.2061 98.0261 31.2687C98.0261 28.9143 96.1178 27.0034 93.767 27.0034C92.9252 27.0034 92.1392 27.2486 91.4773 27.674C90.2938 28.4312 89.5078 29.758 89.5078 31.2687Z" fill="#FEB30F"/>
<path d="M90.668 30.1763C90.668 32.5324 92.5727 34.4452 94.9271 34.4452C95.7725 34.4452 96.5585 34.2 97.2204 33.7691C97.7258 33.0661 98.0261 32.2061 98.0261 31.2687C98.0261 28.9143 96.1178 27.0034 93.767 27.0034C92.9253 27.0034 92.1393 27.2486 91.4774 27.674C90.9684 28.3789 90.668 29.2424 90.668 30.1763Z" fill="#FCD561"/>
<path d="M94.3965 29.9148C94.3965 30.2303 94.6521 30.4881 94.9689 30.4881C95.2839 30.4881 95.5413 30.2321 95.5413 29.9148C95.5413 29.5975 95.2857 29.3416 94.9689 29.3416C94.6539 29.3416 94.3965 29.5975 94.3965 29.9148Z" fill="#FFEFCA"/>
<path d="M125.746 69.6726C125.386 69.6726 125.044 69.4544 124.908 69.0975L115.832 45.6564C115.65 45.1931 115.88 44.6703 116.344 44.49C116.808 44.3115 117.328 44.5387 117.508 45.0056L126.584 68.4467C126.766 68.91 126.535 69.4328 126.071 69.6131C125.963 69.6527 125.854 69.6726 125.746 69.6726Z" fill="#DD6C2D"/>
<path d="M122.396 71.082C122.396 73.4418 124.305 75.3509 126.656 75.3509C128.075 75.3509 129.334 74.655 130.109 73.5824C130.614 72.8793 130.915 72.0194 130.915 71.082C130.915 68.7258 129.006 66.8167 126.656 66.8167C125.814 66.8167 125.028 67.0618 124.366 67.4873C123.182 68.2426 122.396 69.5694 122.396 71.082Z" fill="#FEB30F"/>
<path d="M123.557 69.9878C123.557 72.344 125.461 74.2567 127.816 74.2567C128.661 74.2567 129.447 74.0115 130.109 73.5807C130.614 72.8776 130.915 72.0177 130.915 71.0802C130.915 68.7241 129.006 66.8149 126.656 66.8149C125.814 66.8149 125.028 67.0601 124.366 67.4856C123.859 68.1922 123.557 69.0558 123.557 69.9878Z" fill="#FCD561"/>
<path d="M127.479 69.7263C127.479 69.9372 127.65 70.1067 127.858 70.1067C128.069 70.1067 128.238 69.9354 128.238 69.7263C128.238 69.5172 128.067 69.3459 127.858 69.3459C127.648 69.3459 127.479 69.5172 127.479 69.7263Z" fill="#FFEFCA"/>
<path d="M114.412 43.7182C114.259 43.7182 114.104 43.6803 113.962 43.5974L95.4868 32.9053C95.0569 32.6565 94.9094 32.1049 95.1576 31.674C95.4059 31.2432 95.9544 31.0971 96.3861 31.3441L114.862 42.0362C115.291 42.285 115.439 42.8366 115.191 43.2675C115.025 43.5559 114.721 43.7182 114.412 43.7182Z" fill="#DD6C2D"/>
<path d="M111.043 43.2135C111.043 45.5733 112.951 47.4825 115.302 47.4825C116.721 47.4825 117.98 46.7866 118.755 45.714C119.261 45.0109 119.561 44.151 119.561 43.2135C119.561 40.8574 117.653 38.9482 115.302 38.9482C114.46 38.9482 113.674 39.1934 113.012 39.6189C111.829 40.376 111.043 41.701 111.043 43.2135Z" fill="#FEB30F"/>
<path d="M112.203 42.1194C112.203 44.4756 114.108 46.3883 116.462 46.3883C117.309 46.3883 118.095 46.1431 118.756 45.7122C119.261 45.0092 119.561 44.1493 119.561 43.2118C119.561 40.8556 117.653 38.9465 115.302 38.9465C114.46 38.9465 113.674 39.1917 113.013 39.6172C112.505 40.3238 112.203 41.1873 112.203 42.1194Z" fill="#FCD561"/>
<path d="M115.699 41.858C115.699 42.3051 116.061 42.6674 116.507 42.6674C116.953 42.6674 117.314 42.3051 117.314 41.858C117.314 41.4109 116.953 41.0486 116.507 41.0486C116.061 41.0486 115.699 41.4109 115.699 41.858Z" fill="#FFEFCA"/>
<path d="M56.7285 32.1987C56.7285 34.1655 58.3185 35.7555 60.2772 35.7555C61.4607 35.7555 62.5093 35.1769 63.155 34.2827C63.5759 33.6968 63.8277 32.9793 63.8277 32.1987C63.8277 30.2355 62.2377 28.6455 60.279 28.6455C59.5775 28.6455 58.9228 28.8492 58.3706 29.2044C57.3832 29.8335 56.7285 30.9386 56.7285 32.1987Z" fill="#FEB30F"/>
<path d="M57.6934 31.2866C57.6934 33.2498 59.2816 34.8434 61.2421 34.8434C61.9471 34.8434 62.6018 34.6397 63.154 34.281C63.5749 33.6951 63.8267 32.9776 63.8267 32.197C63.8267 30.2338 62.2367 28.6438 60.278 28.6438C59.5765 28.6438 58.9218 28.8475 58.3697 29.2026C57.9434 29.7903 57.6934 30.5096 57.6934 31.2866Z" fill="#FCD561"/>
<path d="M60.6074 31.0685C60.6074 31.4417 60.9098 31.7427 61.2806 31.7427C61.6514 31.7427 61.9538 31.4399 61.9538 31.0685C61.9538 30.6953 61.6514 30.3943 61.2806 30.3943C60.9098 30.3943 60.6074 30.6971 60.6074 31.0685Z" fill="#FFEFCA"/>
<path d="M80.6852 45.1878C80.5323 45.1878 80.3776 45.1482 80.2355 45.067L61.7583 34.3749C61.3284 34.1262 61.1809 33.5745 61.4291 33.1437C61.6773 32.711 62.2277 32.5668 62.6576 32.8138L81.1348 43.5059C81.5647 43.7546 81.7122 44.3063 81.464 44.7371C81.2985 45.0274 80.9945 45.1878 80.6852 45.1878Z" fill="#DD6C2D"/>
<path d="M92.8513 30.0139C92.4916 30.0139 92.1499 29.7958 92.0132 29.4388L82.9391 5.99768C82.7574 5.53437 82.9877 5.01158 83.4517 4.8313C83.9158 4.65283 84.4374 4.87998 84.6136 5.34689L93.6877 28.788C93.8694 29.2513 93.6391 29.7741 93.1751 29.9544C93.069 29.9941 92.9593 30.0139 92.8513 30.0139Z" fill="#DD6C2D"/>
<path d="M90.2168 31.4237C90.2168 33.3905 91.8086 34.9805 93.7655 34.9805C94.949 34.9805 95.9976 34.4018 96.6433 33.5058C97.0642 32.9199 97.3142 32.2025 97.3142 31.4219C97.3142 29.4587 95.7242 27.8687 93.7655 27.8687C93.0641 27.8687 92.4093 28.0724 91.8572 28.4275C90.8715 29.0585 90.2168 30.1636 90.2168 31.4237Z" fill="#FEB30F"/>
<path d="M91.1816 30.5115C91.1816 32.4747 92.7698 34.0683 94.7303 34.0683C95.4354 34.0683 96.0901 33.8646 96.6423 33.5058C97.0632 32.92 97.3131 32.2025 97.3131 31.4219C97.3131 29.4587 95.7232 27.8687 93.7645 27.8687C93.063 27.8687 92.4083 28.0724 91.8561 28.4275C91.4316 29.0152 91.1816 29.7345 91.1816 30.5115Z" fill="#FCD561"/>
<path d="M94.4531 30.2948C94.4531 30.4694 94.5953 30.6116 94.7699 30.6116C94.9445 30.6116 95.0867 30.4694 95.0867 30.2948C95.0867 30.1202 94.9445 29.978 94.7699 29.978C94.5953 29.978 94.4531 30.1184 94.4531 30.2948Z" fill="#FFEFCA"/>
<path d="M78.8594 3.55502C78.8594 5.52182 80.4493 7.11184 82.408 7.11184C83.5915 7.11184 84.6401 6.53316 85.2858 5.63719C85.7067 5.0513 85.9567 4.33381 85.9567 3.55322C85.9567 1.59002 84.3667 0 82.408 0C81.7066 0 81.0519 0.203711 80.4997 0.558853C79.5141 1.18981 78.8594 2.2949 78.8594 3.55502Z" fill="#FEB30F"/>
<path d="M79.8242 2.64283C79.8242 4.60602 81.4124 6.19965 83.3729 6.19965C84.078 6.19965 84.7327 5.99594 85.2849 5.63719C85.7057 5.0513 85.9557 4.33381 85.9557 3.55322C85.9557 1.59002 84.3657 0 82.407 0C81.7056 0 81.0509 0.203711 80.4987 0.558853C80.0742 1.14655 79.8242 1.86585 79.8242 2.64283Z" fill="#FCD561"/>
<path d="M82.7383 2.42472C82.7383 2.79788 83.0407 3.09894 83.4115 3.09894C83.7841 3.09894 84.0846 2.79608 84.0846 2.42472C84.0846 2.05155 83.7823 1.75049 83.4115 1.75049C83.0407 1.75049 82.7383 2.05335 82.7383 2.42472Z" fill="#FFEFCA"/>
<path d="M128.569 69.9295L127.74 71.5293L151.343 83.8191L152.172 82.2194L128.569 69.9295Z" fill="#DD6C2D"/>
<path d="M148.4 82.1528C148.4 84.1196 149.99 85.7096 151.949 85.7096C153.133 85.7096 154.181 85.131 154.827 84.2368C155.248 83.6509 155.5 82.9334 155.5 82.1528C155.5 80.1896 153.91 78.5996 151.951 78.5996C151.249 78.5996 150.595 78.8033 150.043 79.1585C149.055 79.7876 148.4 80.8927 148.4 82.1528Z" fill="#FEB30F"/>
<path d="M149.365 81.2407C149.365 83.2039 150.952 84.7975 152.914 84.7975C153.619 84.7975 154.274 84.5938 154.826 84.2351C155.247 83.6492 155.499 82.9317 155.499 82.1511C155.499 80.1879 153.909 78.5979 151.95 78.5979C151.248 78.5979 150.594 78.8016 150.042 79.1568C149.615 79.7445 149.365 80.4637 149.365 81.2407Z" fill="#FCD561"/>
<path d="M152.475 81.0246C152.475 81.2878 152.687 81.5023 152.952 81.5023C153.216 81.5023 153.429 81.2896 153.429 81.0246C153.429 80.7614 153.216 80.5469 152.952 80.5469C152.687 80.5469 152.475 80.7614 152.475 81.0246Z" fill="#FFEFCA"/>
<path d="M75.957 203.238C75.957 209.12 84.1965 213.889 94.3623 213.889C104.526 213.889 112.768 209.12 112.768 203.238C112.768 197.356 104.528 192.587 94.3623 192.587C84.1965 192.587 75.957 197.356 75.957 203.238Z" fill="#81B2FC"/>
<path d="M99.3985 209.464C111.49 206.407 118.819 194.104 115.769 181.985C112.719 169.866 100.444 162.52 88.3525 165.577C76.261 168.634 68.9317 180.937 71.982 193.056C75.0323 205.176 87.3071 212.522 99.3985 209.464Z" fill="#E1EDFF"/>
<path d="M93.8881 209.439C105.959 209.439 115.745 199.631 115.745 187.532C115.745 175.433 105.959 165.625 93.8881 165.625C81.8169 165.625 72.0312 175.433 72.0312 187.532C72.0312 199.631 81.8169 209.439 93.8881 209.439Z" fill="#B1D0FE"/>
<path d="M71.4551 187.532C71.4551 175.135 81.5184 165.048 93.8875 165.048C106.257 165.048 116.32 175.135 116.32 187.532C116.32 199.93 106.257 210.014 93.8875 210.014C81.5184 210.014 71.4551 199.93 71.4551 187.532ZM72.6062 187.532C72.6062 199.293 82.1533 208.861 93.8857 208.861C105.62 208.861 115.167 199.293 115.167 187.532C115.167 175.771 105.62 166.202 93.8857 166.202C82.1533 166.202 72.6062 175.771 72.6062 187.532Z" fill="#E1EDFF"/>
<path d="M75.533 195.088C78.499 202.319 85.5981 207.411 93.8826 207.411C102.336 207.411 109.556 202.109 112.41 194.642C113.252 192.432 74.578 192.759 75.533 195.088Z" fill="#FFDA23"/>
<path d="M75.0026 195.306C74.8893 195.028 74.9109 194.619 75.3156 194.303C77.9038 192.281 109.98 191.922 112.623 193.883C113.02 194.179 113.051 194.574 112.948 194.844C109.944 202.704 102.284 207.986 93.8845 207.986C85.5749 207.986 78.1609 203.011 75.0026 195.306ZM76.1699 195.113C79.2078 202.243 86.1306 206.833 93.8845 206.833C101.714 206.833 108.862 201.972 111.768 194.704C108.568 193.114 79.1556 193.449 76.1699 195.113Z" fill="#E1EDFF"/>
<path d="M74.9453 192.275C74.9453 195.08 76.7943 197.887 80.4941 200.027C87.8918 204.309 99.8868 204.309 107.285 200.027C110.982 197.887 112.833 195.082 112.833 192.277C112.833 189.472 110.984 186.665 107.285 184.525C99.8868 180.244 87.8918 180.244 80.4941 184.525C76.7943 186.663 74.9453 189.468 74.9453 192.275Z" fill="#FFE53E"/>
<path d="M75.9857 174.473C75.9857 174.473 75.8076 174.45 75.7321 174.45C75.0162 174.39 74.054 174.67 73.268 175.274C73.0395 175.45 72.9082 175.571 72.7373 175.744C72.2931 176.198 72.0683 176.546 71.8146 177.064C70.8722 178.982 71.3218 180.765 72.2499 181.697C72.3866 181.85 72.705 182.095 72.9352 182.216C74.6601 183.114 76.8382 182.146 77.9264 180.228C79.0307 178.281 78.7393 175.818 77.036 174.836C76.8598 174.735 76.8202 174.717 76.6188 174.635C76.4029 174.547 76.108 174.486 75.9857 174.473Z" fill="#B1D0FE"/>
<path d="M72.9316 182.216C72.9316 182.216 74.2896 182.97 74.3813 183.013C75.099 183.348 75.9785 183.417 76.8904 183.074C77.4498 182.863 78.0002 182.485 78.4048 182.084C80.4589 180.053 80.3977 176.685 78.3167 175.546C76.9138 174.778 77.0199 174.823 77.0325 174.837C77.4552 175.084 77.8167 175.443 78.0865 175.901C78.8401 177.177 78.6818 178.894 77.9228 180.231C76.8311 182.155 74.6331 183.132 72.9316 182.216Z" fill="#81B2FC"/>
<path d="M75.3964 183.287C75.3748 183.285 75.2363 183.269 75.2363 183.269C77.1429 184.417 79.5692 183.204 80.4991 181.078C81.3049 179.234 80.8247 177.051 79.134 176.204C80.3606 177.651 80.1969 180.352 78.4127 182.081C77.5656 182.901 76.5565 183.395 75.3964 183.287Z" fill="#B1D0FE"/>
<path opacity="0.56" d="M81.6626 181.755C80.9755 183.325 79.515 184.354 78.0527 184.385C79.0258 184.922 79.9988 185.459 80.9719 185.998C80.9287 185.971 80.9809 186.005 81.051 186.04C81.3011 186.166 81.5691 186.247 81.846 186.278C83.9342 186.507 85.9757 184.08 85.6753 181.686C85.5674 180.828 85.1357 180.031 84.3857 179.613C84.0188 179.407 85.4163 180.184 81.5385 178.039C82.159 179.076 82.2201 180.478 81.6626 181.755Z" fill="#EFF9FF"/>
<path d="M80.4966 181.079C79.8095 182.649 78.349 183.678 76.8867 183.709C77.8598 184.246 78.8328 184.783 79.8059 185.322C79.7627 185.295 79.8149 185.329 79.885 185.364C80.135 185.49 80.403 185.571 80.68 185.602C82.7682 185.831 84.8097 183.404 84.5093 181.01C84.4014 180.152 83.9697 179.355 83.2197 178.937C82.8527 178.731 84.2503 179.508 80.3725 177.363C80.993 178.4 81.0541 179.8 80.4966 181.079Z" fill="#69A4FC"/>
<path d="M148.175 147.23C147.042 147.234 138.281 147.403 137.441 147.436C136.596 147.468 130.428 147.805 129.567 147.87C121.946 148.44 112.706 149.593 105.641 152.433C100.821 154.371 96.9721 157.06 94.0817 161.284C92.2058 164.028 90.9431 167.152 90.6392 167.79C90.3981 168.295 90.6499 168.8 91.0492 169.195C91.5726 169.714 92.382 170.089 93.0744 170.329C94.6572 170.875 96.6358 171.071 98.2761 170.846C98.9254 170.758 99.6682 170.579 100.242 170.251C100.623 170.033 100.987 169.709 101.069 169.281C101.598 165.638 102.359 162.995 104.888 160.439C111.748 153.507 128.256 150.96 137.973 149.877C138.788 149.785 146.713 149.076 146.81 149.076C147.639 149.013 148.63 148.254 148.722 147.693C148.751 147.519 148.693 147.38 148.537 147.297C148.434 147.252 148.351 147.228 148.175 147.23Z" fill="#C9DEFE"/>
<path d="M127.39 150.042C127.39 150.042 112.832 151.804 107.43 155.874C101.004 160.718 101.448 162.725 100.508 162.837C99.5669 162.948 97.5182 158.559 108.639 153.944C116.841 150.542 127.39 150.042 127.39 150.042Z" fill="white"/>
<path d="M101.064 175.93C101.064 175.93 106.71 178.589 108.457 182.731C110.205 186.876 109.725 187.222 108.457 187.922C107.189 188.621 105.923 184.484 105.329 181.369C104.737 178.253 101.064 175.93 101.064 175.93Z" fill="white"/>
<path d="M83.7404 180.632C83.7404 180.632 84.6811 181.778 83.9076 181.492C83.1342 181.205 81.2529 180.194 81.2529 180.194C81.2529 180.194 80.7151 179.62 81.4201 179.689C82.127 179.755 83.7404 180.632 83.7404 180.632Z" fill="white"/>
<path d="M75.2285 174.973C75.2285 174.973 76.6153 174.973 77.3221 176.42C78.0272 177.868 77.4175 179.451 76.8833 179.283C76.3491 179.115 77.2214 176.997 76.6512 176.204C76.0775 175.411 75.2285 174.973 75.2285 174.973Z" fill="white"/>
<path d="M144.639 180.343C141.031 178.313 135.261 178.373 131.754 180.473C128.247 182.573 128.328 185.924 131.937 187.952C135.545 189.982 141.315 189.923 144.823 187.823C148.33 185.723 148.249 182.373 144.639 180.343Z" fill="#69A4FC"/>
<path d="M140.062 181.659C139.004 181.064 137.395 181.081 136.366 181.697C135.337 182.314 135.36 183.296 136.42 183.891C137.477 184.486 139.17 184.47 140.199 183.853C141.227 183.237 141.121 182.254 140.062 181.659Z" fill="#69A4FC"/>
<path d="M142.107 168.158C141.895 167.89 141.58 167.639 141.191 167.419L146.639 175.025C147.735 175.642 148.584 176.348 149.184 177.109C148.972 176.84 143.287 169.649 142.107 168.158Z" fill="#69A4FC"/>
<path d="M127.35 177.172C127.907 176.46 128.679 175.791 129.672 175.196C134.291 172.429 141.89 172.351 146.642 175.025L141.194 167.419C139.512 166.473 136.836 166.5 135.201 167.48C134.85 167.691 134.573 167.931 134.377 168.182C133.206 169.681 127.562 176.901 127.35 177.172Z" fill="#69A4FC"/>
<path d="M149.186 177.109C148.593 176.345 147.737 175.642 146.641 175.025C147.555 176.303 146.44 179.265 144.639 180.345C148.247 182.375 148.33 185.724 144.823 187.825C141.316 189.927 135.546 189.984 131.937 187.954C128.329 185.924 128.247 182.575 131.754 180.475C135.261 178.375 141.031 178.315 144.639 180.345C146.44 179.265 147.555 176.303 146.641 175.025C141.889 172.352 134.29 172.429 129.671 175.196C128.68 175.789 127.907 176.46 127.349 177.172C125.883 179.069 125.725 180.889 125.851 182.085C125.923 182.771 126.052 183.168 126.218 183.671C126.331 184.019 126.56 184.453 126.732 184.776C126.873 185.037 127.094 185.371 127.281 185.602C127.806 186.247 127.838 186.285 128.355 186.766C128.549 186.947 128.973 187.314 129.633 187.747C130.247 188.149 130.714 188.376 131.089 188.558C131.337 188.679 131.869 188.921 132.637 189.18C133.2 189.371 133.299 189.395 134.251 189.629C134.398 189.665 135.749 189.986 137.596 190.051C138.377 190.078 139.592 190.069 140.976 189.865C141.19 189.835 141.846 189.737 142.639 189.539C143.283 189.378 143.339 189.359 144.26 189.045C144.517 188.957 144.857 188.823 145.103 188.706C145.537 188.501 146.109 188.21 146.526 187.972C146.769 187.835 147.663 187.257 148.235 186.709C148.997 185.979 149.237 185.676 149.728 184.911C149.89 184.659 150.355 183.81 150.56 182.917C150.64 182.571 150.712 182.103 150.733 181.747C150.753 181.423 150.724 180.989 150.701 180.666C150.674 180.271 150.474 179.454 150.314 179.078C150.201 178.813 150.057 178.456 149.915 178.207C149.719 177.866 149.429 177.423 149.186 177.109Z" fill="#69A4FC"/>
<path d="M146.525 187.974C146.985 187.689 148.206 186.934 149.163 185.721C150.194 184.412 150.465 183.303 150.582 182.831C150.66 182.514 150.703 182.077 150.733 181.751C150.75 181.574 150.737 181.336 150.739 181.158C150.742 180.832 150.685 180.395 150.607 180.078C150.483 179.57 150.384 179.17 150.068 178.506C149.983 178.331 149.863 178.101 149.758 177.936C149.597 177.681 149.368 177.351 149.185 177.111C151.192 179.646 150.435 182.748 146.881 184.879C142.262 187.646 134.663 187.724 129.911 185.05C126.177 182.95 125.308 179.779 127.348 177.174C127.116 177.497 126.81 177.929 126.623 178.281C126.34 178.814 126.184 179.249 126.103 179.521C125.734 180.76 125.808 181.61 125.858 182.175C125.914 182.82 126.197 183.767 126.515 184.374C126.722 184.771 127.209 185.703 128.173 186.599C129.078 187.442 129.891 187.933 130.296 188.151C130.722 188.38 131.301 188.67 131.749 188.852C132.691 189.236 133.425 189.425 133.425 189.425C133.911 189.55 134.56 189.707 135.053 189.791C135.981 189.954 136.749 190.004 136.749 190.004C137.992 190.076 137.992 190.076 139.291 190.035C139.291 190.035 140.055 190 140.974 189.867C143.926 189.434 145.838 188.4 146.525 187.974Z" fill="#99C1FD"/>
<path d="M147.088 185.223C142.367 188.053 134.571 188.131 129.713 185.402C128.008 184.441 126.803 183.206 126.238 181.852C126.245 181.955 126.253 182.05 126.262 182.139C126.314 182.728 126.582 183.629 126.875 184.188C127.073 184.567 127.537 185.454 128.449 186.303C129.321 187.116 130.1 187.587 130.488 187.796C131.005 188.073 131.533 188.327 131.902 188.479C132.805 188.847 133.526 189.034 133.526 189.034C133.983 189.151 134.631 189.306 135.125 189.395C136.017 189.55 136.775 189.604 136.775 189.604C137.999 189.676 137.998 189.676 139.275 189.633C139.275 189.633 140.032 189.598 140.919 189.469C143.796 189.047 145.653 188.043 146.316 187.632C146.759 187.358 147.937 186.627 148.849 185.47C149.825 184.232 150.083 183.182 150.192 182.735C150.259 182.46 150.3 182.063 150.327 181.792C149.795 183.089 148.694 184.26 147.088 185.223Z" fill="#B1D0FE"/>
<path d="M133.984 169.206C133.983 168.585 134.396 167.962 135.2 167.48C136.835 166.501 139.511 166.473 141.193 167.419V157.865C139.511 156.918 136.808 156.945 135.173 157.926C134.369 158.407 133.983 159.031 133.984 159.651C133.993 162.517 133.977 166.339 133.984 169.206Z" fill="#69A4FC"/>
<path d="M135.692 159.952C135.665 167.56 135.638 175.167 135.613 182.777C135.615 182.389 135.867 182 136.369 181.697C137.398 181.08 139.005 181.064 140.065 181.659V158.896C139.065 158.333 137.381 158.35 136.408 158.932C135.932 159.217 135.692 159.585 135.692 159.952Z" fill="#5195FB"/>
<path d="M140.959 182.761L140.75 159.938C140.747 159.557 140.574 159.179 140.066 158.894V181.657C140.601 181.96 140.956 182.36 140.959 182.761Z" fill="#5195FB"/>
<path d="M140.744 159.938C140.748 160.309 140.511 160.683 140.029 160.969C139.056 161.551 137.455 161.568 136.455 161.005C135.944 160.717 135.687 160.335 135.689 159.951C135.662 167.558 135.635 175.166 135.609 182.775C135.608 183.181 135.879 183.586 136.419 183.889C137.476 184.484 139.169 184.468 140.198 183.851C140.707 183.547 140.957 183.154 140.953 182.761C140.892 175.916 140.807 166.785 140.744 159.938Z" fill="#69A4FC"/>
<path d="M129.911 185.048C134.663 187.722 142.26 187.644 146.881 184.877C150.435 182.748 151.191 179.644 149.185 177.109C148.973 176.84 143.287 169.649 142.107 168.158C142.818 169.056 142.55 170.154 141.291 170.907C139.656 171.888 136.967 171.915 135.284 170.969C134.424 170.486 133.994 169.84 133.983 169.206C133.983 169.031 133.996 168.85 133.996 168.668C132.951 170.004 127.56 176.903 127.348 177.172C125.312 179.777 126.179 182.95 129.911 185.048Z" fill="#B1D0FE"/>
<path d="M142.48 159.626C142.478 158.984 142.048 158.344 141.191 157.863V167.417C142.046 167.899 142.478 168.539 142.48 169.18C142.473 166.314 142.489 162.492 142.48 159.626Z" fill="#69A4FC"/>
<path d="M142.481 169.182V159.628C142.483 160.248 142.069 160.872 141.265 161.353C139.63 162.332 136.941 162.361 135.258 161.414C134.403 160.933 133.986 160.293 133.984 159.651V169.206C133.986 169.847 134.43 170.487 135.285 170.969C136.967 171.915 139.657 171.888 141.292 170.907C142.096 170.424 142.483 169.802 142.481 169.182Z" fill="#99C1FD"/>
<path d="M135.087 171.32C134.118 170.774 133.584 170.024 133.58 169.206V159.651H134.386C134.389 160.174 134.767 160.675 135.454 161.061C137.023 161.943 139.535 161.917 141.057 161.005C141.703 160.619 142.073 160.12 142.075 159.637L142.881 159.626V169.181C142.883 169.981 142.392 170.718 141.496 171.254C140.589 171.798 139.409 172.07 138.23 172.07C137.104 172.07 135.976 171.822 135.087 171.32ZM141.471 161.697C139.699 162.761 136.882 162.79 135.06 161.764C134.805 161.62 134.58 161.459 134.388 161.288V169.202C134.389 169.709 134.789 170.223 135.483 170.614C137.05 171.493 139.564 171.47 141.086 170.558C141.726 170.174 142.079 169.685 142.077 169.182V161.256C141.9 161.414 141.699 161.562 141.471 161.697Z" fill="#B1D0FE"/>
<path d="M141.83 161.668C139.893 162.829 136.706 162.862 134.711 161.741C132.718 160.619 132.671 158.77 134.61 157.609C136.547 156.448 139.734 156.415 141.729 157.537C143.722 158.658 143.767 160.507 141.83 161.668ZM135.173 157.924C133.538 158.905 133.576 160.466 135.258 161.412C136.939 162.359 139.63 162.332 141.265 161.351C142.9 160.37 142.877 158.809 141.193 157.865C139.511 156.918 136.808 156.945 135.173 157.924Z" fill="#69A4FC"/>
<path d="M144.508 158.589C144.511 157.998 144.313 157.365 143.963 156.851C143.425 156.062 142.822 155.698 142.34 155.406C142.5 155.496 142.601 155.694 142.603 155.979C142.605 156.549 142.213 157.246 141.729 157.535C143.722 158.656 143.769 160.506 141.83 161.667C139.892 162.828 136.705 162.86 134.711 161.739C132.718 160.617 132.671 158.768 134.61 157.607C136.547 156.446 139.734 156.413 141.729 157.535C142.213 157.246 142.605 156.549 142.603 155.979C142.601 155.694 142.502 155.496 142.34 155.406C140.979 154.65 139.562 154.49 139.017 154.456C138.069 154.396 137.59 154.429 136.811 154.528C136.304 154.593 135.54 154.784 135.106 154.953C134.711 155.11 134.167 155.323 133.561 155.759C133.122 156.074 132.765 156.435 132.495 156.83C131.943 157.643 131.791 158.526 132.045 159.458C132.387 160.711 133.549 161.479 133.779 161.62C134.103 161.818 134.189 161.872 134.507 162.022C134.914 162.215 135.293 162.335 135.293 162.335C135.585 162.427 135.86 162.514 136.123 162.564C136.389 162.617 136.946 162.728 137.418 162.757C138.293 162.811 138.749 162.797 139.623 162.685C140.056 162.629 140.801 162.462 141.326 162.26C141.594 162.157 142.308 161.881 142.921 161.418C143.107 161.277 143.671 160.852 144.054 160.199C144.36 159.68 144.504 159.168 144.508 158.589Z" fill="#69A4FC"/>
<path d="M133.268 157.712C134.988 157.667 135.592 158.618 135.694 160.017C135.666 159.628 135.903 159.233 136.407 158.93C137.38 158.348 139.063 158.332 140.063 158.894C140.128 157.452 140.463 156.232 141.662 155.512C139.702 154.411 136.569 154.441 134.664 155.583C133.676 156.176 133.212 156.949 133.268 157.712Z" fill="#81B2FC"/>
<path d="M140.744 160.003C140.838 158.602 141.438 157.647 143.156 157.683C143.208 156.897 142.708 156.102 141.66 155.512C140.46 156.232 140.125 157.452 140.061 158.894C140.598 159.197 140.771 159.603 140.744 160.003Z" fill="#81B2FC"/>
<path d="M140.588 159.403C140.491 159.462 140.133 159.666 139.573 159.801C138.865 159.97 138.266 159.961 138.266 159.961C138.102 159.961 137.884 159.952 137.722 159.943C137.642 159.94 137.535 159.927 137.454 159.916C137.039 159.864 136.746 159.781 136.69 159.765C136.12 159.595 135.717 159.386 135.492 159.141C135.638 159.395 135.677 159.817 135.695 160.021C135.722 160.383 135.976 160.738 136.458 161.011C137.46 161.573 139.059 161.557 140.032 160.975C140.485 160.704 140.723 160.358 140.746 160.008C140.768 159.734 140.809 159.385 140.942 159.13C140.856 159.215 140.793 159.276 140.588 159.403Z" fill="#69A4FC"/>
<path d="M140.742 160.003C140.76 159.786 140.795 159.382 140.939 159.125C140.476 159.613 139.376 159.957 138.262 159.959C136.672 159.963 135.771 159.444 135.489 159.137C135.642 159.417 135.678 159.837 135.692 160.017C135.589 158.618 134.985 157.664 133.266 157.711C133.318 158.42 133.816 159.116 134.76 159.647C136.721 160.749 139.854 160.718 141.759 159.577C142.645 159.045 143.109 158.367 143.154 157.684C141.437 157.646 140.836 158.604 140.742 160.003Z" fill="#81B2FC"/>
<path d="M141.824 159.61C139.887 160.771 136.7 160.803 134.705 159.682C132.712 158.561 132.665 156.711 134.604 155.55C136.541 154.389 139.729 154.357 141.723 155.478C143.718 156.599 143.763 158.449 141.824 159.61ZM134.665 155.584C132.761 156.725 132.806 158.544 134.764 159.648C136.725 160.749 139.858 160.719 141.763 159.577C143.668 158.436 143.624 156.617 141.664 155.514C139.703 154.411 136.57 154.443 134.665 155.584Z" fill="#69A4FC"/>
<path d="M142.469 161.723C142.715 161.571 143.467 161.108 143.96 160.351C144.426 159.633 144.514 158.999 144.505 158.591C144.478 157.293 143.749 156.222 142.337 155.408C142.177 155.317 141.96 155.335 141.72 155.478C143.713 156.599 143.758 158.449 141.821 159.61C139.884 160.771 136.697 160.803 134.702 159.682C132.709 158.561 132.663 156.711 134.601 155.55C136.539 154.389 139.726 154.357 141.72 155.478C141.96 155.334 142.179 155.317 142.337 155.408C142.228 155.366 142.093 155.28 141.988 155.225C141.864 155.161 141.69 155.085 141.559 155.034C141.186 154.896 140.866 154.775 140.323 154.652C139.321 154.427 138.515 154.425 138.129 154.425C137.945 154.425 136.977 154.438 135.959 154.692C135.028 154.926 134.436 155.222 134.026 155.454C132.923 156.078 132.157 157.041 131.979 158.031C131.855 158.716 131.947 159.19 132.119 159.693C132.175 159.855 132.407 160.432 133.017 161.023C134.006 161.98 135.65 162.631 137.413 162.761C140.202 162.968 141.988 162.018 142.469 161.723Z" fill="#B1D0FE"/>
<path opacity="0.67" d="M127.109 183.063C127.674 184.269 131.252 189.395 138.234 188.884C145.218 188.374 148.25 186.041 149.229 182.872C150.384 179.126 147.218 176.049 147.133 175.968C147.31 176.373 147.403 176.799 147.403 177.235C147.403 180.11 143.374 182.44 138.408 182.44C133.441 182.44 129.412 180.11 129.412 177.235C129.412 176.692 129.557 176.168 129.823 175.674C129.714 175.778 125.543 179.714 127.109 183.063Z" fill="#E84343"/>
<g opacity="0.67">
<path d="M129.412 177.235C129.412 180.111 133.441 182.44 138.409 182.44C143.375 182.44 147.404 180.111 147.404 177.235C147.404 176.797 147.31 176.373 147.134 175.968C146.157 173.705 142.621 172.029 138.409 172.029C134.38 172.029 130.97 173.563 129.824 175.674C129.556 176.168 129.412 176.693 129.412 177.235Z" fill="#FF6666"/>
</g>
<path d="M143.699 174.004C143.699 174.004 148.476 180.328 148.279 181.188C148.079 182.048 148.545 182.782 147.403 181.89C146.26 180.997 143.699 174.004 143.699 174.004Z" fill="white"/>
</svg>
