<svg width="48" height="64" viewBox="0 0 48 64" fill="none" xmlns="http://www.w3.org/2000/svg">
<path d="M19.3483 45.1292C19.6106 44.9773 19.6106 44.4853 19.3483 44.0302C19.0859 43.5751 18.6608 43.3288 18.3984 43.4807L19.7964 43.2365C20.1192 43.1769 20.2327 43.4157 20.2665 43.4791C20.3409 43.6202 20.3794 43.8483 20.2434 44.0001L19.3483 45.1292Z" fill="#B8C8F4"/>
<path d="M19.3497 45.1292C19.0874 45.281 18.6622 45.0347 18.3999 44.5797C18.1375 44.1246 18.1375 43.6325 18.3999 43.4806C18.6622 43.3288 19.0874 43.5751 19.3497 44.0302C19.612 44.4852 19.612 44.9773 19.3497 45.1292Z" fill="#1C6DF6"/>
<path d="M16.6085 44.0333C16.5276 44.0333 16.4495 43.9883 16.4114 43.9099C16.3584 43.801 16.4034 43.6695 16.5121 43.6164C17.3265 43.2182 17.9887 42.139 17.9887 41.2112C17.9887 40.7969 17.8549 40.4851 17.6118 40.3327C17.3773 40.1857 17.055 40.1996 16.7038 40.3714C16.5951 40.4245 16.4639 40.3794 16.4109 40.2705C16.3579 40.1615 16.4029 40.0301 16.5116 39.9769C17.0031 39.7365 17.4764 39.7306 17.8437 39.9603C18.2195 40.1953 18.4267 40.6397 18.4267 41.2112C18.4267 42.3086 17.6702 43.538 16.7043 44.0108C16.6733 44.0258 16.6406 44.0333 16.6085 44.0333Z" fill="#121E51"/>
<path d="M9.79688 50.2463C9.79688 51.9797 12.2255 53.3851 15.2211 53.3851C18.2167 53.3851 20.6453 51.9797 20.6453 50.2463V50.6086C20.6453 52.3419 18.2167 53.7473 15.2211 53.7473C12.2255 53.7473 9.79688 52.3419 9.79688 50.6086V50.2463Z" fill="#1C6DF6"/>
<path d="M15.2211 53.3852C18.2168 53.3852 20.6453 51.9799 20.6453 50.2464C20.6453 48.5129 18.2168 47.1077 15.2211 47.1077C12.2254 47.1077 9.79688 48.5129 9.79688 50.2464C9.79688 51.9799 12.2254 53.3852 15.2211 53.3852Z" fill="#99C1FD"/>
<path d="M10.3203 48.5771C10.3203 50.1436 12.5149 51.4138 15.2225 51.4138C17.9301 51.4138 20.1247 50.1436 20.1247 48.5771V50.2461C20.1247 51.8125 17.9301 53.0827 15.2225 53.0827C12.5149 53.0827 10.3203 51.8125 10.3203 50.2461V48.5771Z" fill="#69A4FC"/>
<path d="M10.3203 48.5771C10.3203 47.0107 12.5149 45.7405 15.2225 45.7405C17.9301 45.7405 20.1247 47.0107 20.1247 48.5771C20.1247 50.1435 17.9301 51.4137 15.2225 51.4137C12.5149 51.4137 10.3203 50.1441 10.3203 48.5771Z" fill="#88BEFF"/>
<path d="M18.3053 45.7352C18.5676 45.5834 18.5676 45.0913 18.3053 44.6362C18.0429 44.1811 17.6178 43.9348 17.3555 44.0867L18.3679 43.7561C18.6303 43.6043 18.9612 43.85 19.1314 44.1581C19.2829 44.4318 19.3209 44.9024 19.0586 45.0542L18.3053 45.7352Z" fill="#B8C8F4"/>
<path d="M18.3067 45.7351C18.0444 45.887 17.6193 45.6407 17.3569 45.1856C17.0946 44.7306 17.0946 44.2385 17.3569 44.0866C17.6193 43.9347 18.0444 44.181 18.3067 44.6361C18.5691 45.0912 18.5691 45.5833 18.3067 45.7351Z" fill="#1C6DF6"/>
<path d="M17.3365 46.3456C17.5989 46.1937 17.5989 45.7016 17.3365 45.2466C17.0742 44.7915 16.6491 44.5452 16.3867 44.6971L17.3992 44.3665C17.6615 44.2146 17.9924 44.4604 18.1627 44.7684C18.3142 45.0421 18.3522 45.5127 18.0898 45.6646L17.3365 46.3456Z" fill="#B8C8F4"/>
<path d="M17.338 46.3457C17.0756 46.4976 16.6505 46.2513 16.3882 45.7962C16.1258 45.3412 16.1258 44.8491 16.3882 44.6972C16.6505 44.5453 17.0756 44.7916 17.338 45.2467C17.6003 45.7018 17.6003 46.1939 17.338 46.3457Z" fill="#1C6DF6"/>
<path d="M16.2584 46.9701C16.5208 46.8182 16.5208 46.3261 16.2584 45.8711C15.9961 45.416 15.5709 45.1697 15.3086 45.3216L16.321 44.991C16.5834 44.8391 16.9143 45.0849 17.0845 45.3929C17.2361 45.6666 17.2741 46.1372 17.0117 46.2891L16.2584 46.9701Z" fill="#121E51"/>
<path d="M16.2599 46.97C15.9975 47.1219 15.5724 46.8756 15.31 46.4205C15.0477 45.9654 15.0477 45.4728 15.31 45.3215C15.5724 45.1696 15.9975 45.4159 16.2599 45.871C16.5222 46.326 16.5222 46.8181 16.2599 46.97Z" fill="#006272"/>
<path d="M13.9629 44.8159C13.9629 45.2184 14.5267 45.5441 15.2216 45.5441C15.9166 45.5441 16.4804 45.2179 16.4804 44.8159V47.8677C16.4804 48.2702 15.9166 48.596 15.2216 48.596C14.5267 48.596 13.9629 48.2697 13.9629 47.8677V44.8159Z" fill="#1C6DF6"/>
<path d="M13.9629 43.8284C13.9629 44.2308 14.5267 44.5566 15.2216 44.5566C15.9166 44.5566 16.4804 44.2303 16.4804 43.8284V44.8158C16.4804 45.2182 15.9166 45.544 15.2216 45.544C14.5267 45.544 13.9629 45.2177 13.9629 44.8158V43.8284Z" fill="#3C94A3"/>
<path d="M13.9629 43.8283C13.9629 43.4258 14.5267 43.1001 15.2216 43.1001C15.9166 43.1001 16.4804 43.4264 16.4804 43.8283C16.4804 44.2308 15.9166 44.5565 15.2216 44.5565C14.5267 44.5565 13.9629 44.2302 13.9629 43.8283Z" fill="#2B6C81"/>
<path d="M14.4531 43.0327C14.4531 43.279 14.7979 43.4787 15.2236 43.4787C15.6492 43.4787 15.994 43.279 15.994 43.0327V43.637C15.994 43.8833 15.6492 44.0829 15.2236 44.0829C14.7979 44.0829 14.4531 43.8833 14.4531 43.637V43.0327Z" fill="#3C94A3"/>
<path d="M14.4531 43.0326C14.4531 42.7863 14.7979 42.5867 15.2236 42.5867C15.6492 42.5867 15.994 42.7863 15.994 43.0326C15.994 43.2789 15.6492 43.4786 15.2236 43.4786C14.7979 43.478 14.4531 43.2784 14.4531 43.0326Z" fill="#2B6C81"/>
<path d="M13.6348 43.6995C13.6348 44.2066 14.3453 44.6176 15.2217 44.6176C16.0982 44.6176 16.8087 44.2066 16.8087 43.6995V44.9444C16.8087 45.4516 16.0982 45.8626 15.2217 45.8626C14.3453 45.8626 13.6348 45.4516 13.6348 44.9444V43.6995Z" fill="#69A4FC"/>
<path d="M13.6348 43.6994C13.6348 43.1923 14.3453 42.7812 15.2217 42.7812C16.0982 42.7812 16.8087 43.1923 16.8087 43.6994C16.8087 44.2065 16.0982 44.6176 15.2217 44.6176C14.3453 44.6176 13.6348 44.2065 13.6348 43.6994Z" fill="#88BEFF"/>
<path d="M14.4531 43.0327C14.4531 43.279 14.7979 43.4787 15.2236 43.4787C15.6492 43.4787 15.994 43.279 15.994 43.0327V43.637C15.994 43.8833 15.6492 44.0829 15.2236 44.0829C14.7979 44.0829 14.4531 43.8833 14.4531 43.637V43.0327Z" fill="#1C6DF6"/>
<path d="M14.4531 43.0326C14.4531 42.7863 14.7979 42.5867 15.2236 42.5867C15.6492 42.5867 15.994 42.7863 15.994 43.0326C15.994 43.2789 15.6492 43.4786 15.2236 43.4786C14.7979 43.478 14.4531 43.2784 14.4531 43.0326Z" fill="#2B6C81"/>
<path d="M13.9629 42.1123C13.9629 42.5148 14.5267 42.8405 15.2216 42.8405C15.9166 42.8405 16.4804 42.5142 16.4804 42.1123V43.0997C16.4804 43.5022 15.9166 43.8279 15.2216 43.8279C14.5267 43.8279 13.9629 43.5016 13.9629 43.0997V42.1123Z" fill="#69A4FC"/>
<path d="M13.9629 42.1122C13.9629 41.7098 14.5267 41.384 15.2216 41.384C15.9166 41.384 16.4804 41.7103 16.4804 42.1122C16.4804 42.5147 15.9166 42.8404 15.2216 42.8404C14.5267 42.841 13.9629 42.5147 13.9629 42.1122Z" fill="#1C6DF6"/>
<path d="M14.4492 41.3164C14.4492 41.5627 14.794 41.7623 15.2197 41.7623C15.6453 41.7623 15.9901 41.5627 15.9901 41.3164V41.9207C15.9901 42.167 15.6453 42.3666 15.2197 42.3666C14.794 42.3666 14.4492 42.167 14.4492 41.9207V41.3164Z" fill="#3C94A3"/>
<path d="M14.4492 41.3161C14.4492 41.0697 14.794 40.8701 15.2197 40.8701C15.6453 40.8701 15.9901 41.0697 15.9901 41.3161C15.9901 41.5624 15.6453 41.762 15.2197 41.762C14.794 41.762 14.4492 41.5624 14.4492 41.3161Z" fill="#2B6C81"/>
<path d="M13.3594 40.2478C13.3594 40.8424 14.1925 41.3248 15.2204 41.3248C16.2484 41.3248 17.0815 40.8429 17.0815 40.2478V41.3162C17.0815 41.9108 16.2484 42.3933 15.2204 42.3933C14.1925 42.3933 13.3594 41.9114 13.3594 41.3162V40.2478Z" fill="#69A4FC"/>
<path d="M13.3594 40.2477C13.3594 39.6531 14.1925 39.1707 15.2204 39.1707C16.2484 39.1707 17.0815 39.6526 17.0815 40.2477C17.0815 40.8423 16.2484 41.3247 15.2204 41.3247C14.1925 41.3247 13.3594 40.8423 13.3594 40.2477Z" fill="#88BEFF"/>
<path d="M16.0711 40.5828C15.8531 40.7089 15.5522 40.7867 15.2198 40.7867C14.5548 40.7867 14.0156 40.4749 14.0156 40.0902V39.0137C14.0156 39.3984 14.5548 39.7102 15.2198 39.7102C15.5522 39.7102 15.8531 39.6324 16.0711 39.5063C16.289 39.3802 16.4239 39.2058 16.4239 39.0137V40.0902C16.4239 40.2828 16.289 40.4567 16.0711 40.5828Z" fill="#1C6DF6"/>
<path d="M16.0711 39.5063C15.8531 39.6324 15.5522 39.7102 15.2198 39.7102C14.5548 39.7102 14.0156 39.3985 14.0156 39.0137C14.0156 38.821 14.1506 38.6472 14.3685 38.5211C14.5864 38.395 14.8873 38.3171 15.2198 38.3171C15.8847 38.3171 16.4239 38.6289 16.4239 39.0137C16.4239 39.2058 16.289 39.3802 16.0711 39.5063Z" fill="#2B6C81"/>
<path d="M13.6426 35.4761C13.6426 35.98 14.3488 36.3884 15.2194 36.3884C16.0905 36.3884 16.7961 35.98 16.7961 35.4761V39.0136C16.7961 39.5174 16.0899 39.9258 15.2194 39.9258C14.3482 39.9258 13.6426 39.5174 13.6426 39.0136V35.4761Z" fill="#69A4FC"/>
<path d="M13.6426 35.476C13.6426 34.9721 14.3488 34.5637 15.2194 34.5637C16.0905 34.5637 16.7961 34.9721 16.7961 35.476C16.7961 35.9799 16.0899 36.3883 15.2194 36.3883C14.3482 36.3883 13.6426 35.9799 13.6426 35.476Z" fill="#88BEFF"/>
<path d="M15.2193 36.1178C14.6223 36.1178 14.1367 35.8297 14.1367 35.476C14.1367 35.1219 14.6223 34.8342 15.2193 34.8342C15.8163 34.8342 16.3019 35.1219 16.3019 35.476C16.3019 35.8297 15.8163 36.1178 15.2193 36.1178ZM15.2193 34.9072C14.6625 34.9072 14.2095 35.1621 14.2095 35.476C14.2095 35.7894 14.6625 36.0449 15.2193 36.0449C15.7761 36.0449 16.2291 35.79 16.2291 35.476C16.2291 35.1621 15.7761 34.9072 15.2193 34.9072Z" fill="#1C6DF6"/>
<path d="M13.1976 45.5564C12.9781 45.5564 12.7736 45.5001 12.5942 45.3879C12.2184 45.1529 12.0117 44.7085 12.0117 44.137C12.0117 43.0396 12.7682 41.8102 13.7341 41.338C13.8428 41.2848 13.974 41.3299 14.027 41.4388C14.08 41.5478 14.035 41.6793 13.9263 41.7324C13.112 42.1306 12.4497 43.2097 12.4497 44.137C12.4497 44.5513 12.5835 44.8636 12.8266 45.0155C13.0611 45.162 13.3834 45.1486 13.7347 44.9769C13.8433 44.9237 13.9745 44.9688 14.0275 45.0777C14.0805 45.1867 14.0356 45.3182 13.9269 45.3713C13.6747 45.4947 13.4279 45.5564 13.1976 45.5564Z" fill="#121E51"/>
<path d="M14.206 47.9519C14.448 47.8119 14.448 47.3584 14.206 46.9382C13.964 46.5186 13.5721 46.2916 13.3301 46.4317L13.9088 46.0968C14.1509 45.9567 14.5428 46.1837 14.7848 46.6034C15.0268 47.023 15.0268 47.477 14.7848 47.6171L14.206 47.9519Z" fill="#121E51"/>
<path d="M14.2059 47.952C13.9639 48.0921 13.5719 47.8651 13.3299 47.4455C13.0879 47.0258 13.0879 46.5718 13.3299 46.4318C13.5719 46.2917 13.9639 46.5187 14.2059 46.9383C14.4473 47.3585 14.4473 47.812 14.2059 47.952Z" fill="#202A5F"/>
<path d="M13.4727 47.8056C13.5781 47.7445 13.5781 47.5459 13.4727 47.3624C13.3672 47.1788 13.1953 47.0796 13.0898 47.1407L13.5139 46.8955C13.6194 46.8343 13.7912 46.9336 13.8967 47.1171C14.0022 47.3007 14.0022 47.4992 13.8967 47.5604L13.4727 47.8056Z" fill="#121E51"/>
<path d="M13.4717 47.8055C13.3662 47.8667 13.1943 47.7674 13.0889 47.5839C12.9834 47.4004 12.9834 47.2018 13.0889 47.1406C13.1949 47.0794 13.3662 47.1787 13.4717 47.3622C13.5777 47.5458 13.5777 47.7443 13.4717 47.8055Z" fill="#B8C8F4"/>
<path d="M13.1081 48.2051C13.2585 48.1176 13.2585 47.8354 13.1081 47.5735C12.9576 47.3121 12.7129 47.1705 12.5625 47.2579L12.8174 47.1104C12.9678 47.0234 13.2125 47.1646 13.3629 47.4259C13.5134 47.6873 13.5134 47.9701 13.3629 48.0575L13.1081 48.2051Z" fill="#69A4FC"/>
<path d="M13.1076 48.205C12.9572 48.2919 12.7125 48.1508 12.5621 47.8894C12.4116 47.6281 12.4116 47.3453 12.5621 47.2578C12.7125 47.1709 12.9572 47.312 13.1076 47.5734C13.2581 47.8347 13.2581 48.1175 13.1076 48.205Z" fill="#00ABAC"/>
<path d="M12.6681 49.7103C13.1173 49.45 13.1173 48.607 12.6681 47.8267C12.2189 47.0465 11.4902 46.6252 11.041 46.8849L11.5405 46.5957C11.9898 46.3354 12.7184 46.7572 13.1677 47.5375C13.6169 48.3178 13.6169 49.1608 13.1677 49.4211L12.6681 49.7103Z" fill="#99C1FD"/>
<path d="M12.6671 49.7104C12.2179 49.9706 11.4892 49.5488 11.04 48.7686C10.5908 47.9883 10.5908 47.1453 11.04 46.885C11.4892 46.6247 12.2179 47.0465 12.6671 47.8268C13.1163 48.6071 13.1163 49.4506 12.6671 49.7104Z" fill="#69A4FC"/>
<path d="M15.219 35.4762C15.219 35.4762 13.4688 35.2631 14.1728 33.2701C14.4818 32.3954 15.219 31.2588 15.219 31.2588C15.219 31.2588 16.1351 32.5328 16.2652 33.5996C16.3948 34.6659 16.2652 35.1955 15.219 35.4762Z" fill="#FEB30F"/>
<path opacity="0.67" d="M15.203 35.4429C15.203 35.4429 14.2858 35.1257 14.598 34.1265C14.9342 33.05 15.1934 32.7039 15.0927 32.8649C15.0927 32.8649 15.7293 33.5507 15.7657 34.1539C15.8021 34.7576 15.7314 35.335 15.203 35.4429Z" fill="#FBC22C"/>
<path opacity="0.67" d="M15.243 35.336C15.243 35.336 14.8222 35.1906 14.9652 34.7318C15.1194 34.2376 15.2388 34.0787 15.1922 34.1528C15.1922 34.1528 15.4845 34.4678 15.5011 34.7447C15.5183 35.021 15.4861 35.2861 15.243 35.336Z" fill="#F2DBD1"/>
<path d="M25.7972 25.6504L21.9766 27.8613V36.8467L25.7972 34.6357V25.6504Z" fill="#99C1FD"/>
<path d="M21.9783 27.8612L21.498 27.5833V36.5686L21.9783 36.8466V27.8612Z" fill="#5195FB"/>
<path d="M25.799 25.6503L25.3187 25.3723L21.498 27.5832L21.9783 27.8612L25.799 25.6503Z" fill="#C9DEFE"/>
<path d="M24.3047 35.4063C24.3047 35.2211 24.4268 35.0355 24.6709 34.8943C25.1592 34.6121 25.9511 34.6121 26.4394 34.8943C26.6835 35.0355 26.8056 35.2206 26.8056 35.4057V35.7588C26.8056 35.5737 26.6835 35.3886 26.4394 35.2474C25.9511 34.9646 25.1592 34.9646 24.6709 35.2474C24.4268 35.3886 24.3047 35.5737 24.3047 35.7594V35.4063Z" fill="#5195FB"/>
<path d="M25.5444 36.9918L22.8262 35.4189V35.7715L25.5444 37.3444V36.9918Z" fill="#7788BD"/>
<path d="M25.5444 36.9919L28.2954 35.4003L25.5771 33.8274L22.8262 35.419L25.5444 36.9919ZM24.6712 35.9181C24.1829 35.6358 24.1829 35.177 24.6712 34.8948C25.1595 34.6125 25.9513 34.6125 26.4396 34.8948C26.9279 35.177 26.9279 35.6358 26.4396 35.9181C25.9513 36.2004 25.1595 36.2004 24.6712 35.9181Z" fill="#C9DEFE"/>
<path d="M27.0137 36.9729C27.0137 36.7878 27.1357 36.6021 27.3799 36.461C27.8682 36.1787 28.66 36.1787 29.1483 36.461C29.3925 36.6021 29.5146 36.7872 29.5146 36.9724V37.3255C29.5146 37.1403 29.3925 36.9552 29.1483 36.8141C28.66 36.5318 27.8682 36.5318 27.3799 36.8141C27.1357 36.9552 27.0137 37.1409 27.0137 37.326V36.9729Z" fill="#5195FB"/>
<path d="M28.2685 38.5678L25.5449 36.9917V37.3443L28.2685 38.9203V38.5678Z" fill="#7788BD"/>
<path d="M28.2685 38.5679L31.0195 36.9762L28.2958 35.4001L25.5449 36.9918L28.2685 38.5679ZM27.3787 37.4844C26.8904 37.2022 26.8904 36.7433 27.3787 36.4611C27.867 36.1788 28.6588 36.1788 29.1471 36.4611C29.6354 36.7439 29.6354 37.2022 29.1471 37.4844C28.6594 37.7667 27.867 37.7667 27.3787 37.4844Z" fill="#C9DEFE"/>
<path d="M29.7207 38.5398C29.7207 38.3547 29.8428 38.169 30.0869 38.0279C30.5752 37.7456 31.3671 37.7456 31.8554 38.0279C32.0995 38.169 32.2216 38.3541 32.2216 38.5393V38.8924C32.2216 38.7072 32.0995 38.5221 31.8554 38.381C31.3671 38.0987 30.5752 38.0987 30.0869 38.381C29.8428 38.5221 29.7207 38.7078 29.7207 38.8929V38.5398Z" fill="#5195FB"/>
<path d="M30.9912 40.1442L28.2676 38.5681V38.9207L30.9912 40.4968V40.1442Z" fill="#7788BD"/>
<path d="M28.2676 38.568L30.9912 40.1441L33.7421 38.5519L31.0185 36.9758L28.2676 38.568ZM30.0853 39.051C29.597 38.7687 29.597 38.3099 30.0853 38.0276C30.5736 37.7454 31.3654 37.7454 31.8537 38.0276C32.342 38.3099 32.342 38.7687 31.8537 39.051C31.3654 39.3338 30.5736 39.3338 30.0853 39.051Z" fill="#C9DEFE"/>
<path d="M32.4258 40.1067C32.4258 39.9216 32.5478 39.7359 32.792 39.5948C33.2803 39.3125 34.0722 39.3125 34.5604 39.5948C34.8046 39.7359 34.9267 39.921 34.9267 40.1062V40.4593C34.9267 40.2741 34.8046 40.089 34.5604 39.9479C34.0722 39.6651 33.2803 39.6651 32.792 39.9479C32.5478 40.089 32.4258 40.2741 32.4258 40.4598V40.1067Z" fill="#5195FB"/>
<path d="M33.7144 41.7204L30.9902 40.1443V40.4969L33.7144 42.0735V41.7204Z" fill="#7788BD"/>
<path d="M33.7431 38.552L30.9922 40.1442L33.7158 41.7203L36.4667 40.1281L33.7431 38.552ZM34.5618 39.5947C35.05 39.8769 35.05 40.3358 34.5618 40.618C34.0735 40.9003 33.2816 40.9003 32.7933 40.618C32.305 40.3358 32.305 39.8769 32.7933 39.5947C33.2816 39.3119 34.0735 39.3119 34.5618 39.5947Z" fill="#C9DEFE"/>
<path d="M35.1328 41.6729C35.1328 41.4877 35.2549 41.3021 35.499 41.1609C35.9873 40.8787 36.7792 40.8787 37.2675 41.1609C37.5116 41.3021 37.6337 41.4872 37.6337 41.6723V42.0254C37.6337 41.8403 37.5116 41.6552 37.2675 41.514C36.7792 41.2318 35.9873 41.2318 35.499 41.514C35.2549 41.6552 35.1328 41.8408 35.1328 42.026V41.6729Z" fill="#5195FB"/>
<path d="M39.2651 41.7485L36.5137 43.3407V43.6933L39.2651 42.1016V41.7485Z" fill="#C9DEFE"/>
<path d="M36.5164 43.3408L33.7168 41.7202V42.0733L36.5164 43.6934V43.3408Z" fill="#7788BD"/>
<path d="M36.4677 40.1284L33.7168 41.7206L36.517 43.3412L39.2679 41.749L36.4677 40.1284ZM37.2698 41.1609C37.7581 41.4437 37.7581 41.902 37.2698 42.1842C36.7815 42.4665 35.9896 42.4665 35.5013 42.1842C35.013 41.902 35.013 41.4432 35.5013 41.1609C35.9896 40.8786 36.782 40.8786 37.2698 41.1609Z" fill="#C9DEFE"/>
<path d="M23.9082 31.112C23.9082 30.9269 24.0303 30.7417 24.2744 30.6C24.7627 30.3172 25.5546 30.3172 26.0429 30.6C26.287 30.7412 26.4091 30.9263 26.4091 31.1115V31.4646C26.4091 31.2794 26.287 31.0943 26.0429 30.9531C25.5546 30.6709 24.7627 30.6709 24.2744 30.9531C24.0303 31.0943 23.9082 31.28 23.9082 31.4651V31.112Z" fill="#5195FB"/>
<path d="M26.0437 30.6006C25.5554 30.3178 24.7636 30.3178 24.2753 30.6006C23.938 30.7959 23.8341 31.075 23.9626 31.3218L22.4902 31.1598L25.2412 29.5681L28.0413 31.1882L26.3339 31.3589C26.494 31.1029 26.3982 30.8056 26.0437 30.6006Z" fill="#C9DEFE"/>
<path d="M24.0742 35.0321C24.0742 35.6047 24.5373 35.9122 25.1086 35.9122C25.6799 35.9122 26.143 35.6047 26.143 35.0321C26.143 34.4595 25.6799 33.9954 25.1086 33.9954C24.5373 33.9954 24.0742 34.4595 24.0742 35.0321Z" fill="#81B2FC"/>
<path d="M24.0723 28.167V34.9887C24.0723 35.3192 24.5349 35.587 25.1061 35.587C25.634 35.587 26.0693 35.3584 26.1325 35.0627C26.1379 35.038 26.1405 35.0139 26.1405 34.9887V28.167C26.1405 28.4976 25.6774 28.7653 25.1061 28.7653C24.5349 28.7653 24.0723 28.497 24.0723 28.167Z" fill="#B1D0FE"/>
<path d="M24.0723 28.167V34.9887C24.0723 35.3193 24.5349 35.587 25.1061 35.587C25.634 35.587 26.0693 35.3584 26.1325 35.0628C26.0961 35.0966 26.0543 35.1304 26.0067 35.1615C25.6833 35.3772 25.2095 35.1615 24.908 34.1467C24.6066 33.1314 24.6066 29.2226 24.6066 29.2226C24.6066 29.2226 24.6066 29.2226 25.5114 29.0063C25.8118 28.9344 26.0099 28.7895 26.1405 28.6248V28.1665C26.1405 28.4971 25.6774 28.7648 25.1061 28.7648C24.5349 28.7654 24.0723 28.4971 24.0723 28.167Z" fill="#81B2FC"/>
<path d="M26.1425 28.1672C26.1425 27.8366 25.6794 27.5688 25.1081 27.5688C24.5368 27.5688 24.0742 27.8366 24.0742 28.1672C24.0742 28.4978 24.5373 28.7655 25.1081 28.7655C25.6794 28.7655 26.1425 28.4978 26.1425 28.1672Z" fill="#81B2FC"/>
<path d="M23.9004 28.1671C23.9004 27.7346 24.4304 27.396 25.1067 27.396C25.7834 27.396 26.3135 27.7346 26.3135 28.1671C26.3135 28.5997 25.7834 28.9383 25.1067 28.9383C24.4304 28.9383 23.9004 28.5997 23.9004 28.1671ZM24.2452 28.1671C24.2452 28.3684 24.6136 28.5927 25.1072 28.5927C25.6003 28.5927 25.9692 28.3678 25.9692 28.1671C25.9692 27.9664 25.6008 27.7416 25.1072 27.7416C24.6136 27.7411 24.2452 27.9659 24.2452 28.1671Z" fill="#E1EDFF"/>
<path d="M25.8858 29.1724V31.951C25.8858 31.951 25.8713 32.9014 25.7277 32.786C25.5841 32.6707 25.6115 31.8502 25.6115 31.8502V29.3017C25.6115 29.3017 25.7663 29.3167 25.8858 29.1724Z" fill="white"/>
<path d="M28.0405 31.1873L25.2891 32.7794V33.132L28.0405 31.5404V31.1873Z" fill="#C9DEFE"/>
<path d="M25.2899 32.7795L22.4902 31.1594V31.512L25.2899 33.1321V32.7795Z" fill="#7788BD"/>
<path d="M23.9626 31.3215C24.0204 31.432 24.1243 31.5361 24.2753 31.6236C24.7636 31.9064 25.5554 31.9064 26.0437 31.6236C26.1776 31.5458 26.2734 31.4551 26.3339 31.3585L28.0413 31.1879L25.2904 32.7801L22.4902 31.1594L23.9626 31.3215Z" fill="#C9DEFE"/>
<path d="M26.7129 32.7361C26.7129 32.551 26.835 32.3653 27.0791 32.2242C27.5674 31.9419 28.3593 31.9419 28.8476 32.2242C29.0917 32.3653 29.2138 32.5504 29.2138 32.7356V33.0887C29.2138 32.9035 29.0917 32.7184 28.8476 32.5773C28.3593 32.2944 27.5674 32.2944 27.0791 32.5773C26.835 32.7184 26.7129 32.9035 26.7129 33.0892V32.7361Z" fill="#5195FB"/>
<path d="M28.8484 32.2241C28.3601 31.9419 27.5683 31.9419 27.08 32.2241C26.7427 32.4195 26.6388 32.6985 26.7673 32.9454L25.2949 32.7833L28.0458 31.1917L30.846 32.8123L29.1386 32.9829C29.2982 32.7264 29.2023 32.4291 28.8484 32.2241Z" fill="#C9DEFE"/>
<path d="M26.8809 36.6557C26.8809 37.2283 27.344 37.5357 27.9153 37.5357C28.4865 37.5357 28.9497 37.2283 28.9497 36.6557C28.9497 36.0831 28.4865 35.6189 27.9153 35.6189C27.344 35.6189 26.8809 36.0831 26.8809 36.6557Z" fill="#81B2FC"/>
<path d="M26.8828 29.7905V36.6122C26.8828 36.9428 27.3454 37.2105 27.9167 37.2105C28.4446 37.2105 28.8799 36.9819 28.9431 36.6862C28.9484 36.6621 28.9511 36.6374 28.9511 36.6122V29.7905C28.9511 30.1211 28.488 30.3889 27.9167 30.3889C27.3459 30.3889 26.8828 30.1206 26.8828 29.7905Z" fill="#B1D0FE"/>
<path d="M26.8828 29.7905V36.6122C26.8828 36.9428 27.3454 37.2105 27.9167 37.2105C28.4446 37.2105 28.8799 36.9819 28.9431 36.6862C28.9061 36.7201 28.8644 36.7539 28.8172 36.785C28.4939 37.0007 28.02 36.785 27.7186 35.7702C27.4172 34.7549 27.4172 30.8461 27.4172 30.8461C27.4172 30.8461 27.4171 30.8461 28.322 30.6304C28.6223 30.5584 28.8205 30.4136 28.9511 30.2488V29.7905C28.9511 30.1211 28.488 30.3889 27.9167 30.3889C27.3459 30.3889 26.8828 30.1206 26.8828 29.7905Z" fill="#81B2FC"/>
<path d="M28.9511 29.7905C28.9511 29.4599 28.488 29.1921 27.9167 29.1921C27.3454 29.1921 26.8828 29.4599 26.8828 29.7905C26.8828 30.121 27.3459 30.3888 27.9167 30.3888C28.4874 30.3888 28.9511 30.121 28.9511 29.7905Z" fill="#81B2FC"/>
<path d="M26.709 29.7904C26.709 29.3579 27.239 29.0193 27.9158 29.0193C28.5925 29.0193 29.1226 29.3579 29.1226 29.7904C29.1226 30.2229 28.5925 30.5616 27.9158 30.5616C27.239 30.5616 26.709 30.2229 26.709 29.7904ZM27.0538 29.7904C27.0538 29.9917 27.4221 30.216 27.9158 30.216C28.4089 30.216 28.7778 29.9911 28.7778 29.7904C28.7778 29.5897 28.4094 29.3649 27.9158 29.3649C27.4227 29.3649 27.0538 29.5892 27.0538 29.7904Z" fill="#E1EDFF"/>
<path d="M28.6924 30.7957V33.5743C28.6924 33.5743 28.6779 34.5247 28.5344 34.4093C28.3908 34.294 28.4181 33.4734 28.4181 33.4734V30.925C28.4181 30.925 28.5729 30.94 28.6924 30.7957Z" fill="white"/>
<path d="M30.8466 32.8115L28.0957 34.4037V34.7568L30.8466 33.1646V32.8115Z" fill="#C9DEFE"/>
<path d="M28.0951 34.4036L25.2949 32.783V33.1361L28.0951 34.7567V34.4036Z" fill="#7788BD"/>
<path d="M26.7673 32.9453C26.8251 33.0559 26.929 33.16 27.08 33.2474C27.5683 33.5297 28.3601 33.5297 28.8484 33.2474C28.9823 33.1696 29.0781 33.0789 29.1386 32.9823L30.846 32.8117L28.0951 34.4033L25.2949 32.7827L26.7673 32.9453Z" fill="#C9DEFE"/>
<path d="M29.5254 34.3594C29.5254 34.1742 29.6475 33.9886 29.8916 33.8474C30.3799 33.5652 31.1718 33.5652 31.6601 33.8474C31.9042 33.9886 32.0263 34.1737 32.0263 34.3589V34.712C32.0263 34.5268 31.9042 34.3417 31.6601 34.2005C31.1718 33.9183 30.3799 33.9183 29.8916 34.2005C29.6475 34.3417 29.5254 34.5274 29.5254 34.7125V34.3594Z" fill="#5195FB"/>
<path d="M31.6609 33.8475C31.1726 33.5652 30.3808 33.5652 29.8925 33.8475C29.5552 34.0428 29.4513 34.3219 29.5798 34.5687L28.1074 34.4066L30.8583 32.8145L33.6585 34.4351L31.9511 34.6057C32.1112 34.3498 32.0154 34.0525 31.6609 33.8475Z" fill="#C9DEFE"/>
<path d="M29.6875 38.2792C29.6875 38.8518 30.1506 39.1593 30.7219 39.1593C31.2932 39.1593 31.7563 38.8518 31.7563 38.2792C31.7563 37.7066 31.2932 37.2424 30.7219 37.2424C30.1501 37.2424 29.6875 37.7066 29.6875 38.2792Z" fill="#81B2FC"/>
<path d="M29.6895 31.4141V38.2357C29.6895 38.5663 30.1526 38.8341 30.7233 38.8341C31.2512 38.8341 31.6865 38.6055 31.7497 38.3098C31.7551 38.2851 31.7577 38.2609 31.7577 38.2352V31.4141C31.7577 31.7446 31.2946 32.0124 30.7233 32.0124C30.152 32.0124 29.6895 31.7441 29.6895 31.4141Z" fill="#B1D0FE"/>
<path d="M29.6895 31.4141V38.2357C29.6895 38.5663 30.1526 38.8341 30.7233 38.8341C31.2512 38.8341 31.6865 38.6055 31.7497 38.3098C31.7128 38.3436 31.671 38.3769 31.6239 38.4085C31.3005 38.6242 30.8267 38.4085 30.5252 37.3937C30.2238 36.3784 30.2238 32.4696 30.2238 32.4696C30.2238 32.4696 30.2238 32.4696 31.1286 32.2539C31.429 32.182 31.6271 32.0371 31.7577 31.8723V31.4141C31.7577 31.7446 31.2946 32.0124 30.7233 32.0124C30.152 32.0124 29.6895 31.7441 29.6895 31.4141Z" fill="#81B2FC"/>
<path d="M31.7577 31.4143C31.7577 31.0837 31.2946 30.8159 30.7233 30.8159C30.152 30.8159 29.6895 31.0837 29.6895 31.4143C29.6895 31.7448 30.1526 32.0126 30.7233 32.0126C31.2941 32.0126 31.7577 31.7448 31.7577 31.4143Z" fill="#81B2FC"/>
<path d="M29.5156 31.4142C29.5156 30.9817 30.0457 30.6431 30.7224 30.6431C31.3992 30.6431 31.9292 30.9817 31.9292 31.4142C31.9292 31.8467 31.3992 32.1853 30.7224 32.1853C30.0457 32.1853 29.5156 31.8467 29.5156 31.4142ZM29.8604 31.4142C29.8604 31.6149 30.2288 31.8398 30.7224 31.8398C31.2155 31.8398 31.5844 31.6149 31.5844 31.4142C31.5844 31.2135 31.2161 30.9887 30.7224 30.9887C30.2288 30.9887 29.8604 31.213 29.8604 31.4142Z" fill="#E1EDFF"/>
<path d="M31.4991 32.4192V35.1979C31.4991 35.1979 31.4846 36.1482 31.341 36.0329C31.1974 35.9175 31.2247 35.097 31.2247 35.097V32.5485C31.2247 32.5485 31.3796 32.5635 31.4991 32.4192Z" fill="white"/>
<path d="M33.6577 34.4343L30.9062 36.0265V36.3796L33.6577 34.7874V34.4343Z" fill="#C9DEFE"/>
<path d="M30.9071 36.0266L28.1074 34.4065V34.7591L30.9071 36.3797V36.0266Z" fill="#7788BD"/>
<path d="M29.5798 34.5686C29.6376 34.6791 29.7415 34.7832 29.8925 34.8707C30.3808 35.1529 31.1726 35.1529 31.6609 34.8707C31.7948 34.7929 31.8906 34.7022 31.9511 34.6056L33.6585 34.4349L30.9076 36.0266L28.1074 34.4065L29.5798 34.5686Z" fill="#C9DEFE"/>
<path d="M32.3262 35.9829C32.3262 35.7978 32.4482 35.6126 32.6924 35.471C33.1807 35.1887 33.9725 35.1887 34.4608 35.471C34.705 35.6121 34.8271 35.7972 34.8271 35.9824V36.3355C34.8271 36.1504 34.705 35.9652 34.4608 35.8241C33.9725 35.5418 33.1807 35.5418 32.6924 35.8241C32.4482 35.9652 32.3262 36.1509 32.3262 36.336V35.9829Z" fill="#5195FB"/>
<path d="M34.4617 35.471C33.9734 35.1887 33.1815 35.1887 32.6932 35.471C32.3559 35.6663 32.2521 35.9453 32.3806 36.1922L30.9082 36.0301L33.6591 34.4385L36.4593 36.0591L34.7519 36.2298C34.9114 35.9732 34.8156 35.676 34.4617 35.471Z" fill="#C9DEFE"/>
<path d="M32.4922 39.9025C32.4922 40.4751 32.9553 40.7826 33.5266 40.7826C34.0979 40.7826 34.561 40.4751 34.561 39.9025C34.561 39.3299 34.0979 38.8657 33.5266 38.8657C32.9553 38.8657 32.4922 39.3299 32.4922 39.9025Z" fill="#81B2FC"/>
<path d="M32.4922 33.0374V39.859C32.4922 40.1896 32.9553 40.4574 33.5261 40.4574C34.054 40.4574 34.4893 40.2288 34.5524 39.9331C34.5578 39.9089 34.5605 39.8842 34.5605 39.859V33.0374C34.5605 33.3679 34.0973 33.6357 33.5261 33.6357C32.9553 33.6357 32.4922 33.3679 32.4922 33.0374Z" fill="#B1D0FE"/>
<path d="M32.4922 33.0374V39.8591C32.4922 40.1896 32.9553 40.4574 33.5261 40.4574C34.054 40.4574 34.4893 40.2288 34.5524 39.9331C34.5155 39.9669 34.4737 40.0007 34.4266 40.0319C34.1032 40.2476 33.6294 40.0319 33.328 39.0165C33.0265 38.0018 33.0265 34.0924 33.0265 34.0924C33.0265 34.0924 33.0265 34.0924 33.9314 33.8767C34.2317 33.8048 34.4298 33.6599 34.5605 33.4951V33.0369C34.5605 33.3674 34.0973 33.6352 33.5261 33.6352C32.9553 33.6357 32.4922 33.368 32.4922 33.0374Z" fill="#81B2FC"/>
<path d="M34.5624 33.0376C34.5624 32.707 34.0993 32.4392 33.528 32.4392C32.9567 32.4392 32.4941 32.707 32.4941 33.0376C32.4941 33.3681 32.9573 33.6359 33.528 33.6359C34.0988 33.6359 34.5624 33.3681 34.5624 33.0376Z" fill="#81B2FC"/>
<path d="M32.3203 33.0375C32.3203 32.605 32.8504 32.2664 33.5271 32.2664C34.2039 32.2664 34.7339 32.605 34.7339 33.0375C34.7339 33.47 34.2039 33.8086 33.5271 33.8086C32.8504 33.8086 32.3203 33.47 32.3203 33.0375ZM32.6651 33.0375C32.6651 33.2382 33.0335 33.463 33.5271 33.463C34.0202 33.463 34.3891 33.2382 34.3891 33.0375C34.3891 32.8363 34.0208 32.6119 33.5271 32.6119C33.034 32.6114 32.6651 32.8363 32.6651 33.0375Z" fill="#E1EDFF"/>
<path d="M34.3037 34.0425V36.8212C34.3037 36.8212 34.2893 37.7715 34.1457 37.6562C34.0021 37.5408 34.0294 36.7203 34.0294 36.7203V34.1718C34.0294 34.1718 34.1843 34.1868 34.3037 34.0425Z" fill="white"/>
<path d="M36.4599 36.0586L33.709 37.6502V38.0033L36.4599 36.4112V36.0586Z" fill="#C9DEFE"/>
<path d="M33.7084 37.6501L30.9082 36.03V36.3826L33.7084 38.0032V37.6501Z" fill="#7788BD"/>
<path d="M32.3806 36.1921C32.4384 36.3027 32.5423 36.4068 32.6932 36.4943C33.1815 36.7765 33.9734 36.7765 34.4617 36.4943C34.5955 36.4165 34.6914 36.3258 34.7519 36.2292L36.4593 36.0585L33.7084 37.6502L30.9082 36.0295L32.3806 36.1921Z" fill="#C9DEFE"/>
<path d="M35.1289 37.6065C35.1289 37.4213 35.251 37.2356 35.4951 37.0945C35.9834 36.8122 36.7753 36.8122 37.2636 37.0945C37.5077 37.2356 37.6298 37.4208 37.6298 37.6059V37.959C37.6298 37.7739 37.5077 37.5888 37.2636 37.4476C36.7753 37.1654 35.9834 37.1654 35.4951 37.4476C35.251 37.5888 35.1289 37.7744 35.1289 37.9596V37.6065Z" fill="#5195FB"/>
<path d="M37.2644 37.0945C36.7762 36.8122 35.9843 36.8122 35.496 37.0945C35.1587 37.2898 35.0548 37.5689 35.1833 37.8157L33.7109 37.6537L36.4619 36.062L39.262 37.6826L37.5546 37.8533C37.7147 37.5968 37.6189 37.2995 37.2644 37.0945Z" fill="#C9DEFE"/>
<path d="M35.2969 41.5258C35.2969 42.0984 35.76 42.4059 36.3313 42.4059C36.9026 42.4059 37.3657 42.0984 37.3657 41.5258C37.3657 40.9532 36.9026 40.489 36.3313 40.489C35.76 40.489 35.2969 40.9532 35.2969 41.5258Z" fill="#81B2FC"/>
<path d="M35.2949 34.6606V41.4823C35.2949 41.8129 35.758 42.0806 36.3288 42.0806C36.8567 42.0806 37.292 41.852 37.3552 41.5564C37.3605 41.5322 37.3632 41.5075 37.3632 41.4823V34.6606C37.3632 34.9912 36.9001 35.259 36.3288 35.259C35.7575 35.259 35.2949 34.9912 35.2949 34.6606Z" fill="#B1D0FE"/>
<path d="M35.2949 34.6607V41.4824C35.2949 41.813 35.758 42.0807 36.3288 42.0807C36.8567 42.0807 37.292 41.8521 37.3552 41.5565C37.3188 41.5903 37.2765 41.6241 37.2294 41.6552C36.906 41.8709 36.4321 41.6552 36.1307 40.6399C35.8293 39.6251 35.8293 35.7158 35.8293 35.7158C35.8293 35.7158 35.8293 35.7158 36.7341 35.4995C37.0345 35.4276 37.2326 35.2827 37.3632 35.1179V34.6597C37.3632 34.9902 36.9001 35.258 36.3288 35.258C35.7575 35.258 35.2949 34.9913 35.2949 34.6607Z" fill="#81B2FC"/>
<path d="M37.3652 34.6608C37.3652 34.3303 36.902 34.0625 36.3307 34.0625C35.7595 34.0625 35.2969 34.3303 35.2969 34.6608C35.2969 34.9914 35.76 35.2592 36.3307 35.2592C36.9015 35.2592 37.3652 34.9914 37.3652 34.6608Z" fill="#81B2FC"/>
<path d="M35.123 34.6608C35.123 34.2283 35.6531 33.8896 36.3299 33.8896C37.0066 33.8896 37.5367 34.2283 37.5367 34.6608C37.5367 35.0933 37.0066 35.4319 36.3299 35.4319C35.6531 35.4319 35.123 35.0933 35.123 34.6608ZM35.4679 34.6608C35.4679 34.8615 35.8362 35.0863 36.3299 35.0863C36.823 35.0863 37.1919 34.8615 37.1919 34.6608C37.1919 34.4601 36.8235 34.2352 36.3299 34.2352C35.8362 34.2352 35.4679 34.4596 35.4679 34.6608Z" fill="#E1EDFF"/>
<path d="M37.1065 35.666V38.4447C37.1065 38.4447 37.092 39.3951 36.9484 39.2797C36.8048 39.1643 36.8322 38.3438 36.8322 38.3438V35.7953C36.8322 35.7953 36.987 35.8104 37.1065 35.666Z" fill="white"/>
<path d="M39.2632 37.6816L36.5117 39.2733V39.6264L39.2632 38.0342V37.6816Z" fill="#C9DEFE"/>
<path d="M36.5125 39.2734L33.7129 37.6533V38.0059L36.5125 39.6265V39.2734Z" fill="#7788BD"/>
<path d="M35.1833 37.8154C35.2411 37.926 35.345 38.0301 35.496 38.1176C35.9843 38.4004 36.7762 38.4004 37.2644 38.1176C37.3983 38.0403 37.4941 37.9491 37.5546 37.8525L39.262 37.6818L36.5111 39.2735L33.7109 37.6528L35.1833 37.8154Z" fill="#C9DEFE"/>
<path d="M39.9345 33.8303L36.1133 36.0412V45.0266L39.9345 42.8157V33.8303Z" fill="#99C1FD"/>
<path d="M36.115 36.0414L35.6348 35.7634V44.7488L36.115 45.0268V36.0414Z" fill="#5195FB"/>
<path d="M39.9362 33.8302L39.456 33.5522L35.6348 35.7632L36.115 36.0411L39.9362 33.8302Z" fill="#C9DEFE"/>
<path d="M15.084 22.4033V22.4371C15.0861 22.4264 15.084 22.4151 15.084 22.4033Z" fill="#1E55AF"/>
<path d="M19.6046 25.9725C19.6046 28.4769 17.5803 30.5059 15.0837 30.5059C13.7136 30.5059 12.4864 29.8963 11.6592 28.9331C10.9744 28.1394 10.5605 27.1037 10.5605 25.9725C10.5605 23.4702 12.5849 21.4412 15.0837 21.4412C15.7577 21.4412 16.4002 21.5909 16.9758 21.8565C18.5274 22.5729 19.6046 24.1474 19.6046 25.9725Z" fill="#99C1FD"/>
<path d="M12.2013 23.373C13.7909 22.4532 16.3775 22.4532 17.9665 23.373C18.3606 23.6011 18.6567 23.8651 18.8553 24.1463C18.1753 22.7419 16.7426 21.7695 15.0839 21.7695C13.4252 21.7695 11.9925 22.7424 11.3125 24.1463C11.5106 23.8645 11.8067 23.6011 12.2013 23.373Z" fill="#B6D4FF"/>
<path d="M19.1527 24.9731C19.1837 25.5999 18.7902 26.2321 17.9657 26.7091C16.3761 27.6289 13.79 27.6289 12.2004 26.7091C11.3759 26.2321 10.9829 25.5999 11.014 24.9737C10.9353 25.2946 10.8887 25.6284 10.8887 25.9734C10.8887 28.2917 12.7701 30.1774 15.083 30.1774C17.396 30.1774 19.2774 28.2917 19.2774 25.9734C19.2774 25.6278 19.2314 25.2941 19.1527 24.9731Z" fill="#FC7464"/>
<path d="M11.0137 24.973C11.0844 24.6843 11.1846 24.4079 11.3116 24.1455L11.0137 24.973Z" fill="#195161"/>
<path d="M12.2014 26.7092C13.791 27.629 16.3775 27.629 17.9666 26.7092C18.7911 26.2321 19.1841 25.6 19.1536 24.9732C19.0829 24.6845 18.9828 24.4081 18.8559 24.1462C18.6573 23.865 18.3612 23.601 17.9672 23.3729C16.3775 22.4532 13.791 22.4532 12.2019 23.3729C11.8073 23.601 11.5118 23.865 11.3131 24.1462C11.1862 24.4081 11.0861 24.6845 11.0154 24.9737C10.9838 25.6 11.3768 26.2321 12.2014 26.7092Z" fill="#FF6666"/>
<path d="M12.8763 23.9397C12.8763 23.9397 13.243 24.1812 13.4181 24.3062C13.628 24.4559 13.8539 24.4828 13.8539 24.4828C13.8539 24.4828 13.7351 24.9126 13.6253 25.2695C13.5161 25.6258 13.4877 25.8442 13.4877 25.8442C13.4877 25.8442 12.6503 25.6542 12.3489 25.3789C11.9495 25.0135 11.8483 24.7334 11.9195 24.7624C11.9195 24.7624 12.1283 24.4747 12.4404 24.2273C12.6803 24.0368 12.8763 23.9397 12.8763 23.9397Z" fill="white"/>
<path d="M16.2368 15.9963C16.2042 16.05 16.164 16.102 16.1083 16.1509C16.0634 16.1906 16.0109 16.2276 15.9509 16.263C15.8963 16.2942 15.8369 16.321 15.7759 16.3451C15.7609 16.351 15.7453 16.3564 15.7303 16.3618C15.6789 16.3806 15.6254 16.3967 15.5708 16.4106C15.5579 16.4138 15.5456 16.4176 15.5322 16.4208C15.4653 16.4364 15.3968 16.4476 15.3272 16.4562C15.3138 16.4578 15.3004 16.4584 15.2876 16.4594C15.2292 16.4653 15.1708 16.4686 15.112 16.4691C15.0943 16.4691 15.0761 16.4696 15.0584 16.4696C15.0236 16.4691 14.9893 16.4669 14.9551 16.4648V23.258C15.3106 23.2795 15.6784 23.2124 15.9509 23.0536C16.1678 22.9307 16.2856 22.7708 16.3054 22.6082C16.3097 22.5905 16.3118 22.5711 16.3118 22.5513V15.7607C16.3113 15.8402 16.2834 15.9201 16.2368 15.9963Z" fill="#B8C8F4"/>
<path d="M14.6829 16.4326C14.6727 16.4305 14.6641 16.4267 14.6539 16.4246C14.6074 16.4144 14.5629 16.4015 14.5185 16.3881C14.4842 16.3774 14.4489 16.3693 14.4157 16.357C14.3734 16.3414 14.3354 16.321 14.2958 16.3022C14.2685 16.2888 14.2379 16.2786 14.2122 16.2636C14.1839 16.248 14.1598 16.2309 14.1357 16.2132C14.1191 16.2019 14.1078 16.189 14.0928 16.1772C14.0736 16.1616 14.0543 16.1466 14.0377 16.1305C14.0131 16.1074 13.9922 16.0838 13.9729 16.0597C13.9601 16.0441 13.9467 16.0291 13.936 16.013C13.9183 15.9862 13.906 15.9588 13.8937 15.9309C13.8878 15.9164 13.8787 15.9024 13.8744 15.888C13.8626 15.8504 13.8567 15.8123 13.8557 15.7742C13.8535 15.7613 13.8535 22.5508 13.8535 22.5508C13.8535 22.5706 13.8557 22.5905 13.8578 22.6077C13.8776 22.7477 13.9718 22.8883 14.1357 23.0021C14.1598 23.0198 14.1839 23.0375 14.2122 23.0525C14.3498 23.1314 14.5099 23.1883 14.6823 23.2237C14.7717 23.2414 14.8633 23.2516 14.9559 23.257V16.4648C14.8638 16.4595 14.7717 16.4503 14.6829 16.4326Z" fill="#99C1FD"/>
<path d="M15.08 15.2208C15.3745 15.2208 15.6604 15.2884 15.8638 15.4059C16.0405 15.5068 16.1374 15.6329 16.1374 15.7601C16.1374 15.8851 16.04 16.0102 15.8638 16.1132C15.6604 16.2307 15.3745 16.2983 15.08 16.2983C15.0372 16.2983 14.9954 16.294 14.9537 16.2908V16.4647C14.9879 16.4668 15.0222 16.469 15.057 16.4695C15.0747 16.4695 15.0929 16.4695 15.1105 16.469C15.1694 16.4679 15.2283 16.4652 15.2861 16.4593C15.2995 16.4583 15.3129 16.4572 15.3258 16.4561C15.3954 16.4481 15.4639 16.4363 15.5308 16.4207C15.5437 16.4175 15.556 16.4137 15.5694 16.4105C15.624 16.3965 15.6775 16.3804 15.7289 16.3617C15.7439 16.3563 15.7594 16.3509 15.7744 16.345C15.836 16.3203 15.8949 16.294 15.9495 16.2629C16.0095 16.228 16.0625 16.1899 16.1069 16.1508C16.1626 16.1019 16.2028 16.0499 16.2354 15.9962C16.282 15.92 16.3098 15.8406 16.3098 15.7606C16.3098 15.5782 16.1904 15.3947 15.9495 15.2567C15.677 15.099 15.3086 15.034 14.9531 15.0555V15.2283C14.9954 15.2256 15.0372 15.2208 15.08 15.2208Z" fill="#99C1FD"/>
<path d="M13.8548 15.7743C13.8558 15.8124 13.8617 15.8505 13.8735 15.8881C13.8778 15.9026 13.8869 15.9165 13.8928 15.931C13.9046 15.9589 13.9174 15.9863 13.9351 16.0131C13.9458 16.0292 13.9592 16.0442 13.972 16.0598C13.9913 16.0839 14.0122 16.1076 14.0368 16.1306C14.0534 16.1467 14.0732 16.1618 14.092 16.1773C14.1289 16.2068 14.1658 16.2369 14.2114 16.2632C14.2376 16.2782 14.2676 16.2884 14.2949 16.3018C14.3345 16.3206 14.3725 16.341 14.4148 16.3566C14.448 16.3689 14.4833 16.3775 14.5176 16.3877C14.562 16.4011 14.6065 16.4145 14.6531 16.4242C14.751 16.4451 14.8528 16.458 14.955 16.4644V16.2905C14.7066 16.2739 14.4716 16.2133 14.2976 16.1124C14.1241 16.011 14.024 15.8822 14.024 15.7598C14.024 15.6348 14.1235 15.506 14.297 15.4056C14.471 15.3048 14.7061 15.2441 14.9545 15.2275V15.0547C14.683 15.0708 14.4191 15.1357 14.2108 15.2559C13.9715 15.3938 13.8516 15.5779 13.8516 15.7609L13.8548 15.7743Z" fill="#99C1FD"/>
<path d="M15.776 16.3455C15.761 16.3514 15.7455 16.3567 15.7305 16.3621C15.746 16.3562 15.761 16.3514 15.776 16.3455Z" fill="#99C1FD"/>
<path d="M15.3287 16.4556C15.3153 16.4572 15.3019 16.4577 15.2891 16.4588C15.3025 16.4577 15.3159 16.4572 15.3287 16.4556Z" fill="#99C1FD"/>
<path d="M14.6531 16.4244C14.6065 16.4147 14.562 16.4013 14.5176 16.3879C14.562 16.4013 14.6065 16.4142 14.6531 16.4244Z" fill="#99C1FD"/>
<path d="M15.1122 16.469C15.0945 16.469 15.0763 16.4695 15.0586 16.4695C15.0763 16.4695 15.094 16.469 15.1122 16.469Z" fill="#99C1FD"/>
<path d="M14.4149 16.3567C14.3726 16.3411 14.3346 16.3208 14.2949 16.302C14.334 16.3208 14.3726 16.3406 14.4149 16.3567Z" fill="#99C1FD"/>
<path d="M14.2965 15.4059C14.1225 15.5062 14.0234 15.635 14.0234 15.7601C14.0234 15.883 14.1236 16.0112 14.297 16.1126C14.471 16.2135 14.7061 16.2742 14.9545 16.2908V15.2283C14.7061 15.2444 14.471 15.3055 14.2965 15.4059Z" fill="#8AACEA"/>
<path d="M15.8653 16.1131C16.042 16.0106 16.1389 15.8856 16.1389 15.76C16.1389 15.6328 16.042 15.5067 15.8653 15.4058C15.6618 15.2883 15.3759 15.2207 15.0814 15.2207C15.0386 15.2207 14.9968 15.225 14.9551 15.2282V16.2907C14.9974 16.2934 15.0391 16.2983 15.0814 16.2983C15.3759 16.2983 15.6618 16.2306 15.8653 16.1131Z" fill="#8AACEA"/>
<path d="M14.6814 16.4326V23.2248C14.5085 23.1899 14.3489 23.1325 14.2113 23.0536C14.183 23.038 14.1589 23.0208 14.1348 23.0031V16.2131C14.1589 16.2308 14.183 16.248 14.2113 16.2636C14.3489 16.3419 14.5085 16.3993 14.6814 16.4326Z" fill="white"/>
<path d="M16.7238 15.4702C16.7238 15.7123 16.6173 16.053 16.295 16.2392C15.6535 16.6106 14.6116 16.6106 13.9702 16.2392C13.6506 16.0525 13.4375 15.7117 13.4375 15.4702C13.4375 15.2261 13.5981 14.9814 13.9183 14.7973C14.5597 14.426 15.6016 14.426 16.243 14.7973C16.5653 14.9814 16.7238 15.2255 16.7238 15.4702Z" fill="#88BEFF"/>
<path d="M16.2258 15.6237C16.1776 15.7101 16.0882 15.7949 15.9619 15.8674C15.7327 15.9988 15.412 16.0745 15.0806 16.0745C14.7481 16.0745 14.4274 15.9983 14.1977 15.8652C14.0751 15.7928 13.9857 15.7096 13.9375 15.6232C13.9857 15.5352 14.0756 15.452 14.1977 15.3812C14.4274 15.2481 14.7481 15.1719 15.0806 15.1719C15.412 15.1719 15.7327 15.2481 15.9619 15.3812C16.0877 15.4541 16.1771 15.5373 16.2258 15.6237Z" fill="#99C1FD"/>
<path d="M0.927734 55.679C0.927734 57.2513 4.09948 58.0267 5.93164 56.9255C6.50346 56.5816 6.79044 56.1308 6.79044 55.6795V56.4136C6.79044 57.9832 3.61923 58.7614 1.78653 57.6597C1.21418 57.3157 0.928265 56.8644 0.928265 56.4131L0.927734 55.679Z" fill="#69A4FC"/>
<path d="M0.927734 55.6789C0.927734 54.1066 4.09948 53.3312 5.93164 54.4323C7.07581 55.1203 7.07688 56.2365 5.93164 56.9255C4.10055 58.0261 0.927734 57.247 0.927734 55.6789Z" fill="#88BEFF"/>
<path d="M3.27664 12.28C2.48852 11.5839 2.48852 9.47659 3.27664 9.72827C4.06475 10.4248 4.06475 12.5322 3.27664 12.28Z" fill="#195161"/>
<path d="M12.7734 18.4751V20.9892C12.8372 21.2865 13.0497 21.5704 13.4272 21.7985C14.7293 22.5835 17.0278 22.1172 17.2211 20.9892C17.2334 20.9892 17.2334 18.4751 17.2334 18.4751H16.1802C16.1706 18.554 16.139 18.6302 16.0881 18.6962C15.5185 19.4019 13.9074 19.1411 13.8266 18.4751H12.7734Z" fill="#69A4FC"/>
<path d="M15.5801 19.0264V22.1453C15.9099 22.0964 16.275 21.9751 16.5824 21.7981V17.4712H16.1862C16.1862 18.2922 16.1937 18.4226 16.1797 18.4747C16.1465 18.7505 15.8253 18.9501 15.5801 19.0264Z" fill="#99C1FD"/>
<path d="M12.7745 18.4752C12.7997 19.0053 13.3394 19.3762 13.8212 19.5586C14.8396 19.9391 16.3136 19.7829 16.9807 19.0467C17.3014 18.7059 17.3105 18.1473 16.9807 17.7915C16.8099 17.6037 16.5572 17.4223 16.1877 17.2828C16.1877 18.2439 16.1952 18.4231 16.1813 18.4757C16.101 19.139 14.4873 19.4019 13.9198 18.6968C13.7741 18.5068 13.8212 18.3657 13.8212 17.2795C13.4722 17.4116 13.1739 17.6069 12.9651 17.8645C12.8254 18.0389 12.7644 18.2567 12.7745 18.4752Z" fill="#88BEFF"/>
<path d="M5.24023 26.8425L13.4234 21.6818C13.9256 21.2423 14.1237 19.876 13.7789 19.3657C13.6793 19.2181 13.553 19.1762 13.4234 19.2261C13.4234 19.2192 5.24023 24.3794 5.24023 24.3794V26.8425Z" fill="#1C6DF6"/>
<path d="M4.79883 25.5579L13.9334 19.8256C13.9077 19.6389 13.8563 19.4784 13.7803 19.3657L4.79883 25.0057V25.5579Z" fill="#99C1FD"/>
<path d="M5.21804 26.9011C6.00616 26.2045 6.00616 24.0977 5.21804 24.3494C4.42992 25.0459 4.42992 27.1527 5.21804 26.9011Z" fill="#195161"/>
<path d="M5.03638 8.7832C5.03638 9.94608 5.04601 10.3105 5.03156 10.3625C5.02192 10.4419 4.99033 10.5176 4.93947 10.5836C4.66052 10.9303 4.06408 11.0628 3.54688 10.9802V9.43736C4.18883 9.54415 5.01924 9.27529 5.03638 8.7832Z" fill="#1C6DF6"/>
<path d="M3.018 9.25597V10.7956C2.82083 10.6764 2.67188 10.5224 2.67188 10.2933V8.7832C2.67938 8.9941 2.83904 9.14758 3.018 9.25597Z" fill="#1C6DF6"/>
<path d="M2.67188 8.7832H5.03623C5.03302 8.8755 4.99929 8.96834 4.93932 9.04401C4.35894 9.76578 2.69597 9.47385 2.67188 8.7832Z" fill="#195161"/>
<path d="M5.03623 10.2932V55.5704C5.0025 55.726 4.88899 55.8774 4.68875 55.9965C3.99379 56.4145 2.78699 56.1666 2.67777 55.5704C2.67188 55.5704 2.67188 10.2932 2.67188 10.2932C2.67188 11.044 4.37072 11.2903 4.93932 10.5841C5.00143 10.5036 5.03623 10.4081 5.03623 10.2932Z" fill="#1C6DF6"/>
<path d="M3.54656 9.43724V10.9801C3.37737 10.9559 3.1707 10.891 3.01758 10.7955V9.25586C3.1691 9.34816 3.35274 9.40773 3.54656 9.43724Z" fill="#99C1FD"/>
<path d="M3.54656 10.9808V56.1823C3.35274 56.1491 3.16963 56.09 3.01758 55.9972V10.7957C3.17017 10.8912 3.37683 10.9561 3.54656 10.9808Z" fill="#99C1FD"/>
<path d="M3.54656 8.25146V9.43742C3.35274 9.40791 3.16963 9.34834 3.01758 9.25604V8.25146H3.54656Z" fill="#99C1FD"/>
<path d="M5.03492 8.78318C4.99209 9.51032 3.3259 9.73731 2.76854 9.04399C2.63201 8.87226 2.64218 8.61736 2.76854 8.46282C3.34303 7.75071 5.08043 8.01151 5.03492 8.78318Z" fill="#88BEFF"/>
<path d="M6.08103 10.3633V12.8774C6.01785 13.1747 5.8053 13.4586 5.42784 13.6872C4.13858 14.4621 1.82882 14.0167 1.63394 12.8774C1.62109 12.8774 1.62109 10.3633 1.62109 10.3633H2.67424C2.68387 10.4427 2.71546 10.5184 2.76632 10.5844C3.336 11.2906 4.94757 11.0292 5.02788 10.3633H6.08103Z" fill="#69A4FC"/>
<path d="M3.27376 10.9143V14.0332C2.94128 13.9838 2.58416 13.8642 2.27148 13.6865V9.35913H2.66876C2.66876 10.1238 2.66018 10.3106 2.67464 10.3626C2.7073 10.6385 3.02962 10.8386 3.27376 10.9143Z" fill="#99C1FD"/>
<path d="M6.08056 10.3631C6.05539 10.8928 5.51571 11.2641 5.03385 11.4466C4.00533 11.8314 2.53457 11.6618 1.87441 10.9347C1.55317 10.5934 1.54621 10.0337 1.87441 9.67948C2.08964 9.44282 2.37073 9.28344 2.66788 9.17075C2.66788 10.1286 2.65931 10.3111 2.67377 10.3631C2.75355 11.0264 4.3678 11.2899 4.93533 10.5842C5.08256 10.3927 5.03224 10.2499 5.03224 9.16699C5.38079 9.299 5.68115 9.4938 5.88996 9.75192C6.0297 9.92686 6.09073 10.1447 6.08056 10.3631Z" fill="#88BEFF"/>
<path d="M6.08103 24.6936V27.2077C6.01785 27.505 5.8053 27.7889 5.42784 28.017C4.13858 28.7919 1.82882 28.3465 1.63394 27.2077C1.62109 27.2077 1.62109 24.6936 1.62109 24.6936H2.67424C2.68387 24.773 2.71546 24.8487 2.76632 24.9147C3.336 25.6204 4.94757 25.3596 5.02788 24.6936H6.08103Z" fill="#69A4FC"/>
<path d="M3.27376 25.2448V28.3637C2.94128 28.3143 2.58416 28.1947 2.27148 28.017V23.6902H2.66822C2.66822 24.5134 2.66018 24.6416 2.67464 24.6937C2.7073 24.9695 3.02855 25.1686 3.27376 25.2448Z" fill="#99C1FD"/>
<path d="M6.08056 24.6937C6.05539 25.2244 5.51411 25.5958 5.03385 25.7772C4.00533 26.1619 2.53457 25.9924 1.87441 25.2652C1.55317 24.9234 1.54621 24.3642 1.87441 24.01C2.09071 23.7718 2.37447 23.6124 2.66734 23.5013C2.66734 24.4624 2.65931 24.6417 2.67377 24.6937C2.75408 25.357 4.36833 25.6199 4.93533 24.9148C5.08096 24.7254 5.03385 24.5858 5.03385 23.4976C5.38293 23.6296 5.68115 23.8249 5.89049 24.0825C6.0297 24.2574 6.09073 24.4753 6.08056 24.6937Z" fill="#88BEFF"/>
<path d="M28.348 21.1022C28.241 21.1022 28.1392 21.0373 28.0985 20.931L25.3974 13.9527C25.3433 13.8147 25.4119 13.6591 25.55 13.6055C25.6871 13.5529 25.8429 13.6205 25.8959 13.7589L28.597 20.7373C28.6505 20.8752 28.5825 21.0308 28.4444 21.0845C28.4128 21.0963 28.3802 21.1022 28.348 21.1022Z" fill="#DD6C2D"/>
<path d="M27.25 21.3898C27.25 22.0922 27.8181 22.6605 28.5178 22.6605C28.9403 22.6605 29.3151 22.4534 29.5458 22.1341C29.6963 21.9248 29.7857 21.6688 29.7857 21.3898C29.7857 20.6884 29.2176 20.1201 28.5178 20.1201C28.2673 20.1201 28.0333 20.1931 27.8363 20.3197C27.484 20.5446 27.25 20.9396 27.25 21.3898Z" fill="#FEB30F"/>
<path d="M27.5957 21.0641C27.5957 21.7655 28.1627 22.3348 28.8635 22.3348C29.1152 22.3348 29.3492 22.2619 29.5462 22.1336C29.6966 21.9243 29.7861 21.6683 29.7861 21.3893C29.7861 20.6879 29.218 20.1196 28.5182 20.1196C28.2676 20.1196 28.0337 20.1926 27.8366 20.3193C27.6851 20.5291 27.5957 20.7867 27.5957 21.0641Z" fill="#FCD561"/>
<path d="M28.6348 20.9863C28.6348 21.1194 28.7424 21.2273 28.8752 21.2273C29.0079 21.2273 29.1156 21.1194 29.1156 20.9863C29.1156 20.8532 29.0079 20.7454 28.8752 20.7454C28.7424 20.7454 28.6348 20.8532 28.6348 20.9863Z" fill="#FFEFCA"/>
<path d="M34.5916 25.2564C34.5461 25.2564 34.5001 25.2451 34.4578 25.2204L28.9581 22.0377C28.8301 21.9636 28.7862 21.7994 28.8601 21.6712C28.934 21.5424 29.0978 21.4994 29.2258 21.5729L34.7255 24.7557C34.8534 24.8298 34.8973 24.994 34.8235 25.1222C34.7742 25.2086 34.6837 25.2564 34.5916 25.2564Z" fill="#DD6C2D"/>
<path d="M33.9355 25.2228C33.9355 25.9252 34.5036 26.4935 35.2034 26.4935C35.6258 26.4935 36.0006 26.2864 36.2314 25.9671C36.3818 25.7578 36.4712 25.5018 36.4712 25.2228C36.4712 24.5214 35.9032 23.9531 35.2034 23.9531C34.9528 23.9531 34.7188 24.0261 34.5218 24.1528C34.1695 24.3781 33.9355 24.7731 33.9355 25.2228Z" fill="#FEB30F"/>
<path d="M34.2812 24.8975C34.2812 25.5989 34.8482 26.1683 35.5491 26.1683C35.8007 26.1683 36.0352 26.0953 36.2317 25.9676C36.3822 25.7583 36.4716 25.5023 36.4716 25.2233C36.4716 24.5219 35.9035 23.9536 35.2038 23.9536C34.9532 23.9536 34.7192 24.0266 34.5222 24.1532C34.3712 24.3625 34.2812 24.6201 34.2812 24.8975Z" fill="#FCD561"/>
<path d="M35.4902 25.4936C35.4367 25.4936 35.3832 25.478 35.3366 25.4447C35.215 25.3594 35.1867 25.192 35.2713 25.0707L38.0211 21.1495C38.1062 21.0288 38.2738 20.9993 38.3938 21.0841C38.5153 21.1694 38.5437 21.3368 38.4591 21.4581L35.7092 25.3793C35.6568 25.4533 35.5743 25.4936 35.4902 25.4936Z" fill="#DD6C2D"/>
<path d="M28.4221 9.4095L25.6719 13.3308L26.1099 13.6394L28.8602 9.71812L28.4221 9.4095Z" fill="#DD6C2D"/>
<path d="M24.2363 13.4921C24.2363 14.1945 24.8044 14.7628 25.5042 14.7628C25.9266 14.7628 26.3014 14.5557 26.5321 14.2364C26.6826 14.0271 26.772 13.7711 26.772 13.4921C26.772 12.7912 26.2039 12.2224 25.5042 12.2224C25.2536 12.2224 25.0196 12.2954 24.8226 12.422C24.4703 12.6474 24.2363 13.0424 24.2363 13.4921Z" fill="#FEB30F"/>
<path d="M24.582 13.1669C24.582 13.8683 25.149 14.4376 25.8499 14.4376C26.1015 14.4376 26.3355 14.3646 26.5325 14.2364C26.683 14.0271 26.7724 13.7711 26.7724 13.4921C26.7724 12.7912 26.2043 12.2224 25.5045 12.2224C25.254 12.2224 25.02 12.2954 24.823 12.422C24.6714 12.6319 24.582 12.8894 24.582 13.1669Z" fill="#FCD561"/>
<path d="M25.6934 13.0891C25.6934 13.183 25.7694 13.2598 25.8637 13.2598C25.9575 13.2598 26.0341 13.1836 26.0341 13.0891C26.0341 12.9952 25.958 12.9185 25.8637 12.9185C25.7694 12.9185 25.6934 12.9947 25.6934 13.0891Z" fill="#FFEFCA"/>
<path d="M27.4277 9.30751C27.4277 10.01 27.9958 10.5783 28.6956 10.5783C29.118 10.5783 29.4928 10.3711 29.7236 10.0518C29.874 9.84253 29.9634 9.58656 29.9634 9.30751C29.9634 8.60667 29.3954 8.03784 28.6956 8.03784C28.445 8.03784 28.211 8.11082 28.014 8.23747C27.6617 8.46285 27.4277 8.85781 27.4277 9.30751Z" fill="#FEB30F"/>
<path d="M27.7734 8.98231C27.7734 9.68369 28.3404 10.2531 29.0413 10.2531C29.2929 10.2531 29.5269 10.1801 29.7239 10.0518C29.8744 9.84253 29.9638 9.58656 29.9638 9.30751C29.9638 8.60667 29.3957 8.03784 28.696 8.03784C28.4454 8.03784 28.2114 8.11082 28.0144 8.23747C27.8629 8.44729 27.7734 8.70434 27.7734 8.98231Z" fill="#FCD561"/>
<path d="M28.8848 8.90454C28.8848 8.99845 28.9609 9.07518 29.0552 9.07518C29.1489 9.07518 29.2255 8.99898 29.2255 8.90454C29.2255 8.81009 29.1495 8.73389 29.0552 8.73389C28.9614 8.73389 28.8848 8.81009 28.8848 8.90454Z" fill="#FFEFCA"/>
<path d="M38.2158 20.7394C38.1087 20.7394 38.0069 20.6745 37.9663 20.5682L35.2646 13.5904C35.2105 13.4525 35.279 13.2969 35.4172 13.2432C35.5553 13.1901 35.71 13.2577 35.7636 13.3967L38.4653 20.3745C38.5193 20.5124 38.4508 20.668 38.3127 20.7217C38.2805 20.7335 38.2479 20.7394 38.2158 20.7394Z" fill="#DD6C2D"/>
<path d="M37.2188 21.1591C37.2188 21.8615 37.7868 22.4298 38.4866 22.4298C38.909 22.4298 39.2838 22.2227 39.5146 21.9034C39.665 21.6941 39.7544 21.4381 39.7544 21.1591C39.7544 20.4577 39.1864 19.8894 38.4866 19.8894C38.236 19.8894 38.0021 19.9624 37.805 20.089C37.4527 20.3139 37.2188 20.7088 37.2188 21.1591Z" fill="#FEB30F"/>
<path d="M37.5645 20.8334C37.5645 21.5348 38.1314 22.1041 38.8323 22.1041C39.0839 22.1041 39.3179 22.0311 39.5149 21.9029C39.6654 21.6936 39.7548 21.4376 39.7548 21.1586C39.7548 20.4572 39.1867 19.8889 38.487 19.8889C38.2364 19.8889 38.0024 19.9619 37.8054 20.0885C37.6544 20.2989 37.5645 20.5559 37.5645 20.8334Z" fill="#FCD561"/>
<path d="M38.7305 20.7556C38.7305 20.8183 38.7814 20.8688 38.8435 20.8688C38.9062 20.8688 38.9566 20.8178 38.9566 20.7556C38.9566 20.6933 38.9057 20.6423 38.8435 20.6423C38.7808 20.6423 38.7305 20.6933 38.7305 20.7556Z" fill="#FFEFCA"/>
<path d="M34.8416 13.0136C34.7961 13.0136 34.7501 13.0023 34.7078 12.9776L29.2081 9.79488C29.0801 9.72082 29.0362 9.55661 29.1101 9.42836C29.184 9.3001 29.3473 9.25664 29.4758 9.33015L34.9755 12.5129C35.1034 12.587 35.1473 12.7512 35.0735 12.8794C35.0242 12.9653 34.9337 13.0136 34.8416 13.0136Z" fill="#DD6C2D"/>
<path d="M33.8359 12.8634C33.8359 13.5659 34.404 14.1342 35.1038 14.1342C35.5262 14.1342 35.901 13.927 36.1318 13.6077C36.2822 13.3984 36.3716 13.1425 36.3716 12.8634C36.3716 12.162 35.8035 11.5938 35.1038 11.5938C34.8532 11.5938 34.6192 11.6667 34.4222 11.7934C34.0699 12.0188 33.8359 12.4132 33.8359 12.8634Z" fill="#FEB30F"/>
<path d="M34.1816 12.5377C34.1816 13.2391 34.7486 13.8085 35.4495 13.8085C35.7017 13.8085 35.9356 13.7355 36.1321 13.6072C36.2826 13.398 36.372 13.142 36.372 12.8629C36.372 12.1616 35.8039 11.5933 35.1041 11.5933C34.8536 11.5933 34.6196 11.6662 34.4226 11.7929C34.2716 12.0032 34.1816 12.2603 34.1816 12.5377Z" fill="#FCD561"/>
<path d="M35.2207 12.4599C35.2207 12.593 35.3283 12.7009 35.4611 12.7009C35.5939 12.7009 35.7015 12.593 35.7015 12.4599C35.7015 12.3269 35.5939 12.219 35.4611 12.219C35.3283 12.219 35.2207 12.3269 35.2207 12.4599Z" fill="#FFEFCA"/>
<path d="M17.6699 9.5848C17.6699 10.1703 18.1432 10.6436 18.7263 10.6436C19.0786 10.6436 19.3907 10.4713 19.5829 10.2051C19.7082 10.0307 19.7832 9.81716 19.7832 9.5848C19.7832 9.00041 19.3099 8.5271 18.7268 8.5271C18.518 8.5271 18.3231 8.58774 18.1587 8.69346C17.8648 8.88074 17.6699 9.2097 17.6699 9.5848Z" fill="#FEB30F"/>
<path d="M17.957 9.31331C17.957 9.8977 18.4298 10.3721 19.0134 10.3721C19.2233 10.3721 19.4182 10.3114 19.5825 10.2047C19.7078 10.0303 19.7828 9.81667 19.7828 9.58431C19.7828 8.99992 19.3095 8.52661 18.7264 8.52661C18.5176 8.52661 18.3227 8.58725 18.1583 8.69297C18.0315 8.86791 17.957 9.08202 17.957 9.31331Z" fill="#FCD561"/>
<path d="M18.8242 9.24831C18.8242 9.35939 18.9142 9.44901 19.0246 9.44901C19.135 9.44901 19.225 9.35885 19.225 9.24831C19.225 9.13723 19.135 9.04761 19.0246 9.04761C18.9142 9.04761 18.8242 9.13776 18.8242 9.24831Z" fill="#FFEFCA"/>
<path d="M24.8012 13.4512C24.7556 13.4512 24.7096 13.4394 24.6673 13.4153L19.1671 10.2325C19.0391 10.1584 18.9952 9.99423 19.0691 9.86598C19.143 9.73718 19.3068 9.69425 19.4348 9.76777L24.935 12.9505C25.063 13.0246 25.1069 13.1888 25.033 13.3171C24.9837 13.4034 24.8932 13.4512 24.8012 13.4512Z" fill="#DD6C2D"/>
<path d="M28.4223 8.93447C28.3152 8.93447 28.2135 8.86953 28.1728 8.76328L25.4716 1.78546C25.4175 1.64755 25.4861 1.49193 25.6242 1.43826C25.7624 1.38514 25.9176 1.45275 25.9701 1.59174L28.6712 8.56956C28.7253 8.70747 28.6568 8.86309 28.5186 8.91676C28.487 8.92856 28.4544 8.93447 28.4223 8.93447Z" fill="#DD6C2D"/>
<path d="M27.6387 9.35389C27.6387 9.93936 28.1125 10.4127 28.695 10.4127C29.0473 10.4127 29.3595 10.2404 29.5517 9.9737C29.677 9.79929 29.7514 9.58572 29.7514 9.35336C29.7514 8.76896 29.2781 8.29565 28.695 8.29565C28.4862 8.29565 28.2913 8.35629 28.127 8.46201C27.8336 8.64983 27.6387 8.97879 27.6387 9.35389Z" fill="#FEB30F"/>
<path d="M27.9258 9.08236C27.9258 9.66675 28.3985 10.1411 28.9821 10.1411C29.192 10.1411 29.3869 10.0805 29.5513 9.9737C29.6766 9.7993 29.751 9.58572 29.751 9.35336C29.751 8.76896 29.2777 8.29565 28.6946 8.29565C28.4858 8.29565 28.2909 8.35629 28.1266 8.46201C28.0002 8.63695 27.9258 8.85107 27.9258 9.08236Z" fill="#FCD561"/>
<path d="M28.8984 9.01789C28.8984 9.06986 28.9408 9.11219 28.9927 9.11219C29.0447 9.11219 29.087 9.06986 29.087 9.01789C29.087 8.96591 29.0447 8.92358 28.9927 8.92358C28.9408 8.92358 28.8984 8.96538 28.8984 9.01789Z" fill="#FFEFCA"/>
<path d="M24.2578 1.05824C24.2578 1.6437 24.7311 2.11701 25.3142 2.11701C25.6665 2.11701 25.9786 1.94475 26.1708 1.67805C26.2961 1.50364 26.3705 1.29006 26.3705 1.0577C26.3705 0.473309 25.8972 0 25.3142 0C25.1054 0 24.9105 0.0606396 24.7461 0.166356C24.4527 0.354177 24.2578 0.683132 24.2578 1.05824Z" fill="#FEB30F"/>
<path d="M24.5449 0.786702C24.5449 1.37109 25.0177 1.84548 25.6013 1.84548C25.8112 1.84548 26.0061 1.78484 26.1704 1.67805C26.2957 1.50364 26.3701 1.29006 26.3701 1.0577C26.3701 0.473309 25.8968 0 25.3138 0C25.105 0 24.9101 0.0606396 24.7457 0.166356C24.6193 0.341298 24.5449 0.555414 24.5449 0.786702Z" fill="#FCD561"/>
<path d="M25.4121 0.721696C25.4121 0.832779 25.5021 0.922396 25.6125 0.922396C25.7234 0.922396 25.8129 0.832242 25.8129 0.721696C25.8129 0.610613 25.7229 0.520996 25.6125 0.520996C25.5021 0.520996 25.4121 0.61115 25.4121 0.721696Z" fill="#FFEFCA"/>
<path d="M39.0554 20.8163L38.8086 21.2925L45.8347 24.9508L46.0815 24.4746L39.0554 20.8163Z" fill="#DD6C2D"/>
<path d="M44.957 24.4549C44.957 25.0404 45.4303 25.5137 46.0134 25.5137C46.3657 25.5137 46.6778 25.3414 46.8701 25.0753C46.9953 24.9009 47.0703 24.6873 47.0703 24.4549C47.0703 23.8705 46.597 23.3972 46.0139 23.3972C45.8051 23.3972 45.6102 23.4579 45.4459 23.5636C45.1519 23.7509 44.957 24.0798 44.957 24.4549Z" fill="#FEB30F"/>
<path d="M45.2441 24.1834C45.2441 24.7678 45.7164 25.2422 46.3005 25.2422C46.5104 25.2422 46.7053 25.1816 46.8696 25.0748C46.9949 24.9004 47.0699 24.6868 47.0699 24.4544C47.0699 23.87 46.5966 23.3967 46.0135 23.3967C45.8047 23.3967 45.6098 23.4574 45.4455 23.5631C45.3186 23.738 45.2441 23.9521 45.2441 24.1834Z" fill="#FCD561"/>
<path d="M46.1699 24.1193C46.1699 24.1976 46.2331 24.2615 46.3119 24.2615C46.3907 24.2615 46.4539 24.1981 46.4539 24.1193C46.4539 24.0409 46.3907 23.9771 46.3119 23.9771C46.2331 23.9771 46.1699 24.0409 46.1699 24.1193Z" fill="#FFEFCA"/>
<path d="M23.3926 60.4985C23.3926 62.2496 25.8453 63.669 28.8714 63.669C31.897 63.669 34.3502 62.2496 34.3502 60.4985C34.3502 58.7475 31.8975 57.3281 28.8714 57.3281C25.8453 57.3281 23.3926 58.7475 23.3926 60.4985Z" fill="#81B2FC"/>
<path d="M30.3717 62.3521C33.9711 61.442 36.1528 57.7797 35.2448 54.1722C34.3368 50.5646 30.6829 48.3779 27.0836 49.288C23.4842 50.198 21.3025 53.8603 22.2105 57.4679C23.1185 61.0754 26.7724 63.2622 30.3717 62.3521Z" fill="#E1EDFF"/>
<path d="M28.7289 62.3443C32.3222 62.3443 35.2352 59.4247 35.2352 55.8231C35.2352 52.2216 32.3222 49.302 28.7289 49.302C25.1356 49.302 22.2227 52.2216 22.2227 55.8231C22.2227 59.4247 25.1356 62.3443 28.7289 62.3443Z" fill="#B1D0FE"/>
<path d="M22.0527 55.8232C22.0527 52.1328 25.0483 49.1304 28.7303 49.1304C32.4123 49.1304 35.4079 52.1328 35.4079 55.8232C35.4079 59.5137 32.4123 62.5156 28.7303 62.5156C25.0483 62.5156 22.0527 59.5137 22.0527 55.8232ZM22.3954 55.8232C22.3954 59.3242 25.2373 62.1721 28.7298 62.1721C32.2228 62.1721 35.0647 59.3242 35.0647 55.8232C35.0647 52.3223 32.2228 49.4738 28.7298 49.4738C25.2373 49.4738 22.3954 52.3223 22.3954 55.8232Z" fill="#E1EDFF"/>
<path d="M23.2689 58.0722C24.1517 60.2247 26.265 61.7407 28.7311 61.7407C31.2475 61.7407 33.3966 60.1624 34.2463 57.9397C34.4969 57.2818 22.9846 57.3789 23.2689 58.0722Z" fill="#FFDA23"/>
<path d="M23.1114 58.1372C23.0776 58.0546 23.0841 57.9328 23.2045 57.8389C23.975 57.2368 33.5234 57.13 34.3099 57.7138C34.4283 57.8018 34.4374 57.9194 34.4069 57.9999C33.5127 60.3396 31.2324 61.9119 28.7321 61.9119C26.2585 61.9119 24.0515 60.4308 23.1114 58.1372ZM23.4589 58.0798C24.3632 60.2022 26.4239 61.5685 28.7321 61.5685C31.0627 61.5685 33.1904 60.1217 34.0556 57.958C33.1031 57.4847 24.3476 57.5845 23.4589 58.0798Z" fill="#E1EDFF"/>
<path d="M23.0938 57.2353C23.0938 58.0703 23.6442 58.9058 24.7455 59.5428C26.9476 60.8173 30.5182 60.8173 32.7204 59.5428C33.8212 58.9058 34.3721 58.0708 34.3721 57.2358C34.3721 56.4008 33.8217 55.5653 32.7204 54.9283C30.5182 53.6538 26.9476 53.6538 24.7455 54.9283C23.6442 55.5647 23.0938 56.3997 23.0938 57.2353Z" fill="#FFE53E"/>
<path d="M23.4028 51.9361C23.4028 51.9361 23.3498 51.9291 23.3273 51.9291C23.1142 51.9114 22.8277 51.9946 22.5938 52.1743C22.5258 52.2269 22.4867 52.2629 22.4358 52.3144C22.3036 52.4496 22.2366 52.5532 22.1612 52.7072C21.8806 53.2782 22.0145 53.8089 22.2907 54.0863C22.3314 54.132 22.4262 54.2049 22.4947 54.2409C23.0082 54.5081 23.6565 54.22 23.9805 53.649C24.3092 53.0694 24.2225 52.3364 23.7154 52.0439C23.663 52.0139 23.6512 52.0085 23.5912 51.9844C23.527 51.9581 23.4392 51.9398 23.4028 51.9361Z" fill="#B1D0FE"/>
<path d="M22.4941 54.2407C22.4941 54.2407 22.8984 54.465 22.9257 54.4779C23.1393 54.5777 23.4011 54.5981 23.6726 54.4961C23.8391 54.4333 24.0029 54.3206 24.1234 54.2015C24.7348 53.5967 24.7166 52.5943 24.0972 52.2551C23.6795 52.0265 23.7111 52.0399 23.7149 52.0442C23.8407 52.1177 23.9483 52.2245 24.0286 52.3608C24.253 52.7408 24.2058 53.2517 23.9799 53.6498C23.6549 54.2224 23.0006 54.5133 22.4941 54.2407Z" fill="#81B2FC"/>
<path d="M23.2273 54.5596C23.2209 54.5591 23.1797 54.5542 23.1797 54.5542C23.7472 54.8961 24.4695 54.5349 24.7463 53.9022C24.9862 53.3533 24.8432 52.7034 24.3399 52.4512C24.7051 52.8821 24.6563 53.686 24.1252 54.2006C23.873 54.4448 23.5727 54.5918 23.2273 54.5596Z" fill="#B1D0FE"/>
<path opacity="0.56" d="M25.0921 54.1036C24.8876 54.571 24.4529 54.8774 24.0176 54.8865C24.3072 55.0464 24.5969 55.2063 24.8865 55.3668C24.8737 55.3587 24.8892 55.3689 24.9101 55.3791C24.9845 55.4167 25.0643 55.4408 25.1468 55.45C25.7684 55.5181 26.376 54.7958 26.2866 54.0832C26.2545 53.8277 26.126 53.5905 25.9028 53.466C25.7935 53.4049 26.2095 53.6361 25.0552 52.9976C25.2399 53.3061 25.2581 53.7236 25.0921 54.1036Z" fill="#EFF9FF"/>
<path d="M24.7445 53.9021C24.54 54.3695 24.1052 54.676 23.6699 54.6851C23.9596 54.845 24.2492 55.0049 24.5389 55.1654C24.526 55.1573 24.5416 55.1675 24.5624 55.1777C24.6369 55.2153 24.7166 55.2394 24.7991 55.2485C25.4207 55.3167 26.0284 54.5944 25.939 53.8817C25.9069 53.6263 25.7784 53.3891 25.5551 53.2646C25.4459 53.2034 25.8619 53.4347 24.7075 52.7961C24.8923 53.1047 24.9105 53.5217 24.7445 53.9021Z" fill="#69A4FC"/>
<path d="M44.8915 43.8264C44.5542 43.8275 41.9462 43.878 41.6962 43.8876C41.4446 43.8973 39.6086 43.9976 39.3522 44.0169C37.0837 44.1865 34.3333 44.53 32.2302 45.3752C30.7953 45.952 29.6495 46.7527 28.7892 48.01C28.2307 48.8268 27.8549 49.7568 27.7644 49.9467C27.6926 50.097 27.7676 50.2472 27.8865 50.3648C28.0423 50.5193 28.2832 50.6309 28.4893 50.7023C28.9605 50.8649 29.5494 50.9234 30.0377 50.8563C30.231 50.83 30.4521 50.7769 30.6229 50.6792C30.7364 50.6143 30.8446 50.5177 30.8692 50.3905C31.0266 49.306 31.2531 48.5193 32.0059 47.7583C34.0479 45.695 38.9619 44.9367 41.8547 44.6142C42.0972 44.5868 44.4562 44.376 44.4851 44.376C44.7319 44.3572 45.027 44.1312 45.0543 43.9644C45.0628 43.9123 45.0457 43.871 44.9991 43.8463C44.9686 43.8329 44.944 43.8259 44.8915 43.8264Z" fill="#C9DEFE"/>
<path d="M38.704 44.6636C38.704 44.6636 34.3704 45.1879 32.7626 46.3996C30.8496 47.8415 30.9818 48.4388 30.7018 48.472C30.4218 48.5053 29.812 47.1986 33.1224 45.8248C35.5638 44.8122 38.704 44.6636 38.704 44.6636Z" fill="white"/>
<path d="M30.8672 52.3696C30.8672 52.3696 32.5478 53.1612 33.0677 54.3943C33.5881 55.6281 33.4452 55.7311 33.0677 55.9393C32.6903 56.1475 32.3133 54.9159 32.1366 53.9886C31.9605 53.0613 30.8672 52.3696 30.8672 52.3696Z" fill="white"/>
<path d="M25.711 53.7692C25.711 53.7692 25.991 54.1105 25.7608 54.0251C25.5306 53.9398 24.9705 53.6388 24.9705 53.6388C24.9705 53.6388 24.8104 53.4681 25.0203 53.4885C25.2307 53.5084 25.711 53.7692 25.711 53.7692Z" fill="white"/>
<path d="M23.1758 52.0847C23.1758 52.0847 23.5886 52.0847 23.799 52.5156C24.0089 52.9465 23.8274 53.4177 23.6684 53.3678C23.5093 53.3179 23.769 52.6874 23.5993 52.4512C23.4285 52.2151 23.1758 52.0847 23.1758 52.0847Z" fill="white"/>
<path d="M43.8375 53.6839C42.7635 53.0797 41.0459 53.0974 40.0018 53.7225C38.9578 54.3477 38.9819 55.3453 40.0564 55.949C41.1305 56.5533 42.848 56.5356 43.8921 55.9104C44.9361 55.2852 44.912 54.2881 43.8375 53.6839Z" fill="#69A4FC"/>
<path d="M42.4758 54.0757C42.161 53.8986 41.6818 53.9034 41.3755 54.087C41.0693 54.2705 41.0762 54.563 41.3916 54.7401C41.7064 54.9171 42.2102 54.9123 42.5165 54.7288C42.8227 54.5453 42.7912 54.2528 42.4758 54.0757Z" fill="#69A4FC"/>
<path d="M43.085 50.0567C43.0218 49.9767 42.9281 49.9021 42.8125 49.8367L44.4343 52.1007C44.7603 52.2842 45.013 52.4946 45.1918 52.7211C45.1287 52.6411 43.4363 50.5005 43.085 50.0567Z" fill="#69A4FC"/>
<path d="M38.6914 52.7399C38.8574 52.5279 39.0871 52.3288 39.3826 52.1518C40.7575 51.328 43.0196 51.305 44.4342 52.1008L42.8124 49.8367C42.3118 49.555 41.5151 49.563 41.0285 49.855C40.924 49.9178 40.8416 49.9891 40.7832 50.0637C40.4347 50.5102 38.7546 52.6594 38.6914 52.7399Z" fill="#69A4FC"/>
<path d="M45.191 52.7211C45.0143 52.4935 44.7595 52.2842 44.4334 52.1007C44.7054 52.4812 44.3735 53.3629 43.8375 53.6843C44.9116 54.2886 44.9362 55.2856 43.8921 55.9108C42.8481 56.5365 41.1305 56.5537 40.0565 55.9494C38.9824 55.3452 38.9578 54.3481 40.0019 53.7229C41.0459 53.0978 42.7635 53.0801 43.8375 53.6843C44.3735 53.3629 44.7054 52.4812 44.4334 52.1007C43.0189 51.3049 40.7568 51.328 39.3819 52.1517C39.0869 52.3282 38.8566 52.5279 38.6907 52.7398C38.2543 53.3044 38.2072 53.8464 38.2447 54.2022C38.2661 54.4066 38.3046 54.5247 38.3539 54.6744C38.3876 54.778 38.4556 54.9073 38.507 55.0034C38.5488 55.0812 38.6146 55.1804 38.6703 55.2491C38.8267 55.4412 38.8363 55.4525 38.9899 55.5958C39.0478 55.6495 39.1741 55.7589 39.3706 55.8877C39.5532 56.0074 39.6924 56.075 39.8038 56.1292C39.8777 56.1652 40.0361 56.2371 40.2648 56.3143C40.4323 56.3712 40.4618 56.3782 40.745 56.448C40.7889 56.4587 41.191 56.5542 41.7409 56.5735C41.9732 56.5816 42.3352 56.5789 42.7469 56.5183C42.8106 56.5091 43.006 56.4802 43.2422 56.4211C43.4338 56.3734 43.4504 56.3675 43.7246 56.2741C43.8011 56.2478 43.9023 56.2081 43.9757 56.1732C44.1047 56.112 44.275 56.0256 44.3992 55.9548C44.4715 55.914 44.7375 55.7418 44.9078 55.5786C45.1348 55.3613 45.206 55.2711 45.3522 55.0436C45.4004 54.9685 45.539 54.7157 45.6001 54.4501C45.6236 54.3471 45.6451 54.2075 45.6515 54.1018C45.6574 54.0052 45.6488 53.8759 45.6418 53.7798C45.6338 53.6623 45.5744 53.4192 45.5267 53.3071C45.493 53.2282 45.4502 53.1219 45.4079 53.0479C45.3495 52.9464 45.2633 52.8144 45.191 52.7211Z" fill="#69A4FC"/>
<path d="M44.3987 55.9552C44.5358 55.8704 44.8993 55.6455 45.1841 55.2844C45.4909 54.8948 45.5718 54.5648 45.6066 54.4242C45.6296 54.3297 45.6425 54.1999 45.6516 54.1027C45.6564 54.0501 45.6526 53.9793 45.6532 53.9262C45.6542 53.829 45.6371 53.6992 45.6141 53.6047C45.5771 53.4534 45.5477 53.3343 45.4534 53.1368C45.4283 53.0847 45.3924 53.016 45.3614 52.9672C45.3132 52.891 45.2452 52.7928 45.1906 52.7214C45.7881 53.4759 45.5627 54.3995 44.5047 55.0338C43.1298 55.8575 40.8677 55.8806 39.4532 55.0848C38.3416 54.4596 38.083 53.5157 38.6902 52.7402C38.6211 52.8363 38.5301 52.9651 38.4744 53.0697C38.3904 53.2286 38.3438 53.3579 38.3197 53.4389C38.2099 53.8076 38.2319 54.0609 38.2469 54.2288C38.2635 54.4209 38.3475 54.7027 38.4423 54.8835C38.5039 55.0016 38.649 55.279 38.9359 55.5457C39.2053 55.7969 39.4473 55.9428 39.5677 56.0078C39.6946 56.0759 39.867 56.1623 40.0003 56.2165C40.2809 56.3308 40.4993 56.3872 40.4993 56.3872C40.6439 56.4242 40.8372 56.4709 40.9839 56.4961C41.2601 56.5444 41.4888 56.5594 41.4888 56.5594C41.8587 56.5809 41.8587 56.5809 42.2453 56.5685C42.2453 56.5685 42.4728 56.5584 42.7464 56.5186C43.625 56.3898 44.1942 56.0818 44.3987 55.9552Z" fill="#99C1FD"/>
<path d="M44.5658 55.1362C43.1604 55.9787 40.8399 56.0018 39.3938 55.1893C38.8862 54.9033 38.5275 54.5357 38.3594 54.1327C38.3615 54.1633 38.3637 54.1917 38.3663 54.218C38.3819 54.3935 38.4616 54.6618 38.5489 54.8282C38.6078 54.9409 38.7459 55.2049 39.0174 55.4576C39.2771 55.6997 39.5089 55.8397 39.6245 55.902C39.7782 55.9846 39.9356 56.0603 40.0454 56.1054C40.3142 56.2148 40.5288 56.2706 40.5288 56.2706C40.6648 56.3055 40.8576 56.3517 41.0048 56.378C41.2704 56.4241 41.4958 56.4402 41.4958 56.4402C41.8604 56.4617 41.8599 56.4617 42.24 56.4488C42.24 56.4488 42.4654 56.4386 42.7294 56.4C43.586 56.2744 44.1386 55.9755 44.3361 55.8531C44.4678 55.7716 44.8185 55.5542 45.09 55.2097C45.3807 54.8411 45.4573 54.5287 45.4899 54.3956C45.5097 54.3135 45.522 54.1955 45.5301 54.115C45.3716 54.5008 45.0439 54.8496 44.5658 55.1362Z" fill="#B1D0FE"/>
<path d="M40.6666 50.3684C40.666 50.1838 40.7892 49.9982 41.0285 49.8549C41.5152 49.5635 42.3119 49.5549 42.8125 49.8366V46.9925C42.3119 46.7108 41.5072 46.7188 41.0205 47.0107C40.7812 47.154 40.666 47.3397 40.6666 47.5243C40.6693 48.3775 40.6644 49.5152 40.6666 50.3684Z" fill="#69A4FC"/>
<path d="M41.1759 47.614C41.1679 49.8785 41.1598 52.1431 41.1523 54.4082C41.1529 54.2929 41.2278 54.177 41.3772 54.0868C41.6835 53.9033 42.1621 53.8984 42.4775 54.0755V47.2995C42.1798 47.1321 41.6787 47.1369 41.389 47.3102C41.2471 47.395 41.1759 47.5045 41.1759 47.614Z" fill="#5195FB"/>
<path d="M42.7423 54.4035L42.6802 47.6098C42.6791 47.4965 42.6277 47.3839 42.4766 47.2991V54.0751C42.6357 54.1653 42.7412 54.2844 42.7423 54.4035Z" fill="#5195FB"/>
<path d="M42.679 47.6099C42.6801 47.7204 42.6094 47.8315 42.4659 47.9168C42.1762 48.0901 41.6997 48.095 41.402 47.9276C41.25 47.8417 41.1734 47.7279 41.174 47.6136C41.1659 49.8782 41.1579 52.1428 41.1504 54.4079C41.1499 54.5287 41.2307 54.6494 41.3913 54.7395C41.7062 54.9166 42.21 54.9118 42.5162 54.7283C42.6677 54.6376 42.7422 54.5206 42.7411 54.4036C42.7229 52.366 42.6977 49.648 42.679 47.6099Z" fill="#69A4FC"/>
<path d="M39.4553 55.0846C40.8699 55.8804 43.1314 55.8573 44.5069 55.0336C45.5648 54.3998 45.7897 53.4758 45.1927 52.7213C45.1295 52.6413 43.4371 50.5007 43.0859 50.0569C43.2974 50.3241 43.2176 50.6509 42.8428 50.8752C42.3561 51.1672 41.5557 51.1752 41.0546 50.8935C40.7986 50.7497 40.6707 50.5576 40.6675 50.3687C40.6675 50.3166 40.6712 50.2629 40.6712 50.2087C40.3601 50.6064 38.7555 52.6601 38.6923 52.74C38.0863 53.5155 38.3443 54.4599 39.4553 55.0846Z" fill="#B1D0FE"/>
<path d="M43.1961 47.517C43.1956 47.326 43.0675 47.1355 42.8125 46.9922V49.8363C43.067 49.9796 43.1956 50.1701 43.1961 50.3612C43.194 49.5079 43.1988 48.3703 43.1961 47.517Z" fill="#69A4FC"/>
<path d="M43.1953 50.3617V47.5176C43.1958 47.7022 43.0727 47.8879 42.8333 48.0311C42.3467 48.3225 41.5462 48.3311 41.0451 48.0494C40.7908 47.9061 40.6666 47.7156 40.666 47.5246V50.3687C40.6666 50.5597 40.7988 50.7502 41.0531 50.8935C41.5537 51.1753 42.3547 51.1672 42.8414 50.8753C43.0807 50.7315 43.1958 50.5463 43.1953 50.3617Z" fill="#99C1FD"/>
<path d="M40.9936 50.9982C40.705 50.8356 40.546 50.6124 40.5449 50.3687V47.5246H40.7848C40.7859 47.6802 40.8983 47.8294 41.1028 47.9442C41.5697 48.2067 42.3177 48.1991 42.7706 47.9276C42.9628 47.8128 43.0731 47.6641 43.0736 47.5203L43.3135 47.5171V50.3612C43.3141 50.5995 43.1679 50.819 42.9012 50.9784C42.6314 51.1404 42.2802 51.2215 41.929 51.2215C41.5938 51.2215 41.2581 51.1474 40.9936 50.9982ZM42.8937 48.1337C42.3664 48.4503 41.5279 48.4589 40.9856 48.1535C40.9095 48.1106 40.8426 48.0628 40.7853 48.0119V50.3677C40.7859 50.5185 40.9047 50.6714 41.1114 50.7879C41.5777 51.0497 42.3262 51.0428 42.7792 50.7712C42.9698 50.6569 43.0747 50.5115 43.0742 50.3618V48.0022C43.0217 48.0494 42.9617 48.0934 42.8937 48.1337Z" fill="#B1D0FE"/>
<path d="M43.0029 48.125C42.4262 48.4706 41.4775 48.4803 40.8837 48.1465C40.2905 47.8127 40.2766 47.2621 40.8538 46.9165C41.4304 46.5709 42.3791 46.5613 42.9729 46.895C43.5661 47.2288 43.5795 47.7794 43.0029 48.125ZM41.0213 47.0104C40.5346 47.3024 40.5459 47.7671 41.0465 48.0488C41.5471 48.3305 42.3481 48.3225 42.8347 48.0306C43.3214 47.7386 43.3145 47.2739 42.8133 46.9927C42.3127 46.711 41.508 46.719 41.0213 47.0104Z" fill="#69A4FC"/>
<path d="M43.8 47.2084C43.8011 47.0323 43.7422 46.844 43.6378 46.691C43.4777 46.456 43.2984 46.3476 43.1549 46.2607C43.2025 46.2875 43.2325 46.3465 43.2331 46.4313C43.2336 46.6009 43.1169 46.8086 42.9728 46.8944C43.5661 47.2282 43.58 47.7788 43.0028 48.1244C42.4262 48.47 41.4775 48.4796 40.8837 48.1459C40.2905 47.8121 40.2765 47.2615 40.8537 46.9159C41.4303 46.5703 42.3791 46.5606 42.9728 46.8944C43.1169 46.8086 43.2336 46.6009 43.2331 46.4313C43.2325 46.3465 43.2031 46.2875 43.1549 46.2607C42.7496 46.0358 42.3277 45.9881 42.1654 45.9779C41.8833 45.9602 41.7409 45.9698 41.509 45.9993C41.3581 46.0186 41.1305 46.0755 41.0015 46.126C40.8837 46.1727 40.722 46.236 40.5416 46.3658C40.4109 46.4598 40.3044 46.5671 40.2241 46.6846C40.0597 46.9266 40.0147 47.1896 40.0902 47.467C40.1919 47.84 40.5378 48.0686 40.6063 48.1104C40.7027 48.1695 40.7284 48.1856 40.8232 48.2301C40.9442 48.2875 41.0571 48.3235 41.0571 48.3235C41.1439 48.3508 41.2258 48.3766 41.304 48.3916C41.3832 48.4072 41.5492 48.4405 41.6895 48.4491C41.9502 48.4651 42.0857 48.4609 42.3459 48.4276C42.4749 48.4109 42.6966 48.361 42.8529 48.3009C42.9327 48.2704 43.1452 48.1882 43.3278 48.0503C43.383 48.0085 43.5511 47.8818 43.6651 47.6876C43.7561 47.533 43.799 47.3806 43.8 47.2084Z" fill="#69A4FC"/>
<path d="M40.4525 46.9472C40.9644 46.9338 41.1443 47.2171 41.1748 47.6335C41.1662 47.5176 41.2369 47.4001 41.3868 47.3099C41.6764 47.1366 42.1776 47.1318 42.4753 47.2992C42.4945 46.8699 42.5941 46.5066 42.9512 46.2925C42.3677 45.9646 41.435 45.9737 40.868 46.3134C40.574 46.49 40.4359 46.7202 40.4525 46.9472Z" fill="#81B2FC"/>
<path d="M42.6781 47.6292C42.7059 47.2123 42.8847 46.9279 43.396 46.9386C43.4116 46.7046 43.2627 46.468 42.9506 46.2925C42.5935 46.5066 42.4939 46.8699 42.4746 47.2992C42.6347 47.3894 42.6861 47.5101 42.6781 47.6292Z" fill="#81B2FC"/>
<path d="M42.634 47.4507C42.6051 47.4684 42.4985 47.529 42.332 47.5693C42.1211 47.6197 41.9428 47.617 41.9428 47.617C41.8941 47.617 41.8293 47.6143 41.7811 47.6116C41.757 47.6106 41.7254 47.6068 41.7013 47.6036C41.5776 47.588 41.4904 47.5634 41.4738 47.5585C41.304 47.5081 41.1841 47.4458 41.1172 47.3728C41.1606 47.4485 41.1723 47.5741 41.1777 47.6347C41.1857 47.7426 41.2612 47.8483 41.4047 47.9293C41.7029 48.0968 42.1789 48.0919 42.4685 47.9186C42.6035 47.8381 42.6741 47.7351 42.6811 47.631C42.6875 47.5494 42.6998 47.4453 42.7395 47.3696C42.7138 47.3949 42.695 47.4131 42.634 47.4507Z" fill="#69A4FC"/>
<path d="M42.6768 47.6289C42.6822 47.5645 42.6924 47.4443 42.7352 47.3676C42.5976 47.513 42.2699 47.6155 41.9385 47.616C41.4652 47.6171 41.197 47.4626 41.1129 47.3713C41.1584 47.4545 41.1692 47.5795 41.1734 47.6332C41.1429 47.2168 40.963 46.9329 40.4512 46.9468C40.4667 47.1577 40.615 47.3649 40.8961 47.5232C41.4797 47.8511 42.4124 47.842 42.9794 47.5023C43.2433 47.344 43.3814 47.1422 43.3948 46.9388C42.8835 46.9275 42.7047 47.2125 42.6768 47.6289Z" fill="#81B2FC"/>
<path d="M43.0009 47.5122C42.4243 47.8578 41.4755 47.8675 40.8818 47.5337C40.2885 47.1999 40.2746 46.6493 40.8518 46.3037C41.4284 45.9581 42.3772 45.9485 42.9709 46.2823C43.5647 46.616 43.5781 47.1666 43.0009 47.5122ZM40.87 46.3139C40.303 46.6536 40.3164 47.1951 40.8995 47.5235C41.4831 47.8514 42.4157 47.8422 42.9827 47.5026C43.5497 47.1629 43.5369 46.6214 42.9533 46.293C42.3697 45.9646 41.437 45.9742 40.87 46.3139Z" fill="#69A4FC"/>
<path d="M43.1923 48.141C43.2656 48.096 43.4894 47.958 43.6361 47.7327C43.7748 47.5191 43.801 47.3302 43.7983 47.2089C43.7903 46.8225 43.5735 46.5038 43.1532 46.2612C43.1055 46.2344 43.0407 46.2397 42.9695 46.2821C43.5628 46.6159 43.5761 47.1665 42.9995 47.5121C42.4229 47.8577 41.4741 47.8674 40.8804 47.5336C40.2871 47.1998 40.2732 46.6492 40.8504 46.3036C41.427 45.958 42.3758 45.9484 42.9695 46.2821C43.0407 46.2392 43.1061 46.2344 43.1532 46.2612C43.1205 46.2489 43.0804 46.2231 43.0493 46.207C43.0124 46.1877 42.9604 46.1652 42.9213 46.1501C42.8105 46.1088 42.7152 46.0729 42.5535 46.0364C42.2553 45.9693 42.0154 45.9688 41.9003 45.9688C41.8457 45.9688 41.5577 45.9725 41.2546 46.0482C40.9773 46.1179 40.8011 46.2059 40.6791 46.2752C40.3509 46.4608 40.1228 46.7474 40.0698 47.042C40.0328 47.2459 40.0601 47.3871 40.1115 47.5368C40.1281 47.5851 40.1972 47.7568 40.3787 47.9328C40.6732 48.2178 41.1625 48.4115 41.6872 48.4501C42.5177 48.5118 43.0493 48.229 43.1923 48.141Z" fill="#B1D0FE"/>
<path opacity="0.67" d="M38.6203 54.4936C38.7884 54.8526 39.8533 56.3782 41.9318 56.2264C44.0107 56.0745 44.9134 55.3801 45.2047 54.4367C45.5484 53.3216 44.6061 52.4056 44.5809 52.3814C44.6334 52.5022 44.6613 52.6288 44.6613 52.7587C44.6613 53.6146 43.462 54.3079 41.9837 54.3079C40.5049 54.3079 39.3056 53.6146 39.3056 52.7587C39.3056 52.5971 39.349 52.441 39.4282 52.2939C39.3955 52.3251 38.1539 53.4965 38.6203 54.4936Z" fill="#E84343"/>
<g opacity="0.67">
<path d="M39.3066 52.7588C39.3066 53.6147 40.506 54.308 41.9848 54.308C43.463 54.308 44.6623 53.6147 44.6623 52.7588C44.6623 52.6284 44.6345 52.5023 44.582 52.3815C44.2913 51.7081 43.2387 51.209 41.9848 51.209C40.7854 51.209 39.7703 51.6657 39.4293 52.2941C39.3495 52.4411 39.3066 52.5972 39.3066 52.7588Z" fill="#FF6666"/>
</g>
<path d="M43.5586 51.7969C43.5586 51.7969 44.9806 53.6794 44.9218 53.9354C44.8623 54.1913 45.001 54.4097 44.661 54.1441C44.321 53.8785 43.5586 51.7969 43.5586 51.7969Z" fill="white"/>
</svg>
