<svg width="20" height="16" viewBox="0 0 20 16" fill="none" xmlns="http://www.w3.org/2000/svg">
<path fill-rule="evenodd" clip-rule="evenodd" d="M7.07031 3.61855C7.07031 2.00666 8.37701 0.699954 9.98891 0.699954C11.6008 0.699954 12.9075 2.00666 12.9075 3.61855C12.9075 5.23045 11.6008 6.53716 9.98891 6.53716C8.37701 6.53716 7.07031 5.23045 7.07031 3.61855ZM9.98891 2.19995C9.20544 2.19995 8.57031 2.83508 8.57031 3.61855C8.57031 4.40203 9.20544 5.03716 9.98891 5.03716C10.7724 5.03716 11.4075 4.40203 11.4075 3.61855C11.4075 2.83508 10.7724 2.19995 9.98891 2.19995Z" fill="#929292"/>
<path fill-rule="evenodd" clip-rule="evenodd" d="M5.44296 9.62076C6.28822 8.38541 7.75202 7.53715 9.98974 7.53715C12.2275 7.53715 13.6913 8.38541 14.5365 9.62076C15.3236 10.7711 15.4361 12.6603 15.4385 13.3368C15.4421 14.4052 14.5756 15.111 13.6895 15.111H6.28997C5.40393 15.111 4.53736 14.4052 4.54103 13.3368C4.54335 12.6603 4.65589 10.7711 5.44296 9.62076ZM9.98974 9.03715C8.17472 9.03715 7.20802 9.69742 6.68092 10.4678C6.14163 11.256 6.04292 12.7891 6.04102 13.342C6.04069 13.4391 6.07533 13.4992 6.11746 13.5394C6.16681 13.5865 6.23246 13.611 6.28997 13.611H13.6895C13.747 13.611 13.8127 13.5865 13.862 13.5394C13.9042 13.4992 13.9388 13.4391 13.9385 13.342C13.9366 12.7891 13.8379 11.256 13.2986 10.4678C12.7715 9.69742 11.8048 9.03715 9.98974 9.03715Z" fill="#929292"/>
<path fill-rule="evenodd" clip-rule="evenodd" d="M1.82906 4.86012C1.82906 3.52176 2.91402 2.43681 4.25238 2.43681C5.59074 2.43681 6.67569 3.52176 6.67569 4.86012C6.67569 6.19848 5.59074 7.28344 4.25238 7.28344C2.91402 7.28344 1.82906 6.19848 1.82906 4.86012ZM4.25238 3.93681C3.74244 3.93681 3.32906 4.35019 3.32906 4.86012C3.32906 5.37006 3.74244 5.78344 4.25238 5.78344C4.76231 5.78344 5.17569 5.37006 5.17569 4.86012C5.17569 4.35019 4.76231 3.93681 4.25238 3.93681Z" fill="#929292"/>
<path d="M4.46767 9.34495C4.73388 8.95588 5.05672 8.54954 5.44454 8.16509C5.20837 8.13929 4.96063 8.12591 4.70104 8.12591C2.78576 8.12591 1.51534 8.85415 0.779274 9.92991C0.0977315 10.926 0.00199609 12.6384 1.0506e-05 13.2171C-0.00331757 14.1872 0.784592 14.8288 1.59 14.8288H3.87375C3.58021 14.5772 3.3822 14.1988 3.3838 13.734C3.38422 13.612 3.38754 13.4761 3.39555 13.3288H1.59C1.5728 13.3288 1.54698 13.3203 1.52734 13.3016C1.51904 13.2937 1.51308 13.2851 1.50894 13.2755C1.50513 13.2667 1.49991 13.2504 1.5 13.2223C1.50156 12.7672 1.58347 11.4109 2.01723 10.7769C2.39378 10.2266 3.05887 9.73354 4.27865 9.64133C4.33777 9.54173 4.4007 9.44283 4.46767 9.34495Z" fill="#929292"/>
<path d="M16.106 14.8289H18.3854C19.1908 14.8289 19.9787 14.1873 19.9754 13.2173C19.9734 12.6385 19.8776 10.9261 19.1961 9.93001C18.46 8.85424 17.1896 8.12599 15.2743 8.12599C15.0162 8.12599 14.7699 8.13921 14.535 8.16472C14.9229 8.54928 15.2459 8.95575 15.5122 9.34495C15.5793 9.44297 15.6423 9.54203 15.7015 9.64178C16.9182 9.73492 17.5821 10.2274 17.9581 10.777C18.3919 11.411 18.4738 12.7673 18.4754 13.2224C18.4755 13.2505 18.4702 13.2668 18.4664 13.2756C18.4623 13.2852 18.4563 13.2938 18.448 13.3017C18.4284 13.3205 18.4026 13.3289 18.3854 13.3289H16.5843C16.5924 13.4762 16.5957 13.6121 16.5961 13.734C16.5977 14.1989 16.3996 14.5774 16.106 14.8289Z" fill="#929292"/>
<path fill-rule="evenodd" clip-rule="evenodd" d="M15.7291 2.46372C14.389 2.46372 13.3027 3.55004 13.3027 4.89008C13.3027 6.23012 14.389 7.31645 15.7291 7.31645C17.0691 7.31645 18.1554 6.23012 18.1554 4.89008C18.1554 3.55004 17.0691 2.46372 15.7291 2.46372ZM14.8027 4.89008C14.8027 4.37847 15.2175 3.96372 15.7291 3.96372C16.2407 3.96372 16.6554 4.37847 16.6554 4.89008C16.6554 5.4017 16.2407 5.81644 15.7291 5.81644C15.2175 5.81644 14.8027 5.4017 14.8027 4.89008Z" fill="#929292"/>
</svg>
