<svg width="20" height="20" viewBox="0 0 20 20" fill="none" xmlns="http://www.w3.org/2000/svg">
<path fill-rule="evenodd" clip-rule="evenodd" d="M11.0147 2.71763C10.3683 2.42746 9.63041 2.42746 8.984 2.71763L2.1609 5.78053C1.85996 5.91562 1.66602 6.21705 1.66602 6.54967C1.66602 6.8823 1.85996 7.18372 2.1609 7.31882L8.984 10.3817C9.63042 10.6719 10.3683 10.6719 11.0147 10.3817L17.8378 7.31882C18.1387 7.18372 18.3327 6.8823 18.3327 6.54967C18.3327 6.21705 18.1387 5.91562 17.8378 5.78053L11.0147 2.71763ZM9.6609 4.25592C9.87637 4.1592 10.1223 4.1592 10.3378 4.25592L15.4475 6.54967L10.3378 8.84342C10.1223 8.94015 9.87637 8.94015 9.6609 8.84342L4.55119 6.54967L9.6609 4.25592Z" fill="#929292"/>
<path d="M4.16613 10.744L4.16602 10.7581V15.3874C4.16602 15.5181 4.19614 15.647 4.25399 15.7638C4.43423 16.1279 4.74548 16.4548 5.08424 16.7285C5.43543 17.0123 5.87044 17.2825 6.36327 17.5167C7.34789 17.9847 8.61428 18.3333 9.99935 18.3333C11.3844 18.3333 12.6508 17.9847 13.6354 17.5167C14.1283 17.2825 14.5633 17.0123 14.9145 16.7285C15.2532 16.4548 15.5645 16.1279 15.7447 15.7638C15.8026 15.647 15.8327 15.5181 15.8327 15.3874V10.7581L15.8326 10.744L14.166 11.4922V15.1355C14.1052 15.2075 14.0113 15.3025 13.8733 15.414C13.6386 15.6037 13.3184 15.807 12.9258 15.9936C12.1396 16.3673 11.1143 16.65 9.99935 16.65C8.88442 16.65 7.85914 16.3673 7.07293 15.9936C6.68034 15.807 6.36014 15.6037 6.1254 15.414C5.98735 15.3025 5.89352 15.2075 5.83268 15.1355V11.4922L4.16613 10.744Z" fill="#929292"/>
</svg>
