<svg width="20" height="20" viewBox="0 0 20 20" fill="none" xmlns="http://www.w3.org/2000/svg">
<path fill-rule="evenodd" clip-rule="evenodd" d="M5.31205 2.85746C5.66876 9.20828 10.7917 14.3312 17.1425 14.6879C15.6163 16.6749 13.2059 17.9419 10.5004 17.9419C5.86183 17.9419 2.05808 14.1382 2.05808 9.49959C2.05808 6.79411 3.3251 4.38371 5.31205 2.85746ZM7.35029 2.1493C7.35029 7.92453 12.0755 12.6497 17.8507 12.6497C18.1193 12.6497 18.388 12.6412 18.6542 12.6218C19.4838 12.5614 20.2681 13.3311 19.9118 14.0827C18.2401 17.6089 14.6402 20 10.5004 20C4.72518 20 0 15.2748 0 9.49959C0 5.35978 2.39112 1.7599 5.91729 0.0882169C6.66891 -0.268109 7.43855 0.51617 7.37816 1.34578C7.35877 1.61201 7.35029 1.88066 7.35029 2.1493Z" fill="black" fill-opacity="0.7"/>
</svg>
