<svg width="16" height="18" viewBox="0 0 16 18" fill="none" xmlns="http://www.w3.org/2000/svg">
<path d="M5.50391 1.49978C5.50391 1.03954 5.877 0.666443 6.33724 0.666443H9.67057C10.1308 0.666443 10.5039 1.03954 10.5039 1.49978V2.33311H14.6706C15.1308 2.33311 15.5039 2.70621 15.5039 3.16644C15.5039 3.62668 15.1308 3.99978 14.6706 3.99978H1.33724C0.877003 3.99978 0.503906 3.62668 0.503906 3.16644C0.503906 2.70621 0.877002 2.33311 1.33724 2.33311H5.50391V1.49978Z" fill="black"/>
<path d="M3.00391 5.66644C3.46414 5.66644 3.83724 6.03954 3.83724 6.49978V14.8331C3.83724 15.2933 4.21034 15.6664 4.67057 15.6664H11.3372C11.7975 15.6664 12.1706 15.2933 12.1706 14.8331V6.49978C12.1706 6.03954 12.5437 5.66644 13.0039 5.66644C13.4641 5.66644 13.8372 6.03954 13.8372 6.49978V14.8331C13.8372 16.2138 12.718 17.3331 11.3372 17.3331H4.67057C3.28986 17.3331 2.17057 16.2138 2.17057 14.8331V6.49978C2.17057 6.03954 2.54367 5.66644 3.00391 5.66644Z" fill="black"/>
<path d="M5.50391 8.16644C5.50391 7.70621 5.877 7.33311 6.33724 7.33311C6.79748 7.33311 7.17057 7.70621 7.17057 8.16644V13.1664C7.17057 13.6267 6.79748 13.9998 6.33724 13.9998C5.877 13.9998 5.50391 13.6267 5.50391 13.1664V8.16644Z" fill="black"/>
<path d="M9.67057 7.33311C9.21034 7.33311 8.83724 7.70621 8.83724 8.16644V13.1664C8.83724 13.6267 9.21034 13.9998 9.67057 13.9998C10.1308 13.9998 10.5039 13.6267 10.5039 13.1664V8.16644C10.5039 7.70621 10.1308 7.33311 9.67057 7.33311Z" fill="black"/>
</svg>
