<svg width="20" height="20" viewBox="0 0 20 20" fill="none" xmlns="http://www.w3.org/2000/svg">
<path d="M13.5781 7.74416L10.834 10.4882L10.834 2.50008C10.834 2.03984 10.4609 1.66675 10.0007 1.66675C9.54041 1.66675 9.16732 2.03984 9.16732 2.50008L9.16732 10.4882L6.42324 7.74416C6.0978 7.41872 5.57017 7.41872 5.24473 7.74416C4.91929 8.06959 4.91929 8.59723 5.24473 8.92267L9.41139 13.0893C9.73683 13.4148 10.2645 13.4148 10.5899 13.0893L14.7566 8.92267C15.082 8.59723 15.082 8.0696 14.7566 7.74416C14.4311 7.41872 13.9035 7.41872 13.5781 7.74416Z" fill="black"/>
<path d="M5.00065 13.3334C5.00065 12.8732 4.62755 12.5001 4.16732 12.5001C3.70708 12.5001 3.33398 12.8732 3.33398 13.3334V15.8334C3.33398 17.2141 4.45327 18.3334 5.83398 18.3334H14.1673C15.548 18.3334 16.6673 17.2141 16.6673 15.8334V13.3334C16.6673 12.8732 16.2942 12.5001 15.834 12.5001C15.3737 12.5001 15.0007 12.8732 15.0007 13.3334V15.8334C15.0007 16.2937 14.6276 16.6667 14.1673 16.6667H5.83398C5.37375 16.6667 5.00065 16.2937 5.00065 15.8334V13.3334Z" fill="black"/>
</svg>
