<svg width="16" height="16" viewBox="0 0 16 16" fill="none" xmlns="http://www.w3.org/2000/svg">
<path fill-rule="evenodd" clip-rule="evenodd" d="M10.4445 1.87804C11.1348 1.18779 12.2539 1.18779 12.9442 1.87804L14.2077 3.14166C14.8979 3.83192 14.8979 4.95105 14.2077 5.64131L6.53576 13.3132C6.16178 13.6872 5.69044 13.9488 5.17525 14.0683L2.31849 14.617C1.68512 14.764 1.12862 14.1731 1.31324 13.5497L2.05278 10.7546C2.18663 10.3026 2.43136 9.89121 2.7647 9.55787L10.4445 1.87804ZM11.9443 2.8779C11.8063 2.73985 11.5824 2.73985 11.4444 2.8779L10.5485 3.77377L11.3712 4.64601L12.2872 5.56201L13.2078 4.64145C13.3458 4.5034 13.3458 4.27957 13.2078 4.14152L11.9443 2.8779ZM11.2874 6.56186L10.3556 5.63004L9.54815 4.77413L3.76455 10.5577C3.59788 10.7244 3.47552 10.9301 3.4086 11.1561L2.94476 13.0201L4.85564 12.6909C5.11324 12.6311 5.34891 12.5003 5.5359 12.3134L11.2874 6.56186Z" fill="black"/>
</svg>
