<svg width="24" height="28" viewBox="0 0 24 28" fill="none" xmlns="http://www.w3.org/2000/svg">
<path d="M0 1.5C0 0.671572 0.671573 0 1.5 0H15L24 9V26.5C24 27.3284 23.3284 28 22.5 28H1.5C0.671573 28 0 27.3284 0 26.5V1.5Z" fill="url(#paint0_linear_817_178)"/>
<path d="M15 7.5V0L24 9H16.5C15.6716 9 15 8.32843 15 7.5Z" fill="#BA253D"/>
<path d="M4.72461 20.0001V15.1001H6.84561C7.28428 15.1001 7.66228 15.1724 7.97961 15.3171C8.29694 15.4571 8.54194 15.6601 8.71461 15.9261C8.88728 16.1921 8.97361 16.5094 8.97361 16.8781C8.97361 17.2421 8.88728 17.5571 8.71461 17.8231C8.54194 18.0891 8.29694 18.2944 7.97961 18.4391C7.66228 18.5791 7.28428 18.6491 6.84561 18.6491H5.35461L5.85861 18.1381V20.0001H4.72461ZM5.85861 18.2641L5.35461 17.7251H6.78261C7.13261 17.7251 7.39394 17.6504 7.56661 17.5011C7.73928 17.3518 7.82561 17.1441 7.82561 16.8781C7.82561 16.6074 7.73928 16.3974 7.56661 16.2481C7.39394 16.0988 7.13261 16.0241 6.78261 16.0241H5.35461L5.85861 15.4851V18.2641Z" fill="white"/>
<path d="M9.9832 20.0001V15.1001H12.2092C12.7412 15.1001 13.2102 15.2028 13.6162 15.4081C14.0222 15.6088 14.3395 15.8911 14.5682 16.2551C14.7969 16.6191 14.9112 17.0508 14.9112 17.5501C14.9112 18.0448 14.7969 18.4764 14.5682 18.8451C14.3395 19.2091 14.0222 19.4938 13.6162 19.6991C13.2102 19.8998 12.7412 20.0001 12.2092 20.0001H9.9832ZM11.1172 19.0691H12.1532C12.4799 19.0691 12.7622 19.0084 13.0002 18.8871C13.2429 18.7611 13.4295 18.5838 13.5602 18.3551C13.6955 18.1264 13.7632 17.8581 13.7632 17.5501C13.7632 17.2374 13.6955 16.9691 13.5602 16.7451C13.4295 16.5164 13.2429 16.3414 13.0002 16.2201C12.7622 16.0941 12.4799 16.0311 12.1532 16.0311H11.1172V19.0691Z" fill="white"/>
<path d="M17.0164 17.3051H19.3684V18.2151H17.0164V17.3051ZM17.1004 20.0001H15.9664V15.1001H19.6694V16.0101H17.1004V20.0001Z" fill="white"/>
<defs>
<linearGradient id="paint0_linear_817_178" x1="12" y1="0" x2="12" y2="28" gradientUnits="userSpaceOnUse">
<stop stop-color="#FA6976"/>
<stop offset="1" stop-color="#E44B5F"/>
</linearGradient>
</defs>
</svg>
