<svg width="14" height="19" viewBox="0 0 14 19" fill="none" xmlns="http://www.w3.org/2000/svg">
<path fill-rule="evenodd" clip-rule="evenodd" d="M7.2658 18.3333C2.8331 18.3333 -0.0832784 14.5833 0.353794 10.5019C0.713134 7.14644 4.51662 2.45776 6.5969 0.912042C6.89228 0.692569 7.20508 0.962526 7.13722 1.34115C6.5969 3.05698 6.37505 5.41659 8.44084 6.57248C8.62086 6.67542 8.84575 6.62906 8.95827 6.44646C9.26834 5.94331 9.39675 5.27282 9.44993 4.70668C9.48879 4.29295 9.88973 4.07303 10.1579 4.37315C11.3861 5.74766 12.9658 8.60719 13.3784 9.96183C14.0833 12.2759 14.4995 18.3333 7.2658 18.3333ZM7.08102 15.4672C5.09102 15.4672 4.29269 13.9427 4.54629 12.6907C4.78482 11.513 6.21712 9.78563 6.8809 9.06991C6.98545 8.95717 7.1652 8.96722 7.26547 9.08378C7.32123 9.14858 7.38452 9.22112 7.4537 9.30041C8.13894 10.0858 9.4015 11.5328 9.62904 12.6722C9.88275 13.9427 9.07226 15.4672 7.08102 15.4672Z" fill="#FE5E52"/>
</svg>
