<svg width="57" height="74" viewBox="0 0 57 74" fill="none" xmlns="http://www.w3.org/2000/svg">
<path fill-rule="evenodd" clip-rule="evenodd" d="M29.3251 73.3588C10.9158 73.3588 -1.19613 57.7848 0.61906 40.8347C2.11142 26.8992 17.9075 7.42685 26.5471 1.0074C27.7738 0.0959096 29.0729 1.21706 28.791 2.7895C26.5471 9.91545 25.6257 19.715 34.2051 24.5155C34.9527 24.9431 35.8867 24.7505 36.354 23.9922C37.6417 21.9026 38.175 19.118 38.3959 16.7668C38.5573 15.0485 40.2224 14.1352 41.3362 15.3816C46.4371 21.09 52.9976 32.9658 54.7112 38.5917C57.6386 48.2023 59.3671 73.3588 29.3251 73.3588ZM28.5576 61.4559C20.2931 61.4559 16.9775 55.1244 18.0307 49.9247C19.0214 45.0339 24.9698 37.8599 27.7265 34.8875C28.1608 34.4193 28.9072 34.4611 29.3237 34.9451C29.5552 35.2142 29.8181 35.5155 30.1054 35.8448C32.9512 39.1065 38.1947 45.1161 39.1397 49.8482C40.1934 55.1244 36.8274 61.4559 28.5576 61.4559Z" fill="#FE5E52"/>
</svg>
