<svg width="209" height="164" viewBox="0 0 209 164" fill="none" xmlns="http://www.w3.org/2000/svg">
<path d="M110.333 99.1428V104.114C110.324 107.491 108.098 110.863 103.663 113.44C94.7381 118.626 80.2211 118.626 71.2373 113.44C66.7157 110.83 64.4656 107.405 64.4746 103.983V99.0132C64.4656 102.433 66.7301 105.86 71.2499 108.47C80.2337 113.656 94.7507 113.656 103.675 108.47C108.112 105.893 110.324 102.521 110.333 99.1428Z" fill="#121E51"/>
<path d="M103.572 89.6873C112.556 94.8749 112.603 103.283 103.679 108.469C94.7541 113.654 80.237 113.654 71.2532 108.469C62.2694 103.281 62.2226 94.8731 71.147 89.6873C80.0714 84.4997 94.5885 84.4997 103.572 89.6873Z" fill="#202A5F"/>
<path d="M55.9391 11.5061C55.7591 11.6465 55.5827 11.7923 55.4062 11.9363C55.5881 11.7887 55.7663 11.6429 55.9391 11.5061Z" fill="#9DEFF1"/>
<path d="M116.784 17.2356C118.332 15.9756 121.547 13.3495 112.353 7.14666C111.829 6.85146 111.293 6.55805 110.713 6.25385C106.433 3.99845 100.763 2.14445 97.114 1.51265C95.4472 1.22465 93.865 0.996046 92.3206 0.837646C90.5476 0.997846 86.647 1.55225 83.0109 3.32525C85.5544 4.28105 88.1464 5.50866 90.7366 7.00446L84.3592 12.7392C81.7078 11.2092 79.1085 9.99967 76.5921 9.09607C72.9219 15.5779 66.4005 14.4871 66.7659 13.3945C67.1313 12.2965 65.3007 9.00246 57.9837 11.5657C56.9055 11.9419 56.0037 12.0895 55.2477 12.0661C53.0786 13.8337 51.041 15.8029 49.1456 17.9863C47.4212 19.9717 45.8138 22.1335 44.336 24.4807C44.0192 24.9811 43.7096 25.4886 43.4072 26.007C42.797 27.0456 41.834 28.9339 40.9034 31.0507C40.034 33.0271 39.1934 35.2051 38.6948 37.0699C36.4214 45.5587 36.2396 51.2287 37.2836 59.2477C37.4942 60.8659 37.9856 62.9935 38.414 64.5685C39.116 67.1461 40.016 69.666 41.1086 72.105C40.124 69.819 39.953 68.6347 39.98 68.3521C39.9998 68.1199 40.0124 67.794 40.1186 67.5852C40.5542 66.7248 41.6324 66.5503 42.104 65.7259C42.4604 65.1031 42.0446 64.4047 42.2966 63.7729C42.4712 63.7171 42.635 63.7045 42.7898 63.7207C41.465 62.1259 40.988 59.0299 42.6548 56.7331C43.3676 56.7151 43.8626 57.0966 44.3378 57.5142C44.8112 57.93 45.2648 58.3837 45.8948 58.5133C45.9146 56.6359 43.6178 55.5271 44.2226 53.4589C44.5016 53.4571 44.7716 53.4535 45.0326 53.4499C47.5958 53.4265 49.385 53.3959 50.6864 53.2375C53.6637 52.8757 54.0831 51.8443 55.3737 48.6709C54.7257 48.6223 54.1658 48.5808 54.1262 47.913C54.1262 47.877 54.5799 44.6983 55.7463 43.6867L68.4237 35.5237C69.8097 35.1727 77.0331 40.2756 78.4444 41.7408C79.8592 43.2096 79.1967 43.8865 78.8457 44.1097C78.4785 44.3437 78.4785 44.3436 74.8335 44.0376C75.1395 47.382 75.4635 47.9293 75.9963 48.8347C80.0122 46.9699 83.0434 43.584 87.0376 41.6868C88.9078 40.7994 91.0516 41.7175 92.9182 40.7977C93.0478 40.7347 93.0856 40.5042 93.1576 40.3801C91.2568 40.2523 89.365 42.2071 87.4606 40.3963C85.7758 38.7943 90.2326 28.5199 94.9918 28.5919C95.1394 28.7449 95.3374 28.9501 95.4832 29.1013C95.4148 29.4001 95.4148 29.4001 89.0014 35.8387C89.014 36.1123 89.0302 36.4777 89.041 36.7513C96.1744 40.5331 96.1744 40.5331 96.7162 40.6645C96.988 36.4903 97.087 36.1267 97.3498 35.1511C97.5154 35.0953 97.7332 35.0196 97.897 34.9638C98.311 35.5812 98.4334 36.3354 98.8348 36.9582C98.9392 36.8772 108.247 27.2274 105.36 22.4574C105.338 22.425 105.308 22.3837 105.286 22.3531C107.639 23.1343 110.02 21.3342 112.367 22.4305C112.569 22.524 112.569 22.5241 113.359 26.1169C115.051 23.8129 118.613 23.7571 119.756 20.7943C120.543 18.7531 117.332 18.7926 116.784 17.2356ZM69.8655 25.2348C68.4345 25.6632 65.7741 26.4625 61.1985 29.2021C57.3465 31.5079 53.9552 34.4653 50.2508 36.9781C48.1142 38.4289 47.6696 37.9933 47.4338 36.3931C47.423 36.3229 47.4122 36.2544 47.4032 36.186C47.207 34.8954 47 33.9828 45.5744 34.017C44.3432 34.0458 43.5908 34.8774 42.7772 35.6082C42.3506 35.988 41.9078 36.3427 41.3678 36.5371C41.339 36.4831 41.3012 36.411 41.2742 36.357C41.528 35.7972 42.0824 34.9279 42.833 33.9037C43.9922 32.3179 45.6176 30.3595 47.3132 28.5937C48.7946 27.0547 50.33 25.6615 51.6602 24.7903C53.9931 23.2639 56.6085 22.2703 59.0205 20.8933C61.1679 19.6675 62.9787 17.9556 65.0955 16.6848C65.2269 16.6074 65.4051 16.512 65.5473 16.4598C66.2295 16.2006 68.9871 18.0097 69.0375 18.1987C69.3417 19.3723 68.1069 19.7665 67.8045 20.6323C69.2877 22.4449 72.0219 19.3471 73.1037 21.6493C72.8013 22.4593 71.0283 24.8856 69.8655 25.2348Z" fill="#88BEFF"/>
<path d="M83.0113 3.32694C85.5548 4.28274 88.1468 5.51033 90.737 7.00613L84.3595 12.7409C81.7081 11.2109 79.1089 10.0013 76.5925 9.09773C72.9223 15.5795 66.4009 14.4887 66.7663 13.3961C67.1317 12.2981 65.3011 9.00415 57.984 11.5673C56.9058 11.9435 56.004 12.0911 55.248 12.0677C55.347 11.9849 55.6512 11.7383 55.6764 11.7185C55.7646 11.6483 56.3244 11.2109 56.409 11.1479C57.4782 10.3253 58.5745 9.54594 59.7013 8.81514C60.0073 8.61714 60.3168 8.42093 60.6265 8.22833C61.1269 7.91873 61.6147 7.63073 62.1007 7.35173C62.2087 7.28873 63.4579 6.59575 63.5479 6.54715C63.6163 6.51115 65.2795 5.66152 65.3731 5.61652C65.5207 5.54452 66.2731 5.18815 66.5323 5.06935C66.6223 5.02975 67.5043 4.63912 67.6897 4.56172C68.0749 4.39972 69.4825 3.84712 69.5041 3.83992C70.0999 3.61492 70.6957 3.40253 71.2843 3.20453C72.9475 2.64293 74.5261 2.20014 75.8995 1.89054C75.9877 1.87074 76.9957 1.66014 77.2459 1.61154C79.3465 1.19934 81.2941 0.916744 83.1661 0.751144C85.6303 0.531544 87.9596 0.515347 90.3356 0.670147C91.0322 0.715147 91.6748 0.770924 92.3246 0.837524C90.548 0.999524 86.6474 1.55394 83.0113 3.32694Z" fill="#196C89"/>
<path d="M55.8299 48.6275C56.1593 48.5771 56.6111 48.507 57.3149 48.2748C57.3149 48.2748 57.5723 50.4185 56.9675 52.6343C56.7965 53.2661 56.8541 53.5397 57.2087 53.7629C57.2789 53.7881 58.9457 54.3587 60.0077 53.1851C60.0293 53.1599 62.2055 50.4456 61.5791 48.9246C61.1849 47.9652 66.3203 44.5775 66.5795 44.4641C68.6999 43.5389 69.5639 44.9268 69.2381 45.5802C68.8277 46.3992 67.0277 47.1479 66.1619 47.5061C65.0531 47.9669 64.8821 48.0371 64.7633 48.2783C64.2467 49.3277 64.8929 50.784 65.1935 51.36C65.2781 51.5202 65.2853 51.5345 64.9541 52.3157C64.3079 53.8313 63.6851 53.8782 63.1325 53.9196C62.6681 53.9538 62.3027 53.9808 62.0561 54.6432C61.9229 55.0068 61.7213 55.5539 61.7087 56.5601C60.9833 56.0867 59.4695 55.2498 57.4571 54.9726C56.9297 54.8988 56.5517 54.7152 56.3375 54.4254C54.9821 52.5984 56.8487 50.4869 55.8299 48.6275Z" fill="#88BEFF"/>
<path d="M113.271 7.67381L112.535 7.24902C112.785 7.38942 113.03 7.53161 113.271 7.67381Z" fill="#196C89"/>
<path d="M122.483 14.6507C121.259 13.5599 120.068 12.4979 118.73 11.4287C119.112 11.7239 119.504 12.0335 119.917 12.3611C123.256 15.0161 127.326 19.6169 129.39 22.7975C126.836 19.3235 126.15 18.3911 122.483 14.6507Z" fill="#196C89"/>
<path d="M45.2065 64.7069C44.2975 64.9211 43.4407 64.5018 42.7891 63.7188C43.6657 63.8196 44.2435 64.9031 45.2065 64.7069Z" fill="#196C89"/>
<path d="M67.2962 97.8989C67.1342 97.8287 66.9632 97.7567 66.7994 97.6829C55.1929 92.5565 46.5691 83.6555 41.5723 73.1111C42.5767 75.0479 43.9699 77.5121 45.0823 79.3373C46.2037 80.9303 47.7877 82.9895 49.0099 84.5051C49.0315 84.5267 51.5227 87.0125 55.1425 89.8817C56.3539 90.2273 58.3105 92.5079 58.3285 92.5313C59.0971 93.4637 62.2597 95.3969 64.1533 96.4103C65.0785 96.8819 66.3404 97.4561 67.2962 97.8989Z" fill="#88BEFF"/>
<path d="M69.8066 98.907C70.4618 99.1392 71.306 99.42 72.7352 99.8916C72.1808 99.7368 71.126 99.4002 69.8066 98.907Z" fill="#196C89"/>
<path d="M47.4415 66.0154C46.7197 65.5096 46.1328 65.1478 45.3066 64.6816C45.834 64.5304 46.3074 64.3936 46.7304 64.2712C46.9608 64.8544 47.1985 65.4358 47.4415 66.0154Z" fill="#88BEFF"/>
<path d="M51.6315 71.1292C51.2481 70.348 50.8755 69.565 50.5137 68.7766C51.0609 69.4822 51.4335 70.2382 51.6315 71.1292Z" fill="#196C89"/>
<path d="M54.7546 76.992C54.7258 76.9722 54.6952 76.9506 54.6664 76.929C52.537 75.4062 52.0186 72.96 51.6406 71.1726C52.6036 73.113 53.6476 75.0696 54.7546 76.992Z" fill="#196C89"/>
<path d="M55.7219 66.2406C55.0955 65.3712 54.5321 64.4694 54.2891 63.4146C54.4187 63.6306 54.5609 63.834 54.7139 64.0302C55.0397 64.7682 55.3763 65.5044 55.7219 66.2406Z" fill="#196C89"/>
<path d="M58.2787 71.313C57.3733 69.6318 56.5219 67.938 55.7227 66.2388C56.8477 67.7994 58.1833 69.2556 58.2787 71.313Z" fill="#196C89"/>
<path d="M80.5661 101.585C80.7119 101.598 80.8667 101.609 80.9927 101.618C78.8669 100.615 78.2945 100.345 78.7067 99.8735C78.8741 99.6827 79.2125 99.4415 80.3123 99.2363C81.4121 100.178 82.5263 101.076 83.6513 101.933C82.6397 101.854 81.6137 101.738 80.5661 101.585Z" fill="#88BEFF"/>
<path d="M132.614 28.2517C132.015 27.1753 131.27 25.8756 130.539 24.6606C131.576 26.3094 132.29 27.6325 132.614 28.2517Z" fill="#196C89"/>
<path d="M86.1475 95.6077C86.0575 95.7373 85.9441 95.9154 85.8469 96.0396C85.3483 96.666 83.5087 98.7468 80.7601 99.1609C80.5963 99.1861 80.4469 99.2112 80.3101 99.2364C79.2085 99.4416 78.8719 99.681 78.7045 99.8736C78.2941 100.345 78.8647 100.615 80.9905 101.618C80.8645 101.609 80.7097 101.603 80.5639 101.585C78.2293 101.31 75.7993 100.729 73.1533 100.009C73.0147 99.969 72.8743 99.9348 72.7357 99.8934C71.2975 99.4542 70.4623 99.1393 69.8071 98.9089C69.5551 98.8134 69.3139 98.7216 69.0655 98.6244C68.5075 98.4066 67.9026 98.1727 67.296 97.9009C66.324 97.4671 65.0784 96.8838 64.1532 96.4122C62.2596 95.3988 59.097 93.4656 58.3284 92.5332C58.3104 92.5116 56.352 90.2292 55.1424 89.8836C51.5244 87.0144 49.0314 84.5286 49.0098 84.507C47.7894 82.9896 46.2054 80.9322 45.0822 79.3392C43.968 77.514 42.5442 75.066 41.5722 73.113C41.4065 72.7782 41.259 72.4416 41.1078 72.105C40.1232 69.819 39.9522 68.6347 39.9792 68.3521C39.999 68.1199 40.0115 67.794 40.1177 67.5852C40.5533 66.7248 41.6315 66.5503 42.1031 65.7259C42.4596 65.1031 42.0438 64.4046 42.2958 63.7728C42.4704 63.717 42.6342 63.7045 42.789 63.7207C43.4406 64.5037 44.292 64.9015 45.2064 64.7089C45.2388 64.7017 45.273 64.6944 45.3072 64.6836C46.1334 65.148 46.7202 65.5117 47.442 66.0175C47.5698 66.1039 47.6994 66.1974 47.838 66.2946C48.9666 67.155 49.863 67.9326 50.5146 68.7768C50.8746 69.5652 51.249 70.3483 51.6324 71.1295C52.0194 72.9619 52.5378 75.4098 54.6672 76.9308C54.696 76.9524 54.7266 76.974 54.7554 76.9938C56.3304 78.0954 56.8416 77.82 57.2178 77.6166C57.972 77.2098 60.2904 77.9442 62.8212 78.9846C66.6769 80.5704 71.0275 82.8672 71.0869 82.9122C71.1823 82.986 71.2057 83.1697 71.2561 83.2795C73.1623 87.4285 75.7219 91.2462 76.6471 92.0526C76.9513 92.319 77.7649 93.0264 82.1677 94.1406C85.5661 95.001 85.8451 95.0695 86.1475 95.6077Z" fill="#3E85F4"/>
<path d="M41.5738 73.113C41.5414 73.0518 41.5072 72.9888 41.4784 72.9294C41.3398 72.6432 41.2228 72.366 41.1094 72.105C41.2588 72.4416 41.4136 72.78 41.5738 73.113Z" fill="#7AC3D3"/>
<path d="M45.2026 64.7069C44.2936 64.9211 43.4368 64.5018 42.7852 63.7188C43.6618 63.8196 44.2396 64.9031 45.2026 64.7069Z" fill="#7AC3D3"/>
<path d="M51.6315 71.1295C51.2481 70.3483 50.8755 69.5653 50.5137 68.7769C51.0609 69.4825 51.4335 70.2385 51.6315 71.1295Z" fill="#7AC3D3"/>
<path d="M42.7852 63.7187C43.4368 64.5017 44.2936 64.9211 45.2026 64.7069C44.2396 64.9031 43.6618 63.8195 42.7852 63.7187ZM55.72 66.2405C56.5192 67.9397 57.3706 69.6317 58.276 71.3147C58.1824 69.2555 56.8468 67.7993 55.72 66.2405ZM112.204 7.05835L112.352 7.14654C112.422 7.18614 112.472 7.21494 112.532 7.24734L112.204 7.05835ZM113.434 7.76936L113.291 7.68655C115.219 8.82595 116.803 9.93836 118.686 11.3964C117.201 10.2138 115.531 9.02216 113.434 7.76936ZM130.537 24.6605C131.266 25.8773 132.011 27.177 132.613 28.2516C132.289 27.6324 131.574 26.3093 130.537 24.6605Z" fill="#3E85F4"/>
<path d="M133.936 33.7217C133.572 34.2239 133.572 34.2239 133.612 36.8141C130.406 24.7451 130.145 23.7587 125.514 17.9195C127.557 20.1839 129.263 22.6301 130.512 24.6119C130.16 24.0269 129.812 23.4599 129.486 22.9505C129.454 22.8983 129.42 22.8497 129.389 22.7993C126.837 19.3253 126.149 18.3911 122.484 14.6507C121.26 13.5599 120.078 12.4889 118.731 11.4287C116.818 9.92388 115.228 8.81869 113.295 7.68649C113.272 7.67389 112.415 7.17888 112.356 7.14648C121.55 13.3511 118.333 15.9755 116.787 17.2355C117.334 18.7907 120.544 18.7529 119.757 20.7905C118.612 23.7533 115.05 23.8091 113.36 26.1131C112.57 22.5203 112.57 22.5203 112.368 22.4267C110.019 21.3323 107.64 23.1305 105.287 22.3493C105.309 22.3817 105.337 22.4231 105.361 22.4537C108.248 27.2237 98.9402 36.8735 98.8358 36.9545C98.4344 36.3317 98.312 35.5775 97.898 34.9601C97.7342 35.0159 97.5164 35.0915 97.3508 35.1473C97.088 36.1211 96.989 36.4865 96.7172 40.6607C96.1754 40.5293 96.1754 40.5293 89.042 36.7475C89.0294 36.4739 89.0131 36.1085 89.0023 35.8349C95.4158 29.3963 95.4158 29.3963 95.4842 29.0975C95.3384 28.9445 95.1404 28.7411 94.9928 28.5881C90.2336 28.5161 85.7785 38.7905 87.4615 40.3925C89.3659 42.2033 91.2595 40.2467 93.1585 40.3763C93.0865 40.5023 93.0488 40.7309 92.9192 40.7939C91.0525 41.7137 88.9105 40.7957 87.0385 41.6831C83.0443 43.5803 80.0131 46.9661 75.9973 48.8309C75.4627 47.9255 75.1405 47.3765 74.8345 44.0339C78.4795 44.3399 78.4795 44.3399 78.8467 44.1059C79.1977 43.8827 79.8601 43.2059 78.4453 41.7371C77.0341 40.2719 69.8125 35.1689 68.4247 35.5199L55.7472 43.6829C54.5808 44.6945 54.1272 47.8733 54.1272 47.9093C54.1668 48.5771 54.7266 48.6185 55.3746 48.6671C54.084 51.8387 53.6646 52.8701 50.6874 53.2337C49.386 53.3921 47.5968 53.4227 45.0336 53.4461C44.7726 53.4497 44.5026 53.4515 44.2236 53.4551C43.6188 55.5251 45.9156 56.6339 45.8958 58.5095C45.2658 58.3799 44.8122 57.9263 44.3388 57.5105C43.8636 57.0929 43.3686 56.7113 42.6558 56.7293C40.989 59.0261 41.466 62.1221 42.7908 63.7169C43.6656 63.8177 44.2452 64.8995 45.2082 64.7051C45.2406 64.6997 45.2748 64.6907 45.309 64.6799C45.8364 64.5287 47.9442 63.9221 48.3978 63.7943C50.5218 63.1931 50.5722 63.2165 50.7666 63.3137C53.481 64.6367 53.9238 67.6985 55.6986 69.7415L56.0136 72.9347L58.287 71.6567C58.2888 71.5397 58.2888 71.4227 58.2816 71.3093C57.3762 69.6281 56.5248 67.9343 55.7256 66.2351C55.0992 65.3657 54.5358 64.4639 54.2928 63.4091C54.4224 63.6251 54.5646 63.8285 54.7176 64.0247C55.983 65.6573 57.9234 66.6851 58.9224 68.5589C59.6406 69.9071 60.0078 71.3543 60.627 75.2945C60.7818 75.3899 60.987 75.5159 61.14 75.6113C61.671 75.2693 61.9914 75.0659 62.0328 73.3145C62.058 72.2813 62.4918 70.9367 65.9659 71.2013C66.2899 70.8863 66.7201 70.4651 67.0441 70.1501C68.7595 70.2365 71.0473 70.3355 72.7645 70.3571C73.6213 71.4407 74.7517 72.8933 75.6355 73.9535C71.6251 73.4207 67.8253 71.6513 63.6816 71.8925C62.76 73.2605 65.6994 79.9943 71.0203 79.1735C71.1697 79.1501 71.3677 79.1033 71.5153 79.0727C71.4631 80.0375 71.3929 81.3245 71.3389 82.2893C75.1225 89.8889 76.8487 93.3575 86.1295 94.1711C95.0486 92.6807 92.4206 90.6719 91.8032 90.2849C90.9266 89.7341 89.8321 89.7071 89.0707 89.7791C88.3543 89.8493 86.1727 90.0599 83.3413 85.2809C88.0249 88.5047 98.8736 87.2267 98.9744 87.2087C100.9 86.8667 102.421 86.5967 103.599 89.6423C104.333 91.5467 107.391 94.0307 107.413 94.0307C107.661 94.0145 108.039 94.0199 108.225 93.8525C109.24 92.9309 109.134 91.3991 110.088 90.4433C111.223 89.3039 112.991 89.1761 114.084 87.9791C114.084 87.9791 115.812 85.8731 117.759 83.0489C119.5 84.4187 119.5 84.4187 120.738 85.8245C120.303 88.0259 120.169 88.5605 118.976 90.5531C120.216 89.9249 120.691 89.5469 121.487 88.7315C121.386 88.6235 121.255 88.4795 121.156 88.3697C121.316 87.3077 122.128 85.9091 122.162 85.8497C122.535 85.8929 123.024 86.0441 123.354 86.2223C124.831 85.3619 127.13 82.2227 127.15 82.1921C127.258 82.0355 132.454 72.9977 132.48 72.9419C134.282 69.3509 136.029 63.5909 135.5 61.9907C135.254 61.9997 134.924 62.0141 134.678 62.0231C134.661 62.0033 133.59 59.4653 136.17 56.8787C136.818 58.3259 136.316 59.8415 136.433 61.3211C138.105 57.9533 138.634 42.0665 133.936 33.7217ZM69.2365 45.5819C68.8261 46.4009 67.0261 47.1497 66.1603 47.5079C65.0515 47.9687 64.8805 48.0389 64.7617 48.2801C64.2451 49.3295 64.8913 50.7857 65.1919 51.3617C65.2765 51.5219 65.2836 51.5363 64.9524 52.3175C64.3062 53.8331 63.6834 53.8799 63.1308 53.9213C62.6664 53.9555 62.301 53.9825 62.0544 54.6449C61.9212 55.0085 61.7196 55.5557 61.707 56.5619C60.9816 56.0885 59.4678 55.2515 57.4554 54.9743C56.928 54.9005 56.55 54.7169 56.3358 54.4271C54.9804 52.5983 56.8452 50.4851 55.8264 48.6257C56.1558 48.5753 56.6076 48.5051 57.3114 48.2729C57.3114 48.2729 57.5688 50.4167 56.964 52.6325C56.793 53.2643 56.8506 53.5379 57.2052 53.7611C57.2754 53.7863 58.9422 54.3569 60.0042 53.1833C60.0258 53.1581 62.202 50.4437 61.5756 48.9227C61.1814 47.9633 66.3169 44.5757 66.5761 44.4623C68.6983 43.5407 69.5623 44.9285 69.2365 45.5819Z" fill="#0B45B2"/>
<path d="M73.1047 21.6528C72.8005 22.4592 71.0258 24.8856 69.8647 25.233C68.4337 25.6614 65.7733 26.4606 61.1977 29.2002C57.3457 31.506 53.9545 34.4634 50.2501 36.9762C48.1135 38.427 47.6689 37.9914 47.4331 36.3912C47.4223 36.321 47.4115 36.2526 47.4025 36.1842C47.2063 34.8936 46.9992 33.981 45.5736 34.0152C44.3424 34.044 43.59 34.8756 42.7764 35.6064C42.3498 35.9862 41.907 36.3408 41.367 36.5352C41.3382 36.4812 41.3004 36.4092 41.2734 36.3552C41.5272 35.7954 42.0816 34.926 42.8322 33.9018C43.9914 32.316 45.6168 30.3576 47.3125 28.5918C48.7939 27.0528 50.3293 25.6596 51.6595 24.7884C53.9923 23.262 56.6077 22.2684 59.0197 20.8914C61.1671 19.6656 62.9779 17.9538 65.0947 16.683C65.2261 16.6056 65.4043 16.5102 65.5465 16.458C66.2287 16.1988 68.9863 18.0078 69.0367 18.1968C69.3409 19.3704 68.1061 19.7646 67.8037 20.6304C69.2869 22.4484 72.0229 19.3506 73.1047 21.6528Z" fill="#EBEFFF"/>
<path d="M92.4452 0.828591C92.4056 0.832191 92.3642 0.835785 92.321 0.839385C90.548 0.999585 86.6474 1.55399 83.0113 3.32699C81.1159 4.25039 79.2925 5.50499 77.8813 7.20599C77.5447 7.60919 77.2315 8.03758 76.9489 8.49298C76.8427 8.65858 76.7419 8.82958 76.6447 9.00418C76.6267 9.03658 76.6087 9.06718 76.5925 9.09778C72.9223 15.5796 66.4009 14.4888 66.7663 13.3962C67.1317 12.2982 65.3011 9.0042 57.984 11.5674C56.9058 11.9436 56.004 12.0912 55.248 12.0678C55.347 11.985 55.6512 11.7384 55.6764 11.7186C55.7646 11.6484 56.3244 11.211 56.409 11.148C57.4098 10.3902 58.6879 9.49198 59.7013 8.81518C59.7301 8.79538 59.7589 8.77559 59.7859 8.75759C60.0415 8.58839 60.3259 8.41018 60.6247 8.22838C61.1305 7.92238 62.5345 7.09618 62.5759 7.07278C62.7919 6.94678 64.5757 6.01617 64.7305 5.93517C64.7971 5.90277 65.6611 5.47617 65.7979 5.41137C66.0247 5.30337 67.0273 4.84798 67.1407 4.79938C67.3225 4.71838 67.5079 4.64099 67.6879 4.56359C68.0533 4.40879 68.4061 4.26298 68.7265 4.14058C68.7697 4.12438 69.4807 3.84897 69.5041 3.83997C70.1035 3.61137 70.7479 3.37018 71.2843 3.20458C72.0691 2.96338 73.0717 2.63579 73.8331 2.42339C74.4433 2.25419 75.2191 2.04898 75.8995 1.89058C75.9877 1.87078 76.9669 1.66198 77.2243 1.60618C77.7535 1.49458 78.3097 1.38299 78.7723 1.31279C79.4689 1.20839 80.3941 1.0554 81.0925 0.968996C81.7081 0.891596 82.511 0.796179 83.168 0.749379C83.2454 0.743979 83.3209 0.738575 83.3947 0.733175C84.0733 0.693575 84.9805 0.628776 85.6591 0.605376C86.3377 0.581976 87.2432 0.571177 87.9218 0.578377C88.6454 0.585577 89.495 0.619783 90.3374 0.668383C91.1114 0.716983 91.8278 0.770991 92.4452 0.828591Z" fill="#3E85F4"/>
<path d="M75.2083 11.8014C75.2083 11.8014 78.9883 5.58242 84.2335 6.43562C89.4769 7.28882 94.3568 6.55804 99.7226 8.02144C105.088 9.48484 106.552 12.2892 104.358 15.3384C102.163 18.3876 105.333 19.6062 100.578 21.3144C95.8202 23.0226 92.528 24.6066 88.991 25.4616C85.4539 26.3148 76.4287 20.2182 73.9897 17.6568C71.5489 15.0954 75.2083 11.8014 75.2083 11.8014Z" fill="#EBEFFF"/>
<path d="M60.0744 3.50342C58.9224 4.16042 57.8442 4.91644 56.838 5.77144C56.4564 6.09724 56.0855 6.43563 55.7255 6.79023C54.1271 8.35262 52.7411 10.1886 51.5801 12.273C50.6099 14.01 49.7981 15.9198 49.1465 17.9862C47.4221 19.9716 45.8147 22.1334 44.3369 24.4806C44.0201 24.981 43.7105 25.4886 43.4081 26.007C42.7979 27.0456 41.8349 28.9338 40.9043 31.0506C41.8025 19.8276 46.2251 11.4702 53.5727 7.28521L60.0744 3.50342Z" fill="#121E51"/>
<path d="M55.7238 66.2406C55.0974 65.3712 54.534 64.4694 54.291 63.4146C54.4206 63.6306 54.5628 63.834 54.7158 64.0302C55.0416 64.7682 55.3782 65.5044 55.7238 66.2406Z" fill="#88BEFF"/>
<path d="M51.6334 71.1295C51.25 70.3483 50.8774 69.5653 50.5156 68.7769C51.0628 69.4825 51.4354 70.2385 51.6334 71.1295Z" fill="#3E85F4"/>
<path d="M54.7546 76.992C54.7258 76.9722 54.6952 76.9506 54.6664 76.929C52.537 75.4062 52.0186 72.96 51.6406 71.1726C52.6036 73.113 53.6476 75.0696 54.7546 76.992Z" fill="#9DEFF1"/>
<path d="M51.1836 8.87464C51.4986 8.66404 51.828 8.46424 52.1718 8.27344L51.1836 8.87464Z" fill="#9DEFF1"/>
<path d="M90.7388 7.00431L84.3614 12.7391C82.0034 10.9733 79.4978 9.56749 76.9508 8.49109C72.9889 6.81889 68.9155 5.94411 65.0959 5.75151C61.6831 5.58051 58.4755 5.9531 55.7287 6.7901C54.4309 7.1825 53.2357 7.68111 52.1719 8.27331L60.2089 3.38629C64.7413 0.752891 70.6975 0.191306 77.2226 1.60791C79.127 2.02011 81.0566 2.59251 83.0132 3.32691C85.5584 4.28091 88.1486 5.51031 90.7388 7.00431Z" fill="#202A5F"/>
<path d="M137.519 43.3858C137.017 39.6922 135.676 35.4352 135.028 33.7774C132.746 27.9418 131.34 25.8088 129.486 22.9504C129.812 23.4616 130.159 24.0268 130.512 24.6118C129.263 22.63 127.556 20.1838 125.513 17.9194C130.145 23.7604 130.406 24.745 133.612 36.814C133.572 34.2238 133.572 34.2238 133.936 33.7216C138.634 42.0664 138.104 57.9532 136.43 61.3264C136.313 59.8468 136.814 58.333 136.168 56.884C133.588 59.4706 134.659 62.0068 134.675 62.0284C134.922 62.0194 135.251 62.005 135.498 61.996C136.025 63.5962 134.279 69.3562 132.478 72.9472C132.451 73.003 127.254 82.0408 127.148 82.1974C127.126 82.2281 124.827 85.3672 123.351 86.2276C123.022 86.0494 122.532 85.8982 122.16 85.855C122.126 85.9144 121.314 87.313 121.154 88.375C121.255 88.483 121.386 88.627 121.485 88.7368C120.689 89.5522 120.214 89.9302 118.974 90.5584C120.167 88.5676 120.301 88.0312 120.736 85.8298C119.5 84.424 119.499 84.424 117.757 83.0542C115.809 85.8784 114.081 87.9844 114.081 87.9844C112.987 89.1796 111.219 89.3092 110.085 90.4486C109.133 91.4044 109.238 92.9362 108.222 93.8578C108.039 94.0252 107.661 94.0198 107.411 94.036C107.389 94.036 104.329 91.5502 103.596 89.6476C102.421 86.602 100.9 86.872 98.9722 87.214C98.8714 87.2302 88.0228 88.51 83.3392 85.2862C86.1706 90.0652 88.3522 89.8528 89.0686 89.7844C89.8318 89.7106 90.9244 89.7376 91.801 90.2902C92.4184 90.6772 95.0464 92.686 86.1274 94.1764C76.8465 93.3628 75.1203 89.8924 71.3367 82.2946C71.3889 81.3298 71.4591 80.0428 71.5131 79.078C71.3655 79.1086 71.1675 79.1554 71.0181 79.1788C65.6973 79.9996 62.7579 73.2658 63.6795 71.8978C67.8231 71.6584 71.6229 73.426 75.6333 73.9588C74.7495 72.8986 73.6191 71.446 72.7623 70.3624C71.0451 70.3408 68.7573 70.2418 67.0419 70.1554C66.7179 70.4704 66.2877 70.8916 65.9637 71.2066C62.4897 70.9438 62.0559 72.2866 62.0307 73.3198C61.9893 75.0694 61.6689 75.2746 61.1379 75.6166C60.9849 75.5212 60.7797 75.3952 60.6249 75.2998C60.0057 71.3596 59.6385 69.9124 58.9203 68.5642C57.9213 66.6904 55.9809 65.6626 54.7154 64.03C55.0412 64.768 55.3778 65.5042 55.7234 66.2404C56.8485 67.7992 58.1859 69.2554 58.2795 71.3146C58.2849 71.428 58.2867 71.5432 58.2849 71.662L56.0115 72.94L55.6964 69.7468C53.9216 67.7038 53.4789 64.642 50.7644 63.319C50.57 63.2236 50.5196 63.1984 48.3956 63.7996C47.9438 63.9274 47.3948 64.084 46.7324 64.2748C46.961 64.8562 47.1986 65.4376 47.4416 66.0173C47.5694 66.1036 47.699 66.1972 47.8376 66.2944C48.9662 67.1548 49.8626 67.9324 50.5142 68.7766C51.0614 69.484 51.4142 70.2436 51.632 71.1292C52.2782 73.7734 53.6498 75.0712 54.7551 76.9936C56.3301 78.0952 56.8413 77.8198 57.2175 77.6164C57.9717 77.2096 60.2901 77.944 62.8209 78.9844C66.6765 80.5702 71.0271 82.867 71.0865 82.912C71.1819 82.9858 71.2053 83.1694 71.2557 83.2792C73.1619 87.4282 75.7215 91.246 76.6467 92.0524C76.9509 92.3188 77.7645 93.0262 82.1674 94.1404C85.5676 95.0008 85.8466 95.071 86.149 95.6092C86.059 95.7388 85.9456 95.917 85.8484 96.0412C85.3498 96.6676 83.5102 98.7484 80.7615 99.1624C80.5977 99.1876 80.4483 99.2128 80.3115 99.238C81.4113 100.179 82.5255 101.078 83.6505 101.934C88.6006 102.329 93.2032 101.886 98.4592 100.842C100.785 100.374 103.856 99.3226 106.082 98.4947C112.692 96.034 120.43 90.706 125.225 85.1584C126.673 83.4844 128.555 81.193 129.736 79.321C137.084 67.6408 139.289 56.3674 137.519 43.3858ZM130.539 24.6604C131.574 26.3092 132.289 27.6322 132.614 28.2514C132.013 27.175 131.268 25.8754 130.539 24.6604Z" fill="#88BEFF"/>
<path d="M54.7546 76.9917C54.7258 76.9719 54.6952 76.9504 54.6664 76.9288C52.537 75.406 52.0186 72.9598 51.6406 71.1724C52.6036 73.1128 53.6476 75.0693 54.7546 76.9917Z" fill="#88BEFF"/>
<path d="M84.3618 10.3991V12.739C81.7104 11.209 79.1112 9.99945 76.5948 9.09586C71.3568 7.21666 66.4518 6.67305 62.0994 7.34985C58.0583 7.97805 54.5105 9.64844 51.5819 12.271C48.3131 15.196 45.8219 19.309 44.3369 24.4786C44.0201 24.979 43.7105 25.4866 43.4081 26.005C42.7979 27.0436 41.8349 28.9319 40.9043 31.0487C41.8025 19.8257 46.2251 11.4682 53.5727 7.28325C54.0713 6.99885 54.5789 6.73604 55.0973 6.49484C55.6661 6.22844 56.2475 5.98725 56.8398 5.77126C60.1518 4.57066 63.804 4.17103 67.6884 4.56163C70.9482 4.88923 74.3628 5.77304 77.8836 7.20404C80.0094 8.06984 82.1712 9.13365 84.3618 10.3991Z" fill="#121E51"/>
<path d="M84.3613 10.5215L90.6974 7.04565L90.8594 9.08326L84.3613 12.8615V10.5215Z" fill="#121E51"/>
<path d="M84.9663 7.89898C86.3134 7.89898 87.4053 6.80701 87.4053 5.45999C87.4053 4.11297 86.3134 3.021 84.9663 3.021C83.6193 3.021 82.5273 4.11297 82.5273 5.45999C82.5273 6.80701 83.6193 7.89898 84.9663 7.89898Z" fill="#121E51"/>
<path d="M186.892 73.3019C182.878 71.0807 179.679 73.0823 179.749 77.7731C179.819 82.4639 183.13 88.0673 187.145 90.2885C191.159 92.5097 194.358 90.5081 194.288 85.8173C194.216 81.1265 190.906 75.5231 186.892 73.3019Z" fill="#FCD561"/>
<path d="M193.096 89.9015C191.821 91.4171 189.64 91.6691 187.143 90.2885C183.129 88.0673 179.817 82.4639 179.747 77.7731C179.702 74.7203 181.041 72.8069 183.088 72.4541C182.092 72.6251 181.153 72.9509 180.652 73.1777C180.436 73.2767 180.033 73.4585 179.585 73.7483C179.243 73.9697 178.868 74.2757 178.717 74.4323C178.512 74.6447 178.237 74.9273 178.073 75.1739C177.729 75.6959 177.646 75.8201 177.398 76.4303C177.265 76.7597 177.14 77.2187 177.072 77.5679C176.998 77.9459 176.953 78.4589 176.923 78.8423C176.915 79.0223 176.912 79.2077 176.915 79.3967C176.986 84.0875 180.296 89.6909 184.31 91.9121C184.36 91.9409 184.412 91.9679 184.463 91.9949C184.754 92.1407 185.143 92.3315 185.449 92.4413C185.79 92.5637 186.252 92.7077 186.609 92.7725C186.938 92.8337 187.384 92.8805 187.721 92.8805C188.218 92.8823 188.677 92.7977 188.747 92.7797C188.891 92.7455 189.084 92.7059 189.224 92.6627C189.402 92.6087 189.638 92.5277 189.809 92.4557C189.987 92.3801 190.405 92.2019 190.95 91.8401C191.375 91.5593 192.219 90.9329 193.096 89.9015Z" fill="#FCD561"/>
<path d="M184.338 91.9248C184.237 91.869 184.033 91.7574 184.033 91.7574C184.24 91.869 184.784 92.1354 185.374 92.2146C186.022 92.301 186.343 92.13 186.424 92.076C187.511 91.2822 188.483 91.752 189.621 92.1282C188.35 93.057 186.519 93.0804 184.465 91.9932C184.415 91.9662 184.365 91.9392 184.312 91.9104C180.298 89.6892 176.986 84.0858 176.918 79.395C176.914 79.206 176.918 79.0206 176.925 78.8406C176.893 79.62 177.022 80.304 175.753 80.907C175.746 81.0582 175.744 81.213 175.748 81.3732C175.807 85.3152 178.59 90.0258 181.963 91.8924C182.007 91.9158 182.05 91.9392 182.091 91.9626C183.252 91.1706 183.776 91.6278 184.465 91.9932C184.428 91.9734 184.377 91.9446 184.338 91.9248Z" fill="#E84343"/>
<path d="M184.466 91.9932C183.777 91.6278 183.253 91.1705 182.092 91.9625C183.818 92.8769 185.355 92.8553 186.424 92.0759C186.154 92.2559 185.308 92.4233 184.034 91.7573C184.034 91.7573 184.32 91.9158 184.466 91.9932Z" fill="#FCD561"/>
<path d="M176.924 78.8425C176.922 78.9073 176.937 78.9721 176.931 79.0387C176.991 78.5617 177.061 78.2233 177.262 77.7967C177.408 77.4889 177.653 77.2009 177.842 77.1145C179.075 76.5763 179.161 75.5017 179.412 74.3281C177.964 74.9599 176.965 76.5331 176.924 78.8425Z" fill="#E84343"/>
<path d="M183.089 72.4542C181.757 72.6864 180.79 73.1004 180.333 73.3254C179.746 73.6134 179.381 73.8852 179.226 74.0004C179.077 74.112 178.888 74.274 178.751 74.4C178.643 74.499 178.511 74.6466 178.409 74.7528C178.358 74.805 178.054 75.1578 177.802 75.5898C177.635 75.8778 177.449 76.2864 177.336 76.5996C177.214 76.938 177.102 77.406 177.037 77.7588C176.978 78.0792 176.945 78.5148 176.924 78.8406C177.021 76.533 177.962 74.958 179.411 74.3262C180.657 73.7826 182.277 73.9374 184.057 74.9238C184.714 73.8042 186.779 73.3254 186.887 73.3002C185.49 72.5262 184.187 72.2634 183.089 72.4542Z" fill="#FF6666"/>
<path d="M184.468 91.9933C184.817 92.1625 185.285 92.3839 185.652 92.5117C185.989 92.6287 186.451 92.7547 186.804 92.8051C187.45 92.8987 187.612 92.8897 188.221 92.8555C188.516 92.8393 188.899 92.7439 189.187 92.6737C189.398 92.6233 189.859 92.4487 190.211 92.2723C190.69 92.0311 191.05 91.7755 191.243 91.6387C191.693 91.3201 192.447 90.6739 193.099 89.8999C193.875 88.9783 194.315 87.5887 194.288 85.8157C194.218 81.1249 190.908 75.5215 186.894 73.3003C186.786 73.3255 184.72 73.8043 184.064 74.9239C188.078 77.1451 191.39 82.7485 191.459 87.4393C191.491 89.6569 190.795 91.2751 189.625 92.1283C188.35 93.0553 186.521 93.0805 184.468 91.9933Z" fill="#FF6666"/>
<path d="M186.426 92.076C185.357 92.8554 183.82 92.8769 182.093 91.9625C182.05 91.9391 182.007 91.9176 181.966 91.8924C178.591 90.0258 175.808 85.3152 175.75 81.3732C175.748 81.2148 175.75 81.06 175.756 80.907C175.838 78.9666 176.629 77.6435 177.847 77.1125C176.954 77.5103 176.494 77.9406 176.218 78.198C176.072 78.3348 175.828 78.6137 175.736 78.7379C175.502 79.0565 175.423 79.1646 175.192 79.5948C175.108 79.755 174.944 80.1348 174.874 80.3508C174.726 80.8134 174.681 81.0258 174.622 81.3714C174.488 82.1526 174.539 82.8996 174.562 83.2578C174.832 86.4258 176.888 89.9862 179.464 91.806C179.962 92.1462 181.287 93.0498 183.04 93.1182C183.838 93.1488 184.457 92.9994 184.754 92.9076C185.177 92.778 185.353 92.697 185.755 92.4972C185.955 92.3982 186.111 92.2902 186.426 92.076Z" fill="#FCD561"/>
<path d="M177.846 77.1143C176.629 77.6453 175.837 78.9683 175.754 80.9087C177.023 80.3057 176.893 79.6217 176.926 78.8423C176.924 78.9071 176.937 78.9719 176.933 79.0385C177.1 77.5229 177.77 77.1503 177.846 77.1143Z" fill="#FCD561"/>
<path d="M179.415 74.328C179.165 75.5016 179.081 76.5762 177.846 77.1144C178.893 76.659 180.254 76.7867 181.752 77.6165C182.918 77.0711 183.408 76.047 184.061 74.9256C182.279 73.9392 180.659 73.7844 179.415 74.328Z" fill="#E84343"/>
<path d="M174.53 82.6565C174.532 82.8365 174.548 83.0777 174.561 83.2577C174.544 83.0633 174.534 82.8689 174.532 82.6781C174.478 79.0835 176.928 77.5499 180.004 79.2527C180.033 79.1987 180.58 78.1637 181.748 77.6165C180.25 76.7885 178.882 76.6427 177.842 77.1143C177.423 77.3051 177.383 77.3321 177.14 77.4797C176.791 77.6939 176.523 77.9207 176.523 77.9207C176.276 78.1349 176.098 78.3041 175.993 78.4265C175.797 78.6533 175.596 78.8873 175.383 79.2455C175.194 79.5623 174.921 80.0717 174.732 80.8277C174.589 81.3983 174.521 82.0139 174.53 82.6565Z" fill="#FC5552"/>
<path d="M186.425 92.076C187.512 91.2822 188.484 91.752 189.622 92.1282C190.792 91.275 191.488 89.6586 191.456 87.4392C191.386 82.7484 188.075 77.145 184.061 74.9238C183.408 76.0452 182.918 77.0694 181.752 77.6148C185.125 79.4814 187.91 84.192 187.967 88.134C187.993 89.9988 187.408 91.3578 186.425 92.076Z" fill="#E84343"/>
<path d="M180.233 92.2883C181.841 93.1739 183.041 93.1325 183.554 93.1145C183.772 93.1073 184.355 93.0623 185.061 92.8067C185.756 92.5547 186.24 92.2073 186.424 92.0759C187.406 91.3595 187.993 89.9987 187.964 88.1357C187.905 84.1937 185.122 79.4831 181.749 77.6165C180.581 78.1637 180.033 79.1987 180.005 79.2527C183.081 80.9555 185.617 85.2485 185.671 88.8431C185.725 92.4377 183.275 93.9713 180.199 92.2685C179.951 92.1299 179.704 91.9751 179.463 91.8059C179.754 92.0021 179.929 92.1209 180.233 92.2883Z" fill="#FC5552"/>
<path d="M184.089 92.553C183.1 93.1596 181.727 93.1129 180.199 92.2687C177.123 90.5659 174.586 86.2729 174.532 82.6783C174.504 80.7883 175.168 79.4671 176.253 78.8875L158.089 88.5966C156.921 89.2212 156.205 90.6451 156.235 92.6827C156.293 96.5581 159.029 101.188 162.345 103.022C163.992 103.933 165.473 103.985 166.539 103.33C172.389 99.7368 178.239 96.1458 184.089 92.553Z" fill="#FCD561"/>
<path d="M168.91 107.639C167.236 108.598 164.946 108.49 162.405 107.084C157.169 104.186 152.85 96.8783 152.759 90.7619C152.712 87.6137 153.794 85.3943 155.568 84.3755L151.565 86.6705C149.79 87.6893 148.709 89.9087 148.755 93.0569C148.847 99.1751 153.165 106.483 158.402 109.381C160.943 110.787 163.233 110.897 164.907 109.935C166.109 109.244 167.709 108.326 168.91 107.639Z" fill="#FCD561"/>
<path d="M185.997 88.6039C186.026 90.4669 185.387 91.7809 184.336 92.3821L164.896 104.401C165.945 103.798 166.653 101.578 166.626 99.717C166.615 99.0024 166.507 98.2591 166.316 97.5121C165.54 94.4899 163.404 91.4335 160.92 90.0583C159.417 89.2249 157.224 88.8991 156.234 89.4679L176.443 78.6193C177.433 78.0505 178.788 78.1153 180.293 78.9469C182.12 79.9585 183.76 81.8809 184.809 84.0283C185.535 85.5187 185.976 87.1225 185.997 88.6039Z" fill="#FCD561"/>
<path d="M162.629 89.9L179.842 80.4284C179.842 80.4284 181.417 79.8938 180.996 81.3626C180.577 82.8314 163.993 91.2428 163.993 91.2428L162.629 89.9Z" fill="#FCEAB2"/>
<path d="M185.998 88.6039C186.027 90.4669 185.388 91.7809 184.337 92.3821L164.896 104.401C165.946 103.798 166.653 101.578 166.626 99.7171C166.615 99.0025 166.507 98.2591 166.317 97.5121C172.822 94.2199 182.322 89.0305 183.833 87.5905C184.74 86.7265 184.918 85.3585 184.808 84.0283C185.535 85.5187 185.976 87.1225 185.998 88.6039Z" fill="#FEB30F"/>
<path d="M171.721 101.252C171.812 107.371 167.642 109.981 162.406 107.084C157.169 104.186 152.851 96.8785 152.759 90.7621C152.667 84.6439 156.838 82.0338 162.074 84.93C167.311 87.8262 171.629 95.1343 171.721 101.252ZM162.136 88.989C158.82 87.153 156.178 88.8073 156.235 92.6827C156.293 96.5581 159.029 101.188 162.344 103.022C165.66 104.856 168.302 103.204 168.245 99.3283C168.187 95.4529 165.451 90.825 162.136 88.989Z" fill="#FCD561"/>
<path d="M155.57 84.3738L151.566 86.6688C153.24 85.7094 155.53 85.8174 158.072 87.2232L162.075 84.9282C159.535 83.5224 157.244 83.4144 155.57 84.3738Z" fill="#FF6666"/>
<path d="M164.909 109.934L168.912 107.639C170.687 106.62 171.769 104.401 171.722 101.252C171.63 95.1342 167.312 87.8262 162.075 84.9282L158.072 87.2232C163.308 90.1212 167.627 97.4292 167.719 103.547C167.765 106.696 166.684 108.915 164.909 109.934Z" fill="#FF6666"/>
<path d="M167.719 103.547C167.81 109.666 163.64 112.276 158.404 109.379C153.167 106.481 148.849 99.1735 148.757 93.0553C148.666 86.9371 152.836 84.3271 158.072 87.2233C163.309 90.1213 167.627 97.4293 167.719 103.547ZM158.096 88.8253C153.617 86.3467 150.05 88.5804 150.127 93.813C150.205 99.0474 153.9 105.299 158.378 107.777C162.857 110.256 166.424 108.022 166.347 102.79C166.27 97.5552 162.574 91.3039 158.096 88.8253Z" fill="#E84343"/>
<path d="M163.942 108.253C162.51 109.073 160.551 108.982 158.377 107.777C153.898 105.299 150.203 99.0475 150.126 93.8131C150.086 91.1203 151.011 89.2213 152.528 88.3501L121.201 106.318C119.684 107.189 118.757 109.088 118.798 111.781C118.877 117.015 122.571 123.266 127.049 125.745C129.224 126.947 131.182 127.041 132.615 126.22C142.015 120.831 154.545 113.644 163.942 108.253Z" fill="#FCD561"/>
<path d="M135.436 131.132C133.298 132.36 130.371 132.221 127.124 130.425C120.433 126.722 114.915 117.384 114.798 109.566C114.738 105.543 116.121 102.707 118.389 101.405L114.655 103.545C112.387 104.847 111.005 107.682 111.064 111.705C111.181 119.522 116.7 128.861 123.391 132.563C126.638 134.36 129.565 134.498 131.703 133.272C132.823 132.632 134.315 131.775 135.436 131.132Z" fill="#FCD561"/>
<path d="M166.348 102.701C166.39 105.365 165.475 107.246 163.972 108.105L129.43 127.851C130.931 126.989 131.846 125.11 131.808 122.447C131.792 121.425 131.637 120.363 131.365 119.296C130.255 114.972 127.2 110.602 123.647 108.636C121.496 107.444 119.557 107.353 118.141 108.166L152.685 88.4221C154.101 87.6085 156.04 87.7021 158.191 88.8901C160.804 90.3373 163.15 93.0859 164.649 96.1585C165.688 98.2897 166.318 100.581 166.348 102.701Z" fill="#FCD561"/>
<path d="M126.094 108.407L157.547 91.0069C157.547 91.0069 159.799 90.2437 159.198 92.3425C158.597 94.4431 128.043 110.326 128.043 110.326L126.094 108.407Z" fill="#FCEAB2"/>
<path d="M166.348 102.701C166.389 105.365 165.475 107.246 163.972 108.105L129.43 127.851C130.931 126.989 131.845 125.11 131.807 122.447C131.791 121.425 131.636 120.363 131.365 119.296C140.669 114.587 161.092 103.313 163.25 101.252C164.548 100.016 164.803 98.0592 164.647 96.1584C165.687 98.2896 166.317 100.581 166.348 102.701Z" fill="#FEB30F"/>
<path d="M139.023 122.973C139.14 130.79 133.81 134.126 127.121 130.425C120.431 126.722 114.912 117.384 114.795 109.567C114.678 101.749 120.008 98.412 126.698 102.115C133.389 105.817 138.906 115.156 139.023 122.973ZM126.767 106.793C122.288 104.314 118.721 106.548 118.798 111.781C118.877 117.015 122.571 123.266 127.049 125.745C131.529 128.224 135.097 125.99 135.018 120.757C134.941 115.525 131.247 109.271 126.767 106.793Z" fill="#FCD561"/>
<path d="M139.025 122.973C139.084 126.996 137.705 129.833 135.435 131.132L131.702 133.273C133.972 131.973 135.354 129.136 135.291 125.113C135.174 117.294 129.656 107.957 122.967 104.255C119.721 102.46 116.793 102.318 114.654 103.546L118.388 101.405C120.526 100.178 123.453 100.318 126.7 102.115C133.389 105.817 138.908 115.156 139.025 122.973Z" fill="#FF6666"/>
<path d="M122.966 104.255L122.989 105.981C128.865 109.232 133.71 117.435 133.813 124.3C133.915 131.165 129.235 134.097 123.36 130.845C117.485 127.594 112.638 119.391 112.535 112.526C112.432 105.661 117.112 102.73 122.989 105.981L122.966 104.255C116.275 100.552 110.947 103.89 111.064 111.707C111.181 119.524 116.7 128.863 123.391 132.565C130.081 136.268 135.409 132.933 135.292 125.115C135.174 117.298 129.657 107.958 122.966 104.255Z" fill="#E84343"/>
<path d="M130.662 131.467C128.783 132.546 126.213 132.423 123.361 130.845C117.486 127.594 112.639 119.391 112.536 112.526C112.484 108.993 113.697 106.501 115.69 105.36L78.9426 126.436C76.95 127.579 75.7368 130.07 75.7908 133.604C75.8934 140.469 80.739 148.672 86.616 151.923C89.4672 153.501 92.0394 153.623 93.9168 152.545C104.938 146.222 119.637 137.791 130.662 131.467Z" fill="#FCD561"/>
<path d="M97.6207 159.005C94.8127 160.616 90.9696 160.435 86.7072 158.075C77.9232 153.215 70.6782 140.953 70.5252 130.69C70.446 125.407 72.2604 121.684 75.2394 119.976L69.2148 123.432C66.2375 125.14 64.4213 128.864 64.5005 134.146C64.6535 144.409 71.8986 156.671 80.6826 161.531C84.945 163.891 88.788 164.072 91.5961 162.461C93.4033 161.425 95.8135 160.042 97.6207 159.005Z" fill="#FCD561"/>
<path d="M133.815 124.3C133.869 127.833 132.655 130.326 130.663 131.467L93.9157 152.545C95.9083 151.402 97.1197 148.911 97.0693 145.378C97.0477 144.022 96.8425 142.613 96.4806 141.196C95.0082 135.462 90.9564 129.665 86.2422 127.059C83.391 125.479 80.8188 125.358 78.9414 126.436L115.689 105.36C117.568 104.282 120.138 104.404 122.989 105.983C126.456 107.903 129.567 111.547 131.556 115.622C132.936 118.45 133.773 121.49 133.815 124.3Z" fill="#FCD561"/>
<path d="M89.4844 126.759L122.135 108.791C122.135 108.791 125.121 107.778 124.325 110.562C123.53 113.347 92.0728 129.304 92.0728 129.304L89.4844 126.759Z" fill="#FCEAB2"/>
<path d="M133.813 124.3C133.867 127.833 132.654 130.326 130.661 131.467L93.9141 152.545C95.9067 151.402 97.1181 148.911 97.0677 145.378C97.0461 144.022 96.8409 142.613 96.4791 141.196C108.818 134.952 126.84 125.108 129.704 122.376C131.424 120.736 131.765 118.14 131.556 115.62C132.935 118.45 133.772 121.49 133.813 124.3Z" fill="#FEB30F"/>
<path d="M102.332 148.292C102.485 158.555 95.4881 162.937 86.7041 158.075C77.92 153.215 70.675 140.953 70.522 130.69C70.369 120.426 77.3656 116.045 86.1497 120.907C94.9319 125.767 102.177 138.026 102.332 148.292ZM86.2397 127.059C80.3644 123.808 75.6826 126.737 75.7852 133.602C75.8878 140.467 80.7334 148.67 86.6105 151.921C92.4875 155.171 97.1675 152.243 97.0649 145.376C96.9641 138.512 92.1167 130.31 86.2397 127.059Z" fill="#FCD561"/>
<path d="M75.2356 119.974L69.2109 123.43C72.0189 121.819 75.862 122.001 80.1244 124.361L86.149 120.905C81.8866 118.547 78.0436 118.365 75.2356 119.974Z" fill="#FF6666"/>
<path d="M80.1242 124.361C71.3402 119.501 64.3436 123.88 64.4966 134.144C64.6496 144.407 71.8946 156.669 80.6786 161.529C89.4627 166.389 96.4593 162.01 96.3063 151.746C96.1533 141.482 88.9083 129.223 80.1242 124.361Z" fill="#E84343"/>
<path d="M90.7558 148.675C90.7882 150.823 90.3382 152.576 89.5246 153.859C87.8038 156.565 84.463 157.186 80.584 155.042C74.8672 151.879 70.153 143.896 70.0504 137.218C69.982 132.51 72.2248 129.701 75.5566 129.565C76.9516 129.505 78.5338 129.918 80.2204 130.848C85.9408 134.014 90.6568 141.994 90.7558 148.675Z" fill="#FC5552"/>
<path d="M90.7545 148.675C90.7869 150.823 90.3369 152.576 89.5233 153.859C88.1283 153.919 86.5425 153.51 84.8559 152.576C81.6699 150.812 78.7899 147.547 76.8549 143.849C75.3177 140.914 74.3673 137.704 74.3259 134.75C74.2935 132.599 74.7434 130.848 75.557 129.566C76.952 129.507 78.5343 129.919 80.2209 130.85C81.7797 131.712 83.2611 132.931 84.5967 134.383C88.1643 138.26 90.6825 143.813 90.7545 148.675Z" fill="#3E85F4"/>
<path d="M91.5928 162.462L97.6175 159.006C100.595 157.297 102.409 153.573 102.332 148.292C102.179 138.028 94.9337 125.767 86.1496 120.907L80.125 124.363C88.909 129.223 96.154 141.484 96.307 151.748C96.3844 157.029 94.5701 160.753 91.5928 162.462Z" fill="#FF6666"/>
<path d="M90.7545 148.675C90.7869 150.823 90.3369 152.576 89.5233 153.859C88.1283 153.919 86.5425 153.51 84.8559 152.576C81.6699 150.812 78.7899 147.547 76.8549 143.849C76.7559 143.162 76.7001 142.485 76.6911 141.819C76.6047 136.023 79.9815 133.078 84.5967 134.383C88.1643 138.26 90.6825 143.813 90.7545 148.675Z" fill="#88BEFF"/>
<path d="M85.9715 145.865C86.5961 146.947 86.5943 148.119 85.9679 148.481C85.3415 148.843 84.3263 148.259 83.7017 147.176C83.0771 146.092 83.0789 144.922 83.7053 144.56C84.3317 144.199 85.3451 144.784 85.9715 145.865Z" fill="#F1F0EF"/>
<path d="M135.479 145.991L133.418 148.562C133.693 147.809 134.413 146.938 135.479 145.991Z" fill="#747DB4"/>
<path d="M147.598 131.784C154.352 123.436 166.09 113.032 183.636 110.891L207.918 105.805L200.925 124.922C200.366 126.454 199.539 127.966 198.465 129.415C193.054 136.736 181.719 142.094 168.144 143.749L134.748 147.819L147.598 131.784Z" fill="#99C1FD"/>
<path d="M207.024 106.582L200.387 124.726C199.845 126.208 199.044 127.669 198.004 129.075C192.683 136.27 181.498 141.544 168.077 143.178L136.085 147.079L148.046 132.151C154.735 123.882 166.353 113.582 183.708 111.466L207.024 106.582ZM208.817 105.029L183.568 110.321C166.88 112.355 154.942 121.792 147.15 131.424L133.416 148.562L168.216 144.319C182.117 142.625 193.484 137.121 198.929 129.757C200.022 128.279 200.877 126.731 201.467 125.12L208.817 105.029Z" fill="#C9DEFE"/>
<path opacity="0.26" d="M190.234 129.759L191.318 126.116L205.567 107.932L198.414 123.634L190.234 129.759Z" fill="#E1EDFF"/>
<path d="M171.116 108.659L158.662 130.549L153.818 144.954L171.116 108.659Z" fill="#C9DEFE"/>
<path d="M181.859 139.952L171.115 108.659L153.818 144.955C153.818 144.955 166.026 143.587 170.058 142.888C177.544 141.592 181.859 139.952 181.859 139.952Z" fill="#E1EDFF"/>
<path d="M190.235 126.701L171.115 108.659L181.93 140.154C181.93 140.154 187.115 136.631 188.199 134.896C189.317 133.107 190.235 126.701 190.235 126.701Z" fill="#C9DEFE"/>
<path d="M198.929 129.759C196.83 135.44 179.221 148.481 169.411 149.678L148.928 152.173L133.414 148.564L168.214 144.321C182.117 142.625 193.486 137.123 198.929 129.759Z" fill="#88BEFF"/>
<path d="M3.87457 94.5168C3.87457 94.5168 13.5298 73.2929 24.643 75.8867C35.7545 78.4805 28.3889 95.5608 25.3774 101.387C22.366 107.214 10.6282 113.491 7.35936 110.801C4.09235 108.112 1.74516 100.279 3.87457 94.5168Z" fill="#FEB30F"/>
<path d="M9.60043 110.659C14.7485 113.631 23.0915 108.814 28.2395 99.8988C33.3857 90.9834 33.3857 81.348 28.2395 78.3762L24.7133 76.3403C29.8595 79.3121 29.8595 88.9475 24.7133 97.8629C19.5671 106.778 11.2222 111.595 6.07422 108.623L9.60043 110.659Z" fill="#FBC429"/>
<path d="M29.1198 76.848C23.4858 73.5954 14.3525 78.8676 8.71852 88.6272C3.0845 98.3868 3.0845 108.933 8.71852 112.186L5.19231 110.15C-0.441708 106.897 -0.441708 96.351 5.19231 86.5914C10.8263 76.8318 19.9596 71.5596 25.5936 74.8122L29.1198 76.848Z" fill="#FEB30F"/>
<path d="M29.1209 76.8481C23.4869 73.5955 14.3537 78.8677 8.71966 88.6273C3.08564 98.3869 3.08564 108.933 8.71966 112.186C14.3537 115.438 23.4869 110.166 29.1209 100.406C34.755 90.6469 34.7568 80.1025 29.1209 76.8481ZM9.60167 110.659C4.45545 107.687 4.45545 98.0521 9.60167 89.1367C14.7497 80.2213 23.0927 75.4045 28.2407 78.3763C33.3869 81.3481 33.3869 90.9835 28.2407 99.8989C23.0927 108.812 14.7479 113.631 9.60167 110.659Z" fill="#FCDC79"/>
<path d="M8.79688 121.254C8.79688 128.29 18.6771 133.994 30.8632 133.994C43.051 133.994 52.9312 128.29 52.9312 121.254V126.11C52.9312 133.147 43.051 138.851 30.8632 138.851C18.6753 138.851 8.79688 133.147 8.79688 126.11V121.254Z" fill="#FEB30F"/>
<path d="M8.79688 121.254C8.79688 114.218 18.6771 108.513 30.8632 108.513C43.051 108.513 52.9312 114.218 52.9312 121.254C52.9312 128.29 43.051 133.994 30.8632 133.994C18.6753 133.994 8.79688 128.29 8.79688 121.254Z" fill="#FBC22C"/>
<path d="M12.4043 119.08C12.4043 124.966 20.6699 129.737 30.8652 129.737C41.0622 129.737 49.326 124.966 49.326 119.08V121.254C49.326 127.14 41.0604 131.912 30.8652 131.912C20.6699 131.912 12.4043 127.14 12.4043 121.254V119.08Z" fill="#FEB30F"/>
<path d="M12.4043 119.08C12.4043 113.194 20.6699 108.42 30.8652 108.42C41.0622 108.42 49.326 113.192 49.326 119.08C49.326 124.966 41.0604 129.737 30.8652 129.737C20.6699 129.739 12.4043 124.966 12.4043 119.08Z" fill="#FEB30F"/>
<path d="M12.4043 119.08C12.4043 113.194 20.6699 108.42 30.8652 108.42C41.0622 108.42 49.326 113.192 49.326 119.08C49.326 124.966 41.0604 129.737 30.8652 129.737C20.6699 129.739 12.4043 124.966 12.4043 119.08Z" fill="#FCEAB2"/>
<path d="M47.4539 119.083C47.4539 119.706 47.3495 120.312 47.1515 120.901C45.6881 125.315 38.9561 128.655 30.865 128.655C22.783 128.655 16.0492 125.315 14.5876 120.901C14.3878 120.312 14.2852 119.708 14.2852 119.083C14.2852 113.787 21.7102 109.503 30.8668 109.503C40.0289 109.503 47.4539 113.787 47.4539 119.083Z" fill="#FCD561"/>
<path d="M47.1518 120.901C45.6884 125.315 38.9564 128.656 30.8654 128.656C22.7833 128.656 16.0495 125.315 14.5879 120.901C16.0513 116.488 22.7833 113.147 30.8654 113.147C38.9564 113.147 45.6884 116.488 47.1518 120.901Z" fill="#F2E0DE"/>
<path d="M16.0996 121.787L30.8633 120.523L46.4063 121.011L30.1235 123.319L16.0996 121.787Z" fill="#5D9EFB"/>
<path d="M27.4238 120.523C27.4238 121.619 28.9646 122.509 30.8636 122.509C32.7644 122.509 34.3034 121.619 34.3034 120.523V121.578C34.3034 122.674 32.7626 123.565 30.8636 123.565C28.9646 123.565 27.4238 122.676 27.4238 121.578V120.523Z" fill="#FEB30F"/>
<path d="M27.4238 120.523C27.4238 119.427 28.9646 118.536 30.8636 118.536C32.7644 118.536 34.3034 119.425 34.3034 120.523C34.3034 121.619 32.7626 122.508 30.8636 122.508C28.9646 122.51 27.4238 121.621 27.4238 120.523Z" fill="#FEB30F"/>
</svg>
