<svg width="299" height="222" viewBox="0 0 299 222" fill="none" xmlns="http://www.w3.org/2000/svg">
<path d="M150.092 22.3329L226.618 66.0753M150.092 22.3329L73.1328 65.4257M150.092 22.3329V43.5545M150.092 198.385L226.618 153.777M150.092 198.385L73.1328 153.993M150.092 198.385V175.865M226.618 153.777V66.0753M226.618 153.777L189.186 132.229M226.618 66.0753L207.71 76.9063M73.1328 65.4257L93.0773 76.9063M73.1328 65.4257V109.71V153.993M73.1328 153.993L93.0773 142.569M150.092 43.5545L93.0773 76.9063M150.092 43.5545L207.71 76.9063M150.092 43.5545V64.7761M93.0773 76.9063V142.569M93.0773 76.9063L111.128 87.2969M93.0773 142.569L150.092 175.865M93.0773 142.569L111.128 132.229M207.71 76.9063V142.068C207.71 142.378 207.544 142.665 207.276 142.82L150.092 175.865M207.71 76.9063L189.186 87.5172M150.092 175.865V155.076M150.092 64.7761L111.128 87.2969M150.092 64.7761L189.186 87.5172M150.092 64.7761V85.9976M111.128 87.2969V132.229M111.128 87.2969L129.718 97.9976M111.128 132.229L150.092 155.076M111.128 132.229L129.718 121.581M150.092 155.076L189.186 132.229M150.092 155.076V133.205M189.186 132.229V87.5172M189.186 132.229L170.687 121.581M189.186 87.5172L170.687 98.1133M150.092 85.9976L170.687 98.1133M150.092 85.9976V133.205M150.092 85.9976L129.718 97.9976M170.687 98.1133V121.581M170.687 98.1133L129.718 121.581M170.687 121.581L150.092 133.205M170.687 121.581L129.718 97.9976M150.092 133.205L129.718 121.581M129.718 121.581V97.9976" stroke="#121212" stroke-opacity="0.1" stroke-width="3" stroke-linejoin="round"/>
<path d="M103.699 82.9658L150.092 65.4255L195.617 83.6155L189.33 132.772L149.658 156.592L100.447 138.402L103.699 82.9658Z" stroke="#0530A1" stroke-width="3.47528" stroke-linejoin="round"/>
<path d="M137.096 12.2451V4.94703H138.295V12.2451H137.096ZM137.919 12.2451V11.1504H142.006V12.2451H137.919ZM137.919 9.04439V7.99138H141.652V9.04439H137.919ZM137.919 6.04174V4.94703H141.954V6.04174H137.919ZM146.519 12.2451V9.35716C146.519 9.02353 146.411 8.74899 146.196 8.53352C145.987 8.31805 145.716 8.21032 145.383 8.21032C145.16 8.21032 144.962 8.25897 144.788 8.35628C144.615 8.45359 144.479 8.58912 144.382 8.76289C144.284 8.93665 144.236 9.13474 144.236 9.35716L143.788 9.10694C143.788 8.72466 143.871 8.38756 144.038 8.09563C144.205 7.79676 144.434 7.56392 144.726 7.3971C145.025 7.22334 145.358 7.13646 145.727 7.13646C146.102 7.13646 146.436 7.23376 146.728 7.42838C147.02 7.61605 147.249 7.86279 147.416 8.16861C147.583 8.46749 147.666 8.78026 147.666 9.10694V12.2451H146.519ZM143.089 12.2451V7.24072H144.236V12.2451H143.089ZM150.917 14.4345C150.388 14.4345 149.926 14.3372 149.53 14.1426C149.134 13.955 148.814 13.6874 148.571 13.3398L149.321 12.5892C149.523 12.8394 149.752 13.0271 150.009 13.1522C150.267 13.2773 150.576 13.3398 150.937 13.3398C151.389 13.3398 151.747 13.2217 152.011 12.9854C152.275 12.756 152.407 12.4397 152.407 12.0366V10.8064L152.606 9.70121L152.407 8.58565V7.24072H153.554V12.0366C153.554 12.5162 153.443 12.9332 153.221 13.2877C152.998 13.6491 152.689 13.9306 152.293 14.1322C151.897 14.3338 151.438 14.4345 150.917 14.4345ZM150.864 12.1409C150.42 12.1409 150.016 12.0331 149.655 11.8177C149.301 11.5952 149.019 11.2929 148.811 10.9106C148.609 10.5283 148.508 10.1009 148.508 9.62823C148.508 9.15559 148.609 8.73161 148.811 8.35628C149.019 7.98095 149.301 7.68555 149.655 7.47008C150.016 7.24767 150.42 7.13646 150.864 7.13646C151.261 7.13646 151.608 7.21639 151.907 7.37625C152.206 7.53611 152.439 7.75853 152.606 8.0435C152.772 8.32153 152.856 8.6482 152.856 9.02353V10.2538C152.856 10.6222 152.769 10.9488 152.595 11.2338C152.428 11.5188 152.195 11.7412 151.897 11.9011C151.598 12.0609 151.254 12.1409 150.864 12.1409ZM151.094 11.0566C151.372 11.0566 151.615 10.9975 151.824 10.8793C152.032 10.7612 152.192 10.5978 152.303 10.3893C152.421 10.1739 152.48 9.92363 152.48 9.63866C152.48 9.35369 152.421 9.10694 152.303 8.89842C152.192 8.68296 152.032 8.51614 151.824 8.39798C151.615 8.27982 151.372 8.22074 151.094 8.22074C150.816 8.22074 150.569 8.27982 150.354 8.39798C150.145 8.51614 149.982 8.68296 149.864 8.89842C149.745 9.10694 149.686 9.35369 149.686 9.63866C149.686 9.91668 149.745 10.1634 149.864 10.3789C149.982 10.5944 150.145 10.7612 150.354 10.8793C150.569 10.9975 150.816 11.0566 151.094 11.0566ZM154.828 12.2451V4.73851H155.975V12.2451H154.828ZM157.262 12.2451V7.24072H158.409V12.2451H157.262ZM157.835 6.32324C157.641 6.32324 157.477 6.25721 157.345 6.12515C157.22 5.99309 157.158 5.82975 157.158 5.63514C157.158 5.44052 157.22 5.27718 157.345 5.14512C157.477 5.01306 157.641 4.94703 157.835 4.94703C158.037 4.94703 158.2 5.01306 158.325 5.14512C158.45 5.27718 158.513 5.44052 158.513 5.63514C158.513 5.82975 158.45 5.99309 158.325 6.12515C158.2 6.25721 158.037 6.32324 157.835 6.32324ZM161.332 12.3494C161.054 12.3494 160.786 12.3146 160.529 12.2451C160.272 12.1687 160.036 12.0644 159.82 11.9323C159.605 11.7933 159.417 11.6265 159.257 11.4319L159.987 10.7021C160.161 10.9037 160.359 11.0566 160.581 11.1608C160.811 11.2581 161.068 11.3068 161.353 11.3068C161.61 11.3068 161.804 11.2686 161.937 11.1921C162.069 11.1157 162.135 11.0044 162.135 10.8585C162.135 10.7056 162.072 10.5874 161.947 10.504C161.822 10.4206 161.659 10.3511 161.457 10.2955C161.262 10.2329 161.054 10.1704 160.831 10.1078C160.616 10.0453 160.407 9.96186 160.206 9.8576C160.011 9.74639 159.851 9.59695 159.726 9.40929C159.601 9.22162 159.539 8.97835 159.539 8.67948C159.539 8.35976 159.612 8.08521 159.758 7.85584C159.91 7.62647 160.122 7.44923 160.394 7.32412C160.672 7.19901 161.002 7.13646 161.384 7.13646C161.787 7.13646 162.142 7.20944 162.447 7.3554C162.76 7.49441 163.021 7.7064 163.229 7.99138L162.5 8.72118C162.354 8.54047 162.187 8.40493 161.999 8.31458C161.811 8.22422 161.596 8.17904 161.353 8.17904C161.123 8.17904 160.946 8.21379 160.821 8.2833C160.696 8.3528 160.633 8.45359 160.633 8.58565C160.633 8.72466 160.696 8.83239 160.821 8.90885C160.946 8.98531 161.106 9.05134 161.301 9.10694C161.502 9.16254 161.711 9.2251 161.926 9.29461C162.149 9.35716 162.357 9.44752 162.552 9.56568C162.753 9.67689 162.917 9.8298 163.042 10.0244C163.167 10.2121 163.229 10.4588 163.229 10.7646C163.229 11.2512 163.059 11.6369 162.718 11.9219C162.378 12.2069 161.916 12.3494 161.332 12.3494ZM167.605 12.2451V9.35716C167.605 9.02353 167.497 8.74899 167.282 8.53352C167.073 8.31805 166.802 8.21032 166.469 8.21032C166.246 8.21032 166.048 8.25897 165.874 8.35628C165.7 8.45359 165.565 8.58912 165.468 8.76289C165.37 8.93665 165.322 9.13474 165.322 9.35716L164.873 9.10694C164.873 8.72466 164.957 8.38756 165.124 8.09563C165.29 7.79676 165.52 7.56392 165.812 7.3971C166.111 7.22334 166.444 7.13646 166.813 7.13646C167.188 7.13646 167.522 7.21986 167.813 7.38668C168.105 7.55349 168.335 7.78633 168.502 8.08521C168.668 8.37713 168.752 8.71771 168.752 9.10694V12.2451H167.605ZM164.175 12.2451V4.73851H165.322V12.2451H164.175Z" fill="#121212"/>
<path d="M238.423 59.2985V58.2559H240.247C240.497 58.2559 240.716 58.2072 240.904 58.1099C241.099 58.0057 241.252 57.8632 241.363 57.6825C241.474 57.4948 241.53 57.2759 241.53 57.0256C241.53 56.7754 241.474 56.56 241.363 56.3792C241.252 56.1916 241.099 56.0491 240.904 55.9518C240.716 55.8475 240.497 55.7954 240.247 55.7954H238.423V54.7528H240.31C240.768 54.7528 241.179 54.8466 241.54 55.0343C241.908 55.222 242.197 55.4861 242.405 55.8267C242.621 56.1673 242.729 56.5669 242.729 57.0256C242.729 57.4844 242.621 57.884 242.405 58.2246C242.197 58.5652 241.908 58.8293 241.54 59.017C241.179 59.2046 240.768 59.2985 240.31 59.2985H238.423ZM237.599 62.0509V54.7528H238.798V62.0509H237.599ZM247.165 62.0509V59.1629C247.165 58.8293 247.057 58.5548 246.842 58.3393C246.633 58.1238 246.362 58.0161 246.028 58.0161C245.806 58.0161 245.608 58.0648 245.434 58.1621C245.26 58.2594 245.125 58.3949 245.028 58.5687C244.93 58.7424 244.882 58.9405 244.882 59.1629L244.433 58.9127C244.433 58.5304 244.517 58.1933 244.684 57.9014C244.85 57.6025 245.08 57.3697 245.372 57.2029C245.671 57.0291 246.004 56.9422 246.373 56.9422C246.748 56.9422 247.081 57.0256 247.373 57.1925C247.665 57.3593 247.895 57.5921 248.061 57.891C248.228 58.1829 248.312 58.5235 248.312 58.9127V62.0509H247.165ZM243.735 62.0509V54.5443H244.882V62.0509H243.735ZM251.093 62.103L248.956 57.0465H250.217L251.677 60.7581H251.312L252.855 57.0465H254.127L251.802 62.103H251.093ZM249.602 64.1361L251.156 60.9353L251.802 62.103L250.874 64.1361H249.602ZM256.327 62.1552C256.049 62.1552 255.781 62.1204 255.524 62.0509C255.267 61.9744 255.031 61.8702 254.815 61.7381C254.6 61.5991 254.412 61.4323 254.252 61.2377L254.982 60.5079C255.156 60.7094 255.354 60.8624 255.576 60.9666C255.806 61.0639 256.063 61.1126 256.348 61.1126C256.605 61.1126 256.8 61.0743 256.932 60.9979C257.064 60.9214 257.13 60.8102 257.13 60.6643C257.13 60.5114 257.067 60.3932 256.942 60.3098C256.817 60.2264 256.654 60.1569 256.452 60.1013C256.257 60.0387 256.049 59.9762 255.826 59.9136C255.611 59.8511 255.402 59.7676 255.201 59.6634C255.006 59.5522 254.846 59.4027 254.721 59.2151C254.596 59.0274 254.534 58.7841 254.534 58.4853C254.534 58.1655 254.607 57.891 254.753 57.6616C254.906 57.4323 255.118 57.255 255.389 57.1299C255.667 57.0048 255.997 56.9422 256.379 56.9422C256.782 56.9422 257.137 57.0152 257.442 57.1612C257.755 57.3002 258.016 57.5122 258.224 57.7972L257.495 58.527C257.349 58.3463 257.182 58.2107 256.994 58.1204C256.806 58.03 256.591 57.9848 256.348 57.9848C256.118 57.9848 255.941 58.0196 255.816 58.0891C255.691 58.1586 255.628 58.2594 255.628 58.3914C255.628 58.5304 255.691 58.6382 255.816 58.7146C255.941 58.7911 256.101 58.8571 256.296 58.9127C256.497 58.9683 256.706 59.0309 256.921 59.1004C257.144 59.1629 257.352 59.2533 257.547 59.3715C257.748 59.4827 257.912 59.6356 258.037 59.8302C258.162 60.0179 258.224 60.2646 258.224 60.5704C258.224 61.057 258.054 61.4427 257.714 61.7277C257.373 62.0127 256.911 62.1552 256.327 62.1552ZM259.18 62.0509V57.0465H260.327V62.0509H259.18ZM259.754 56.129C259.559 56.129 259.396 56.063 259.264 55.9309C259.139 55.7989 259.076 55.6355 259.076 55.4409C259.076 55.2463 259.139 55.083 259.264 54.9509C259.396 54.8188 259.559 54.7528 259.754 54.7528C259.955 54.7528 260.119 54.8188 260.244 54.9509C260.369 55.083 260.431 55.2463 260.431 55.4409C260.431 55.6355 260.369 55.7989 260.244 55.9309C260.119 56.063 259.955 56.129 259.754 56.129ZM263.918 62.1552C263.424 62.1552 262.976 62.0405 262.573 61.8111C262.176 61.5817 261.864 61.269 261.634 60.8728C261.405 60.4766 261.29 60.0352 261.29 59.5487C261.29 59.0552 261.405 58.6139 261.634 58.2246C261.864 57.8284 262.176 57.5157 262.573 57.2863C262.976 57.0569 263.424 56.9422 263.918 56.9422C264.307 56.9422 264.668 57.0187 265.002 57.1716C265.342 57.3176 265.631 57.5296 265.867 57.8076L265.117 58.5687C264.971 58.3949 264.793 58.2663 264.585 58.1829C264.383 58.0926 264.161 58.0474 263.918 58.0474C263.633 58.0474 263.379 58.1134 263.156 58.2455C262.941 58.3706 262.771 58.5443 262.646 58.7668C262.527 58.9892 262.468 59.2498 262.468 59.5487C262.468 59.8406 262.527 60.1013 262.646 60.3306C262.771 60.5531 262.941 60.7303 263.156 60.8624C263.379 60.9875 263.633 61.05 263.918 61.05C264.161 61.05 264.383 61.0083 264.585 60.9249C264.793 60.8346 264.971 60.7025 265.117 60.5287L265.867 61.2898C265.631 61.5678 265.342 61.7833 265.002 61.9362C264.668 62.0822 264.307 62.1552 263.918 62.1552ZM268.331 62.1552C268.053 62.1552 267.785 62.1204 267.528 62.0509C267.271 61.9744 267.035 61.8702 266.819 61.7381C266.604 61.5991 266.416 61.4323 266.256 61.2377L266.986 60.5079C267.16 60.7094 267.358 60.8624 267.58 60.9666C267.81 61.0639 268.067 61.1126 268.352 61.1126C268.609 61.1126 268.804 61.0743 268.936 60.9979C269.068 60.9214 269.134 60.8102 269.134 60.6643C269.134 60.5114 269.071 60.3932 268.946 60.3098C268.821 60.2264 268.658 60.1569 268.456 60.1013C268.261 60.0387 268.053 59.9762 267.83 59.9136C267.615 59.8511 267.406 59.7676 267.205 59.6634C267.01 59.5522 266.85 59.4027 266.725 59.2151C266.6 59.0274 266.538 58.7841 266.538 58.4853C266.538 58.1655 266.611 57.891 266.757 57.6616C266.909 57.4323 267.121 57.255 267.393 57.1299C267.671 57.0048 268.001 56.9422 268.383 56.9422C268.786 56.9422 269.141 57.0152 269.446 57.1612C269.759 57.3002 270.02 57.5122 270.228 57.7972L269.499 58.527C269.353 58.3463 269.186 58.2107 268.998 58.1204C268.81 58.03 268.595 57.9848 268.352 57.9848C268.122 57.9848 267.945 58.0196 267.82 58.0891C267.695 58.1586 267.632 58.2594 267.632 58.3914C267.632 58.5304 267.695 58.6382 267.82 58.7146C267.945 58.7911 268.105 58.8571 268.3 58.9127C268.501 58.9683 268.71 59.0309 268.925 59.1004C269.148 59.1629 269.356 59.2533 269.551 59.3715C269.752 59.4827 269.916 59.6356 270.041 59.8302C270.166 60.0179 270.228 60.2646 270.228 60.5704C270.228 61.057 270.058 61.4427 269.718 61.7277C269.377 62.0127 268.915 62.1552 268.331 62.1552Z" fill="#121212"/>
<path d="M234.954 168.592V167.549H237.049C237.418 167.549 237.703 167.435 237.904 167.205C238.106 166.976 238.207 166.712 238.207 166.413C238.207 166.211 238.162 166.024 238.071 165.85C237.981 165.676 237.849 165.537 237.675 165.433C237.501 165.329 237.293 165.276 237.049 165.276H234.954V164.234H236.872C237.185 164.234 237.435 164.154 237.623 163.994C237.811 163.834 237.904 163.598 237.904 163.285C237.904 162.972 237.811 162.736 237.623 162.576C237.435 162.416 237.185 162.336 236.872 162.336H234.954V161.294H236.904C237.397 161.294 237.807 161.384 238.134 161.565C238.46 161.745 238.704 161.978 238.864 162.263C239.023 162.548 239.103 162.854 239.103 163.181C239.103 163.563 238.996 163.9 238.78 164.192C238.572 164.484 238.262 164.72 237.852 164.901L237.946 164.526C238.405 164.713 238.763 164.978 239.02 165.318C239.277 165.659 239.406 166.058 239.406 166.517C239.406 166.892 239.312 167.236 239.124 167.549C238.944 167.862 238.672 168.116 238.311 168.31C237.957 168.498 237.519 168.592 236.997 168.592H234.954ZM234.13 168.592V161.294H235.329V168.592H234.13ZM240.47 168.592V163.587H241.617V168.592H240.47ZM241.043 162.67C240.849 162.67 240.685 162.604 240.553 162.472C240.428 162.34 240.366 162.176 240.366 161.982C240.366 161.787 240.428 161.624 240.553 161.492C240.685 161.36 240.849 161.294 241.043 161.294C241.245 161.294 241.408 161.36 241.533 161.492C241.658 161.624 241.721 161.787 241.721 161.982C241.721 162.176 241.658 162.34 241.533 162.472C241.408 162.604 241.245 162.67 241.043 162.67ZM245.197 168.696C244.71 168.696 244.269 168.581 243.873 168.352C243.476 168.116 243.16 167.799 242.924 167.403C242.695 167.007 242.58 166.566 242.58 166.079C242.58 165.593 242.695 165.155 242.924 164.766C243.16 164.376 243.476 164.067 243.873 163.838C244.269 163.601 244.71 163.483 245.197 163.483C245.69 163.483 246.135 163.598 246.531 163.827C246.927 164.057 247.24 164.369 247.47 164.766C247.706 165.155 247.824 165.593 247.824 166.079C247.824 166.566 247.706 167.007 247.47 167.403C247.24 167.799 246.927 168.116 246.531 168.352C246.135 168.581 245.69 168.696 245.197 168.696ZM245.197 167.591C245.482 167.591 245.732 167.528 245.947 167.403C246.17 167.271 246.34 167.09 246.458 166.861C246.583 166.632 246.646 166.371 246.646 166.079C246.646 165.787 246.583 165.53 246.458 165.308C246.333 165.085 246.163 164.911 245.947 164.786C245.732 164.654 245.482 164.588 245.197 164.588C244.919 164.588 244.668 164.654 244.446 164.786C244.231 164.911 244.06 165.085 243.935 165.308C243.817 165.53 243.758 165.787 243.758 166.079C243.758 166.371 243.817 166.632 243.935 166.861C244.06 167.09 244.231 167.271 244.446 167.403C244.668 167.528 244.919 167.591 245.197 167.591ZM248.778 168.592V161.085H249.925V168.592H248.778ZM253.495 168.696C253.008 168.696 252.567 168.581 252.171 168.352C251.774 168.116 251.458 167.799 251.222 167.403C250.992 167.007 250.878 166.566 250.878 166.079C250.878 165.593 250.992 165.155 251.222 164.766C251.458 164.376 251.774 164.067 252.171 163.838C252.567 163.601 253.008 163.483 253.495 163.483C253.988 163.483 254.433 163.598 254.829 163.827C255.225 164.057 255.538 164.369 255.767 164.766C256.004 165.155 256.122 165.593 256.122 166.079C256.122 166.566 256.004 167.007 255.767 167.403C255.538 167.799 255.225 168.116 254.829 168.352C254.433 168.581 253.988 168.696 253.495 168.696ZM253.495 167.591C253.78 167.591 254.03 167.528 254.245 167.403C254.468 167.271 254.638 167.09 254.756 166.861C254.881 166.632 254.944 166.371 254.944 166.079C254.944 165.787 254.881 165.53 254.756 165.308C254.631 165.085 254.461 164.911 254.245 164.786C254.03 164.654 253.78 164.588 253.495 164.588C253.217 164.588 252.966 164.654 252.744 164.786C252.528 164.911 252.358 165.085 252.233 165.308C252.115 165.53 252.056 165.787 252.056 166.079C252.056 166.371 252.115 166.632 252.233 166.861C252.358 167.09 252.528 167.271 252.744 167.403C252.966 167.528 253.217 167.591 253.495 167.591ZM259.161 170.781C258.633 170.781 258.17 170.684 257.774 170.489C257.378 170.302 257.058 170.034 256.815 169.687L257.566 168.936C257.767 169.186 257.997 169.374 258.254 169.499C258.511 169.624 258.82 169.687 259.182 169.687C259.633 169.687 259.991 169.568 260.256 169.332C260.52 169.103 260.652 168.786 260.652 168.383V167.153L260.85 166.048L260.652 164.932V163.587H261.799V168.383C261.799 168.863 261.687 169.28 261.465 169.634C261.243 169.996 260.933 170.277 260.537 170.479C260.141 170.68 259.682 170.781 259.161 170.781ZM259.109 168.488C258.664 168.488 258.261 168.38 257.899 168.164C257.545 167.942 257.263 167.64 257.055 167.257C256.853 166.875 256.752 166.448 256.752 165.975C256.752 165.502 256.853 165.078 257.055 164.703C257.263 164.328 257.545 164.032 257.899 163.817C258.261 163.594 258.664 163.483 259.109 163.483C259.505 163.483 259.852 163.563 260.151 163.723C260.45 163.883 260.683 164.105 260.85 164.39C261.017 164.668 261.1 164.995 261.1 165.37V166.6C261.1 166.969 261.013 167.296 260.839 167.58C260.673 167.865 260.44 168.088 260.141 168.248C259.842 168.408 259.498 168.488 259.109 168.488ZM259.338 167.403C259.616 167.403 259.859 167.344 260.068 167.226C260.276 167.108 260.436 166.945 260.547 166.736C260.666 166.521 260.725 166.27 260.725 165.985C260.725 165.7 260.666 165.454 260.547 165.245C260.436 165.03 260.276 164.863 260.068 164.745C259.859 164.627 259.616 164.567 259.338 164.567C259.06 164.567 258.813 164.627 258.598 164.745C258.389 164.863 258.226 165.03 258.108 165.245C257.99 165.454 257.931 165.7 257.931 165.985C257.931 166.263 257.99 166.51 258.108 166.726C258.226 166.941 258.389 167.108 258.598 167.226C258.813 167.344 259.06 167.403 259.338 167.403ZM264.689 168.644L262.551 163.587H263.813L265.272 167.299H264.907L266.451 163.587H267.722L265.398 168.644H264.689ZM263.198 170.677L264.751 167.476L265.398 168.644L264.47 170.677H263.198Z" fill="#121212"/>
<path d="M130.375 217.203C129.847 217.203 129.357 217.109 128.905 216.921C128.46 216.727 128.071 216.459 127.737 216.118C127.404 215.771 127.147 215.371 126.966 214.92C126.785 214.461 126.695 213.971 126.695 213.449C126.695 212.928 126.785 212.442 126.966 211.99C127.147 211.531 127.404 211.131 127.737 210.791C128.071 210.45 128.46 210.183 128.905 209.988C129.357 209.793 129.847 209.696 130.375 209.696C130.966 209.696 131.477 209.793 131.908 209.988C132.339 210.183 132.721 210.447 133.055 210.78L132.241 211.594C132.026 211.357 131.762 211.173 131.449 211.041C131.143 210.909 130.785 210.843 130.375 210.843C130.014 210.843 129.684 210.906 129.385 211.031C129.086 211.156 128.825 211.336 128.603 211.573C128.387 211.802 128.221 212.077 128.102 212.396C127.984 212.716 127.925 213.067 127.925 213.449C127.925 213.832 127.984 214.183 128.102 214.502C128.221 214.822 128.387 215.1 128.603 215.337C128.825 215.566 129.086 215.743 129.385 215.868C129.684 215.993 130.014 216.056 130.375 216.056C130.82 216.056 131.195 215.99 131.501 215.858C131.814 215.719 132.078 215.531 132.294 215.295L133.107 216.108C132.773 216.449 132.38 216.716 131.929 216.911C131.477 217.105 130.959 217.203 130.375 217.203ZM137.45 217.099V214.211C137.45 213.877 137.343 213.602 137.127 213.387C136.919 213.171 136.648 213.064 136.314 213.064C136.092 213.064 135.893 213.112 135.72 213.21C135.546 213.307 135.41 213.443 135.313 213.616C135.216 213.79 135.167 213.988 135.167 214.211L134.719 213.96C134.719 213.578 134.802 213.241 134.969 212.949C135.136 212.65 135.365 212.417 135.657 212.25C135.956 212.077 136.29 211.99 136.658 211.99C137.033 211.99 137.367 212.073 137.659 212.24C137.951 212.407 138.18 212.64 138.347 212.939C138.514 213.231 138.597 213.571 138.597 213.96V217.099H137.45ZM134.02 217.099V209.592H135.167V217.099H134.02ZM142.088 217.203C141.587 217.203 141.135 217.092 140.732 216.869C140.336 216.64 140.02 216.327 139.783 215.931C139.554 215.535 139.439 215.09 139.439 214.596C139.439 214.103 139.554 213.661 139.783 213.272C140.013 212.876 140.322 212.563 140.711 212.334C141.108 212.105 141.545 211.99 142.025 211.99C142.491 211.99 142.901 212.098 143.255 212.313C143.617 212.529 143.898 212.824 144.1 213.199C144.308 213.575 144.413 214.002 144.413 214.482C144.413 214.565 144.406 214.652 144.392 214.742C144.385 214.826 144.371 214.92 144.35 215.024H140.242V214.085H143.756L143.328 214.461C143.314 214.155 143.255 213.898 143.151 213.689C143.047 213.481 142.897 213.321 142.703 213.21C142.515 213.098 142.282 213.043 142.004 213.043C141.712 213.043 141.459 213.105 141.243 213.231C141.028 213.356 140.861 213.533 140.743 213.762C140.624 213.985 140.565 214.252 140.565 214.565C140.565 214.878 140.628 215.152 140.753 215.389C140.878 215.625 141.055 215.809 141.285 215.941C141.514 216.066 141.778 216.129 142.077 216.129C142.334 216.129 142.571 216.084 142.786 215.993C143.009 215.903 143.196 215.771 143.349 215.597L144.079 216.337C143.836 216.622 143.54 216.838 143.193 216.984C142.845 217.13 142.477 217.203 142.088 217.203ZM145.332 217.099V212.094H146.479V217.099H145.332ZM148.658 217.099V214.117C148.658 213.783 148.553 213.526 148.345 213.345C148.136 213.158 147.879 213.064 147.573 213.064C147.365 213.064 147.177 213.105 147.01 213.189C146.851 213.272 146.722 213.394 146.625 213.554C146.527 213.707 146.479 213.894 146.479 214.117L146.03 213.867C146.03 213.484 146.114 213.154 146.281 212.876C146.447 212.598 146.673 212.383 146.958 212.23C147.243 212.07 147.563 211.99 147.917 211.99C148.272 211.99 148.592 212.066 148.877 212.219C149.162 212.372 149.388 212.588 149.554 212.866C149.721 213.144 149.805 213.477 149.805 213.867V217.099H148.658ZM151.984 217.099V214.117C151.984 213.783 151.879 213.526 151.671 213.345C151.462 213.158 151.205 213.064 150.899 213.064C150.698 213.064 150.514 213.105 150.347 213.189C150.18 213.272 150.048 213.394 149.951 213.554C149.853 213.707 149.805 213.894 149.805 214.117L149.158 213.867C149.193 213.484 149.304 213.154 149.492 212.876C149.679 212.598 149.919 212.383 150.211 212.23C150.51 212.07 150.837 211.99 151.191 211.99C151.553 211.99 151.879 212.066 152.171 212.219C152.463 212.372 152.696 212.588 152.87 212.866C153.044 213.144 153.13 213.477 153.13 213.867V217.099H151.984ZM154.322 217.099V212.094H155.469V217.099H154.322ZM154.896 211.177C154.701 211.177 154.538 211.111 154.406 210.979C154.281 210.846 154.218 210.683 154.218 210.489C154.218 210.294 154.281 210.131 154.406 209.999C154.538 209.866 154.701 209.8 154.896 209.8C155.097 209.8 155.261 209.866 155.386 209.999C155.511 210.131 155.573 210.294 155.573 210.489C155.573 210.683 155.511 210.846 155.386 210.979C155.261 211.111 155.097 211.177 154.896 211.177ZM158.392 217.203C158.114 217.203 157.847 217.168 157.59 217.099C157.332 217.022 157.096 216.918 156.881 216.786C156.665 216.647 156.477 216.48 156.318 216.285L157.047 215.555C157.221 215.757 157.419 215.91 157.642 216.014C157.871 216.112 158.128 216.16 158.413 216.16C158.67 216.16 158.865 216.122 158.997 216.046C159.129 215.969 159.195 215.858 159.195 215.712C159.195 215.559 159.133 215.441 159.007 215.357C158.882 215.274 158.719 215.204 158.517 215.149C158.323 215.086 158.114 215.024 157.892 214.961C157.676 214.899 157.468 214.815 157.266 214.711C157.072 214.6 156.912 214.45 156.787 214.263C156.662 214.075 156.599 213.832 156.599 213.533C156.599 213.213 156.672 212.939 156.818 212.709C156.971 212.48 157.183 212.303 157.454 212.178C157.732 212.052 158.062 211.99 158.444 211.99C158.848 211.99 159.202 212.063 159.508 212.209C159.821 212.348 160.081 212.56 160.29 212.845L159.56 213.575C159.414 213.394 159.247 213.258 159.06 213.168C158.872 213.078 158.656 213.032 158.413 213.032C158.184 213.032 158.007 213.067 157.881 213.137C157.756 213.206 157.694 213.307 157.694 213.439C157.694 213.578 157.756 213.686 157.881 213.762C158.007 213.839 158.166 213.905 158.361 213.96C158.563 214.016 158.771 214.078 158.987 214.148C159.209 214.211 159.418 214.301 159.612 214.419C159.814 214.53 159.977 214.683 160.102 214.878C160.227 215.065 160.29 215.312 160.29 215.618C160.29 216.105 160.12 216.49 159.779 216.775C159.438 217.06 158.976 217.203 158.392 217.203ZM161.996 217.099V210.009H163.143V217.099H161.996ZM160.797 213.137V212.094H164.342V213.137H160.797ZM165.176 217.099V212.094H166.322V217.099H165.176ZM166.322 214.315L165.926 214.117C165.926 213.484 166.065 212.973 166.343 212.584C166.628 212.188 167.056 211.99 167.626 211.99C167.876 211.99 168.102 212.035 168.303 212.125C168.505 212.216 168.693 212.362 168.866 212.563L168.116 213.335C168.025 213.237 167.925 213.168 167.813 213.126C167.702 213.085 167.574 213.064 167.428 213.064C167.108 213.064 166.844 213.164 166.635 213.366C166.427 213.568 166.322 213.884 166.322 214.315ZM170.966 217.151L168.829 212.094H170.09L171.55 215.806H171.185L172.728 212.094H174L171.675 217.151H170.966ZM169.475 219.184L171.029 215.983L171.675 217.151L170.747 219.184H169.475Z" fill="#121212"/>
<path d="M29.9094 168.592V161.294H31.1084V168.592H29.9094ZM34.5489 168.592V161.294H35.7479V168.592H34.5489ZM30.733 165.36V164.265H34.8095V165.36H30.733ZM37.1857 168.592V163.587H38.3326V168.592H37.1857ZM37.7591 162.67C37.5645 162.67 37.4012 162.604 37.2691 162.472C37.144 162.34 37.0815 162.176 37.0815 161.982C37.0815 161.787 37.144 161.624 37.2691 161.492C37.4012 161.36 37.5645 161.294 37.7591 161.294C37.9607 161.294 38.124 161.36 38.2492 161.492C38.3743 161.624 38.4368 161.787 38.4368 161.982C38.4368 162.176 38.3743 162.34 38.2492 162.472C38.124 162.604 37.9607 162.67 37.7591 162.67ZM41.2557 168.696C40.9777 168.696 40.7101 168.661 40.4529 168.592C40.1957 168.515 39.9594 168.411 39.744 168.279C39.5285 168.14 39.3408 167.973 39.181 167.779L39.9108 167.049C40.0845 167.25 40.2826 167.403 40.505 167.508C40.7344 167.605 40.9916 167.653 41.2766 167.653C41.5337 167.653 41.7283 167.615 41.8604 167.539C41.9925 167.462 42.0585 167.351 42.0585 167.205C42.0585 167.052 41.9959 166.934 41.8708 166.851C41.7457 166.767 41.5824 166.698 41.3808 166.642C41.1862 166.58 40.9777 166.517 40.7553 166.455C40.5398 166.392 40.3313 166.309 40.1297 166.204C39.9351 166.093 39.7752 165.944 39.6501 165.756C39.525 165.568 39.4625 165.325 39.4625 165.026C39.4625 164.706 39.5354 164.432 39.6814 164.203C39.8343 163.973 40.0463 163.796 40.3174 163.671C40.5954 163.546 40.9256 163.483 41.3078 163.483C41.711 163.483 42.0654 163.556 42.3713 163.702C42.684 163.841 42.9447 164.053 43.1532 164.338L42.4234 165.068C42.2774 164.887 42.1106 164.752 41.923 164.661C41.7353 164.571 41.5198 164.526 41.2766 164.526C41.0472 164.526 40.87 164.56 40.7448 164.63C40.6197 164.699 40.5572 164.8 40.5572 164.932C40.5572 165.071 40.6197 165.179 40.7448 165.256C40.87 165.332 41.0298 165.398 41.2244 165.454C41.426 165.509 41.6345 165.572 41.85 165.641C42.0724 165.704 42.2809 165.794 42.4755 165.912C42.6771 166.024 42.8404 166.176 42.9655 166.371C43.0907 166.559 43.1532 166.806 43.1532 167.111C43.1532 167.598 42.9829 167.984 42.6423 168.269C42.3018 168.554 41.8396 168.696 41.2557 168.696ZM44.8598 168.592V161.502H46.0066V168.592H44.8598ZM43.6608 164.63V163.587H47.2056V164.63H43.6608ZM50.1901 168.696C49.7035 168.696 49.2622 168.581 48.866 168.352C48.4698 168.116 48.1536 167.799 47.9172 167.403C47.6879 167.007 47.5732 166.566 47.5732 166.079C47.5732 165.593 47.6879 165.155 47.9172 164.766C48.1536 164.376 48.4698 164.067 48.866 163.838C49.2622 163.601 49.7035 163.483 50.1901 163.483C50.6836 163.483 51.1284 163.598 51.5246 163.827C51.9208 164.057 52.2335 164.369 52.4629 164.766C52.6992 165.155 52.8174 165.593 52.8174 166.079C52.8174 166.566 52.6992 167.007 52.4629 167.403C52.2335 167.799 51.9208 168.116 51.5246 168.352C51.1284 168.581 50.6836 168.696 50.1901 168.696ZM50.1901 167.591C50.4751 167.591 50.7253 167.528 50.9407 167.403C51.1632 167.271 51.3334 167.09 51.4516 166.861C51.5767 166.632 51.6393 166.371 51.6393 166.079C51.6393 165.787 51.5767 165.53 51.4516 165.308C51.3265 165.085 51.1562 164.911 50.9407 164.786C50.7253 164.654 50.4751 164.588 50.1901 164.588C49.9121 164.588 49.6618 164.654 49.4394 164.786C49.224 164.911 49.0537 165.085 48.9286 165.308C48.8104 165.53 48.7513 165.787 48.7513 166.079C48.7513 166.371 48.8104 166.632 48.9286 166.861C49.0537 167.09 49.224 167.271 49.4394 167.403C49.6618 167.528 49.9121 167.591 50.1901 167.591ZM53.7711 168.592V163.587H54.9179V168.592H53.7711ZM54.9179 165.808L54.5218 165.61C54.5218 164.978 54.6608 164.467 54.9388 164.077C55.2238 163.681 55.6512 163.483 56.2212 163.483C56.4714 163.483 56.6973 163.528 56.8989 163.619C57.1004 163.709 57.2881 163.855 57.4619 164.057L56.7112 164.828C56.6208 164.731 56.5201 164.661 56.4088 164.62C56.2976 164.578 56.1691 164.557 56.0231 164.557C55.7034 164.557 55.4392 164.658 55.2307 164.859C55.0222 165.061 54.9179 165.377 54.9179 165.808ZM59.5615 168.644L57.4242 163.587H58.6858L60.1454 167.299H59.7805L61.3235 163.587H62.5954L60.2705 168.644H59.5615ZM58.0706 170.677L59.6241 167.476L60.2705 168.644L59.3426 170.677H58.0706Z" fill="#121212"/>
<path d="M13.9754 58.1531V50.855H15.1743V58.1531H13.9754ZM14.799 58.1531V57.0584H18.8859V58.1531H14.799ZM14.799 54.9523V53.8993H18.5315V54.9523H14.799ZM14.799 51.9497V50.855H18.8338V51.9497H14.799ZM22.1913 58.2573C21.6978 58.2573 21.2495 58.1427 20.8463 57.9133C20.4501 57.6839 20.1374 57.3711 19.908 56.975C19.6786 56.5788 19.5639 56.1374 19.5639 55.6509C19.5639 55.1574 19.6786 54.716 19.908 54.3268C20.1374 53.9306 20.4501 53.6178 20.8463 53.3885C21.2495 53.1591 21.6978 53.0444 22.1913 53.0444C22.5805 53.0444 22.9419 53.1209 23.2755 53.2738C23.6161 53.4197 23.9046 53.6317 24.1409 53.9098L23.3902 54.6708C23.2443 54.4971 23.067 54.3685 22.8585 54.2851C22.6569 54.1947 22.4345 54.1496 22.1913 54.1496C21.9063 54.1496 21.6526 54.2156 21.4302 54.3476C21.2147 54.4728 21.0444 54.6465 20.9193 54.8689C20.8011 55.0914 20.7421 55.352 20.7421 55.6509C20.7421 55.9428 20.8011 56.2034 20.9193 56.4328C21.0444 56.6552 21.2147 56.8325 21.4302 56.9645C21.6526 57.0896 21.9063 57.1522 22.1913 57.1522C22.4345 57.1522 22.6569 57.1105 22.8585 57.0271C23.067 56.9367 23.2443 56.8047 23.3902 56.6309L24.1409 57.392C23.9046 57.67 23.6161 57.8855 23.2755 58.0384C22.9419 58.1844 22.5805 58.2573 22.1913 58.2573ZM27.1596 58.2573C26.673 58.2573 26.2317 58.1427 25.8355 57.9133C25.4393 57.677 25.1231 57.3607 24.8867 56.9645C24.6574 56.5683 24.5427 56.127 24.5427 55.6404C24.5427 55.1539 24.6574 54.716 24.8867 54.3268C25.1231 53.9376 25.4393 53.6283 25.8355 53.3989C26.2317 53.1626 26.673 53.0444 27.1596 53.0444C27.6531 53.0444 28.0979 53.1591 28.4941 53.3885C28.8903 53.6178 29.203 53.9306 29.4324 54.3268C29.6687 54.716 29.7869 55.1539 29.7869 55.6404C29.7869 56.127 29.6687 56.5683 29.4324 56.9645C29.203 57.3607 28.8903 57.677 28.4941 57.9133C28.0979 58.1427 27.6531 58.2573 27.1596 58.2573ZM27.1596 57.1522C27.4445 57.1522 27.6948 57.0896 27.9102 56.9645C28.1326 56.8325 28.3029 56.6518 28.4211 56.4224C28.5462 56.193 28.6088 55.9324 28.6088 55.6404C28.6088 55.3485 28.5462 55.0914 28.4211 54.8689C28.296 54.6465 28.1257 54.4728 27.9102 54.3476C27.6948 54.2156 27.4445 54.1496 27.1596 54.1496C26.8815 54.1496 26.6313 54.2156 26.4089 54.3476C26.1934 54.4728 26.0232 54.6465 25.898 54.8689C25.7799 55.0914 25.7208 55.3485 25.7208 55.6404C25.7208 55.9324 25.7799 56.193 25.898 56.4224C26.0232 56.6518 26.1934 56.8325 26.4089 56.9645C26.6313 57.0896 26.8815 57.1522 27.1596 57.1522ZM34.1707 58.1531V55.2651C34.1707 54.9315 34.063 54.6569 33.8475 54.4415C33.639 54.226 33.3679 54.1183 33.0343 54.1183C32.8119 54.1183 32.6138 54.1669 32.44 54.2642C32.2662 54.3615 32.1307 54.4971 32.0334 54.6708C31.9361 54.8446 31.8874 55.0427 31.8874 55.2651L31.4391 55.0149C31.4391 54.6326 31.5225 54.2955 31.6894 54.0036C31.8562 53.7047 32.0855 53.4719 32.3775 53.3051C32.6763 53.1313 33.01 53.0444 33.3783 53.0444C33.7537 53.0444 34.0873 53.1417 34.3792 53.3363C34.6711 53.524 34.9005 53.7707 35.0673 54.0766C35.2341 54.3754 35.3175 54.6882 35.3175 55.0149V58.1531H34.1707ZM30.7406 58.1531V53.1487H31.8874V58.1531H30.7406ZM38.7766 58.2573C38.2901 58.2573 37.8487 58.1427 37.4526 57.9133C37.0564 57.677 36.7401 57.3607 36.5038 56.9645C36.2744 56.5683 36.1598 56.127 36.1598 55.6404C36.1598 55.1539 36.2744 54.716 36.5038 54.3268C36.7401 53.9376 37.0564 53.6283 37.4526 53.3989C37.8487 53.1626 38.2901 53.0444 38.7766 53.0444C39.2701 53.0444 39.715 53.1591 40.1111 53.3885C40.5073 53.6178 40.8201 53.9306 41.0495 54.3268C41.2858 54.716 41.4039 55.1539 41.4039 55.6404C41.4039 56.127 41.2858 56.5683 41.0495 56.9645C40.8201 57.3607 40.5073 57.677 40.1111 57.9133C39.715 58.1427 39.2701 58.2573 38.7766 58.2573ZM38.7766 57.1522C39.0616 57.1522 39.3118 57.0896 39.5273 56.9645C39.7497 56.8325 39.92 56.6518 40.0382 56.4224C40.1633 56.193 40.2258 55.9324 40.2258 55.6404C40.2258 55.3485 40.1633 55.0914 40.0382 54.8689C39.9131 54.6465 39.7428 54.4728 39.5273 54.3476C39.3118 54.2156 39.0616 54.1496 38.7766 54.1496C38.4986 54.1496 38.2484 54.2156 38.026 54.3476C37.8105 54.4728 37.6402 54.6465 37.5151 54.8689C37.397 55.0914 37.3379 55.3485 37.3379 55.6404C37.3379 55.9324 37.397 56.193 37.5151 56.4224C37.6402 56.6518 37.8105 56.8325 38.026 56.9645C38.2484 57.0896 38.4986 57.1522 38.7766 57.1522ZM42.3577 58.1531V53.1487H43.5045V58.1531H42.3577ZM45.6835 58.1531V55.1713C45.6835 54.8377 45.5793 54.5805 45.3707 54.3998C45.1622 54.2121 44.9051 54.1183 44.5992 54.1183C44.3907 54.1183 44.203 54.16 44.0362 54.2434C43.8764 54.3268 43.7478 54.4484 43.6505 54.6083C43.5532 54.7612 43.5045 54.9489 43.5045 55.1713L43.0562 54.9211C43.0562 54.5388 43.1396 54.2086 43.3064 53.9306C43.4732 53.6526 43.6991 53.4371 43.9841 53.2842C44.2691 53.1243 44.5888 53.0444 44.9433 53.0444C45.2978 53.0444 45.6175 53.1209 45.9025 53.2738C46.1874 53.4267 46.4133 53.6422 46.5801 53.9202C46.7469 54.1982 46.8304 54.5318 46.8304 54.9211V58.1531H45.6835ZM49.0094 58.1531V55.1713C49.0094 54.8377 48.9051 54.5805 48.6966 54.3998C48.4881 54.2121 48.2309 54.1183 47.9251 54.1183C47.7235 54.1183 47.5393 54.16 47.3725 54.2434C47.2057 54.3268 47.0736 54.4484 46.9763 54.6083C46.879 54.7612 46.8304 54.9489 46.8304 55.1713L46.184 54.9211C46.2187 54.5388 46.3299 54.2086 46.5176 53.9306C46.7052 53.6526 46.945 53.4371 47.237 53.2842C47.5358 53.1243 47.8625 53.0444 48.217 53.0444C48.5784 53.0444 48.9051 53.1209 49.197 53.2738C49.4889 53.4267 49.7218 53.6422 49.8956 53.9202C50.0693 54.1982 50.1562 54.5318 50.1562 54.9211V58.1531H49.0094ZM51.3482 58.1531V53.1487H52.495V58.1531H51.3482ZM51.9216 52.2312C51.727 52.2312 51.5636 52.1652 51.4316 52.0331C51.3065 51.901 51.2439 51.7377 51.2439 51.5431C51.2439 51.3485 51.3065 51.1851 51.4316 51.0531C51.5636 50.921 51.727 50.855 51.9216 50.855C52.1231 50.855 52.2865 50.921 52.4116 51.0531C52.5367 51.1851 52.5993 51.3485 52.5993 51.5431C52.5993 51.7377 52.5367 51.901 52.4116 52.0331C52.2865 52.1652 52.1231 52.2312 51.9216 52.2312ZM56.0854 58.2573C55.5919 58.2573 55.1436 58.1427 54.7405 57.9133C54.3443 57.6839 54.0315 57.3711 53.8021 56.975C53.5728 56.5788 53.4581 56.1374 53.4581 55.6509C53.4581 55.1574 53.5728 54.716 53.8021 54.3268C54.0315 53.9306 54.3443 53.6178 54.7405 53.3885C55.1436 53.1591 55.5919 53.0444 56.0854 53.0444C56.4746 53.0444 56.8361 53.1209 57.1697 53.2738C57.5103 53.4197 57.7987 53.6317 58.035 53.9098L57.2844 54.6708C57.1384 54.4971 56.9612 54.3685 56.7527 54.2851C56.5511 54.1947 56.3287 54.1496 56.0854 54.1496C55.8004 54.1496 55.5467 54.2156 55.3243 54.3476C55.1088 54.4728 54.9386 54.6465 54.8134 54.8689C54.6953 55.0914 54.6362 55.352 54.6362 55.6509C54.6362 55.9428 54.6953 56.2034 54.8134 56.4328C54.9386 56.6552 55.1088 56.8325 55.3243 56.9645C55.5467 57.0896 55.8004 57.1522 56.0854 57.1522C56.3287 57.1522 56.5511 57.1105 56.7527 57.0271C56.9612 56.9367 57.1384 56.8047 57.2844 56.6309L58.035 57.392C57.7987 57.67 57.5103 57.8855 57.1697 58.0384C56.8361 58.1844 56.4746 58.2573 56.0854 58.2573ZM60.4987 58.2573C60.2207 58.2573 59.9531 58.2226 59.6959 58.1531C59.4387 58.0766 59.2024 57.9724 58.987 57.8403C58.7715 57.7013 58.5838 57.5345 58.424 57.3399L59.1538 56.6101C59.3275 56.8116 59.5256 56.9645 59.748 57.0688C59.9774 57.1661 60.2346 57.2148 60.5196 57.2148C60.7767 57.2148 60.9713 57.1765 61.1034 57.1001C61.2355 57.0236 61.3015 56.9124 61.3015 56.7664C61.3015 56.6135 61.2389 56.4954 61.1138 56.412C60.9887 56.3286 60.8254 56.259 60.6238 56.2034C60.4292 56.1409 60.2207 56.0783 59.9983 56.0158C59.7828 55.9532 59.5743 55.8698 59.3727 55.7656C59.1781 55.6544 59.0182 55.5049 58.8931 55.3172C58.768 55.1296 58.7055 54.8863 58.7055 54.5874C58.7055 54.2677 58.7784 53.9932 58.9244 53.7638C59.0773 53.5344 59.2893 53.3572 59.5604 53.2321C59.8384 53.107 60.1686 53.0444 60.5508 53.0444C60.954 53.0444 61.3084 53.1174 61.6143 53.2634C61.927 53.4024 62.1877 53.6144 62.3962 53.8993L61.6664 54.6291C61.5204 54.4484 61.3536 54.3129 61.166 54.2225C60.9783 54.1322 60.7628 54.087 60.5196 54.087C60.2902 54.087 60.113 54.1218 59.9878 54.1913C59.8627 54.2608 59.8002 54.3615 59.8002 54.4936C59.8002 54.6326 59.8627 54.7404 59.9878 54.8168C60.113 54.8933 60.2728 54.9593 60.4674 55.0149C60.669 55.0705 60.8775 55.1331 61.093 55.2026C61.3154 55.2651 61.5239 55.3555 61.7185 55.4736C61.9201 55.5848 62.0834 55.7378 62.2085 55.9324C62.3337 56.12 62.3962 56.3668 62.3962 56.6726C62.3962 57.1591 62.2259 57.5449 61.8853 57.8299C61.5448 58.1148 61.0826 58.2573 60.4987 58.2573Z" fill="#121212"/>
</svg>
