<svg width="250" height="201" viewBox="0 0 250 201" fill="none" xmlns="http://www.w3.org/2000/svg">
<path d="M249.413 106.161C249.264 106.074 249.061 106.08 248.834 106.21L193.736 138.021L118.012 94.3023L173.11 62.4913C173.337 62.3606 173.54 62.3549 173.689 62.4401L249.413 106.161Z" fill="#FCD561"/>
<path d="M249.414 106.161C249.556 106.243 249.639 106.426 249.639 106.676C249.639 107.19 249.279 107.815 248.834 108.072L193.736 139.883V138.023L248.834 106.212C249.062 106.08 249.264 106.074 249.414 106.161Z" fill="#FEB30F"/>
<path d="M248.228 94.0468L193.984 125.365L118.262 81.6444L172.504 50.3276L248.228 94.0468Z" fill="#FCEAB2"/>
<path d="M192.14 124.61V137.122L116.416 93.4027L118.263 81.6443L192.14 124.61Z" fill="#FCD561"/>
<path d="M246.382 93.291C246.382 93.291 244.962 95.5677 244.949 99.6892C244.933 104.286 246.382 105.803 246.382 105.803L192.141 137.12V124.608L246.382 93.291Z" fill="#FEFEFE"/>
<path d="M249.667 91.6451C249.518 91.5579 249.315 91.5636 249.088 91.6943L193.99 123.505L118.266 79.7862L173.364 47.9751C173.591 47.8444 173.795 47.8388 173.943 47.924L249.667 91.6451Z" fill="#FCD561"/>
<path d="M249.668 91.6451C249.81 91.7266 249.893 91.9103 249.893 92.1603C249.893 92.6736 249.533 93.2987 249.088 93.5563L193.99 125.365V123.507L249.088 91.6963C249.315 91.5637 249.518 91.558 249.668 91.6451Z" fill="#FEB30F"/>
<path d="M195.296 122.753C194.769 123.056 194.245 123.361 193.718 123.664L117.994 79.9433C118.521 79.6402 119.045 79.3353 119.572 79.0322L195.296 122.753Z" fill="#FEB30F"/>
<path d="M193.717 123.664C189.836 130.388 189.836 137.654 193.717 139.895L117.993 96.1757C114.112 93.935 114.112 86.6674 117.993 79.9453L193.717 123.664Z" fill="#FBC22C"/>
<path d="M133.67 91.3892C132.562 93.7758 131.949 96.2437 131.949 98.3897C131.949 100.375 132.472 101.924 133.409 102.75L118.997 94.4311C117.789 93.736 117.094 92.0237 117.094 89.7376C117.094 87.603 117.707 85.135 118.815 82.7371L133.67 91.3892Z" fill="#FEB30F"/>
<path d="M186.199 122.092C184.748 125.113 183.964 128.256 183.964 131.106C183.964 131.559 183.985 131.993 184.025 132.405L138.382 105.71C138.291 105.659 138.2 105.599 138.121 105.54C138.041 105.479 137.962 105.407 137.878 105.328C136.996 104.477 136.479 102.96 136.479 101.017C136.479 98.8821 137.092 96.4141 138.2 94.0276L186.199 122.092Z" fill="#FEB30F"/>
<path d="M195.295 122.753C191.414 129.477 191.414 136.743 195.295 138.984C194.769 139.287 194.244 139.592 193.717 139.895C189.836 137.654 189.836 130.386 193.717 123.664C194.242 123.359 194.769 123.056 195.295 122.753Z" fill="#FEB30F"/>
<path d="M235.659 86.5766C235.536 86.5065 235.369 86.5103 235.182 86.6183L189.944 112.732L127.785 76.841L173.017 44.4996C173.205 44.3916 173.371 44.3878 173.492 44.4579L235.659 86.5766Z" fill="#5195FB"/>
<path d="M235.66 86.5767C235.778 86.6449 235.846 86.7945 235.846 86.9991C235.846 87.4215 235.55 87.9329 235.185 88.145L189.945 114.266V112.732L235.183 86.6165C235.37 86.5104 235.537 86.5066 235.66 86.5767Z" fill="#1C6DF6"/>
<path d="M234.686 70.4048L190.155 96.117L127.992 60.2242L172.521 34.5139L234.686 70.4048Z" fill="#FCEAB2"/>
<path d="M188.639 95.4938V111.993L126.475 76.1022L127.992 60.2241L188.639 95.4938Z" fill="#FCD561"/>
<path d="M233.168 69.7854C233.168 69.7854 232.001 71.6549 231.99 75.0377C231.976 78.8126 233.168 86.2828 233.168 86.2828L188.639 111.993V95.4938L233.168 69.7854Z" fill="#FEFEFE"/>
<path d="M235.864 68.4331C235.741 68.363 235.574 68.3668 235.389 68.4748L190.157 94.5903L127.992 58.6994L173.224 32.5838C173.412 32.4759 173.578 32.4721 173.701 32.5421L235.864 68.4331Z" fill="#5195FB"/>
<path d="M235.863 68.4332C235.981 68.5014 236.049 68.651 236.049 68.8556C236.049 69.2779 235.754 69.7893 235.388 70.0015L190.156 96.1152V94.5885L235.388 68.4729C235.574 68.3669 235.742 68.3631 235.863 68.4332Z" fill="#1C6DF6"/>
<path d="M191.228 93.971C190.796 94.221 190.364 94.4691 189.932 94.7192L127.77 58.8282C128.201 58.5782 128.633 58.3301 129.065 58.0801L191.228 93.971Z" fill="#1C6DF6"/>
<path d="M189.933 94.7191C186.747 100.238 186.757 112.427 189.944 114.266L127.77 78.3788C124.584 76.5397 124.584 64.3475 127.77 58.8281L189.933 94.7191Z" fill="#3E85F4"/>
<path d="M140.642 68.2229C139.733 70.1833 139.229 78.4339 139.229 80.1954C139.229 81.8243 139.659 83.0971 140.428 83.7752L128.596 76.9452C127.603 76.375 126.48 70.3879 127.033 66.8668C127.306 65.1356 127.537 63.0881 128.446 61.1201L140.642 68.2229Z" fill="#88BEFF"/>
<path d="M183.764 93.4292C182.573 95.9105 181.929 104.716 181.929 107.055C181.929 107.426 181.946 107.783 181.978 108.122L144.508 86.2071C144.434 86.1654 144.358 86.1162 144.294 86.0669C144.228 86.0177 144.163 85.959 144.095 85.8927C143.371 85.1938 142.945 83.9494 142.945 82.3545C142.945 80.6025 143.449 72.35 144.358 70.3896L183.764 93.4292Z" fill="#88BEFF"/>
<path d="M191.226 93.9709C188.04 99.4903 188.04 111.682 191.226 113.522C190.794 113.772 190.374 114.018 189.942 114.266C186.756 112.427 186.745 100.238 189.931 94.7191C190.362 94.4691 190.794 94.221 191.226 93.9709Z" fill="#1C6DF6"/>
<path d="M218.918 64.321C218.823 64.2661 218.694 64.2699 218.551 64.3532L183.649 84.5025L135.693 56.811L170.591 31.8584C170.735 31.775 170.864 31.7713 170.959 31.8262L218.918 64.321Z" fill="#FCD561"/>
<path d="M218.918 64.321C219.008 64.3721 219.06 64.4895 219.06 64.6468C219.06 64.9725 218.83 65.3684 218.55 65.5313L183.648 85.6843V84.5005L218.55 64.3513C218.694 64.2698 218.823 64.266 218.918 64.321Z" fill="#FEB30F"/>
<path d="M218.167 51.8445L183.811 71.6812L135.85 43.9898L170.206 24.1531L218.167 51.8445Z" fill="#FCEAB2"/>
<path d="M182.643 71.202V83.9302L134.682 56.2407L135.85 43.9897L182.643 71.202Z" fill="#FCD561"/>
<path d="M216.997 51.3652C216.997 51.3652 216.097 52.8066 216.088 55.4186C216.078 58.3298 216.997 64.0954 216.997 64.0954L182.641 83.9302V71.2019L216.997 51.3652Z" fill="#FEFEFE"/>
<path d="M219.08 50.3237C218.985 50.2688 218.857 50.2726 218.713 50.3559L183.815 70.5052L135.854 42.8137L170.751 22.6645C170.895 22.5811 171.024 22.5792 171.119 22.6323L219.08 50.3237Z" fill="#FCD561"/>
<path d="M219.08 50.3237C219.171 50.3767 219.222 50.4922 219.222 50.6494C219.222 50.9752 218.993 51.3711 218.712 51.534L183.814 71.6813V70.5032L218.712 50.354C218.856 50.2725 218.985 50.2687 219.08 50.3237Z" fill="#FEB30F"/>
<path d="M184.637 70.0259C184.304 70.2191 183.97 70.4104 183.637 70.6036L135.678 42.9122C136.011 42.719 136.344 42.5277 136.678 42.3345L184.637 70.0259Z" fill="#FEB30F"/>
<path d="M183.639 70.6036C181.181 74.8615 181.188 84.2656 183.647 85.6842L135.68 57.9966C133.221 56.5779 133.221 47.1719 135.68 42.9121L183.639 70.6036Z" fill="#FBC22C"/>
<path d="M145.608 50.1607C144.905 51.6722 144.517 58.0382 144.517 59.3982C144.517 60.6539 144.849 61.637 145.441 62.1597L136.314 56.8904C135.549 56.451 135.109 50.5623 135.109 49.1152C135.109 47.7628 135.498 46.2002 136.2 44.6812L145.608 50.1607Z" fill="#FCEAB2"/>
<path d="M178.881 69.6072C177.962 71.5203 177.464 78.3143 177.464 80.1194C177.464 80.4073 177.478 80.68 177.502 80.9414L148.593 64.033C148.536 64.0008 148.478 63.9629 148.427 63.925C148.375 63.8871 148.326 63.8417 148.273 63.7905C147.714 63.2507 147.387 62.2904 147.387 61.0611C147.387 59.7088 147.775 53.3428 148.478 51.8313L178.881 69.6072Z" fill="#FCEAB2"/>
<path d="M184.639 70.0259C182.181 74.2838 182.181 83.6898 184.639 85.1103C184.306 85.3016 183.982 85.4929 183.648 85.6842C181.19 84.2656 181.182 74.8615 183.641 70.6036C183.972 70.4104 184.306 70.2191 184.639 70.0259Z" fill="#FEB30F"/>
<path d="M144.118 114.743C144.326 127.422 137.246 140.542 134.695 144.849C133.644 147.414 131.381 149.838 127.928 151.837C117.916 157.612 101.644 157.587 91.5752 151.769C88.7114 150.117 86.6677 148.177 85.4309 146.109C85.4195 146.086 85.3741 146.016 85.304 145.912C85.2699 145.842 85.2226 145.785 85.1885 145.715C83.48 142.978 73.8374 126.799 75.2333 112.052C76.7808 95.8837 91.9786 79.5208 91.9786 79.5208C91.9786 79.5208 127.153 82.2577 127.305 79.7859C128.367 80.9413 142.466 96.6357 143.98 112.178C143.98 112.224 143.991 112.26 143.991 112.283C144.073 113.103 144.118 113.923 144.118 114.743Z" fill="#FC5552"/>
<path d="M110.77 89.4989C110.494 89.4989 110.204 89.5103 109.927 89.5103C105.355 89.5216 100.83 88.3985 97.2598 86.5082C91.0719 83.2295 91.9868 79.4773 91.9868 79.4773C91.9868 79.4773 88.926 70.8441 87.3672 68.6508L109.304 57.7769L110.77 89.4989Z" fill="#E84343"/>
<path d="M127.317 79.6251L127.249 79.7179C127.156 82.2579 125.448 84.6842 122.203 86.5537C119.027 88.3909 114.941 89.4289 110.771 89.499C110.494 89.5027 110.204 89.5103 109.928 89.5103V57.9739L132.404 67.6905L127.317 79.6251Z" fill="#E84343"/>
<path d="M130.795 70.9728C129.695 72.4881 128.072 73.9105 125.937 75.1436C124.017 76.2535 121.833 77.121 119.499 77.7498C116.495 78.57 113.234 78.9829 109.974 78.9905H109.859C106.449 78.9905 103.031 78.551 99.8864 77.6741C97.5946 77.0452 95.4429 76.1759 93.547 75.083C91.3291 73.8007 89.6566 72.3271 88.541 70.755C85.0976 65.963 86.7284 60.2523 93.4485 56.3789C99.5739 52.8408 108.338 51.746 116.134 53.0889C117.798 53.3749 119.507 60.3717 119.507 60.3717C119.507 60.3717 124.342 55.5777 125.831 56.4376C132.659 60.3792 134.322 66.1637 130.795 70.9728Z" fill="#FC9F9C"/>
<path d="M123.539 73.7589C122.812 74.1756 122.037 74.5563 121.23 74.8916C114.394 77.7781 104.994 77.7441 98.1453 74.8215C97.3706 74.4862 96.6319 74.1169 95.9273 73.7135C88.283 69.2908 88.2356 62.1539 95.8459 57.7653C100.589 55.0265 107.186 54.0055 113.334 54.7007C115.184 54.9109 117.387 62.8774 117.387 62.8774C117.387 62.8774 122.008 56.9925 123.446 57.824C131.104 62.2334 131.138 69.3703 123.539 73.7589Z" fill="#FC5552"/>
<path d="M121.231 74.8917C114.396 77.7783 104.995 77.7442 98.1465 74.8216C98.7242 74.1985 99.4629 73.6094 100.376 73.0886C105.492 70.1319 113.807 70.1546 118.945 73.1226C119.881 73.6549 120.642 74.2553 121.231 74.8917Z" fill="#B72727"/>
<path d="M144.119 114.743C144.119 113.923 144.074 113.103 143.992 112.283C144.119 113.103 144.166 113.934 144.119 114.743Z" fill="#FC9F9C"/>
<path d="M105.744 78.7082L112.385 89.6787L114.55 96.6072C114.55 96.6072 113.25 101.083 113.106 103.97C112.962 106.856 120.756 110.61 121.046 112.053C121.334 113.497 125.522 122.446 125.522 122.446L121.768 110.176L114.55 104.401L115.705 96.1735L113.828 89.101L107.621 78.9961L108.633 77.263L106.756 76.9751L105.744 78.7082Z" fill="#B72727"/>
<path d="M91.8874 101.515L81.6387 116.239C81.6387 116.239 81.9266 123.168 82.0724 124.034C82.2164 124.899 81.4947 129.231 81.9285 129.663C82.3622 130.097 85.3927 134.714 85.3927 134.714L83.0838 129.373L83.3736 124.176L82.7959 116.957L91.8874 101.515Z" fill="#B72727"/>
<path d="M73.7562 142.677C73.7562 142.677 107.15 142.355 110.353 151.087C113.556 159.819 118.569 179.343 118.569 179.343C118.569 179.343 111.166 159.527 92.8842 170.16C82.1829 176.384 71.7069 184.207 70.1272 183.777C68.5514 183.347 48.929 149.214 73.7562 142.677Z" fill="#3E85F4"/>
<path d="M118.57 179.366L115.274 185.146L107.467 164.304C107.467 164.304 110.454 162.076 110.841 157.025C110.869 156.438 111.087 155.636 110.778 155.553C110.471 155.47 106.246 153.259 101.406 158.156C96.584 162.991 97.781 164.177 97.781 164.177L104.725 173.873L102.029 182.065L91.3186 179.144L90.2996 167.361C90.2996 167.361 83.0188 163.26 78.2856 167.524C73.5524 171.787 72.5012 178.312 72.5012 178.312C72.5012 178.312 80.2895 178.848 82.3256 177.685C84.3636 176.522 86.002 183.118 86.002 183.118L90.8772 194.829C90.8772 194.829 83.6931 202.261 76.6605 198.227C76.3688 198.081 76.1396 197.952 75.9275 197.763C69.2907 193.969 63.9969 191.798 63.9969 191.798L36.6562 187.321C36.6562 187.321 44.9465 160.552 42.2475 151.286C39.611 142.037 38.0578 119.594 65.3587 111.628C88.4207 104.888 101.164 121.456 105.77 131.241C106.6 133.053 107.153 134.66 107.439 135.796C109.28 143.109 118.57 179.366 118.57 179.366Z" fill="#88BEFF"/>
<path opacity="0.4" d="M107.467 164.306C107.467 164.306 110.453 162.078 110.84 157.027C110.868 156.439 111.086 155.638 110.777 155.555C110.47 155.472 106.245 153.261 101.406 158.157C96.5833 162.993 97.7803 164.179 97.7803 164.179L104.724 173.874L102.029 182.066L91.3178 179.146L90.2988 167.363C90.2988 167.363 83.0181 163.262 78.2849 167.526C73.5516 171.789 72.5004 178.314 72.5004 178.314C72.5004 178.314 80.2888 178.85 82.3249 177.687C84.3629 176.524 86.0012 183.12 86.0012 183.12L90.8765 194.831C90.8765 194.831 83.6924 202.263 76.6598 198.229C76.3681 198.083 65.7614 192.666 65.5474 192.476C70.9208 184.023 66.4906 175.619 65.3807 171.679C62.7461 162.43 61.0698 139.552 88.4919 132.021C106.002 127.212 109.491 143.876 109.777 145.011C111.618 152.324 118.568 179.365 118.568 179.365L115.272 185.146L107.467 164.306Z" fill="#3E85F4"/>
<path d="M115.328 184.699L108.395 164.497C110.146 162.866 111.096 160.76 111.572 158.544C111.693 157.976 111.74 157.239 111.809 156.803C111.839 156.517 111.92 156.277 111.894 155.729C111.863 155.568 111.875 155.36 111.615 155.006C111.485 154.822 111.204 154.663 111.03 154.612L110.585 154.437C109.354 153.989 108.005 153.862 106.715 154.053C104.109 154.43 101.886 155.979 100.238 157.691C99.4025 158.519 98.5937 159.392 97.8475 160.383C97.4838 160.894 97.1183 161.402 96.8171 162.04C96.6675 162.358 96.5273 162.703 96.4345 163.129C96.4383 163.616 96.0708 163.931 96.7262 164.951L103.172 174.087L101.107 180.333L92.7316 178.002L91.7638 166.38L91.0478 166.005C88.9151 164.889 86.7881 164.198 84.3713 164.016C81.9962 163.847 79.3218 164.525 77.3974 166.241C73.9067 169.433 71.9444 173.568 71.0182 178.049L70.6754 179.708L72.3857 179.776C75.3499 179.896 78.1588 180.04 81.3219 179.507C81.7026 179.436 82.4072 179.223 82.7633 179.078C82.8996 179.233 83.125 179.496 83.2614 179.803C83.8334 180.856 84.288 182.216 84.6933 183.686L89.3602 194.495C86.1915 197.363 81.6401 199.445 77.8008 197.577L71.1849 194.162C68.9253 193.058 66.66 192.01 64.122 190.993L36.6602 187.292C36.6602 187.292 63.8833 192.597 63.692 192.544C65.9289 193.545 68.1582 194.662 70.3421 195.816L76.9031 199.465C79.3843 200.776 82.4488 200.755 84.9944 199.884C87.5969 199.015 89.794 197.583 91.8111 195.719L92.4134 195.164L92.0725 194.332C92.0725 194.332 87.2616 182.608 87.3317 182.818C86.9415 181.316 86.5173 179.932 85.7539 178.454C85.2956 177.757 85.0266 176.873 83.5 176.217C82.6837 175.858 81.3484 176.575 81.5037 176.488C81.3408 176.555 81.0548 176.638 80.7574 176.685C78.8085 177.002 76.5735 176.994 74.3821 176.901C75.3291 173.751 77.0546 170.672 79.4354 168.601C81.748 166.489 85.6536 167.008 88.8072 168.412L89.9322 180.347L102.997 183.832L106.251 173.609L98.9271 163.616C98.9479 163.484 99.0123 163.29 99.0975 163.093C99.268 162.688 99.554 162.249 99.8381 161.822C100.439 160.964 101.156 160.129 101.918 159.324C103.359 157.72 105.096 156.5 107.039 156.144C107.992 155.968 108.984 156.03 109.905 156.324C109.897 156.404 109.89 156.485 109.88 156.563C109.805 157.26 109.805 157.667 109.712 158.224C109.375 160.264 108.416 162.351 106.956 163.616L106.452 164.052L115.252 185.627L118.566 179.343L115.328 184.699ZM98.91 163.679C98.9176 163.73 98.9441 163.754 98.91 163.679V163.679Z" fill="#FBC22C"/>
<path d="M128.727 160.042C128.727 163.139 130.772 166.238 134.865 168.6C143.049 173.325 156.317 173.325 164.501 168.6C168.593 166.238 170.64 163.143 170.64 160.046V163.802C170.64 166.897 168.593 169.994 164.501 172.356C156.317 177.081 143.049 177.081 134.865 172.356C130.772 169.992 128.727 166.895 128.727 163.798V160.042Z" fill="#202A5F"/>
<path d="M128.727 160.042C128.727 156.947 130.774 153.851 134.865 151.489C143.049 146.763 156.317 146.763 164.501 151.489C168.594 153.852 170.64 156.949 170.64 160.046C170.64 163.141 168.593 166.238 164.501 168.6C156.317 173.325 143.049 173.325 134.865 168.6C130.772 166.236 128.727 163.139 128.727 160.042Z" fill="#0B45B2"/>
<path d="M145.147 128.877C145.147 128.877 147.874 129.837 148.28 131.555C148.685 133.273 148.744 146.104 148.865 146.761C148.986 147.418 138.215 155.752 138.215 155.752L152.337 159.692L161.936 155.692L150.924 146.827V130.999L153.617 128.877H145.147Z" fill="#FEB30F"/>
<path opacity="0.5" d="M149.649 130.275C149.373 130.275 148.992 130.267 148.5 130.216C147.557 130.118 146.844 129.94 146.765 129.921C146.134 129.752 144.636 129.354 143.049 128.388C142.202 127.873 139.626 126.301 137.668 122.776C135.827 119.462 135.793 116.295 135.779 115.255V109.177C136.365 109.679 137.033 110.15 137.764 110.588C140.982 112.51 145.259 113.571 149.81 113.571C154.136 113.571 158.254 112.597 161.398 110.832C162.256 110.351 163.014 109.825 163.681 109.258V115.355C163.654 116.136 163.605 116.81 163.552 117.253C163.489 117.793 163.376 118.433 163.27 118.848C162.951 120.089 162.637 121.17 161.758 122.801C160.62 124.911 158.769 126.902 156.809 128.125C155.447 128.976 154.443 129.383 153.843 129.574C153.218 129.773 151.758 130.241 150.167 130.269C149.996 130.271 149.827 130.275 149.649 130.275Z" fill="#121E51"/>
<path opacity="0.5" d="M154.336 131.112C153.948 131.241 153.277 131.451 152.444 131.622C154.65 132.51 157.471 134.152 157.891 134.419C158.675 134.929 159.516 135.681 159.831 135.97C160.259 136.351 160.776 136.923 161.157 137.353C161.592 137.846 162.45 138.914 163.306 140.554C164.179 142.227 164.6 143.901 164.6 143.901C164.882 145.073 164.939 145.316 165.053 146.14C165.191 147.216 165.181 148.007 165.181 148.435V159.031C165.174 161.383 163.581 163.719 160.454 165.48C160.098 165.683 159.734 165.868 159.355 166.037C153.173 168.914 144.087 168.632 138.437 165.253C135.486 163.491 134.041 161.211 134.049 158.949V148.344C134.066 147.731 134.113 146.905 134.187 146.299C134.227 145.992 134.348 145.054 134.615 144.06C134.769 143.494 135.229 141.781 136.32 139.882C137.371 138.071 139.293 135.533 142.511 133.722C143.036 133.44 145.373 132.339 147.078 131.637C146.642 131.555 146.368 131.483 146.368 131.483C145.656 131.298 144 130.86 142.214 129.769C141.277 129.195 138.424 127.458 136.257 123.562C134.221 119.884 134.193 116.418 134.176 115.27V102.904C134.176 105.175 135.659 107.446 138.6 109.199C143.57 112.173 151.209 112.747 157.19 110.864C158.41 110.484 159.567 109.999 160.609 109.417C163.746 107.663 165.301 105.32 165.308 102.976V115.357C165.293 115.98 165.233 116.819 165.159 117.443C165.094 117.984 164.973 118.712 164.835 119.246C164.503 120.554 164.147 121.784 163.187 123.57C161.918 125.915 159.857 128.129 157.666 129.495C156.162 130.432 155.022 130.894 154.336 131.112Z" fill="#88BEFF"/>
<path opacity="0.5" d="M149.652 166.389C145.735 166.389 141.948 165.469 139.265 163.865C136.927 162.467 135.656 160.722 135.662 158.949V148.348C135.679 147.86 135.721 147.049 135.791 146.505C135.888 145.757 136.016 145.075 136.175 144.479C136.312 143.965 136.73 142.407 137.721 140.691C138.668 139.052 140.403 136.758 143.303 135.126C144.157 134.677 147.371 133.209 148.623 132.775C149.282 133.116 150.1 133.468 150.481 133.468H151.159L151.601 133.019C153.375 133.711 156.146 135.213 157.006 135.772C157.688 136.213 158.459 136.904 158.751 137.164C159.179 137.546 159.758 138.204 159.948 138.419C160.332 138.853 161.09 139.802 161.87 141.297C162.652 142.795 163.033 144.285 163.033 144.285C163.308 145.429 163.351 145.606 163.448 146.346C163.575 147.314 163.563 148.011 163.567 148.426V159.027C163.561 160.844 162.128 162.681 159.66 164.065C156.987 165.564 153.434 166.389 149.652 166.389Z" fill="#88BEFF"/>
<path d="M161.271 122.793C161.271 124.496 160.146 126.201 157.894 127.5C153.392 130.099 149.185 132.934 141.588 127.5C139.474 125.987 138.211 124.496 138.211 122.793C138.211 121.09 139.336 119.386 141.588 118.086C146.09 115.488 153.39 115.488 157.894 118.086C160.146 119.386 161.271 121.089 161.271 122.793Z" fill="#FCD561"/>
<path d="M160.324 122.793C160.324 126.208 155.53 128.976 149.615 128.976C143.7 128.976 138.906 126.206 138.906 122.793C138.906 119.378 143.7 116.611 149.615 116.611C155.53 116.611 160.324 119.378 160.324 122.793Z" fill="#FEB30F"/>
<path d="M164.066 158.177C164.066 160.302 162.66 162.425 159.853 164.046C154.236 167.289 145.129 167.289 139.511 164.046C136.702 162.425 135.299 160.298 135.299 158.173C135.299 156.048 136.704 153.924 139.511 152.303C145.129 149.06 154.236 149.06 159.853 152.303C162.662 153.924 164.066 156.051 164.066 158.177Z" fill="#FCD561"/>
<path d="M138.211 155.752C138.211 155.752 136.035 160.029 139.266 161.51C142.499 162.991 143.308 162.113 144.924 158.175C146.539 154.237 149.38 149.82 148.282 149.909C147.183 149.998 144.115 154.235 142.23 154.64C140.346 155.044 138.211 155.752 138.211 155.752Z" fill="#FCEAB2"/>
<path d="M144.536 138.223C144.536 138.223 140.039 139.406 139.502 143.295C139.261 145.03 138.592 147.062 140.142 147.466C141.691 147.869 141.218 147.466 141.557 144.873C142.094 140.747 144.536 138.223 144.536 138.223Z" fill="#FEFEFE"/>
<path opacity="0.5" d="M154.338 131.112C153.95 131.241 153.28 131.451 152.446 131.622C154.653 132.51 157.473 134.152 157.894 134.419C158.678 134.929 159.519 135.681 159.833 135.97C160.261 136.351 160.778 136.923 161.159 137.353C161.595 137.846 162.453 138.914 163.309 140.554C164.182 142.227 164.602 143.901 164.602 143.901C164.885 145.073 164.941 145.316 165.055 146.14C165.193 147.216 165.184 148.007 165.184 148.435V159.031C165.176 161.383 163.583 163.719 160.456 165.48C160.1 165.683 159.737 165.869 159.358 166.037C159.464 161.787 159.487 154.229 158.735 147.6C157.611 137.732 151.164 133.468 151.164 133.468C151.164 133.468 150.92 130.999 152.876 130.601C154.833 130.203 158.331 124.53 158.469 119.31C158.551 116.304 157.824 113.071 157.193 110.864C158.413 110.484 159.57 109.999 160.612 109.417C163.748 107.663 165.303 105.32 165.311 102.976V115.357C165.296 115.98 165.235 116.819 165.161 117.443C165.097 117.984 164.975 118.712 164.837 119.246C164.506 120.555 164.15 121.784 163.189 123.57C161.92 125.915 159.86 128.129 157.668 129.495C156.164 130.432 155.024 130.894 154.338 131.112Z" fill="#88BEFF"/>
<path d="M129.402 101.011C129.402 104.108 131.448 107.207 135.541 109.569C143.725 114.294 156.995 114.294 165.177 109.569C169.268 107.207 171.316 104.112 171.316 101.015V104.771C171.316 107.866 169.268 110.963 165.177 113.325C156.993 118.05 143.725 118.05 135.541 113.325C131.448 110.961 129.402 107.864 129.402 104.767V101.011Z" fill="#202A5F"/>
<path d="M129.402 101.011C129.402 97.9164 131.45 94.8195 135.541 92.4576C143.725 87.7319 156.995 87.7319 165.177 92.4576C169.27 94.8214 171.316 97.9183 171.316 101.015C171.316 104.11 169.268 107.207 165.177 109.569C156.993 114.294 143.725 114.294 135.541 109.569C131.448 107.205 129.402 104.108 129.402 101.011Z" fill="#0B45B2"/>
<path opacity="0.7" d="M44.5137 102.504C43.9625 106.745 40.0816 109.732 35.8408 109.18C34.1267 108.957 32.619 108.192 31.4655 107.08C29.384 110.715 25.2531 112.919 20.8437 112.347C16.2109 111.745 12.6652 108.252 11.7845 103.911C10.1007 105.055 7.94333 105.512 5.75191 104.964C2.49983 104.154 0.134159 101.163 0.105748 97.8103C0.0830192 95.0904 1.45052 92.7739 3.48474 91.4405C2.07746 90.0067 1.31226 87.963 1.59258 85.8113C2.07556 82.1008 5.47917 79.4813 9.18962 79.9643C9.3222 79.9813 9.45289 80.0078 9.58168 80.04C16.1957 81.7637 23.2132 80.7901 28.4748 76.428C35.1343 70.9087 41.6328 65.5143 40.9566 66.0447C41.7635 66.7436 47.243 67.3232 51.4459 67.8081C53.0918 65.8969 35.4923 94.8366 38.18 95.187C42.4207 95.7401 44.5459 102.258 44.5137 102.504Z" fill="#D9E6F9"/>
<path d="M49.6247 75.801C43.9425 78.3902 38.7225 77.7367 38.7225 77.7367C38.7225 77.7367 36.6353 72.9087 37.5293 66.7283C38.4251 60.5479 48.9144 57.3242 48.9144 57.3242C49.2913 57.6083 52.0339 59.9911 52.0339 59.9911C52.0339 59.9911 55.089 61.9552 55.4659 62.2394C55.4659 62.2394 55.3068 73.2118 49.6247 75.801Z" fill="#FBC22C"/>
<path d="M50.0148 74.2194C45.3402 76.5036 40.1013 75.8369 40.1013 75.8369C40.1013 75.8369 38.0273 71.06 38.9137 65.9328C39.8001 60.8055 48.92 58.7163 48.92 58.7163C49.2041 58.9284 51.2989 60.9911 51.2989 60.9911C51.2989 60.9911 53.8654 62.4268 54.1476 62.6389C54.1476 62.6389 54.6893 71.9351 50.0148 74.2194Z" fill="#FBCC4D"/>
<path d="M50.4118 72.6377C46.7468 74.619 41.489 73.9371 41.489 73.9371C41.489 73.9371 39.4282 69.2095 40.3052 65.1372C41.1821 61.0649 48.9326 60.1084 48.9326 60.1084C49.122 60.2505 50.5728 61.9911 50.5728 61.9911C50.5728 61.9911 52.6506 62.8965 52.84 63.0385C52.84 63.0385 54.0768 70.6565 50.4118 72.6377Z" fill="#FCD66F"/>
<path d="M50.8033 71.0563C48.1478 72.7344 42.871 72.0393 42.871 72.0393C42.871 72.0393 40.8254 67.3647 41.6929 64.3436C42.5604 61.3226 48.9414 61.5025 48.9414 61.5025C49.0361 61.5726 49.8411 62.9932 49.8411 62.9932C49.8411 62.9932 51.4302 63.3701 51.5249 63.4402C51.5249 63.4402 53.4606 69.38 50.8033 71.0563Z" fill="#FCE091"/>
<path d="M51.1984 69.4768C49.5525 70.8519 44.2567 70.1416 44.2567 70.1416C44.2567 70.1416 42.2244 65.5162 43.0824 63.5521C43.9423 61.586 48.9502 62.8967 48.9502 62.8967L49.1112 63.9953L50.2116 63.8419C50.2116 63.8419 52.8462 68.1017 51.1984 69.4768Z" fill="#FCEAB2"/>
<path d="M50.6025 48.9316C50.6025 48.9316 48.7804 46.1814 47.0246 45.8935C43.3899 45.2969 41.6588 45.9504 41.6588 45.9504L36.291 52.3959C36.291 52.3959 43.2195 51.2045 43.9581 51.4034C44.6968 51.6023 46.087 54.2426 46.087 54.2426L50.6025 48.9316Z" fill="#3E85F4"/>
<path d="M47.2797 48.3918C47.2797 48.3918 43.0484 45.7514 41.4309 46.4882C39.8134 47.2269 30.0723 56.4245 30.0723 56.4245L30.9795 57.8167C30.9795 57.8167 39.98 52.6781 40.7187 52.8769C41.4574 53.0758 42.8476 55.7162 42.8476 55.7162L47.2797 48.3918Z" fill="#0B45B2"/>
<path d="M63.6343 58.7087C63.6343 58.7087 66.7842 59.688 67.5531 61.2923C69.1422 64.6145 69.0002 66.4593 69.0002 66.4593L64.3143 73.4144C64.3143 73.4144 63.5207 66.429 63.1229 65.7756C62.7252 65.1221 59.8008 64.5255 59.8008 64.5255L63.6343 58.7087Z" fill="#3E85F4"/>
<path d="M65.081 61.7468C65.081 61.7468 68.8009 65.069 68.5452 66.8286C68.2895 68.5882 62.1831 80.5134 62.1831 80.5134L60.5921 80.0304C60.5921 80.0304 63.007 69.9501 62.6093 69.2985C62.2115 68.6451 59.2871 68.0484 59.2871 68.0484L65.081 61.7468Z" fill="#0B45B2"/>
<path d="M42.0947 59.2431C41.625 58.0517 41.4261 57.1956 41.3446 56.688C41.2802 56.2997 41.2026 55.777 41.1836 55.3849C41.159 54.8886 41.142 54.2257 41.195 53.7314C41.3011 52.7351 41.3882 52.038 41.9147 50.6497C42.0795 50.2122 42.4754 49.3181 43.269 48.2461C42.0682 49.839 41.8958 52.2104 43.0398 55.0042C45.3638 60.6826 52.2392 65.9501 58.3987 66.7702C61.5295 67.1869 63.8706 66.3743 65.1131 64.7284C64.793 65.1186 64.3536 65.6262 63.9975 65.9823C63.7361 66.2436 63.3573 66.5619 63.058 66.7778C62.6546 67.0676 62.0996 67.4312 61.6602 67.6642C60.7984 68.1188 60.0995 68.3385 60.0995 68.3385C59.6696 68.4711 59.0957 68.651 58.6525 68.7268C57.9479 68.848 57.4819 68.9295 56.5368 68.9522C56.0311 68.9654 55.3549 68.9332 54.853 68.8726C53.9628 68.7666 53.4817 68.651 52.9249 68.5184C52.1294 68.329 50.83 67.8782 49.7182 67.2987C48.1159 66.4615 47.0287 65.6091 46.5211 65.1773C46.0173 64.7454 44.9717 63.8495 43.8561 62.3532C42.8049 60.9459 42.2424 59.6182 42.0947 59.2431Z" fill="#121E51"/>
<path d="M42.7505 49.0319C46.9894 41.1222 51.2302 33.2163 55.4691 25.3066C54.3781 27.3428 54.3629 30.1214 55.6736 33.3281C58.7022 40.732 67.6667 47.6 75.6956 48.6682C79.3038 49.1493 82.1089 48.3765 83.8287 46.7079L64.5037 65.4479C63.1835 66.7283 61.0319 67.3192 58.2647 66.9518C52.1052 66.1317 45.2298 60.8642 42.9058 55.1858C41.902 52.7254 41.9133 50.5926 42.7505 49.0319Z" fill="#FBC429"/>
<path d="M55.4685 25.3069C56.3871 23.6287 56.7508 23.0113 57.2603 22.2404C57.8228 21.3861 58.5937 20.2573 59.1884 19.4239C59.5066 18.9769 59.9593 18.4011 60.3021 17.9711C62.0863 15.7266 64.1054 13.6128 66.3025 11.6847C70.6664 7.85673 75.606 4.91333 80.9738 2.9397C78.3259 3.90757 77.3258 6.62937 78.7577 10.1258C80.7313 14.9501 86.5726 19.4239 91.804 20.1209C95.6792 20.6361 98.1339 18.9257 98.3422 16.0467C98.257 16.9881 98.1225 18.2496 98.0013 19.1871C97.9331 19.7156 97.8005 20.4145 97.7134 20.9391C97.7134 20.9391 97.4236 22.5548 96.9728 24.2614C96.8365 24.7803 96.6508 25.4717 96.4879 25.9812C96.1849 26.9263 95.7587 28.1783 95.4197 29.1121C95.2814 29.4928 94.6678 31.046 94.0105 32.4362C91.4308 37.8874 88.0992 42.5544 83.8281 46.7081C82.1083 48.3768 79.3032 49.1496 75.6951 48.6685C67.6662 47.6002 58.7016 40.7323 55.6731 33.3283C54.3624 30.1235 54.3605 27.3336 55.4685 25.3069Z" fill="#FCD561"/>
<path d="M80.9746 2.93763C82.5732 2.35993 83.8346 1.99437 84.4388 1.82959C81.9728 2.50388 80.9898 4.84497 82.2398 7.89633C83.8744 11.8891 88.708 15.5901 93.0378 16.1678C96.4168 16.6167 98.4889 15.0275 98.4586 12.4118C98.468 13.588 98.4302 14.8154 98.343 16.0466C98.1404 18.9331 95.6857 20.6359 91.8048 20.1207C86.5734 19.4237 80.7322 14.9499 78.7586 10.1257C77.3248 6.62162 78.3154 3.89793 80.9746 2.93763Z" fill="#0B45B2"/>
<path d="M93.0369 16.1659C88.7033 15.592 83.8697 11.8834 82.2389 7.89449C80.9888 4.82987 81.9737 2.48121 84.4606 1.82396C85.6482 1.50955 88.8245 0.66668 92.6638 0.511365C92.6088 0.515154 92.5425 0.517047 92.4857 0.5322C92.8077 0.494318 96.1583 0.520835 96.4405 0.5C97.4633 4.18209 97.4557 3.97374 97.5106 4.434C97.4273 3.77865 98.3857 7.70698 98.4614 12.3854C98.5031 15.0238 96.4159 16.6167 93.0369 16.1659Z" fill="#FCD561"/>
<path d="M58.6145 40.0636C60.4177 37.66 64.2626 37.4819 67.1813 39.6961C70.1379 41.9387 71.0073 45.6341 69.2193 48.0187C67.4351 50.3958 63.647 50.5928 60.7397 48.4411C57.7186 46.2061 56.8171 42.4596 58.6145 40.0636ZM68.4674 38.1411C64.3857 35.0499 59.1184 35.2905 56.6466 38.5862C55.37 40.289 55.0916 42.4899 55.6844 44.6283C56.2299 46.6114 57.5179 48.5585 59.4555 49.998C63.5201 53.0172 68.7439 52.7729 71.1967 49.5018C72.3294 47.9903 72.6779 46.1019 72.3275 44.204C71.9354 41.988 70.602 39.7567 68.4674 38.1411Z" fill="#202A5F"/>
<path d="M58.1712 40.6546C59.9743 38.251 63.8192 38.073 66.738 40.2891C69.6946 42.5317 70.564 46.227 68.776 48.6117C66.9918 50.9887 63.2037 51.1857 60.2963 49.0321C57.2753 46.7971 56.3737 43.0506 58.1712 40.6546ZM68.024 38.7321C63.9424 35.641 58.675 35.8815 56.2033 39.1772C54.9267 40.88 54.6482 43.0809 55.2411 45.2194C55.7866 47.2025 57.0745 49.1496 59.0121 50.5891C63.0768 53.6101 68.3006 53.3639 70.7534 50.0928C71.886 48.5814 72.2345 46.693 71.8841 44.7951C71.492 42.579 70.1586 40.3497 68.024 38.7321Z" fill="white"/>
<path d="M69.6496 46.4827C69.9545 44.3708 68.9279 41.9502 66.8142 40.344C63.8216 38.0711 59.9729 38.2529 58.1716 40.6546C57.1772 41.9805 57.0143 43.7079 57.5617 45.3633C58.0011 46.7024 58.9027 47.9998 60.221 48.9753C63.2041 51.1838 66.9922 50.9887 68.7764 48.6097C69.2537 47.9752 69.5397 47.2479 69.6496 46.4827Z" fill="#3E85F4"/>
<path d="M69.6503 46.4826C69.2147 45.1738 68.3415 43.9085 67.0706 42.9444C64.0761 40.6734 60.2312 40.8496 58.4281 43.2551C57.9565 43.8839 57.6724 44.6017 57.5625 45.3632C58.0019 46.7023 58.9035 47.9997 60.2217 48.9752C63.2049 51.1837 66.993 50.9886 68.7772 48.6096C69.2545 47.9751 69.5405 47.2478 69.6503 46.4826Z" fill="#88BEFF"/>
<path d="M62.7132 40.6754C62.3382 40.3932 61.84 40.4292 61.6071 40.7417C61.3684 41.0599 61.4764 41.541 61.8533 41.8232C62.2283 42.1054 62.7208 42.0751 62.9594 41.7569C63.1924 41.4444 63.0882 40.9576 62.7132 40.6754Z" fill="#F1F0EF"/>
<path d="M27.386 64.6658L26.0431 62.6675C25.7836 62.2792 25.9484 61.658 26.5298 61.103L27.8727 63.1013C27.2913 63.6562 27.1265 64.2775 27.386 64.6658Z" fill="#3E85F4"/>
<path d="M39.3038 53.4547L37.9609 51.4565L46.4255 48.407L47.7683 50.4052L39.3038 53.4547Z" fill="#3E85F4"/>
<path d="M27.8741 63.0993L26.5312 61.1011L34.1245 53.8486L35.4674 55.8469L27.8741 63.0993Z" fill="#3E85F4"/>
<path d="M35.4679 55.847L34.125 53.8488C35.2084 52.8146 36.5607 51.9698 37.9623 51.4565L39.3052 53.4548C37.9036 53.9681 36.5494 54.8129 35.4679 55.847Z" fill="#3E85F4"/>
<path d="M47.768 50.4053L41.8188 59.9022H36.0552L29.7063 64.5048C29.1419 64.912 28.4657 65.1071 27.96 65.0086C27.0622 64.823 27.0414 63.893 27.8748 63.0975L35.468 55.8451C37.8962 53.0021 47.768 50.4053 47.768 50.4053Z" fill="#0B45B2"/>
<path d="M54.9727 85.3587L57.2663 86.088C57.7115 86.23 58.2626 85.8967 58.632 85.1826L56.3383 84.4534C55.9689 85.1674 55.4178 85.5008 54.9727 85.3587Z" fill="#3E85F4"/>
<path d="M62.4004 70.7799L64.6941 71.5111L65.2547 62.5331L62.961 61.802L62.4004 70.7799Z" fill="#3E85F4"/>
<path d="M56.3379 84.4534L58.6316 85.1826L63.4709 75.8637L61.1772 75.1345L56.3379 84.4534Z" fill="#3E85F4"/>
<path d="M61.1758 75.1343L63.4695 75.8636C64.1589 74.5339 64.5908 72.9997 64.693 71.511L62.3993 70.7817C62.2971 72.2686 61.8652 73.8047 61.1758 75.1343Z" fill="#3E85F4"/>
<path d="M62.9597 61.802L55.5275 70.1644L57.0976 75.7083L54.4763 83.0858C54.2433 83.7411 54.2452 84.4438 54.4801 84.9041C54.9081 85.7129 55.8078 85.4723 56.3362 84.4514L61.1755 75.1325C61.865 73.8029 62.2968 72.2687 62.3991 70.7799L62.9597 61.802Z" fill="#0B45B2"/>
<path opacity="0.46" d="M77.2901 9.92488C76.6783 7.74669 69.8427 11.7337 64.9011 17.1622C59.9596 22.5906 57.3477 30.4207 57.3477 30.4207C57.3477 30.4207 64.2136 21.2363 66.2023 19.3366C74.9699 10.9534 77.883 12.0349 77.2901 9.92488Z" fill="#F2DBD1"/>
<path d="M167.8 192.052L167.715 193.27L169.187 194.257L170.925 194.376L230.239 159.474C230.239 159.474 229.719 158.298 230.351 157.856C230.986 157.417 232.626 156.635 232.671 156.305C232.715 155.976 233.054 155.703 232.671 155.716C232.289 155.729 229.239 157.112 229.239 157.112L225.796 158.354L167.8 192.052Z" fill="#FAF7F7"/>
<path d="M232.75 154.557C232.75 154.731 232.656 154.9 232.493 154.987L231.277 155.633L228.474 158.898L227.206 155.837L227.062 155.305C227.062 155.305 230.462 155.225 230.907 155.002C231.184 154.864 231.771 154.581 232.178 154.386C232.419 154.273 232.75 154.485 232.75 154.557Z" fill="white"/>
<path d="M229.174 157.911L228.472 158.9L168.415 193.192L167.012 189.59L227.061 155.307L228.472 156.112L229.174 157.911Z" fill="url(#paint0_linear_510_6525)"/>
<path d="M168.417 190.404L167.013 189.59L166.312 190.584L167.015 192.382L168.417 193.192L169.118 192.204L168.417 190.404Z" fill="white"/>
<path d="M167.938 190.827L167.693 190.685C167.506 190.577 167.267 190.63 167.144 190.804C167.063 190.919 167.044 191.067 167.095 191.198L167.311 191.751C167.345 191.84 167.409 191.914 167.491 191.961L167.735 192.103C167.922 192.211 168.161 192.158 168.286 191.982C168.368 191.866 168.385 191.719 168.333 191.588L168.118 191.035C168.083 190.948 168.019 190.874 167.938 190.827Z" fill="#EC6161"/>
<path d="M228.472 156.112L168.398 190.387L169.116 192.204L229.175 157.911L228.472 156.112Z" fill="url(#paint1_linear_510_6525)"/>
<path d="M232.752 154.557C232.752 154.731 232.657 154.9 232.494 154.987L231.278 155.633L230.869 155.875L231.072 155.227L230.492 155.296L230.911 155.004C231.187 154.866 231.774 154.583 232.182 154.388C232.42 154.273 232.752 154.485 232.752 154.557Z" fill="#F18C8C"/>
<defs>
<linearGradient id="paint0_linear_510_6525" x1="229.174" y1="174.25" x2="167.012" y2="174.25" gradientUnits="userSpaceOnUse">
<stop stop-color="#F19090"/>
<stop offset="1" stop-color="#E84343"/>
</linearGradient>
<linearGradient id="paint1_linear_510_6525" x1="229.174" y1="174.158" x2="168.398" y2="174.158" gradientUnits="userSpaceOnUse">
<stop stop-color="#E84343"/>
<stop offset="1" stop-color="#F19090"/>
</linearGradient>
</defs>
</svg>
