<svg width="18" height="18" viewBox="0 0 18 18" fill="none" xmlns="http://www.w3.org/2000/svg">
<path d="M16.4994 8.91704L16.4994 8.91703V8.92304V16.0512C16.4994 16.1702 16.4521 16.2844 16.368 16.3685C16.2838 16.4527 16.1697 16.5 16.0507 16.5H9.83271V12.2051C9.83271 11.7449 9.45962 11.3718 8.99938 11.3718C8.53914 11.3718 8.16604 11.7449 8.16604 12.2051V16.5H1.9481C1.82909 16.5 1.71496 16.4527 1.63081 16.3685C1.54665 16.2844 1.49938 16.1702 1.49938 16.0512V8.92304H1.4994L1.49936 8.9174C1.49894 8.85512 1.51149 8.79343 1.53621 8.73626C1.56082 8.67935 1.59696 8.62815 1.64234 8.58591C1.64254 8.58572 1.64275 8.58553 1.64295 8.58535L8.99938 1.80029L16.3561 8.5856C16.3563 8.58576 16.3564 8.58592 16.3566 8.58609C16.402 8.62825 16.4381 8.67937 16.4627 8.73621C16.4873 8.79328 16.4998 8.85486 16.4994 8.91704Z" stroke="#A2A2A2" stroke-width="1.66667" stroke-linecap="round" stroke-linejoin="round"/>
</svg>
