<svg width="204" height="228" viewBox="0 0 204 228" fill="none" xmlns="http://www.w3.org/2000/svg">
<path d="M129.866 0.917358H74.6631C58.1581 0.917358 42.911 9.73776 34.6639 24.0507L7.06231 71.9328C-1.18483 86.2457 -1.18483 103.887 7.06231 118.199L34.6639 166.082C42.911 180.395 58.1581 189.215 74.6631 189.215H129.866C146.371 189.215 161.618 180.395 169.866 166.082L197.467 118.199C205.714 103.887 205.714 86.2457 197.467 71.9328L169.866 24.0507C161.618 9.73776 146.371 0.917358 129.866 0.917358Z" fill="#183EA9"/>
<path d="M125.953 14.2933H78.5991C64.4381 14.2933 51.3631 21.8537 44.288 34.1419L20.611 75.2176C13.5359 87.495 13.5359 102.626 20.611 114.904L44.288 155.98C51.3631 168.257 64.4489 175.828 78.5991 175.828H125.953C140.114 175.828 153.189 168.268 160.264 155.98L183.941 114.904C191.016 102.626 191.016 87.495 183.941 75.2176L160.264 34.1419C153.189 21.8644 140.103 14.2933 125.953 14.2933Z" stroke="white" stroke-width="2.30838" stroke-linecap="round" stroke-linejoin="round"/>
<path d="M78.1115 47.0956V44.915H79.1228V39.214H78.1115V37.0335H83.566C84.9144 37.0335 85.932 37.2653 86.6188 37.7288C87.3098 38.1922 87.6553 38.8833 87.6553 39.8018C87.6553 40.2864 87.5353 40.7162 87.2951 41.0912C87.0591 41.4662 86.7157 41.7527 86.2649 41.9508C86.7494 42.1446 87.1307 42.4374 87.4088 42.8293C87.6869 43.217 87.826 43.6826 87.826 44.2261C87.826 45.1489 87.4889 45.8589 86.8147 46.3561C86.1405 46.8491 85.1756 47.0956 83.92 47.0956H78.1115ZM83.1805 39.1508H82.3336V41.0849H83.1805C83.9642 41.0849 84.3561 40.7625 84.3561 40.1179C84.3561 39.4732 83.9642 39.1508 83.1805 39.1508ZM82.3336 44.9782H83.3132C84.1222 44.9782 84.5267 44.6222 84.5267 43.9101C84.5267 43.198 84.1222 42.842 83.3132 42.842H82.3336V44.9782ZM88.7488 47.0956V45.1995H89.6652V42.2984H88.7488V40.5729L92.6358 40.2V41.4957C92.8844 41.0364 93.2278 40.7014 93.666 40.4908C94.1043 40.2801 94.5235 40.1747 94.9238 40.1747V42.8925C94.5446 42.7619 94.197 42.6966 93.8809 42.6966C93.6703 42.6966 93.449 42.7345 93.2173 42.8104C92.9855 42.882 92.8128 42.981 92.699 43.1074V45.1995H94.1527V47.0956H88.7488ZM99.228 47.2093C98.4358 47.2093 97.7511 47.0682 97.1739 46.7859C96.6008 46.5036 96.1584 46.1012 95.8466 45.5787C95.539 45.0562 95.3852 44.4347 95.3852 43.7142C95.3852 42.9894 95.539 42.3658 95.8466 41.8433C96.1584 41.3208 96.6008 40.9184 97.1739 40.6361C97.7511 40.3496 98.4358 40.2063 99.228 40.2063C100.02 40.2063 100.703 40.3496 101.276 40.6361C101.853 40.9184 102.295 41.3208 102.603 41.8433C102.915 42.3658 103.071 42.9894 103.071 43.7142C103.071 44.4347 102.915 45.0562 102.603 45.5787C102.295 46.1012 101.853 46.5036 101.276 46.7859C100.703 47.0682 100.02 47.2093 99.228 47.2093ZM99.228 45.3701C99.7968 45.3701 100.081 44.816 100.081 43.7078C100.081 42.5997 99.7968 42.0456 99.228 42.0456C98.6592 42.0456 98.3747 42.5997 98.3747 43.7078C98.3747 44.816 98.6592 45.3701 99.228 45.3701ZM103.88 47.0956V45.1995H104.796V42.2984H103.88V40.5729L107.767 40.2V41.0596C108.028 40.7857 108.355 40.575 108.747 40.4276C109.138 40.2759 109.56 40.2 110.011 40.2C110.773 40.2 111.332 40.417 111.685 40.851C112.044 41.2808 112.223 41.9297 112.223 42.7977V45.1995H113.108V47.0956H109.189V42.7977C109.189 42.5533 109.136 42.3764 109.031 42.2668C108.926 42.153 108.787 42.0961 108.614 42.0961C108.471 42.0961 108.327 42.1383 108.184 42.2226C108.045 42.3068 107.927 42.4227 107.83 42.5702V45.1995H108.399V47.0956H103.88ZM113.942 47.0956V45.4523L116.976 41.8054H115.459L115.332 42.8483H113.942V40.3201H120.736V41.9634L117.766 45.6103H119.346L119.472 44.3146H120.863V47.0956H113.942ZM125.622 47.2093C124.371 47.2093 123.389 46.8954 122.677 46.2676C121.969 45.6356 121.615 44.7612 121.615 43.6446C121.615 42.941 121.769 42.3321 122.076 41.818C122.388 41.304 122.822 40.9079 123.378 40.6298C123.934 40.3475 124.581 40.2063 125.319 40.2063C126.039 40.2063 126.656 40.3391 127.17 40.6045C127.685 40.8658 128.076 41.2324 128.346 41.7043C128.62 42.172 128.757 42.7134 128.757 43.3286C128.757 43.4719 128.751 43.6109 128.738 43.7458C128.725 43.8764 128.711 43.9965 128.694 44.106H124.63C124.701 44.5358 124.895 44.8455 125.211 45.0351C125.531 45.2205 125.921 45.3132 126.38 45.3132C126.768 45.3132 127.137 45.2458 127.486 45.111C127.84 44.9719 128.14 44.7992 128.384 44.5927L128.555 44.6685V46.4825C128.352 46.6216 128.091 46.7459 127.771 46.8554C127.451 46.965 127.103 47.0513 126.728 47.1145C126.357 47.1777 125.989 47.2093 125.622 47.2093ZM125.483 41.7612C125.201 41.7612 124.988 41.8707 124.845 42.0898C124.701 42.3089 124.621 42.6144 124.604 43.0063H126.361C126.345 42.6144 126.265 42.3089 126.121 42.0898C125.982 41.8707 125.769 41.7612 125.483 41.7612Z" fill="white"/>
<path d="M76.6389 160.404V158.223H77.6501V152.522H76.6389V150.342H82.3272V152.522H80.9368V158.255H82.9972L83.25 155.897H85.3357V160.404H76.6389ZM90.095 160.517C88.8436 160.517 87.8618 160.204 87.1497 159.576C86.4418 158.944 86.0879 158.069 86.0879 156.953C86.0879 156.249 86.2417 155.64 86.5493 155.126C86.8611 154.612 87.2951 154.216 87.8513 153.938C88.4075 153.656 89.0542 153.514 89.7916 153.514C90.5122 153.514 91.1294 153.647 91.6435 153.913C92.1576 154.174 92.5494 154.54 92.8191 155.012C93.093 155.48 93.2299 156.022 93.2299 156.637C93.2299 156.78 93.2236 156.919 93.211 157.054C93.1983 157.184 93.1836 157.305 93.1667 157.414H89.1027C89.1743 157.844 89.3682 158.154 89.6842 158.343C90.0044 158.529 90.3942 158.621 90.8535 158.621C91.2411 158.621 91.6098 158.554 91.9595 158.419C92.3135 158.28 92.6126 158.107 92.857 157.901L93.0277 157.977V159.791C92.8254 159.93 92.5642 160.054 92.2439 160.164C91.9237 160.273 91.5761 160.359 91.2011 160.423C90.8303 160.486 90.4616 160.517 90.095 160.517ZM89.956 155.069C89.6736 155.069 89.4609 155.179 89.3176 155.398C89.1743 155.617 89.0943 155.923 89.0774 156.314H90.8345C90.8176 155.923 90.7376 155.617 90.5943 155.398C90.4553 155.179 90.2425 155.069 89.956 155.069ZM96.2258 160.517C95.7918 160.517 95.4041 160.431 95.0628 160.258C94.7258 160.081 94.4603 159.839 94.2665 159.531C94.0769 159.224 93.9821 158.87 93.9821 158.47C93.9821 157.846 94.2222 157.349 94.7026 156.978C95.1829 156.607 95.8234 156.422 96.624 156.422C96.9021 156.422 97.1675 156.439 97.4204 156.472C97.6732 156.506 97.9302 156.563 98.1914 156.643V156.504C98.1914 156.121 98.0735 155.842 97.8375 155.67C97.6057 155.497 97.2328 155.411 96.7188 155.411C96.348 155.411 95.973 155.459 95.5938 155.556C95.2145 155.653 94.869 155.788 94.5572 155.96L94.3866 155.885V154.039C94.829 153.866 95.3304 153.736 95.8908 153.647C96.4554 153.559 97.0222 153.514 97.591 153.514C98.8509 153.514 99.7715 153.725 100.353 154.146C100.934 154.568 101.225 155.244 101.225 156.175V158.508H102.047V160.404H98.5959L98.2862 159.411C98.0882 159.757 97.8059 160.029 97.4393 160.227C97.0769 160.421 96.6724 160.517 96.2258 160.517ZM97.5468 158.899C97.6605 158.899 97.7785 158.88 97.9007 158.843C98.0271 158.8 98.124 158.746 98.1914 158.678V157.623C98.0861 157.576 97.9787 157.545 97.8691 157.528C97.7638 157.511 97.6647 157.503 97.572 157.503C97.3571 157.503 97.176 157.566 97.0285 157.692C96.8852 157.819 96.8136 157.987 96.8136 158.198C96.8136 158.413 96.881 158.583 97.0158 158.71C97.1507 158.836 97.3277 158.899 97.5468 158.899ZM108.216 158.666C109.037 158.666 109.657 158.832 110.074 159.165C110.495 159.498 110.706 159.972 110.706 160.587C110.706 161.122 110.523 161.573 110.156 161.94C109.794 162.306 109.286 162.582 108.633 162.768C107.98 162.953 107.217 163.046 106.345 163.046C105.481 163.046 104.777 162.968 104.234 162.812C103.694 162.66 103.298 162.456 103.046 162.199C102.797 161.946 102.673 161.67 102.673 161.371C102.673 161.143 102.757 160.937 102.925 160.751C103.098 160.566 103.317 160.431 103.583 160.347C103.279 160.102 103.128 159.782 103.128 159.386C103.128 159.036 103.252 158.744 103.501 158.508C103.753 158.267 104.112 158.09 104.575 157.977C104.01 157.812 103.541 157.555 103.166 157.206C102.795 156.856 102.609 156.411 102.609 155.872C102.609 155.164 102.936 154.595 103.589 154.165C104.242 153.731 105.197 153.514 106.452 153.514C107.114 153.514 107.706 153.599 108.228 153.767L110.858 153.508V155.467H110.061C110.091 155.598 110.105 155.733 110.105 155.872C110.105 156.58 109.768 157.149 109.094 157.578C108.42 158.004 107.459 158.217 106.212 158.217C105.909 158.217 105.757 158.291 105.757 158.438C105.757 158.59 105.909 158.666 106.212 158.666H108.216ZM106.452 154.854C106.195 154.85 105.978 154.939 105.801 155.12C105.624 155.297 105.536 155.543 105.536 155.859C105.536 156.18 105.622 156.43 105.795 156.611C105.972 156.793 106.191 156.881 106.452 156.877C106.713 156.873 106.93 156.782 107.103 156.605C107.28 156.424 107.369 156.175 107.369 155.859C107.369 155.548 107.28 155.303 107.103 155.126C106.93 154.949 106.713 154.859 106.452 154.854ZM104.594 161.017C104.594 161.27 104.725 161.468 104.986 161.611C105.247 161.758 105.637 161.832 106.155 161.832C106.72 161.832 107.126 161.767 107.375 161.636C107.624 161.506 107.748 161.339 107.748 161.137C107.748 160.926 107.596 160.821 107.293 160.821H105.352C105.095 160.821 104.857 160.804 104.638 160.77C104.609 160.85 104.594 160.932 104.594 161.017ZM114.637 160.524C113.078 160.524 112.299 159.647 112.299 157.894V155.607H111.414V153.881L115.332 153.508V157.901C115.332 158.158 115.389 158.343 115.503 158.457C115.617 158.571 115.762 158.628 115.939 158.628C116.255 158.628 116.5 158.465 116.672 158.141V155.607H116.103V153.881L119.706 153.508V158.508H120.591V160.404H116.735V159.664C116.483 159.934 116.181 160.145 115.832 160.296C115.486 160.448 115.088 160.524 114.637 160.524ZM125.236 160.517C123.985 160.517 123.003 160.204 122.291 159.576C121.583 158.944 121.229 158.069 121.229 156.953C121.229 156.249 121.383 155.64 121.691 155.126C122.002 154.612 122.436 154.216 122.993 153.938C123.549 153.656 124.196 153.514 124.933 153.514C125.654 153.514 126.271 153.647 126.785 153.913C127.299 154.174 127.691 154.54 127.961 155.012C128.234 155.48 128.371 156.022 128.371 156.637C128.371 156.78 128.365 156.919 128.352 157.054C128.34 157.184 128.325 157.305 128.308 157.414H124.244C124.316 157.844 124.51 158.154 124.826 158.343C125.146 158.529 125.536 158.621 125.995 158.621C126.383 158.621 126.751 158.554 127.101 158.419C127.455 158.28 127.754 158.107 127.998 157.901L128.169 157.977V159.791C127.967 159.93 127.706 160.054 127.385 160.164C127.065 160.273 126.718 160.359 126.342 160.423C125.972 160.486 125.603 160.517 125.236 160.517ZM125.097 155.069C124.815 155.069 124.602 155.179 124.459 155.398C124.316 155.617 124.236 155.923 124.219 156.314H125.976C125.959 155.923 125.879 155.617 125.736 155.398C125.597 155.179 125.384 155.069 125.097 155.069Z" fill="white"/>
<path d="M75.9753 63.4785C67.1368 63.4785 59.9648 70.6619 59.9648 79.5146C59.9648 88.3673 67.1368 95.5507 75.9753 95.5507C84.8138 95.5507 91.9857 88.3673 91.9857 79.5146C91.9857 70.6619 84.8138 63.4785 75.9753 63.4785ZM75.9753 89.5843C70.427 89.5843 65.9217 85.0718 65.9217 79.5146C65.9217 73.9575 70.427 69.4449 75.9753 69.4449C81.5236 69.4449 86.0289 73.9575 86.0289 79.5146C86.0289 85.0718 81.5236 89.5843 75.9753 89.5843ZM128.555 63.4785C119.716 63.4785 112.544 70.6619 112.544 79.5146C112.544 88.3673 119.716 95.5507 128.555 95.5507C137.393 95.5507 144.565 88.3673 144.565 79.5146C144.565 70.6619 137.393 63.4785 128.555 63.4785ZM128.555 89.5843C123.007 89.5843 118.501 85.0718 118.501 79.5146C118.501 73.9575 123.007 69.4449 128.555 69.4449C134.103 69.4449 138.608 73.9575 138.608 79.5146C138.608 85.0718 134.103 89.5843 128.555 89.5843Z" fill="#FBE98F"/>
<path d="M75.9766 58.3413V86.5687C75.9766 99.5893 85.514 110.37 97.9654 112.298V136.066H106.567V112.298C119.029 110.37 128.556 99.5785 128.556 86.5687V58.3413H75.9766Z" fill="url(#paint0_linear_512_11948)"/>
<path d="M75.9766 58.3413V86.5687C75.9766 99.5893 85.514 110.37 97.9654 112.298V136.066H106.567V112.298C119.029 110.37 128.556 99.5785 128.556 86.5687V58.3413H75.9766Z" stroke="black" stroke-width="1.07868" stroke-linecap="round" stroke-linejoin="round"/>
<path d="M127.296 137.305H77.2539C77.2539 132.663 81.0065 128.904 85.6408 128.904H118.92C123.554 128.904 127.307 132.663 127.307 137.305H127.296Z" fill="#FBE98F"/>
<path d="M110.232 81.5393H94.3071C91.1997 81.5393 88.6836 79.0192 88.6836 75.9067C88.6836 72.7943 91.1997 70.2742 94.3071 70.2742H110.232C113.339 70.2742 115.855 72.7943 115.855 75.9067C115.855 79.0192 113.339 81.5393 110.232 81.5393Z" stroke="black" stroke-width="1.07868" stroke-linecap="round" stroke-linejoin="round"/>
<path d="M129.437 60.98H75.1045C72.8572 60.98 71.0293 59.1491 71.0293 56.8983C71.0293 54.6474 72.8572 52.8165 75.1045 52.8165H129.437C131.684 52.8165 133.512 54.6474 133.512 56.8983C133.512 59.1491 131.684 60.98 129.437 60.98Z" fill="#FBE98F"/>
<path d="M88.6836 60.98H128.565" stroke="black" stroke-width="1.07868" stroke-linecap="round" stroke-linejoin="round"/>
<path d="M123.351 88.7981C122.384 97.2739 113.878 103.919 106.33 106.331" stroke="black" stroke-width="1.07868" stroke-linecap="round" stroke-linejoin="round"/>
<path d="M84.6211 134.386H121.868" stroke="black" stroke-width="1.07868" stroke-linecap="round" stroke-linejoin="round"/>
<path d="M37.9766 73.7098C41.7829 74.7006 42.4173 75.4976 43.213 80.247C44.0087 75.4976 44.6431 74.7006 48.4495 73.7098C44.6431 72.719 44.0087 71.922 43.213 67.1726C42.4173 71.922 41.7829 72.719 37.9766 73.7098Z" fill="white"/>
<path d="M123.328 113.741C127.135 114.732 127.769 115.529 128.565 120.278C129.36 115.529 129.995 114.732 133.801 113.741C129.995 112.75 129.36 111.953 128.565 107.204C127.769 111.953 127.135 112.75 123.328 113.741Z" fill="white"/>
<path d="M47.4062 60.56C54.062 62.2939 55.191 63.694 56.5781 71.9974C57.9652 63.694 59.0942 62.2831 65.75 60.56C59.0942 58.8261 57.9652 57.426 56.5781 49.1226C55.191 57.426 54.062 58.8368 47.4062 60.56Z" fill="white"/>
<path d="M136.383 121.549C142.974 123.261 144.082 124.65 145.458 132.868C146.834 124.65 147.942 123.261 154.533 121.549C147.942 119.836 146.834 118.447 145.458 110.23C144.082 118.447 142.974 119.836 136.383 121.549Z" fill="white"/>
<path d="M59.5469 120.278C64.1812 121.484 64.9661 122.464 65.9338 128.248C66.9016 122.464 67.6865 121.484 72.3208 120.278C67.6865 119.072 66.9016 118.092 65.9338 112.308C64.9661 118.092 64.1812 119.072 59.5469 120.278Z" fill="white"/>
<path d="M144.727 63.4785C149.361 64.6847 150.146 65.6648 151.114 71.4481C152.081 65.6648 152.866 64.6847 157.501 63.4785C152.866 62.2723 152.081 61.2922 151.114 55.5089C150.146 61.2922 149.361 62.2723 144.727 63.4785Z" fill="white"/>
<path d="M28.7189 218.629V216.012H33.033C33.8031 216.012 34.4004 215.777 34.8247 215.305C35.2648 214.834 35.4848 214.276 35.4848 213.631C35.4848 213.191 35.3905 212.79 35.2019 212.429C35.0133 212.067 34.7304 211.785 34.3532 211.58C33.9917 211.36 33.5517 211.25 33.033 211.25H28.7189V208.657H32.6794C33.3395 208.657 33.866 208.492 34.2589 208.162C34.6675 207.832 34.8719 207.337 34.8719 206.677C34.8719 206.001 34.6675 205.498 34.2589 205.168C33.866 204.838 33.3395 204.673 32.6794 204.673H28.7189V202.056H33.0566C34.1568 202.056 35.0762 202.26 35.8148 202.669C36.5692 203.062 37.135 203.588 37.5122 204.249C37.8894 204.893 38.078 205.6 38.078 206.37C38.078 207.313 37.7872 208.13 37.2057 208.822C36.6399 209.498 35.807 210.001 34.7068 210.331L34.8483 209.293C36.0742 209.639 37.0171 210.213 37.6772 211.014C38.353 211.8 38.6909 212.751 38.6909 213.867C38.6909 214.747 38.4709 215.549 38.0308 216.272C37.6065 216.979 36.9779 217.552 36.1449 217.993C35.3276 218.417 34.3296 218.629 33.1509 218.629H28.7189ZM26.3614 218.629V202.056H29.544V218.629H26.3614ZM40.9036 218.629V207.243H43.9919V218.629H40.9036ZM43.9919 212.335L42.7896 211.533C42.931 210.134 43.3397 209.034 44.0155 208.233C44.6913 207.415 45.6657 207.007 46.9387 207.007C47.4888 207.007 47.9839 207.101 48.4239 207.29C48.864 207.463 49.2648 207.753 49.6262 208.162L47.6931 210.378C47.5202 210.189 47.3081 210.048 47.0566 209.954C46.8209 209.859 46.5458 209.812 46.2315 209.812C45.5714 209.812 45.0292 210.024 44.6048 210.449C44.1962 210.857 43.9919 211.486 43.9919 212.335ZM55.7401 218.865C54.5929 218.865 53.5556 218.605 52.6283 218.087C51.7168 217.552 50.9859 216.837 50.4359 215.942C49.9015 215.03 49.6343 214.016 49.6343 212.9C49.6343 211.785 49.9015 210.787 50.4359 209.906C50.9702 209.011 51.701 208.303 52.6283 207.785C53.5556 207.25 54.585 206.983 55.7166 206.983C56.8796 206.983 57.9169 207.25 58.8284 207.785C59.7557 208.303 60.4865 209.011 61.0209 209.906C61.5552 210.787 61.8224 211.785 61.8224 212.9C61.8224 214.016 61.5552 215.03 61.0209 215.942C60.4865 216.837 59.7557 217.552 58.8284 218.087C57.9169 218.605 56.8874 218.865 55.7401 218.865ZM55.7166 215.989C56.2981 215.989 56.8089 215.863 57.2489 215.611C57.7047 215.344 58.0505 214.983 58.2862 214.527C58.5377 214.056 58.6634 213.521 58.6634 212.924C58.6634 212.327 58.5377 211.8 58.2862 211.344C58.0347 210.889 57.689 210.535 57.2489 210.284C56.8089 210.016 56.2981 209.883 55.7166 209.883C55.1508 209.883 54.6479 210.016 54.2078 210.284C53.7677 210.535 53.422 210.889 53.1705 211.344C52.9191 211.8 52.7933 212.327 52.7933 212.924C52.7933 213.521 52.9191 214.056 53.1705 214.527C53.422 214.983 53.7677 215.344 54.2078 215.611C54.6479 215.863 55.1508 215.989 55.7166 215.989ZM71.4723 218.629V212.099C71.4723 211.423 71.2601 210.873 70.8358 210.449C70.4115 210.024 69.8614 209.812 69.1856 209.812C68.7455 209.812 68.3526 209.906 68.0068 210.095C67.6611 210.284 67.386 210.551 67.1817 210.897C66.9931 211.242 66.8988 211.643 66.8988 212.099L65.6965 211.486C65.6965 210.59 65.8851 209.812 66.2623 209.152C66.6552 208.476 67.1896 207.95 67.8654 207.573C68.5569 207.195 69.3349 207.007 70.1993 207.007C71.0323 207.007 71.7788 207.219 72.4389 207.643C73.099 208.052 73.6176 208.594 73.9948 209.27C74.372 209.93 74.5606 210.645 74.5606 211.415V218.629H71.4723ZM63.8106 218.629V207.243H66.8988V218.629H63.8106ZM76.2467 216.861L82.2818 209.011H86.0066L79.9715 216.861H76.2467ZM76.2467 218.629V216.861L78.6985 215.942H85.8651V218.629H76.2467ZM76.6711 209.93V207.243H86.0066V209.011L83.5313 209.93H76.6711ZM93.2683 218.865C92.0739 218.865 91.013 218.613 90.0857 218.11C89.1585 217.592 88.4198 216.885 87.8697 215.989C87.3354 215.093 87.0682 214.071 87.0682 212.924C87.0682 211.792 87.3275 210.787 87.8461 209.906C88.3805 209.011 89.1035 208.303 90.015 207.785C90.9266 207.25 91.9403 206.983 93.0561 206.983C94.1563 206.983 95.1228 207.235 95.9558 207.738C96.8045 208.225 97.4646 208.901 97.9361 209.765C98.4233 210.614 98.6669 211.58 98.6669 212.665C98.6669 212.869 98.6512 213.081 98.6197 213.301C98.604 213.505 98.5647 213.741 98.5019 214.008L88.9306 214.032V211.722L97.0638 211.698L95.8144 212.665C95.7829 211.989 95.6572 211.423 95.4372 210.967C95.2328 210.512 94.9264 210.166 94.5178 209.93C94.1248 209.679 93.6376 209.553 93.0561 209.553C92.4432 209.553 91.9088 209.694 91.4531 209.977C90.9973 210.244 90.6437 210.629 90.3922 211.132C90.1565 211.62 90.0386 212.201 90.0386 212.877C90.0386 213.568 90.1643 214.173 90.4158 214.692C90.683 215.195 91.0601 215.588 91.5474 215.871C92.0346 216.138 92.6004 216.272 93.2447 216.272C93.8262 216.272 94.3527 216.177 94.8242 215.989C95.2957 215.784 95.7043 215.486 96.0501 215.093L97.8653 216.908C97.3153 217.552 96.6395 218.04 95.8379 218.37C95.0521 218.7 94.1956 218.865 93.2683 218.865ZM105.511 218.629V202.056H108.717V218.629H105.511ZM107.869 218.629V215.777H116.308V218.629H107.869ZM123.427 218.865C122.233 218.865 121.172 218.613 120.245 218.11C119.317 217.592 118.579 216.885 118.029 215.989C117.494 215.093 117.227 214.071 117.227 212.924C117.227 211.792 117.486 210.787 118.005 209.906C118.539 209.011 119.262 208.303 120.174 207.785C121.085 207.25 122.099 206.983 123.215 206.983C124.315 206.983 125.282 207.235 126.115 207.738C126.963 208.225 127.623 208.901 128.095 209.765C128.582 210.614 128.826 211.58 128.826 212.665C128.826 212.869 128.81 213.081 128.779 213.301C128.763 213.505 128.724 213.741 128.661 214.008L119.089 214.032V211.722L127.223 211.698L125.973 212.665C125.942 211.989 125.816 211.423 125.596 210.967C125.392 210.512 125.085 210.166 124.677 209.93C124.284 209.679 123.797 209.553 123.215 209.553C122.602 209.553 122.068 209.694 121.612 209.977C121.156 210.244 120.803 210.629 120.551 211.132C120.315 211.62 120.197 212.201 120.197 212.877C120.197 213.568 120.323 214.173 120.575 214.692C120.842 215.195 121.219 215.588 121.706 215.871C122.193 216.138 122.759 216.272 123.404 216.272C123.985 216.272 124.512 216.177 124.983 215.989C125.455 215.784 125.863 215.486 126.209 215.093L128.024 216.908C127.474 217.552 126.798 218.04 125.997 218.37C125.211 218.7 124.354 218.865 123.427 218.865ZM135.498 218.865C134.46 218.865 133.525 218.605 132.692 218.087C131.859 217.568 131.207 216.861 130.736 215.965C130.264 215.069 130.028 214.063 130.028 212.948C130.028 211.816 130.264 210.802 130.736 209.906C131.207 209.011 131.859 208.303 132.692 207.785C133.525 207.266 134.46 207.007 135.498 207.007C136.315 207.007 137.046 207.172 137.69 207.502C138.335 207.832 138.845 208.296 139.223 208.893C139.615 209.474 139.828 210.134 139.859 210.873V214.975C139.828 215.729 139.615 216.397 139.223 216.979C138.845 217.56 138.335 218.024 137.69 218.37C137.046 218.7 136.315 218.865 135.498 218.865ZM136.064 216.012C136.928 216.012 137.627 215.729 138.162 215.164C138.696 214.582 138.963 213.836 138.963 212.924C138.963 212.327 138.837 211.8 138.586 211.344C138.35 210.873 138.012 210.512 137.572 210.26C137.148 209.993 136.645 209.859 136.064 209.859C135.498 209.859 134.995 209.993 134.555 210.26C134.13 210.512 133.793 210.873 133.541 211.344C133.305 211.8 133.187 212.327 133.187 212.924C133.187 213.537 133.305 214.079 133.541 214.551C133.793 215.006 134.13 215.368 134.555 215.635C134.995 215.887 135.498 216.012 136.064 216.012ZM138.798 218.629V215.564L139.293 212.783L138.798 210.048V207.243H141.863V218.629H138.798ZM149.357 223.674C148.147 223.674 147.078 223.454 146.151 223.014C145.224 222.59 144.485 221.984 143.935 221.199L145.892 219.242C146.332 219.761 146.819 220.154 147.353 220.421C147.903 220.704 148.563 220.845 149.333 220.845C150.292 220.845 151.047 220.601 151.597 220.114C152.162 219.627 152.445 218.951 152.445 218.087V215.234L152.964 212.735L152.469 210.236V207.243H155.534V218.04C155.534 219.171 155.266 220.154 154.732 220.986C154.213 221.835 153.49 222.495 152.563 222.967C151.636 223.438 150.567 223.674 149.357 223.674ZM149.216 218.323C148.194 218.323 147.275 218.079 146.457 217.592C145.64 217.089 144.996 216.405 144.524 215.541C144.068 214.676 143.841 213.71 143.841 212.641C143.841 211.572 144.068 210.614 144.524 209.765C144.996 208.916 145.64 208.248 146.457 207.761C147.275 207.258 148.194 207.007 149.216 207.007C150.064 207.007 150.811 207.172 151.455 207.502C152.115 207.832 152.634 208.288 153.011 208.869C153.388 209.435 153.593 210.103 153.624 210.873V214.456C153.593 215.211 153.38 215.887 152.987 216.484C152.61 217.065 152.092 217.521 151.432 217.851C150.787 218.165 150.049 218.323 149.216 218.323ZM149.829 215.517C150.394 215.517 150.882 215.399 151.29 215.164C151.714 214.912 152.045 214.574 152.28 214.15C152.516 213.71 152.634 213.215 152.634 212.665C152.634 212.099 152.516 211.604 152.28 211.179C152.045 210.755 151.714 210.425 151.29 210.189C150.882 209.938 150.394 209.812 149.829 209.812C149.263 209.812 148.768 209.938 148.343 210.189C147.919 210.425 147.589 210.763 147.353 211.203C147.117 211.627 147 212.115 147 212.665C147 213.199 147.117 213.686 147.353 214.126C147.589 214.551 147.919 214.889 148.343 215.14C148.768 215.391 149.263 215.517 149.829 215.517ZM163.103 218.865C162.098 218.865 161.202 218.653 160.416 218.228C159.646 217.804 159.041 217.215 158.601 216.46C158.161 215.706 157.941 214.834 157.941 213.843V207.243H161.052V213.773C161.052 214.244 161.131 214.653 161.288 214.999C161.445 215.329 161.681 215.58 161.995 215.753C162.31 215.926 162.679 216.012 163.103 216.012C163.748 216.012 164.251 215.816 164.612 215.423C164.974 215.03 165.154 214.48 165.154 213.773V207.243H168.243V213.843C168.243 214.849 168.023 215.729 167.583 216.484C167.158 217.238 166.553 217.827 165.767 218.252C164.997 218.66 164.109 218.865 163.103 218.865ZM176.148 218.865C174.953 218.865 173.892 218.613 172.965 218.11C172.038 217.592 171.299 216.885 170.749 215.989C170.215 215.093 169.948 214.071 169.948 212.924C169.948 211.792 170.207 210.787 170.726 209.906C171.26 209.011 171.983 208.303 172.894 207.785C173.806 207.25 174.82 206.983 175.936 206.983C177.036 206.983 178.002 207.235 178.835 207.738C179.684 208.225 180.344 208.901 180.815 209.765C181.303 210.614 181.546 211.58 181.546 212.665C181.546 212.869 181.531 213.081 181.499 213.301C181.483 213.505 181.444 213.741 181.381 214.008L171.81 214.032V211.722L179.943 211.698L178.694 212.665C178.662 211.989 178.537 211.423 178.317 210.967C178.112 210.512 177.806 210.166 177.397 209.93C177.004 209.679 176.517 209.553 175.936 209.553C175.323 209.553 174.788 209.694 174.332 209.977C173.877 210.244 173.523 210.629 173.272 211.132C173.036 211.62 172.918 212.201 172.918 212.877C172.918 213.568 173.044 214.173 173.295 214.692C173.562 215.195 173.94 215.588 174.427 215.871C174.914 216.138 175.48 216.272 176.124 216.272C176.706 216.272 177.232 216.177 177.704 215.989C178.175 215.784 178.584 215.486 178.929 215.093L180.745 216.908C180.195 217.552 179.519 218.04 178.717 218.37C177.931 218.7 177.075 218.865 176.148 218.865Z" fill="#121212"/>
<defs>
<linearGradient id="paint0_linear_512_11948" x1="102.277" y1="79.3099" x2="102.277" y2="134.451" gradientUnits="userSpaceOnUse">
<stop stop-color="#FBE98F"/>
<stop offset="1" stop-color="#FF9933"/>
</linearGradient>
</defs>
</svg>
