<svg width="21" height="19" viewBox="0 0 21 19" fill="none" xmlns="http://www.w3.org/2000/svg">
<path fill-rule="evenodd" clip-rule="evenodd" d="M8.79321 3.06182C8.28269 2.5513 7.39018 2.03806 5.74352 2.44983C4.0912 2.86302 2.87225 4.09411 2.46737 5.61202C2.06999 7.10177 2.42954 8.9934 4.20897 10.7725L9.79654 16.3592C10.1872 16.7498 10.818 16.7497 11.2086 16.3589C12.4634 15.1033 14.4572 13.1084 16.793 10.7726C18.5716 8.99406 18.9313 7.10237 18.534 5.61234C18.1293 4.09426 16.9106 2.86301 15.2579 2.44985C13.6107 2.03803 12.718 2.55136 12.2076 3.06182C11.9284 3.34103 11.7362 3.65061 11.6136 3.89568C11.5532 4.01653 11.5122 4.11677 11.4876 4.1824C11.4753 4.21507 11.4673 4.23867 11.4632 4.2514L11.4599 4.26148C11.335 4.68694 10.9445 4.97968 10.5005 4.9797C10.0565 4.97973 9.66598 4.68705 9.54101 4.26161L9.53779 4.25151C9.53362 4.23878 9.52562 4.21517 9.51336 4.1825C9.48874 4.11686 9.44769 4.01661 9.38725 3.89575C9.26467 3.65066 9.07245 3.34106 8.79321 3.06182ZM10.5004 1.96781C10.5902 1.86062 10.6877 1.7533 10.7934 1.64759C11.7829 0.658049 13.3903 -0.0786189 15.743 0.509563C18.0903 1.0964 19.8714 2.86515 20.4665 5.09708C21.0691 7.35704 20.4287 9.96536 18.2073 12.1868C15.8716 14.5224 13.8779 16.5171 12.6232 17.7726C11.4518 18.9448 9.55443 18.9454 8.38243 17.7736L2.79487 12.1869C0.572544 9.9649 -0.0678908 7.35653 0.53493 5.09656C1.13024 2.86475 2.91167 1.09639 5.25834 0.509577C7.61066 -0.0786525 9.21791 0.658106 10.2074 1.64759C10.3131 1.7533 10.4106 1.86062 10.5004 1.96781Z" fill="#222328"/>
</svg>
