<svg width="18" height="18" viewBox="0 0 18 18" fill="none" xmlns="http://www.w3.org/2000/svg">
<path d="M0.666016 2.33342C0.666016 1.41294 1.41221 0.666748 2.33268 0.666748H8.16602C9.08649 0.666748 9.83268 1.41294 9.83268 2.33341V4.00008C9.83268 4.46032 9.45959 4.83341 8.99935 4.83341C8.53911 4.83341 8.16602 4.46032 8.16602 4.00008V2.33341L2.33268 2.33342V15.6667H8.16602V14.0001C8.16602 13.5398 8.53911 13.1667 8.99935 13.1667C9.45959 13.1667 9.83268 13.5398 9.83268 14.0001V15.6667C9.83268 16.5872 9.08649 17.3334 8.16602 17.3334H2.33268C1.41221 17.3334 0.666016 16.5872 0.666016 15.6667V2.33342Z" fill="#929292"/>
<path d="M14.4875 9.83342L12.5768 11.7442C12.2513 12.0696 12.2513 12.5972 12.5768 12.9227C12.9022 13.2481 13.4298 13.2481 13.7553 12.9227L16.9708 9.70719C17.3613 9.31667 17.3613 8.6835 16.9708 8.29297L13.7553 5.07749C13.4298 4.75206 12.9022 4.75206 12.5768 5.07749C12.2513 5.40293 12.2513 5.93057 12.5768 6.256L14.4875 8.16675L5.66602 8.16675V9.83341L14.4875 9.83342Z" fill="#929292"/>
</svg>
