<svg width="206" height="201" viewBox="0 0 206 201" fill="none" xmlns="http://www.w3.org/2000/svg">
<path d="M166.273 10.5288C166.3 13.1427 164.611 15.7746 161.198 17.8031C154.374 21.8621 143.244 21.9795 136.337 18.0633C132.885 16.1051 131.14 13.5094 131.113 10.8955L131.727 70.4306C131.754 73.0444 133.497 75.6402 136.95 77.5983C143.856 81.5146 154.987 81.399 161.81 77.3382C165.223 75.3078 166.912 72.6759 166.885 70.0639L166.273 10.5288Z" fill="#5195FB"/>
<path d="M161.048 3.36297C154.142 -0.553285 143.012 -0.437653 136.188 3.62312C129.364 7.68389 129.431 14.149 136.337 18.0652C143.243 21.9815 154.374 21.8659 161.197 17.8051C168.021 13.7443 167.955 7.27923 161.048 3.36297Z" fill="#69A4FC"/>
<path d="M205.736 61.5325L184.479 74.179L184.742 99.6672L206 87.0207L205.736 61.5325Z" fill="#99C1FD"/>
<path d="M184.477 74.1791L162.963 61.9788L163.227 87.4688L184.741 99.6673L184.477 74.1791Z" fill="#81B2FC"/>
<path d="M205.735 61.5324L184.22 49.332L162.963 61.9786L184.477 74.1789L205.735 61.5324Z" fill="#C9DEFE"/>
<path d="M22.095 149.683V163.22L17.4004 160.492V146.955L22.095 149.683Z" fill="#FF8980"/>
<path d="M22.0958 144.005L10.4446 150.774L5.75 148.048L17.4012 141.279L22.0958 144.005Z" fill="#FC9F9C"/>
<path d="M38.6368 134.399L26.9856 141.168L22.291 138.44L33.9422 131.671L38.6368 134.399Z" fill="#FC9F9C"/>
<path d="M26.9816 127.63L22.095 130.468L17.4004 127.74L22.2871 124.903L26.9816 127.63Z" fill="#FC9F9C"/>
<path d="M22.095 130.468V144.005L17.4004 141.279V127.74L22.095 130.468Z" fill="#FF8980"/>
<path d="M10.4446 150.774V156.451L5.75 153.724V148.048L10.4446 150.774Z" fill="#FF8980"/>
<path d="M38.6344 134.399V140.076L26.9832 146.845V160.382L22.0965 163.22V149.683L10.4453 156.451V150.774L22.0965 144.005V130.468L26.9832 127.63V141.167L38.6344 134.399Z" fill="#FF6666"/>
<path d="M83.7912 56.2381L90.2774 44.9355L96.2933 48.4291L100.71 40.7302L94.6937 37.2367L101.18 25.9323L96.7618 23.3672L90.2756 34.6698L84.2616 31.1744L79.8434 38.8733L85.8593 42.3686L79.373 53.6712L83.7912 56.2381Z" fill="#FF6666"/>
<path d="M93.3799 21.4252L86.8945 32.7275L90.2682 34.6875L96.7535 23.3851L93.3799 21.4252Z" fill="#FF8980"/>
<path d="M82.4756 40.4269L75.9902 51.7292L79.3639 53.6892L85.8492 42.3868L82.4756 40.4269Z" fill="#FF8980"/>
<path d="M80.8801 29.2365L76.4629 36.9346L79.8366 38.8945L84.2538 31.1964L80.8801 29.2365Z" fill="#FF8980"/>
<path d="M136.548 60.772C135.778 61.22 135.232 62.4791 135.232 64.8761C135.232 68.7238 136.564 70.998 138.286 71.9969C139.06 72.4467 139.751 72.5678 140.291 72.2535L142.764 70.8174C142.221 71.1317 141.532 71.0089 140.758 70.5609C139.038 69.5619 137.704 67.2895 137.704 63.4401C137.704 61.043 138.248 59.7839 139.02 59.3359L136.548 60.772Z" fill="#E84343"/>
<path d="M142.668 76.193C146.413 74.0181 145.77 61.6046 138.457 57.356C136.764 56.3733 135.238 56.2324 134.076 56.9062L136.548 55.4701C137.71 54.7945 139.236 54.9354 140.929 55.9199C144.67 58.093 147.379 63.1653 147.379 68.6622C147.379 71.8541 146.557 73.935 145.139 74.757L142.668 76.193Z" fill="#FF8980"/>
<path d="M135.233 64.8759C135.233 68.7236 136.565 70.9978 138.286 71.9967C140.136 73.0715 141.512 72.2713 141.512 68.1256C141.512 64.3268 140.006 61.8538 138.416 60.9308C136.823 60.0041 135.233 60.779 135.233 64.8759ZM131.793 62.8763C131.793 50.5133 144.909 57.8798 144.909 70.0964C144.909 75.8425 142.243 77.9903 138.243 75.6673C134.373 73.4202 131.793 68.3731 131.793 62.8763Z" fill="#FF6666"/>
<path d="M156.759 89.7027C155.989 90.1507 155.443 91.4097 155.443 93.8068C155.443 97.6544 156.777 99.9286 158.497 100.928C159.271 101.377 159.962 101.498 160.504 101.184L162.976 99.748C162.434 100.062 161.743 99.9413 160.969 99.4915C159.249 98.4926 157.915 96.2183 157.915 92.3707C157.915 89.9736 158.459 88.7146 159.231 88.2666L156.759 89.7027Z" fill="#E84343"/>
<path d="M162.883 105.124C166.626 102.951 165.985 90.5355 158.671 86.2869C156.979 85.3042 155.453 85.1633 154.291 85.8371L156.763 84.401C157.925 83.7254 159.451 83.8663 161.143 84.8508C164.885 87.0239 167.594 92.0962 167.594 97.5913C167.594 100.783 166.772 102.864 165.355 103.688L162.883 105.124Z" fill="#FF8980"/>
<path d="M155.446 93.8069C155.446 97.6545 156.779 99.9288 158.499 100.928C160.348 102.003 161.725 101.202 161.725 97.0548C161.725 93.2578 160.219 90.7848 158.629 89.8599C157.038 88.9369 155.446 89.71 155.446 93.8069ZM152.006 91.8091C152.006 79.4425 165.122 86.8144 165.122 99.0292C165.122 104.775 162.456 106.925 158.456 104.602C154.586 102.353 152.006 97.3059 152.006 91.8091Z" fill="#FF6666"/>
<path d="M141.123 94.6812L159.271 69.6482L161.743 68.2122L143.595 93.2451L141.123 94.6812Z" fill="#E84343"/>
<path d="M159.273 69.6483L154.801 67.0489L157.273 65.6128L161.745 68.2122L159.273 69.6483Z" fill="#FF8980"/>
<path d="M141.124 94.6812L136.652 92.0818L154.801 67.0488L159.272 69.6482L141.124 94.6812Z" fill="#FF6666"/>
<path d="M67.191 55.1561L65.5124 55.0044L61.7891 52.8403L63.4676 52.9921L67.191 55.1561Z" fill="#E1EDFF"/>
<path d="M65.5124 55.0044V65.7L61.7891 63.536V52.8403L65.5124 55.0044Z" fill="#88BEFF"/>
<path d="M65.5124 65.7002L73.749 127.013L70.0257 124.849L61.7891 63.5361L65.5124 65.7002Z" fill="#1C6DF6"/>
<path d="M67.1903 55.1561L74.9691 118.329L73.7483 127.013L65.5117 65.7V55.0044L67.1903 55.1561Z" fill="#81B2FC"/>
<path d="M65.8845 51.8901L61.5884 54.3865L57.5527 52.0419L61.8506 49.5454L65.8845 51.8901Z" fill="#B1D0FE"/>
<path d="M61.5884 54.3864V67.0619C61.5884 67.7501 61.829 68.236 62.2168 68.46L58.1811 66.1154C57.7933 65.8896 57.5527 65.4054 57.5527 64.7172V52.0417L61.5884 54.3864Z" fill="#81B2FC"/>
<path d="M63.5517 41.3677C63.5517 52.7516 63.6397 51.9405 63.3417 52.2711C62.6254 53.0641 60.7116 52.9936 60.0833 52.262C59.7925 51.9333 59.8822 52.6576 59.8822 41.3677C59.8822 41.9674 60.6775 42.3215 61.2735 42.4009C62.2035 42.5491 63.5517 42.1607 63.5517 41.3677Z" fill="#81B2FC"/>
<path d="M60.2388 52.4084C60.1794 52.3614 60.129 52.3144 60.084 52.262V41.8518C60.3054 42.1101 60.2388 40.8366 60.2388 52.4084Z" fill="#81B2FC"/>
<path d="M60.7582 42.2727V52.6829C60.7042 52.6649 60.6502 52.6432 60.6016 52.6197V42.2095C60.6502 42.2348 60.7042 42.2564 60.7582 42.2727Z" fill="#81B2FC"/>
<path d="M61.272 42.3993V52.8077C61.218 52.8023 61.1694 52.7933 61.1172 52.7824V42.374C61.1676 42.3849 61.218 42.3921 61.272 42.3993Z" fill="#81B2FC"/>
<path d="M61.7876 42.4299V52.8402C61.7876 52.8402 61.6652 52.842 61.6328 52.8384V42.4299C61.6688 42.4335 61.7534 42.4335 61.7876 42.4299Z" fill="#81B2FC"/>
<path d="M62.3071 42.3755V52.7839C62.2549 52.7966 62.2063 52.802 62.1523 52.8092V42.4008C62.2063 42.3954 62.2567 42.3845 62.3071 42.3755Z" fill="#81B2FC"/>
<path d="M62.8226 42.2131V52.6234C62.774 52.6469 62.72 52.6685 62.666 52.6848V42.2745C62.72 42.2583 62.774 42.2366 62.8226 42.2131Z" fill="#81B2FC"/>
<path d="M63.3422 41.8608V52.2711C63.2954 52.3235 63.2432 52.3704 63.1856 52.4174C63.1856 40.8547 63.1172 42.1101 63.3422 41.8608Z" fill="#81B2FC"/>
<path d="M59.8848 41.3678C59.8848 40.7789 60.7052 40.302 61.7195 40.302C62.732 40.302 63.5542 40.7789 63.5542 41.3678C63.5542 41.9567 62.732 42.4336 61.7195 42.4336C60.707 42.4336 59.8848 41.9548 59.8848 41.3678Z" fill="#E1EDFF"/>
<path d="M61.471 57.1337L59.7134 59.3339L55.8105 57.0669L57.5681 54.8667L61.471 57.1337Z" fill="#E1EDFF"/>
<path d="M59.7136 59.3339L51.5632 134.995L47.6621 132.728L55.8107 57.0669L59.7136 59.3339Z" fill="#88BEFF"/>
<path d="M61.4744 57.134V68.3391L52.8446 142.607L51.5664 134.995L59.7169 59.3342L61.4744 57.134Z" fill="#81B2FC"/>
<path d="M61.7075 66.9138C59.4868 67.3075 59.1475 64.3234 60.6339 61.7348C60.9445 61.1929 61.3107 60.7088 61.7075 60.2987V59.979C58.8225 62.7446 58.7633 67.6236 61.7075 67.1486V66.9138Z" fill="#1C6DF6"/>
<path d="M65.8837 51.8901V64.5656C65.8837 65.9439 64.9215 67.6202 63.7348 68.3102C62.5572 68.9949 61.5859 68.4511 61.5859 67.062V54.3866L65.8837 51.8901Z" fill="#69A4FC"/>
<path d="M63.6076 56.9442C63.3653 56.8033 63.5574 56.2451 63.868 56.0645C64.069 55.9471 64.236 56.0392 64.236 56.2777C64.2342 56.6444 63.8446 57.0815 63.6076 56.9442Z" fill="#1C6DF6"/>
<path d="M63.7664 64.5133C63.6764 64.4609 63.752 64.2478 63.8636 64.1828C63.9392 64.1394 64.0022 64.1737 64.0022 64.2622C64.0022 64.3923 63.8582 64.5657 63.7664 64.5133Z" fill="#1C6DF6"/>
<path d="M52.8414 142.607L49.7913 140.855L47.6621 132.728L51.5632 134.995L52.8414 142.607Z" fill="#81B2FC"/>
<path d="M51.1753 140.053C51.1753 140.053 50.477 139.753 50.2526 140.372C50.0282 140.992 50.4931 150.459 50.4931 150.459L51.5631 141.873C51.5631 141.873 52.055 140.562 51.1753 140.053Z" fill="#1C6DF6"/>
<path d="M72.318 124.588C72.318 124.588 71.6196 124.288 71.3952 124.908C71.1708 125.527 71.6357 134.995 71.6357 134.995L72.7057 126.409C72.7057 126.409 73.1976 125.098 72.318 124.588Z" fill="#1C6DF6"/>
<path d="M17.4339 91.6378L31.6056 117.939L24.3241 113.708L10.1523 87.4072L17.4339 91.6378Z" fill="#FCD561"/>
<path d="M50.3358 40.9395L36.252 49.1207L28.9688 44.8901L43.0525 36.709L50.3358 40.9395Z" fill="#FCEAB2"/>
<path d="M36.2535 49.1207L28.9612 93.9282L21.6797 89.6977L28.9702 44.8901L36.2535 49.1207Z" fill="#FCD561"/>
<path d="M21.9039 80.8192L7.28334 89.311L0 85.0823L14.6205 76.5886L21.9039 80.8192Z" fill="#FCEAB2"/>
<path d="M7.28334 89.311V97.5355L0 93.3049V85.0823L7.28334 89.311Z" fill="#FCD96E"/>
<path d="M50.3403 40.9395V49.164L42.0085 54.0033L31.6051 117.939L17.4334 91.6377L7.28125 97.5355V89.311L21.9018 80.8192L28.9643 93.9282L36.2565 49.1206L50.3403 40.9395Z" fill="#FEB30F"/>
<path d="M124.534 80.5124C124.047 80.796 123.626 81.0399 123.205 81.2856L119.367 79.0565C119.789 78.8108 120.209 78.567 120.697 78.2852L124.534 80.5124Z" fill="#EAAC88"/>
<path d="M123.207 81.2855C123.094 81.8924 123.015 82.4524 122.878 83.025C122.401 85.0193 121.433 86.7119 119.882 87.9565C118.342 89.192 116.888 89.5407 115.895 88.9644L112.057 86.7354C113.049 87.3116 114.504 86.963 116.044 85.7274C117.595 84.4846 118.563 82.7902 119.04 80.7959C119.177 80.2233 119.256 79.6633 119.369 79.0564L123.207 81.2855Z" fill="#FEB30F"/>
<path d="M111.48 65.207C111.48 69.573 107.594 94.5898 112.773 97.5992L108.935 95.3701C108.371 95.0431 107.899 94.5103 107.551 93.7769C104.515 87.3985 107.642 65.841 107.642 62.9761L111.48 65.207Z" fill="#FCD96E"/>
<path d="M98.4195 72.7921C98.3459 74.0421 97.5632 85.5976 97.1377 90.2726C96.793 94.0624 95.7231 97.9804 93.7501 101.98C92.6981 104.111 90.7215 108.851 92.7573 110.033L88.9191 107.804C87.3572 106.897 88.2243 104.03 88.8024 102.319C89.6928 99.6856 92.6245 95.4623 93.2995 88.0435C93.725 83.3685 94.5077 71.813 94.5813 70.563L98.4195 72.7921Z" fill="#FCD96E"/>
<path d="M124.494 51.1749C93.2871 69.3038 102.233 64.0888 97.9063 66.7297C92.1956 70.2143 89.4973 78.0901 88.1419 84.7973C88.1742 84.8569 84.3359 82.6278 84.3359 82.6278C85.6554 75.8827 88.3663 67.9834 94.0698 64.5006C98.3963 61.8597 89.4506 67.0748 120.657 48.9458L124.494 51.1749Z" fill="#FCEAB2"/>
<path d="M124.494 51.1748C124.494 53.3316 124.494 55.4307 124.494 57.5965C121.587 59.2855 118.697 60.9636 115.731 62.6869C115.544 64.3958 114.528 78.3791 114.315 83.6574C114.257 85.0664 114.474 86.394 114.832 87.5068C115.604 89.9039 117.893 89.5516 119.883 87.9548C121.435 86.712 122.402 85.0176 122.88 83.0233C123.016 82.4507 123.095 81.8907 123.208 81.2838C123.63 81.0381 124.05 80.7942 124.537 80.5106C124.147 83.941 123.684 87.346 121.95 90.9751C120.883 93.2059 119.523 95.1767 117.749 96.5514C115.855 98.0182 114.072 98.3487 112.774 97.5955C107.591 94.5842 111.482 69.1051 111.482 65.2033C108.537 66.9139 105.626 68.6047 102.647 70.3352C101.85 82.3315 101.475 92.608 99.2722 102.485C98.6152 105.43 96.7337 110.098 93.7231 110.242C92.2097 110.314 91.716 108.929 91.9153 107.383C92.1505 105.549 92.9655 103.569 93.7518 101.976C95.7248 97.9748 96.7948 94.0586 97.1395 90.2687C97.565 85.5938 98.3477 74.0383 98.4213 72.7883C94.6477 74.8386 92.567 76.5492 90.0357 82.821C89.5563 84.0096 89.0375 84.6401 88.1758 84.8532C89.4953 78.1099 92.2061 70.2088 97.9096 66.7261C102.231 64.0887 93.2869 69.3038 124.494 51.1748Z" fill="#FEB30F"/>
<path d="M190.702 127.608C190.702 124.082 188.395 120.554 183.772 117.868C174.611 112.547 159.737 112.501 150.486 117.742V119.705C159.737 114.467 174.611 114.51 183.772 119.834C188.395 122.52 190.702 126.046 190.702 129.574V127.608Z" fill="#FEB30F"/>
<path d="M191.541 141.591C198.088 137.717 201.365 132.664 201.365 127.61V129.573C201.365 134.628 198.088 139.68 191.541 143.555V141.591Z" fill="#FEB30F"/>
<path d="M128.221 113.571L191.171 150.141V152.105L128.221 115.534V113.571Z" fill="#FEB30F"/>
<path d="M191.17 150.141L198.714 145.759V147.722L191.17 152.105V150.141Z" fill="#EAAC88"/>
<path d="M191.541 141.592C204.714 133.795 204.639 121.226 191.315 113.486C177.99 105.746 156.356 105.702 142.936 113.354L135.764 109.187L128.221 113.569L191.171 150.139L198.715 145.757L191.541 141.592ZM150.487 117.742C159.738 112.503 174.612 112.547 183.773 117.868C192.941 123.195 193.009 131.832 183.992 137.206L150.487 117.742Z" fill="#FCD561"/>
<path d="M150.251 162.873L99.3574 133.134L113.883 117.581L164.796 147.32L150.251 162.873Z" fill="#478EFB"/>
<path d="M105.616 129.706L112.582 122.247C113.585 121.172 115.192 120.937 116.458 121.676L157.802 145.837C159.555 146.861 159.905 149.262 158.515 150.746L151.551 158.205C150.548 159.28 148.941 159.516 147.675 158.776L106.329 134.615C104.577 133.593 104.229 131.192 105.616 129.706Z" fill="#202A5F"/>
<path d="M149.255 159.206C148.305 159.206 151.45 160.878 106.702 134.718C105.359 133.932 105.099 132.097 106.156 130.965L113.122 123.508C113.574 123.022 114.215 122.744 114.878 122.744C115.826 122.744 112.682 121.071 157.431 147.231C158.77 148.013 159.037 149.847 157.976 150.985L151.012 158.443C150.558 158.928 149.917 159.206 149.255 159.206Z" fill="#8EC1FD"/>
<path d="M98.0754 193.188L47.1836 163.449L99.3535 133.134L150.247 162.873L98.0754 193.188Z" fill="#4489F4"/>
<path d="M98.0754 200.5L47.1836 170.759V163.449L98.0754 193.188V200.5Z" fill="#1C6DF6"/>
<path d="M164.791 147.32V161.737L98.0742 200.5V193.188L150.246 162.873L164.791 147.32Z" fill="#0B45B2"/>
<path d="M105.953 140.269V142.704C105.953 143.183 105.637 143.66 105.014 144.019L101.005 146.373C99.7502 147.105 97.7162 147.105 96.4542 146.373L92.422 144.019C91.7829 143.653 91.4688 143.168 91.4688 142.683V140.248C91.4688 140.733 91.7919 141.219 92.422 141.584L96.4613 143.931C97.7234 144.671 99.7574 144.671 101.012 143.931L105.021 141.584C105.644 141.219 105.953 140.748 105.953 140.269Z" fill="#5496FB"/>
<path d="M94.6637 146.827V149.262C94.6637 149.74 94.3478 150.217 93.7248 150.577L89.716 152.93C88.4611 153.662 86.4271 153.662 85.1651 152.93L81.1329 150.577C80.4938 150.21 80.1797 149.726 80.1797 149.24V146.805C80.1797 147.291 80.5028 147.777 81.1329 148.142L85.1722 150.488C86.4343 151.229 88.4683 151.229 89.7232 150.488L93.732 148.142C94.3567 147.777 94.6637 147.305 94.6637 146.827Z" fill="#5496FB"/>
<path d="M83.447 153.344V155.779C83.447 156.258 83.131 156.735 82.5081 157.094L78.4993 159.448C77.2444 160.179 75.2104 160.179 73.9483 159.448L69.9162 157.094C69.2771 156.727 68.9629 156.243 68.9629 155.757V153.322C68.9629 153.808 69.286 154.294 69.9162 154.659L73.9555 157.006C75.2176 157.744 77.2516 157.744 78.5065 157.006L82.5153 154.659C83.14 154.292 83.447 153.821 83.447 153.344Z" fill="#5496FB"/>
<path d="M72.3433 159.795V162.23C72.3433 162.708 72.0274 163.185 71.4044 163.545L67.3938 165.898C66.1389 166.63 64.1049 166.63 62.8428 165.898L58.8107 163.545C58.1716 163.178 57.8574 162.694 57.8574 162.208V159.773C57.8574 160.259 58.1806 160.745 58.8107 161.11L62.85 163.456C64.1121 164.197 66.1461 164.197 67.401 163.456L71.4098 161.11C72.0345 160.743 72.3433 160.273 72.3433 159.795Z" fill="#5496FB"/>
<path d="M105.022 141.584L101.013 143.931C99.7581 144.672 97.7241 144.672 96.462 143.931L92.4227 141.584C91.1858 140.867 91.1212 139.688 92.4083 138.933L96.4171 136.586C97.672 135.855 99.706 135.862 100.968 136.593L105.007 138.94C106.23 139.65 106.302 140.833 105.022 141.584Z" fill="#8EC1FD"/>
<path d="M93.7327 148.142L89.7239 150.488C88.4691 151.229 86.435 151.229 85.173 150.488L81.1337 148.142C79.8985 147.426 79.8303 146.247 81.1193 145.49L85.1281 143.143C86.383 142.412 88.417 142.419 89.6791 143.15L93.7184 145.497C94.9445 146.209 95.011 147.392 93.7327 148.142Z" fill="#8EC1FD"/>
<path d="M82.516 154.659L78.5072 157.006C77.2523 157.744 75.2183 157.744 73.9562 157.006L69.9169 154.659C68.6836 153.944 68.6118 152.764 69.9025 152.007L73.9113 149.661C75.1662 148.929 77.2002 148.936 78.4623 149.668L82.5016 152.015C83.7278 152.724 83.7942 153.908 82.516 154.659Z" fill="#8EC1FD"/>
<path d="M71.4105 161.11L67.4017 163.456C66.1468 164.197 64.1128 164.197 62.8507 163.456L58.8114 161.11C57.5781 160.394 57.5063 159.215 58.7971 158.458L62.8059 156.112C64.0607 155.38 66.0948 155.387 67.3568 156.119L71.3961 158.465C72.6205 159.175 72.6923 160.358 71.4105 161.11Z" fill="#8EC1FD"/>
<path d="M117.902 147.211V149.646C117.902 150.125 117.586 150.602 116.963 150.961L112.954 153.315C111.699 154.047 109.665 154.047 108.403 153.315L104.371 150.961C103.732 150.595 103.418 150.111 103.418 149.625V147.19C103.418 147.676 103.741 148.162 104.371 148.526L108.411 150.873C109.673 151.614 111.707 151.614 112.961 150.873L116.97 148.526C117.593 148.162 117.902 147.69 117.902 147.211Z" fill="#5496FB"/>
<path d="M106.613 153.769V156.204C106.613 156.682 106.297 157.159 105.674 157.519L101.665 159.873C100.41 160.604 98.3764 160.604 97.1143 159.873L93.0822 157.519C92.4431 157.152 92.1289 156.666 92.1289 156.182V153.747C92.1289 154.233 92.4521 154.719 93.0822 155.084L97.1215 157.43C98.3836 158.171 100.418 158.171 101.672 157.43L105.681 155.084C106.306 154.719 106.613 154.247 106.613 153.769Z" fill="#5496FB"/>
<path d="M95.3962 160.286V162.721C95.3962 163.2 95.0802 163.677 94.4573 164.036L90.4485 166.39C89.1936 167.121 87.1596 167.121 85.8975 166.39L81.8654 164.036C81.2263 163.669 80.9121 163.185 80.9121 162.699V160.264C80.9121 160.75 81.2353 161.236 81.8654 161.601L85.9047 163.948C87.1668 164.688 89.2008 164.688 90.4557 163.948L94.4645 161.601C95.0892 161.234 95.3962 160.763 95.3962 160.286Z" fill="#5496FB"/>
<path d="M84.2925 166.737V169.173C84.2925 169.652 83.9766 170.129 83.3536 170.489L79.343 172.842C78.0881 173.574 76.0541 173.574 74.7921 172.842L70.7599 170.489C70.1208 170.122 69.8066 169.638 69.8066 169.152V166.717C69.8066 167.203 70.1298 167.689 70.7599 168.054L74.7992 170.4C76.0613 171.141 78.0953 171.141 79.3502 170.4L83.359 168.054C83.9837 167.685 84.2925 167.215 84.2925 166.737Z" fill="#FCDD7C"/>
<path d="M116.971 148.527L112.962 150.873C111.707 151.614 109.673 151.614 108.411 150.873L104.372 148.527C103.137 147.809 103.069 146.632 104.358 145.875L108.366 143.528C109.621 142.797 111.655 142.804 112.917 143.535L116.957 145.882C118.183 146.594 118.247 147.777 116.971 148.527Z" fill="#8EC1FD"/>
<path d="M105.682 155.084L101.673 157.43C100.418 158.171 98.3843 158.171 97.1222 157.43L93.0829 155.084C91.8477 154.369 91.7795 153.189 93.0685 152.432L97.0773 150.086C98.3322 149.354 100.366 149.361 101.628 150.093L105.668 152.439C106.894 153.151 106.96 154.334 105.682 155.084Z" fill="#8EC1FD"/>
<path d="M94.4651 161.6L90.4563 163.946C89.2015 164.687 87.1674 164.687 85.9054 163.946L81.8661 161.6C80.6291 160.882 80.5645 159.703 81.8517 158.948L85.8605 156.601C87.1154 155.87 89.1494 155.877 90.4115 156.608L94.4508 158.955C95.6769 159.667 95.7434 160.85 94.4651 161.6Z" fill="#8EC1FD"/>
<path d="M83.3597 168.052L79.3509 170.398C78.096 171.139 76.062 171.139 74.7999 170.398L70.7606 168.052C69.5255 167.336 69.4573 166.157 70.7463 165.4L74.7551 163.053C76.0099 162.322 78.044 162.329 79.306 163.061L83.3453 165.407C84.5715 166.119 84.6379 167.302 83.3597 168.052Z" fill="#FCECB8"/>
<path d="M130.046 154.267V156.702C130.046 157.181 129.73 157.658 129.108 158.017L125.097 160.371C123.842 161.103 121.808 161.103 120.546 160.371L116.514 158.017C115.875 157.651 115.561 157.167 115.561 156.681V154.246C115.561 154.732 115.884 155.217 116.514 155.582L120.553 157.929C121.815 158.668 123.849 158.668 125.104 157.929L129.113 155.582C129.739 155.217 130.046 154.746 130.046 154.267Z" fill="#5496FB"/>
<path d="M118.761 160.824V163.259C118.761 163.738 118.445 164.215 117.822 164.574L113.814 166.928C112.559 167.66 110.525 167.66 109.263 166.928L105.23 164.574C104.591 164.208 104.275 163.724 104.275 163.238V160.803C104.275 161.289 104.599 161.775 105.23 162.139L109.27 164.486C110.532 165.225 112.566 165.225 113.821 164.486L117.831 162.139C118.452 161.775 118.761 161.303 118.761 160.824Z" fill="#5496FB"/>
<path d="M107.544 167.342V169.777C107.544 170.256 107.228 170.733 106.606 171.092L102.597 173.446C101.342 174.177 99.3078 174.177 98.0458 173.446L94.0136 171.092C93.3745 170.725 93.0586 170.239 93.0586 169.755V167.32C93.0586 167.806 93.3817 168.292 94.0136 168.657L98.0529 171.004C99.315 171.742 101.349 171.742 102.604 171.004L106.615 168.657C107.236 168.29 107.544 167.819 107.544 167.342Z" fill="#5496FB"/>
<path d="M96.439 173.793V176.228C96.439 176.706 96.123 177.183 95.5001 177.543L91.4895 179.897C90.2346 180.628 88.2006 180.628 86.9385 179.897L82.9064 177.543C82.2673 177.176 81.9531 176.692 81.9531 176.206V173.771C81.9531 174.257 82.2763 174.743 82.9064 175.108L86.9457 177.454C88.2078 178.195 90.2418 178.195 91.4966 177.454L95.5054 175.108C96.132 174.741 96.439 174.271 96.439 173.793Z" fill="#FC5552"/>
<path d="M129.114 155.582L125.105 157.929C123.85 158.668 121.816 158.668 120.554 157.929L116.515 155.582C115.281 154.867 115.209 153.688 116.5 152.931L120.509 150.584C121.764 149.853 123.798 149.86 125.06 150.591L129.099 152.938C130.325 153.65 130.392 154.833 129.114 155.582Z" fill="#8EC1FD"/>
<path d="M117.83 162.14L113.82 164.486C112.565 165.225 110.531 165.225 109.269 164.486L105.229 162.14C103.992 161.422 103.928 160.243 105.215 159.488L109.224 157.141C110.479 156.41 112.513 156.417 113.775 157.149L117.814 159.495C119.042 160.207 119.108 161.39 117.83 162.14Z" fill="#8EC1FD"/>
<path d="M106.613 168.657L102.603 171.004C101.348 171.742 99.3139 171.742 98.0519 171.004L94.0126 168.657C92.7774 167.94 92.7092 166.76 93.9982 166.005L98.007 163.659C99.2619 162.927 101.296 162.934 102.558 163.666L106.597 166.013C107.825 166.722 107.892 167.906 106.613 168.657Z" fill="#8EC1FD"/>
<path d="M95.5061 175.108L91.4974 177.454C90.2425 178.195 88.2085 178.195 86.9464 177.454L82.9071 175.108C81.6702 174.391 81.6055 173.211 82.8927 172.456L86.9015 170.11C88.1564 169.378 90.1904 169.385 91.4525 170.117L95.4918 172.463C96.718 173.175 96.7844 174.358 95.5061 175.108Z" fill="#FC7464"/>
<path d="M141.998 161.209V163.644C141.998 164.123 141.682 164.6 141.059 164.959L137.048 167.313C135.793 168.045 133.759 168.045 132.497 167.313L128.465 164.959C127.826 164.593 127.512 164.108 127.512 163.623V161.188C127.512 161.673 127.835 162.159 128.465 162.524L132.504 164.871C133.766 165.61 135.8 165.61 137.055 164.871L141.064 162.524C141.691 162.158 141.998 161.688 141.998 161.209Z" fill="#0B45B2"/>
<path d="M130.712 167.766V170.201C130.712 170.68 130.396 171.157 129.773 171.516L125.765 173.87C124.51 174.602 122.476 174.602 121.214 173.87L117.182 171.516C116.542 171.15 116.227 170.666 116.227 170.18V167.745C116.227 168.231 116.55 168.717 117.182 169.081L121.221 171.428C122.483 172.167 124.517 172.167 125.772 171.428L129.782 169.081C130.404 168.715 130.712 168.245 130.712 167.766Z" fill="#0B45B2"/>
<path d="M119.497 174.282V176.717C119.497 177.196 119.181 177.673 118.559 178.032L114.548 180.386C113.293 181.117 111.259 181.117 109.997 180.386L105.965 178.032C105.326 177.665 105.01 177.179 105.01 176.695V174.26C105.01 174.746 105.333 175.232 105.965 175.597L110.004 177.943C111.266 178.682 113.3 178.682 114.555 177.943L118.566 175.597C119.189 175.232 119.497 174.761 119.497 174.282Z" fill="#0B45B2"/>
<path d="M108.39 180.735V183.17C108.39 183.648 108.074 184.125 107.451 184.485L103.441 186.838C102.186 187.57 100.152 187.57 98.8897 186.838L94.8575 184.485C94.2184 184.118 93.9043 183.632 93.9043 183.148V180.713C93.9043 181.199 94.2274 181.685 94.8575 182.05L98.8968 184.396C100.159 185.137 102.193 185.137 103.448 184.396L107.457 182.05C108.083 181.683 108.39 181.213 108.39 180.735Z" fill="#0B45B2"/>
<path d="M141.065 162.524L137.056 164.871C135.801 165.61 133.767 165.61 132.505 164.871L128.466 162.524C127.229 161.807 127.164 160.628 128.451 159.873L132.46 157.526C133.715 156.794 135.749 156.802 137.011 157.533L141.05 159.88C142.276 160.592 142.343 161.775 141.065 162.524Z" fill="#8EC1FD"/>
<path d="M129.781 169.081L125.771 171.428C124.516 172.167 122.482 172.167 121.22 171.428L117.181 169.081C115.944 168.364 115.879 167.185 117.166 166.43L121.175 164.083C122.43 163.352 124.464 163.359 125.726 164.09L129.765 166.437C130.991 167.147 131.061 168.33 129.781 169.081Z" fill="#8EC1FD"/>
<path d="M118.565 175.597L114.555 177.944C113.3 178.683 111.266 178.683 110.004 177.944L105.964 175.597C104.727 174.88 104.661 173.701 105.95 172.946L109.959 170.599C111.214 169.867 113.248 169.875 114.51 170.606L118.549 172.953C119.773 173.663 119.847 174.846 118.565 175.597Z" fill="#8EC1FD"/>
<path d="M107.457 182.05L103.449 184.396C102.194 185.137 100.16 185.137 98.8976 184.396L94.8583 182.05C93.6213 181.333 93.5567 180.153 94.8439 179.398L98.8527 177.051C100.108 176.32 102.142 176.327 103.404 177.059L107.443 179.405C108.669 180.117 108.736 181.3 107.457 182.05Z" fill="#8EC1FD"/>
<path d="M47.1836 163.449C103.915 196.154 98.3985 192.884 97.8922 192.884L150.145 162.696C150.098 162.734 164.792 147.322 164.792 147.322L150.378 163.037L98.0664 193.594L47.1836 163.449Z" fill="#71AAF9"/>
</svg>
