<svg width="62" height="60" viewBox="0 0 62 60" fill="none" xmlns="http://www.w3.org/2000/svg">
<path d="M49.9816 3.00879C49.9897 3.79294 49.4829 4.58251 48.459 5.19109C46.4119 6.40878 43.0727 6.444 41.0008 5.26912C39.9652 4.68168 39.4417 3.90295 39.4336 3.1188L39.6178 20.9793C39.6259 21.7635 40.1488 22.5422 41.1845 23.1297C43.2564 24.3045 46.5956 24.2698 48.6427 23.0516C49.6665 22.4425 50.1733 21.6529 50.1652 20.8693L49.9816 3.00879Z" fill="#5195FB"/>
<path d="M48.4141 0.858892C46.3423 -0.315986 43.0031 -0.281296 40.956 0.936935C38.9088 2.15517 38.9288 4.09469 41.0007 5.26956C43.0726 6.44444 46.4117 6.40976 48.4589 5.19153C50.506 3.9733 50.486 2.03377 48.4141 0.858892Z" fill="#69A4FC"/>
<path d="M61.8206 18.3098L55.4434 22.1038L55.5225 29.7502L61.8998 25.9563L61.8206 18.3098Z" fill="#99C1FD"/>
<path d="M55.4426 22.1037L48.9883 18.4436L49.0675 26.0906L55.5217 29.7502L55.4426 22.1037Z" fill="#81B2FC"/>
<path d="M61.8198 18.3098L55.3655 14.6497L48.9883 18.4436L55.4426 22.1037L61.8198 18.3098Z" fill="#C9DEFE"/>
<path d="M6.7287 44.7548V48.8159L5.32031 47.9976V43.9365L6.7287 44.7548Z" fill="#FF8980"/>
<path d="M6.72795 43.0516L3.23259 45.0822L1.82422 44.2644L5.31956 42.2339L6.72795 43.0516Z" fill="#FC9F9C"/>
<path d="M11.6908 40.1696L8.19548 42.2002L6.78711 41.3819L10.2825 39.3513L11.6908 40.1696Z" fill="#FC9F9C"/>
<path d="M8.19469 38.1391L6.7287 38.9905L5.32031 38.1722L6.78632 37.3208L8.19469 38.1391Z" fill="#FC9F9C"/>
<path d="M6.7287 38.9904V43.0515L5.32031 42.2338V38.1721L6.7287 38.9904Z" fill="#FF8980"/>
<path d="M3.23259 45.0822V46.7854L1.82422 45.9671V44.2644L3.23259 45.0822Z" fill="#FF8980"/>
<path d="M11.6891 40.1697V41.873L8.19378 43.9035V47.9647L6.72778 48.816V44.7549L3.23242 46.7854V45.0822L6.72778 43.0516V38.9905L8.19378 38.1392V42.2003L11.6891 40.1697Z" fill="#FF6666"/>
<path d="M25.2356 16.7214L27.1815 13.3306L28.9862 14.3787L30.3111 12.069L28.5064 11.021L30.4522 7.62963L29.1268 6.86011L27.1809 10.2509L25.3767 9.20228L24.0513 11.5119L25.856 12.5605L23.9102 15.9513L25.2356 16.7214Z" fill="#FF6666"/>
<path d="M28.1136 6.27751L26.168 9.66821L27.1801 10.2562L29.1257 6.86549L28.1136 6.27751Z" fill="#FF8980"/>
<path d="M24.8421 11.9782L22.8965 15.3689L23.9086 15.9569L25.8542 12.5662L24.8421 11.9782Z" fill="#FF8980"/>
<path d="M24.3642 8.621L23.0391 10.9304L24.0512 11.5184L25.3763 9.20898L24.3642 8.621Z" fill="#FF8980"/>
<path d="M41.0627 18.0812C40.8317 18.2156 40.668 18.5933 40.668 19.3125C40.668 20.4667 41.0676 21.149 41.5841 21.4487C41.8162 21.5836 42.0236 21.6199 42.1857 21.5256L42.9273 21.0948C42.7646 21.1891 42.5578 21.1523 42.3257 21.0179C41.8097 20.7182 41.4096 20.0365 41.4096 18.8816C41.4096 18.1625 41.5728 17.7848 41.8044 17.6504L41.0627 18.0812Z" fill="#E84343"/>
<path d="M42.8979 22.7076C44.0214 22.0551 43.8286 18.331 41.6344 17.0565C41.1266 16.7616 40.6688 16.7194 40.3203 16.9215L41.0619 16.4907C41.4104 16.288 41.8682 16.3303 42.3761 16.6256C43.4985 17.2775 44.3112 18.7993 44.3112 20.4483C44.3112 21.4059 44.0645 22.0302 43.639 22.2767L42.8979 22.7076Z" fill="#FF8980"/>
<path d="M40.6667 19.3124C40.6667 20.4667 41.0663 21.149 41.5828 21.4487C42.1375 21.7711 42.5506 21.531 42.5506 20.2873C42.5506 19.1477 42.0988 18.4058 41.6216 18.1289C41.1439 17.8509 40.6667 18.0834 40.6667 19.3124ZM39.6348 18.7125C39.6348 15.0037 43.5696 17.2136 43.5696 20.8786C43.5696 22.6024 42.7698 23.2468 41.5699 22.5499C40.4087 21.8757 39.6348 20.3616 39.6348 18.7125Z" fill="#FF6666"/>
<path d="M47.1252 26.7604C46.8942 26.8948 46.7305 27.2725 46.7305 27.9916C46.7305 29.1459 47.1306 29.8282 47.6466 30.1279C47.8787 30.2628 48.0861 30.2991 48.2487 30.2048L48.9903 29.774C48.8277 29.8683 48.6203 29.832 48.3882 29.6971C47.8722 29.3974 47.4721 28.7151 47.4721 27.5608C47.4721 26.8417 47.6353 26.464 47.8669 26.3296L47.1252 26.7604Z" fill="#E84343"/>
<path d="M48.9624 31.3868C50.0853 30.7348 49.893 27.0102 47.6989 25.7356C47.191 25.4408 46.7332 25.3986 46.3848 25.6007L47.1264 25.1699C47.4748 24.9672 47.9326 25.0095 48.4405 25.3048C49.5629 25.9567 50.3756 27.4784 50.3756 29.127C50.3756 30.0845 50.1289 30.7088 49.704 30.9559L48.9624 31.3868Z" fill="#FF8980"/>
<path d="M46.7311 27.9917C46.7311 29.146 47.1313 29.8282 47.6472 30.1279C48.202 30.4504 48.6151 30.2103 48.6151 28.9661C48.6151 27.8269 48.1632 27.0851 47.686 26.8076C47.2088 26.5307 46.7311 26.7626 46.7311 27.9917ZM45.6992 27.3923C45.6992 23.6824 49.634 25.8939 49.634 29.5584C49.634 31.2822 48.8343 31.9271 47.6343 31.2302C46.4732 30.5555 45.6992 29.0414 45.6992 27.3923Z" fill="#FF6666"/>
<path d="M42.4355 28.2542L47.88 20.7443L48.6216 20.3135L43.1772 27.8234L42.4355 28.2542Z" fill="#E84343"/>
<path d="M47.8807 20.7443L46.5391 19.9645L47.2807 19.5337L48.6223 20.3135L47.8807 20.7443Z" fill="#FF8980"/>
<path d="M42.4353 28.2543L41.0938 27.4745L46.5382 19.9646L47.8798 20.7444L42.4353 28.2543Z" fill="#FF6666"/>
<path d="M20.2573 16.3969L19.7537 16.3514L18.6367 15.7021L19.1403 15.7477L20.2573 16.3969Z" fill="#E1EDFF"/>
<path d="M19.7537 16.3514V19.5601L18.6367 18.9108V15.7021L19.7537 16.3514Z" fill="#88BEFF"/>
<path d="M19.7537 19.5601L22.2247 37.9539L21.1077 37.3047L18.6367 18.9109L19.7537 19.5601Z" fill="#1C6DF6"/>
<path d="M20.2575 16.3968L22.5911 35.3488L22.2249 37.9538L19.7539 19.56V16.3513L20.2575 16.3968Z" fill="#81B2FC"/>
<path d="M19.8667 15.417L18.5779 16.166L17.3672 15.4626L18.6565 14.7136L19.8667 15.417Z" fill="#B1D0FE"/>
<path d="M18.5779 16.166V19.9687C18.5779 20.1752 18.6501 20.3209 18.7664 20.3881L17.5557 19.6847C17.4394 19.617 17.3672 19.4718 17.3672 19.2653V15.4626L18.5779 16.166Z" fill="#81B2FC"/>
<path d="M19.1653 12.2605C19.1653 15.6757 19.1917 15.4323 19.1023 15.5315C18.8874 15.7694 18.3133 15.7483 18.1248 15.5288C18.0375 15.4302 18.0645 15.6475 18.0645 12.2605C18.0645 12.4404 18.3031 12.5466 18.4819 12.5705C18.7608 12.6149 19.1653 12.4984 19.1653 12.2605Z" fill="#81B2FC"/>
<path d="M18.1714 15.5727C18.1536 15.5586 18.1385 15.5445 18.125 15.5288V12.4058C18.1914 12.4833 18.1714 12.1012 18.1714 15.5727Z" fill="#81B2FC"/>
<path d="M18.3282 12.5319V15.655C18.312 15.6496 18.2958 15.6431 18.2812 15.636V12.5129C18.2958 12.5205 18.312 12.527 18.3282 12.5319Z" fill="#81B2FC"/>
<path d="M18.482 12.5701V15.6926C18.4658 15.691 18.4512 15.6883 18.4355 15.685V12.5625C18.4507 12.5658 18.4658 12.5679 18.482 12.5701Z" fill="#81B2FC"/>
<path d="M18.6363 12.5791V15.7022C18.6363 15.7022 18.5996 15.7027 18.5898 15.7016V12.5791C18.6006 12.5802 18.626 12.5802 18.6363 12.5791Z" fill="#81B2FC"/>
<path d="M18.7925 12.563V15.6855C18.7769 15.6893 18.7623 15.6909 18.7461 15.6931V12.5706C18.7623 12.569 18.7774 12.5657 18.7925 12.563Z" fill="#81B2FC"/>
<path d="M18.9474 12.5142V15.6372C18.9328 15.6443 18.9166 15.6508 18.9004 15.6557V12.5326C18.9166 12.5277 18.9328 12.5212 18.9474 12.5142Z" fill="#81B2FC"/>
<path d="M19.1027 12.4084V15.5315C19.0886 15.5472 19.0729 15.5613 19.0557 15.5754C19.0557 12.1066 19.0352 12.4832 19.1027 12.4084Z" fill="#81B2FC"/>
<path d="M18.0645 12.2604C18.0645 12.0837 18.3106 11.9407 18.6149 11.9407C18.9186 11.9407 19.1653 12.0837 19.1653 12.2604C19.1653 12.4371 18.9186 12.5801 18.6149 12.5801C18.3111 12.5801 18.0645 12.4365 18.0645 12.2604Z" fill="#E1EDFF"/>
<path d="M18.5419 16.9902L18.0146 17.6502L16.8438 16.9701L17.371 16.3101L18.5419 16.9902Z" fill="#E1EDFF"/>
<path d="M18.0139 17.6503L15.5688 40.3485L14.3984 39.6684L16.843 16.9702L18.0139 17.6503Z" fill="#88BEFF"/>
<path d="M18.5408 16.9902V20.3517L15.9518 42.6322L15.5684 40.3485L18.0135 17.6503L18.5408 16.9902Z" fill="#81B2FC"/>
<path d="M18.6109 19.9242C17.9447 20.0423 17.8429 19.1471 18.2888 18.3705C18.382 18.2079 18.4919 18.0627 18.6109 17.9397V17.8438C17.7454 18.6734 17.7276 20.1371 18.6109 19.9946V19.9242Z" fill="#1C6DF6"/>
<path d="M19.8655 15.417V19.2196C19.8655 19.6331 19.5768 20.136 19.2208 20.343C18.8675 20.5484 18.5762 20.3853 18.5762 19.9686V16.1659L19.8655 15.417Z" fill="#69A4FC"/>
<path d="M19.1813 16.9332C19.1086 16.8909 19.1662 16.7235 19.2594 16.6693C19.3197 16.6341 19.3698 16.6617 19.3698 16.7333C19.3693 16.8433 19.2524 16.9744 19.1813 16.9332Z" fill="#1C6DF6"/>
<path d="M19.2307 19.2041C19.2037 19.1884 19.2264 19.1245 19.2598 19.105C19.2825 19.092 19.3014 19.1023 19.3014 19.1288C19.3014 19.1678 19.2582 19.2199 19.2307 19.2041Z" fill="#1C6DF6"/>
<path d="M15.9522 42.6322L15.0372 42.1065L14.3984 39.6685L15.5688 40.3486L15.9522 42.6322Z" fill="#81B2FC"/>
<path d="M15.4534 41.8658C15.4534 41.8658 15.2439 41.7758 15.1766 41.9617C15.1092 42.1476 15.2487 44.9877 15.2487 44.9877L15.5697 42.412C15.5697 42.412 15.7173 42.0186 15.4534 41.8658Z" fill="#1C6DF6"/>
<path d="M21.7952 37.2266C21.7952 37.2266 21.5857 37.1366 21.5184 37.3225C21.451 37.5084 21.5905 40.3486 21.5905 40.3486L21.9115 37.7728C21.9115 37.7728 22.0591 37.3794 21.7952 37.2266Z" fill="#1C6DF6"/>
<path d="M5.32899 27.3412L9.58051 35.2315L7.39605 33.9623L3.14453 26.072L5.32899 27.3412Z" fill="#FCD561"/>
<path d="M15.2011 12.1317L10.976 14.5861L8.79102 13.3169L13.0161 10.8625L15.2011 12.1317Z" fill="#FCEAB2"/>
<path d="M10.9757 14.5861L8.78798 28.0283L6.60352 26.7592L8.79067 13.3169L10.9757 14.5861Z" fill="#FCD561"/>
<path d="M6.67077 24.0956L2.28461 26.6431L0.0996094 25.3745L4.48577 22.8264L6.67077 24.0956Z" fill="#FCEAB2"/>
<path d="M2.28461 26.6431V29.1105L0.0996094 27.8413V25.3745L2.28461 26.6431Z" fill="#FCD96E"/>
<path d="M15.2009 12.1318V14.5992L12.7014 16.051L9.58036 35.2316L5.32884 27.3413L2.2832 29.1107V26.6433L6.66936 24.0958L8.78811 28.0284L10.9758 14.5862L15.2009 12.1318Z" fill="#FEB30F"/>
<path d="M37.4602 24.0036C37.3142 24.0887 37.1877 24.1619 37.0616 24.2356L35.9102 23.5668C36.0367 23.4931 36.1627 23.42 36.3092 23.3354L37.4602 24.0036Z" fill="#EAAC88"/>
<path d="M37.0619 24.2356C37.028 24.4177 37.0042 24.5857 36.9633 24.7575C36.8201 25.3558 36.5298 25.8635 36.0644 26.2369C35.6024 26.6076 35.1661 26.7122 34.8683 26.5393L33.7168 25.8706C34.0146 26.0435 34.4509 25.9389 34.913 25.5682C35.3783 25.1954 35.6686 24.687 35.8119 24.0888C35.8528 23.917 35.8765 23.749 35.9104 23.5669L37.0619 24.2356Z" fill="#FEB30F"/>
<path d="M33.5435 19.4119C33.5435 20.7218 32.3775 28.2268 33.9313 29.1296L32.7798 28.4609C32.6107 28.3628 32.469 28.2029 32.3646 27.9829C31.4538 26.0694 32.392 19.6022 32.392 18.7427L33.5435 19.4119Z" fill="#FCD96E"/>
<path d="M29.6251 21.6875C29.603 22.0625 29.3682 25.5292 29.2405 26.9317C29.1371 28.0686 28.8161 29.244 28.2242 30.4438C27.9086 31.0833 27.3157 32.5053 27.9264 32.8597L26.7749 32.191C26.3064 31.9189 26.5665 31.0589 26.7399 30.5457C27.0071 29.7556 27.8866 28.4886 28.0891 26.2629C28.2167 24.8605 28.4515 21.3938 28.4736 21.0188L29.6251 21.6875Z" fill="#FCD96E"/>
<path d="M37.4478 15.2024C28.0857 20.6411 30.7695 19.0766 29.4715 19.8689C27.7583 20.9142 26.9488 23.277 26.5422 25.2891C26.5519 25.307 25.4004 24.6383 25.4004 24.6383C25.7962 22.6148 26.6095 20.245 28.3205 19.2001C29.6185 18.4079 26.9348 19.9724 36.2968 14.5337L37.4478 15.2024Z" fill="#FCEAB2"/>
<path d="M37.4481 15.2024C37.4481 15.8494 37.4481 16.4792 37.4481 17.1289C36.5762 17.6356 35.709 18.139 34.8193 18.656C34.7633 19.1687 34.4585 23.3637 34.3944 24.9472C34.3771 25.3699 34.4423 25.7682 34.5495 26.102C34.7811 26.8211 35.4678 26.7154 36.065 26.2364C36.5304 25.8635 36.8207 25.3552 36.9639 24.7569C37.0049 24.5852 37.0286 24.4172 37.0625 24.2351C37.1891 24.1614 37.3151 24.0882 37.461 24.0031C37.3442 25.0322 37.2052 26.0538 36.6849 27.1425C36.365 27.8117 35.9568 28.403 35.4247 28.8154C34.8565 29.2554 34.3217 29.3546 33.9323 29.1286C32.3774 28.2252 33.5445 20.5815 33.5445 19.4109C32.6612 19.9241 31.7877 20.4314 30.8942 20.9505C30.6551 24.5494 30.5425 27.6324 29.8817 30.5956C29.6845 31.4789 29.1201 32.8792 28.2169 32.9226C27.7629 32.9442 27.6148 32.5286 27.6746 32.0647C27.7451 31.5147 27.9896 30.9207 28.2255 30.4427C28.8174 29.2424 29.1384 28.0675 29.2418 26.9306C29.3695 25.5281 29.6043 22.0615 29.6264 21.6864C28.4943 22.3015 27.8701 22.8147 27.1107 24.6963C26.9669 25.0528 26.8113 25.242 26.5527 25.3059C26.9486 23.2829 27.7618 20.9126 29.4729 19.8678C30.7692 19.0766 28.0861 20.6411 37.4481 15.2024Z" fill="#FEB30F"/>
<path d="M57.3088 38.1325C57.3088 37.0746 56.6167 36.0163 55.2298 35.2104C52.4815 33.614 48.0194 33.6004 45.2441 35.1725V35.7616C48.0194 34.19 52.4815 34.203 55.2298 35.8C56.6167 36.6059 57.3088 37.6637 57.3088 38.7221V38.1325Z" fill="#FEB30F"/>
<path d="M57.5605 42.3273C59.5247 41.1648 60.5076 39.6491 60.5076 38.1328V38.7219C60.5076 40.2382 59.5247 41.7539 57.5605 42.9163V42.3273Z" fill="#FEB30F"/>
<path d="M38.5645 33.9211L57.4496 44.8923V45.4813L38.5645 34.5102V33.9211Z" fill="#FEB30F"/>
<path d="M57.4492 44.8923L59.7123 43.5776V44.1667L57.4492 45.4814V44.8923Z" fill="#EAAC88"/>
<path d="M57.5605 42.3274C61.5126 39.9885 61.49 36.2179 57.4927 33.8958C53.4954 31.5736 47.005 31.5606 42.9791 33.8562L40.8275 32.606L38.5645 33.9207L57.4496 44.8918L59.7127 43.5771L57.5605 42.3274ZM45.2444 35.1725C48.0197 33.6009 52.4818 33.614 55.2301 35.2104C57.9806 36.8086 58.0011 39.3995 55.2958 41.0117L45.2444 35.1725Z" fill="#FCD561"/>
<path d="M45.1724 48.7118L29.9043 39.7902L34.2619 35.1243L49.5359 44.0459L45.1724 48.7118Z" fill="#478EFB"/>
<path d="M31.7817 38.7616L33.8714 36.524C34.1725 36.2016 34.6545 36.1311 35.0342 36.3528L47.4376 43.6009C47.9632 43.9082 48.0682 44.6284 47.6514 45.0739L45.5622 47.3114C45.2612 47.6339 44.7792 47.7049 44.3995 47.4827L31.9956 40.2345C31.4699 39.9278 31.3654 39.2076 31.7817 38.7616Z" fill="#202A5F"/>
<path d="M44.8733 47.6116C44.5884 47.6116 45.532 48.1134 32.1075 40.2653C31.7047 40.0296 31.6266 39.479 31.9438 39.1392L34.0335 36.9022C34.1692 36.7564 34.3615 36.673 34.5602 36.673C34.8446 36.673 33.9015 36.1711 47.326 44.0192C47.7278 44.2538 47.808 44.8039 47.4897 45.1453L45.4006 47.3829C45.2644 47.5281 45.0721 47.6116 44.8733 47.6116Z" fill="#8EC1FD"/>
<path d="M29.5195 57.8063L14.252 48.8847L29.9029 39.7903L45.171 48.7119L29.5195 57.8063Z" fill="#4489F4"/>
<path d="M29.5195 60L14.252 51.0779V48.8848L29.5195 57.8064V60Z" fill="#1C6DF6"/>
<path d="M49.5346 44.0459V48.3709L29.5195 59.9999V57.8063L45.171 48.7118L49.5346 44.0459Z" fill="#0B45B2"/>
<path d="M31.8843 41.9308V42.6613C31.8843 42.8049 31.7895 42.948 31.6026 43.0558L30.4 43.762C30.0235 43.9814 29.4133 43.9814 29.0347 43.762L27.825 43.0558C27.6333 42.9458 27.5391 42.8006 27.5391 42.6548V41.9243C27.5391 42.0701 27.636 42.2159 27.825 42.3253L29.0368 43.0293C29.4155 43.2515 30.0257 43.2515 30.4021 43.0293L31.6048 42.3253C31.7917 42.2159 31.8843 42.0744 31.8843 41.9308Z" fill="#5496FB"/>
<path d="M28.4976 43.8981V44.6286C28.4976 44.7722 28.4028 44.9153 28.2159 45.0231L27.0132 45.7292C26.6368 45.9487 26.0266 45.9487 25.648 45.7292L24.4383 45.0231C24.2466 44.9131 24.1523 44.7679 24.1523 44.6221V43.8916C24.1523 44.0374 24.2493 44.1832 24.4383 44.2926L25.6501 44.9966C26.0287 45.2188 26.6389 45.2188 27.0154 44.9966L28.218 44.2926C28.4055 44.1832 28.4976 44.0417 28.4976 43.8981Z" fill="#5496FB"/>
<path d="M25.1323 45.8532V46.5837C25.1323 46.7273 25.0375 46.8704 24.8507 46.9782L23.648 47.6843C23.2716 47.9038 22.6614 47.9038 22.2827 47.6843L21.0731 46.9782C20.8814 46.8682 20.7871 46.723 20.7871 46.5772V45.8467C20.7871 45.9925 20.8841 46.1382 21.0731 46.2477L22.2849 46.9517C22.6635 47.1733 23.2737 47.1733 23.6502 46.9517L24.8528 46.2477C25.0402 46.1377 25.1323 45.9963 25.1323 45.8532Z" fill="#5496FB"/>
<path d="M21.8008 47.7885V48.519C21.8008 48.6626 21.7061 48.8057 21.5192 48.9135L20.316 49.6196C19.9395 49.8391 19.3293 49.8391 18.9507 49.6196L17.7411 48.9135C17.5493 48.8035 17.4551 48.6583 17.4551 48.5125V47.782C17.4551 47.9278 17.552 48.0735 17.7411 48.183L18.9529 48.887C19.3315 49.1091 19.9417 49.1091 20.3181 48.887L21.5208 48.183C21.7082 48.073 21.8008 47.9321 21.8008 47.7885Z" fill="#5496FB"/>
<path d="M31.605 42.3254L30.4023 43.0293C30.0259 43.2515 29.4157 43.2515 29.037 43.0293L27.8252 42.3254C27.4542 42.1102 27.4348 41.7564 27.8209 41.5298L29.0236 40.8259C29.4 40.6064 30.0102 40.6086 30.3889 40.828L31.6006 41.532C31.9674 41.745 31.989 42.0999 31.605 42.3254Z" fill="#8EC1FD"/>
<path d="M28.2183 44.2924L27.0156 44.9964C26.6392 45.2185 26.0289 45.2185 25.6503 44.9964L24.4385 44.2924C24.068 44.0778 24.0475 43.7239 24.4342 43.4969L25.6369 42.7929C26.0133 42.5734 26.6235 42.5756 27.0022 42.7951L28.214 43.499C28.5818 43.7126 28.6017 44.0675 28.2183 44.2924Z" fill="#8EC1FD"/>
<path d="M24.853 46.2477L23.6504 46.9517C23.2739 47.1733 22.6637 47.1733 22.2851 46.9517L21.0733 46.2477C20.7033 46.0331 20.6818 45.6793 21.069 45.4522L22.2716 44.7482C22.6481 44.5288 23.2583 44.5309 23.6369 44.7504L24.8487 45.4544C25.2166 45.6673 25.2365 46.0223 24.853 46.2477Z" fill="#8EC1FD"/>
<path d="M21.521 48.183L20.3184 48.887C19.9419 49.1092 19.3317 49.1092 18.9531 48.887L17.7413 48.183C17.3713 47.9684 17.3497 47.6146 17.737 47.3875L18.9396 46.6835C19.3161 46.4641 19.9263 46.4662 20.3049 46.6857L21.5167 47.3897C21.884 47.6026 21.9055 47.9576 21.521 48.183Z" fill="#8EC1FD"/>
<path d="M35.4702 44.0136V44.7441C35.4702 44.8877 35.3754 45.0308 35.1885 45.1386L33.9859 45.8447C33.6094 46.0642 32.9992 46.0642 32.6206 45.8447L31.411 45.1386C31.2192 45.0286 31.125 44.8834 31.125 44.7376V44.0071C31.125 44.1529 31.2219 44.2986 31.411 44.4081L32.6228 45.1121C33.0014 45.3342 33.6116 45.3342 33.9881 45.1121L35.1907 44.4081C35.3776 44.2986 35.4702 44.1572 35.4702 44.0136Z" fill="#5496FB"/>
<path d="M32.0835 45.9809V46.7114C32.0835 46.855 31.9887 46.998 31.8018 47.1059L30.5992 47.812C30.2227 48.0315 29.6125 48.0315 29.2339 47.812L28.0243 47.1059C27.8325 46.9959 27.7383 46.8501 27.7383 46.7049V45.9744C27.7383 46.1201 27.8352 46.2659 28.0243 46.3754L29.2361 47.0793C29.6147 47.3015 30.2249 47.3015 30.6014 47.0793L31.804 46.3754C31.9914 46.2659 32.0835 46.1245 32.0835 45.9809Z" fill="#5496FB"/>
<path d="M28.7183 47.9359V48.6665C28.7183 48.8101 28.6235 48.9531 28.4366 49.061L27.234 49.7671C26.8575 49.9866 26.2473 49.9866 25.8687 49.7671L24.659 49.061C24.4673 48.951 24.373 48.8057 24.373 48.6599V47.9294C24.373 48.0752 24.47 48.221 24.659 48.3305L25.8708 49.0344C26.2494 49.2566 26.8597 49.2566 27.2361 49.0344L28.4388 48.3305C28.6262 48.2205 28.7183 48.079 28.7183 47.9359Z" fill="#5496FB"/>
<path d="M25.3868 49.8712V50.6022C25.3868 50.7459 25.292 50.8889 25.1051 50.9968L23.9019 51.7029C23.5255 51.9224 22.9153 51.9224 22.5366 51.7029L21.327 50.9968C21.1353 50.8867 21.041 50.7415 21.041 50.5957V49.8652C21.041 50.011 21.138 50.1568 21.327 50.2663L22.5388 50.9702C22.9174 51.1924 23.5276 51.1924 23.9041 50.9702L25.1067 50.2663C25.2941 50.1557 25.3868 50.0148 25.3868 49.8712Z" fill="#FCDD7C"/>
<path d="M35.1909 44.4081L33.9883 45.1121C33.6118 45.3343 33.0016 45.3343 32.623 45.1121L31.4112 44.4081C31.0407 44.193 31.0202 43.8397 31.4069 43.6126L32.6095 42.9086C32.986 42.6892 33.5962 42.6913 33.9748 42.9108L35.1866 43.6148C35.5545 43.8283 35.5738 44.1832 35.1909 44.4081Z" fill="#8EC1FD"/>
<path d="M31.8042 46.3754L30.6016 47.0794C30.2251 47.3016 29.6149 47.3016 29.2363 47.0794L28.0245 46.3754C27.6539 46.1608 27.6335 45.8069 28.0202 45.5799L29.2228 44.8759C29.5993 44.6565 30.2095 44.6586 30.5881 44.8781L31.7999 45.582C32.1677 45.7956 32.1877 46.1505 31.8042 46.3754Z" fill="#8EC1FD"/>
<path d="M28.439 48.33L27.2363 49.034C26.8599 49.2561 26.2496 49.2561 25.871 49.034L24.6592 48.33C24.2882 48.1149 24.2688 47.761 24.6549 47.5345L25.8576 46.8305C26.234 46.611 26.8442 46.6132 27.2229 46.8327L28.4346 47.5366C28.8025 47.7502 28.8224 48.1051 28.439 48.33Z" fill="#8EC1FD"/>
<path d="M25.1069 50.2658L23.9043 50.9697C23.5278 51.1919 22.9176 51.1919 22.539 50.9697L21.3272 50.2658C20.9567 50.0512 20.9362 49.6973 21.3229 49.4703L22.5255 48.7663C22.902 48.5468 23.5122 48.549 23.8908 48.7685L25.1026 49.4724C25.4705 49.6859 25.4904 50.0409 25.1069 50.2658Z" fill="#FCECB8"/>
<path d="M39.1114 46.13V46.8605C39.1114 47.0042 39.0166 47.1472 38.8297 47.2551L37.6265 47.9612C37.2501 48.1807 36.6399 48.1807 36.2613 47.9612L35.0516 47.2551C34.8599 47.145 34.7656 46.9998 34.7656 46.854V46.1235C34.7656 46.2693 34.8626 46.4151 35.0516 46.5246L36.2634 47.2285C36.642 47.4502 37.2522 47.4502 37.6287 47.2285L38.8313 46.5246C39.0193 46.4151 39.1114 46.2736 39.1114 46.13Z" fill="#5496FB"/>
<path d="M35.7266 48.0971V48.8276C35.7266 48.9712 35.6318 49.1143 35.4449 49.2221L34.2423 49.9282C33.8658 50.1477 33.2556 50.1477 32.877 49.9282L31.6674 49.2221C31.4757 49.1121 31.3809 48.9669 31.3809 48.8211V48.0906C31.3809 48.2364 31.4778 48.3821 31.6674 48.4916L32.8792 49.1955C33.2578 49.4172 33.868 49.4172 34.2445 49.1955L35.4476 48.4916C35.634 48.3821 35.7266 48.2407 35.7266 48.0971Z" fill="#5496FB"/>
<path d="M32.3614 50.0524V50.7829C32.3614 50.9265 32.2666 51.0696 32.0797 51.1774L30.8771 51.8835C30.5006 52.103 29.8904 52.103 29.5118 51.8835L28.3021 51.1774C28.1104 51.0674 28.0156 50.9216 28.0156 50.7764V50.0459C28.0156 50.1917 28.1126 50.3374 28.3021 50.4469L29.5139 51.1509C29.8925 51.3725 30.5028 51.3725 30.8792 51.1509L32.0824 50.4469C32.2687 50.3369 32.3614 50.1955 32.3614 50.0524Z" fill="#5496FB"/>
<path d="M29.0294 51.9877V52.7182C29.0294 52.8618 28.9346 53.0049 28.7477 53.1127L27.5445 53.8189C27.168 54.0383 26.5578 54.0383 26.1792 53.8189L24.9696 53.1127C24.7778 53.0027 24.6836 52.8575 24.6836 52.7117V51.9812C24.6836 52.127 24.7805 52.2728 24.9696 52.3822L26.1814 53.0862C26.56 53.3084 27.1702 53.3084 27.5466 53.0862L28.7493 52.3822C28.9372 52.2722 29.0294 52.1313 29.0294 51.9877Z" fill="#FC5552"/>
<path d="M38.8315 46.5246L37.6289 47.2285C37.2524 47.4502 36.6422 47.4502 36.2636 47.2285L35.0518 46.5246C34.6818 46.31 34.6603 45.9561 35.0475 45.7291L36.2502 45.0251C36.6266 44.8056 37.2368 44.8078 37.6154 45.0273L38.8272 45.7312C39.1951 45.9447 39.215 46.2997 38.8315 46.5246Z" fill="#8EC1FD"/>
<path d="M35.4473 48.4916L34.2441 49.1956C33.8677 49.4172 33.2575 49.4172 32.8788 49.1956L31.667 48.4916C31.296 48.2765 31.2766 47.9226 31.6627 47.6961L32.8654 46.9921C33.2418 46.7727 33.852 46.7748 34.2307 46.9943L35.4425 47.6983C35.8108 47.9118 35.8308 48.2667 35.4473 48.4916Z" fill="#8EC1FD"/>
<path d="M32.0821 50.4469L30.8789 51.1509C30.5024 51.3726 29.8922 51.3726 29.5136 51.1509L28.3018 50.4469C27.9313 50.2318 27.9108 49.8779 28.2975 49.6514L29.5001 48.9475C29.8766 48.728 30.4868 48.7302 30.8654 48.9496L32.0772 49.6536C32.4456 49.8666 32.4655 50.2215 32.0821 50.4469Z" fill="#8EC1FD"/>
<path d="M28.7495 52.3823L27.5469 53.0862C27.1704 53.3084 26.5602 53.3084 26.1816 53.0862L24.9698 52.3823C24.5987 52.1671 24.5793 51.8132 24.9655 51.5867L26.1681 50.8828C26.5446 50.6633 27.1548 50.6655 27.5334 50.8849L28.7452 51.5889C29.113 51.8024 29.133 52.1574 28.7495 52.3823Z" fill="#FC7464"/>
<path d="M42.6954 48.2128V48.9433C42.6954 49.0869 42.6006 49.23 42.4137 49.3378L41.2105 50.0439C40.8341 50.2634 40.2239 50.2634 39.8452 50.0439L38.6356 49.3378C38.4439 49.2278 38.3496 49.0826 38.3496 48.9368V48.2063C38.3496 48.3521 38.4466 48.4978 38.6356 48.6073L39.8474 49.3113C40.226 49.5329 40.8362 49.5329 41.2127 49.3113L42.4153 48.6073C42.6033 48.4973 42.6954 48.3564 42.6954 48.2128Z" fill="#0B45B2"/>
<path d="M39.3106 50.1798V50.9104C39.3106 51.054 39.2158 51.197 39.0289 51.3049L37.8263 52.011C37.4498 52.2305 36.8396 52.2305 36.461 52.011L35.2514 51.3049C35.0596 51.1949 34.9648 51.0496 34.9648 50.9039V50.1733C34.9648 50.3191 35.0618 50.4649 35.2514 50.5744L36.4631 51.2783C36.8418 51.5 37.452 51.5 37.8284 51.2783L39.0316 50.5744C39.218 50.4644 39.3106 50.3234 39.3106 50.1798Z" fill="#0B45B2"/>
<path d="M35.9459 52.1347V52.8652C35.9459 53.0088 35.8511 53.1519 35.6642 53.2597L34.4611 53.9658C34.0846 54.1853 33.4744 54.1853 33.0958 53.9658L31.8861 53.2597C31.6944 53.1497 31.5996 53.0039 31.5996 52.8587V52.1282C31.5996 52.2739 31.6965 52.4197 31.8861 52.5292L33.0979 53.2331C33.4765 53.4548 34.0867 53.4548 34.4632 53.2331L35.6664 52.5292C35.8533 52.4197 35.9459 52.2783 35.9459 52.1347Z" fill="#0B45B2"/>
<path d="M32.6133 54.0705V54.801C32.6133 54.9446 32.5185 55.0876 32.3317 55.1955L31.1285 55.9016C30.752 56.1211 30.1418 56.1211 29.7632 55.9016L28.5535 55.1955C28.3618 55.0855 28.2676 54.9397 28.2676 54.7945V54.064C28.2676 54.2097 28.3645 54.3555 28.5535 54.465L29.7653 55.1689C30.144 55.3911 30.7542 55.3911 31.1306 55.1689L32.3333 54.465C32.5212 54.355 32.6133 54.2141 32.6133 54.0705Z" fill="#0B45B2"/>
<path d="M42.4155 48.6073L41.2129 49.3113C40.8364 49.533 40.2262 49.533 39.8476 49.3113L38.6358 48.6073C38.2647 48.3922 38.2453 48.0383 38.6315 47.8118L39.8341 47.1079C40.2106 46.8884 40.8208 46.8906 41.1994 47.11L42.4112 47.814C42.779 48.0275 42.799 48.3825 42.4155 48.6073Z" fill="#8EC1FD"/>
<path d="M39.0313 50.5744L37.8281 51.2783C37.4517 51.5 36.8414 51.5 36.4628 51.2783L35.251 50.5744C34.88 50.3593 34.8606 50.0054 35.2467 49.7789L36.4494 49.0749C36.8258 48.8554 37.436 48.8576 37.8146 49.0771L39.0264 49.781C39.3943 49.994 39.4153 50.349 39.0313 50.5744Z" fill="#8EC1FD"/>
<path d="M35.6663 52.5292L34.4631 53.2332C34.0866 53.4548 33.4764 53.4548 33.0978 53.2332L31.886 52.5292C31.5149 52.3141 31.495 51.9602 31.8817 51.7337L33.0843 51.0297C33.4608 50.8103 34.071 50.8124 34.4496 51.0319L35.6614 51.7358C36.0287 51.9488 36.0508 52.3038 35.6663 52.5292Z" fill="#8EC1FD"/>
<path d="M32.3335 54.465L31.1308 55.169C30.7544 55.3912 30.1442 55.3912 29.7656 55.169L28.5538 54.465C28.1827 54.2499 28.1633 53.896 28.5495 53.6695L29.7521 52.9655C30.1286 52.7461 30.7388 52.7482 31.1174 52.9677L32.3292 53.6717C32.697 53.8852 32.717 54.2401 32.3335 54.465Z" fill="#8EC1FD"/>
<path d="M14.2539 48.8849C31.2734 58.6963 29.6184 57.7154 29.4665 57.7154L45.1423 48.6589C45.1283 48.6703 49.5365 44.0466 49.5365 44.0466L45.2123 48.7613L29.5187 57.9284L14.2539 48.8849Z" fill="#71AAF9"/>
</svg>
