<svg width="106" height="81" viewBox="0 0 106 81" fill="none" xmlns="http://www.w3.org/2000/svg">
<g filter="url(#filter0_f_830_6430)">
<ellipse cx="51.854" cy="65.1475" rx="38.7095" ry="7.4411" fill="#1F88F8" fill-opacity="0.35"/>
</g>
<path d="M52.279 80C74.449 80 92.4213 62.0914 92.4213 40C92.4213 17.9086 74.449 0 52.279 0C30.109 0 12.1367 17.9086 12.1367 40C12.1367 62.0914 30.109 80 52.279 80Z" fill="url(#paint0_linear_830_6430)"/>
<g filter="url(#filter1_d_830_6430)">
<path d="M85.9038 27.07L51.5046 50.9913L17.1055 27.07L48.5952 5.16313C49.4492 4.57005 50.4651 4.25208 51.5061 4.25208C52.547 4.25208 53.5629 4.57005 54.4169 5.16313L60.6983 9.53883L62.3429 10.6768L78.9029 22.1993L80.6474 23.4198L85.9038 27.07Z" fill="url(#paint1_linear_830_6430)"/>
</g>
<path d="M45.9113 47.1021L17.1055 67.5125V27.0701L45.9113 47.1021Z" fill="url(#paint2_linear_830_6430)"/>
<g filter="url(#filter2_f_830_6430)">
<ellipse cx="68.3133" cy="26.2716" rx="12.8015" ry="4.1002" fill="#FF4C77" fill-opacity="0.3"/>
</g>
<path d="M57.1016 47.1021L85.9074 67.5125V27.0701L57.1016 47.1021Z" fill="url(#paint3_linear_830_6430)"/>
<path d="M17.1055 67.5125L48.5581 45.23C49.4189 44.6192 50.4493 44.291 51.5061 44.291C52.5628 44.291 53.5932 44.6192 54.454 45.23L85.9038 67.5125H17.1055Z" fill="url(#paint4_linear_830_6430)"/>
<path d="M68.8882 23.9061C69.8455 23.9061 70.514 23.2527 70.514 22.3411C70.514 21.4294 69.8455 20.776 68.8882 20.776C67.9462 20.776 67.2624 21.4294 67.2624 22.3411C67.2624 23.2527 67.9462 23.9061 68.8882 23.9061ZM70.1949 20.2139C70.1949 19.1503 70.7115 18.74 71.5016 18.3298C72.5652 17.7828 73.3553 16.8863 73.3553 15.61C73.3553 13.7107 71.5472 12.3736 69.1313 12.3736C66.5787 12.3736 64.7554 13.8778 64.573 15.9898L67.5055 16.5216C67.6119 15.5492 68.1893 14.8351 69.0098 14.8351C69.6631 14.8351 70.1645 15.2909 70.1645 15.9139C70.1645 16.5368 69.6024 16.8863 69.1161 17.2054C68.0525 17.9043 67.5967 18.6944 67.5967 20.2139H70.1949Z" fill="white"/>
<g filter="url(#filter3_d_830_6430)">
<path d="M20.7403 19.7417C15.4667 22.1998 9.7998 23.713 3.99931 24.2118C4.78308 26.0273 10.352 35.1149 26.8833 42.6028C27.3302 42.6713 37.6532 37.886 43.3184 34.6045C43.1259 34.8785 25.7214 28.497 20.7403 19.7417Z" fill="url(#paint5_linear_830_6430)"/>
</g>
<path d="M68.7083 29.6875C75.0473 29.6875 80.1861 24.5669 80.1861 18.2503C80.1861 11.9338 75.0473 6.81323 68.7083 6.81323C62.3693 6.81323 57.2305 11.9338 57.2305 18.2503C57.2305 24.5669 62.3693 29.6875 68.7083 29.6875Z" fill="url(#paint6_linear_830_6430)"/>
<path d="M68.6015 25.0677C69.8218 25.0677 70.6741 24.2347 70.6741 23.0725C70.6741 21.9103 69.8218 21.0774 68.6015 21.0774C67.4005 21.0774 66.5289 21.9103 66.5289 23.0725C66.5289 24.2347 67.4005 25.0677 68.6015 25.0677ZM70.2673 20.3607C70.2673 19.0048 70.9259 18.4818 71.9331 17.9588C73.289 17.2615 74.2963 16.1187 74.2963 14.4916C74.2963 12.0703 71.9912 10.3658 68.9114 10.3658C65.6572 10.3658 63.3328 12.2834 63.1004 14.9759L66.8388 15.6538C66.9744 14.4141 67.7105 13.5037 68.7564 13.5037C69.5894 13.5037 70.2286 14.0848 70.2286 14.879C70.2286 15.6732 69.5119 16.1187 68.892 16.5255C67.5361 17.4165 66.955 18.4237 66.955 20.3607H70.2673Z" fill="white"/>
<path d="M21.1472 24.2598C20.9048 24.0922 20.5983 24.0468 20.3182 24.1371L11.0885 27.1125C10.7586 27.2189 10.6415 27.6248 10.864 27.891C11.043 28.105 11.3354 28.1869 11.5993 28.0968L21.0635 24.8667C21.3302 24.7757 21.3792 24.4202 21.1472 24.2598Z" fill="#C9DFFF"/>
<path d="M20.9892 27.9232C20.7553 27.7043 20.4202 27.6313 20.1169 27.733L13.7267 29.876C13.4455 29.9702 13.3467 30.3168 13.5356 30.5455C13.6898 30.7323 13.9435 30.8043 14.1726 30.7266L20.8753 28.4525C21.1012 28.3759 21.1635 28.0863 20.9892 27.9232Z" fill="#C9DFFF"/>
<path d="M24.4164 29.7373C24.1724 29.5426 23.8447 29.4885 23.5515 29.5947L16.1913 32.2603C15.903 32.3647 15.8167 32.73 16.0276 32.9528C16.1888 33.1231 16.4359 33.1813 16.656 33.1009L24.3258 30.2963C24.5639 30.2092 24.6147 29.8956 24.4164 29.7373Z" fill="#C9DFFF"/>
<path d="M26.9905 35.2374C26.7644 34.9883 26.4086 34.903 26.0944 35.0225L21.887 36.6223C21.6293 36.7203 21.5367 37.0369 21.7009 37.2586C21.8547 37.4662 22.1284 37.5456 22.3693 37.4527L26.8781 35.7126C27.0722 35.6377 27.1304 35.3916 26.9905 35.2374Z" fill="#C9DFFF"/>
<g filter="url(#filter4_d_830_6430)">
<path d="M81.6995 32.415C88.094 35.3957 94.9655 37.2305 101.999 37.8353C101.049 40.0367 94.296 51.0559 74.2508 60.1355C73.7089 60.2185 61.1916 54.4161 54.3223 50.437C54.5557 50.7693 75.6596 43.0314 81.6995 32.415Z" fill="url(#paint7_linear_830_6430)"/>
</g>
<path d="M81.2049 37.8935C81.4987 37.6903 81.8704 37.6353 82.2101 37.7448L93.4016 41.3527C93.8017 41.4816 93.9436 41.9739 93.6738 42.2966C93.4568 42.5561 93.1022 42.6554 92.7823 42.5462L81.3064 38.6294C80.983 38.5191 80.9236 38.0881 81.2049 37.8935Z" fill="#C9DFFF"/>
<path d="M78.073 40.8624C78.3566 40.597 78.7629 40.5084 79.1308 40.6318L86.8793 43.2302C87.2202 43.3446 87.34 43.7647 87.1109 44.0422C86.9239 44.2685 86.6163 44.356 86.3385 44.2617L78.2111 41.5042C77.9372 41.4113 77.8616 41.0602 78.073 40.8624Z" fill="#C9DFFF"/>
<path d="M74.8547 43.327C75.1505 43.0908 75.5479 43.0253 75.9034 43.1541L84.8281 46.3862C85.1777 46.5128 85.2823 46.9558 85.0266 47.226C84.8311 47.4325 84.5315 47.5031 84.2647 47.4055L74.9645 44.0048C74.6758 43.8992 74.6142 43.5189 74.8547 43.327Z" fill="#C9DFFF"/>
<path d="M67.6073 48.2583C67.8815 47.9563 68.3129 47.8528 68.6938 47.9977L73.7955 49.9376C74.108 50.0564 74.2203 50.4403 74.0212 50.7091C73.8347 50.9608 73.5028 51.0572 73.2107 50.9445L67.7435 48.8345C67.5081 48.7437 67.4376 48.4453 67.6073 48.2583Z" fill="#C9DFFF"/>
<path d="M70.9372 45.6246C71.2386 45.4362 71.61 45.3971 71.9436 45.5186L83.6947 49.7999C84.0696 49.9365 84.1598 50.4247 83.8586 50.687C83.6596 50.8601 83.3821 50.9114 83.1348 50.8206L71.0139 46.3713C70.6874 46.2515 70.642 45.8092 70.9372 45.6246Z" fill="#C9DFFF"/>
<path d="M29.5347 30.9394C29.2862 30.784 28.9799 30.7517 28.7048 30.852L19.0136 34.3828C18.7044 34.4954 18.63 34.8981 18.8784 35.1143C19.0425 35.2571 19.2713 35.2994 19.4753 35.2245L29.4715 31.5552C29.7407 31.4564 29.7782 31.0916 29.5347 30.9394Z" fill="#C9DFFF"/>
<path d="M85.5341 9.41521C85.5341 10.3361 84.7844 11.0855 83.8562 11.0855C82.9281 11.0855 82.1784 10.3361 82.1784 9.41521C82.1784 8.49428 82.9281 7.74495 83.8562 7.74495C84.7844 7.74495 85.5341 8.49428 85.5341 9.41521Z" stroke="url(#paint8_linear_830_6430)" stroke-width="0.911532"/>
<path d="M26.1005 71.3738C26.1005 72.2948 25.3508 73.0441 24.4227 73.0441C23.4945 73.0441 22.7448 72.2948 22.7448 71.3738C22.7448 70.4529 23.4945 69.7036 24.4227 69.7036C25.3508 69.7036 26.1005 70.4529 26.1005 71.3738Z" stroke="url(#paint9_linear_830_6430)" stroke-width="0.911532"/>
<path d="M77.6102 74.7147C77.6102 75.6356 76.8606 76.3849 75.9324 76.3849C75.0043 76.3849 74.2546 75.6356 74.2546 74.7147C74.2546 73.7937 75.0043 73.0444 75.9324 73.0444C76.8606 73.0444 77.6102 73.7937 77.6102 74.7147Z" stroke="url(#paint10_linear_830_6430)" stroke-width="0.911532"/>
<path d="M30.1123 11.1259C30.2924 10.3825 31.3497 10.3825 31.5298 11.1259L32.1386 13.639C32.203 13.9049 32.4108 14.1124 32.6768 14.1763L35.1886 14.7806C35.9336 14.9597 35.9336 16.0194 35.1886 16.1986L32.6768 16.8028C32.4108 16.8667 32.203 17.0742 32.1386 17.3401L31.5298 19.8532C31.3497 20.5966 30.2924 20.5966 30.1123 19.8532L29.5035 17.3401C29.4391 17.0742 29.2313 16.8667 28.9653 16.8028L26.4534 16.1986C25.7085 16.0194 25.7085 14.9597 26.4534 14.7806L28.9653 14.1763C29.2313 14.1124 29.4391 13.9049 29.5035 13.639L30.1123 11.1259Z" fill="url(#paint11_linear_830_6430)"/>
<path d="M91.1885 63.9539C91.3686 63.2105 92.4258 63.2105 92.6059 63.9539L93.2148 66.467C93.2792 66.7329 93.487 66.9404 93.7529 67.0044L96.2648 67.6086C97.0097 67.7877 97.0097 68.8474 96.2648 69.0266L93.7529 69.6308C93.487 69.6947 93.2792 69.9022 93.2148 70.1681L92.6059 72.6812C92.4258 73.4246 91.3686 73.4246 91.1885 72.6812L90.5797 70.1681C90.5152 69.9022 90.3074 69.6947 90.0415 69.6308L87.5296 69.0266C86.7847 68.8474 86.7847 67.7877 87.5296 67.6086L90.0415 67.0044C90.3074 66.9404 90.5152 66.7329 90.5797 66.467L91.1885 63.9539Z" fill="url(#paint12_linear_830_6430)"/>
<path d="M13.2692 58.1039C13.732 58.03 14.1017 58.4834 13.9345 58.9197L12.8034 61.871C12.6363 62.3071 12.0581 62.3991 11.7625 62.0366L9.76301 59.5849C9.46742 59.2224 9.67606 58.6772 10.1386 58.6034L13.2692 58.1039Z" fill="url(#paint13_linear_830_6430)"/>
<path d="M92.3949 28.0443C92.2791 27.5918 92.6983 27.1841 93.1494 27.3105L96.2017 28.1651C96.6528 28.2915 96.7976 28.8571 96.4622 29.1833L94.1933 31.3898C93.8579 31.716 93.294 31.558 93.1782 31.1055L92.3949 28.0443Z" fill="url(#paint14_linear_830_6430)"/>
<defs>
<filter id="filter0_f_830_6430" x="5.54843" y="50.1103" width="92.6102" height="30.0744" filterUnits="userSpaceOnUse" color-interpolation-filters="sRGB">
<feFlood flood-opacity="0" result="BackgroundImageFix"/>
<feBlend mode="normal" in="SourceGraphic" in2="BackgroundImageFix" result="shape"/>
<feGaussianBlur stdDeviation="3.79805" result="effect1_foregroundBlur_830_6430"/>
</filter>
<filter id="filter1_d_830_6430" x="15.8901" y="4.25208" width="71.2296" height="49.1699" filterUnits="userSpaceOnUse" color-interpolation-filters="sRGB">
<feFlood flood-opacity="0" result="BackgroundImageFix"/>
<feColorMatrix in="SourceAlpha" type="matrix" values="0 0 0 0 0 0 0 0 0 0 0 0 0 0 0 0 0 0 127 0" result="hardAlpha"/>
<feOffset dy="1.21538"/>
<feGaussianBlur stdDeviation="0.607688"/>
<feComposite in2="hardAlpha" operator="out"/>
<feColorMatrix type="matrix" values="0 0 0 0 0 0 0 0 0 0 0 0 0 0 0 0 0 0 0.25 0"/>
<feBlend mode="normal" in2="BackgroundImageFix" result="effect1_dropShadow_830_6430"/>
<feBlend mode="normal" in="SourceGraphic" in2="effect1_dropShadow_830_6430" result="shape"/>
</filter>
<filter id="filter2_f_830_6430" x="47.9156" y="14.5753" width="40.7957" height="23.3926" filterUnits="userSpaceOnUse" color-interpolation-filters="sRGB">
<feFlood flood-opacity="0" result="BackgroundImageFix"/>
<feBlend mode="normal" in="SourceGraphic" in2="BackgroundImageFix" result="shape"/>
<feGaussianBlur stdDeviation="3.79805" result="effect1_foregroundBlur_830_6430"/>
</filter>
<filter id="filter3_d_830_6430" x="0.353872" y="17.3109" width="46.6106" height="30.1541" filterUnits="userSpaceOnUse" color-interpolation-filters="sRGB">
<feFlood flood-opacity="0" result="BackgroundImageFix"/>
<feColorMatrix in="SourceAlpha" type="matrix" values="0 0 0 0 0 0 0 0 0 0 0 0 0 0 0 0 0 0 127 0" result="hardAlpha"/>
<feOffset dy="1.21538"/>
<feGaussianBlur stdDeviation="1.82306"/>
<feComposite in2="hardAlpha" operator="out"/>
<feColorMatrix type="matrix" values="0 0 0 0 0.0196078 0 0 0 0 0.168627 0 0 0 0 0.396078 0 0 0 0.15 0"/>
<feBlend mode="normal" in2="BackgroundImageFix" result="effect1_dropShadow_830_6430"/>
<feBlend mode="normal" in="SourceGraphic" in2="effect1_dropShadow_830_6430" result="shape"/>
</filter>
<filter id="filter4_d_830_6430" x="47.3148" y="31.8074" width="58.0065" height="38.052" filterUnits="userSpaceOnUse" color-interpolation-filters="sRGB">
<feFlood flood-opacity="0" result="BackgroundImageFix"/>
<feColorMatrix in="SourceAlpha" type="matrix" values="0 0 0 0 0 0 0 0 0 0 0 0 0 0 0 0 0 0 127 0" result="hardAlpha"/>
<feOffset dx="-1.84214" dy="4.55766"/>
<feGaussianBlur stdDeviation="2.58267"/>
<feComposite in2="hardAlpha" operator="out"/>
<feColorMatrix type="matrix" values="0 0 0 0 0.021441 0 0 0 0 0.168056 0 0 0 0 0.395833 0 0 0 0.15 0"/>
<feBlend mode="normal" in2="BackgroundImageFix" result="effect1_dropShadow_830_6430"/>
<feBlend mode="normal" in="SourceGraphic" in2="effect1_dropShadow_830_6430" result="shape"/>
</filter>
<linearGradient id="paint0_linear_830_6430" x1="51.9696" y1="-13.025" x2="52.7861" y2="127.449" gradientUnits="userSpaceOnUse">
<stop stop-color="#CAE0FF" stop-opacity="0"/>
<stop offset="1" stop-color="#BCD8FF"/>
</linearGradient>
<linearGradient id="paint1_linear_830_6430" x1="51.5046" y1="4.25208" x2="51.5046" y2="50.9913" gradientUnits="userSpaceOnUse">
<stop stop-color="#EDF4FF"/>
<stop offset="1" stop-color="#ABCCFF"/>
</linearGradient>
<linearGradient id="paint2_linear_830_6430" x1="31.5084" y1="27.0701" x2="31.5084" y2="67.5125" gradientUnits="userSpaceOnUse">
<stop stop-color="#ABCCFF"/>
<stop offset="1" stop-color="#70A8FF"/>
</linearGradient>
<linearGradient id="paint3_linear_830_6430" x1="71.5045" y1="27.0701" x2="71.5045" y2="67.5125" gradientUnits="userSpaceOnUse">
<stop stop-color="#ABCCFF"/>
<stop offset="1" stop-color="#70A8FF"/>
</linearGradient>
<linearGradient id="paint4_linear_830_6430" x1="51.5046" y1="44.291" x2="51.5046" y2="67.5125" gradientUnits="userSpaceOnUse">
<stop stop-color="#70A8FF"/>
<stop offset="1" stop-color="#5597FD"/>
</linearGradient>
<linearGradient id="paint5_linear_830_6430" x1="8.26649" y1="29.9163" x2="34.0153" y2="24.8705" gradientUnits="userSpaceOnUse">
<stop stop-color="#C6DDFF"/>
<stop offset="1" stop-color="white"/>
</linearGradient>
<linearGradient id="paint6_linear_830_6430" x1="57.3402" y1="8.35223" x2="80.1239" y2="29.8451" gradientUnits="userSpaceOnUse">
<stop stop-color="#FF698D"/>
<stop offset="1" stop-color="#FF3868"/>
</linearGradient>
<linearGradient id="paint7_linear_830_6430" x1="96.8247" y1="44.7523" x2="65.6028" y2="38.634" gradientUnits="userSpaceOnUse">
<stop stop-color="#C6DDFF"/>
<stop offset="1" stop-color="white"/>
</linearGradient>
<linearGradient id="paint8_linear_830_6430" x1="81.2337" y1="8.08644" x2="87.8809" y2="13.8678" gradientUnits="userSpaceOnUse">
<stop stop-color="#94BFFF"/>
<stop offset="1" stop-color="#4C94FE"/>
</linearGradient>
<linearGradient id="paint9_linear_830_6430" x1="21.8001" y1="70.0451" x2="28.4473" y2="75.8264" gradientUnits="userSpaceOnUse">
<stop stop-color="#94BFFF"/>
<stop offset="1" stop-color="#4C94FE"/>
</linearGradient>
<linearGradient id="paint10_linear_830_6430" x1="73.3099" y1="73.3859" x2="79.957" y2="79.1672" gradientUnits="userSpaceOnUse">
<stop stop-color="#94BFFF"/>
<stop offset="1" stop-color="#4C94FE"/>
</linearGradient>
<linearGradient id="paint11_linear_830_6430" x1="30.821" y1="8.20032" x2="30.821" y2="22.7788" gradientUnits="userSpaceOnUse">
<stop stop-color="#70A8FF"/>
<stop offset="1" stop-color="#5597FD"/>
</linearGradient>
<linearGradient id="paint12_linear_830_6430" x1="91.8972" y1="61.0283" x2="91.8972" y2="75.6068" gradientUnits="userSpaceOnUse">
<stop stop-color="#70A8FF"/>
<stop offset="1" stop-color="#5597FD"/>
</linearGradient>
<linearGradient id="paint13_linear_830_6430" x1="14.3109" y1="57.9376" x2="9.59339" y2="61.7848" gradientUnits="userSpaceOnUse">
<stop stop-color="#70A8FF"/>
<stop offset="1" stop-color="#5597FD"/>
</linearGradient>
<linearGradient id="paint14_linear_830_6430" x1="92.1344" y1="27.0262" x2="96.3767" y2="31.3884" gradientUnits="userSpaceOnUse">
<stop stop-color="#70A8FF"/>
<stop offset="1" stop-color="#5597FD"/>
</linearGradient>
</defs>
</svg>
