<svg width="135" height="128" viewBox="0 0 135 128" fill="none" xmlns="http://www.w3.org/2000/svg">
<g filter="url(#filter0_f_814_6233)">
<ellipse cx="65.156" cy="105.454" rx="53.8747" ry="10.3532" fill="#1F88F8" fill-opacity="0.35"/>
</g>
<path d="M67.1502 118.101C98.0057 118.101 123.019 93.1837 123.019 62.4469C123.019 31.7101 98.0057 6.79297 67.1502 6.79297C36.2946 6.79297 11.2812 31.7101 11.2812 62.4469C11.2812 93.1837 36.2946 118.101 67.1502 118.101Z" fill="url(#paint0_linear_814_6233)"/>
<path d="M110.369 29.2899H39.4062V64.1747H110.369V29.2899Z" fill="url(#paint1_linear_814_6233)"/>
<path d="M110.369 29.2899H117.492C122.135 29.2899 126.588 31.1274 129.872 34.3981C133.155 37.6688 135 42.1048 135 46.7303C135 51.3557 133.155 55.7918 129.872 59.0625C126.588 62.3332 122.135 64.1706 117.492 64.1706H110.369V29.2899Z" fill="url(#paint2_linear_814_6233)"/>
<path d="M114.977 34.4215H119.051C122.185 34.4215 125.191 35.6616 127.407 37.8691C129.623 40.0765 130.868 43.0704 130.868 46.1922V47.2727C130.868 50.3945 129.623 53.3884 127.407 55.5959C125.191 57.8033 122.185 59.0434 119.051 59.0434H114.977V34.4215Z" fill="url(#paint3_linear_814_6233)"/>
<path d="M110.371 35.1445H45.3672V64.1748H110.371V35.1445Z" fill="url(#paint4_linear_814_6233)"/>
<rect x="22.4531" y="69.9822" width="26.3548" height="33.6227" fill="url(#paint5_linear_814_6233)"/>
<rect x="54.8164" y="69.9822" width="26.3548" height="33.6227" fill="url(#paint6_linear_814_6233)"/>
<rect x="87.1836" y="69.9822" width="17.1075" height="33.6227" fill="url(#paint7_linear_814_6233)"/>
<path d="M110.369 29.2899H104.311V64.1747H110.369V29.2899Z" fill="url(#paint8_linear_814_6233)"/>
<path d="M54.8174 63.9946L48.8066 63.9946L48.8066 109.593L54.8174 109.593L54.8174 63.9946Z" fill="url(#paint9_linear_814_6233)"/>
<path fill-rule="evenodd" clip-rule="evenodd" d="M18.7424 63.9948H22.7065H22.7078H83.9434V69.9824H22.7078L22.7078 103.605H83.9434V109.593H22.7065V109.593H18.7424C17.4705 109.593 16.4395 108.562 16.4395 107.29L16.4395 66.2977C16.4395 65.0258 17.4705 63.9948 18.7424 63.9948Z" fill="url(#paint10_linear_814_6233)"/>
<path fill-rule="evenodd" clip-rule="evenodd" d="M87.1846 63.9948H83.4768C82.2049 63.9948 81.1738 65.0258 81.1738 66.2977L81.1738 109.593H87.1846L87.1846 63.9948ZM87.1855 63.9948H104.293H110.304L110.304 107.29C110.304 108.562 109.273 109.593 108.001 109.593H104.293L104.293 109.593H87.1855V103.605H104.293V69.9824H87.1855V63.9948Z" fill="url(#paint11_linear_814_6233)"/>
<path d="M44.1602 64.2488V64.3145V66.3893V81.5043H60.7206C60.975 81.5043 61.1812 81.298 61.1812 81.0437V66.3893V64.7094C61.1812 64.455 60.975 64.2488 60.7206 64.2488H44.1602Z" fill="url(#paint12_linear_814_6233)"/>
<path d="M43.1578 64.2488C42.9035 64.2488 42.6973 64.455 42.6973 64.7094V81.0437C42.6973 81.298 42.9035 81.5043 43.1578 81.5043H59.7183V64.2488H43.1578Z" fill="url(#paint13_linear_814_6233)"/>
<path d="M56.8836 65.9003H45.5364C45.0277 65.9003 44.6152 66.3127 44.6152 66.8214V78.7917C44.6152 79.3004 45.0277 79.7129 45.5364 79.7129H56.8836C57.3924 79.7129 57.8048 79.3004 57.8048 78.7917V66.8214C57.8048 66.3127 57.3924 65.9003 56.8836 65.9003Z" fill="url(#paint14_linear_814_6233)"/>
<g filter="url(#filter1_d_814_6233)">
<path d="M12.7422 52.5711L19.1431 68.253C19.2306 68.468 19.3597 68.6637 19.5232 68.8288C19.6867 68.994 19.8813 69.1254 20.0959 69.2154C20.3105 69.3055 20.5408 69.3525 20.7736 69.3538C21.0064 69.355 21.2372 69.3104 21.4527 69.2226L35.7971 63.4174C36.2333 63.2405 36.5812 62.8985 36.7645 62.4664C36.9477 62.0343 36.9514 61.5474 36.7746 61.1126L29.3756 42.9861C29.1981 42.5526 28.8552 42.2071 28.4221 42.0253C27.9891 41.8435 27.5013 41.8403 27.0659 42.0165L15.1467 46.8439L12.7422 52.5711Z" fill="url(#paint15_linear_814_6233)"/>
</g>
<g filter="url(#filter2_d_814_6233)">
<path d="M114.119 43.3593L107.718 59.0412C107.631 59.2562 107.502 59.4519 107.338 59.617C107.175 59.7822 106.98 59.9136 106.765 60.0036C106.551 60.0937 106.321 60.1407 106.088 60.142C105.855 60.1432 105.624 60.0986 105.409 60.0108L91.0642 54.2056C90.628 54.0288 90.2801 53.6867 90.0969 53.2546C89.9136 52.8225 89.91 52.3356 90.0867 51.9008L97.4858 33.7743C97.6632 33.3408 98.0061 32.9953 98.4392 32.8135C98.8722 32.6317 99.36 32.6285 99.7954 32.8047L111.715 37.6321L114.119 43.3593Z" fill="url(#paint16_linear_814_6233)"/>
</g>
<path d="M12.7422 52.571L16.8129 50.9236L15.1508 46.8439L12.7422 52.571Z" fill="url(#paint17_linear_814_6233)"/>
<path d="M114.119 43.3593L110.048 41.7118L111.711 37.6321L114.119 43.3593Z" fill="url(#paint18_linear_814_6233)"/>
<path d="M52.9474 73.3859C53.4722 73.0184 53.8659 72.4938 54.0712 71.8883C54.2766 71.2829 54.283 70.628 54.0895 70.0186C53.896 69.4093 53.5126 68.8772 52.9951 68.4996C52.4775 68.1219 51.8526 67.9183 51.2111 67.9183C50.5695 67.9183 49.9446 68.1219 49.4271 68.4996C48.9095 68.8772 48.5262 69.4093 48.3327 70.0186C48.1392 70.628 48.1455 71.2829 48.3509 71.8883C48.5562 72.4938 48.9499 73.0184 49.4747 73.3859L48.1797 77.8272H54.2383L52.9474 73.3859Z" fill="url(#paint19_linear_814_6233)"/>
<path d="M90.2631 26.7798C90.263 27.426 90.1657 28.0686 89.9744 28.6861C89.6644 29.6762 89.1165 30.576 88.3783 31.3073C88.1616 31.5258 87.9286 31.7277 87.6813 31.9112C87.5187 32.0375 87.3478 32.1527 87.1699 32.2563C86.9925 32.3647 86.8094 32.4634 86.6213 32.5522C86.3409 32.69 86.0499 32.8054 85.7511 32.8973C85.1312 33.0878 84.4861 33.1848 83.8374 33.1849H82.6414V64.0598H49.2344V26.1101C49.2398 24.5917 49.8477 23.1371 50.9255 22.0635C52.0033 20.9898 53.4636 20.3842 54.9878 20.3788H83.8209C84.6241 20.3758 85.4205 20.5249 86.1676 20.8184C86.3749 20.8985 86.5773 20.9904 86.7739 21.0937C86.8729 21.143 86.9678 21.1964 87.0626 21.2539C87.1406 21.2966 87.2163 21.3432 87.2895 21.3936C87.6792 21.6391 88.0402 21.9271 88.3659 22.2523C88.8032 22.6888 89.1754 23.1855 89.4712 23.7272C89.6712 24.0923 89.8342 24.4763 89.9579 24.8735L90.0445 25.1816C90.0978 25.3875 90.1405 25.5959 90.1724 25.8061C90.2278 26.1278 90.2582 26.4534 90.2631 26.7798Z" fill="url(#paint20_linear_814_6233)"/>
<path d="M90.2643 26.7797C90.2642 27.426 90.1669 28.0685 89.9756 28.686C89.8491 29.0822 89.6862 29.4659 89.4889 29.8323C89.1903 30.3732 88.8168 30.8697 88.3795 31.3072C88.1628 31.5257 87.9298 31.7276 87.6825 31.9112C87.5175 32.0344 87.3484 32.1453 87.1711 32.2563C86.9937 32.3646 86.8106 32.4633 86.6225 32.5521C86.3414 32.6882 86.0505 32.8036 85.7523 32.8972C85.1324 33.0878 84.4874 33.1847 83.8386 33.1848H82.6426V26.11C82.6452 24.9787 82.9827 23.8732 83.6129 22.932C84.243 21.9908 85.1379 21.2555 86.1854 20.8184C86.3916 20.9005 86.5978 20.9909 86.7916 21.0936C86.8906 21.1429 86.9855 21.1963 87.0803 21.2539C87.1583 21.2965 87.234 21.3431 87.3072 21.3935C87.6969 21.639 88.0579 21.927 88.3836 22.2522C88.8209 22.6887 89.1931 23.1854 89.4889 23.7271C89.6872 24.093 89.8501 24.4768 89.9756 24.8734L90.0622 25.1815C90.1159 25.3873 90.1586 25.5957 90.1901 25.806C90.24 26.1282 90.2648 26.4537 90.2643 26.7797Z" fill="url(#paint21_linear_814_6233)"/>
<path d="M75.9715 52.819H54.8756C54.5225 52.819 54.2363 53.1032 54.2363 53.4537C54.2363 53.8043 54.5225 54.0885 54.8756 54.0885H75.9715C76.3245 54.0885 76.6108 53.8043 76.6108 53.4537C76.6108 53.1032 76.3245 52.819 75.9715 52.819Z" fill="#A5C4F1"/>
<path d="M75.9715 46.3073H54.8756C54.5225 46.3073 54.2363 46.5914 54.2363 46.942C54.2363 47.2926 54.5225 47.5768 54.8756 47.5768H75.9715C76.3245 47.5768 76.6108 47.2926 76.6108 46.942C76.6108 46.5914 76.3245 46.3073 75.9715 46.3073Z" fill="#A5C4F1"/>
<path d="M75.9728 39.7911H62.3873C62.0343 39.7911 61.748 40.0753 61.748 40.4259C61.748 40.7765 62.0343 41.0606 62.3873 41.0606H75.9728C76.3259 41.0606 76.6121 40.7765 76.6121 40.4259C76.6121 40.0753 76.3259 39.7911 75.9728 39.7911Z" fill="#A5C4F1"/>
<path d="M67.0588 33.2751H54.7271C54.4561 33.2751 54.2363 33.494 54.2363 33.7641V34.0558C54.2363 34.3258 54.4561 34.5447 54.7271 34.5447H67.0588C67.3299 34.5447 67.5496 34.3258 67.5496 34.0558V33.7641C67.5496 33.494 67.3299 33.2751 67.0588 33.2751Z" fill="#A5C4F1"/>
<path d="M59.4123 39.7911H54.8756C54.5225 39.7911 54.2363 40.0753 54.2363 40.4259C54.2363 40.7765 54.5225 41.0606 54.8756 41.0606H59.4123C59.7654 41.0606 60.0516 40.7765 60.0516 40.4259C60.0516 40.0753 59.7654 39.7911 59.4123 39.7911Z" fill="#A5C4F1"/>
<path d="M22.6836 69.9822H24.7642V103.605H22.6836V69.9822Z" fill="url(#paint22_linear_814_6233)"/>
<path d="M54.8164 81.4968H56.6659V103.605H54.8164V81.4968Z" fill="url(#paint23_linear_814_6233)"/>
<path d="M87.1836 69.9822H89.2642V103.605H87.1836V69.9822Z" fill="url(#paint24_linear_814_6233)"/>
<g filter="url(#filter3_f_814_6233)">
<ellipse cx="30.559" cy="41.6102" rx="17.8168" ry="5.7048" fill="#FF4C77" fill-opacity="0.3"/>
</g>
<path d="M13.8502 33.297C14.1938 35.8525 15.1816 38.2796 16.7214 40.352C18.2613 42.4244 20.3029 44.0745 22.656 45.1484C25.009 46.2223 27.5968 46.685 30.1779 46.4933C32.759 46.3016 35.2493 45.4619 37.4165 44.0523L43.3211 46.0519C43.4992 46.1104 43.6904 46.1168 43.8721 46.0704C44.0538 46.0241 44.2183 45.9269 44.3463 45.7903C44.4742 45.6537 44.5603 45.4835 44.5942 45.2998C44.6281 45.116 44.6085 44.9264 44.5376 44.7535L42.1697 39.1269C43.4291 37.037 44.1676 34.677 44.3234 32.2443C44.4792 29.8117 44.0477 27.3773 43.0652 25.1449C42.0826 22.9125 40.5776 20.947 38.6759 19.413C36.7743 17.8789 34.5315 16.821 32.1351 16.3276C29.7388 15.8343 27.2587 15.92 24.9024 16.5775C22.5461 17.235 20.3822 18.4452 18.5918 20.1067C16.8014 21.7683 15.4366 23.8329 14.6117 26.1278C13.7867 28.4227 13.5256 30.881 13.8502 33.297Z" fill="url(#paint25_linear_814_6233)"/>
<path d="M28.6354 39.0811C30.299 39.0811 31.484 37.9461 31.484 36.357C31.484 34.7679 30.299 33.6329 28.6354 33.6329C26.9946 33.6329 25.7868 34.7679 25.7868 36.357C25.7868 37.9461 26.9946 39.0811 28.6354 39.0811ZM30.9142 33.1789C30.9142 31.6806 31.7802 31.1358 32.9652 30.591C34.5376 29.8646 35.6998 28.389 35.6998 26.5729C35.6998 23.7126 32.8741 21.715 29.0456 21.715C24.9436 21.715 22.0495 24.0078 21.7988 27.2086L27.0402 28.162C27.1769 26.9135 27.8378 26.0281 28.7721 26.0281C29.4786 26.0281 30.0027 26.5048 30.0027 27.1632C30.0027 27.935 29.2279 28.4117 28.6126 28.7749C26.9718 29.8419 26.3565 31.0223 26.3565 33.1789H30.9142Z" fill="white"/>
<path d="M105.235 22.3664C105.235 23.6477 104.191 24.6905 102.899 24.6905C101.607 24.6905 100.564 23.6477 100.564 22.3664C100.564 21.0851 101.607 20.0422 102.899 20.0422C104.191 20.0422 105.235 21.0851 105.235 22.3664Z" stroke="url(#paint26_linear_814_6233)" stroke-width="1.26773"/>
<path d="M91.5961 115.041C91.5961 116.322 90.5527 117.365 89.2605 117.365C87.9683 117.365 86.9249 116.322 86.9249 115.041C86.9249 113.76 87.9683 112.717 89.2605 112.717C90.5527 112.717 91.5961 113.76 91.5961 115.041Z" stroke="url(#paint27_linear_814_6233)" stroke-width="1.26773"/>
<path d="M10.8102 85.0257C11.454 84.923 11.9683 85.5534 11.7357 86.1602L10.1609 90.268C9.9284 90.8744 9.12414 91.0023 8.71296 90.4982L5.92914 87.0857C5.51796 86.5817 5.80814 85.8236 6.45154 85.721L10.8102 85.0257Z" fill="url(#paint28_linear_814_6233)"/>
<path d="M118.427 81.5152C118.266 80.886 118.849 80.3192 119.477 80.4948L123.727 81.6844C124.354 81.8601 124.556 82.6467 124.089 83.1002L120.93 86.1715C120.464 86.625 119.679 86.4054 119.518 85.7761L118.427 81.5152Z" fill="url(#paint29_linear_814_6233)"/>
<path d="M61.877 4.06746C62.1275 3.03369 63.5978 3.03369 63.8483 4.06746L64.6965 7.56741C64.7861 7.93717 65.0751 8.22568 65.445 8.31463L68.943 9.15579C69.9791 9.40493 69.9791 10.8788 68.943 11.1279L65.445 11.9691C65.0751 12.058 64.7861 12.3466 64.6965 12.7163L63.8483 16.2163C63.5978 17.25 62.1275 17.25 61.877 16.2163L61.0289 12.7163C60.9393 12.3466 60.6503 12.058 60.2804 11.9691L56.7823 11.1279C55.7462 10.8788 55.7462 9.40493 56.7823 9.15579L60.2804 8.31463C60.6503 8.22568 60.9393 7.93717 61.0289 7.56741L61.877 4.06746Z" fill="url(#paint30_linear_814_6233)"/>
<path d="M36.0626 111.784C36.3131 110.75 37.7834 110.75 38.0339 111.784L38.882 115.284C38.9716 115.653 39.2606 115.942 39.6306 116.031L43.1286 116.872C44.1647 117.121 44.1647 118.595 43.1286 118.844L39.6306 119.685C39.2606 119.774 38.9716 120.063 38.882 120.433L38.0339 123.933C37.7834 124.966 36.3131 124.966 36.0626 123.933L35.2144 120.433C35.1248 120.063 34.8358 119.774 34.4659 119.685L30.9679 118.844C29.9318 118.595 29.9318 117.121 30.9679 116.872L34.4659 116.031C34.8358 115.942 35.1248 115.653 35.2144 115.284L36.0626 111.784Z" fill="url(#paint31_linear_814_6233)"/>
<defs>
<filter id="filter0_f_814_6233" x="0.716827" y="84.5364" width="128.879" height="41.8351" filterUnits="userSpaceOnUse" color-interpolation-filters="sRGB">
<feFlood flood-opacity="0" result="BackgroundImageFix"/>
<feBlend mode="normal" in="SourceGraphic" in2="BackgroundImageFix" result="shape"/>
<feGaussianBlur stdDeviation="5.28221" result="effect1_foregroundBlur_814_6233"/>
</filter>
<filter id="filter1_d_814_6233" x="11.3604" y="41.8866" width="33.3738" height="37.1394" filterUnits="userSpaceOnUse" color-interpolation-filters="sRGB">
<feFlood flood-opacity="0" result="BackgroundImageFix"/>
<feColorMatrix in="SourceAlpha" type="matrix" values="0 0 0 0 0 0 0 0 0 0 0 0 0 0 0 0 0 0 127 0" result="hardAlpha"/>
<feOffset dx="3.22409" dy="5.06642"/>
<feGaussianBlur stdDeviation="2.30292"/>
<feComposite in2="hardAlpha" operator="out"/>
<feColorMatrix type="matrix" values="0 0 0 0 0.184314 0 0 0 0 0.254902 0 0 0 0 0.443137 0 0 0 0.15 0"/>
<feBlend mode="normal" in2="BackgroundImageFix" result="effect1_dropShadow_814_6233"/>
<feBlend mode="normal" in="SourceGraphic" in2="effect1_dropShadow_814_6233" result="shape"/>
</filter>
<filter id="filter2_d_814_6233" x="88.5753" y="32.6748" width="33.3738" height="37.1394" filterUnits="userSpaceOnUse" color-interpolation-filters="sRGB">
<feFlood flood-opacity="0" result="BackgroundImageFix"/>
<feColorMatrix in="SourceAlpha" type="matrix" values="0 0 0 0 0 0 0 0 0 0 0 0 0 0 0 0 0 0 127 0" result="hardAlpha"/>
<feOffset dx="3.22409" dy="5.06642"/>
<feGaussianBlur stdDeviation="2.30292"/>
<feComposite in2="hardAlpha" operator="out"/>
<feColorMatrix type="matrix" values="0 0 0 0 0.184314 0 0 0 0 0.254902 0 0 0 0 0.443137 0 0 0 0.15 0"/>
<feBlend mode="normal" in2="BackgroundImageFix" result="effect1_dropShadow_814_6233"/>
<feBlend mode="normal" in="SourceGraphic" in2="effect1_dropShadow_814_6233" result="shape"/>
</filter>
<filter id="filter3_f_814_6233" x="2.17776" y="25.341" width="56.7617" height="32.5384" filterUnits="userSpaceOnUse" color-interpolation-filters="sRGB">
<feFlood flood-opacity="0" result="BackgroundImageFix"/>
<feBlend mode="normal" in="SourceGraphic" in2="BackgroundImageFix" result="shape"/>
<feGaussianBlur stdDeviation="5.28221" result="effect1_foregroundBlur_814_6233"/>
</filter>
<linearGradient id="paint0_linear_814_6233" x1="66.7195" y1="-11.3293" x2="67.8552" y2="184.119" gradientUnits="userSpaceOnUse">
<stop stop-color="#CAE0FF" stop-opacity="0"/>
<stop offset="1" stop-color="#BCD8FF"/>
</linearGradient>
<linearGradient id="paint1_linear_814_6233" x1="74.8878" y1="29.2899" x2="74.8878" y2="64.1747" gradientUnits="userSpaceOnUse">
<stop stop-color="#ABCCFF"/>
<stop offset="1" stop-color="#70A8FF"/>
</linearGradient>
<linearGradient id="paint2_linear_814_6233" x1="122.684" y1="29.2899" x2="122.684" y2="64.1706" gradientUnits="userSpaceOnUse">
<stop stop-color="#70A8FF"/>
<stop offset="1" stop-color="#5597FD"/>
</linearGradient>
<linearGradient id="paint3_linear_814_6233" x1="133.188" y1="59.8494" x2="117.545" y2="39.065" gradientUnits="userSpaceOnUse">
<stop stop-color="#EDF4FF"/>
<stop offset="1" stop-color="#ABCCFF"/>
</linearGradient>
<linearGradient id="paint4_linear_814_6233" x1="77.8689" y1="35.1445" x2="77.8689" y2="64.1748" gradientUnits="userSpaceOnUse">
<stop stop-color="#2A64BE"/>
<stop offset="1" stop-color="#6095E7"/>
</linearGradient>
<linearGradient id="paint5_linear_814_6233" x1="55.9745" y1="116.041" x2="23.7265" y2="85.5179" gradientUnits="userSpaceOnUse">
<stop stop-color="#EDF4FF"/>
<stop offset="1" stop-color="#ABCCFF"/>
</linearGradient>
<linearGradient id="paint6_linear_814_6233" x1="82.5583" y1="106.599" x2="50.2294" y2="93.1535" gradientUnits="userSpaceOnUse">
<stop stop-color="#EDF4FF"/>
<stop offset="1" stop-color="#ABCCFF"/>
</linearGradient>
<linearGradient id="paint7_linear_814_6233" x1="111.227" y1="107.29" x2="81.2824" y2="78.8483" gradientUnits="userSpaceOnUse">
<stop stop-color="#EDF4FF"/>
<stop offset="1" stop-color="#ABCCFF"/>
</linearGradient>
<linearGradient id="paint8_linear_814_6233" x1="107.34" y1="29.2899" x2="107.34" y2="64.1747" gradientUnits="userSpaceOnUse">
<stop stop-color="#ABCCFF"/>
<stop offset="1" stop-color="#70A8FF"/>
</linearGradient>
<linearGradient id="paint9_linear_814_6233" x1="41.4088" y1="78.0425" x2="37.2792" y2="118.347" gradientUnits="userSpaceOnUse">
<stop stop-color="#ABCCFF"/>
<stop offset="1" stop-color="#70A8FF"/>
</linearGradient>
<linearGradient id="paint10_linear_814_6233" x1="15.2836" y1="72.055" x2="81.3111" y2="102.646" gradientUnits="userSpaceOnUse">
<stop stop-color="#ABCCFF"/>
<stop offset="1" stop-color="#70A8FF"/>
</linearGradient>
<linearGradient id="paint11_linear_814_6233" x1="133.191" y1="92.3208" x2="91.8089" y2="93.7133" gradientUnits="userSpaceOnUse">
<stop stop-color="#70A8FF"/>
<stop offset="1" stop-color="#5597FD"/>
</linearGradient>
<linearGradient id="paint12_linear_814_6233" x1="52.6707" y1="64.2488" x2="52.6707" y2="81.5043" gradientUnits="userSpaceOnUse">
<stop stop-color="#70A8FF"/>
<stop offset="1" stop-color="#5597FD"/>
</linearGradient>
<linearGradient id="paint13_linear_814_6233" x1="51.2078" y1="64.2488" x2="51.2078" y2="81.5043" gradientUnits="userSpaceOnUse">
<stop stop-color="#ABCCFF"/>
<stop offset="1" stop-color="#70A8FF"/>
</linearGradient>
<linearGradient id="paint14_linear_814_6233" x1="51.21" y1="65.9003" x2="51.21" y2="79.7129" gradientUnits="userSpaceOnUse">
<stop stop-color="#70A8FF"/>
<stop offset="1" stop-color="#5597FD"/>
</linearGradient>
<linearGradient id="paint15_linear_814_6233" x1="34.2823" y1="54.1108" x2="18.015" y2="52.4803" gradientUnits="userSpaceOnUse">
<stop stop-color="#C6DDFF"/>
<stop offset="1" stop-color="white"/>
</linearGradient>
<linearGradient id="paint16_linear_814_6233" x1="92.579" y1="44.899" x2="108.846" y2="43.2685" gradientUnits="userSpaceOnUse">
<stop stop-color="#C6DDFF"/>
<stop offset="1" stop-color="white"/>
</linearGradient>
<linearGradient id="paint17_linear_814_6233" x1="14.7775" y1="46.8439" x2="14.7775" y2="52.571" gradientUnits="userSpaceOnUse">
<stop stop-color="#EDF4FF"/>
<stop offset="1" stop-color="#ABCCFF"/>
</linearGradient>
<linearGradient id="paint18_linear_814_6233" x1="112.084" y1="37.6321" x2="112.084" y2="43.3593" gradientUnits="userSpaceOnUse">
<stop stop-color="#EDF4FF"/>
<stop offset="1" stop-color="#ABCCFF"/>
</linearGradient>
<linearGradient id="paint19_linear_814_6233" x1="49.732" y1="75.0486" x2="55.7427" y2="75.2807" gradientUnits="userSpaceOnUse">
<stop stop-color="#2A64BE"/>
<stop offset="1" stop-color="#4B80D1"/>
</linearGradient>
<linearGradient id="paint20_linear_814_6233" x1="69.7487" y1="20.3788" x2="69.7487" y2="64.0598" gradientUnits="userSpaceOnUse">
<stop stop-color="#EDF4FF"/>
<stop offset="1" stop-color="#ABCCFF"/>
</linearGradient>
<linearGradient id="paint21_linear_814_6233" x1="87.4148" y1="31.5234" x2="78.4245" y2="24.5811" gradientUnits="userSpaceOnUse">
<stop stop-color="#EDF4FF"/>
<stop offset="1" stop-color="#ABCCFF"/>
</linearGradient>
<linearGradient id="paint22_linear_814_6233" x1="8.11912" y1="101.993" x2="51.8818" y2="97.0575" gradientUnits="userSpaceOnUse">
<stop offset="0.09375" stop-color="#2A64BE"/>
<stop offset="1" stop-color="#2A64BE" stop-opacity="0"/>
</linearGradient>
<linearGradient id="paint23_linear_814_6233" x1="41.8702" y1="102.545" x2="80.3703" y2="96.6754" gradientUnits="userSpaceOnUse">
<stop offset="0.09375" stop-color="#2A64BE"/>
<stop offset="1" stop-color="#2A64BE" stop-opacity="0"/>
</linearGradient>
<linearGradient id="paint24_linear_814_6233" x1="72.6191" y1="101.993" x2="108.486" y2="105.152" gradientUnits="userSpaceOnUse">
<stop offset="0.09375" stop-color="#265FB8"/>
<stop offset="1" stop-color="#84B4FF"/>
</linearGradient>
<linearGradient id="paint25_linear_814_6233" x1="13.8626" y1="18.0655" x2="44.2795" y2="47.0057" gradientUnits="userSpaceOnUse">
<stop stop-color="#FF698D"/>
<stop offset="1" stop-color="#FF3868"/>
</linearGradient>
<linearGradient id="paint26_linear_814_6233" x1="99.2492" y1="20.5176" x2="108.498" y2="28.5643" gradientUnits="userSpaceOnUse">
<stop stop-color="#94BFFF"/>
<stop offset="1" stop-color="#4C94FE"/>
</linearGradient>
<linearGradient id="paint27_linear_814_6233" x1="85.6105" y1="113.192" x2="94.8594" y2="121.239" gradientUnits="userSpaceOnUse">
<stop stop-color="#94BFFF"/>
<stop offset="1" stop-color="#4C94FE"/>
</linearGradient>
<linearGradient id="paint28_linear_814_6233" x1="12.2593" y1="84.7945" x2="5.69519" y2="90.1493" gradientUnits="userSpaceOnUse">
<stop stop-color="#70A8FF"/>
<stop offset="1" stop-color="#5597FD"/>
</linearGradient>
<linearGradient id="paint29_linear_814_6233" x1="118.065" y1="80.0996" x2="123.968" y2="86.1707" gradientUnits="userSpaceOnUse">
<stop stop-color="#70A8FF"/>
<stop offset="1" stop-color="#5597FD"/>
</linearGradient>
<linearGradient id="paint30_linear_814_6233" x1="62.8627" y1="0" x2="62.8627" y2="20.2837" gradientUnits="userSpaceOnUse">
<stop stop-color="#70A8FF"/>
<stop offset="1" stop-color="#5597FD"/>
</linearGradient>
<linearGradient id="paint31_linear_814_6233" x1="37.0482" y1="107.716" x2="37.0482" y2="128" gradientUnits="userSpaceOnUse">
<stop stop-color="#70A8FF"/>
<stop offset="1" stop-color="#5597FD"/>
</linearGradient>
</defs>
</svg>
