<svg width="20" height="20" viewBox="0 0 20 20" fill="none" xmlns="http://www.w3.org/2000/svg">
<path fill-rule="evenodd" clip-rule="evenodd" d="M9.22333 5.62514C9.70438 5.34718 10.2969 5.34718 10.778 5.62514L13.3892 7.13395C13.8715 7.41261 14.1673 7.92745 14.1673 8.48326V11.5167C14.1673 12.0725 13.8715 12.5874 13.3892 12.8661L10.778 14.3749C10.2969 14.6528 9.70438 14.6528 9.22333 14.3749L6.61211 12.8661C6.12985 12.5874 5.83398 12.0726 5.83398 11.5167V8.48326C5.83398 7.92745 6.12985 7.41261 6.61211 7.13395L9.22333 5.62514ZM10.0007 7.10088L7.50065 8.54543V11.4546L10.0007 12.8991L12.5007 11.4546V8.54543L10.0007 7.10088Z" fill="#929292"/>
<path fill-rule="evenodd" clip-rule="evenodd" d="M11.6673 1.66667C11.6673 1.8616 11.6339 2.04871 11.5724 2.22258L16.1444 4.8644C16.4468 4.44197 16.9416 4.16667 17.5007 4.16667C18.4211 4.16667 19.1673 4.91286 19.1673 5.83333C19.1673 6.75381 18.4211 7.5 17.5007 7.5V12.5C18.4211 12.5 19.1673 13.2462 19.1673 14.1667C19.1673 15.0871 18.4211 15.8333 17.5007 15.8333C16.9416 15.8333 16.4468 15.558 16.1444 15.1356L11.5724 17.7774C11.6339 17.9513 11.6673 18.1384 11.6673 18.3333C11.6673 19.2538 10.9211 20 10.0007 20C9.08018 20 8.33398 19.2538 8.33398 18.3333C8.33398 18.1384 8.36745 17.9513 8.42895 17.7774L3.85689 15.1356C3.55455 15.558 3.05975 15.8333 2.50065 15.8333C1.58018 15.8333 0.833984 15.0871 0.833984 14.1667C0.833984 13.2462 1.58018 12.5 2.50065 12.5V7.5C1.58018 7.5 0.833984 6.75381 0.833984 5.83333C0.833984 4.91286 1.58018 4.16667 2.50065 4.16667C3.05975 4.16667 3.55455 4.44197 3.85689 4.8644L8.42895 2.22258C8.36745 2.04871 8.33398 1.8616 8.33398 1.66667C8.33398 0.746192 9.08018 0 10.0007 0C10.9211 0 11.6673 0.746192 11.6673 1.66667ZM9.69676 3.4149L4.47433 6.43252C4.28521 6.5418 4.16732 6.74506 4.16732 6.96652V13.0335C4.16732 13.2549 4.28521 13.4582 4.47433 13.5675L9.69676 16.5851C9.88498 16.6939 10.1163 16.6939 10.3045 16.5851L15.527 13.5675C15.7161 13.4582 15.834 13.2549 15.834 13.0335V6.96652C15.834 6.74506 15.7161 6.5418 15.527 6.43252L10.3045 3.4149C10.1163 3.30614 9.88498 3.30614 9.69676 3.4149Z" fill="#929292"/>
</svg>
