<svg width="218" height="201" viewBox="0 0 218 201" fill="none" xmlns="http://www.w3.org/2000/svg">
<path d="M21.0332 145.684L27.3352 149.321V156.292L21.0332 152.654V145.684Z" fill="#3E85F4"/>
<path d="M27.334 149.321L46.8422 138.058C51.1861 135.55 58.2534 135.55 62.5974 138.058V145.029C58.2534 142.522 51.1861 142.522 46.8422 145.029L27.334 156.292V149.321Z" fill="#1C6DF6"/>
<path d="M62.5977 138.058L68.8997 134.419V141.391L62.5977 145.029V138.058Z" fill="#E7F0F4"/>
<path d="M21.0332 145.684L40.5414 134.421C48.3589 129.907 61.0812 129.907 68.8987 134.421L62.5967 138.06C58.2528 135.552 51.1855 135.552 46.8416 138.06L27.3334 149.323L21.0332 145.684Z" fill="#5195FB"/>
<path d="M62.5977 138.058C64.7696 139.311 65.8556 140.957 65.8556 142.604V149.576C65.8556 147.929 64.7696 146.282 62.5977 145.029V138.058Z" fill="#E84343"/>
<path d="M43.0898 158.417L49.3919 162.056V169.026L43.0898 165.389V158.417Z" fill="#FC5552"/>
<path d="M49.3906 162.056L68.8988 150.793C72.8076 148.537 74.762 145.572 74.762 142.608V149.58C74.762 152.545 72.8076 155.508 68.8988 157.765L49.3906 169.028V162.056Z" fill="#E84343"/>
<path d="M43.0898 158.417L62.5981 147.154C64.77 145.9 65.856 144.253 65.856 142.604C65.856 140.957 64.77 139.311 62.5981 138.058L68.9001 134.419C72.8088 136.676 74.7632 139.641 74.7632 142.606C74.7632 145.571 72.8088 148.535 68.9001 150.791L49.3919 162.054L43.0898 158.417Z" fill="#FF6666"/>
<path d="M50.972 89.5007C50.8744 89.7895 50.775 90.0784 50.6719 90.3654C51.559 87.8502 52.3543 85.2356 53.0277 82.5779C52.5813 84.3447 52.0823 86.0853 51.5421 87.7789C55.8204 84.853 61.4416 80.2634 63.7092 75.5876C66.6689 69.4844 62.0925 66.731 55.3572 66.5322C55.3572 66.3878 55.3722 66.0914 55.3722 65.2849C66.7065 65.54 69.1635 72.4572 60.7645 81.4751C57.9774 84.4666 54.4269 87.2237 50.972 89.5007Z" fill="#E84343"/>
<path d="M59.1716 106.569C57.6167 107.928 55.1128 107.769 53.753 106.09C53.6836 106.013 53.6217 105.938 53.5654 105.854C52.4063 104.224 52.7533 101.949 54.2875 100.7C54.4338 100.582 54.5933 100.471 54.7583 100.373C54.8352 100.505 55.1672 101.186 55.4523 101.893C55.5498 102.135 55.6473 102.378 55.7242 102.607C55.7242 102.607 56.5907 103.232 56.9527 102.197C56.6958 101.441 56.3281 100.614 55.9812 99.914C56.8965 99.7414 57.8268 99.9139 58.6033 100.364C59.0816 100.634 59.5054 101.017 59.8318 101.495C60.9534 103.121 60.6421 105.314 59.1716 106.569Z" fill="#0B45B2"/>
<path d="M58.1438 105.695C56.9227 106.756 55.1259 106.887 53.753 106.09C53.6836 106.013 53.6217 105.938 53.5654 105.854C52.4063 104.224 52.7533 101.949 54.2875 100.7C54.4338 101.039 54.5782 101.414 54.6964 101.741C54.6964 101.741 55.0847 102.018 55.4523 101.893C55.5498 102.135 55.6473 102.378 55.7242 102.607C55.7242 102.607 56.5907 103.232 56.9527 102.197C56.6958 101.441 56.3281 100.614 55.9812 99.914C56.8965 99.7414 57.8268 99.9139 58.6033 100.364C58.6802 100.447 58.7421 100.538 58.804 100.629C59.9274 102.253 59.6086 104.44 58.1438 105.695Z" fill="#3E85F4"/>
<path d="M55.725 102.607C54.337 98.5823 50.3289 93.2331 47.658 89.9377C42.4044 83.4575 35.7498 76.7822 29.4759 71.5887C26.7731 69.3511 23.5527 66.8773 20.5573 65.0204C18.7417 63.8951 14.2403 61.228 12.2296 61.9351C11.5413 62.177 11.4888 62.9273 11.5675 63.6606C11.9577 67.2055 16.3391 73.0629 16.4403 73.303C16.5266 73.4756 16.4666 73.7025 16.3316 73.8713C16.1028 74.1546 15.6882 74.2502 15.4463 74.0795C15.33 74.0795 11.7045 68.8954 10.6391 65.4031C10.3128 64.3302 10.0389 63.0285 10.4703 61.9857C12.0252 58.2345 19.3157 62.6065 22.7068 64.8628C30.1979 69.8425 40.9377 79.5169 48.9484 89.4725C51.6343 92.8111 55.5693 98.1471 56.9535 102.198C56.5896 103.226 55.725 102.607 55.725 102.607Z" fill="#FCD561"/>
<path d="M54.1571 66.5209L54.1684 65.283C54.1609 60.7103 53.4932 55.0329 51.1037 51.1298C50.9724 50.916 50.8373 50.704 50.6948 50.4996C50.6948 50.4996 50.2428 49.9725 50.8204 49.633C51.3963 49.2954 51.6307 49.618 51.6307 49.618C51.7695 49.8112 51.9027 50.0119 52.0321 50.2145C55.9709 56.4489 55.7833 66.5566 54.7499 73.8357C53.9152 79.7195 52.5685 85.1999 50.3515 91.2581C50.0721 90.8942 49.7888 90.5304 49.5 90.1646C52.1334 82.7316 53.9883 74.4659 54.1571 66.5209Z" fill="#69A4FC"/>
<path d="M55.6592 107.34C52.767 108.062 47.4872 104.77 45.0039 103.114C45.244 102.675 45.5778 102.052 45.6191 101.97C47.7367 103.386 51.1897 105.494 53.6955 106.027C54.2038 106.67 54.8865 107.124 55.6592 107.34Z" fill="#FCD561"/>
<path d="M30.8005 71.0146C37.7515 68.0775 46.6326 65.3917 54.1669 65.281C54.1688 65.6974 54.165 66.11 54.1556 66.5189C47.0189 66.5864 38.2523 69.1522 31.7833 71.855C30.9937 71.176 30.2022 70.5195 29.4238 69.8818C29.8984 70.2663 30.3767 70.6583 30.8005 71.0146Z" fill="#E84343"/>
<path d="M52.0285 50.2145C51.8972 50.0138 51.766 49.8112 51.6272 49.618C51.6272 49.618 51.3927 49.2992 50.8169 49.633C50.2411 49.9725 50.6912 50.4996 50.6912 50.4996C50.8375 50.7078 50.9688 50.9141 51.1001 51.1298C49.0744 52.6565 46.2779 52.3658 44.5917 50.6384C44.3141 50.3533 44.0647 50.0269 43.8565 49.6593C42.024 46.5102 44.1716 42.4177 47.9322 42.2639C48.765 42.2301 49.5321 42.3951 50.1979 42.7084C52.8969 43.9556 54.0692 47.5567 52.0285 50.2145Z" fill="#E84343"/>
<path d="M50.6143 49.2186C49.0669 51.2086 46.548 51.5668 44.5917 50.6384C44.3141 50.3533 44.0647 50.0269 43.8565 49.6593C42.024 46.5102 44.1716 42.4177 47.9322 42.2639C48.765 42.2301 49.5321 42.3951 50.1979 42.7084C51.8484 44.3589 52.2498 47.116 50.6143 49.2186Z" fill="#FC5552"/>
<path d="M48.976 91.5993C48.976 91.528 51.3899 94.7278 52.9279 97.1642C51.9357 95.5962 50.8365 94.0526 49.8143 92.6947C48.3326 96.3971 47.0291 99.5087 44.7521 103.569C41.1734 110.003 35.3703 117.963 28.7625 121.129C22.0797 124.33 16.0571 121.8 13.5307 112.698C12.6529 109.528 12.3359 106.008 12.3359 102.69C12.4053 102.69 13.3769 102.707 13.5363 102.693C13.5419 107.782 14.3672 114.461 17.6814 118.345C20.3147 121.431 24.3567 122.436 29.8053 119.201C35.8748 115.594 41.3553 107.604 44.647 101.309C45.5567 99.5687 46.4007 97.8094 47.0722 96.2752C48.1263 93.9251 48.9122 91.7512 48.976 91.5993Z" fill="#69A4FC"/>
<path d="M49.96 88.8293C49.9506 88.8781 49.5586 89.996 49.4986 90.1648C49.3185 89.9341 49.1329 89.7033 48.9453 89.4726C49.2867 89.2588 49.6261 89.0469 49.96 88.8293Z" fill="#E84343"/>
<path d="M47.8291 90.1553C47.8572 90.1834 48.5174 91.0181 48.5362 91.0387C36.6805 98.2072 24.0689 101.998 15.533 102.609C12.7364 102.799 10.9321 102.675 9.41097 102.454C9.00771 101.576 9.75046 101.225 9.75046 101.225C10.8608 101.384 12.065 101.474 13.5467 101.458C16.8665 101.42 20.1095 100.886 23.3787 100.169C27.8801 99.1825 35.6676 96.3766 35.9246 96.1196C39.7396 94.5592 43.9334 92.5016 47.8291 90.1553Z" fill="#E84343"/>
<path d="M45.0025 84.8322C44.2804 84.0275 43.5527 83.2304 42.7968 82.4314C39.2932 78.6858 35.5007 75.0529 31.7832 71.855C31.7832 71.855 32.5428 72.5095 32.9255 72.8434C36.6711 72.5245 40.0996 74.1 42.3466 76.7146C44.1903 78.8659 45.237 81.7318 45.0025 84.8322Z" fill="#1C6DF6"/>
<path d="M38.233 96.3897C38.4675 96.6242 41.7929 99.3269 44.6457 101.309C44.6176 101.392 43.4922 103.434 44.0324 102.454C42.712 101.54 41.4028 100.572 40.1424 99.5876C39.6172 99.1787 36.922 96.9787 36.9032 96.9618C36.1436 97.2825 35.3614 97.6013 34.5605 97.9127C38.7281 96.2847 42.7795 94.3435 46.4576 92.2578C43.9199 93.7039 41.1871 95.09 38.233 96.3897Z" fill="#FCD561"/>
<path d="M44.7517 86.5053C43.767 90.7517 40.464 93.9102 36.4615 94.8649C33.7831 95.5044 31.0354 95.135 28.6777 93.9083C27.1922 93.1318 25.9656 92.0759 25.0147 90.8417C22.2538 87.2612 21.8374 82.2046 24.2438 78.264C25.8531 75.5575 28.4695 73.7682 31.2642 73.1099C35.0529 76.3978 38.9092 80.1171 42.5235 84.0371C43.2812 84.8474 44.024 85.6726 44.7517 86.5053Z" fill="#1C6DF6"/>
<path d="M43.4811 45.5442C43.4455 45.6867 43.2842 46.0281 43.2111 46.8309C39.2123 47.2416 35.2678 50.3363 32.4525 53.2341C29.6898 56.0757 26.6325 60.1082 23.6728 65.5211C23.3465 65.2942 23.022 65.0747 22.7031 64.8628C26.0867 58.6996 31.104 51.6474 37.0178 47.9168C38.9891 46.6752 41.1873 45.7317 43.4811 45.5442Z" fill="#69A4FC"/>
<path d="M37.2513 95.5643L35.9253 96.1214C35.9253 96.1214 35.8521 96.0688 35.4939 95.7575C35.4939 95.7575 34.8224 95.1723 34.7793 95.1348C34.9837 95.1348 36.3135 94.9341 36.4411 94.8704C36.5123 94.9285 36.473 94.9041 37.2513 95.5643Z" fill="#FCD561"/>
<path d="M20.7578 76.0003C25.0848 73.5114 29.4025 71.5889 29.4719 71.5889C29.7195 71.7952 30.3853 72.3522 30.4528 72.4141C27.2568 73.7889 24.1639 75.3326 21.1386 77.0769C21.4893 76.8762 21.1029 75.794 20.7578 76.0003Z" fill="#E84343"/>
<path d="M23.0393 66.6617C23.1894 66.7517 21.6645 68.8205 19.1193 75.3588C19.1006 75.4057 19.0312 75.3982 18.9711 75.3925C18.6898 75.3607 18.3841 75.265 18.1065 75.0924C18.0558 75.0606 17.9958 75.0212 18.0127 74.9743C19.1755 71.9884 20.5485 68.9236 22.0847 66.0127C22.1165 66.0258 23.0018 66.6354 23.0393 66.6617Z" fill="#69A4FC"/>
<path d="M22.6986 83.1422C21.2543 81.5217 19.9264 79.9556 18.7598 78.5058C19.3056 78.1644 19.8495 77.8381 19.872 77.825C19.9414 77.825 20.1871 78.3276 22.9517 81.4786C22.7398 82.3282 22.6648 83.5492 22.6986 83.1422Z" fill="#FCD561"/>
<path d="M3.08473 96.0671C3.41672 95.9077 2.62331 96.2396 1.99874 96.8079C1.56735 93.2874 4.27759 89.4162 6.67837 86.7923C9.81814 83.2905 14.3552 79.9426 18.3372 77.4537C18.8004 77.163 20.7079 76.0076 20.7961 75.9869C21.145 75.9007 21.4394 76.8122 21.1768 77.0523C21.1768 77.0523 18.8361 78.4571 18.6542 78.5753C17.9414 79.0329 17.8158 79.1173 17.7445 79.153C17.6957 79.1774 16.2327 80.1377 16.1652 80.2033C12.1252 82.9304 7.10789 87.0886 4.61708 91.2524C3.7543 92.6929 3.01158 94.394 3.08473 96.0671Z" fill="#E84343"/>
<path d="M19.1708 76.9397C19.3715 76.8178 19.5721 76.6977 19.7747 76.5796C19.2983 76.8628 18.82 77.1535 18.3398 77.4536C18.4693 77.0954 18.6006 76.7353 18.7338 76.3789C18.8763 76.5665 19.0245 76.754 19.1708 76.9397Z" fill="#FCD561"/>
<path d="M18.0144 74.9722C17.9957 75.0191 18.0576 75.0584 18.1082 75.0903C18.3502 75.2422 18.6484 75.3529 18.9729 75.3904C19.031 75.3979 19.1023 75.4035 19.1211 75.3566C18.8529 76.0469 18.5865 76.7671 18.3389 77.4536C17.8156 77.7799 17.2942 78.125 16.7634 78.4645C16.7184 78.4945 16.6959 78.5845 17.041 77.5961C17.4518 76.437 17.6731 75.8556 18.0144 74.9722Z" fill="#69A4FC"/>
<path d="M16.4391 73.303C16.3978 73.1567 16.2046 73.0423 17.8946 75.2855C17.5926 76.0658 17.3882 76.636 17.3582 76.7166C16.6511 75.7938 15.9927 74.9048 15.3438 73.9802C15.37 74.0177 15.4206 74.0645 15.445 74.0795C15.9008 74.404 16.6792 73.7832 16.4391 73.303Z" fill="#FCD561"/>
<path d="M12.3525 101.446C12.5232 94.3602 14.018 86.9291 16.1675 80.2033C16.2369 80.1339 17.6436 79.2186 17.713 79.1735C17.8968 79.0591 13.8005 89.5287 13.5491 101.459C12.8195 101.467 11.8686 101.433 12.3525 101.446Z" fill="#69A4FC"/>
<path d="M10.1588 101.281C10.0275 101.26 9.88499 101.238 9.75369 101.225C9.75369 101.225 9.01095 101.572 9.41421 102.453C9.66366 102.487 9.71995 102.496 9.79685 102.504C8.58333 105.188 5.33474 106.195 2.8308 104.745C1.9699 104.246 1.28345 103.504 0.85394 102.609C0.812677 102.519 0.771395 102.421 0.730132 102.324C-0.372726 99.6381 1.14656 96.3858 4.17192 95.6768C5.94061 95.253 7.66804 95.8438 8.81967 97.016C9.855 98.072 10.4289 99.61 10.1588 101.281Z" fill="#FEB30F"/>
<path d="M9.1477 100.312C8.88511 101.386 8.27365 102.33 7.39962 103.011C5.45649 104.558 2.59805 104.37 0.849984 102.609C0.80872 102.519 0.767496 102.422 0.726233 102.324C-0.376625 99.6382 1.1426 96.3859 4.16796 95.6769C5.93666 95.2531 7.65846 95.8495 8.81571 97.0161C9.28086 98.0083 9.43279 99.1656 9.1477 100.312Z" fill="#FBC22C"/>
<path d="M41.6816 98.2915C41.7229 98.3403 41.8542 98.2709 41.6816 98.2915V98.2915Z" fill="#1C6DF6"/>
<path d="M42.5244 84.0352C43.2802 84.8473 44.023 85.6725 44.7507 86.5053C43.766 90.7516 40.4631 93.9101 36.4605 94.8648C33.7821 95.5044 31.0344 95.1349 28.6767 93.9083C27.1913 93.1318 25.9646 92.0758 25.0137 90.8417C28.2604 92.0421 33.4221 93.3175 37.2521 91.2581C40.3112 89.6057 41.8791 86.8448 42.5244 84.0352Z" fill="#0B45B2"/>
<path d="M45.0055 84.8324C44.2834 84.0278 43.5557 83.2307 42.7998 82.4317C43.0493 80.2747 42.8073 78.2059 42.3496 76.7148C44.1933 78.8661 45.24 81.7321 45.0055 84.8324Z" fill="#0B45B2"/>
<path d="M32.1906 80.1566C32.1906 81.4019 31.1816 82.411 29.9362 82.411C28.6908 82.411 27.6816 81.4019 27.6816 80.1566C27.6816 78.9112 28.6908 77.9021 29.9362 77.9021C31.1816 77.9021 32.1906 78.9112 32.1906 80.1566Z" fill="#69A4FC"/>
<path d="M46.5026 46.1182C46.5026 46.5965 46.1144 46.9848 45.6361 46.9848C45.1578 46.9848 44.7695 46.5965 44.7695 46.1182C44.7695 45.64 45.1578 45.2517 45.6361 45.2517C46.1144 45.2517 46.5026 45.64 46.5026 46.1182Z" fill="#FC9F9C"/>
<path d="M4.00707 100.475C4.72182 100.475 5.30124 99.8954 5.30124 99.1806C5.30124 98.4659 4.72182 97.8865 4.00707 97.8865C3.29231 97.8865 2.71289 98.4659 2.71289 99.1806C2.71289 99.8954 3.29231 100.475 4.00707 100.475Z" fill="#FCEAB2"/>
<path d="M207.179 92.3349C207.109 92.5393 207.038 92.7438 206.967 92.9464C207.593 91.1683 208.156 89.319 208.632 87.4415C208.317 88.6906 207.963 89.921 207.582 91.1195C210.607 89.0507 214.582 85.806 216.184 82.5012C218.275 78.1873 215.041 76.2405 210.279 76.0998C210.279 75.9985 210.288 75.7884 210.288 75.2183C218.301 75.3983 220.04 80.2898 214.1 86.6631C212.13 88.775 209.621 90.7237 207.179 92.3349Z" fill="#E84343"/>
<path d="M212.975 104.4C211.876 105.363 210.106 105.248 209.145 104.063C209.097 104.008 209.052 103.954 209.012 103.896C208.192 102.744 208.438 101.135 209.522 100.252C209.625 100.169 209.738 100.09 209.856 100.021C209.911 100.115 210.145 100.595 210.348 101.096C210.417 101.268 210.484 101.439 210.539 101.602C210.539 101.602 211.152 102.043 211.407 101.311C211.225 100.777 210.965 100.193 210.721 99.6964C211.368 99.5745 212.026 99.6964 212.574 100.015C212.912 100.207 213.212 100.477 213.442 100.814C214.238 101.962 214.016 103.513 212.975 104.4Z" fill="#0B45B2"/>
<path d="M212.249 103.783C211.387 104.534 210.115 104.627 209.145 104.063C209.097 104.009 209.052 103.954 209.012 103.896C208.192 102.744 208.438 101.135 209.522 100.252C209.625 100.492 209.729 100.756 209.811 100.987C209.811 100.987 210.085 101.184 210.346 101.094C210.415 101.266 210.483 101.437 210.537 101.6C210.537 101.6 211.15 102.041 211.405 101.31C211.223 100.775 210.963 100.192 210.719 99.6947C211.366 99.5728 212.024 99.6947 212.572 100.014C212.626 100.072 212.67 100.135 212.715 100.199C213.512 101.351 213.285 102.894 212.249 103.783Z" fill="#3E85F4"/>
<path d="M210.541 101.6C209.56 98.7548 206.726 94.9717 204.837 92.6422C201.124 88.0601 196.42 83.3412 191.982 79.6706C190.071 78.0895 187.794 76.3396 185.678 75.0266C184.393 74.2314 181.212 72.3446 179.791 72.8453C179.305 73.016 179.267 73.5468 179.324 74.0645C179.599 76.5703 182.696 80.7116 182.769 80.8804C182.829 81.0023 182.788 81.1636 182.692 81.2818C182.531 81.4825 182.238 81.5499 182.066 81.428C181.983 81.428 179.419 77.7631 178.667 75.293C178.436 74.5352 178.243 73.6143 178.547 72.8772C179.646 70.2251 184.8 73.3161 187.199 74.9104C192.496 78.4309 200.088 85.2693 205.753 92.3084C207.653 94.6698 210.434 98.4416 211.411 101.306C211.153 102.037 210.541 101.6 210.541 101.6Z" fill="#FCD561"/>
<path d="M209.43 76.0865L209.438 75.2106C209.432 71.9771 208.961 67.9633 207.271 65.2043C207.18 65.0524 207.082 64.9042 206.983 64.7598C206.983 64.7598 206.664 64.3865 207.071 64.1465C207.478 63.9083 207.645 64.1352 207.645 64.1352C207.742 64.2721 207.838 64.4128 207.928 64.5572C210.713 68.9649 210.58 76.1109 209.849 81.2575C209.258 85.4176 208.307 89.2925 206.739 93.5745C206.542 93.3176 206.341 93.0606 206.137 92.8018C207.999 87.5483 209.312 81.7039 209.43 76.0865Z" fill="#69A4FC"/>
<path d="M210.495 104.946C208.451 105.456 204.718 103.129 202.963 101.959C203.134 101.649 203.368 101.208 203.398 101.15C204.895 102.152 207.337 103.641 209.107 104.018C209.466 104.472 209.948 104.793 210.495 104.946Z" fill="#FCD561"/>
<path d="M192.921 79.2658C197.835 77.1895 204.114 75.2895 209.439 75.2126C209.439 75.5071 209.437 75.7997 209.432 76.0886C204.386 76.1355 198.189 77.951 193.615 79.8604C193.058 79.3802 192.497 78.9151 191.947 78.4649C192.283 78.7369 192.621 79.0126 192.921 79.2658Z" fill="#E84343"/>
<path d="M207.928 64.5591C207.834 64.4166 207.742 64.274 207.645 64.1371C207.645 64.1371 207.478 63.9121 207.071 64.1484C206.664 64.3885 206.983 64.7617 206.983 64.7617C207.086 64.908 207.178 65.0543 207.272 65.2062C205.839 66.2847 203.862 66.0802 202.671 64.8592C202.474 64.6585 202.298 64.4279 202.151 64.1672C200.857 61.9408 202.374 59.0486 205.032 58.938C205.621 58.9136 206.163 59.0318 206.634 59.2512C208.541 60.1346 209.37 62.6798 207.928 64.5591Z" fill="#E84343"/>
<path d="M206.928 63.8558C205.833 65.2625 204.055 65.5157 202.671 64.8592C202.474 64.6585 202.298 64.4279 202.151 64.1672C200.857 61.9408 202.374 59.0486 205.032 58.938C205.621 58.9136 206.163 59.0318 206.634 59.2512C207.802 60.4197 208.086 62.3684 206.928 63.8558Z" fill="#FC5552"/>
<path d="M205.771 93.8184C205.771 93.7696 207.478 96.0297 208.564 97.7534C207.863 96.6449 207.086 95.5533 206.362 94.593C205.315 97.2113 204.393 99.4114 202.783 102.283C200.253 106.831 196.151 112.458 191.479 114.697C186.754 116.961 182.497 115.172 180.711 108.737C180.09 106.496 179.865 104.007 179.867 101.662C179.916 101.662 180.602 101.673 180.715 101.664C180.719 105.261 181.302 109.982 183.647 112.73C185.507 114.911 188.366 115.622 192.218 113.334C196.51 110.785 200.383 105.136 202.712 100.685C203.355 99.4545 203.952 98.2111 204.426 97.127C205.171 95.4633 205.726 93.9253 205.771 93.8184Z" fill="#69A4FC"/>
<path d="M206.465 91.8604C206.457 91.8941 206.181 92.6856 206.138 92.8038C206.011 92.6406 205.879 92.4774 205.748 92.3143C205.99 92.1642 206.23 92.0123 206.465 91.8604Z" fill="#E84343"/>
<path d="M204.962 92.7961C204.981 92.8149 205.45 93.4076 205.461 93.4207C197.081 98.4886 188.162 101.169 182.129 101.6C180.152 101.733 178.876 101.647 177.802 101.49C177.517 100.869 178.042 100.621 178.042 100.621C178.826 100.734 179.677 100.797 180.726 100.786C183.072 100.76 185.366 100.381 187.677 99.8747C190.86 99.1769 196.364 97.1944 196.546 97.0125C199.242 95.9097 202.207 94.456 204.962 92.7961Z" fill="#E84343"/>
<path d="M202.961 89.0337C202.451 88.4654 201.937 87.9008 201.401 87.3363C198.923 84.6879 196.243 82.1202 193.615 79.8601C193.615 79.8601 194.152 80.3234 194.422 80.5578C197.07 80.3328 199.493 81.445 201.082 83.2944C202.389 84.8155 203.128 86.8411 202.961 89.0337Z" fill="#1C6DF6"/>
<path d="M198.174 97.2039C198.341 97.3708 200.691 99.2802 202.707 100.683C202.689 100.741 201.891 102.185 202.274 101.492C201.34 100.846 200.415 100.16 199.524 99.4658C199.153 99.1751 197.234 97.609 197.234 97.609C196.698 97.836 196.145 98.061 195.578 98.2805C198.525 97.1289 201.389 95.7578 203.988 94.2817C202.195 95.3058 200.263 96.2848 198.174 97.2039Z" fill="#FCD561"/>
<path d="M202.783 90.2154C202.087 93.2164 199.745 95.4539 196.913 96.1273C195.035 96.5755 193.086 96.3167 191.419 95.4483C190.369 94.8987 189.502 94.1541 188.829 93.2801C186.876 90.7499 186.582 87.1732 188.285 84.3879C189.423 82.4748 191.273 81.2088 193.25 80.7437C195.919 83.0544 198.655 85.6971 201.21 88.4692C201.744 89.0431 202.269 89.6284 202.783 90.2154Z" fill="#1C6DF6"/>
<path d="M201.885 61.2581C201.861 61.3575 201.746 61.5994 201.694 62.1677C198.867 62.4585 196.078 64.6454 194.088 66.6954C192.136 68.7042 189.973 71.5551 187.88 75.3813C187.649 75.22 187.42 75.0662 187.193 74.9161C189.585 70.5591 193.133 65.5738 197.314 62.9367C198.71 62.0571 200.263 61.3893 201.885 61.2581Z" fill="#69A4FC"/>
<path d="M197.482 96.6205L196.545 97.0144C196.545 97.0144 196.492 96.9768 196.239 96.7574C196.239 96.7574 195.764 96.3429 195.732 96.3167C195.877 96.3167 196.822 96.1722 196.912 96.1272C196.967 96.1685 196.933 96.1535 197.482 96.6205Z" fill="#FCD561"/>
<path d="M185.82 82.7898C188.879 81.0304 191.931 79.6707 191.982 79.6707C192.156 79.817 192.627 80.2108 192.676 80.2558C190.417 81.2274 188.23 82.319 186.09 83.5531C186.336 83.4087 186.064 82.6435 185.82 82.7898Z" fill="#E84343"/>
<path d="M187.434 76.186C187.541 76.2497 186.462 77.7127 184.661 82.3341C184.648 82.3679 184.6 82.3622 184.556 82.3585C184.358 82.336 184.142 82.2685 183.945 82.1466C183.909 82.1241 183.866 82.0959 183.879 82.0641C184.703 79.9521 185.672 77.7858 186.758 75.7283C186.781 75.7376 187.407 76.1691 187.434 76.186Z" fill="#69A4FC"/>
<path d="M187.192 87.839C186.169 86.693 185.232 85.5846 184.408 84.5624C184.795 84.3204 185.194 84.0803 185.194 84.0803C185.243 84.0803 185.417 84.4348 187.372 86.663C187.222 87.2632 187.167 88.126 187.192 87.839Z" fill="#FCD561"/>
<path d="M173.327 96.9769C173.561 96.8643 173 97.0988 172.558 97.5001C172.252 95.0112 174.169 92.2747 175.866 90.4179C178.085 87.9421 181.292 85.5751 184.11 83.8158C184.438 83.6095 185.785 82.7936 185.848 82.7786C186.096 82.7186 186.302 83.3601 186.118 83.5326C186.118 83.5326 184.464 84.5267 184.335 84.6092C183.832 84.9337 183.742 84.9918 183.691 85.0181C183.656 85.0349 182.622 85.714 182.575 85.7608C179.719 87.689 176.172 90.6298 174.411 93.5727C173.798 94.5911 173.274 95.7934 173.327 96.9769Z" fill="#E84343"/>
<path d="M184.698 83.4539C184.839 83.3676 184.982 83.2831 185.126 83.1987C184.79 83.3994 184.451 83.6039 184.111 83.8177C184.203 83.5645 184.295 83.3094 184.389 83.0581C184.49 83.1894 184.595 83.3226 184.698 83.4539Z" fill="#FCD561"/>
<path d="M183.883 82.0623C183.87 82.0941 183.913 82.1242 183.949 82.1448C184.12 82.2517 184.332 82.3305 184.56 82.3567C184.602 82.3624 184.652 82.3661 184.666 82.3324C184.474 82.8219 184.287 83.3283 184.112 83.814C183.743 84.0447 183.373 84.2886 182.998 84.5287C182.966 84.5493 182.951 84.6149 183.195 83.9154C183.484 83.0995 183.64 82.6868 183.883 82.0623Z" fill="#69A4FC"/>
<path d="M182.765 80.8824C182.735 80.7792 182.6 80.6986 183.793 82.2835C183.579 82.8349 183.434 83.2382 183.414 83.2944C182.915 82.6417 182.45 82.0134 181.99 81.3588C182.009 81.385 182.045 81.4188 182.061 81.4301C182.386 81.6608 182.936 81.2219 182.765 80.8824Z" fill="#FCD561"/>
<path d="M179.878 100.779C180 95.769 181.056 90.5155 182.575 85.7609C182.624 85.7121 183.618 85.065 183.669 85.0331C183.798 84.9525 180.904 92.3535 180.726 100.788C180.208 100.794 179.537 100.769 179.878 100.779Z" fill="#69A4FC"/>
<path d="M178.326 100.662C178.232 100.647 178.133 100.632 178.039 100.623C178.039 100.623 177.514 100.869 177.799 101.491C177.975 101.516 178.015 101.521 178.069 101.527C177.21 103.425 174.914 104.136 173.144 103.112C172.536 102.759 172.05 102.234 171.747 101.602C171.716 101.538 171.688 101.469 171.658 101.401C170.878 99.5033 171.953 97.2038 174.091 96.703C175.342 96.4029 176.563 96.8212 177.377 97.6502C178.112 98.3929 178.517 99.4807 178.326 100.662Z" fill="#FEB30F"/>
<path d="M177.613 99.9758C177.428 100.735 176.996 101.403 176.377 101.883C175.004 102.977 172.983 102.844 171.747 101.598C171.716 101.534 171.688 101.465 171.658 101.398C170.878 99.4994 171.953 97.1999 174.091 96.6992C175.342 96.3991 176.557 96.8211 177.377 97.6463C177.705 98.3478 177.814 99.1674 177.613 99.9758Z" fill="#FBC22C"/>
<path d="M200.611 98.5487C200.641 98.5843 200.733 98.5356 200.611 98.5487V98.5487Z" fill="#1C6DF6"/>
<path d="M201.211 88.4692C201.745 89.0432 202.271 89.6265 202.785 90.2155C202.089 93.2164 199.746 95.454 196.914 96.1273C195.036 96.5756 193.088 96.3167 191.42 95.4483C190.37 94.8988 189.503 94.1542 188.83 93.2801C191.126 94.1279 194.774 95.032 197.482 93.5746C199.647 92.408 200.755 90.4555 201.211 88.4692Z" fill="#0B45B2"/>
<path d="M202.959 89.0337C202.449 88.4654 201.935 87.9009 201.399 87.3363C201.575 85.8115 201.405 84.3504 201.08 83.2944C202.387 84.8155 203.126 86.8412 202.959 89.0337Z" fill="#0B45B2"/>
<path d="M192.311 87.3213C193.192 87.3213 193.905 86.6076 193.905 85.7271C193.905 84.8466 193.192 84.1328 192.311 84.1328C191.431 84.1328 190.717 84.8466 190.717 85.7271C190.717 86.6076 191.431 87.3213 192.311 87.3213Z" fill="#69A4FC"/>
<path d="M203.408 62.2764C203.747 62.2764 204.022 62.0018 204.022 61.6631C204.022 61.3244 203.747 61.0498 203.408 61.0498C203.07 61.0498 202.795 61.3244 202.795 61.6631C202.795 62.0018 203.07 62.2764 203.408 62.2764Z" fill="#FC9F9C"/>
<path d="M174.891 99.1768C174.891 99.6813 174.482 100.092 173.976 100.092C173.471 100.092 173.061 99.6832 173.061 99.1768C173.061 98.6722 173.469 98.2615 173.976 98.2615C174.482 98.2634 174.891 98.6722 174.891 99.1768Z" fill="#FCEAB2"/>
<path d="M87.7408 27.6154C87.3394 27.6154 86.968 27.3566 86.8442 26.9515L79.655 3.53282C79.5031 3.03766 79.7788 2.51433 80.2758 2.3624C80.7691 2.20485 81.2961 2.48624 81.4462 2.98327L88.6354 26.4019C88.7873 26.8971 88.5116 27.4203 88.0146 27.5723C87.9227 27.6041 87.8308 27.6154 87.7408 27.6154Z" fill="#C6DFFD"/>
<path d="M152.663 67.0441C152.259 67.0441 151.888 66.7833 151.766 66.3782L144.134 41.1796C143.984 40.6845 144.264 40.1611 144.761 40.0111C145.256 39.8592 145.779 40.1387 145.929 40.6376L153.561 65.8361C153.711 66.3313 153.432 66.8546 152.935 67.0047C152.843 67.0309 152.753 67.0441 152.663 67.0441Z" fill="#C6DFFD"/>
<path d="M93.1465 99.7544C93.1465 106.418 102.504 111.82 114.046 111.82C125.589 111.82 134.946 106.418 134.946 99.7544V101.767C134.946 108.431 125.589 113.833 114.046 113.833C102.504 113.833 93.1465 108.431 93.1465 101.767V99.7544Z" fill="#3E85F4"/>
<path d="M93.1465 99.7544C93.1465 93.0904 102.504 87.6868 114.046 87.6868C125.589 87.6868 134.946 93.0885 134.946 99.7544C134.946 106.418 125.589 111.82 114.046 111.82C102.504 111.82 93.1465 106.418 93.1465 99.7544Z" fill="#71AAF9"/>
<path d="M102.71 40.6866C102.71 51.3587 93.3866 56.8429 81.8854 56.8429C70.3841 56.8429 61.0586 51.1355 61.0586 40.6866C61.0586 34.047 70.3823 28.6621 81.8854 28.6621C93.3885 28.6621 102.71 34.0451 102.71 40.6866Z" fill="#0B45B2"/>
<path d="M81.8854 52.711C93.3877 52.711 102.712 47.3275 102.712 40.6866C102.712 34.0456 93.3877 28.6621 81.8854 28.6621C70.3831 28.6621 61.0586 34.0456 61.0586 40.6866C61.0586 47.3275 70.3831 52.711 81.8854 52.711Z" fill="#71AAF9"/>
<path d="M100.856 40.6452C100.873 46.7333 92.3629 51.638 81.8858 51.638C73.3217 51.638 66.0856 48.3651 63.7261 43.8656C63.1972 42.8603 62.9121 41.793 62.9121 40.6864C62.9121 34.6395 71.4049 29.7349 81.8858 29.7349C92.3404 29.733 100.837 34.617 100.856 40.6452Z" fill="#3E85F4"/>
<path d="M165.577 76.9829C165.577 87.655 156.254 93.1393 144.753 93.1393C133.251 93.1393 123.928 87.4318 123.928 76.9829C123.928 70.3433 133.251 64.9585 144.753 64.9585C156.254 64.9585 165.577 70.3414 165.577 76.9829Z" fill="#0B45B2"/>
<path d="M144.753 89.0073C156.254 89.0073 165.577 83.6238 165.577 76.9829C165.577 70.342 156.254 64.9585 144.753 64.9585C133.251 64.9585 123.928 70.342 123.928 76.9829C123.928 83.6238 133.251 89.0073 144.753 89.0073Z" fill="#71AAF9"/>
<path d="M163.725 76.9435C163.744 83.0317 155.232 87.9363 144.755 87.9363C136.191 87.9363 128.955 84.6635 126.595 80.1639C126.066 79.1586 125.781 78.0914 125.781 76.9848C125.781 70.9379 134.274 66.0332 144.755 66.0332C155.21 66.0313 163.706 70.9135 163.725 76.9435Z" fill="#3E85F4"/>
<path d="M131.865 73.2017L141.671 78.8641V86.4246L131.865 80.7622V73.2017Z" fill="#FCDC79"/>
<path d="M141.672 78.8641L151.478 73.2017V80.7622L141.672 86.4246V78.8641Z" fill="#FCD96E"/>
<path d="M131.865 73.2016L141.671 67.541L151.477 73.2016L141.671 78.864L131.865 73.2016Z" fill="#FFE856"/>
<path d="M109.883 25.4846C109.883 26.7356 111.638 27.7485 113.805 27.7485C115.971 27.7485 117.727 26.7356 117.727 25.4846L116.356 32.4599L117.727 97.6724C117.727 98.9235 115.971 99.9363 113.805 99.9363C111.638 99.9363 109.883 98.9216 109.883 97.6724L111.327 32.4318L109.883 25.4846Z" fill="#ABD0FC"/>
<path d="M145.667 41.3053C145.667 41.3053 141.353 42.5507 139.194 41.1253C137.037 39.7036 128.254 31.0702 122.708 28.0467C120.819 27.017 119.069 26.4187 117.589 26.083C117.137 27.0414 115.616 27.7466 113.808 27.7466C111.641 27.7466 109.886 26.732 109.886 25.4828C109.886 24.8057 106.47 18.7832 102.986 16.6619C97.4393 13.2783 88.6559 11.7685 86.499 10.6994C84.342 9.63029 80.0262 3.40707 80.0262 3.40707C79.9212 2.70185 79.9643 2.35489 80.1218 2.26299C80.8665 1.8316 84.1938 7.41333 85.7281 8.29673C87.5774 9.36582 90.1958 7.67591 95.4362 8.38488C100.677 9.10136 108.995 15.681 108.995 15.681L112.849 6.09293L116.7 20.1299C116.7 20.1299 125.022 23.157 130.261 28.4912C135.501 33.8329 138.119 38.5463 139.965 39.6135C141.812 40.6808 146.28 37.9236 145.667 41.3053Z" fill="#C6DFFD"/>
<path d="M110.313 14.9214L108.992 15.6829C108.992 15.6829 100.674 9.10334 95.4334 8.38687C90.193 7.67789 87.5765 9.36781 85.7253 8.29872C84.1929 7.41719 80.8656 1.83353 80.1191 2.26492L81.4395 1.50347C82.1879 1.07209 85.5153 6.65194 87.0458 7.53722C88.8951 8.60255 91.5172 6.91639 96.7539 7.62537C101.992 8.33997 110.313 14.9214 110.313 14.9214Z" fill="#E5EFFA"/>
<path d="M114.167 5.3335L112.847 6.09683L108.994 15.683L110.315 14.9215L114.167 5.3335Z" fill="#DDECFD"/>
<path d="M118.015 19.3667L116.694 20.1319L112.844 6.09683L114.164 5.3335L118.015 19.3667Z" fill="#DDECFD"/>
<path d="M146.987 40.5403L145.666 41.3055C146.281 37.9219 141.812 40.6809 139.962 39.6156C138.115 38.5465 135.498 33.8331 130.258 28.4933C125.019 23.1591 116.697 20.1319 116.697 20.1319L118.018 19.3667C118.018 19.3667 126.34 22.3939 131.578 27.7318C136.817 33.0698 139.435 37.7869 141.287 38.8522C143.132 39.9195 147.6 37.1623 146.987 40.5403Z" fill="#E5EFFA"/>
<path d="M91.2619 51.7412C90.8324 51.7412 90.446 51.4467 90.3485 51.0097L80.2146 6.01986L62.9177 40.3844C62.6833 40.8477 62.1187 41.0353 61.6592 40.8009C61.1959 40.5683 61.0103 40.0037 61.2428 39.5423L80.8917 0.5L92.1772 50.5971C92.2935 51.1035 91.9747 51.6042 91.4701 51.7186C91.3989 51.7337 91.3294 51.7412 91.2619 51.7412Z" fill="#C6DFFD"/>
<path d="M153.737 88.3152C153.302 88.3152 152.91 88.0076 152.82 87.5631L144.035 43.8074L125.665 78.2038C125.418 78.6633 124.847 78.8303 124.395 78.5902C123.938 78.3445 123.765 77.7762 124.009 77.3205L144.843 38.3081L154.658 87.1917C154.762 87.6999 154.431 88.1933 153.923 88.2964C153.861 88.3095 153.799 88.3152 153.737 88.3152Z" fill="#C6DFFD"/>
<path d="M78.9528 160.533C79.0579 160.201 79.1498 159.961 79.2173 159.807C79.448 159.269 79.8738 158.278 80.8134 157.177C81.7269 156.12 82.5127 155.624 83.0848 155.274C83.9551 154.778 84.7578 154.522 85.4574 154.394C86.4046 154.214 87.1567 154.274 87.6256 154.317C88.3515 154.377 89.9401 154.685 92.476 156.06C93.3462 156.528 94.798 157.314 95.7208 158.194C96.2666 158.715 96.5404 158.98 97.0787 159.706C97.4707 160.235 97.8308 160.917 98.1291 161.456C98.4873 162.121 98.7686 162.557 99.2994 163.052C100.052 163.768 100.989 164.306 101.357 164.503C102.518 165.136 102.852 165.109 103.748 165.032C104.294 164.989 105.592 164.879 107.138 165.272C108.888 165.708 110.296 166.46 110.988 166.861C111.543 167.186 112.022 167.536 112.277 167.724C113.284 168.45 114.327 169.457 114.983 170.353C115.248 170.704 116.041 171.788 116.375 173.281C116.503 173.836 116.546 174.382 116.546 174.894C116.529 176.413 116.041 177.678 115.7 178.403C114.88 180.137 113.813 181.23 113.01 181.87C112.549 182.237 112.164 182.451 111.969 182.552C111.311 182.903 109.775 183.696 107.239 183.329C104.523 182.937 102.312 181.586 101.485 181.024C98.5567 179.043 97.6677 177.13 97.2419 176.217C96.8668 175.414 96.713 175.082 95.5163 174.356C93.3819 173.067 92.204 173.092 91.3506 173.109C90.0958 173.142 89.2593 173.142 87.9445 172.818C86.6466 172.493 85.5287 171.861 84.9229 171.52C84.9229 171.52 83.9232 170.939 82.8747 170.222C82.2258 169.778 81.8244 169.436 81.4736 169.138C81.1229 168.857 80.3464 168.114 79.8438 167.362C79.6224 167.037 79.1085 166.268 78.8028 165.167C78.2795 163.273 78.6377 161.534 78.9528 160.533ZM112.611 181.946C112.714 181.886 112.815 181.817 112.918 181.75C114.831 180.468 116.334 177.745 116.324 175.509C116.324 175.348 116.317 175.192 116.298 175.039C116.11 173.212 114.786 172.426 113.123 173.101C112.943 173.178 112.764 173.264 112.584 173.375C110.861 174.375 109.409 176.56 108.998 178.634C108.912 179.036 108.871 179.429 108.871 179.814C108.871 182.177 110.553 183.134 112.611 181.946Z" fill="#FC5552"/>
<path d="M100.537 169.824C100.537 169.824 102.55 169.018 106.794 170.708C109.259 171.689 109.717 174.57 109.075 175.53C108.436 176.49 105.868 177.764 103.525 176.156C101.183 174.549 99.4702 171.357 100.537 169.824Z" fill="#FF6666"/>
<path d="M83.0803 158.595C84.2544 156.838 87.5179 157.419 90.7909 159.794C95.2154 163.003 95.5587 165.876 94.9172 166.839C94.2777 167.799 88.2288 166.002 86.3251 164.398C83.6411 162.14 82.2006 159.912 83.0803 158.595Z" fill="#FF6666"/>
<path d="M78.7997 165.169C79.1073 166.27 79.6193 167.039 79.8406 167.364C80.3433 168.114 81.1217 168.858 81.4705 169.14C81.8213 169.438 82.2227 169.779 82.8716 170.224C83.922 170.94 84.9198 171.522 84.9198 171.522C85.5256 171.863 86.6435 172.495 87.9414 172.82C89.2562 173.144 90.0927 173.144 91.3475 173.11C92.2009 173.094 93.3788 173.067 95.5132 174.358C96.708 175.084 96.8618 175.416 97.2388 176.218C97.6664 177.132 98.5536 179.045 101.481 181.025C102.309 181.588 104.522 182.939 107.236 183.331C109.772 183.698 111.308 182.903 111.966 182.554C112.163 182.451 112.547 182.239 113.007 181.871L110.668 178.833C110.668 178.833 109.438 182.061 108.431 181.924C106.005 181.583 102.53 179.9 100.465 178.441C97.5614 176.391 97.6233 172.083 98.3154 170.188C99.1575 167.881 101.797 165.574 105.655 166.497C109.241 167.36 112.964 169.913 114.389 172.371C115.353 174.02 114.594 176.025 114.68 175.975C114.766 175.931 116.456 174.95 116.541 174.898C116.541 174.386 116.497 173.84 116.37 173.285C116.036 171.79 115.243 170.706 114.978 170.357C114.322 169.461 113.279 168.453 112.272 167.728C112.015 167.54 111.538 167.189 110.983 166.865C110.291 166.463 108.883 165.711 107.133 165.276C105.587 164.884 104.289 164.995 103.743 165.036C102.847 165.113 102.515 165.139 101.352 164.507C100.984 164.31 100.045 163.774 99.2944 163.055C98.7655 162.56 98.4842 162.125 98.124 161.459C97.8258 160.921 97.4676 160.238 97.0737 159.709C96.5354 158.983 96.2634 158.719 95.7158 158.198C94.793 157.318 93.3412 156.532 92.4709 156.063C89.9351 154.688 88.3465 154.381 87.6206 154.321C87.1517 154.278 86.3996 154.218 85.4525 154.398C87.9789 154.748 90.3966 155.832 92.7354 157.599C97.8746 161.476 99.6977 166.22 98.0228 168.851C94.8961 173.763 86.6228 170.072 85.188 169.288C77.6912 165.173 79.006 160.852 78.9459 160.536C78.629 161.532 78.2783 163.273 78.7997 165.169Z" fill="#E84343"/>
<path d="M108.869 179.812C108.869 182.177 110.552 183.134 112.609 181.946C114.667 180.759 116.332 177.865 116.323 175.509C116.323 173.144 114.64 172.188 112.583 173.375C110.525 174.56 108.862 177.456 108.869 179.812Z" fill="#E84343"/>
<path d="M112.064 178.687C112.064 179 112.179 179.214 112.378 179.298L137.038 193.566L144.334 198.887L149.689 200.498L151.979 199.174L149.346 196.36L139.683 192.026L113.672 176.976C113.458 176.89 113.244 176.905 113.002 177.047C112.49 177.349 112.064 178.088 112.064 178.687Z" fill="#69A4FC"/>
<path d="M112.064 178.707C112.064 179.02 112.179 179.234 112.378 179.319L137.038 192.712L144.334 198.033L149.689 200.5L151.979 199.176L149.346 195.509L139.683 191.174L113.672 176.999C113.458 176.912 113.244 176.927 113.002 177.07C112.49 177.37 112.064 178.111 112.064 178.707Z" fill="#99C1FD"/>
<path d="M151.031 199.166C151.031 199.166 150.853 199.735 149.75 199.77C148.647 199.806 144.913 197.956 144.913 197.956L138.082 193.224C138.082 193.224 143.064 196.195 144.557 197.172C145.785 197.979 148.79 199.986 151.031 199.166Z" fill="white"/>
<path d="M183.98 159.276L184.196 171.355C185.005 171.393 185.82 171.201 186.546 170.783L211.37 156.45C211.891 156.148 212.154 155.619 212.154 155.092V143.009L183.98 159.276Z" fill="#FC5552"/>
<path d="M129.953 127.691V139.633C129.953 140.162 130.214 140.689 130.735 140.991L182.238 170.781C182.845 171.134 183.519 171.325 184.198 171.355V158.217L140.241 132.789L129.953 127.691Z" fill="#E84343"/>
<path d="M186.546 158.699L211.371 144.365C212.416 143.761 212.416 142.255 211.373 141.651L159.871 111.861C158.537 111.09 156.894 111.09 155.562 111.859L130.737 126.193C129.692 126.797 129.692 128.303 130.735 128.907L182.237 158.697C183.569 159.47 185.212 159.469 186.546 158.699Z" fill="#FC7464"/>
<path d="M158.786 113.874L169.488 120.052L144.732 134.344L134.031 128.166L158.786 113.874Z" fill="#E84343"/>
<path d="M144.763 133.898L167.379 120.84L158.755 115.86L136.137 128.918L144.763 133.898Z" fill="#1C6DF6"/>
<path d="M162.231 140.693C167.24 143.585 175.386 143.57 180.428 140.659C185.47 137.748 185.494 133.046 180.484 130.154C175.474 127.262 167.329 127.277 162.287 130.188C157.247 133.099 157.221 137.803 162.231 140.693Z" fill="#FC5552"/>
<path d="M163.895 141.207C167.992 143.572 174.654 143.561 178.776 141.18C182.899 138.8 182.92 134.954 178.823 132.588C174.727 130.223 168.065 130.235 163.942 132.615C159.82 134.995 159.797 138.842 163.895 141.207Z" fill="#E84343"/>
<path d="M181.081 154.441C182.224 155.101 184.082 155.098 185.23 154.434C186.38 153.77 186.386 152.697 185.243 152.038C184.101 151.378 182.242 151.382 181.095 152.046C179.945 152.708 179.939 153.781 181.081 154.441Z" fill="#202A5F"/>
<path d="M181.461 154.557C182.395 155.098 183.914 155.094 184.854 154.552C185.793 154.01 185.799 153.132 184.865 152.592C183.931 152.052 182.412 152.055 181.472 152.597C180.532 153.141 180.527 154.019 181.461 154.557Z" fill="#0E173D"/>
<path d="M179.8 140.999C179.8 140.999 181.726 139.986 180.854 139.483L165.459 132.095C164.587 131.591 163.266 131.536 162.511 131.973L161.787 130.495C161.031 130.932 161.637 133.296 162.509 133.798L176.904 142.109C176.904 142.109 179.044 141.436 179.8 140.999Z" fill="#FC5552"/>
<path d="M180.196 140.655L180.41 140.532C181.166 140.095 181.071 139.333 180.198 138.828C180.198 138.828 177.01 135.424 172.647 133.127C168.433 130.906 165.456 130.317 165.456 130.317C164.584 129.812 163.263 129.758 162.508 130.195L162.294 130.319C161.538 130.756 161.632 131.517 162.506 132.022C162.506 132.022 166.017 133.129 170.261 135.158C174.326 137.101 177.248 140.533 177.248 140.533C178.12 141.038 179.441 141.092 180.196 140.655Z" fill="#FC7464"/>
<path d="M180.923 149.523V146.676L176.496 152.459L176.913 154.848L180.923 149.523Z" fill="#5195FB"/>
<path d="M180.922 146.676L178.786 145.637L174.697 151.347L176.496 152.459L180.922 146.676Z" fill="#81B2FC"/>
<path d="M176.915 154.848L175.375 155.914V155.233L176.498 152.459L176.915 154.848Z" fill="#1C6DF6"/>
<path d="M174.699 151.346L176.497 152.459L175.374 155.233L174.023 154.452L174.699 151.346Z" fill="#5195FB"/>
<path d="M174.023 155.233V154.452L175.374 155.233V155.913L174.023 155.233Z" fill="#5195FB"/>
<path d="M176.911 146.849V144.003L172.484 149.784L172.901 152.174L176.911 146.849Z" fill="#C02106"/>
<path d="M176.911 144.003L174.774 142.962L170.686 148.674L172.484 149.784L176.911 144.003Z" fill="#FC5552"/>
<path d="M172.903 152.173L171.363 153.239V152.558L172.487 149.784L172.903 152.173Z" fill="#FC5552"/>
<path d="M170.687 148.674L172.486 149.784L171.362 152.558L170.012 151.778L170.687 148.674Z" fill="#C02106"/>
<path d="M170.012 152.558V151.778L171.362 152.558V153.239L170.012 152.558Z" fill="#FC5552"/>
<path d="M71.6362 112.63L79.8739 117.387V115.969L71.9794 111.411C71.685 111.242 71.1035 111.224 71.1035 111.616C71.1054 112.006 71.3436 112.461 71.6362 112.63Z" fill="#C9DEFE"/>
<path d="M80.6431 115.689C80.6525 114.937 80.133 114.62 79.484 114.98C78.835 115.342 78.3005 116.246 78.2911 116.999C78.2818 117.751 78.8013 118.068 79.4502 117.707C80.1011 117.347 80.6338 116.443 80.6431 115.689Z" fill="#FF8980"/>
<path d="M84.3704 122.991C84.7924 123.374 85.4489 123.404 86.1898 122.991C87.4858 122.269 88.5512 120.466 88.5699 118.964L80.6455 115.691C80.6361 116.443 80.1015 117.347 79.4525 117.709C79.0812 117.916 78.7511 117.901 78.541 117.709C80.4841 119.469 82.4273 121.23 84.3704 122.991Z" fill="#FF8980"/>
<path d="M80.1934 114.862C80.4728 114.954 80.651 115.247 80.6454 115.689L88.5698 118.962C88.5811 118.079 88.2266 117.495 87.6695 117.313C87.4426 117.24 80.4166 114.935 80.1934 114.862Z" fill="#FF8980"/>
<path d="M87.6693 117.313C87.4442 117.24 80.4182 114.937 80.195 114.864C80 114.8 79.7542 114.834 79.4879 114.982C78.8389 115.344 78.3044 116.248 78.295 117C78.2913 117.323 78.3832 117.565 78.5426 117.709C80.4857 119.47 82.4289 121.23 84.372 122.991C84.0569 122.704 83.8712 122.222 83.8787 121.579C83.8975 120.076 84.9628 118.274 86.2589 117.552C86.7897 117.253 87.2792 117.186 87.6693 117.313Z" fill="#FC5552"/>
<path d="M86.1872 123.175C84.803 123.946 83.6964 123.27 83.7171 121.667C83.7358 120.063 84.8744 118.137 86.2586 117.366C87.6428 116.595 88.7493 117.271 88.7287 118.874C88.7081 120.478 87.5714 122.404 86.1872 123.175ZM88.5693 118.962C88.588 117.46 87.5527 116.828 86.2567 117.55C84.9606 118.272 83.8952 120.074 83.8765 121.577C83.8577 123.079 84.8931 123.711 86.1891 122.989C87.4852 122.267 88.5524 120.465 88.5693 118.962Z" fill="#FF8980"/>
<path d="M88.7548 116.501C88.736 116.49 88.5729 116.393 88.3497 116.332C88.2071 116.293 88.057 116.272 87.9014 116.269C87.4456 116.257 87.0817 116.392 86.9073 116.458C86.7254 116.526 86.3577 116.685 85.9038 117.023C85.4274 117.377 85.0561 117.788 84.9473 117.917C84.8367 118.049 84.651 118.27 84.5328 118.443C84.4746 118.525 84.3959 118.636 84.3415 118.722C84.2871 118.808 84.214 118.923 84.1633 119.011C84.1108 119.099 84.047 119.217 83.9963 119.307C83.9963 119.307 83.85 119.577 83.7056 119.917C83.5893 120.192 83.5444 120.331 83.475 120.543C83.3718 120.858 83.0548 121.969 83.2949 122.995C83.3174 123.094 83.3887 123.398 83.5781 123.711C83.7507 123.998 83.9701 124.182 84.0395 124.227C84.1164 124.277 84.2158 124.349 84.2983 124.388C84.3509 124.413 84.4184 124.446 84.4709 124.465C84.5459 124.491 84.6472 124.527 84.7241 124.542C84.8573 124.57 84.9642 124.591 85.1799 124.593C85.313 124.594 85.4912 124.57 85.6244 124.549C85.6244 124.549 85.962 124.495 86.3746 124.3C86.8116 124.094 87.1567 123.825 87.1567 123.825C87.3049 123.709 87.4962 123.548 87.6369 123.422C87.7101 123.357 87.802 123.267 87.8677 123.193C88.1527 122.884 88.1527 122.882 88.299 122.696C88.4809 122.466 88.6085 122.276 88.6891 122.154C88.9667 121.729 89.128 121.389 89.1824 121.277C89.2687 121.096 89.3681 120.851 89.4394 120.665C89.4769 120.573 89.5144 120.446 89.5463 120.35C89.5782 120.254 89.6157 120.127 89.6382 120.029C89.6795 119.844 89.7301 119.596 89.762 119.41C89.7789 119.315 89.7901 119.185 89.7976 119.088C89.8051 118.998 89.807 118.876 89.8107 118.786C89.8107 118.731 89.7751 118.679 89.6907 118.63C89.4769 118.506 88.9799 118.735 88.7285 118.876C88.7098 120.479 87.5713 122.406 86.1871 123.177C84.8029 123.947 83.6963 123.272 83.7169 121.669C83.7357 120.065 84.8742 118.139 86.2584 117.368C87.6426 116.597 88.7492 117.272 88.7285 118.876C88.9799 118.735 89.4769 118.506 89.6907 118.63C89.777 118.681 89.8126 118.733 89.8107 118.786C89.8145 118.399 89.7695 118.156 89.7695 118.156C89.7413 118.009 89.6982 117.814 89.6551 117.672C89.6325 117.589 89.5875 117.484 89.5519 117.407C89.2856 116.824 88.9123 116.599 88.7548 116.501Z" fill="#FF8980"/>
<path d="M86.7693 123.514C85.3851 124.285 84.2785 123.61 84.2991 122.006C84.3179 120.403 85.4563 118.476 86.8405 117.705C88.2247 116.935 89.3314 117.61 89.3107 119.213C89.2901 120.817 88.1535 122.743 86.7693 123.514ZM89.1513 119.302C89.17 117.799 88.1347 117.167 86.8386 117.889C85.5426 118.611 84.4773 120.414 84.4585 121.916C84.4398 123.419 85.4751 124.051 86.7712 123.329C88.0672 122.606 89.1325 120.804 89.1513 119.302Z" fill="#FF8980"/>
<path d="M89.8112 118.784C89.8112 118.615 89.7962 118.39 89.7794 118.221C89.7719 118.137 89.7494 118.024 89.7306 117.942C89.6856 117.745 89.6856 117.745 89.5749 117.454C89.5449 117.377 89.4942 117.28 89.453 117.21C89.3911 117.105 89.2936 116.974 89.2148 116.878C89.1642 116.818 89.0891 116.743 89.0272 116.695C88.9485 116.633 88.8416 116.548 88.7534 116.5C88.6559 116.447 88.5096 116.37 88.3483 116.331C88.2282 116.301 88.0631 116.278 87.9394 116.267C87.8606 116.259 87.7575 116.265 87.6787 116.273C87.5999 116.28 87.493 116.289 87.4161 116.308C87.3448 116.325 87.2492 116.344 87.1779 116.365C87.0954 116.389 86.9847 116.423 86.9059 116.455C86.7577 116.516 86.5608 116.605 86.4201 116.683C86.2607 116.772 86.0525 116.914 85.9043 117.019C85.8237 117.075 85.7262 117.152 85.6512 117.22C85.3342 117.499 85.3341 117.499 85.1747 117.666C84.8746 117.978 84.5951 118.332 84.3419 118.718C84.1581 119 84.0362 119.227 83.9968 119.302C83.8712 119.536 83.843 119.602 83.7061 119.911C83.7061 119.911 83.5824 120.196 83.4755 120.538C83.4023 120.774 83.3985 120.787 83.3123 121.168C83.2616 121.391 83.2091 121.789 83.2072 122.117C83.2054 122.288 83.2166 122.515 83.2391 122.685C83.2654 122.878 83.2691 122.895 83.3516 123.201C83.3892 123.34 83.5261 123.661 83.6742 123.85C83.7643 123.966 83.8356 124.058 83.9762 124.173C84.0231 124.21 84.085 124.259 84.1357 124.289C84.205 124.332 84.3007 124.381 84.372 124.418C84.4508 124.46 84.5652 124.499 84.6514 124.52C84.7096 124.533 84.7884 124.553 84.8465 124.563C84.9309 124.574 85.0415 124.587 85.1259 124.589C85.2591 124.591 85.4354 124.574 85.5667 124.557C85.6568 124.546 85.7731 124.516 85.8593 124.491C86.2739 124.375 86.6265 124.169 86.6265 124.169C86.7821 124.077 86.9828 123.946 87.131 123.842C87.2135 123.786 87.3167 123.704 87.3917 123.638C87.6974 123.37 87.6993 123.368 87.8663 123.194C88.0613 122.991 88.1701 122.854 88.2976 122.697C88.3164 122.672 88.4889 122.456 88.6878 122.154C88.8097 121.967 88.8097 121.967 89.0291 121.577C89.1117 121.429 89.1191 121.412 89.3161 120.973C89.3573 120.883 89.4024 120.757 89.438 120.663C89.438 120.663 89.6124 120.196 89.7062 119.727C89.7362 119.581 89.8037 119.234 89.8112 118.784C89.8094 118.927 89.5524 119.079 89.3123 119.212C89.2917 120.815 88.1551 122.742 86.7709 123.512C85.3867 124.283 84.2801 123.608 84.3007 122.004C84.3195 120.401 85.4579 118.475 86.8421 117.704C88.2263 116.933 89.333 117.608 89.3123 119.212C89.5524 119.08 89.8112 118.928 89.8112 118.784Z" fill="#FC7464"/>
<path d="M95.2303 129.785C95.6992 130.079 96.3556 130.057 97.0871 129.65C98.537 128.841 99.728 126.825 99.7486 125.144L89.1514 119.304C89.1327 120.806 88.0673 122.609 86.7713 123.331C86.1185 123.694 85.5315 123.715 85.1113 123.453C88.4855 125.563 91.8579 127.673 95.2303 129.785Z" fill="#FF8980"/>
<path d="M88.4355 117.732C88.8857 117.974 89.1614 118.52 89.152 119.302L99.7492 125.142C99.7605 124.268 99.451 123.657 98.9484 123.385C95.4428 121.502 91.9392 119.617 88.4355 117.732Z" fill="#FF8980"/>
<path d="M98.9464 123.387C95.4428 121.502 91.9392 119.617 88.4355 117.732C88.021 117.509 87.4602 117.544 86.8394 117.889C85.5433 118.611 84.478 120.414 84.4592 121.916C84.4499 122.661 84.6993 123.192 85.1119 123.45C88.4843 125.562 91.8566 127.672 95.229 129.784C94.7676 129.496 94.4881 128.903 94.4994 128.068C94.52 126.388 95.711 124.371 97.1609 123.563C97.8548 123.177 98.4832 123.137 98.9464 123.387Z" fill="#FC5552"/>
<path d="M124.607 144.358C124.798 144.453 125.053 144.433 125.335 144.275C125.939 143.94 126.434 143.099 126.443 142.4L99.7494 125.142C99.7288 126.823 98.5378 128.839 97.0879 129.648C96.4108 130.025 95.7975 130.071 95.3398 129.844C105.095 134.682 114.85 139.519 124.607 144.358Z" fill="#FF8980"/>
<path d="M99.0547 123.45C99.4955 123.747 99.7599 124.332 99.7505 125.144L126.444 142.401C126.448 142.064 126.337 141.82 126.155 141.696C117.121 135.614 108.088 129.533 99.0547 123.45Z" fill="#FF8980"/>
<path d="M126.443 142.4C126.452 141.7 125.97 141.406 125.366 141.741C124.762 142.077 124.267 142.917 124.258 143.617C124.25 144.316 124.732 144.611 125.335 144.275C125.938 143.939 126.434 143.099 126.443 142.4Z" fill="#FF8980"/>
<path d="M126.153 141.696C117.12 135.614 108.087 129.533 99.0523 123.45C98.5815 123.134 97.9101 123.147 97.1598 123.563C95.71 124.371 94.519 126.388 94.4983 128.068C94.4871 128.965 94.8115 129.584 95.3367 129.844C105.094 134.682 114.849 139.519 124.606 144.358C124.388 144.249 124.251 143.992 124.257 143.619C124.266 142.919 124.761 142.081 125.365 141.743C125.678 141.569 125.958 141.563 126.153 141.696Z" fill="#E84343"/>
<path d="M62.4683 120.896L70.706 125.653V124.235L62.8115 119.677C62.5189 119.508 61.9375 119.489 61.9375 119.881C61.9375 120.272 62.1739 120.727 62.4683 120.896Z" fill="#C9DEFE"/>
<path d="M70.7096 123.466C70.7189 122.712 70.1994 122.396 69.5504 122.757C68.9014 123.119 68.3669 124.023 68.3575 124.775C68.3482 125.529 68.8677 125.844 69.5166 125.484C70.1656 125.122 70.7002 124.218 70.7096 123.466Z" fill="#009FBD"/>
<path d="M74.4329 130.765C74.8549 131.148 75.5114 131.178 76.2523 130.765C77.5483 130.043 78.6137 128.241 78.6324 126.738L70.708 123.466C70.6986 124.218 70.164 125.122 69.515 125.484C69.1437 125.69 68.8136 125.675 68.6035 125.484C70.5448 127.245 72.4879 129.004 74.4329 130.765Z" fill="#009FBD"/>
<path d="M70.2539 122.638C70.5334 122.73 70.7115 123.023 70.7059 123.466L78.6304 126.738C78.6416 125.855 78.2871 125.272 77.7301 125.09C77.505 125.015 70.479 122.712 70.2539 122.638Z" fill="#009FBD"/>
<path d="M77.7298 125.088C77.5047 125.015 70.4787 122.712 70.2555 122.637C70.0604 122.573 69.8147 122.607 69.5465 122.755C68.8975 123.117 68.363 124.021 68.3536 124.773C68.3499 125.096 68.4418 125.338 68.6012 125.482C70.5443 127.243 72.4874 129.002 74.4306 130.764C74.1136 130.477 73.9298 129.995 73.9373 129.351C73.956 127.849 75.0214 126.047 76.3175 125.324C76.852 125.028 77.3415 124.961 77.7298 125.088Z" fill="#5195FB"/>
<path d="M76.2497 130.949C74.8655 131.72 73.7589 131.045 73.7796 129.441C73.8002 127.838 74.9368 125.911 76.321 125.141C77.7052 124.37 78.8118 125.045 78.7912 126.649C78.7706 128.254 77.6339 130.178 76.2497 130.949ZM78.6318 126.739C78.6505 125.236 77.6152 124.604 76.3192 125.326C75.0231 126.048 73.9577 127.851 73.939 129.353C73.9202 130.855 74.9556 131.488 76.2516 130.765C77.5477 130.043 78.613 128.241 78.6318 126.739Z" fill="#009FBD"/>
<path d="M78.8165 124.278C78.7977 124.266 78.6346 124.169 78.4114 124.109C78.2688 124.069 78.1187 124.049 77.9631 124.045C77.5073 124.034 77.1434 124.169 76.969 124.234C76.7871 124.302 76.4195 124.461 75.9656 124.799C75.4892 125.154 75.1178 125.564 75.009 125.694C74.8983 125.825 74.7126 126.046 74.5945 126.219C74.5382 126.303 74.4576 126.412 74.4032 126.498C74.3488 126.585 74.2756 126.699 74.225 126.787C74.1725 126.875 74.1087 126.994 74.058 127.084C74.058 127.084 73.9099 127.354 73.7673 127.693C73.651 127.969 73.606 128.108 73.5367 128.32C73.4335 128.635 73.1184 129.745 73.3566 130.771C73.3791 130.87 73.4504 131.174 73.6398 131.487C73.8124 131.774 74.0318 131.958 74.1012 132.005C74.1781 132.056 74.2775 132.127 74.36 132.166C74.4107 132.191 74.4801 132.225 74.5326 132.243C74.6076 132.27 74.707 132.305 74.7858 132.32C74.9208 132.348 75.0259 132.369 75.2435 132.371C75.3766 132.373 75.5548 132.348 75.688 132.328C75.688 132.328 76.0256 132.273 76.4382 132.078C76.8752 131.872 77.2203 131.604 77.2203 131.604C77.3685 131.487 77.5598 131.324 77.7005 131.2C77.7737 131.135 77.8655 131.045 77.9312 130.972C78.2163 130.662 78.2163 130.66 78.3626 130.475C78.5445 130.244 78.6721 130.055 78.7527 129.933C79.0303 129.507 79.1916 129.165 79.246 129.055C79.3323 128.875 79.4317 128.629 79.5049 128.443C79.5405 128.351 79.5799 128.222 79.6118 128.128C79.6437 128.033 79.6811 127.905 79.7036 127.808C79.7468 127.622 79.7956 127.374 79.8274 127.187C79.8443 127.091 79.8555 126.962 79.8631 126.864C79.8706 126.774 79.8725 126.654 79.8762 126.562C79.8762 126.508 79.8406 126.455 79.7562 126.406C79.5424 126.283 79.0453 126.511 78.794 126.652C78.7752 128.256 77.6367 130.182 76.2525 130.953C74.8683 131.724 73.7617 131.049 73.7824 129.445C73.803 127.841 74.9396 125.915 76.3238 125.144C77.708 124.373 78.8146 125.049 78.794 126.652C79.0453 126.511 79.5424 126.283 79.7562 126.406C79.8425 126.457 79.8781 126.51 79.8762 126.562C79.88 126.176 79.8349 125.932 79.8349 125.932C79.8068 125.786 79.7637 125.591 79.7224 125.448C79.698 125.365 79.6549 125.26 79.6193 125.184C79.3473 124.6 78.9759 124.373 78.8165 124.278Z" fill="#009FBD"/>
<path d="M76.8318 131.289C75.4476 132.06 74.341 131.385 74.3616 129.781C74.3804 128.177 75.5188 126.251 76.903 125.48C78.2872 124.709 79.3939 125.385 79.3732 126.988C79.3545 128.594 78.216 130.518 76.8318 131.289ZM79.2138 127.078C79.2325 125.576 78.1972 124.944 76.9012 125.666C75.6051 126.388 74.5398 128.19 74.521 129.693C74.5023 131.195 75.5376 131.827 76.8337 131.105C78.1297 130.383 79.195 128.581 79.2138 127.078Z" fill="#5195FB"/>
<path d="M79.8717 126.56C79.8717 126.392 79.8567 126.167 79.8398 126C79.8323 125.915 79.8098 125.803 79.7911 125.72C79.7461 125.523 79.746 125.523 79.6354 125.233C79.6054 125.156 79.5547 125.058 79.5135 124.989C79.4497 124.884 79.3522 124.752 79.2753 124.657C79.2247 124.597 79.1496 124.522 79.0877 124.473C79.0089 124.411 78.902 124.327 78.8139 124.278C78.7164 124.225 78.5701 124.148 78.4088 124.109C78.2887 124.079 78.1237 124.057 77.998 124.045C77.9192 124.038 77.8161 124.043 77.7373 124.051C77.6585 124.058 77.5516 124.068 77.4747 124.087C77.4035 124.103 77.3078 124.122 77.2365 124.143C77.154 124.167 77.0433 124.201 76.9646 124.235C76.8164 124.297 76.6194 124.385 76.4788 124.464C76.3193 124.554 76.1112 124.694 75.963 124.797C75.8823 124.854 75.7848 124.932 75.7098 124.998C75.3928 125.278 75.3928 125.278 75.2334 125.444C74.9333 125.756 74.6538 126.11 74.4006 126.497C74.2168 126.778 74.0948 127.005 74.0554 127.08C73.9298 127.314 73.9016 127.38 73.7647 127.69C73.7647 127.69 73.641 127.973 73.534 128.316C73.4609 128.552 73.4571 128.565 73.3709 128.946C73.3202 129.169 73.2677 129.567 73.2658 129.895C73.264 130.066 73.2752 130.295 73.2977 130.464C73.324 130.657 73.3277 130.674 73.4102 130.979C73.4478 131.118 73.5847 131.439 73.731 131.628C73.821 131.745 73.8923 131.836 74.0329 131.951C74.0798 131.988 74.1418 132.037 74.1924 132.067C74.2618 132.11 74.3574 132.159 74.4287 132.197C74.5075 132.236 74.6219 132.277 74.7082 132.298C74.7663 132.311 74.8451 132.332 74.9033 132.341C74.9858 132.352 75.0983 132.365 75.1827 132.367C75.3159 132.369 75.4922 132.352 75.6235 132.335C75.7135 132.324 75.8298 132.294 75.9161 132.27C76.3306 132.153 76.6832 131.947 76.6832 131.947C76.8388 131.855 77.0396 131.724 77.1877 131.621C77.2684 131.565 77.3734 131.482 77.4485 131.416C77.7542 131.148 77.756 131.146 77.923 130.972C78.118 130.769 78.2268 130.634 78.3544 130.475C78.3731 130.45 78.5456 130.235 78.7445 129.933C78.8664 129.745 78.8664 129.745 79.0858 129.355C79.1684 129.207 79.1759 129.19 79.3728 128.751C79.4141 128.661 79.4591 128.535 79.4948 128.442C79.4948 128.442 79.6692 127.975 79.763 127.504C79.7967 127.356 79.8661 127.011 79.8717 126.56C79.8699 126.703 79.6129 126.855 79.3728 126.99C79.3541 128.594 78.2156 130.52 76.8314 131.291C75.4472 132.062 74.3406 131.386 74.3612 129.783C74.38 128.179 75.5184 126.253 76.9026 125.482C78.2868 124.711 79.3935 125.386 79.3728 126.99C79.6129 126.855 79.8717 126.703 79.8717 126.56Z" fill="#99C1FD"/>
<path d="M85.2928 137.559C85.7617 137.851 86.4181 137.831 87.1496 137.424C88.5995 136.615 89.7905 134.599 89.8111 132.919L79.2139 127.078C79.1952 128.58 78.1298 130.383 76.8338 131.105C76.181 131.469 75.594 131.49 75.1738 131.227C78.548 133.337 81.9204 135.449 85.2928 137.559Z" fill="#009FBD"/>
<path d="M78.498 125.506C78.9482 125.748 79.2239 126.294 79.2145 127.076L89.8117 132.917C89.823 132.043 89.5135 131.431 89.0109 131.159C85.5053 129.276 82.0017 127.391 78.498 125.506Z" fill="#009FBD"/>
<path d="M89.0089 131.161C85.5053 129.276 82.0017 127.391 78.498 125.506C78.0835 125.283 77.5227 125.319 76.9019 125.664C75.6059 126.386 74.5405 128.188 74.5217 129.691C74.5124 130.435 74.7618 130.966 75.1744 131.225C78.5468 133.335 81.9191 135.447 85.2915 137.559C84.8301 137.27 84.5506 136.677 84.5619 135.843C84.5825 134.162 85.7735 132.146 87.2234 131.337C87.9192 130.951 88.5457 130.914 89.0089 131.161Z" fill="#69A4FC"/>
<path d="M114.669 152.132C114.861 152.228 115.116 152.207 115.397 152.05C116.001 151.714 116.496 150.874 116.506 150.174L89.8119 132.917C89.7913 134.597 88.6003 136.613 87.1504 137.422C86.4733 137.799 85.86 137.846 85.4023 137.619C95.1574 142.458 104.912 147.295 114.669 152.132Z" fill="#009FBD"/>
<path d="M89.1172 131.225C89.558 131.521 89.8224 132.107 89.813 132.917L116.507 150.174C116.51 149.837 116.4 149.593 116.218 149.469C107.183 143.39 98.1501 137.308 89.1172 131.225Z" fill="#009FBD"/>
<path d="M116.506 150.176C116.513 149.476 116.031 149.182 115.429 149.52C114.825 149.855 114.33 150.696 114.32 151.395C114.311 152.095 114.795 152.389 115.397 152.052C116.001 151.714 116.496 150.876 116.506 150.176Z" fill="#1C6DF6"/>
<path d="M116.219 149.471C107.186 143.388 98.1535 137.307 89.1187 131.225C88.648 130.908 87.9765 130.921 87.2262 131.337C85.7764 132.146 84.5854 134.162 84.5647 135.843C84.5535 136.739 84.8779 137.358 85.4031 137.619C95.16 142.456 104.915 147.293 114.672 152.132C114.454 152.023 114.318 151.766 114.323 151.393C114.333 150.694 114.828 149.855 115.432 149.518C115.743 149.345 116.022 149.339 116.219 149.471Z" fill="#5195FB"/>
<path d="M184.283 194.444C183.208 194.444 182.064 194.301 180.882 194.042C180.845 194.04 180.805 194.04 180.766 194.04C176.544 193.947 171.32 192.124 165.658 188.768C161.036 186.032 158.395 182.346 157.808 177.817C157.338 174.185 158.221 170.395 159.706 166.848C152.665 163.206 125.135 143.57 125.053 143.525L125.615 142.495C125.696 142.538 153.187 162.153 160.179 165.77C163.778 157.915 170.037 151.494 170.427 151.101L171.262 151.924C171.168 152.02 164.827 158.522 161.248 166.323C166.228 168.889 172.247 171.923 178.547 174.947C185.77 178.413 190.53 183.1 191.277 187.483C191.609 189.43 191.087 191.156 189.771 192.472C188.39 193.851 186.477 194.444 184.283 194.444ZM166.239 173.156C170.968 173.156 177.817 175.341 184.348 180.705C187.953 183.666 189.536 187.277 188.48 190.128C187.968 191.514 186.914 192.566 185.438 193.228C186.831 193.056 188.032 192.551 188.942 191.642C189.994 190.589 190.39 189.258 190.119 187.68C189.446 183.73 184.817 179.255 178.037 176.003C171.754 172.987 165.75 169.962 160.774 167.399C159.367 170.761 158.534 174.315 158.969 177.666C159.508 181.819 161.957 185.216 166.254 187.759C169.227 189.52 171.81 190.7 174.008 191.476C170.328 189.603 166.791 187.05 164.193 184.452C162.355 182.616 161.055 180.814 160.434 179.248C159.502 176.897 160.23 175.481 161.003 174.709C161.995 173.715 163.846 173.156 166.239 173.156ZM180.903 192.868C184.211 192.928 186.618 191.775 187.381 189.719C188.259 187.354 186.813 184.246 183.604 181.611C173.713 173.484 164.033 173.338 161.835 175.536C161.072 176.299 160.969 177.402 161.53 178.814C162.092 180.234 163.302 181.896 165.028 183.621C168.985 187.581 175.443 191.576 180.903 192.868Z" fill="#FC9F9C"/>
<path d="M185.165 196.983C185.049 196.983 184.934 196.981 184.818 196.979C180.662 196.886 175.185 194.944 169.395 191.516C164.779 188.783 162.157 185.114 161.596 180.611C161.266 177.959 161.671 175.223 162.508 172.557C150.018 169.658 115.569 151.386 115.389 151.369L115.507 150.202C115.689 150.221 150.262 168.504 162.885 171.445C166.156 162.397 174.041 154.475 174.482 154.036L175.309 154.869C175.204 154.974 167.326 162.889 164.055 171.723C170.59 173.296 177.261 175.328 182.597 177.888C189.727 181.309 194.429 185.958 195.173 190.329C195.511 192.307 194.98 194.063 193.641 195.402C192.146 196.897 189.749 197.114 187.331 196.811C186.66 196.925 185.936 196.983 185.165 196.983ZM170.428 176.207C175.153 176.207 181.864 178.276 188.4 183.646C192.005 186.606 193.588 190.218 192.532 193.067C192.137 194.138 191.418 195.01 190.432 195.657C191.448 195.496 192.253 195.132 192.814 194.571C193.872 193.513 194.29 192.112 194.018 190.524C193.346 186.589 188.776 182.153 182.089 178.944C176.8 176.406 170.166 174.392 163.671 172.831C162.851 175.38 162.451 177.98 162.759 180.467C163.273 184.589 165.707 187.965 169.993 190.505C174.35 193.086 178.629 194.832 182.155 195.501C174.262 192.688 164.725 186.015 163.798 181.146C163.528 179.726 163.98 178.501 165.104 177.601C166.205 176.723 168.069 176.207 170.428 176.207ZM170.425 177.385C168.313 177.385 166.702 177.826 165.839 178.516C165.053 179.144 164.764 179.932 164.953 180.926C165.762 185.18 175.277 192.189 183.807 194.815C185.075 195.205 186.245 195.475 187.305 195.62C189.406 195.218 190.863 194.192 191.433 192.658C192.311 190.291 190.863 187.183 187.656 184.55C181.178 179.231 174.746 177.385 170.425 177.385Z" fill="#81B2FC"/>
</svg>
