<svg width="20" height="20" viewBox="0 0 20 20" fill="none" xmlns="http://www.w3.org/2000/svg">
<path fill-rule="evenodd" clip-rule="evenodd" d="M8.57674 3.5C5.77241 3.5 3.49905 5.77422 3.49905 8.57962C3.49905 11.385 5.77241 13.6592 8.57674 13.6592C9.97999 13.6592 11.2483 13.0914 12.1687 12.17C13.0881 11.2495 13.6544 9.98192 13.6544 8.57962C13.6544 5.77422 11.3811 3.5 8.57674 3.5ZM1 8.57962C1 4.39351 4.39222 1 8.57674 1C12.7613 1 16.1535 4.39351 16.1535 8.57962C16.1535 10.2199 15.6316 11.7398 14.7463 12.9801L18.964 17.1995C19.452 17.6876 19.452 18.4791 18.964 18.9672C18.4761 19.4554 17.6849 19.4554 17.1969 18.9672L12.9798 14.7485C11.7392 15.636 10.2183 16.1592 8.57674 16.1592C4.39222 16.1592 1 12.7657 1 8.57962Z" fill="black" fill-opacity="0.5"/>
</svg>
