<svg width="20" height="20" viewBox="0 0 20 20" fill="none" xmlns="http://www.w3.org/2000/svg">
<path d="M15.0561 7.09178L7.92278 3.52511C3.13111 1.12511 1.16445 3.09178 3.56445 7.88345L4.28944 9.33345C4.49778 9.75845 4.49778 10.2501 4.28944 10.6751L3.56445 12.1168C1.16445 16.9084 3.12278 18.8751 7.92278 16.4751L15.0561 12.9084C18.2561 11.3084 18.2561 8.69178 15.0561 7.09178ZM12.3644 10.6251H7.86444C7.52278 10.6251 7.23944 10.3418 7.23944 10.0001C7.23944 9.65845 7.52278 9.37511 7.86444 9.37511H12.3644C12.7061 9.37511 12.9894 9.65845 12.9894 10.0001C12.9894 10.3418 12.7061 10.6251 12.3644 10.6251Z" fill="#0530A1"/>
</svg>
