<svg width="22" height="19" viewBox="0 0 22 19" fill="none" xmlns="http://www.w3.org/2000/svg">
<path fill-rule="evenodd" clip-rule="evenodd" d="M21.9994 9.53432C21.9899 9.81057 21.8665 10.0706 21.6585 10.2526L13.6585 17.2526C13.3622 17.5118 12.9414 17.5731 12.5835 17.4092C12.2256 17.2452 11.9972 16.8865 12 16.4929L12.0249 13.0227C9.22079 13.1515 7.18537 13.816 5.64384 14.6839C3.91722 15.656 2.74545 16.919 1.78087 18.1247C1.51557 18.4564 1.06974 18.5842 0.668993 18.4437C0.268246 18.3031 -1.85637e-08 17.9247 0 17.5C1.63892e-07 13.7506 1.34549 10.6027 3.69436 8.39618C5.82485 6.39481 8.71957 5.2245 12.0323 5.02922L12.0323 1.50003C12.0323 1.0952 12.2763 0.730308 12.6505 0.575764C13.0247 0.42122 13.4551 0.507517 13.7408 0.794353L21.7085 8.79435C21.9036 8.9902 22.0089 9.25806 21.9994 9.53432ZM14.0323 3.92116V6.00003C14.0323 6.26524 13.9269 6.5196 13.7394 6.70713C13.5518 6.89467 13.2975 7.00003 13.0323 7.00003C9.7296 7.00003 6.97949 8.0542 5.06371 9.85388C3.76078 11.0778 2.80933 12.6784 2.33646 14.6047C3.00024 14.0155 3.76548 13.4463 4.66261 12.9412C6.71644 11.7848 9.39709 11 13.0323 11C13.2987 11 13.5542 11.1064 13.7419 11.2955C13.9296 11.4845 14.0341 11.7407 14.0322 12.0072L14.0159 14.2823L19.5387 9.44989L14.0323 3.92116Z" fill="#222328"/>
</svg>
