<svg width="20" height="20" viewBox="0 0 20 20" fill="none" xmlns="http://www.w3.org/2000/svg">
<path fill-rule="evenodd" clip-rule="evenodd" d="M3.33203 3.33329C3.33203 2.41282 4.07822 1.66663 4.9987 1.66663H11.8083C12.2504 1.66663 12.6743 1.84222 12.9869 2.15478L16.1772 5.34514C16.4898 5.6577 16.6654 6.08162 16.6654 6.52365V16.6666C16.6654 17.5871 15.9192 18.3333 14.9987 18.3333H4.9987C4.07822 18.3333 3.33203 17.5871 3.33203 16.6666V3.33329ZM6.66536 6.66663C6.20513 6.66663 5.83203 7.03972 5.83203 7.49996C5.83203 7.9602 6.20513 8.33329 6.66536 8.33329H8.33203C8.79227 8.33329 9.16536 7.9602 9.16536 7.49996C9.16536 7.03972 8.79227 6.66663 8.33203 6.66663H6.66536ZM5.83203 10.8333C5.83203 10.3731 6.20513 9.99996 6.66536 9.99996H9.9987C10.4589 9.99996 10.832 10.3731 10.832 10.8333C10.832 11.2935 10.4589 11.6666 9.9987 11.6666H6.66536C6.20513 11.6666 5.83203 11.2935 5.83203 10.8333ZM5.83203 14.1666C5.83203 13.7064 6.20513 13.3333 6.66536 13.3333H11.6654C12.1256 13.3333 12.4987 13.7064 12.4987 14.1666C12.4987 14.6269 12.1256 15 11.6654 15H6.66536C6.20513 15 5.83203 14.6269 5.83203 14.1666Z" fill="black"/>
</svg>
