<svg width="16" height="16" viewBox="0 0 16 16" fill="none" xmlns="http://www.w3.org/2000/svg">
<path fill-rule="evenodd" clip-rule="evenodd" d="M0.5 3C0.5 1.61929 1.61929 0.5 3 0.5H3.83333C4.29357 0.5 4.66667 0.873096 4.66667 1.33333C4.66667 1.79357 4.29357 2.16667 3.83333 2.16667H3C2.53976 2.16667 2.16667 2.53976 2.16667 3V13C2.16667 13.4602 2.53976 13.8333 3 13.8333H13C13.4602 13.8333 13.8333 13.4602 13.8333 13V12.1667C13.8333 11.7064 14.2064 11.3333 14.6667 11.3333C15.1269 11.3333 15.5 11.7064 15.5 12.1667V13C15.5 14.3807 14.3807 15.5 13 15.5H3C1.61929 15.5 0.5 14.3807 0.5 13V3Z" fill="black"/>
<path fill-rule="evenodd" clip-rule="evenodd" d="M8.83346 2.16667C8.37322 2.16667 8.00013 1.79357 8.00013 1.33333C8.00013 0.873096 8.37322 0.5 8.83346 0.5H14.726C15.1863 0.5 15.5594 0.873097 15.5594 1.33333L15.5593 7.22589C15.5593 7.68613 15.1863 8.05922 14.726 8.05922C14.2658 8.05922 13.8927 7.68613 13.8927 7.22589L13.8927 3.28595L7.75592 9.42271C7.43049 9.74815 6.90285 9.74815 6.57741 9.42271C6.25197 9.09728 6.25197 8.56964 6.57741 8.2442L12.6549 2.16667H8.83346Z" fill="black"/>
</svg>
