<svg width="39" height="39" viewBox="0 0 39 39" fill="none" xmlns="http://www.w3.org/2000/svg">
<path fill-rule="evenodd" clip-rule="evenodd" d="M36.2692 0.745812C37.2164 0.840595 37.9655 1.58974 38.0602 2.53687C38.8191 10.1261 36.5455 16.6507 32.9578 21.2092C32.0905 22.311 31.1341 23.3109 30.1139 24.1862C31.3766 26.4456 31.6643 29.0957 30.6026 31.5732C29.1702 34.9155 25.565 37.3035 20.208 38.0684C19.6341 38.1504 19.0528 37.9793 18.6148 37.5994C18.1768 37.2195 17.9253 36.6682 17.9253 36.0884C17.9255 33.3059 18.3389 30.6022 19.0246 27.9123L10.8715 19.7225C10.7299 19.7584 10.5788 19.7983 10.4171 19.841C8.97194 20.2224 6.67405 20.829 2.66616 20.8293C2.09773 20.8293 1.55614 20.5875 1.17674 20.1642C0.797332 19.7409 0.615962 19.1762 0.677955 18.6112C1.27934 13.1298 3.56276 9.38652 6.96 7.93062C9.53543 6.8269 12.3 7.23198 14.6567 8.65173C15.5231 7.64696 16.5105 6.7046 17.5971 5.84906C22.1549 2.2603 28.6792 -0.0137542 36.2692 0.745812ZM26.7954 26.4644C25.6047 27.0946 24.3718 27.559 23.1267 27.8305C23.0057 28.6767 22.8119 29.5025 22.6181 30.3284C22.3657 31.4043 22.1131 32.4806 22.021 33.6033C24.9327 32.747 26.3712 31.2921 26.926 29.9976C27.3861 28.9238 27.3658 27.6725 26.7954 26.4644ZM10.9919 15.6185C11.2701 14.3722 11.7411 13.1385 12.3779 11.9477C11.0085 11.1939 9.63765 11.1349 8.53562 11.6072C7.26402 12.1522 5.81853 13.6333 5.05286 16.7414C6.18546 16.6529 7.27114 16.3985 8.35573 16.1444C9.22722 15.9402 10.098 15.7362 10.9919 15.6185ZM26.9944 17.7021C25.4323 19.2642 22.8997 19.2642 21.3376 17.7021C19.7755 16.14 19.7755 13.6074 21.3376 12.0453C22.8997 10.4832 25.4323 10.4832 26.9944 12.0453C28.5565 13.6074 28.5565 16.14 26.9944 17.7021Z" fill="#ffffff"/>
<path d="M15.1292 32.5495C15.4322 31.554 15.595 30.3896 15.4864 29.4128L9.25592 23.3908C8.49987 23.3908 7.43673 23.524 6.44233 23.7991C5.31542 24.1108 4.14615 24.623 3.42717 25.5859C2.85893 26.3012 2.56237 27.1479 2.39391 27.9032C1.72423 30.906 2.20138 35.0243 3.04112 35.864C3.88086 36.7038 8.08367 37.2557 11.0706 36.5497C11.8195 36.3727 12.6817 36.048 13.3834 35.4012C14.3476 34.6392 14.8622 33.4267 15.1292 32.5495Z" fill="#ffffff"/>
</svg>
