<svg width="120" height="40" viewBox="0 0 120 40" fill="none" xmlns="http://www.w3.org/2000/svg">
<rect width="120" height="40" rx="10" fill="white"/>
<path d="M26.0341 20.6994C26.045 19.8561 26.2702 19.0294 26.6889 18.2959C27.1075 17.5624 27.7058 16.9463 28.4283 16.5046C27.9694 15.8528 27.3638 15.3164 26.6599 14.938C25.9561 14.5596 25.1731 14.3496 24.3733 14.3248C22.6672 14.1467 21.0132 15.3399 20.1438 15.3399C19.2576 15.3399 17.919 14.3424 16.4776 14.3718C15.5452 14.4019 14.6366 14.6714 13.8402 15.1544C13.0437 15.6374 12.3867 16.3173 11.9331 17.1278C9.96814 20.5106 11.4338 25.4824 13.316 28.2168C14.2577 29.5557 15.3584 31.0515 16.7986 30.9984C18.2077 30.9403 18.7341 30.1048 20.4352 30.1048C22.1205 30.1048 22.6143 30.9984 24.0837 30.9647C25.5959 30.9403 26.5486 29.6198 27.4573 28.2681C28.134 27.314 28.6546 26.2596 29 25.1438C28.1215 24.7743 27.3718 24.1559 26.8444 23.3655C26.3168 22.5752 26.0351 21.6479 26.0341 20.6994Z" fill="black"/>
<path d="M23.2594 12.5265C24.084 11.5423 24.4902 10.2772 24.3918 9C23.1321 9.13157 21.9686 9.73021 21.1329 10.6767C20.7243 11.1391 20.4113 11.6769 20.212 12.2597C20.0126 12.8424 19.9307 13.4585 19.9709 14.0726C20.6009 14.0791 21.2242 13.9433 21.7939 13.6755C22.3635 13.4077 22.8646 13.0149 23.2594 12.5265Z" fill="black"/>
<path d="M38.5504 14V13.312H40.0944C40.5051 13.312 40.8651 13.224 41.1744 13.048C41.4838 12.8667 41.7238 12.6187 41.8944 12.304C42.0704 11.9893 42.1584 11.6267 42.1584 11.216C42.1584 10.8107 42.0704 10.4507 41.8944 10.136C41.7184 9.82133 41.4758 9.576 41.1664 9.4C40.8571 9.224 40.4998 9.136 40.0944 9.136H38.5584V8.448H40.1104C40.5158 8.448 40.8891 8.51733 41.2304 8.656C41.5771 8.79467 41.8758 8.98933 42.1264 9.24C42.3824 9.49067 42.5798 9.784 42.7184 10.12C42.8624 10.456 42.9344 10.824 42.9344 11.224C42.9344 11.6187 42.8624 11.9867 42.7184 12.328C42.5798 12.664 42.3851 12.9573 42.1344 13.208C41.8838 13.4587 41.5851 13.6533 41.2384 13.792C40.8971 13.9307 40.5264 14 40.1264 14H38.5504ZM38.0544 14V8.448H38.8064V14H38.0544ZM45.5843 14.08C45.211 14.08 44.875 13.992 44.5763 13.816C44.2776 13.64 44.0403 13.4027 43.8643 13.104C43.6883 12.8 43.6003 12.4613 43.6003 12.088C43.6003 11.72 43.6883 11.3893 43.8643 11.096C44.0403 10.7973 44.2776 10.56 44.5763 10.384C44.875 10.208 45.211 10.12 45.5843 10.12C45.9523 10.12 46.2856 10.208 46.5843 10.384C46.8883 10.5547 47.1283 10.7893 47.3043 11.088C47.4803 11.3867 47.5683 11.72 47.5683 12.088C47.5683 12.4613 47.4803 12.8 47.3043 13.104C47.1283 13.4027 46.8883 13.64 46.5843 13.816C46.2856 13.992 45.9523 14.08 45.5843 14.08ZM45.5843 13.384C45.8243 13.384 46.0376 13.328 46.2243 13.216C46.411 13.104 46.5576 12.952 46.6643 12.76C46.771 12.5627 46.8243 12.3387 46.8243 12.088C46.8243 11.8427 46.7683 11.624 46.6563 11.432C46.5496 11.24 46.403 11.0907 46.2163 10.984C46.035 10.872 45.8243 10.816 45.5843 10.816C45.3443 10.816 45.131 10.872 44.9443 10.984C44.7576 11.0907 44.611 11.24 44.5043 11.432C44.3976 11.624 44.3443 11.8427 44.3443 12.088C44.3443 12.3387 44.3976 12.5627 44.5043 12.76C44.611 12.952 44.7576 13.104 44.9443 13.216C45.131 13.328 45.3443 13.384 45.5843 13.384ZM49.3582 14L47.8542 10.2H48.6062L49.6942 13.16H49.4542L50.5342 10.2H50.9502L52.0302 13.16H51.7902L52.8782 10.2H53.6302L52.1342 14H51.7102L50.6142 11.128H50.8782L49.7742 14H49.3582ZM56.9582 14V11.784C56.9582 11.496 56.8675 11.2587 56.6862 11.072C56.5049 10.8853 56.2702 10.792 55.9822 10.792C55.7902 10.792 55.6195 10.8347 55.4702 10.92C55.3209 11.0053 55.2035 11.1227 55.1182 11.272C55.0329 11.4213 54.9902 11.592 54.9902 11.784L54.6942 11.616C54.6942 11.328 54.7582 11.072 54.8862 10.848C55.0142 10.624 55.1929 10.448 55.4222 10.32C55.6515 10.1867 55.9102 10.12 56.1982 10.12C56.4862 10.12 56.7395 10.192 56.9582 10.336C57.1822 10.48 57.3582 10.6693 57.4862 10.904C57.6142 11.1333 57.6782 11.3787 57.6782 11.64V14H56.9582ZM54.2702 14V10.2H54.9902V14H54.2702ZM58.653 14V8.288H59.373V14H58.653ZM62.1624 14.08C61.7891 14.08 61.4531 13.992 61.1544 13.816C60.8558 13.64 60.6184 13.4027 60.4424 13.104C60.2664 12.8 60.1784 12.4613 60.1784 12.088C60.1784 11.72 60.2664 11.3893 60.4424 11.096C60.6184 10.7973 60.8558 10.56 61.1544 10.384C61.4531 10.208 61.7891 10.12 62.1624 10.12C62.5304 10.12 62.8638 10.208 63.1624 10.384C63.4664 10.5547 63.7064 10.7893 63.8824 11.088C64.0584 11.3867 64.1464 11.72 64.1464 12.088C64.1464 12.4613 64.0584 12.8 63.8824 13.104C63.7064 13.4027 63.4664 13.64 63.1624 13.816C62.8638 13.992 62.5304 14.08 62.1624 14.08ZM62.1624 13.384C62.4024 13.384 62.6158 13.328 62.8024 13.216C62.9891 13.104 63.1358 12.952 63.2424 12.76C63.3491 12.5627 63.4024 12.3387 63.4024 12.088C63.4024 11.8427 63.3464 11.624 63.2344 11.432C63.1278 11.24 62.9811 11.0907 62.7944 10.984C62.6131 10.872 62.4024 10.816 62.1624 10.816C61.9224 10.816 61.7091 10.872 61.5224 10.984C61.3358 11.0907 61.1891 11.24 61.0824 11.432C60.9758 11.624 60.9224 11.8427 60.9224 12.088C60.9224 12.3387 60.9758 12.5627 61.0824 12.76C61.1891 12.952 61.3358 13.104 61.5224 13.216C61.7091 13.328 61.9224 13.384 62.1624 13.384ZM66.5737 14.08C66.227 14.08 65.9124 13.9947 65.6297 13.824C65.347 13.648 65.123 13.4107 64.9577 13.112C64.7977 12.8133 64.7177 12.4773 64.7177 12.104C64.7177 11.7307 64.7977 11.3947 64.9577 11.096C65.123 10.7973 65.3444 10.56 65.6217 10.384C65.9044 10.208 66.2217 10.12 66.5737 10.12C66.8617 10.12 67.1177 10.1813 67.3417 10.304C67.571 10.4213 67.755 10.5867 67.8937 10.8C68.0324 11.008 68.1097 11.2507 68.1257 11.528V12.672C68.1097 12.944 68.0324 13.1867 67.8937 13.4C67.7604 13.6133 67.579 13.7813 67.3497 13.904C67.1257 14.0213 66.867 14.08 66.5737 14.08ZM66.6937 13.4C67.051 13.4 67.339 13.28 67.5577 13.04C67.7764 12.7947 67.8857 12.4827 67.8857 12.104C67.8857 11.8427 67.835 11.616 67.7337 11.424C67.6377 11.2267 67.499 11.0747 67.3177 10.968C67.1364 10.856 66.9257 10.8 66.6857 10.8C66.4457 10.8 66.2324 10.856 66.0457 10.968C65.8644 11.08 65.7204 11.2347 65.6137 11.432C65.5124 11.624 65.4617 11.8453 65.4617 12.096C65.4617 12.352 65.5124 12.5787 65.6137 12.776C65.7204 12.968 65.867 13.12 66.0537 13.232C66.2404 13.344 66.4537 13.4 66.6937 13.4ZM67.8377 14V12.976L67.9737 12.048L67.8377 11.128V10.2H68.5657V14H67.8377ZM71.2219 14.08C70.8699 14.08 70.5553 13.9947 70.2779 13.824C70.0006 13.648 69.7793 13.4107 69.6139 13.112C69.4539 12.8133 69.3739 12.4773 69.3739 12.104C69.3739 11.7307 69.4539 11.3947 69.6139 11.096C69.7793 10.7973 70.0006 10.56 70.2779 10.384C70.5553 10.208 70.8699 10.12 71.2219 10.12C71.5046 10.12 71.7606 10.1813 71.9899 10.304C72.2193 10.4213 72.4033 10.5867 72.5419 10.8C72.6859 11.008 72.7659 11.2507 72.7819 11.528V12.672C72.7659 12.944 72.6886 13.1867 72.5499 13.4C72.4113 13.6133 72.2273 13.7813 71.9979 13.904C71.7686 14.0213 71.5099 14.08 71.2219 14.08ZM71.3419 13.4C71.5819 13.4 71.7899 13.344 71.9659 13.232C72.1473 13.12 72.2886 12.968 72.3899 12.776C72.4913 12.5787 72.5419 12.3547 72.5419 12.104C72.5419 11.8427 72.4886 11.616 72.3819 11.424C72.2806 11.232 72.1393 11.08 71.9579 10.968C71.7819 10.856 71.5739 10.8 71.3339 10.8C71.0939 10.8 70.8833 10.856 70.7019 10.968C70.5206 11.08 70.3766 11.2347 70.2699 11.432C70.1686 11.624 70.1179 11.8453 70.1179 12.096C70.1179 12.352 70.1686 12.5787 70.2699 12.776C70.3766 12.968 70.5206 13.12 70.7019 13.232C70.8886 13.344 71.1019 13.4 71.3419 13.4ZM73.2219 14H72.4939V12.976L72.6299 12.048L72.4939 11.128V8.288H73.2219V14ZM77.6703 14.08C77.2969 14.08 76.9609 13.992 76.6623 13.816C76.3636 13.64 76.1263 13.4027 75.9503 13.104C75.7743 12.8 75.6863 12.4613 75.6863 12.088C75.6863 11.72 75.7743 11.3893 75.9503 11.096C76.1263 10.7973 76.3636 10.56 76.6623 10.384C76.9609 10.208 77.2969 10.12 77.6703 10.12C78.0383 10.12 78.3716 10.208 78.6703 10.384C78.9743 10.5547 79.2143 10.7893 79.3903 11.088C79.5663 11.3867 79.6543 11.72 79.6543 12.088C79.6543 12.4613 79.5663 12.8 79.3903 13.104C79.2143 13.4027 78.9743 13.64 78.6703 13.816C78.3716 13.992 78.0383 14.08 77.6703 14.08ZM77.6703 13.384C77.9103 13.384 78.1236 13.328 78.3103 13.216C78.4969 13.104 78.6436 12.952 78.7503 12.76C78.8569 12.5627 78.9103 12.3387 78.9103 12.088C78.9103 11.8427 78.8543 11.624 78.7423 11.432C78.6356 11.24 78.4889 11.0907 78.3023 10.984C78.1209 10.872 77.9103 10.816 77.6703 10.816C77.4303 10.816 77.2169 10.872 77.0303 10.984C76.8436 11.0907 76.6969 11.24 76.5903 11.432C76.4836 11.624 76.4303 11.8427 76.4303 12.088C76.4303 12.3387 76.4836 12.5627 76.5903 12.76C76.6969 12.952 76.8436 13.104 77.0303 13.216C77.2169 13.328 77.4303 13.384 77.6703 13.384ZM83.1535 14V11.784C83.1535 11.496 83.0628 11.2587 82.8815 11.072C82.7002 10.8853 82.4655 10.792 82.1775 10.792C81.9855 10.792 81.8148 10.8347 81.6655 10.92C81.5162 11.0053 81.3988 11.1227 81.3135 11.272C81.2282 11.4213 81.1855 11.592 81.1855 11.784L80.8895 11.616C80.8895 11.328 80.9535 11.072 81.0815 10.848C81.2095 10.624 81.3882 10.448 81.6175 10.32C81.8468 10.1867 82.1055 10.12 82.3935 10.12C82.6815 10.12 82.9348 10.192 83.1535 10.336C83.3775 10.48 83.5535 10.6693 83.6815 10.904C83.8095 11.1333 83.8735 11.3787 83.8735 11.64V14H83.1535ZM80.4655 14V10.2H81.1855V14H80.4655ZM87.0964 14V8.608H87.8164V14H87.0964ZM86.1604 10.856V10.2H88.7524V10.856H86.1604ZM92.1457 14V11.784C92.1457 11.496 92.055 11.2587 91.8737 11.072C91.6924 10.8853 91.4577 10.792 91.1697 10.792C90.9777 10.792 90.807 10.8347 90.6577 10.92C90.5084 11.0053 90.391 11.1227 90.3057 11.272C90.2204 11.4213 90.1777 11.592 90.1777 11.784L89.8817 11.616C89.8817 11.328 89.9457 11.072 90.0737 10.848C90.2017 10.624 90.3804 10.448 90.6097 10.32C90.839 10.1867 91.0977 10.12 91.3857 10.12C91.6737 10.12 91.927 10.184 92.1457 10.312C92.3697 10.44 92.5457 10.6187 92.6737 10.848C92.8017 11.0773 92.8657 11.3413 92.8657 11.64V14H92.1457ZM89.4577 14V8.288H90.1777V14H89.4577ZM95.6005 14.08C95.2218 14.08 94.8805 13.9947 94.5765 13.824C94.2725 13.648 94.0325 13.4107 93.8565 13.112C93.6805 12.8133 93.5925 12.4747 93.5925 12.096C93.5925 11.7227 93.6778 11.3867 93.8485 11.088C94.0245 10.7893 94.2592 10.5547 94.5525 10.384C94.8512 10.208 95.1845 10.12 95.5525 10.12C95.9045 10.12 96.2138 10.2 96.4805 10.36C96.7525 10.52 96.9632 10.7413 97.1125 11.024C97.2672 11.3067 97.3445 11.6267 97.3445 11.984C97.3445 12.0373 97.3418 12.096 97.3365 12.16C97.3312 12.2187 97.3205 12.288 97.3045 12.368H94.0965V11.768H96.9205L96.6565 12C96.6565 11.744 96.6112 11.528 96.5205 11.352C96.4298 11.1707 96.3018 11.032 96.1365 10.936C95.9712 10.8347 95.7712 10.784 95.5365 10.784C95.2912 10.784 95.0752 10.8373 94.8885 10.944C94.7018 11.0507 94.5578 11.2 94.4565 11.392C94.3552 11.584 94.3045 11.8107 94.3045 12.072C94.3045 12.3387 94.3578 12.5733 94.4645 12.776C94.5712 12.9733 94.7232 13.128 94.9205 13.24C95.1178 13.3467 95.3445 13.4 95.6005 13.4C95.8138 13.4 96.0085 13.3627 96.1845 13.288C96.3658 13.2133 96.5205 13.1013 96.6485 12.952L97.1125 13.424C96.9312 13.6373 96.7072 13.8 96.4405 13.912C96.1792 14.024 95.8992 14.08 95.6005 14.08Z" fill="black"/>
<path d="M37.6028 29.8262L42.2108 18.6262H43.4908L48.0668 29.8262H46.0828L42.4988 20.7542H43.1708L39.5548 29.8262H37.6028ZM39.8748 27.6662V26.0662H45.8108V27.6662H39.8748ZM53.5411 29.9862C52.9545 29.9862 52.4318 29.8635 51.9731 29.6182C51.5145 29.3622 51.1518 29.0155 50.8851 28.5782C50.6291 28.1408 50.5011 27.6448 50.5011 27.0902V24.8822C50.5011 24.3275 50.6345 23.8315 50.9011 23.3942C51.1678 22.9568 51.5305 22.6155 51.9891 22.3702C52.4478 22.1142 52.9651 21.9862 53.5411 21.9862C54.2345 21.9862 54.8585 22.1675 55.4131 22.5302C55.9785 22.8822 56.4211 23.3622 56.7411 23.9702C57.0718 24.5675 57.2371 25.2448 57.2371 26.0022C57.2371 26.7488 57.0718 27.4262 56.7411 28.0342C56.4211 28.6315 55.9785 29.1062 55.4131 29.4582C54.8585 29.8102 54.2345 29.9862 53.5411 29.9862ZM53.2531 28.3222C53.6798 28.3222 54.0531 28.2262 54.3731 28.0342C54.7038 27.8315 54.9598 27.5542 55.1411 27.2022C55.3331 26.8502 55.4291 26.4448 55.4291 25.9862C55.4291 25.5275 55.3331 25.1222 55.1411 24.7702C54.9598 24.4182 54.7038 24.1462 54.3731 23.9542C54.0531 23.7515 53.6798 23.6502 53.2531 23.6502C52.8265 23.6502 52.4478 23.7515 52.1171 23.9542C51.7865 24.1462 51.5305 24.4182 51.3491 24.7702C51.1678 25.1222 51.0771 25.5275 51.0771 25.9862C51.0771 26.4448 51.1678 26.8502 51.3491 27.2022C51.5305 27.5542 51.7865 27.8315 52.1171 28.0342C52.4478 28.2262 52.8265 28.3222 53.2531 28.3222ZM49.4291 33.0262V22.1462H51.1891V24.2102L50.8851 26.0822L51.1891 27.9382V33.0262H49.4291ZM62.8224 29.9862C62.2357 29.9862 61.713 29.8635 61.2544 29.6182C60.7957 29.3622 60.433 29.0155 60.1664 28.5782C59.9104 28.1408 59.7824 27.6448 59.7824 27.0902V24.8822C59.7824 24.3275 59.9157 23.8315 60.1824 23.3942C60.449 22.9568 60.8117 22.6155 61.2704 22.3702C61.729 22.1142 62.2464 21.9862 62.8224 21.9862C63.5157 21.9862 64.1397 22.1675 64.6944 22.5302C65.2597 22.8822 65.7024 23.3622 66.0224 23.9702C66.353 24.5675 66.5184 25.2448 66.5184 26.0022C66.5184 26.7488 66.353 27.4262 66.0224 28.0342C65.7024 28.6315 65.2597 29.1062 64.6944 29.4582C64.1397 29.8102 63.5157 29.9862 62.8224 29.9862ZM62.5344 28.3222C62.961 28.3222 63.3344 28.2262 63.6544 28.0342C63.985 27.8315 64.241 27.5542 64.4224 27.2022C64.6144 26.8502 64.7104 26.4448 64.7104 25.9862C64.7104 25.5275 64.6144 25.1222 64.4224 24.7702C64.241 24.4182 63.985 24.1462 63.6544 23.9542C63.3344 23.7515 62.961 23.6502 62.5344 23.6502C62.1077 23.6502 61.729 23.7515 61.3984 23.9542C61.0677 24.1462 60.8117 24.4182 60.6304 24.7702C60.449 25.1222 60.3584 25.5275 60.3584 25.9862C60.3584 26.4448 60.449 26.8502 60.6304 27.2022C60.8117 27.5542 61.0677 27.8315 61.3984 28.0342C61.729 28.2262 62.1077 28.3222 62.5344 28.3222ZM58.7104 33.0262V22.1462H60.4704V24.2102L60.1664 26.0822L60.4704 27.9382V33.0262H58.7104ZM74.5548 29.9862C73.6694 29.9862 72.9174 29.8262 72.2988 29.5062C71.6801 29.1862 71.1254 28.7168 70.6348 28.0982L71.8828 26.8502C72.1921 27.2982 72.5601 27.6502 72.9868 27.9062C73.4134 28.1515 73.9574 28.2742 74.6188 28.2742C75.2374 28.2742 75.7281 28.1462 76.0908 27.8902C76.4641 27.6342 76.6508 27.2822 76.6508 26.8342C76.6508 26.4608 76.5548 26.1568 76.3628 25.9222C76.1708 25.6875 75.9148 25.4955 75.5948 25.3462C75.2854 25.1862 74.9388 25.0475 74.5548 24.9302C74.1814 24.8022 73.8028 24.6635 73.4188 24.5142C73.0454 24.3542 72.6988 24.1568 72.3788 23.9222C72.0694 23.6875 71.8188 23.3835 71.6268 23.0102C71.4348 22.6368 71.3388 22.1622 71.3388 21.5862C71.3388 20.9248 71.4988 20.3648 71.8188 19.9062C72.1494 19.4368 72.5921 19.0795 73.1468 18.8342C73.7014 18.5888 74.3201 18.4662 75.0028 18.4662C75.7388 18.4662 76.3948 18.6102 76.9708 18.8982C77.5574 19.1862 78.0321 19.5542 78.3948 20.0022L77.1468 21.2502C76.8268 20.8875 76.4908 20.6208 76.1388 20.4502C75.7974 20.2688 75.4028 20.1782 74.9548 20.1782C74.4001 20.1782 73.9628 20.2902 73.6428 20.5142C73.3334 20.7382 73.1788 21.0528 73.1788 21.4582C73.1788 21.7995 73.2748 22.0768 73.4668 22.2902C73.6588 22.4928 73.9094 22.6688 74.2188 22.8182C74.5388 22.9568 74.8854 23.0902 75.2588 23.2182C75.6428 23.3462 76.0214 23.4902 76.3948 23.6502C76.7788 23.8102 77.1254 24.0182 77.4348 24.2742C77.7548 24.5195 78.0108 24.8395 78.2028 25.2342C78.3948 25.6288 78.4908 26.1248 78.4908 26.7222C78.4908 27.7248 78.1334 28.5195 77.4188 29.1062C76.7148 29.6928 75.7601 29.9862 74.5548 29.9862ZM81.2534 29.8262V18.9462H83.0134V29.8262H81.2534ZM79.4134 23.7462V22.1462H84.8534V23.7462H79.4134ZM89.4335 29.9862C88.6868 29.9862 88.0095 29.8102 87.4015 29.4582C86.7935 29.0955 86.3082 28.6102 85.9455 28.0022C85.5935 27.3942 85.4175 26.7168 85.4175 25.9702C85.4175 25.2235 85.5935 24.5515 85.9455 23.9542C86.3082 23.3568 86.7935 22.8822 87.4015 22.5302C88.0095 22.1675 88.6868 21.9862 89.4335 21.9862C90.1908 21.9862 90.8735 22.1622 91.4815 22.5142C92.0895 22.8662 92.5695 23.3462 92.9215 23.9542C93.2842 24.5515 93.4655 25.2235 93.4655 25.9702C93.4655 26.7168 93.2842 27.3942 92.9215 28.0022C92.5695 28.6102 92.0895 29.0955 91.4815 29.4582C90.8735 29.8102 90.1908 29.9862 89.4335 29.9862ZM89.4335 28.2902C89.8708 28.2902 90.2548 28.1942 90.5855 28.0022C90.9268 27.7995 91.1882 27.5222 91.3695 27.1702C91.5615 26.8182 91.6575 26.4182 91.6575 25.9702C91.6575 25.5222 91.5615 25.1275 91.3695 24.7862C91.1775 24.4448 90.9162 24.1782 90.5855 23.9862C90.2548 23.7835 89.8708 23.6822 89.4335 23.6822C89.0068 23.6822 88.6228 23.7835 88.2815 23.9862C87.9508 24.1782 87.6895 24.4448 87.4975 24.7862C87.3162 25.1275 87.2255 25.5222 87.2255 25.9702C87.2255 26.4182 87.3162 26.8182 87.4975 27.1702C87.6895 27.5222 87.9508 27.7995 88.2815 28.0022C88.6228 28.1942 89.0068 28.2902 89.4335 28.2902ZM94.9291 29.8262V22.1462H96.6891V29.8262H94.9291ZM96.6891 25.5542L96.0811 25.2502C96.0811 24.2795 96.2945 23.4955 96.7211 22.8982C97.1585 22.2902 97.8145 21.9862 98.6891 21.9862C99.0731 21.9862 99.4198 22.0555 99.7291 22.1942C100.038 22.3328 100.326 22.5568 100.593 22.8662L99.4411 24.0502C99.3025 23.9008 99.1478 23.7942 98.9771 23.7302C98.8065 23.6662 98.6091 23.6342 98.3851 23.6342C97.8945 23.6342 97.4891 23.7888 97.1691 24.0982C96.8491 24.4075 96.6891 24.8928 96.6891 25.5542ZM104.778 29.9862C104.01 29.9862 103.317 29.8155 102.698 29.4742C102.09 29.1222 101.605 28.6422 101.242 28.0342C100.89 27.4262 100.714 26.7435 100.714 25.9862C100.714 25.2288 100.89 24.5515 101.242 23.9542C101.594 23.3462 102.069 22.8662 102.666 22.5142C103.274 22.1622 103.946 21.9862 104.682 21.9862C105.397 21.9862 106.026 22.1515 106.57 22.4822C107.125 22.8128 107.557 23.2662 107.866 23.8422C108.186 24.4182 108.346 25.0742 108.346 25.8102C108.346 25.9382 108.336 26.0715 108.314 26.2102C108.304 26.3382 108.282 26.4822 108.25 26.6422H101.946V25.2022H107.338L106.682 25.7782C106.661 25.3088 106.57 24.9142 106.41 24.5942C106.25 24.2742 106.021 24.0288 105.722 23.8582C105.434 23.6875 105.077 23.6022 104.65 23.6022C104.202 23.6022 103.813 23.6982 103.482 23.8902C103.152 24.0822 102.896 24.3542 102.714 24.7062C102.533 25.0475 102.442 25.4582 102.442 25.9382C102.442 26.4182 102.538 26.8395 102.73 27.2022C102.922 27.5648 103.194 27.8475 103.546 28.0502C103.898 28.2422 104.304 28.3382 104.762 28.3382C105.157 28.3382 105.52 28.2688 105.85 28.1302C106.192 27.9915 106.48 27.7888 106.714 27.5222L107.834 28.6582C107.461 29.0955 107.008 29.4262 106.474 29.6502C105.941 29.8742 105.376 29.9862 104.778 29.9862Z" fill="black"/>
</svg>
