<svg width="62" height="73" viewBox="0 0 62 73" fill="none" xmlns="http://www.w3.org/2000/svg">
<mask id="mask0_2136_15610" style="mask-type:luminance" maskUnits="userSpaceOnUse" x="5" y="4" width="52" height="66">
<path d="M5.69531 69.0145L5.57812 30.6146L56.624 4.28174L56.7412 42.6816L5.69531 69.0145Z" fill="white"/>
</mask>
<g mask="url(#mask0_2136_15610)">
<path d="M44.3084 28.8787C44.0936 28.9921 43.869 29.1056 43.6443 29.2364C43.6443 31.2258 43.5174 33.3024 43.2733 35.4837C43.1756 36.3214 43.3904 36.9321 43.8104 37.0717C43.9959 37.1328 44.2205 37.0979 44.4744 36.967C44.6502 36.8798 44.8358 36.7489 45.0311 36.5744C48.5663 33.4944 50.3828 29.9345 50.0312 28.4163C49.7089 27.0028 47.5604 27.2035 44.3084 28.8874V28.8787ZM14.6887 42.1847C13.8684 42.6035 13.2043 43.5022 12.7161 44.8285C12.0227 46.7219 12.1301 48.6676 12.9504 49.575C13.2825 49.9415 13.8782 50.2818 14.7864 49.8106C15.3919 49.4965 16.0657 48.8683 16.7884 47.9347C18.0872 46.242 18.3216 44.9594 18.2044 44.0607C18.1068 43.7902 18.0189 43.511 17.9505 43.2143C17.3548 42.0015 15.9388 41.5304 14.6887 42.176V42.1847ZM30.2457 36.3475C30.148 35.379 29.9527 34.489 29.6597 33.7299C29.4839 33.2762 29.7769 32.5259 30.3043 32.0634C30.4117 31.9762 30.5191 31.8976 30.6265 31.8453C31.0562 31.6272 31.4566 31.697 31.6031 32.0634C31.9156 32.8661 32.1305 33.791 32.2477 34.7857C33.1363 34.079 34.0153 33.3635 34.8747 32.6393C34.9723 32.5608 35.07 32.491 35.1774 32.4386C35.6169 32.2118 36.027 32.2903 36.1638 32.6655C36.3298 33.1279 36.0368 33.8783 35.4997 34.332C34.4645 35.1958 33.4098 36.0509 32.3551 36.8798C32.3453 37.9966 32.2184 39.1484 31.9937 40.2914C31.8863 40.8323 31.4664 41.3733 30.9976 41.6089C30.9195 41.6438 30.8414 41.6787 30.7633 41.7049C30.2066 41.8532 29.8648 41.4693 29.9918 40.8323C30.148 40.0383 30.2457 39.2356 30.2847 38.4591C29.4058 39.1222 28.5269 39.7591 27.6675 40.3612L27.482 40.4833C27.0034 40.7364 26.564 40.5967 26.4663 40.1343C26.3686 39.6108 26.73 38.8779 27.2866 38.4852C28.2437 37.8134 29.23 37.0892 30.2359 36.3301L30.2457 36.3475ZM17.7845 39.6893C17.804 39.5148 17.8333 39.349 17.8626 39.1832C17.9603 38.6423 18.3802 38.0664 18.8588 37.8221C18.9271 37.7872 18.9955 37.761 19.0638 37.7436C19.6205 37.5691 19.9818 37.9355 19.8744 38.5638C19.6986 39.5497 19.7181 40.6491 19.9232 41.6002C19.9428 41.6525 19.9623 41.6961 19.9818 41.7485C20.0892 42.0102 20.1674 42.2894 20.2162 42.5774C20.4994 43.2579 20.8998 43.764 21.4271 43.9734C21.8568 44.1479 22.3451 44.0868 22.9116 43.7989C23.2143 43.6419 23.5463 43.415 23.8979 43.1096C24.0053 43.0224 24.1127 42.9438 24.2202 42.8915C24.6499 42.6646 25.0503 42.7432 25.1967 43.1183C25.3725 43.5808 25.0893 44.3224 24.5522 44.7761C23.9565 45.2909 23.4096 45.6574 22.9116 45.9104C21.642 46.5648 20.7045 46.4863 20.0892 46.242C19.972 46.1983 19.8549 46.1373 19.7377 46.0762C19.3568 47.0273 18.7904 48.0132 18.0482 48.973C16.9739 50.369 15.8899 51.355 14.8157 51.9047C13.3801 52.6463 12.1203 52.5329 11.2414 51.5906C10.0402 50.2818 9.89374 47.5857 10.8703 44.8896C11.9836 41.8532 13.7415 40.5706 14.6887 40.0819C15.763 39.5322 16.8568 39.4188 17.7845 39.6893ZM44.494 39.0611C43.7713 39.4363 43.0877 39.541 42.5213 39.3665C41.5349 39.0524 41.0467 37.8832 41.2322 36.2603C41.9353 30.1177 41.6033 24.7604 40.2556 20.3367C40.1091 19.8568 40.4314 19.1064 40.9783 18.6701C41.0662 18.6003 41.1541 18.5393 41.242 18.4956C41.6912 18.26 42.1013 18.3648 42.2283 18.7748C42.9998 21.2965 43.449 24.0885 43.5858 27.1511C43.8592 26.9941 44.1326 26.8544 44.3866 26.7236C50.4902 23.5737 51.7597 25.7725 52.0332 26.9417C52.668 29.6727 49.9433 34.524 45.7049 38.2147C45.2948 38.5725 44.8846 38.8604 44.4842 39.0611H44.494ZM55.2949 4.96273L6.91517 29.917C6.18273 30.2922 5.57726 31.2171 5.58703 31.9762L5.70422 67.6363C5.70422 68.3867 6.30969 68.6921 7.04213 68.3169L55.4219 43.3626C56.1543 42.9875 56.7598 42.0539 56.7501 41.3035L56.6329 5.6433C56.6329 4.8842 56.0274 4.57882 55.2949 4.96273Z" fill="#118995"/>
<path d="M30.2357 36.3561C29.2298 37.1152 28.2435 37.8394 27.2864 38.5113C26.7298 38.8952 26.3685 39.6368 26.4661 40.1603C26.5638 40.6228 26.9935 40.7537 27.4818 40.5094L27.6673 40.3872C28.5267 39.7852 29.4056 39.1482 30.2845 38.4851C30.3236 37.7522 30.3041 37.0367 30.2357 36.3561ZM35.1577 32.4647C35.06 32.517 34.9526 32.5781 34.8549 32.6653C34.0053 33.3808 33.1166 34.105 32.2279 34.8118C32.3061 35.4836 32.3451 36.1904 32.3354 36.9146C33.3901 36.0857 34.4448 35.2306 35.4799 34.3668C36.0171 33.9131 36.31 33.1714 36.144 32.7003C36.0073 32.3163 35.5971 32.2465 35.1577 32.4734V32.4647Z" fill="#D0F0F4"/>
<path d="M30.6164 31.8544C30.5089 31.9068 30.4015 31.9853 30.2941 32.0725C29.757 32.535 29.464 33.2766 29.6496 33.7391C29.9425 34.4982 30.1378 35.3881 30.2355 36.3566C30.3039 37.0372 30.3136 37.7527 30.2843 38.4856C30.2453 39.2709 30.1476 40.0736 29.9913 40.8589C29.8546 41.4958 30.2062 41.8797 30.7629 41.7314C30.841 41.7052 30.9191 41.6703 30.9972 41.6354C31.466 41.3911 31.8762 40.8502 31.9933 40.3179C32.218 39.1749 32.3449 38.0232 32.3547 36.9063C32.3547 36.1821 32.3254 35.4754 32.2472 34.8036C32.1301 33.8089 31.9152 32.8753 31.6027 32.0813C31.4562 31.7148 31.0558 31.6363 30.6261 31.8631L30.6164 31.8544Z" fill="#D0F0F4"/>
<path d="M44.4641 36.9669C44.2102 37.0978 43.9856 37.1327 43.8 37.0716C43.3801 36.932 43.1653 36.3212 43.2629 35.4836C43.5071 33.3023 43.634 31.2257 43.634 29.2363C43.8586 29.1141 44.0833 28.992 44.2981 28.8786C47.5501 27.2033 49.6986 26.9939 50.0209 28.4074C50.3724 29.9256 48.556 33.4942 45.0208 36.5655C44.8157 36.74 44.6301 36.8709 44.4641 36.9582V36.9669ZM41.2316 18.5042C41.1437 18.5479 41.0559 18.6089 40.968 18.6787C40.4211 19.115 40.0988 19.8566 40.2453 20.3452C41.6027 24.769 41.925 30.1263 41.2219 36.2689C41.0363 37.9005 41.5246 39.0609 42.511 39.375C43.0676 39.5496 43.7512 39.4448 44.4836 39.0697C44.8743 38.869 45.2942 38.5723 45.7044 38.2233C49.9427 34.5325 52.6674 29.6813 52.0326 26.9503C51.7689 25.7811 50.4896 23.5823 44.386 26.7321C44.1321 26.863 43.8586 27.0113 43.5852 27.1597C43.4485 24.0971 42.9992 21.305 42.2277 18.7834C42.1008 18.3733 41.6906 18.2774 41.2414 18.5042H41.2316Z" fill="#D0F0F4"/>
<path d="M19.9035 41.6005C19.9719 41.9495 20.0793 42.281 20.1965 42.5777C20.1477 42.2898 20.0695 42.0105 19.9621 41.7488C19.9426 41.6964 19.9231 41.6528 19.9035 41.6005ZM14.6691 40.091C13.7218 40.5796 11.9639 41.8622 10.8506 44.8986C9.87407 47.5947 10.0205 50.2908 11.2217 51.5996C12.0909 52.5419 13.3604 52.6554 14.796 51.9137C15.8703 51.364 16.9543 50.3781 18.0285 48.982C18.7707 48.0135 19.3371 47.0363 19.718 46.0852C19.0441 45.6839 18.5363 44.9597 18.2043 44.0697C18.3312 44.9684 18.0969 46.251 16.7882 47.9437C16.0656 48.8686 15.3917 49.5055 14.7863 49.8196C13.878 50.2821 13.2823 49.9505 12.9503 49.5841C12.1202 48.6766 12.0225 46.7309 12.7159 44.8375C13.2042 43.5113 13.8683 42.6213 14.6886 42.1938C15.9386 41.5481 17.3547 42.0193 17.9504 43.2321C17.6867 42.1327 17.6379 40.885 17.7746 39.6983C16.8468 39.4278 15.7531 39.5413 14.6788 40.091H14.6691Z" fill="#D0F0F4"/>
<path d="M18.849 37.831C18.3705 38.0753 17.9506 38.6424 17.8529 39.1921C17.8236 39.3579 17.8041 39.5236 17.7748 39.6982C17.6283 40.8848 17.6869 42.1325 17.9505 43.2319C18.0189 43.5286 18.1068 43.8078 18.2045 44.0783C18.5365 44.9682 19.0443 45.6924 19.7182 46.0938C19.8256 46.1549 19.9428 46.2159 20.0697 46.2596C20.685 46.4952 21.6225 46.5824 22.892 45.928C23.3901 45.675 23.937 45.2998 24.5327 44.7937C25.0698 44.3313 25.3628 43.5983 25.1772 43.1359C25.0405 42.7607 24.6401 42.6909 24.2007 42.9091C24.0932 42.9614 23.9858 43.0399 23.8784 43.1272C23.5268 43.4239 23.2045 43.6507 22.892 43.8165C22.3354 44.1044 21.8471 44.1655 21.4076 43.991C20.8803 43.7816 20.4701 43.2755 20.1967 42.5949C20.0697 42.2983 19.9721 41.9667 19.9037 41.6177C19.6986 40.6667 19.6889 39.5673 19.8549 38.5813C19.9525 37.9531 19.601 37.5954 19.0443 37.7611C18.976 37.7786 18.9076 37.8048 18.8392 37.8397L18.849 37.831Z" fill="#D0F0F4"/>
</g>
<path d="M60.1788 3.04339C59.5636 2.72055 58.9484 2.40644 58.3331 2.0836C57.6495 1.72586 56.9659 1.37685 56.2823 1.01912C56.2237 0.984216 56.1358 0.949319 56.0772 0.914418C55.3448 0.539232 54.3389 0.591591 53.2256 1.16746L4.84581 26.1217C2.63874 27.2647 0.841836 30.0306 0.851602 32.3079L0.968787 67.9594C0.968787 69.0849 1.41801 69.8789 2.14068 70.2541C2.48248 70.4286 2.82429 70.6118 3.16609 70.7863C3.64462 71.0394 4.12314 71.2837 4.60167 71.528L6.03724 72.2696C6.09583 72.3045 6.18373 72.3482 6.24233 72.3743C5.51966 71.9992 5.07042 71.2051 5.07042 70.0796V67.8721L8.13688 69.4688C8.38103 69.591 8.71307 69.5735 9.08417 69.3903L57.464 44.4361C58.1964 44.0609 58.8019 43.1272 58.7921 42.3769L58.6749 6.71671C58.6749 6.34153 58.5284 6.07104 58.2843 5.94889C57.669 5.62605 57.0538 5.31194 56.4385 4.9891C56.0381 4.7797 55.6377 4.57029 55.2374 4.36088L57.3272 3.28769C58.4405 2.71182 59.4464 2.65947 60.1788 3.04339ZM53.3623 42.3071L5.06066 67.2177L4.95324 34.4194C4.95324 32.1509 6.74037 29.3762 8.94744 28.2332L54.5733 4.70118L54.6807 40.2392C54.6807 40.9983 54.085 41.9232 53.3525 42.2983L53.3623 42.3071Z" fill="#BE900B"/>
<path d="M57.3271 3.28784C59.544 2.14483 61.3409 3.06098 61.3506 5.33828L61.4678 40.9897C61.4678 43.2495 59.6807 46.0329 57.4736 47.1759L9.09383 72.1302C6.88676 73.2732 5.08008 72.3483 5.07031 70.0797L4.95312 34.4196C4.95312 32.151 6.74026 29.3764 8.94733 28.2334L57.3271 3.2791V3.28784ZM58.792 42.3683L58.6748 6.70813C58.6748 5.9403 58.0693 5.64364 57.3369 6.02755L8.95711 30.9818C8.22467 31.357 7.61919 32.2819 7.62896 33.041L7.74614 68.7012C7.74614 69.4603 8.35162 69.7656 9.08405 69.3817L57.4638 44.4275C58.1963 44.0523 58.8018 43.1187 58.792 42.3683Z" fill="#FDC00F"/>
<path d="M49.4368 41.4871C49.1926 41.365 48.8606 41.3824 48.4895 41.5744L43.88 43.9477C43.1378 44.3316 42.5421 45.2564 42.5519 46.0068V47.2196C42.5519 47.5948 42.7081 47.8653 42.9425 47.9874L45.4035 49.2613C45.1593 49.1392 45.0129 48.8687 45.0129 48.4935V47.2807C45.0129 46.5303 45.5988 45.6054 46.341 45.2215L50.9505 42.8395C51.3216 42.6476 51.6536 42.6301 51.8978 42.7523L49.4368 41.4784V41.4871Z" fill="#BFAD77"/>
<path d="M50.9503 42.8479C51.6925 42.464 52.2882 42.7781 52.2882 43.5284V44.7412C52.2882 45.5003 51.7023 46.4165 50.9601 46.8004L46.3506 49.1824C45.6084 49.5663 45.0127 49.261 45.0127 48.5019V47.289C45.0127 46.5387 45.5986 45.6138 46.3408 45.2299L50.9503 42.8479Z" fill="#FEE69F"/>
</svg>
