<svg width="79" height="57" viewBox="0 0 79 57" fill="none" xmlns="http://www.w3.org/2000/svg">
<path d="M60.5073 30.6039H18.7188V43.9766C18.7389 46.863 20.7901 49.7493 24.8825 51.9515C33.0672 56.356 46.2996 56.356 54.4341 51.9515C58.5063 49.7493 60.5274 46.863 60.5073 43.9766V30.5945V30.6039Z" fill="#3C627F"/>
<path opacity="0.1" d="M18.7188 36.8923L39.613 48.1378L60.5073 36.8174V30.6042H18.7188V36.8923Z" fill="black"/>
<path d="M78.324 21.6638V24.3627L39.6123 45.3262L39.6224 42.6273L78.324 21.6638Z" fill="#638199"/>
<path d="M39.6222 42.6273L39.6122 45.3262L0.65918 24.3627L0.669233 21.6638L39.6222 42.6273Z" fill="#1E3140"/>
<path d="M78.3236 21.6637L39.622 42.6271L0.668945 21.6637L39.3706 0.700195L78.3236 21.6637Z" fill="#3C627F"/>
<path d="M45.5948 20.3801C46.5098 21.6452 46.0372 23.1446 44.1469 24.1661C41.603 25.5437 37.4402 25.5437 34.8661 24.1661C34.6952 24.0724 34.5343 23.9787 34.3936 23.8756C34.7153 24.3254 35.208 24.7378 35.8716 25.1032C38.4357 26.4808 42.5984 26.4808 45.1524 25.1032C47.5354 23.81 47.6762 21.7671 45.5948 20.3801Z" fill="#2D4A5F"/>
<path d="M45.0115 25.1685C44.2775 25.5434 43.4329 25.7964 42.5279 25.9557L42.5078 25.9838L56.444 33.4808V47.2284H58.455V32.3938L45.0115 25.1592V25.1685Z" fill="#FDC00F"/>
<path d="M58.3851 46.8257H56.6556C56.6556 46.8257 52.8548 51.8299 55.3585 56.8435H59.6922C62.1959 51.8299 58.3951 46.8257 58.3951 46.8257H58.3851Z" fill="#FDC00F"/>
<path d="M58.8883 56.0186C58.9788 55.5594 58.9386 55.0065 58.9687 54.4348C58.9788 54.1443 58.9688 53.8444 58.9386 53.5446C58.9084 53.2447 58.8783 52.9354 58.8581 52.6356C58.838 52.3263 58.7676 52.0358 58.7174 51.7359C58.657 51.4454 58.6068 51.1549 58.5565 50.8738C58.3956 50.3302 58.2951 49.8148 58.1342 49.4025C57.8627 48.5497 57.6113 48.0249 57.6113 48.0249C57.6113 48.0249 57.8225 48.5778 58.0236 49.4493C58.1442 49.8804 58.2146 50.3958 58.3252 50.9394C58.3554 51.2111 58.3856 51.5016 58.4258 51.7921C58.4559 52.0827 58.5062 52.3732 58.4962 52.673C58.4962 52.9729 58.4962 53.2634 58.5062 53.5539C58.5263 53.8444 58.5062 54.1256 58.466 54.4067C58.3956 54.9503 58.3956 55.4657 58.275 55.8874C58.1744 56.281 58.104 56.5996 58.0437 56.8432H58.7676C58.8079 56.609 58.8481 56.3372 58.8984 56.0186H58.8883Z" fill="#FED96F"/>
<path d="M56.7768 55.8874C56.6562 55.475 56.6662 54.9503 56.5858 54.4067C56.5456 54.135 56.5355 53.8444 56.5456 53.5539C56.5456 53.2634 56.5456 52.9635 56.5556 52.673C56.5556 52.3732 56.5958 52.0827 56.626 51.7921C56.6562 51.5016 56.6964 51.2111 56.7265 50.9394C56.8371 50.3958 56.9075 49.871 57.0282 49.4493C57.2293 48.5778 57.4404 48.0249 57.4404 48.0249C57.4404 48.0249 57.1891 48.5497 56.9176 49.4025C56.7567 49.8242 56.6562 50.3396 56.4953 50.8738C56.445 51.1549 56.3847 51.436 56.3344 51.7359C56.2841 52.0358 56.2037 52.3263 56.1936 52.6356C56.1635 52.9448 56.1333 53.2447 56.1031 53.5446C56.0629 53.8444 56.0629 54.1443 56.073 54.4348C56.1031 55.0159 56.0529 55.5688 56.1534 56.0186C56.2037 56.3466 56.2439 56.609 56.2841 56.8432H57.0081C56.9478 56.5996 56.8673 56.281 56.7768 55.8874Z" fill="#FED96F"/>
<path d="M60.1149 55.2972C60.1652 55.0067 60.1954 54.7068 60.1853 54.3788C60.2054 54.0602 60.1853 53.7322 60.1451 53.4042C60.125 53.0763 60.0345 52.7483 59.9842 52.4296C59.6826 51.1364 59.0893 50.0119 58.5966 49.234C58.0939 48.4562 57.6816 48.0251 57.6816 48.0251C57.6816 48.0251 58.0537 48.5031 58.4961 49.3184C58.9285 50.1337 59.4312 51.2957 59.6122 52.5327C59.6424 52.842 59.7127 53.1512 59.7027 53.4605C59.7127 53.7697 59.7228 54.0602 59.6826 54.3507C59.6725 54.6412 59.6222 54.913 59.5619 55.1567C59.5116 55.4097 59.4513 55.6533 59.3709 55.8595C59.2402 56.2906 59.0692 56.6092 58.9385 56.8341C58.9385 56.8341 58.9385 56.8435 58.9285 56.8529H59.7027C59.753 56.7498 59.7932 56.6467 59.8334 56.5342C59.8736 56.3937 59.9239 56.2625 59.9641 56.1032C60.0446 55.8595 60.0948 55.5877 60.125 55.2972H60.1149Z" fill="#FED96F"/>
<path d="M57.5199 48.0249L57.168 56.8432H57.8718L57.5199 48.0249Z" fill="#FED96F"/>
<path d="M56.1128 56.8243C55.9821 56.5994 55.8212 56.2808 55.6804 55.8497C55.59 55.6436 55.5296 55.4093 55.4894 55.1469C55.419 54.8939 55.3788 54.6221 55.3687 54.341C55.3285 54.0505 55.3285 53.7599 55.3486 53.4507C55.3486 53.1414 55.409 52.8416 55.4391 52.5229C55.6302 51.2859 56.1329 50.1239 56.5653 49.3086C57.0077 48.4933 57.3797 48.0154 57.3797 48.0154C57.3797 48.0154 56.9775 48.4558 56.4647 49.2243C55.972 50.0021 55.3788 51.1266 55.0771 52.4199C55.0168 52.7479 54.9263 53.0665 54.9163 53.3945C54.8761 53.7225 54.8559 54.0505 54.8761 54.3691C54.8761 54.6877 54.8962 54.9969 54.9464 55.2875C54.9867 55.578 55.0269 55.8497 55.1073 56.0934C55.1475 56.2527 55.1978 56.3839 55.238 56.5245C55.2883 56.6275 55.3185 56.7306 55.3687 56.8431H56.143C56.143 56.8431 56.143 56.8337 56.1329 56.8243H56.1128Z" fill="#FED96F"/>
<path d="M55.5586 46.8253C55.5586 45.8134 56.4334 44.9983 57.5193 44.9983C58.6053 44.9983 59.48 45.8134 59.48 46.8253C59.48 47.8373 58.6053 48.6524 57.5193 48.6524C56.4334 48.6524 55.5586 47.8373 55.5586 46.8253Z" fill="#FDC00F"/>
</svg>
