<svg width="20" height="20" viewBox="0 0 20 20" fill="none" xmlns="http://www.w3.org/2000/svg">
<path d="M17.9658 8.95L16.8324 7.63333C16.6158 7.38333 16.4408 6.91667 16.4408 6.58333V5.16666C16.4408 4.28333 15.7158 3.55833 14.8324 3.55833H13.4158C13.0908 3.55833 12.6158 3.38333 12.3658 3.16666L11.0491 2.03333C10.4741 1.54166 9.53242 1.54166 8.94909 2.03333L7.64076 3.175C7.39076 3.38333 6.91576 3.55833 6.59075 3.55833H5.14909C4.26576 3.55833 3.54076 4.28333 3.54076 5.16666V6.59166C3.54076 6.91666 3.36576 7.38333 3.15742 7.63333L2.03242 8.95833C1.54909 9.53333 1.54909 10.4667 2.03242 11.0417L3.15742 12.3667C3.36576 12.6167 3.54076 13.0833 3.54076 13.4083V14.8333C3.54076 15.7167 4.26576 16.4417 5.14909 16.4417H6.59075C6.91576 16.4417 7.39076 16.6167 7.64076 16.8333L8.95742 17.9667C9.53242 18.4583 10.4741 18.4583 11.0574 17.9667L12.3741 16.8333C12.6241 16.6167 13.0908 16.4417 13.4241 16.4417H14.8408C15.7241 16.4417 16.4491 15.7167 16.4491 14.8333V13.4167C16.4491 13.0917 16.6241 12.6167 16.8408 12.3667L17.9741 11.05C18.4574 10.475 18.4574 9.525 17.9658 8.95ZM13.4658 8.425L9.44076 12.45C9.32409 12.5667 9.16576 12.6333 8.99909 12.6333C8.83242 12.6333 8.67409 12.5667 8.55742 12.45L6.54076 10.4333C6.29909 10.1917 6.29909 9.79167 6.54076 9.55C6.78242 9.30833 7.18242 9.30833 7.42409 9.55L8.99909 11.125L12.5824 7.54167C12.8241 7.3 13.2241 7.3 13.4658 7.54167C13.7074 7.78333 13.7074 8.18333 13.4658 8.425Z" fill="#2F52FF"/>
</svg>
