<svg width="44" height="43" viewBox="0 0 44 43" fill="none" xmlns="http://www.w3.org/2000/svg">
<path d="M19.0142 16.9014C23.6814 16.9014 27.4649 13.1179 27.4649 8.45071C27.4649 3.78351 23.6814 0 19.0142 0C14.347 0 10.5635 3.78351 10.5635 8.45071C10.5635 13.1179 14.347 16.9014 19.0142 16.9014Z" fill="#2F52FF"/>
<path d="M3.11964 27.9088C5.89635 24.0381 10.814 21.1268 19.014 21.1268C23.5313 21.1268 27.0525 22.0103 29.7684 23.4511L39.4301 13.6418C40.4643 12.5918 42.154 12.579 43.204 13.6132C44.2541 14.6475 44.2669 16.3371 43.2326 17.3871L33.9971 26.7637C33.9997 26.7667 34.0024 26.7697 34.005 26.7727L33.155 27.6187L26.6969 34.1755L26.6375 34.1051L26.6176 34.1249L20.1001 26.6502C19.3736 25.817 18.1093 25.7305 17.2761 26.457C16.443 27.1835 16.3565 28.4478 17.083 29.2809L25.0055 38.367C25.3694 38.7844 25.8899 39.0323 26.4433 39.0519C26.9967 39.0714 27.5334 38.8609 27.9259 38.4703L36.2541 30.182C37.7452 33.2767 38.0211 36.4087 38.0279 38.3104C38.0365 40.6963 36.0363 42.2535 33.9856 42.2535H4.0424C1.99167 42.2535 -0.0085543 40.6963 2.75159e-05 38.3104C0.00856198 35.9377 0.435996 31.6499 3.11964 27.9088Z" fill="#2F52FF"/>
</svg>
