<svg width="135" height="40" viewBox="0 0 135 40" fill="none" xmlns="http://www.w3.org/2000/svg">
<rect width="135" height="40" rx="10" fill="white"/>
<path d="M20.3408 19.5073L11.0859 29.1691C11.0859 29.1725 11.0859 29.1758 11.0893 29.1758C11.3712 30.2248 12.3456 30.9999 13.4998 30.9999C13.9649 30.9999 14.3961 30.8763 14.7695 30.6592L14.8001 30.6425L25.2161 24.7291L20.3408 19.5073Z" fill="#EB4335"/>
<path d="M29.7014 17.8605L29.6912 17.8539L25.1962 15.2881L20.1309 19.7247L25.2131 24.7261L29.6878 22.187C30.472 21.7728 31.0017 20.9575 31.0017 20.0188C31.0017 19.0866 30.4788 18.2782 29.7014 17.8605Z" fill="#FABC14"/>
<path d="M11.0849 10.8276C11.0305 11.0281 11 11.2419 11 11.4591V28.5375C11 28.758 11.0305 28.9685 11.0849 29.169L20.6554 19.7544L11.0849 10.8276Z" fill="#547DBF"/>
<path d="M20.4087 19.9982L25.1956 15.2875L14.7934 9.35079C14.4165 9.12695 13.9752 9 13.4998 9C12.3456 9 11.3712 9.77508 11.0859 10.8241C11.0859 10.8275 11.0859 10.8275 11.0859 10.8275L20.4087 19.9982Z" fill="#31A852"/>
<path d="M41.2344 14.08C40.8451 14.08 40.4797 14.008 40.1384 13.864C39.8024 13.7147 39.5064 13.5093 39.2504 13.248C38.9997 12.9867 38.8024 12.6827 38.6584 12.336C38.5144 11.9893 38.4424 11.616 38.4424 11.216C38.4424 10.816 38.5144 10.4453 38.6584 10.104C38.8024 9.75733 39.0024 9.45333 39.2584 9.192C39.5144 8.93067 39.8131 8.728 40.1544 8.584C40.5011 8.44 40.8771 8.368 41.2824 8.368C41.7251 8.368 42.1331 8.45333 42.5064 8.624C42.8797 8.79467 43.1917 9.04 43.4424 9.36L42.9224 9.88C42.7464 9.624 42.5144 9.42933 42.2264 9.296C41.9384 9.15733 41.6237 9.088 41.2824 9.088C40.8771 9.088 40.5171 9.17867 40.2024 9.36C39.8931 9.54133 39.6504 9.792 39.4744 10.112C39.3037 10.432 39.2184 10.8 39.2184 11.216C39.2184 11.6373 39.3064 12.008 39.4824 12.328C39.6584 12.648 39.8957 12.8987 40.1944 13.08C40.4931 13.2613 40.8344 13.352 41.2184 13.352C41.6077 13.352 41.9437 13.2773 42.2264 13.128C42.5144 12.9787 42.7357 12.76 42.8904 12.472C43.0451 12.1787 43.1224 11.8213 43.1224 11.4L43.5784 11.728H41.1784V11.04H43.8984V11.152C43.8984 11.7973 43.7837 12.3387 43.5544 12.776C43.3304 13.208 43.0157 13.5333 42.6104 13.752C42.2104 13.9707 41.7517 14.08 41.2344 14.08ZM44.9099 14V8.448H45.6619V14H44.9099ZM45.4219 14V13.312H48.6059V14H45.4219ZM45.4219 11.488V10.832H48.3419V11.488H45.4219ZM45.4219 9.136V8.448H48.5659V9.136H45.4219ZM50.8897 14V8.608H51.6417V14H50.8897ZM49.0017 9.136V8.448H53.5217V9.136H49.0017ZM55.9568 14V8.448H56.7088V14H55.9568ZM59.4913 14V8.608H60.2433V14H59.4913ZM57.6033 9.136V8.448H62.1233V9.136H57.6033ZM67.0863 14.08C66.6917 14.08 66.3237 14.008 65.9823 13.864C65.641 13.7147 65.3423 13.5093 65.0863 13.248C64.8303 12.9813 64.6303 12.6747 64.4863 12.328C64.3477 11.9813 64.2783 11.6107 64.2783 11.216C64.2783 10.816 64.3477 10.4453 64.4863 10.104C64.6303 9.75733 64.8277 9.45333 65.0783 9.192C65.3343 8.93067 65.6303 8.728 65.9663 8.584C66.3077 8.44 66.6757 8.368 67.0703 8.368C67.465 8.368 67.8303 8.44 68.1663 8.584C68.5077 8.728 68.8063 8.93067 69.0623 9.192C69.3183 9.45333 69.5183 9.75733 69.6623 10.104C69.8063 10.4507 69.8783 10.824 69.8783 11.224C69.8783 11.6187 69.8063 11.9893 69.6623 12.336C69.5183 12.6827 69.3183 12.9867 69.0623 13.248C68.8117 13.5093 68.5157 13.7147 68.1743 13.864C67.8383 14.008 67.4757 14.08 67.0863 14.08ZM67.0703 13.36C67.4703 13.36 67.8197 13.2693 68.1183 13.088C68.4223 12.9013 68.6623 12.648 68.8383 12.328C69.0143 12.0027 69.1023 11.632 69.1023 11.216C69.1023 10.9067 69.0517 10.624 68.9503 10.368C68.849 10.1067 68.7077 9.88 68.5263 9.688C68.345 9.496 68.1317 9.34933 67.8863 9.248C67.641 9.14133 67.369 9.088 67.0703 9.088C66.6757 9.088 66.3263 9.17867 66.0223 9.36C65.7237 9.54133 65.4863 9.792 65.3103 10.112C65.1397 10.432 65.0543 10.8 65.0543 11.216C65.0543 11.5253 65.1023 11.8133 65.1983 12.08C65.2997 12.3413 65.4383 12.568 65.6143 12.76C65.7957 12.9467 66.009 13.0933 66.2543 13.2C66.505 13.3067 66.777 13.36 67.0703 13.36ZM70.9099 14V8.448H71.4379L71.6619 9.32V14H70.9099ZM74.7499 14L71.3419 9.448L71.4379 8.448L74.8539 12.992L74.7499 14ZM74.7499 14L74.5259 13.176V8.448H75.2779V14H74.7499Z" fill="black"/>
<path d="M44.272 30.035C43.504 30.035 42.7787 29.8857 42.096 29.587C41.4133 29.2883 40.816 28.8777 40.304 28.355C39.792 27.8217 39.3867 27.2083 39.088 26.515C38.8 25.811 38.656 25.059 38.656 24.259C38.656 23.459 38.8 22.7123 39.088 22.019C39.3867 21.3257 39.792 20.7177 40.304 20.195C40.8267 19.6617 41.4347 19.251 42.128 18.963C42.832 18.6643 43.5893 18.515 44.4 18.515C45.2853 18.515 46.1067 18.6857 46.864 19.027C47.6213 19.3683 48.256 19.8537 48.768 20.483L47.52 21.731C47.1893 21.2617 46.7467 20.9043 46.192 20.659C45.6373 20.403 45.04 20.275 44.4 20.275C43.632 20.275 42.9547 20.4457 42.368 20.787C41.792 21.1177 41.344 21.5817 41.024 22.179C40.704 22.7763 40.544 23.4697 40.544 24.259C40.544 25.0483 40.704 25.747 41.024 26.355C41.3547 26.9523 41.7973 27.4217 42.352 27.763C42.9067 28.1043 43.536 28.275 44.24 28.275C44.9867 28.275 45.6267 28.1417 46.16 27.875C46.704 27.5977 47.12 27.1923 47.408 26.659C47.696 26.115 47.84 25.4483 47.84 24.659L48.992 25.491H44.208V23.811H49.744V24.067C49.744 25.4003 49.504 26.5097 49.024 27.395C48.5547 28.2803 47.9093 28.9417 47.088 29.379C46.2667 29.8163 45.328 30.035 44.272 30.035ZM54.8554 30.035C54.1087 30.035 53.4314 29.859 52.8234 29.507C52.2154 29.1443 51.73 28.659 51.3674 28.051C51.0154 27.443 50.8394 26.7657 50.8394 26.019C50.8394 25.2723 51.0154 24.6003 51.3674 24.003C51.73 23.4057 52.2154 22.931 52.8234 22.579C53.4314 22.2163 54.1087 22.035 54.8554 22.035C55.6127 22.035 56.2954 22.211 56.9034 22.563C57.5114 22.915 57.9914 23.395 58.3434 24.003C58.706 24.6003 58.8874 25.2723 58.8874 26.019C58.8874 26.7657 58.706 27.443 58.3434 28.051C57.9914 28.659 57.5114 29.1443 56.9034 29.507C56.2954 29.859 55.6127 30.035 54.8554 30.035ZM54.8554 28.339C55.2927 28.339 55.6767 28.243 56.0074 28.051C56.3487 27.8483 56.61 27.571 56.7914 27.219C56.9834 26.867 57.0794 26.467 57.0794 26.019C57.0794 25.571 56.9834 25.1763 56.7914 24.835C56.5994 24.4937 56.338 24.227 56.0074 24.035C55.6767 23.8323 55.2927 23.731 54.8554 23.731C54.4287 23.731 54.0447 23.8323 53.7034 24.035C53.3727 24.227 53.1114 24.4937 52.9194 24.835C52.738 25.1763 52.6474 25.571 52.6474 26.019C52.6474 26.467 52.738 26.867 52.9194 27.219C53.1114 27.571 53.3727 27.8483 53.7034 28.051C54.0447 28.243 54.4287 28.339 54.8554 28.339ZM63.871 30.035C63.1243 30.035 62.447 29.859 61.839 29.507C61.231 29.1443 60.7457 28.659 60.383 28.051C60.031 27.443 59.855 26.7657 59.855 26.019C59.855 25.2723 60.031 24.6003 60.383 24.003C60.7457 23.4057 61.231 22.931 61.839 22.579C62.447 22.2163 63.1243 22.035 63.871 22.035C64.6283 22.035 65.311 22.211 65.919 22.563C66.527 22.915 67.007 23.395 67.359 24.003C67.7217 24.6003 67.903 25.2723 67.903 26.019C67.903 26.7657 67.7217 27.443 67.359 28.051C67.007 28.659 66.527 29.1443 65.919 29.507C65.311 29.859 64.6283 30.035 63.871 30.035ZM63.871 28.339C64.3083 28.339 64.6923 28.243 65.023 28.051C65.3643 27.8483 65.6257 27.571 65.807 27.219C65.999 26.867 66.095 26.467 66.095 26.019C66.095 25.571 65.999 25.1763 65.807 24.835C65.615 24.4937 65.3537 24.227 65.023 24.035C64.6923 23.8323 64.3083 23.731 63.871 23.731C63.4443 23.731 63.0603 23.8323 62.719 24.035C62.3883 24.227 62.127 24.4937 61.935 24.835C61.7537 25.1763 61.663 25.571 61.663 26.019C61.663 26.467 61.7537 26.867 61.935 27.219C62.127 27.571 62.3883 27.8483 62.719 28.051C63.0603 28.243 63.4443 28.339 63.871 28.339ZM72.5666 33.235C71.756 33.235 71.0466 33.0857 70.4386 32.787C69.8306 32.499 69.34 32.0883 68.9666 31.555L70.1186 30.403C70.428 30.787 70.78 31.075 71.1746 31.267C71.5693 31.459 72.044 31.555 72.5986 31.555C73.292 31.555 73.8413 31.3737 74.2466 31.011C74.652 30.659 74.8546 30.1737 74.8546 29.555V27.667L75.1586 25.971L74.8546 24.259V22.195H76.6146V29.555C76.6146 30.291 76.444 30.931 76.1026 31.475C75.7613 32.0297 75.2866 32.4617 74.6786 32.771C74.0706 33.0803 73.3666 33.235 72.5666 33.235ZM72.4866 29.715C71.804 29.715 71.1853 29.5497 70.6306 29.219C70.0866 28.8777 69.6546 28.4137 69.3346 27.827C69.0253 27.2403 68.8706 26.5843 68.8706 25.859C68.8706 25.1337 69.0253 24.483 69.3346 23.907C69.6546 23.331 70.0866 22.8777 70.6306 22.547C71.1853 22.2057 71.804 22.035 72.4866 22.035C73.0946 22.035 73.628 22.1577 74.0866 22.403C74.5453 22.6483 74.9026 22.9897 75.1586 23.427C75.4146 23.8537 75.5426 24.355 75.5426 24.931V26.819C75.5426 27.3843 75.4093 27.8857 75.1426 28.323C74.8866 28.7603 74.5293 29.1017 74.0706 29.347C73.612 29.5923 73.084 29.715 72.4866 29.715ZM72.8386 28.051C73.2653 28.051 73.6386 27.9603 73.9586 27.779C74.2786 27.5977 74.524 27.347 74.6946 27.027C74.876 26.6963 74.9666 26.3123 74.9666 25.875C74.9666 25.4377 74.876 25.059 74.6946 24.739C74.524 24.4083 74.2786 24.1523 73.9586 23.971C73.6386 23.7897 73.2653 23.699 72.8386 23.699C72.412 23.699 72.0333 23.7897 71.7026 23.971C71.3826 24.1523 71.132 24.4083 70.9506 24.739C70.7693 25.059 70.6786 25.4377 70.6786 25.875C70.6786 26.3017 70.7693 26.6803 70.9506 27.011C71.132 27.3417 71.3826 27.5977 71.7026 27.779C72.0333 27.9603 72.412 28.051 72.8386 28.051ZM78.5698 29.875V18.355H80.3298V29.875H78.5698ZM85.8565 30.035C85.0885 30.035 84.3952 29.8643 83.7765 29.523C83.1685 29.171 82.6832 28.691 82.3205 28.083C81.9685 27.475 81.7925 26.7923 81.7925 26.035C81.7925 25.2777 81.9685 24.6003 82.3205 24.003C82.6725 23.395 83.1472 22.915 83.7445 22.563C84.3525 22.211 85.0245 22.035 85.7605 22.035C86.4752 22.035 87.1045 22.2003 87.6485 22.531C88.2032 22.8617 88.6352 23.315 88.9445 23.891C89.2645 24.467 89.4245 25.123 89.4245 25.859C89.4245 25.987 89.4138 26.1203 89.3925 26.259C89.3818 26.387 89.3605 26.531 89.3285 26.691H83.0245V25.251H88.4165L87.7605 25.827C87.7392 25.3577 87.6485 24.963 87.4885 24.643C87.3285 24.323 87.0992 24.0777 86.8005 23.907C86.5125 23.7363 86.1552 23.651 85.7285 23.651C85.2805 23.651 84.8912 23.747 84.5605 23.939C84.2298 24.131 83.9738 24.403 83.7925 24.755C83.6112 25.0963 83.5205 25.507 83.5205 25.987C83.5205 26.467 83.6165 26.8883 83.8085 27.251C84.0005 27.6137 84.2725 27.8963 84.6245 28.099C84.9765 28.291 85.3818 28.387 85.8405 28.387C86.2352 28.387 86.5978 28.3177 86.9285 28.179C87.2698 28.0403 87.5578 27.8377 87.7925 27.571L88.9125 28.707C88.5392 29.1443 88.0858 29.475 87.5525 29.699C87.0192 29.923 86.4538 30.035 85.8565 30.035ZM95.5425 25.651V24.051H98.3425C98.7265 24.051 99.0625 23.9763 99.3505 23.827C99.6492 23.667 99.8838 23.4483 100.055 23.171C100.225 22.883 100.311 22.547 100.311 22.163C100.311 21.779 100.225 21.4483 100.055 21.171C99.8838 20.883 99.6492 20.6643 99.3505 20.515C99.0625 20.355 98.7265 20.275 98.3425 20.275H95.5425V18.675H98.4385C99.1425 18.675 99.7718 18.819 100.327 19.107C100.892 19.395 101.335 19.8003 101.655 20.323C101.985 20.8457 102.151 21.459 102.151 22.163C102.151 22.867 101.985 23.4803 101.655 24.003C101.335 24.5257 100.892 24.931 100.327 25.219C99.7718 25.507 99.1425 25.651 98.4385 25.651H95.5425ZM94.2785 29.875V18.675H96.1185V29.875H94.2785ZM103.695 29.875V18.355H105.455V29.875H103.695ZM110.63 30.035C109.936 30.035 109.307 29.859 108.742 29.507C108.187 29.155 107.744 28.6803 107.414 28.083C107.094 27.475 106.934 26.7977 106.934 26.051C106.934 25.2937 107.094 24.6163 107.414 24.019C107.744 23.411 108.187 22.931 108.742 22.579C109.307 22.2163 109.936 22.035 110.63 22.035C111.216 22.035 111.734 22.163 112.182 22.419C112.64 22.6643 113.003 23.0057 113.27 23.443C113.536 23.8803 113.67 24.3763 113.67 24.931V27.139C113.67 27.6937 113.536 28.1897 113.27 28.627C113.014 29.0643 112.656 29.411 112.198 29.667C111.739 29.9123 111.216 30.035 110.63 30.035ZM110.918 28.371C111.568 28.371 112.091 28.1523 112.486 27.715C112.891 27.2777 113.094 26.7177 113.094 26.035C113.094 25.5763 113.003 25.171 112.822 24.819C112.64 24.467 112.384 24.195 112.054 24.003C111.734 23.8003 111.355 23.699 110.918 23.699C110.491 23.699 110.112 23.8003 109.782 24.003C109.462 24.195 109.206 24.467 109.014 24.819C108.832 25.171 108.742 25.5763 108.742 26.035C108.742 26.4937 108.832 26.899 109.014 27.251C109.206 27.603 109.462 27.8803 109.782 28.083C110.112 28.275 110.491 28.371 110.918 28.371ZM112.982 29.875V27.811L113.286 25.939L112.982 24.083V22.195H114.742V29.875H112.982ZM119.175 29.955L115.895 22.195H117.831L120.071 27.891H119.511L121.879 22.195H123.831L120.263 29.955H119.175ZM116.887 33.075L119.271 28.163L120.263 29.955L118.839 33.075H116.887Z" fill="black"/>
</svg>
