<svg width="333" height="170" viewBox="0 0 333 170" fill="none" xmlns="http://www.w3.org/2000/svg">
<rect width="333" height="170" rx="15" fill="white"/>
<rect x="16.4382" y="16.4382" width="300.124" height="75.753" rx="8.325" stroke="#EAEBF0" stroke-width="0.876316"/>
<path d="M28.8307 43.0095V34.4917H29.6299V43.0095H28.8307ZM29.2198 43.0095V42.2524H31.1758V43.0095H29.2198ZM29.2198 35.2383V34.4917H31.1758V35.2383H29.2198ZM34.3504 42V34.9124H35.3389V42H34.3504ZM31.8687 35.6064V34.702H37.8101V35.6064H31.8687ZM39.7467 42.1052C39.249 42.1052 38.8003 41.993 38.4007 41.7687C38.0011 41.5373 37.6856 41.2253 37.4543 40.8327C37.2229 40.4402 37.1072 39.995 37.1072 39.4972C37.1072 39.0065 37.2194 38.5648 37.4438 38.1723C37.6751 37.7797 37.9836 37.4712 38.3691 37.2469C38.7617 37.0155 39.1999 36.8998 39.6836 36.8998C40.1463 36.8998 40.5529 37.005 40.9034 37.2153C41.261 37.4256 41.5379 37.7166 41.7342 38.0881C41.9375 38.4597 42.0392 38.8803 42.0392 39.35C42.0392 39.4201 42.0356 39.4972 42.0286 39.5814C42.0216 39.6585 42.0076 39.7496 41.9866 39.8548H37.7697V39.0661H41.4818L41.1348 39.3711C41.1348 39.0345 41.0752 38.7506 40.956 38.5193C40.8368 38.2809 40.6686 38.0986 40.4513 37.9725C40.2339 37.8393 39.971 37.7727 39.6626 37.7727C39.3401 37.7727 39.0562 37.8428 38.8108 37.983C38.5654 38.1232 38.3762 38.3195 38.243 38.5719C38.1098 38.8242 38.0432 39.1222 38.0432 39.4657C38.0432 39.8162 38.1133 40.1247 38.2535 40.3911C38.3937 40.6505 38.5935 40.8538 38.8529 41.001C39.1123 41.1412 39.4102 41.2113 39.7467 41.2113C40.0271 41.2113 40.283 41.1622 40.5144 41.0641C40.7527 40.9659 40.956 40.8187 41.1243 40.6224L41.7342 41.2429C41.4958 41.5233 41.2014 41.7371 40.8509 41.8843C40.5074 42.0315 40.1393 42.1052 39.7467 42.1052ZM45.1953 42.1052C44.7396 42.1052 44.326 41.993 43.9544 41.7687C43.5829 41.5373 43.2884 41.2253 43.0711 40.8327C42.8608 40.4402 42.7556 39.9985 42.7556 39.5078C42.7556 39.017 42.8608 38.5754 43.0711 38.1828C43.2884 37.7902 43.5794 37.4782 43.9439 37.2469C44.3155 37.0155 44.7326 36.8998 45.1953 36.8998C45.5739 36.8998 45.9104 36.9805 46.2048 37.1417C46.5063 37.2959 46.7481 37.5133 46.9304 37.7937C47.1127 38.0671 47.2143 38.3861 47.2353 38.7506V40.2544C47.2143 40.6119 47.1127 40.9309 46.9304 41.2113C46.7551 41.4917 46.5168 41.7126 46.2153 41.8738C45.9209 42.028 45.5809 42.1052 45.1953 42.1052ZM45.353 41.2113C45.8227 41.2113 46.2013 41.0536 46.4887 40.7381C46.7762 40.4156 46.9199 40.0055 46.9199 39.5078C46.9199 39.1642 46.8533 38.8663 46.7201 38.6139C46.5939 38.3545 46.4116 38.1547 46.1733 38.0145C45.9349 37.8673 45.658 37.7937 45.3425 37.7937C45.027 37.7937 44.7466 37.8673 44.5012 38.0145C44.2629 38.1617 44.0736 38.365 43.9334 38.6244C43.8002 38.8768 43.7336 39.1677 43.7336 39.4972C43.7336 39.8337 43.8002 40.1317 43.9334 40.3911C44.0736 40.6435 44.2664 40.8433 44.5118 40.9905C44.7571 41.1377 45.0375 41.2113 45.353 41.2113ZM46.8568 42V40.654L47.0355 39.4341L46.8568 38.2248V37.005H47.8137V42H46.8568ZM51.4735 42.1052C50.9828 42.1052 50.5376 41.9895 50.138 41.7581C49.7454 41.5268 49.4335 41.2148 49.2021 40.8222C48.9778 40.4226 48.8656 39.981 48.8656 39.4972C48.8656 39.0065 48.9778 38.5648 49.2021 38.1723C49.4335 37.7797 49.7454 37.4712 50.138 37.2469C50.5376 37.0155 50.9828 36.8998 51.4735 36.8998C51.8591 36.8998 52.2167 36.9735 52.5462 37.1207C52.8756 37.2609 53.1596 37.4677 53.3979 37.7411L52.767 38.3721C52.6128 38.1898 52.4235 38.0531 52.1991 37.9619C51.9818 37.8638 51.7399 37.8147 51.4735 37.8147C51.1581 37.8147 50.8776 37.8883 50.6323 38.0355C50.3869 38.1758 50.1941 38.3721 50.0539 38.6244C49.9137 38.8768 49.8436 39.1677 49.8436 39.4972C49.8436 39.8267 49.9137 40.1177 50.0539 40.3701C50.1941 40.6224 50.3869 40.8222 50.6323 40.9695C50.8776 41.1167 51.1581 41.1903 51.4735 41.1903C51.7399 41.1903 51.9818 41.1447 52.1991 41.0536C52.4235 40.9554 52.6163 40.8152 52.7775 40.6329L53.3979 41.2639C53.1666 41.5303 52.8827 41.7371 52.5462 41.8843C52.2167 42.0315 51.8591 42.1052 51.4735 42.1052ZM57.8699 42V39.0871C57.8699 38.7086 57.7507 38.3966 57.5123 38.1512C57.274 37.9059 56.9655 37.7832 56.5869 37.7832C56.3345 37.7832 56.1102 37.8393 55.9139 37.9514C55.7176 38.0636 55.5634 38.2178 55.4512 38.4141C55.3391 38.6104 55.283 38.8347 55.283 39.0871L54.8939 38.8663C54.8939 38.4877 54.978 38.1512 55.1463 37.8568C55.3145 37.5623 55.5494 37.331 55.8508 37.1627C56.1523 36.9875 56.4923 36.8998 56.8709 36.8998C57.2494 36.8998 57.5824 36.984 57.8699 37.1522C58.1643 37.3205 58.3956 37.5553 58.5639 37.8568C58.7321 38.1582 58.8163 38.5053 58.8163 38.8978V42H57.8699ZM54.3365 42V34.4917H55.283V42H54.3365ZM62.4111 42.1052C61.9134 42.1052 61.4647 41.993 61.0651 41.7687C60.6655 41.5373 60.35 41.2253 60.1187 40.8327C59.8873 40.4402 59.7716 39.995 59.7716 39.4972C59.7716 39.0065 59.8838 38.5648 60.1082 38.1723C60.3395 37.7797 60.648 37.4712 61.0335 37.2469C61.4261 37.0155 61.8643 36.8998 62.348 36.8998C62.8107 36.8998 63.2173 37.005 63.5678 37.2153C63.9254 37.4256 64.2023 37.7166 64.3986 38.0881C64.6019 38.4597 64.7036 38.8803 64.7036 39.35C64.7036 39.4201 64.7 39.4972 64.693 39.5814C64.686 39.6585 64.672 39.7496 64.651 39.8548H60.4341V39.0661H64.1462L63.7992 39.3711C63.7992 39.0345 63.7396 38.7506 63.6204 38.5193C63.5012 38.2809 63.333 38.0986 63.1157 37.9725C62.8983 37.8393 62.6354 37.7727 62.327 37.7727C62.0045 37.7727 61.7206 37.8428 61.4752 37.983C61.2298 38.1232 61.0406 38.3195 60.9074 38.5719C60.7742 38.8242 60.7076 39.1222 60.7076 39.4657C60.7076 39.8162 60.7777 40.1247 60.9179 40.3911C61.0581 40.6505 61.2579 40.8538 61.5173 41.001C61.7767 41.1412 62.0746 41.2113 62.4111 41.2113C62.6915 41.2113 62.9474 41.1622 63.1788 41.0641C63.4171 40.9659 63.6204 40.8187 63.7887 40.6224L64.3986 41.2429C64.1602 41.5233 63.8658 41.7371 63.5153 41.8843C63.1718 42.0315 62.8037 42.1052 62.4111 42.1052ZM65.7355 42V37.005H66.6819V42H65.7355ZM66.6819 39.1502L66.3244 38.9925C66.3244 38.3545 66.4716 37.8463 66.766 37.4677C67.0605 37.0891 67.4846 36.8998 68.0385 36.8998C68.2908 36.8998 68.5187 36.9454 68.722 37.0365C68.9253 37.1207 69.1146 37.2644 69.2898 37.4677L68.6694 38.1092C68.5642 37.997 68.4486 37.9164 68.3224 37.8673C68.1962 37.8182 68.049 37.7937 67.8807 37.7937C67.5302 37.7937 67.2428 37.9059 67.0184 38.1302C66.7941 38.3545 66.6819 38.6945 66.6819 39.1502ZM70.2418 37.026L70.8937 35.7747L71.2302 35.6905C71.1952 35.7676 71.1496 35.8307 71.0935 35.8798C71.0445 35.9289 70.9814 35.9534 70.9043 35.9534C70.757 35.9534 70.6203 35.8938 70.4941 35.7747C70.375 35.6485 70.3154 35.4942 70.3154 35.312C70.3154 35.1157 70.382 34.9474 70.5152 34.8072C70.6554 34.667 70.8236 34.5969 71.0199 34.5969C71.2022 34.5969 71.3634 34.667 71.5037 34.8072C71.6439 34.9474 71.714 35.1157 71.714 35.312C71.714 35.3891 71.6964 35.4837 71.6614 35.5959C71.6333 35.701 71.5738 35.8413 71.4826 36.0165L70.7886 37.3205L70.2418 37.026ZM73.7828 42.1052C73.5024 42.1052 73.236 42.0701 72.9836 42C72.7382 41.9229 72.5104 41.8177 72.3001 41.6845C72.0897 41.5443 71.9075 41.3796 71.7532 41.1903L72.3632 40.5804C72.5454 40.8047 72.7557 40.973 72.9941 41.0851C73.2325 41.1903 73.4989 41.2429 73.7933 41.2429C74.0877 41.2429 74.3156 41.1938 74.4768 41.0956C74.6381 40.9905 74.7187 40.8468 74.7187 40.6645C74.7187 40.4822 74.6521 40.342 74.5189 40.2439C74.3927 40.1387 74.228 40.0546 74.0247 39.9915C73.8213 39.9214 73.604 39.8548 73.3727 39.7917C73.1483 39.7216 72.9345 39.6339 72.7312 39.5288C72.5279 39.4236 72.3597 39.2799 72.2265 39.0976C72.1003 38.9154 72.0372 38.6735 72.0372 38.3721C72.0372 38.0706 72.1108 37.8112 72.258 37.5939C72.4052 37.3695 72.6085 37.1978 72.8679 37.0786C73.1343 36.9594 73.4533 36.8998 73.8249 36.8998C74.2174 36.8998 74.5645 36.9699 74.8659 37.1102C75.1744 37.2434 75.4268 37.4467 75.6231 37.7201L75.0131 38.33C74.8729 38.1477 74.6977 38.0075 74.4873 37.9094C74.284 37.8112 74.0527 37.7621 73.7933 37.7621C73.5199 37.7621 73.3096 37.8112 73.1624 37.9094C73.0221 38.0005 72.952 38.1302 72.952 38.2984C72.952 38.4667 73.0151 38.5964 73.1413 38.6875C73.2675 38.7787 73.4323 38.8558 73.6356 38.9189C73.8459 38.982 74.0632 39.0486 74.2875 39.1187C74.5119 39.1818 74.7257 39.2694 74.929 39.3816C75.1323 39.4937 75.2971 39.6445 75.4233 39.8337C75.5565 40.023 75.6231 40.2719 75.6231 40.5804C75.6231 41.0501 75.4548 41.4216 75.1183 41.695C74.7888 41.9685 74.3436 42.1052 73.7828 42.1052ZM79.0382 42V34.702H79.7323L80.0267 35.8483V42H79.0382ZM84.0858 42L79.6061 36.0165L79.7323 34.702L84.2225 40.675L84.0858 42ZM84.0858 42L83.7914 40.9169V34.702H84.7798V42H84.0858ZM88.46 42.1052C88.0043 42.1052 87.5906 41.993 87.2191 41.7687C86.8475 41.5373 86.5531 41.2253 86.3358 40.8327C86.1254 40.4402 86.0203 39.9985 86.0203 39.5078C86.0203 39.017 86.1254 38.5754 86.3358 38.1828C86.5531 37.7902 86.844 37.4782 87.2086 37.2469C87.5801 37.0155 87.9973 36.8998 88.46 36.8998C88.8385 36.8998 89.175 36.9805 89.4695 37.1417C89.7709 37.2959 90.0128 37.5133 90.1951 37.7937C90.3773 38.0671 90.479 38.3861 90.5 38.7506V40.2544C90.479 40.6119 90.3773 40.9309 90.1951 41.2113C90.0198 41.4917 89.7814 41.7126 89.48 41.8738C89.1855 42.028 88.8455 42.1052 88.46 42.1052ZM88.6177 41.2113C89.0874 41.2113 89.466 41.0536 89.7534 40.7381C90.0408 40.4156 90.1845 40.0055 90.1845 39.5078C90.1845 39.1642 90.1179 38.8663 89.9847 38.6139C89.8586 38.3545 89.6763 38.1547 89.4379 38.0145C89.1996 37.8673 88.9226 37.7937 88.6072 37.7937C88.2917 37.7937 88.0113 37.8673 87.7659 38.0145C87.5276 38.1617 87.3383 38.365 87.1981 38.6244C87.0649 38.8768 86.9983 39.1677 86.9983 39.4972C86.9983 39.8337 87.0649 40.1317 87.1981 40.3911C87.3383 40.6435 87.5311 40.8433 87.7764 40.9905C88.0218 41.1377 88.3022 41.2113 88.6177 41.2113ZM90.1214 42V40.654L90.3002 39.4341L90.1214 38.2248V37.005H91.0784V42H90.1214ZM92.4563 42V37.005H93.4027V42H92.4563ZM95.8318 42V38.982C95.8318 38.6104 95.7162 38.3195 95.4848 38.1092C95.2605 37.8918 94.9766 37.7832 94.633 37.7832C94.4017 37.7832 94.1949 37.8322 94.0126 37.9304C93.8303 38.0285 93.6831 38.1652 93.571 38.3405C93.4588 38.5158 93.4027 38.7261 93.4027 38.9715L93.0136 38.7822C93.0136 38.4036 93.0942 38.0741 93.2555 37.7937C93.4237 37.5133 93.6516 37.2959 93.939 37.1417C94.2264 36.9805 94.5489 36.8998 94.9065 36.8998C95.257 36.8998 95.5725 36.977 95.8529 37.1312C96.1403 37.2854 96.3646 37.5027 96.5259 37.7832C96.6941 38.0636 96.7783 38.3966 96.7783 38.7822V42H95.8318ZM99.2074 42V38.982C99.2074 38.6104 99.0917 38.3195 98.8604 38.1092C98.6361 37.8918 98.3556 37.7832 98.0191 37.7832C97.7878 37.7832 97.5775 37.8322 97.3882 37.9304C97.2059 38.0285 97.0587 38.1652 96.9465 38.3405C96.8344 38.5158 96.7783 38.7261 96.7783 38.9715L96.242 38.7822C96.263 38.3966 96.3646 38.0671 96.5469 37.7937C96.7362 37.5133 96.9781 37.2959 97.2725 37.1417C97.567 36.9805 97.8894 36.8998 98.24 36.8998C98.6045 36.8998 98.9305 36.977 99.2179 37.1312C99.5054 37.2854 99.7332 37.5027 99.9015 37.7832C100.077 38.0636 100.164 38.4001 100.164 38.7927V42H99.2074ZM103.766 42.1052C103.268 42.1052 102.819 41.993 102.42 41.7687C102.02 41.5373 101.705 41.2253 101.473 40.8327C101.242 40.4402 101.126 39.995 101.126 39.4972C101.126 39.0065 101.238 38.5648 101.463 38.1723C101.694 37.7797 102.003 37.4712 102.388 37.2469C102.781 37.0155 103.219 36.8998 103.703 36.8998C104.165 36.8998 104.572 37.005 104.922 37.2153C105.28 37.4256 105.557 37.7166 105.753 38.0881C105.956 38.4597 106.058 38.8803 106.058 39.35C106.058 39.4201 106.055 39.4972 106.048 39.5814C106.041 39.6585 106.027 39.7496 106.006 39.8548H101.789V39.0661H105.501L105.154 39.3711C105.154 39.0345 105.094 38.7506 104.975 38.5193C104.856 38.2809 104.688 38.0986 104.47 37.9725C104.253 37.8393 103.99 37.7727 103.682 37.7727C103.359 37.7727 103.075 37.8428 102.83 37.983C102.584 38.1232 102.395 38.3195 102.262 38.5719C102.129 38.8242 102.062 39.1222 102.062 39.4657C102.062 39.8162 102.132 40.1247 102.272 40.3911C102.413 40.6505 102.612 40.8538 102.872 41.001C103.131 41.1412 103.429 41.2113 103.766 41.2113C104.046 41.2113 104.302 41.1622 104.533 41.0641C104.772 40.9659 104.975 40.8187 105.143 40.6224L105.753 41.2429C105.515 41.5233 105.22 41.7371 104.87 41.8843C104.526 42.0315 104.158 42.1052 103.766 42.1052ZM108.32 43.0095V34.4917H109.12V43.0095H108.32ZM106.775 43.0095V42.2524H108.731V43.0095H106.775ZM106.775 35.2383V34.4917H108.731V35.2383H106.775ZM111.369 42.1052C111.173 42.1052 111.008 42.0386 110.875 41.9054C110.748 41.7651 110.685 41.6039 110.685 41.4216C110.685 41.2183 110.748 41.0536 110.875 40.9274C111.008 40.7942 111.173 40.7276 111.369 40.7276C111.565 40.7276 111.726 40.7942 111.853 40.9274C111.986 41.0536 112.052 41.2183 112.052 41.4216C112.052 41.6039 111.986 41.7651 111.853 41.9054C111.726 42.0386 111.565 42.1052 111.369 42.1052ZM111.369 38.8242C111.173 38.8242 111.008 38.7576 110.875 38.6244C110.748 38.4912 110.685 38.33 110.685 38.1407C110.685 37.9374 110.748 37.7727 110.875 37.6465C111.008 37.5133 111.173 37.4467 111.369 37.4467C111.565 37.4467 111.726 37.5133 111.853 37.6465C111.986 37.7727 112.052 37.9374 112.052 38.1407C112.052 38.33 111.986 38.4912 111.853 38.6244C111.726 38.7576 111.565 38.8242 111.369 38.8242ZM117.624 42V34.9124H118.613V42H117.624ZM115.143 35.6064V34.702H121.084V35.6064H115.143ZM122.989 42.1052C122.498 42.1052 122.057 41.9895 121.664 41.7581C121.272 41.5268 120.96 41.2148 120.728 40.8222C120.497 40.4226 120.381 39.9775 120.381 39.4867C120.381 39.003 120.497 38.5683 120.728 38.1828C120.96 37.7902 121.272 37.4782 121.664 37.2469C122.057 37.0155 122.498 36.8998 122.989 36.8998C123.473 36.8998 123.911 37.0155 124.304 37.2469C124.703 37.4712 125.019 37.7797 125.25 38.1723C125.481 38.5648 125.597 39.003 125.597 39.4867C125.597 39.9775 125.481 40.4226 125.25 40.8222C125.019 41.2148 124.703 41.5268 124.304 41.7581C123.911 41.9895 123.473 42.1052 122.989 42.1052ZM122.989 41.1903C123.305 41.1903 123.585 41.1167 123.83 40.9695C124.076 40.8222 124.269 40.6224 124.409 40.3701C124.549 40.1107 124.619 39.8162 124.619 39.4867C124.619 39.1642 124.545 38.8768 124.398 38.6244C124.258 38.3721 124.065 38.1758 123.82 38.0355C123.582 37.8883 123.305 37.8147 122.989 37.8147C122.674 37.8147 122.393 37.8883 122.148 38.0355C121.902 38.1758 121.71 38.3721 121.569 38.6244C121.429 38.8768 121.359 39.1642 121.359 39.4867C121.359 39.8162 121.429 40.1107 121.569 40.3701C121.71 40.6224 121.902 40.8222 122.148 40.9695C122.393 41.1167 122.674 41.1903 122.989 41.1903ZM128.777 42.1052C128.314 42.1052 127.901 41.993 127.536 41.7687C127.172 41.5373 126.881 41.2253 126.663 40.8327C126.453 40.4402 126.348 39.9985 126.348 39.5078C126.348 39.017 126.453 38.5754 126.663 38.1828C126.881 37.7902 127.172 37.4782 127.536 37.2469C127.901 37.0155 128.314 36.8998 128.777 36.8998C129.149 36.8998 129.485 36.9805 129.787 37.1417C130.088 37.2959 130.33 37.5133 130.512 37.7937C130.701 38.0671 130.807 38.3861 130.828 38.7506V40.2544C130.807 40.6119 130.705 40.9309 130.523 41.2113C130.34 41.4917 130.099 41.7126 129.797 41.8738C129.496 42.028 129.156 42.1052 128.777 42.1052ZM128.935 41.2113C129.25 41.2113 129.524 41.1377 129.755 40.9905C129.993 40.8433 130.179 40.6435 130.312 40.3911C130.446 40.1317 130.512 39.8373 130.512 39.5078C130.512 39.1642 130.442 38.8663 130.302 38.6139C130.169 38.3615 129.983 38.1617 129.745 38.0145C129.513 37.8673 129.24 37.7937 128.924 37.7937C128.609 37.7937 128.332 37.8673 128.094 38.0145C127.855 38.1617 127.666 38.365 127.526 38.6244C127.392 38.8768 127.326 39.1677 127.326 39.4972C127.326 39.8337 127.392 40.1317 127.526 40.3911C127.666 40.6435 127.855 40.8433 128.094 40.9905C128.339 41.1377 128.619 41.2113 128.935 41.2113ZM131.406 42H130.449V40.654L130.628 39.4341L130.449 38.2248V34.4917H131.406V42ZM134.908 42.1052C134.452 42.1052 134.039 41.993 133.667 41.7687C133.296 41.5373 133.001 41.2253 132.784 40.8327C132.574 40.4402 132.468 39.9985 132.468 39.5078C132.468 39.017 132.574 38.5754 132.784 38.1828C133.001 37.7902 133.292 37.4782 133.657 37.2469C134.028 37.0155 134.445 36.8998 134.908 36.8998C135.287 36.8998 135.623 36.9805 135.918 37.1417C136.219 37.2959 136.461 37.5133 136.643 37.7937C136.825 38.0671 136.927 38.3861 136.948 38.7506V40.2544C136.927 40.6119 136.825 40.9309 136.643 41.2113C136.468 41.4917 136.23 41.7126 135.928 41.8738C135.634 42.028 135.294 42.1052 134.908 42.1052ZM135.066 41.2113C135.536 41.2113 135.914 41.0536 136.202 40.7381C136.489 40.4156 136.633 40.0055 136.633 39.5078C136.633 39.1642 136.566 38.8663 136.433 38.6139C136.307 38.3545 136.124 38.1547 135.886 38.0145C135.648 37.8673 135.371 37.7937 135.055 37.7937C134.74 37.7937 134.459 37.8673 134.214 38.0145C133.976 38.1617 133.786 38.365 133.646 38.6244C133.513 38.8768 133.446 39.1677 133.446 39.4972C133.446 39.8337 133.513 40.1317 133.646 40.3911C133.786 40.6435 133.979 40.8433 134.225 40.9905C134.47 41.1377 134.75 41.2113 135.066 41.2113ZM136.57 42V40.654L136.748 39.4341L136.57 38.2248V37.005H137.527V42H136.57ZM140.545 42.0421L138.379 37.005H139.43L141.039 40.9484H140.703L142.396 37.005H143.447L141.113 42.0421H140.545ZM139.115 44.0926L140.587 41.0746L141.113 42.0421L140.166 44.0926H139.115ZM143.64 43.1567L144.292 41.9054L144.628 41.8212C144.593 41.8983 144.548 41.9614 144.492 42.0105C144.443 42.0596 144.379 42.0841 144.302 42.0841C144.155 42.0841 144.018 42.0245 143.892 41.9054C143.773 41.7792 143.713 41.6249 143.713 41.4427C143.713 41.2394 143.78 41.0711 143.913 40.9379C144.046 40.7977 144.215 40.7276 144.418 40.7276C144.6 40.7276 144.762 40.7977 144.902 40.9379C145.042 41.0711 145.112 41.2394 145.112 41.4427C145.112 41.5198 145.095 41.6144 145.059 41.7266C145.031 41.8317 144.972 41.9685 144.881 42.1367L144.187 43.4512L143.64 43.1567ZM150.101 42L148.124 37.005H149.112L150.542 40.8958H150.227L151.647 37.005H152.193L153.613 40.8958H153.298L154.728 37.005H155.716L153.75 42H153.192L151.752 38.2248H152.099L150.648 42H150.101ZM158.727 42.1052C158.229 42.1052 157.781 41.993 157.381 41.7687C156.981 41.5373 156.666 41.2253 156.435 40.8327C156.203 40.4402 156.088 39.995 156.088 39.4972C156.088 39.0065 156.2 38.5648 156.424 38.1723C156.656 37.7797 156.964 37.4712 157.35 37.2469C157.742 37.0155 158.18 36.8998 158.664 36.8998C159.127 36.8998 159.533 37.005 159.884 37.2153C160.241 37.4256 160.518 37.7166 160.715 38.0881C160.918 38.4597 161.02 38.8803 161.02 39.35C161.02 39.4201 161.016 39.4972 161.009 39.5814C161.002 39.6585 160.988 39.7496 160.967 39.8548H156.75V39.0661H160.462L160.115 39.3711C160.115 39.0345 160.056 38.7506 159.936 38.5193C159.817 38.2809 159.649 38.0986 159.432 37.9725C159.214 37.8393 158.951 37.7727 158.643 37.7727C158.321 37.7727 158.037 37.8428 157.791 37.983C157.546 38.1232 157.357 38.3195 157.223 38.5719C157.09 38.8242 157.024 39.1222 157.024 39.4657C157.024 39.8162 157.094 40.1247 157.234 40.3911C157.374 40.6505 157.574 40.8538 157.833 41.001C158.093 41.1412 158.391 41.2113 158.727 41.2113C159.008 41.2113 159.263 41.1622 159.495 41.0641C159.733 40.9659 159.936 40.8187 160.105 40.6224L160.715 41.2429C160.476 41.5233 160.182 41.7371 159.831 41.8843C159.488 42.0315 159.12 42.1052 158.727 42.1052ZM162.304 37.0576L162.083 34.4917H163.124L162.903 37.0576H162.304ZM164.547 42V34.4917H165.493V42H164.547ZM166.878 42V34.4917H167.824V42H166.878ZM174.026 42.1052C173.647 42.1052 173.303 42.028 172.995 41.8738C172.694 41.7126 172.452 41.4917 172.269 41.2113C172.087 40.9309 171.985 40.6119 171.964 40.2544V38.7506C171.985 38.3861 172.087 38.0671 172.269 37.7937C172.459 37.5133 172.704 37.2959 173.006 37.1417C173.314 36.9805 173.654 36.8998 174.026 36.8998C174.481 36.8998 174.891 37.0155 175.256 37.2469C175.627 37.4782 175.918 37.7902 176.129 38.1828C176.339 38.5754 176.444 39.017 176.444 39.5078C176.444 39.9985 176.339 40.4402 176.129 40.8327C175.918 41.2253 175.627 41.5373 175.256 41.7687C174.891 41.993 174.481 42.1052 174.026 42.1052ZM173.868 41.2113C174.183 41.2113 174.46 41.1377 174.699 40.9905C174.937 40.8433 175.126 40.6435 175.266 40.3911C175.407 40.1317 175.477 39.8337 175.477 39.4972C175.477 39.1677 175.407 38.8733 175.266 38.6139C175.126 38.3545 174.937 38.1547 174.699 38.0145C174.46 37.8673 174.187 37.7937 173.878 37.7937C173.563 37.7937 173.286 37.8673 173.048 38.0145C172.809 38.1547 172.623 38.3545 172.49 38.6139C172.357 38.8733 172.29 39.1713 172.29 39.5078C172.29 39.8373 172.354 40.1317 172.48 40.3911C172.613 40.6435 172.799 40.8433 173.037 40.9905C173.282 41.1377 173.559 41.2113 173.868 41.2113ZM171.397 42V34.4917H172.343V38.2248L172.164 39.4341L172.343 40.654V42H171.397ZM179.831 42.1052C179.333 42.1052 178.884 41.993 178.485 41.7687C178.085 41.5373 177.769 41.2253 177.538 40.8327C177.307 40.4402 177.191 39.995 177.191 39.4972C177.191 39.0065 177.303 38.5648 177.528 38.1723C177.759 37.7797 178.067 37.4712 178.453 37.2469C178.846 37.0155 179.284 36.8998 179.767 36.8998C180.23 36.8998 180.637 37.005 180.987 37.2153C181.345 37.4256 181.622 37.7166 181.818 38.0881C182.021 38.4597 182.123 38.8803 182.123 39.35C182.123 39.4201 182.12 39.4972 182.113 39.5814C182.105 39.6585 182.091 39.7496 182.07 39.8548H177.854V39.0661H181.566L181.219 39.3711C181.219 39.0345 181.159 38.7506 181.04 38.5193C180.921 38.2809 180.752 38.0986 180.535 37.9725C180.318 37.8393 180.055 37.7727 179.746 37.7727C179.424 37.7727 179.14 37.8428 178.895 37.983C178.649 38.1232 178.46 38.3195 178.327 38.5719C178.194 38.8242 178.127 39.1222 178.127 39.4657C178.127 39.8162 178.197 40.1247 178.337 40.3911C178.478 40.6505 178.677 40.8538 178.937 41.001C179.196 41.1412 179.494 41.2113 179.831 41.2113C180.111 41.2113 180.367 41.1622 180.598 41.0641C180.837 40.9659 181.04 40.8187 181.208 40.6224L181.818 41.2429C181.58 41.5233 181.285 41.7371 180.935 41.8843C180.591 42.0315 180.223 42.1052 179.831 42.1052ZM187.456 42.1052C186.993 42.1052 186.58 41.993 186.215 41.7687C185.851 41.5373 185.56 41.2253 185.342 40.8327C185.132 40.4402 185.027 39.9985 185.027 39.5078C185.027 39.017 185.132 38.5754 185.342 38.1828C185.56 37.7902 185.851 37.4782 186.215 37.2469C186.58 37.0155 186.993 36.8998 187.456 36.8998C187.828 36.8998 188.164 36.9805 188.466 37.1417C188.767 37.2959 189.009 37.5133 189.191 37.7937C189.38 38.0671 189.486 38.3861 189.507 38.7506V40.2544C189.486 40.6119 189.384 40.9309 189.202 41.2113C189.019 41.4917 188.777 41.7126 188.476 41.8738C188.175 42.028 187.835 42.1052 187.456 42.1052ZM187.614 41.2113C187.929 41.2113 188.203 41.1377 188.434 40.9905C188.672 40.8433 188.858 40.6435 188.991 40.3911C189.125 40.1317 189.191 39.8373 189.191 39.5078C189.191 39.1642 189.121 38.8663 188.981 38.6139C188.848 38.3615 188.662 38.1617 188.423 38.0145C188.192 37.8673 187.919 37.7937 187.603 37.7937C187.288 37.7937 187.011 37.8673 186.772 38.0145C186.534 38.1617 186.345 38.365 186.205 38.6244C186.071 38.8768 186.005 39.1677 186.005 39.4972C186.005 39.8337 186.071 40.1317 186.205 40.3911C186.345 40.6435 186.534 40.8433 186.772 40.9905C187.018 41.1377 187.298 41.2113 187.614 41.2113ZM190.085 42H189.128V40.654L189.307 39.4341L189.128 38.2248V34.4917H190.085V42ZM191.473 42V37.005H192.42V42H191.473ZM191.947 36.006C191.771 36.006 191.628 35.9499 191.515 35.8377C191.403 35.7186 191.347 35.5713 191.347 35.3961C191.347 35.2278 191.403 35.0876 191.515 34.9755C191.628 34.8563 191.771 34.7967 191.947 34.7967C192.122 34.7967 192.266 34.8563 192.378 34.9755C192.49 35.0876 192.546 35.2278 192.546 35.3961C192.546 35.5713 192.49 35.7186 192.378 35.8377C192.266 35.9499 192.122 36.006 191.947 36.006ZM195.529 42L193.236 37.005H194.288L196.128 41.2218H195.518L197.369 37.005H198.378L196.086 42H195.529ZM199.196 42V37.005H200.142V42H199.196ZM199.669 36.006C199.494 36.006 199.35 35.9499 199.238 35.8377C199.126 35.7186 199.07 35.5713 199.07 35.3961C199.07 35.2278 199.126 35.0876 199.238 34.9755C199.35 34.8563 199.494 34.7967 199.669 34.7967C199.844 34.7967 199.988 34.8563 200.1 34.9755C200.212 35.0876 200.269 35.2278 200.269 35.3961C200.269 35.5713 200.212 35.7186 200.1 35.8377C199.988 35.9499 199.844 36.006 199.669 36.006ZM205.07 42V39.0871C205.07 38.7086 204.951 38.3966 204.713 38.1512C204.474 37.9059 204.166 37.7832 203.787 37.7832C203.535 37.7832 203.311 37.8393 203.114 37.9514C202.918 38.0636 202.764 38.2178 202.652 38.4141C202.54 38.6104 202.483 38.8347 202.483 39.0871L202.094 38.8663C202.094 38.4877 202.179 38.1512 202.347 37.8568C202.515 37.5623 202.75 37.331 203.051 37.1627C203.353 36.9875 203.693 36.8998 204.071 36.8998C204.45 36.8998 204.783 36.9945 205.07 37.1838C205.365 37.3731 205.596 37.6219 205.764 37.9304C205.933 38.2318 206.017 38.5543 206.017 38.8978V42H205.07ZM201.537 42V37.005H202.483V42H201.537ZM209.37 44.1978C208.858 44.1978 208.402 44.1032 208.003 43.9139C207.61 43.7246 207.295 43.4582 207.056 43.1147L207.666 42.4942C207.869 42.7536 208.111 42.9499 208.392 43.0831C208.672 43.2233 209.005 43.2934 209.391 43.2934C209.903 43.2934 210.306 43.1567 210.6 42.8833C210.902 42.6169 211.052 42.2559 211.052 41.8002V40.5593L211.221 39.4341L211.052 38.3195V37.005H211.999V41.8002C211.999 42.2769 211.887 42.694 211.662 43.0516C211.445 43.4091 211.136 43.6895 210.737 43.8928C210.344 44.0961 209.889 44.1978 209.37 44.1978ZM209.37 41.9159C208.914 41.9159 208.504 41.8072 208.139 41.5899C207.782 41.3726 207.498 41.0746 207.288 40.696C207.077 40.3105 206.972 39.8793 206.972 39.4026C206.972 38.9259 207.077 38.5017 207.288 38.1302C207.498 37.7516 207.782 37.4537 208.139 37.2363C208.504 37.012 208.914 36.8998 209.37 36.8998C209.762 36.8998 210.109 36.977 210.411 37.1312C210.712 37.2854 210.951 37.5027 211.126 37.7832C211.308 38.0566 211.406 38.3791 211.42 38.7506V40.0756C211.399 40.4402 211.298 40.7626 211.115 41.0431C210.94 41.3165 210.702 41.5303 210.4 41.6845C210.099 41.8388 209.755 41.9159 209.37 41.9159ZM209.559 41.022C209.867 41.022 210.137 40.9554 210.369 40.8222C210.607 40.689 210.789 40.5033 210.916 40.2649C211.042 40.0195 211.105 39.7356 211.105 39.4131C211.105 39.0906 211.038 38.8102 210.905 38.5719C210.779 38.3265 210.6 38.1372 210.369 38.004C210.137 37.8638 209.864 37.7937 209.549 37.7937C209.233 37.7937 208.956 37.8638 208.718 38.004C208.479 38.1372 208.29 38.3265 208.15 38.5719C208.017 38.8102 207.95 39.0871 207.95 39.4026C207.95 39.7181 208.017 39.9985 208.15 40.2439C208.29 40.4892 208.479 40.682 208.718 40.8222C208.963 40.9554 209.244 41.022 209.559 41.022ZM215.586 42V37.005H216.532V42H215.586ZM216.059 36.006C215.884 36.006 215.74 35.9499 215.628 35.8377C215.516 35.7186 215.46 35.5713 215.46 35.3961C215.46 35.2278 215.516 35.0876 215.628 34.9755C215.74 34.8563 215.884 34.7967 216.059 34.7967C216.234 34.7967 216.378 34.8563 216.49 34.9755C216.602 35.0876 216.658 35.2278 216.658 35.3961C216.658 35.5713 216.602 35.7186 216.49 35.8377C216.378 35.9499 216.234 36.006 216.059 36.006ZM221.46 42V39.0871C221.46 38.7086 221.341 38.3966 221.103 38.1512C220.864 37.9059 220.556 37.7832 220.177 37.7832C219.925 37.7832 219.701 37.8393 219.504 37.9514C219.308 38.0636 219.154 38.2178 219.042 38.4141C218.929 38.6104 218.873 38.8347 218.873 39.0871L218.484 38.8663C218.484 38.4877 218.568 38.1512 218.737 37.8568C218.905 37.5623 219.14 37.331 219.441 37.1627C219.743 36.9875 220.083 36.8998 220.461 36.8998C220.84 36.8998 221.173 36.9945 221.46 37.1838C221.755 37.3731 221.986 37.6219 222.154 37.9304C222.322 38.2318 222.407 38.5543 222.407 38.8978V42H221.46ZM217.927 42V37.005H218.873V42H217.927ZM224.394 42V34.9124H225.34V42H224.394ZM223.164 37.8673V37.005H226.571V37.8673H223.164ZM229.626 42.1052C229.135 42.1052 228.693 41.9895 228.301 41.7581C227.908 41.5268 227.596 41.2148 227.365 40.8222C227.134 40.4226 227.018 39.9775 227.018 39.4867C227.018 39.003 227.134 38.5683 227.365 38.1828C227.596 37.7902 227.908 37.4782 228.301 37.2469C228.693 37.0155 229.135 36.8998 229.626 36.8998C230.11 36.8998 230.548 37.0155 230.94 37.2469C231.34 37.4712 231.655 37.7797 231.887 38.1723C232.118 38.5648 232.234 39.003 232.234 39.4867C232.234 39.9775 232.118 40.4226 231.887 40.8222C231.655 41.2148 231.34 41.5268 230.94 41.7581C230.548 41.9895 230.11 42.1052 229.626 42.1052ZM229.626 41.1903C229.941 41.1903 230.222 41.1167 230.467 40.9695C230.712 40.8222 230.905 40.6224 231.045 40.3701C231.186 40.1107 231.256 39.8162 231.256 39.4867C231.256 39.1642 231.182 38.8768 231.035 38.6244C230.895 38.3721 230.702 38.1758 230.457 38.0355C230.218 37.8883 229.941 37.8147 229.626 37.8147C229.31 37.8147 229.03 37.8883 228.785 38.0355C228.539 38.1758 228.346 38.3721 228.206 38.6244C228.066 38.8768 227.996 39.1642 227.996 39.4867C227.996 39.8162 228.066 40.1107 228.206 40.3701C228.346 40.6224 228.539 40.8222 228.785 40.9695C229.03 41.1167 229.31 41.1903 229.626 41.1903ZM235.624 43.0095V34.4917H236.423V43.0095H235.624ZM236.013 43.0095V42.2524H237.969V43.0095H236.013ZM236.013 35.2383V34.4917H237.969V35.2383H236.013ZM241.144 42V34.9124H242.132V42H241.144ZM238.662 35.6064V34.702H244.603V35.6064H238.662ZM246.509 42.1052C246.018 42.1052 245.576 41.9895 245.184 41.7581C244.791 41.5268 244.479 41.2148 244.248 40.8222C244.016 40.4226 243.901 39.9775 243.901 39.4867C243.901 39.003 244.016 38.5683 244.248 38.1828C244.479 37.7902 244.791 37.4782 245.184 37.2469C245.576 37.0155 246.018 36.8998 246.509 36.8998C246.992 36.8998 247.43 37.0155 247.823 37.2469C248.223 37.4712 248.538 37.7797 248.769 38.1723C249.001 38.5648 249.116 39.003 249.116 39.4867C249.116 39.9775 249.001 40.4226 248.769 40.8222C248.538 41.2148 248.223 41.5268 247.823 41.7581C247.43 41.9895 246.992 42.1052 246.509 42.1052ZM246.509 41.1903C246.824 41.1903 247.104 41.1167 247.35 40.9695C247.595 40.8222 247.788 40.6224 247.928 40.3701C248.068 40.1107 248.139 39.8162 248.139 39.4867C248.139 39.1642 248.065 38.8768 247.918 38.6244C247.777 38.3721 247.585 38.1758 247.339 38.0355C247.101 37.8883 246.824 37.8147 246.509 37.8147C246.193 37.8147 245.913 37.8883 245.667 38.0355C245.422 38.1758 245.229 38.3721 245.089 38.6244C244.949 38.8768 244.879 39.1642 244.879 39.4867C244.879 39.8162 244.949 40.1107 245.089 40.3701C245.229 40.6224 245.422 40.8222 245.667 40.9695C245.913 41.1167 246.193 41.1903 246.509 41.1903ZM252.812 42.1052C252.433 42.1052 252.09 42.028 251.781 41.8738C251.48 41.7126 251.238 41.4917 251.056 41.2113C250.873 40.9309 250.772 40.6119 250.751 40.2544V38.7506C250.772 38.3861 250.873 38.0671 251.056 37.7937C251.245 37.5133 251.49 37.2959 251.792 37.1417C252.1 36.9805 252.44 36.8998 252.812 36.8998C253.267 36.8998 253.678 37.0155 254.042 37.2469C254.414 37.4782 254.705 37.7902 254.915 38.1828C255.125 38.5754 255.23 39.017 255.23 39.5078C255.23 39.9985 255.125 40.4402 254.915 40.8327C254.705 41.2253 254.414 41.5373 254.042 41.7687C253.678 41.993 253.267 42.1052 252.812 42.1052ZM252.654 41.2113C252.97 41.2113 253.246 41.1377 253.485 40.9905C253.723 40.8433 253.912 40.6435 254.053 40.3911C254.193 40.1317 254.263 39.8337 254.263 39.4972C254.263 39.1677 254.193 38.8733 254.053 38.6139C253.912 38.3545 253.723 38.1547 253.485 38.0145C253.246 37.8673 252.973 37.7937 252.665 37.7937C252.349 37.7937 252.072 37.8673 251.834 38.0145C251.595 38.1547 251.41 38.3545 251.276 38.6139C251.143 38.8733 251.077 39.1713 251.077 39.5078C251.077 39.8373 251.14 40.1317 251.266 40.3911C251.399 40.6435 251.585 40.8433 251.823 40.9905C252.069 41.1377 252.346 41.2113 252.654 41.2113ZM250.183 44.0926V37.005H251.129V38.3195L250.95 39.5288L251.129 40.7486V44.0926H250.183ZM256.314 42V37.005H257.26V42H256.314ZM256.787 36.006C256.612 36.006 256.468 35.9499 256.356 35.8377C256.244 35.7186 256.188 35.5713 256.188 35.3961C256.188 35.2278 256.244 35.0876 256.356 34.9755C256.468 34.8563 256.612 34.7967 256.787 34.7967C256.962 34.7967 257.106 34.8563 257.218 34.9755C257.33 35.0876 257.386 35.2278 257.386 35.3961C257.386 35.5713 257.33 35.7186 257.218 35.8377C257.106 35.9499 256.962 36.006 256.787 36.006ZM260.937 42.1052C260.446 42.1052 260.001 41.9895 259.601 41.7581C259.209 41.5268 258.897 41.2148 258.666 40.8222C258.441 40.4226 258.329 39.981 258.329 39.4972C258.329 39.0065 258.441 38.5648 258.666 38.1723C258.897 37.7797 259.209 37.4712 259.601 37.2469C260.001 37.0155 260.446 36.8998 260.937 36.8998C261.323 36.8998 261.68 36.9735 262.01 37.1207C262.339 37.2609 262.623 37.4677 262.861 37.7411L262.23 38.3721C262.076 38.1898 261.887 38.0531 261.663 37.9619C261.445 37.8638 261.203 37.8147 260.937 37.8147C260.621 37.8147 260.341 37.8883 260.096 38.0355C259.85 38.1758 259.658 38.3721 259.517 38.6244C259.377 38.8768 259.307 39.1677 259.307 39.4972C259.307 39.8267 259.377 40.1177 259.517 40.3701C259.658 40.6224 259.85 40.8222 260.096 40.9695C260.341 41.1167 260.621 41.1903 260.937 41.1903C261.203 41.1903 261.445 41.1447 261.663 41.0536C261.887 40.9554 262.08 40.8152 262.241 40.6329L262.861 41.2639C262.63 41.5303 262.346 41.7371 262.01 41.8843C261.68 42.0315 261.323 42.1052 260.937 42.1052ZM268.269 42.1052C267.779 42.1052 267.337 41.9895 266.944 41.7581C266.552 41.5268 266.24 41.2148 266.008 40.8222C265.777 40.4226 265.661 39.9775 265.661 39.4867C265.661 39.003 265.777 38.5683 266.008 38.1828C266.24 37.7902 266.552 37.4782 266.944 37.2469C267.337 37.0155 267.779 36.8998 268.269 36.8998C268.753 36.8998 269.191 37.0155 269.584 37.2469C269.983 37.4712 270.299 37.7797 270.53 38.1723C270.761 38.5648 270.877 39.003 270.877 39.4867C270.877 39.9775 270.761 40.4226 270.53 40.8222C270.299 41.2148 269.983 41.5268 269.584 41.7581C269.191 41.9895 268.753 42.1052 268.269 42.1052ZM268.269 41.1903C268.585 41.1903 268.865 41.1167 269.111 40.9695C269.356 40.8222 269.549 40.6224 269.689 40.3701C269.829 40.1107 269.899 39.8162 269.899 39.4867C269.899 39.1642 269.826 38.8768 269.678 38.6244C269.538 38.3721 269.345 38.1758 269.1 38.0355C268.862 37.8883 268.585 37.8147 268.269 37.8147C267.954 37.8147 267.673 37.8883 267.428 38.0355C267.183 38.1758 266.99 38.3721 266.85 38.6244C266.709 38.8768 266.639 39.1642 266.639 39.4867C266.639 39.8162 266.709 40.1107 266.85 40.3701C266.99 40.6224 267.183 40.8222 267.428 40.9695C267.673 41.1167 267.954 41.1903 268.269 41.1903ZM272.505 42V36.2584C272.505 35.8868 272.585 35.5643 272.746 35.2909C272.908 35.0105 273.129 34.7897 273.409 34.6284C273.696 34.4672 274.029 34.3866 274.408 34.3866C274.695 34.3866 274.944 34.4356 275.155 34.5338C275.365 34.6319 275.558 34.7757 275.733 34.9649L275.112 35.5749C275.021 35.4767 274.92 35.4031 274.808 35.354C274.695 35.2979 274.559 35.2699 274.397 35.2699C274.096 35.2699 273.861 35.3575 273.693 35.5328C273.532 35.7081 273.451 35.9499 273.451 36.2584V42H272.505ZM271.274 37.8673V37.005H275.039V37.8673H271.274ZM278.945 42V34.9124H279.891V42H278.945ZM277.714 37.8673V37.005H281.121V37.8673H277.714ZM285.582 42V39.0871C285.582 38.7086 285.463 38.3966 285.224 38.1512C284.986 37.9059 284.678 37.7832 284.299 37.7832C284.047 37.7832 283.822 37.8393 283.626 37.9514C283.43 38.0636 283.275 38.2178 283.163 38.4141C283.051 38.6104 282.995 38.8347 282.995 39.0871L282.606 38.8663C282.606 38.4877 282.69 38.1512 282.858 37.8568C283.027 37.5623 283.261 37.331 283.563 37.1627C283.864 36.9875 284.204 36.8998 284.583 36.8998C284.961 36.8998 285.294 36.984 285.582 37.1522C285.876 37.3205 286.108 37.5553 286.276 37.8568C286.444 38.1582 286.528 38.5053 286.528 38.8978V42H285.582ZM282.049 42V34.4917H282.995V42H282.049ZM290.123 42.1052C289.625 42.1052 289.177 41.993 288.777 41.7687C288.377 41.5373 288.062 41.2253 287.831 40.8327C287.599 40.4402 287.484 39.995 287.484 39.4972C287.484 39.0065 287.596 38.5648 287.82 38.1723C288.052 37.7797 288.36 37.4712 288.746 37.2469C289.138 37.0155 289.576 36.8998 290.06 36.8998C290.523 36.8998 290.929 37.005 291.28 37.2153C291.637 37.4256 291.914 37.7166 292.111 38.0881C292.314 38.4597 292.416 38.8803 292.416 39.35C292.416 39.4201 292.412 39.4972 292.405 39.5814C292.398 39.6585 292.384 39.7496 292.363 39.8548H288.146V39.0661H291.858L291.511 39.3711C291.511 39.0345 291.452 38.7506 291.332 38.5193C291.213 38.2809 291.045 38.0986 290.828 37.9725C290.61 37.8393 290.347 37.7727 290.039 37.7727C289.717 37.7727 289.433 37.8428 289.187 37.983C288.942 38.1232 288.753 38.3195 288.619 38.5719C288.486 38.8242 288.42 39.1222 288.42 39.4657C288.42 39.8162 288.49 40.1247 288.63 40.3911C288.77 40.6505 288.97 40.8538 289.229 41.001C289.489 41.1412 289.787 41.2113 290.123 41.2113C290.404 41.2113 290.659 41.1622 290.891 41.0641C291.129 40.9659 291.332 40.8187 291.501 40.6224L292.111 41.2429C291.872 41.5233 291.578 41.7371 291.227 41.8843C290.884 42.0315 290.516 42.1052 290.123 42.1052ZM30.2819 58.1052C30.0015 58.1052 29.7351 58.0701 29.4827 58C29.2374 57.9229 29.0095 57.8177 28.7992 57.6845C28.5889 57.5443 28.4066 57.3796 28.2524 57.1903L28.8623 56.5804C29.0446 56.8047 29.2549 56.973 29.4932 57.0851C29.7316 57.1903 29.998 57.2429 30.2924 57.2429C30.5869 57.2429 30.8147 57.1938 30.976 57.0956C31.1372 56.9905 31.2178 56.8468 31.2178 56.6645C31.2178 56.4822 31.1512 56.342 31.018 56.2439C30.8918 56.1387 30.7271 56.0546 30.5238 55.9915C30.3205 55.9214 30.1032 55.8548 29.8718 55.7917C29.6475 55.7216 29.4337 55.6339 29.2303 55.5288C29.027 55.4236 28.8588 55.2799 28.7256 55.0976C28.5994 54.9154 28.5363 54.6735 28.5363 54.3721C28.5363 54.0706 28.6099 53.8112 28.7571 53.5939C28.9044 53.3695 29.1077 53.1978 29.3671 53.0786C29.6335 52.9594 29.9524 52.8998 30.324 52.8998C30.7166 52.8998 31.0636 52.9699 31.3651 53.1102C31.6735 53.2434 31.9259 53.4467 32.1222 53.7201L31.5123 54.33C31.3721 54.1477 31.1968 54.0075 30.9865 53.9094C30.7832 53.8112 30.5518 53.7621 30.2924 53.7621C30.019 53.7621 29.8087 53.8112 29.6615 53.9094C29.5213 54.0005 29.4512 54.1302 29.4512 54.2984C29.4512 54.4667 29.5143 54.5964 29.6405 54.6875C29.7667 54.7787 29.9314 54.8558 30.1347 54.9189C30.345 54.982 30.5623 55.0486 30.7867 55.1187C31.011 55.1818 31.2248 55.2694 31.4281 55.3816C31.6315 55.4937 31.7962 55.6445 31.9224 55.8337C32.0556 56.023 32.1222 56.2719 32.1222 56.5804C32.1222 57.0501 31.9539 57.4216 31.6174 57.695C31.2879 57.9685 30.8428 58.1052 30.2819 58.1052ZM35.4952 58.1052C34.9975 58.1052 34.5488 57.993 34.1492 57.7687C33.7496 57.5373 33.4341 57.2253 33.2028 56.8327C32.9714 56.4402 32.8557 55.995 32.8557 55.4972C32.8557 55.0065 32.9679 54.5648 33.1923 54.1723C33.4236 53.7797 33.7321 53.4712 34.1176 53.2469C34.5102 53.0155 34.9484 52.8998 35.4321 52.8998C35.8948 52.8998 36.3014 53.005 36.6519 53.2153C37.0095 53.4256 37.2864 53.7166 37.4827 54.0881C37.686 54.4597 37.7877 54.8803 37.7877 55.35C37.7877 55.4201 37.7841 55.4972 37.7771 55.5814C37.7701 55.6585 37.7561 55.7496 37.7351 55.8548H33.5182V55.0661H37.2303L36.8833 55.3711C36.8833 55.0345 36.8237 54.7506 36.7045 54.5193C36.5853 54.2809 36.4171 54.0986 36.1998 53.9725C35.9824 53.8393 35.7195 53.7727 35.4111 53.7727C35.0886 53.7727 34.8047 53.8428 34.5593 53.983C34.3139 54.1232 34.1247 54.3195 33.9915 54.5719C33.8583 54.8242 33.7917 55.1222 33.7917 55.4657C33.7917 55.8162 33.8618 56.1247 34.002 56.3911C34.1422 56.6505 34.342 56.8538 34.6014 57.001C34.8608 57.1412 35.1587 57.2113 35.4952 57.2113C35.7756 57.2113 36.0315 57.1622 36.2629 57.0641C36.5012 56.9659 36.7045 56.8187 36.8728 56.6224L37.4827 57.2429C37.2443 57.5233 36.9499 57.7371 36.5994 57.8843C36.2559 58.0315 35.8878 58.1052 35.4952 58.1052ZM40.4075 58.1052C40.1271 58.1052 39.8607 58.0701 39.6083 58C39.3629 57.9229 39.1351 57.8177 38.9248 57.6845C38.7144 57.5443 38.5322 57.3796 38.3779 57.1903L38.9878 56.5804C39.1701 56.8047 39.3804 56.973 39.6188 57.0851C39.8572 57.1903 40.1236 57.2429 40.418 57.2429C40.7124 57.2429 40.9403 57.1938 41.1015 57.0956C41.2628 56.9905 41.3434 56.8468 41.3434 56.6645C41.3434 56.4822 41.2768 56.342 41.1436 56.2439C41.0174 56.1387 40.8526 56.0546 40.6493 55.9915C40.446 55.9214 40.2287 55.8548 39.9974 55.7917C39.773 55.7216 39.5592 55.6339 39.3559 55.5288C39.1526 55.4236 38.9843 55.2799 38.8511 55.0976C38.725 54.9154 38.6619 54.6735 38.6619 54.3721C38.6619 54.0706 38.7355 53.8112 38.8827 53.5939C39.0299 53.3695 39.2332 53.1978 39.4926 53.0786C39.759 52.9594 40.078 52.8998 40.4495 52.8998C40.8421 52.8998 41.1892 52.9699 41.4906 53.1102C41.7991 53.2434 42.0514 53.4467 42.2477 53.7201L41.6378 54.33C41.4976 54.1477 41.3224 54.0075 41.112 53.9094C40.9087 53.8112 40.6774 53.7621 40.418 53.7621C40.1446 53.7621 39.9343 53.8112 39.787 53.9094C39.6468 54.0005 39.5767 54.1302 39.5767 54.2984C39.5767 54.4667 39.6398 54.5964 39.766 54.6875C39.8922 54.7787 40.057 54.8558 40.2603 54.9189C40.4706 54.982 40.6879 55.0486 40.9122 55.1187C41.1366 55.1818 41.3504 55.2694 41.5537 55.3816C41.757 55.4937 41.9218 55.6445 42.0479 55.8337C42.1811 56.023 42.2477 56.2719 42.2477 56.5804C42.2477 57.0501 42.0795 57.4216 41.743 57.695C41.4135 57.9685 40.9683 58.1052 40.4075 58.1052ZM44.8952 58.1052C44.6148 58.1052 44.3484 58.0701 44.096 58C43.8506 57.9229 43.6228 57.8177 43.4124 57.6845C43.2021 57.5443 43.0199 57.3796 42.8656 57.1903L43.4755 56.5804C43.6578 56.8047 43.8681 56.973 44.1065 57.0851C44.3448 57.1903 44.6112 57.2429 44.9057 57.2429C45.2001 57.2429 45.428 57.1938 45.5892 57.0956C45.7505 56.9905 45.8311 56.8468 45.8311 56.6645C45.8311 56.4822 45.7645 56.342 45.6313 56.2439C45.5051 56.1387 45.3403 56.0546 45.137 55.9915C44.9337 55.9214 44.7164 55.8548 44.4851 55.7917C44.2607 55.7216 44.0469 55.6339 43.8436 55.5288C43.6403 55.4236 43.472 55.2799 43.3388 55.0976C43.2126 54.9154 43.1496 54.6735 43.1496 54.3721C43.1496 54.0706 43.2232 53.8112 43.3704 53.5939C43.5176 53.3695 43.7209 53.1978 43.9803 53.0786C44.2467 52.9594 44.5657 52.8998 44.9372 52.8998C45.3298 52.8998 45.6768 52.9699 45.9783 53.1102C46.2868 53.2434 46.5391 53.4467 46.7354 53.7201L46.1255 54.33C45.9853 54.1477 45.81 54.0075 45.5997 53.9094C45.3964 53.8112 45.1651 53.7621 44.9057 53.7621C44.6323 53.7621 44.422 53.8112 44.2747 53.9094C44.1345 54.0005 44.0644 54.1302 44.0644 54.2984C44.0644 54.4667 44.1275 54.5964 44.2537 54.6875C44.3799 54.7787 44.5446 54.8558 44.748 54.9189C44.9583 54.982 45.1756 55.0486 45.3999 55.1187C45.6243 55.1818 45.8381 55.2694 46.0414 55.3816C46.2447 55.4937 46.4094 55.6445 46.5356 55.8337C46.6688 56.023 46.7354 56.2719 46.7354 56.5804C46.7354 57.0501 46.5672 57.4216 46.2307 57.695C45.9012 57.9685 45.456 58.1052 44.8952 58.1052ZM47.8055 58V53.005H48.7519V58H47.8055ZM48.2787 52.006C48.1034 52.006 47.9597 51.9499 47.8476 51.8377C47.7354 51.7186 47.6793 51.5713 47.6793 51.3961C47.6793 51.2278 47.7354 51.0876 47.8476 50.9755C47.9597 50.8563 48.1034 50.7967 48.2787 50.7967C48.454 50.7967 48.5977 50.8563 48.7099 50.9755C48.822 51.0876 48.8781 51.2278 48.8781 51.3961C48.8781 51.5713 48.822 51.7186 48.7099 51.8377C48.5977 51.9499 48.454 52.006 48.2787 52.006ZM52.4286 58.1052C51.9379 58.1052 51.4962 57.9895 51.1036 57.7581C50.711 57.5268 50.399 57.2148 50.1677 56.8222C49.9363 56.4226 49.8207 55.9775 49.8207 55.4867C49.8207 55.003 49.9363 54.5683 50.1677 54.1828C50.399 53.7902 50.711 53.4782 51.1036 53.2469C51.4962 53.0155 51.9379 52.8998 52.4286 52.8998C52.9123 52.8998 53.3505 53.0155 53.7431 53.2469C54.1427 53.4712 54.4581 53.7797 54.6895 54.1723C54.9208 54.5648 55.0365 55.003 55.0365 55.4867C55.0365 55.9775 54.9208 56.4226 54.6895 56.8222C54.4581 57.2148 54.1427 57.5268 53.7431 57.7581C53.3505 57.9895 52.9123 58.1052 52.4286 58.1052ZM52.4286 57.1903C52.7441 57.1903 53.0245 57.1167 53.2699 56.9695C53.5152 56.8222 53.708 56.6224 53.8482 56.3701C53.9884 56.1107 54.0585 55.8162 54.0585 55.4867C54.0585 55.1642 53.9849 54.8768 53.8377 54.6244C53.6975 54.3721 53.5047 54.1758 53.2593 54.0355C53.021 53.8883 52.7441 53.8147 52.4286 53.8147C52.1131 53.8147 51.8327 53.8883 51.5873 54.0355C51.342 54.1758 51.1492 54.3721 51.009 54.6244C50.8687 54.8768 50.7986 55.1642 50.7986 55.4867C50.7986 55.8162 50.8687 56.1107 51.009 56.3701C51.1492 56.6224 51.342 56.8222 51.5873 56.9695C51.8327 57.1167 52.1131 57.1903 52.4286 57.1903ZM59.6362 58V55.0871C59.6362 54.7086 59.517 54.3966 59.2786 54.1512C59.0403 53.9059 58.7318 53.7832 58.3532 53.7832C58.1009 53.7832 57.8765 53.8393 57.6802 53.9514C57.4839 54.0636 57.3297 54.2178 57.2175 54.4141C57.1054 54.6104 57.0493 54.8347 57.0493 55.0871L56.6602 54.8663C56.6602 54.4877 56.7443 54.1512 56.9126 53.8568C57.0808 53.5623 57.3157 53.331 57.6171 53.1627C57.9186 52.9875 58.2586 52.8998 58.6372 52.8998C59.0157 52.8998 59.3487 52.9945 59.6362 53.1838C59.9306 53.3731 60.162 53.6219 60.3302 53.9304C60.4985 54.2318 60.5826 54.5543 60.5826 54.8978V58H59.6362ZM56.1029 58V53.005H57.0493V58H56.1029ZM63.0943 59.0095V50.4917H63.8935V59.0095H63.0943ZM61.5485 59.0095V58.2524H63.5044V59.0095H61.5485ZM61.5485 51.2383V50.4917H63.5044V51.2383H61.5485ZM66.2479 58.1052C66.0516 58.1052 65.8869 58.0386 65.7537 57.9054C65.6275 57.7651 65.5644 57.6004 65.5644 57.4111C65.5644 57.2148 65.6275 57.0536 65.7537 56.9274C65.8869 56.7942 66.0516 56.7276 66.2479 56.7276C66.4442 56.7276 66.6054 56.7942 66.7316 56.9274C66.8648 57.0536 66.9314 57.2148 66.9314 57.4111C66.9314 57.6004 66.8648 57.7651 66.7316 57.9054C66.6054 58.0386 66.4442 58.1052 66.2479 58.1052ZM74.8714 58L72.4843 50.702H73.4728L75.3657 56.654H75.0817L76.943 50.702H77.6581L79.5194 56.654H79.246L81.1388 50.702H82.1168L79.7402 58H79.0357L77.1639 52.0586H77.4373L75.576 58H74.8714ZM84.7058 58.1052C84.2081 58.1052 83.7594 57.993 83.3598 57.7687C82.9602 57.5373 82.6447 57.2253 82.4134 56.8327C82.182 56.4402 82.0664 55.995 82.0664 55.4972C82.0664 55.0065 82.1785 54.5648 82.4029 54.1723C82.6342 53.7797 82.9427 53.4712 83.3283 53.2469C83.7208 53.0155 84.159 52.8998 84.6427 52.8998C85.1054 52.8998 85.512 53.005 85.8626 53.2153C86.2201 53.4256 86.497 53.7166 86.6933 54.0881C86.8966 54.4597 86.9983 54.8803 86.9983 55.35C86.9983 55.4201 86.9948 55.4972 86.9877 55.5814C86.9807 55.6585 86.9667 55.7496 86.9457 55.8548H82.7289V55.0661H86.4409L86.0939 55.3711C86.0939 55.0345 86.0343 54.7506 85.9151 54.5193C85.796 54.2809 85.6277 54.0986 85.4104 53.9725C85.1931 53.8393 84.9302 53.7727 84.6217 53.7727C84.2992 53.7727 84.0153 53.8428 83.7699 53.983C83.5245 54.1232 83.3353 54.3195 83.2021 54.5719C83.0689 54.8242 83.0023 55.1222 83.0023 55.4657C83.0023 55.8162 83.0724 56.1247 83.2126 56.3911C83.3528 56.6505 83.5526 56.8538 83.812 57.001C84.0714 57.1412 84.3693 57.2113 84.7058 57.2113C84.9862 57.2113 85.2421 57.1622 85.4735 57.0641C85.7118 56.9659 85.9151 56.8187 86.0834 56.6224L86.6933 57.2429C86.4549 57.5233 86.1605 57.7371 85.81 57.8843C85.4665 58.0315 85.0984 58.1052 84.7058 58.1052ZM88.2826 53.0576L88.0617 50.4917H89.1028L88.882 53.0576H88.2826ZM90.5256 58V50.4917H91.4721V58H90.5256ZM92.8568 58V50.4917H93.8032V58H92.8568ZM99.6572 58.1052C99.1665 58.1052 98.7213 57.9895 98.3217 57.7581C97.9291 57.5268 97.6171 57.2148 97.3858 56.8222C97.1615 56.4226 97.0493 55.981 97.0493 55.4972C97.0493 55.0065 97.1615 54.5648 97.3858 54.1723C97.6171 53.7797 97.9291 53.4712 98.3217 53.2469C98.7213 53.0155 99.1665 52.8998 99.6572 52.8998C100.043 52.8998 100.4 52.9735 100.73 53.1207C101.059 53.2609 101.343 53.4677 101.582 53.7411L100.951 54.3721C100.796 54.1898 100.607 54.0531 100.383 53.9619C100.165 53.8638 99.9236 53.8147 99.6572 53.8147C99.3417 53.8147 99.0613 53.8883 98.8159 54.0355C98.5706 54.1758 98.3778 54.3721 98.2376 54.6244C98.0974 54.8768 98.0273 55.1677 98.0273 55.4972C98.0273 55.8267 98.0974 56.1177 98.2376 56.3701C98.3778 56.6224 98.5706 56.8222 98.8159 56.9695C99.0613 57.1167 99.3417 57.1903 99.6572 57.1903C99.9236 57.1903 100.165 57.1447 100.383 57.0536C100.607 56.9554 100.8 56.8152 100.961 56.6329L101.582 57.2639C101.35 57.5303 101.066 57.7371 100.73 57.8843C100.4 58.0315 100.043 58.1052 99.6572 58.1052ZM104.699 58.1052C104.209 58.1052 103.767 57.9895 103.374 57.7581C102.982 57.5268 102.67 57.2148 102.439 56.8222C102.207 56.4226 102.092 55.9775 102.092 55.4867C102.092 55.003 102.207 54.5683 102.439 54.1828C102.67 53.7902 102.982 53.4782 103.374 53.2469C103.767 53.0155 104.209 52.8998 104.699 52.8998C105.183 52.8998 105.621 53.0155 106.014 53.2469C106.414 53.4712 106.729 53.7797 106.96 54.1723C107.192 54.5648 107.307 55.003 107.307 55.4867C107.307 55.9775 107.192 56.4226 106.96 56.8222C106.729 57.2148 106.414 57.5268 106.014 57.7581C105.621 57.9895 105.183 58.1052 104.699 58.1052ZM104.699 57.1903C105.015 57.1903 105.295 57.1167 105.541 56.9695C105.786 56.8222 105.979 56.6224 106.119 56.3701C106.259 56.1107 106.329 55.8162 106.329 55.4867C106.329 55.1642 106.256 54.8768 106.109 54.6244C105.968 54.3721 105.776 54.1758 105.53 54.0355C105.292 53.8883 105.015 53.8147 104.699 53.8147C104.384 53.8147 104.104 53.8883 103.858 54.0355C103.613 54.1758 103.42 54.3721 103.28 54.6244C103.14 54.8768 103.07 55.1642 103.07 55.4867C103.07 55.8162 103.14 56.1107 103.28 56.3701C103.42 56.6224 103.613 56.8222 103.858 56.9695C104.104 57.1167 104.384 57.1903 104.699 57.1903ZM109.893 58L107.6 53.005H108.652L110.492 57.2218H109.882L111.733 53.005H112.742L110.45 58H109.893ZM115.668 58.1052C115.17 58.1052 114.721 57.993 114.322 57.7687C113.922 57.5373 113.607 57.2253 113.375 56.8327C113.144 56.4402 113.028 55.995 113.028 55.4972C113.028 55.0065 113.141 54.5648 113.365 54.1723C113.596 53.7797 113.905 53.4712 114.29 53.2469C114.683 53.0155 115.121 52.8998 115.605 52.8998C116.067 52.8998 116.474 53.005 116.825 53.2153C117.182 53.4256 117.459 53.7166 117.655 54.0881C117.859 54.4597 117.96 54.8803 117.96 55.35C117.96 55.4201 117.957 55.4972 117.95 55.5814C117.943 55.6585 117.929 55.7496 117.908 55.8548H113.691V55.0661H117.403L117.056 55.3711C117.056 55.0345 116.996 54.7506 116.877 54.5193C116.758 54.2809 116.59 54.0986 116.372 53.9725C116.155 53.8393 115.892 53.7727 115.584 53.7727C115.261 53.7727 114.977 53.8428 114.732 53.983C114.487 54.1232 114.297 54.3195 114.164 54.5719C114.031 54.8242 113.964 55.1222 113.964 55.4657C113.964 55.8162 114.034 56.1247 114.175 56.3911C114.315 56.6505 114.515 56.8538 114.774 57.001C115.033 57.1412 115.331 57.2113 115.668 57.2113C115.948 57.2113 116.204 57.1622 116.435 57.0641C116.674 56.9659 116.877 56.8187 117.045 56.6224L117.655 57.2429C117.417 57.5233 117.123 57.7371 116.772 57.8843C116.428 58.0315 116.06 58.1052 115.668 58.1052ZM118.992 58V53.005H119.939V58H118.992ZM119.939 55.1502L119.581 54.9925C119.581 54.3545 119.728 53.8463 120.023 53.4677C120.317 53.0891 120.741 52.8998 121.295 52.8998C121.548 52.8998 121.775 52.9454 121.979 53.0365C122.182 53.1207 122.371 53.2644 122.547 53.4677L121.926 54.1092C121.821 53.997 121.705 53.9164 121.579 53.8673C121.453 53.8182 121.306 53.7937 121.137 53.7937C120.787 53.7937 120.499 53.9059 120.275 54.1302C120.051 54.3545 119.939 54.6945 119.939 55.1502ZM125.722 59.0095V50.4917H126.521V59.0095H125.722ZM126.111 59.0095V58.2524H128.067V59.0095H126.111ZM126.111 51.2383V50.4917H128.067V51.2383H126.111ZM131.767 58.1052C131.389 58.1052 131.045 58.028 130.737 57.8738C130.435 57.7126 130.193 57.4917 130.011 57.2113C129.829 56.9309 129.727 56.6119 129.706 56.2544V54.7506C129.727 54.3861 129.829 54.0671 130.011 53.7937C130.2 53.5133 130.446 53.2959 130.747 53.1417C131.056 52.9805 131.396 52.8998 131.767 52.8998C132.223 52.8998 132.633 53.0155 132.998 53.2469C133.369 53.4782 133.66 53.7902 133.87 54.1828C134.081 54.5754 134.186 55.017 134.186 55.5078C134.186 55.9985 134.081 56.4402 133.87 56.8327C133.66 57.2253 133.369 57.5373 132.998 57.7687C132.633 57.993 132.223 58.1052 131.767 58.1052ZM131.61 57.2113C131.925 57.2113 132.202 57.1377 132.44 56.9905C132.679 56.8433 132.868 56.6435 133.008 56.3911C133.148 56.1317 133.218 55.8337 133.218 55.4972C133.218 55.1677 133.148 54.8733 133.008 54.6139C132.868 54.3545 132.679 54.1547 132.44 54.0145C132.202 53.8673 131.928 53.7937 131.62 53.7937C131.305 53.7937 131.028 53.8673 130.789 54.0145C130.551 54.1547 130.365 54.3545 130.232 54.6139C130.099 54.8733 130.032 55.1713 130.032 55.5078C130.032 55.8373 130.095 56.1317 130.221 56.3911C130.355 56.6435 130.54 56.8433 130.779 56.9905C131.024 57.1377 131.301 57.2113 131.61 57.2113ZM129.138 58V50.4917H130.085V54.2248L129.906 55.4341L130.085 56.654V58H129.138ZM135.259 58V53.005H136.205V58H135.259ZM136.205 55.1502L135.848 54.9925C135.848 54.3545 135.995 53.8463 136.289 53.4677C136.584 53.0891 137.008 52.8998 137.562 52.8998C137.814 52.8998 138.042 52.9454 138.245 53.0365C138.449 53.1207 138.638 53.2644 138.813 53.4677L138.193 54.1092C138.088 53.997 137.972 53.9164 137.846 53.8673C137.72 53.8182 137.572 53.7937 137.404 53.7937C137.054 53.7937 136.766 53.9059 136.542 54.1302C136.317 54.3545 136.205 54.6945 136.205 55.1502ZM139.49 58V53.005H140.436V58H139.49ZM139.963 52.006C139.788 52.006 139.644 51.9499 139.532 51.8377C139.42 51.7186 139.364 51.5713 139.364 51.3961C139.364 51.2278 139.42 51.0876 139.532 50.9755C139.644 50.8563 139.788 50.7967 139.963 50.7967C140.139 50.7967 140.282 50.8563 140.394 50.9755C140.507 51.0876 140.563 51.2278 140.563 51.3961C140.563 51.5713 140.507 51.7186 140.394 51.8377C140.282 51.9499 140.139 52.006 139.963 52.006ZM144.145 58.1052C143.647 58.1052 143.198 57.993 142.799 57.7687C142.399 57.5373 142.084 57.2253 141.852 56.8327C141.621 56.4402 141.505 55.995 141.505 55.4972C141.505 55.0065 141.617 54.5648 141.842 54.1723C142.073 53.7797 142.382 53.4712 142.767 53.2469C143.16 53.0155 143.598 52.8998 144.082 52.8998C144.544 52.8998 144.951 53.005 145.301 53.2153C145.659 53.4256 145.936 53.7166 146.132 54.0881C146.335 54.4597 146.437 54.8803 146.437 55.35C146.437 55.4201 146.434 55.4972 146.427 55.5814C146.42 55.6585 146.406 55.7496 146.385 55.8548H142.168V55.0661H145.88L145.533 55.3711C145.533 55.0345 145.473 54.7506 145.354 54.5193C145.235 54.2809 145.067 54.0986 144.849 53.9725C144.632 53.8393 144.369 53.7727 144.061 53.7727C143.738 53.7727 143.454 53.8428 143.209 53.983C142.963 54.1232 142.774 54.3195 142.641 54.5719C142.508 54.8242 142.441 55.1222 142.441 55.4657C142.441 55.8162 142.511 56.1247 142.651 56.3911C142.792 56.6505 142.991 56.8538 143.251 57.001C143.51 57.1412 143.808 57.2113 144.145 57.2113C144.425 57.2113 144.681 57.1622 144.912 57.0641C145.151 56.9659 145.354 56.8187 145.522 56.6224L146.132 57.2429C145.894 57.5233 145.599 57.7371 145.249 57.8843C144.905 58.0315 144.537 58.1052 144.145 58.1052ZM148.03 58V52.2584C148.03 51.8868 148.111 51.5643 148.272 51.2909C148.433 51.0105 148.654 50.7897 148.934 50.6284C149.222 50.4672 149.555 50.3866 149.933 50.3866C150.221 50.3866 150.47 50.4356 150.68 50.5338C150.89 50.6319 151.083 50.7757 151.258 50.9649L150.638 51.5749C150.547 51.4767 150.445 51.4031 150.333 51.354C150.221 51.2979 150.084 51.2699 149.923 51.2699C149.621 51.2699 149.387 51.3575 149.218 51.5328C149.057 51.7081 148.977 51.9499 148.977 52.2584V58H148.03ZM146.8 53.8673V53.005H150.564V53.8673H146.8ZM153.703 58V53.005H154.649V58H153.703ZM157.078 58V54.982C157.078 54.6104 156.962 54.3195 156.731 54.1092C156.507 53.8918 156.223 53.7832 155.879 53.7832C155.648 53.7832 155.441 53.8322 155.259 53.9304C155.077 54.0285 154.929 54.1652 154.817 54.3405C154.705 54.5158 154.649 54.7261 154.649 54.9715L154.26 54.7822C154.26 54.4036 154.34 54.0741 154.502 53.7937C154.67 53.5133 154.898 53.2959 155.185 53.1417C155.473 52.9805 155.795 52.8998 156.153 52.8998C156.503 52.8998 156.819 52.977 157.099 53.1312C157.387 53.2854 157.611 53.5027 157.772 53.7832C157.94 54.0636 158.025 54.3966 158.025 54.7822V58H157.078ZM160.454 58V54.982C160.454 54.6104 160.338 54.3195 160.107 54.1092C159.882 53.8918 159.602 53.7832 159.265 53.7832C159.034 53.7832 158.824 53.8322 158.634 53.9304C158.452 54.0285 158.305 54.1652 158.193 54.3405C158.081 54.5158 158.025 54.7261 158.025 54.9715L157.488 54.7822C157.509 54.3966 157.611 54.0671 157.793 53.7937C157.982 53.5133 158.224 53.2959 158.519 53.1417C158.813 52.9805 159.136 52.8998 159.486 52.8998C159.851 52.8998 160.177 52.977 160.464 53.1312C160.752 53.2854 160.979 53.5027 161.148 53.7832C161.323 54.0636 161.411 54.4001 161.411 54.7927V58H160.454ZM165.012 58.1052C164.514 58.1052 164.066 57.993 163.666 57.7687C163.266 57.5373 162.951 57.2253 162.719 56.8327C162.488 56.4402 162.372 55.995 162.372 55.4972C162.372 55.0065 162.485 54.5648 162.709 54.1723C162.94 53.7797 163.249 53.4712 163.634 53.2469C164.027 53.0155 164.465 52.8998 164.949 52.8998C165.412 52.8998 165.818 53.005 166.169 53.2153C166.526 53.4256 166.803 53.7166 166.999 54.0881C167.203 54.4597 167.304 54.8803 167.304 55.35C167.304 55.4201 167.301 55.4972 167.294 55.5814C167.287 55.6585 167.273 55.7496 167.252 55.8548H163.035V55.0661H166.747L166.4 55.3711C166.4 55.0345 166.34 54.7506 166.221 54.5193C166.102 54.2809 165.934 54.0986 165.716 53.9725C165.499 53.8393 165.236 53.7727 164.928 53.7727C164.605 53.7727 164.321 53.8428 164.076 53.983C163.831 54.1232 163.641 54.3195 163.508 54.5719C163.375 54.8242 163.308 55.1222 163.308 55.4657C163.308 55.8162 163.378 56.1247 163.519 56.3911C163.659 56.6505 163.859 56.8538 164.118 57.001C164.377 57.1412 164.675 57.2113 165.012 57.2113C165.292 57.2113 165.548 57.1622 165.78 57.0641C166.018 56.9659 166.221 56.8187 166.39 56.6224L166.999 57.2429C166.761 57.5233 166.467 57.7371 166.116 57.8843C165.773 58.0315 165.405 58.1052 165.012 58.1052ZM171.87 58V55.0871C171.87 54.7086 171.75 54.3966 171.512 54.1512C171.274 53.9059 170.965 53.7832 170.587 53.7832C170.334 53.7832 170.11 53.8393 169.914 53.9514C169.717 54.0636 169.563 54.2178 169.451 54.4141C169.339 54.6104 169.283 54.8347 169.283 55.0871L168.894 54.8663C168.894 54.4877 168.978 54.1512 169.146 53.8568C169.314 53.5623 169.549 53.331 169.851 53.1627C170.152 52.9875 170.492 52.8998 170.871 52.8998C171.249 52.8998 171.582 52.9945 171.87 53.1838C172.164 53.3731 172.395 53.6219 172.564 53.9304C172.732 54.2318 172.816 54.5543 172.816 54.8978V58H171.87ZM168.336 58V53.005H169.283V58H168.336ZM174.803 58V50.9124H175.75V58H174.803ZM173.573 53.8673V53.005H176.98V53.8673H173.573ZM177.918 58V53.005H178.864V58H177.918ZM178.391 52.006C178.216 52.006 178.072 51.9499 177.96 51.8377C177.848 51.7186 177.792 51.5713 177.792 51.3961C177.792 51.2278 177.848 51.0876 177.96 50.9755C178.072 50.8563 178.216 50.7967 178.391 50.7967C178.566 50.7967 178.71 50.8563 178.822 50.9755C178.934 51.0876 178.99 51.2278 178.99 51.3961C178.99 51.5713 178.934 51.7186 178.822 51.8377C178.71 51.9499 178.566 52.006 178.391 52.006ZM182.541 58.1052C182.05 58.1052 181.609 57.9895 181.216 57.7581C180.823 57.5268 180.511 57.2148 180.28 56.8222C180.049 56.4226 179.933 55.9775 179.933 55.4867C179.933 55.003 180.049 54.5683 180.28 54.1828C180.511 53.7902 180.823 53.4782 181.216 53.2469C181.609 53.0155 182.05 52.8998 182.541 52.8998C183.025 52.8998 183.463 53.0155 183.855 53.2469C184.255 53.4712 184.57 53.7797 184.802 54.1723C185.033 54.5648 185.149 55.003 185.149 55.4867C185.149 55.9775 185.033 56.4226 184.802 56.8222C184.57 57.2148 184.255 57.5268 183.855 57.7581C183.463 57.9895 183.025 58.1052 182.541 58.1052ZM182.541 57.1903C182.856 57.1903 183.137 57.1167 183.382 56.9695C183.628 56.8222 183.82 56.6224 183.961 56.3701C184.101 56.1107 184.171 55.8162 184.171 55.4867C184.171 55.1642 184.097 54.8768 183.95 54.6244C183.81 54.3721 183.617 54.1758 183.372 54.0355C183.133 53.8883 182.856 53.8147 182.541 53.8147C182.225 53.8147 181.945 53.8883 181.7 54.0355C181.454 54.1758 181.262 54.3721 181.121 54.6244C180.981 54.8768 180.911 55.1642 180.911 55.4867C180.911 55.8162 180.981 56.1107 181.121 56.3701C181.262 56.6224 181.454 56.8222 181.7 56.9695C181.945 57.1167 182.225 57.1903 182.541 57.1903ZM189.749 58V55.0871C189.749 54.7086 189.629 54.3966 189.391 54.1512C189.153 53.9059 188.844 53.7832 188.466 53.7832C188.213 53.7832 187.989 53.8393 187.793 53.9514C187.596 54.0636 187.442 54.2178 187.33 54.4141C187.218 54.6104 187.162 54.8347 187.162 55.0871L186.773 54.8663C186.773 54.4877 186.857 54.1512 187.025 53.8568C187.193 53.5623 187.428 53.331 187.729 53.1627C188.031 52.9875 188.371 52.8998 188.75 52.8998C189.128 52.8998 189.461 52.9945 189.749 53.1838C190.043 53.3731 190.274 53.6219 190.443 53.9304C190.611 54.2318 190.695 54.5543 190.695 54.8978V58H189.749ZM186.215 58V53.005H187.162V58H186.215ZM196.446 58.1052C195.955 58.1052 195.513 57.9895 195.121 57.7581C194.728 57.5268 194.416 57.2148 194.185 56.8222C193.953 56.4226 193.838 55.9775 193.838 55.4867C193.838 55.003 193.953 54.5683 194.185 54.1828C194.416 53.7902 194.728 53.4782 195.121 53.2469C195.513 53.0155 195.955 52.8998 196.446 52.8998C196.929 52.8998 197.367 53.0155 197.76 53.2469C198.16 53.4712 198.475 53.7797 198.706 54.1723C198.938 54.5648 199.054 55.003 199.054 55.4867C199.054 55.9775 198.938 56.4226 198.706 56.8222C198.475 57.2148 198.16 57.5268 197.76 57.7581C197.367 57.9895 196.929 58.1052 196.446 58.1052ZM196.446 57.1903C196.761 57.1903 197.041 57.1167 197.287 56.9695C197.532 56.8222 197.725 56.6224 197.865 56.3701C198.005 56.1107 198.076 55.8162 198.076 55.4867C198.076 55.1642 198.002 54.8768 197.855 54.6244C197.715 54.3721 197.522 54.1758 197.276 54.0355C197.038 53.8883 196.761 53.8147 196.446 53.8147C196.13 53.8147 195.85 53.8883 195.604 54.0355C195.359 54.1758 195.166 54.3721 195.026 54.6244C194.886 54.8768 194.816 55.1642 194.816 55.4867C194.816 55.8162 194.886 56.1107 195.026 56.3701C195.166 56.6224 195.359 56.8222 195.604 56.9695C195.85 57.1167 196.13 57.1903 196.446 57.1903ZM200.681 58V52.2584C200.681 51.8868 200.762 51.5643 200.923 51.2909C201.084 51.0105 201.305 50.7897 201.585 50.6284C201.873 50.4672 202.206 50.3866 202.584 50.3866C202.872 50.3866 203.121 50.4356 203.331 50.5338C203.541 50.6319 203.734 50.7757 203.909 50.9649L203.289 51.5749C203.198 51.4767 203.096 51.4031 202.984 51.354C202.872 51.2979 202.735 51.2699 202.574 51.2699C202.272 51.2699 202.037 51.3575 201.869 51.5328C201.708 51.7081 201.627 51.9499 201.627 52.2584V58H200.681ZM199.451 53.8673V53.005H203.215V53.8673H199.451ZM209.55 58L207.216 55.4447L209.529 53.005H210.675L208.099 55.697L208.141 55.1502L210.77 58H209.55ZM206.353 58V50.4917H207.3V58H206.353ZM213.617 58.1052C213.119 58.1052 212.67 57.993 212.271 57.7687C211.871 57.5373 211.556 57.2253 211.324 56.8327C211.093 56.4402 210.977 55.995 210.977 55.4972C210.977 55.0065 211.089 54.5648 211.314 54.1723C211.545 53.7797 211.854 53.4712 212.239 53.2469C212.632 53.0155 213.07 52.8998 213.554 52.8998C214.016 52.8998 214.423 53.005 214.773 53.2153C215.131 53.4256 215.408 53.7166 215.604 54.0881C215.807 54.4597 215.909 54.8803 215.909 55.35C215.909 55.4201 215.906 55.4972 215.899 55.5814C215.892 55.6585 215.878 55.7496 215.857 55.8548H211.64V55.0661H215.352L215.005 55.3711C215.005 55.0345 214.945 54.7506 214.826 54.5193C214.707 54.2809 214.539 54.0986 214.321 53.9725C214.104 53.8393 213.841 53.7727 213.533 53.7727C213.21 53.7727 212.926 53.8428 212.681 53.983C212.435 54.1232 212.246 54.3195 212.113 54.5719C211.98 54.8242 211.913 55.1222 211.913 55.4657C211.913 55.8162 211.983 56.1247 212.123 56.3911C212.264 56.6505 212.463 56.8538 212.723 57.001C212.982 57.1412 213.28 57.2113 213.617 57.2113C213.897 57.2113 214.153 57.1622 214.384 57.0641C214.623 56.9659 214.826 56.8187 214.994 56.6224L215.604 57.2429C215.366 57.5233 215.071 57.7371 214.721 57.8843C214.377 58.0315 214.009 58.1052 213.617 58.1052ZM218.499 58.0421L216.333 53.005H217.385L218.994 56.9484H218.657L220.35 53.005H221.402L219.067 58.0421H218.499ZM217.069 60.0926L218.541 57.0746L219.067 58.0421L218.121 60.0926H217.069ZM227.077 58.1052C226.698 58.1052 226.355 58.028 226.046 57.8738C225.745 57.7126 225.503 57.4917 225.321 57.2113C225.138 56.9309 225.037 56.6119 225.016 56.2544V54.7506C225.037 54.3861 225.138 54.0671 225.321 53.7937C225.51 53.5133 225.755 53.2959 226.057 53.1417C226.365 52.9805 226.705 52.8998 227.077 52.8998C227.533 52.8998 227.943 53.0155 228.307 53.2469C228.679 53.4782 228.97 53.7902 229.18 54.1828C229.39 54.5754 229.495 55.017 229.495 55.5078C229.495 55.9985 229.39 56.4402 229.18 56.8327C228.97 57.2253 228.679 57.5373 228.307 57.7687C227.943 57.993 227.533 58.1052 227.077 58.1052ZM226.919 57.2113C227.235 57.2113 227.512 57.1377 227.75 56.9905C227.988 56.8433 228.178 56.6435 228.318 56.3911C228.458 56.1317 228.528 55.8337 228.528 55.4972C228.528 55.1677 228.458 54.8733 228.318 54.6139C228.178 54.3545 227.988 54.1547 227.75 54.0145C227.512 53.8673 227.238 53.7937 226.93 53.7937C226.614 53.7937 226.337 53.8673 226.099 54.0145C225.861 54.1547 225.675 54.3545 225.542 54.6139C225.408 54.8733 225.342 55.1713 225.342 55.5078C225.342 55.8373 225.405 56.1317 225.531 56.3911C225.664 56.6435 225.85 56.8433 226.088 56.9905C226.334 57.1377 226.611 57.2113 226.919 57.2113ZM224.448 60.0926V53.005H225.394V54.3195L225.216 55.5288L225.394 56.7486V60.0926H224.448ZM232.85 58.1052C232.36 58.1052 231.918 57.9895 231.525 57.7581C231.133 57.5268 230.821 57.2148 230.589 56.8222C230.358 56.4226 230.242 55.9775 230.242 55.4867C230.242 55.003 230.358 54.5683 230.589 54.1828C230.821 53.7902 231.133 53.4782 231.525 53.2469C231.918 53.0155 232.36 52.8998 232.85 52.8998C233.334 52.8998 233.772 53.0155 234.165 53.2469C234.564 53.4712 234.88 53.7797 235.111 54.1723C235.343 54.5648 235.458 55.003 235.458 55.4867C235.458 55.9775 235.343 56.4226 235.111 56.8222C234.88 57.2148 234.564 57.5268 234.165 57.7581C233.772 57.9895 233.334 58.1052 232.85 58.1052ZM232.85 57.1903C233.166 57.1903 233.446 57.1167 233.692 56.9695C233.937 56.8222 234.13 56.6224 234.27 56.3701C234.41 56.1107 234.48 55.8162 234.48 55.4867C234.48 55.1642 234.407 54.8768 234.259 54.6244C234.119 54.3721 233.926 54.1758 233.681 54.0355C233.443 53.8883 233.166 53.8147 232.85 53.8147C232.535 53.8147 232.254 53.8883 232.009 54.0355C231.764 54.1758 231.571 54.3721 231.431 54.6244C231.291 54.8768 231.22 55.1642 231.22 55.4867C231.22 55.8162 231.291 56.1107 231.431 56.3701C231.571 56.6224 231.764 56.8222 232.009 56.9695C232.254 57.1167 232.535 57.1903 232.85 57.1903ZM236.535 58V53.005H237.482V58H236.535ZM237.008 52.006C236.833 52.006 236.689 51.9499 236.577 51.8377C236.465 51.7186 236.409 51.5713 236.409 51.3961C236.409 51.2278 236.465 51.0876 236.577 50.9755C236.689 50.8563 236.833 50.7967 237.008 50.7967C237.184 50.7967 237.327 50.8563 237.44 50.9755C237.552 51.0876 237.608 51.2278 237.608 51.3961C237.608 51.5713 237.552 51.7186 237.44 51.8377C237.327 51.9499 237.184 52.006 237.008 52.006ZM242.41 58V55.0871C242.41 54.7086 242.29 54.3966 242.052 54.1512C241.814 53.9059 241.505 53.7832 241.127 53.7832C240.874 53.7832 240.65 53.8393 240.454 53.9514C240.257 54.0636 240.103 54.2178 239.991 54.4141C239.879 54.6104 239.823 54.8347 239.823 55.0871L239.434 54.8663C239.434 54.4877 239.518 54.1512 239.686 53.8568C239.854 53.5623 240.089 53.331 240.391 53.1627C240.692 52.9875 241.032 52.8998 241.411 52.8998C241.789 52.8998 242.122 52.9945 242.41 53.1838C242.704 53.3731 242.935 53.6219 243.104 53.9304C243.272 54.2318 243.356 54.5543 243.356 54.8978V58H242.41ZM238.876 58V53.005H239.823V58H238.876ZM245.343 58V50.9124H246.29V58H245.343ZM244.113 53.8673V53.005H247.52V53.8673H244.113ZM249.933 58.1052C249.652 58.1052 249.386 58.0701 249.133 58C248.888 57.9229 248.66 57.8177 248.45 57.6845C248.239 57.5443 248.057 57.3796 247.903 57.1903L248.513 56.5804C248.695 56.8047 248.905 56.973 249.144 57.0851C249.382 57.1903 249.649 57.2429 249.943 57.2429C250.237 57.2429 250.465 57.1938 250.627 57.0956C250.788 56.9905 250.868 56.8468 250.868 56.6645C250.868 56.4822 250.802 56.342 250.669 56.2439C250.542 56.1387 250.378 56.0546 250.174 55.9915C249.971 55.9214 249.754 55.8548 249.522 55.7917C249.298 55.7216 249.084 55.6339 248.881 55.5288C248.678 55.4236 248.509 55.2799 248.376 55.0976C248.25 54.9154 248.187 54.6735 248.187 54.3721C248.187 54.0706 248.261 53.8112 248.408 53.5939C248.555 53.3695 248.758 53.1978 249.018 53.0786C249.284 52.9594 249.603 52.8998 249.975 52.8998C250.367 52.8998 250.714 52.9699 251.016 53.1102C251.324 53.2434 251.576 53.4467 251.773 53.7201L251.163 54.33C251.023 54.1477 250.847 54.0075 250.637 53.9094C250.434 53.8112 250.202 53.7621 249.943 53.7621C249.67 53.7621 249.459 53.8112 249.312 53.9094C249.172 54.0005 249.102 54.1302 249.102 54.2984C249.102 54.4667 249.165 54.5964 249.291 54.6875C249.417 54.7787 249.582 54.8558 249.785 54.9189C249.996 54.982 250.213 55.0486 250.437 55.1187C250.662 55.1818 250.875 55.2694 251.079 55.3816C251.282 55.4937 251.447 55.6445 251.573 55.8337C251.706 56.023 251.773 56.2719 251.773 56.5804C251.773 57.0501 251.605 57.4216 251.268 57.695C250.939 57.9685 250.493 58.1052 249.933 58.1052ZM255.787 58V50.9124H256.734V58H255.787ZM254.557 53.8673V53.005H257.964V53.8673H254.557ZM261.019 58.1052C260.528 58.1052 260.087 57.9895 259.694 57.7581C259.302 57.5268 258.99 57.2148 258.758 56.8222C258.527 56.4226 258.411 55.9775 258.411 55.4867C258.411 55.003 258.527 54.5683 258.758 54.1828C258.99 53.7902 259.302 53.4782 259.694 53.2469C260.087 53.0155 260.528 52.8998 261.019 52.8998C261.503 52.8998 261.941 53.0155 262.334 53.2469C262.733 53.4712 263.049 53.7797 263.28 54.1723C263.511 54.5648 263.627 55.003 263.627 55.4867C263.627 55.9775 263.511 56.4226 263.28 56.8222C263.049 57.2148 262.733 57.5268 262.334 57.7581C261.941 57.9895 261.503 58.1052 261.019 58.1052ZM261.019 57.1903C261.335 57.1903 261.615 57.1167 261.86 56.9695C262.106 56.8222 262.299 56.6224 262.439 56.3701C262.579 56.1107 262.649 55.8162 262.649 55.4867C262.649 55.1642 262.575 54.8768 262.428 54.6244C262.288 54.3721 262.095 54.1758 261.85 54.0355C261.612 53.8883 261.335 53.8147 261.019 53.8147C260.704 53.8147 260.423 53.8883 260.178 54.0355C259.932 54.1758 259.74 54.3721 259.599 54.6244C259.459 54.8768 259.389 55.1642 259.389 55.4867C259.389 55.8162 259.459 56.1107 259.599 56.3701C259.74 56.6224 259.932 56.8222 260.178 56.9695C260.423 57.1167 260.704 57.1903 261.019 57.1903ZM269.51 58.1052C269.131 58.1052 268.788 58.028 268.479 57.8738C268.178 57.7126 267.936 57.4917 267.754 57.2113C267.571 56.9309 267.47 56.6119 267.449 56.2544V54.7506C267.47 54.3861 267.571 54.0671 267.754 53.7937C267.943 53.5133 268.188 53.2959 268.49 53.1417C268.798 52.9805 269.138 52.8998 269.51 52.8998C269.965 52.8998 270.376 53.0155 270.74 53.2469C271.112 53.4782 271.403 53.7902 271.613 54.1828C271.823 54.5754 271.928 55.017 271.928 55.5078C271.928 55.9985 271.823 56.4402 271.613 56.8327C271.403 57.2253 271.112 57.5373 270.74 57.7687C270.376 57.993 269.965 58.1052 269.51 58.1052ZM269.352 57.2113C269.667 57.2113 269.944 57.1377 270.183 56.9905C270.421 56.8433 270.61 56.6435 270.751 56.3911C270.891 56.1317 270.961 55.8337 270.961 55.4972C270.961 55.1677 270.891 54.8733 270.751 54.6139C270.61 54.3545 270.421 54.1547 270.183 54.0145C269.944 53.8673 269.671 53.7937 269.362 53.7937C269.047 53.7937 268.77 53.8673 268.532 54.0145C268.293 54.1547 268.108 54.3545 267.974 54.6139C267.841 54.8733 267.775 55.1713 267.775 55.5078C267.775 55.8373 267.838 56.1317 267.964 56.3911C268.097 56.6435 268.283 56.8433 268.521 56.9905C268.767 57.1377 269.044 57.2113 269.352 57.2113ZM266.881 58V50.4917H267.827V54.2248L267.648 55.4341L267.827 56.654V58H266.881ZM275.315 58.1052C274.817 58.1052 274.368 57.993 273.969 57.7687C273.569 57.5373 273.254 57.2253 273.022 56.8327C272.791 56.4402 272.675 55.995 272.675 55.4972C272.675 55.0065 272.787 54.5648 273.012 54.1723C273.243 53.7797 273.552 53.4712 273.937 53.2469C274.33 53.0155 274.768 52.8998 275.252 52.8998C275.714 52.8998 276.121 53.005 276.472 53.2153C276.829 53.4256 277.106 53.7166 277.302 54.0881C277.506 54.4597 277.607 54.8803 277.607 55.35C277.607 55.4201 277.604 55.4972 277.597 55.5814C277.59 55.6585 277.576 55.7496 277.555 55.8548H273.338V55.0661H277.05L276.703 55.3711C276.703 55.0345 276.643 54.7506 276.524 54.5193C276.405 54.2809 276.237 54.0986 276.019 53.9725C275.802 53.8393 275.539 53.7727 275.231 53.7727C274.908 53.7727 274.624 53.8428 274.379 53.983C274.133 54.1232 273.944 54.3195 273.811 54.5719C273.678 54.8242 273.611 55.1222 273.611 55.4657C273.611 55.8162 273.681 56.1247 273.822 56.3911C273.962 56.6505 274.162 56.8538 274.421 57.001C274.68 57.1412 274.978 57.2113 275.315 57.2113C275.595 57.2113 275.851 57.1622 276.082 57.0641C276.321 56.9659 276.524 56.8187 276.692 56.6224L277.302 57.2429C277.064 57.5233 276.769 57.7371 276.419 57.8843C276.075 58.0315 275.707 58.1052 275.315 58.1052ZM30.8077 74.1052C30.345 74.1052 29.9314 73.993 29.5669 73.7687C29.2023 73.5373 28.9114 73.2253 28.694 72.8327C28.4837 72.4402 28.3786 71.9985 28.3786 71.5078C28.3786 71.017 28.4837 70.5754 28.694 70.1828C28.9114 69.7902 29.2023 69.4782 29.5669 69.2469C29.9314 69.0155 30.345 68.8998 30.8077 68.8998C31.1793 68.8998 31.5158 68.9805 31.8172 69.1417C32.1187 69.2959 32.3605 69.5133 32.5428 69.7937C32.7321 70.0671 32.8373 70.3861 32.8583 70.7506V72.2544C32.8373 72.6119 32.7356 72.9309 32.5533 73.2113C32.3711 73.4917 32.1292 73.7126 31.8277 73.8738C31.5263 74.028 31.1863 74.1052 30.8077 74.1052ZM30.9655 73.2113C31.2809 73.2113 31.5543 73.1377 31.7857 72.9905C32.024 72.8433 32.2098 72.6435 32.343 72.3911C32.4762 72.1317 32.5428 71.8373 32.5428 71.5078C32.5428 71.1642 32.4727 70.8663 32.3325 70.6139C32.1993 70.3615 32.0135 70.1617 31.7752 70.0145C31.5438 69.8673 31.2704 69.7937 30.9549 69.7937C30.6395 69.7937 30.3625 69.8673 30.1242 70.0145C29.8858 70.1617 29.6965 70.365 29.5563 70.6244C29.4231 70.8768 29.3565 71.1677 29.3565 71.4972C29.3565 71.8337 29.4231 72.1317 29.5563 72.3911C29.6965 72.6435 29.8858 72.8433 30.1242 72.9905C30.3696 73.1377 30.65 73.2113 30.9655 73.2113ZM33.4367 74H32.4797V72.654L32.6585 71.4341L32.4797 70.2248V66.4917H33.4367V74ZM34.8251 74V69.005H35.7715V74H34.8251ZM35.2983 68.006C35.123 68.006 34.9793 67.9499 34.8671 67.8377C34.755 67.7186 34.6989 67.5713 34.6989 67.3961C34.6989 67.2278 34.755 67.0876 34.8671 66.9755C34.9793 66.8563 35.123 66.7967 35.2983 66.7967C35.4735 66.7967 35.6173 66.8563 35.7294 66.9755C35.8416 67.0876 35.8977 67.2278 35.8977 67.3961C35.8977 67.5713 35.8416 67.7186 35.7294 67.8377C35.6173 67.9499 35.4735 68.006 35.2983 68.006ZM38.7541 74.1052C38.4737 74.1052 38.2073 74.0701 37.9549 74C37.7096 73.9229 37.4817 73.8177 37.2714 73.6845C37.0611 73.5443 36.8788 73.3796 36.7246 73.1903L37.3345 72.5804C37.5168 72.8047 37.7271 72.973 37.9654 73.0851C38.2038 73.1903 38.4702 73.2429 38.7646 73.2429C39.0591 73.2429 39.2869 73.1938 39.4482 73.0956C39.6094 72.9905 39.69 72.8468 39.69 72.6645C39.69 72.4822 39.6234 72.342 39.4902 72.2439C39.364 72.1387 39.1993 72.0546 38.996 71.9915C38.7927 71.9214 38.5754 71.8548 38.344 71.7917C38.1197 71.7216 37.9058 71.6339 37.7025 71.5288C37.4992 71.4236 37.331 71.2799 37.1978 71.0976C37.0716 70.9154 37.0085 70.6735 37.0085 70.3721C37.0085 70.0706 37.0821 69.8112 37.2293 69.5939C37.3766 69.3695 37.5799 69.1978 37.8392 69.0786C38.1056 68.9594 38.4246 68.8998 38.7962 68.8998C39.1888 68.8998 39.5358 68.9699 39.8372 69.1102C40.1457 69.2434 40.3981 69.4467 40.5944 69.7201L39.9845 70.33C39.8443 70.1477 39.669 70.0075 39.4587 69.9094C39.2554 69.8112 39.024 69.7621 38.7646 69.7621C38.4912 69.7621 38.2809 69.8112 38.1337 69.9094C37.9935 70.0005 37.9234 70.1302 37.9234 70.2984C37.9234 70.4667 37.9865 70.5964 38.1127 70.6875C38.2388 70.7787 38.4036 70.8558 38.6069 70.9189C38.8172 70.982 39.0345 71.0486 39.2589 71.1187C39.4832 71.1818 39.697 71.2694 39.9003 71.3816C40.1036 71.4937 40.2684 71.6445 40.3946 71.8337C40.5278 72.023 40.5944 72.2719 40.5944 72.5804C40.5944 73.0501 40.4261 73.4216 40.0896 73.695C39.7601 73.9685 39.315 74.1052 38.7541 74.1052ZM43.9359 74.1052C43.4451 74.1052 43 73.9895 42.6004 73.7581C42.2078 73.5268 41.8958 73.2148 41.6644 72.8222C41.4401 72.4226 41.3279 71.981 41.3279 71.4972C41.3279 71.0065 41.4401 70.5648 41.6644 70.1723C41.8958 69.7797 42.2078 69.4712 42.6004 69.2469C43 69.0155 43.4451 68.8998 43.9359 68.8998C44.3214 68.8998 44.679 68.9735 45.0085 69.1207C45.338 69.2609 45.6219 69.4677 45.8602 69.7411L45.2293 70.3721C45.0751 70.1898 44.8858 70.0531 44.6614 69.9619C44.4441 69.8638 44.2023 69.8147 43.9359 69.8147C43.6204 69.8147 43.34 69.8883 43.0946 70.0355C42.8492 70.1758 42.6564 70.3721 42.5162 70.6244C42.376 70.8768 42.3059 71.1677 42.3059 71.4972C42.3059 71.8267 42.376 72.1177 42.5162 72.3701C42.6564 72.6224 42.8492 72.8222 43.0946 72.9695C43.34 73.1167 43.6204 73.1903 43.9359 73.1903C44.2023 73.1903 44.4441 73.1447 44.6614 73.0536C44.8858 72.9554 45.0786 72.8152 45.2398 72.6329L45.8602 73.2639C45.6289 73.5303 45.345 73.7371 45.0085 73.8843C44.679 74.0315 44.3214 74.1052 43.9359 74.1052ZM48.8074 74.1052C48.4008 74.1052 48.0327 74.014 47.7032 73.8317C47.3807 73.6425 47.1284 73.3831 46.9461 73.0536C46.7638 72.7241 46.6727 72.342 46.6727 71.9074V69.005H47.6191V71.8653C47.6191 72.1387 47.6647 72.3771 47.7558 72.5804C47.8539 72.7767 47.9942 72.9274 48.1764 73.0325C48.3587 73.1377 48.5725 73.1903 48.8179 73.1903C49.1895 73.1903 49.4804 73.0746 49.6907 72.8433C49.901 72.6049 50.0062 72.2789 50.0062 71.8653V69.005H50.9526V71.9074C50.9526 72.342 50.8615 72.7241 50.6792 73.0536C50.4969 73.3831 50.2445 73.6425 49.9221 73.8317C49.6066 74.014 49.235 74.1052 48.8074 74.1052ZM53.8089 74.1052C53.5285 74.1052 53.2621 74.0701 53.0097 74C52.7644 73.9229 52.5365 73.8177 52.3262 73.6845C52.1159 73.5443 51.9336 73.3796 51.7794 73.1903L52.3893 72.5804C52.5716 72.8047 52.7819 72.973 53.0203 73.0851C53.2586 73.1903 53.525 73.2429 53.8195 73.2429C54.1139 73.2429 54.3417 73.1938 54.503 73.0956C54.6642 72.9905 54.7449 72.8468 54.7449 72.6645C54.7449 72.4822 54.6783 72.342 54.5451 72.2439C54.4189 72.1387 54.2541 72.0546 54.0508 71.9915C53.8475 71.9214 53.6302 71.8548 53.3988 71.7917C53.1745 71.7216 52.9607 71.6339 52.7574 71.5288C52.5541 71.4236 52.3858 71.2799 52.2526 71.0976C52.1264 70.9154 52.0633 70.6735 52.0633 70.3721C52.0633 70.0706 52.1369 69.8112 52.2842 69.5939C52.4314 69.3695 52.6347 69.1978 52.8941 69.0786C53.1605 68.9594 53.4795 68.8998 53.851 68.8998C54.2436 68.8998 54.5906 68.9699 54.8921 69.1102C55.2005 69.2434 55.4529 69.4467 55.6492 69.7201L55.0393 70.33C54.8991 70.1477 54.7238 70.0075 54.5135 69.9094C54.3102 69.8112 54.0789 69.7621 53.8195 69.7621C53.5461 69.7621 53.3357 69.8112 53.1885 69.9094C53.0483 70.0005 52.9782 70.1302 52.9782 70.2984C52.9782 70.4667 53.0413 70.5964 53.1675 70.6875C53.2937 70.7787 53.4584 70.8558 53.6617 70.9189C53.872 70.982 54.0894 71.0486 54.3137 71.1187C54.538 71.1818 54.7519 71.2694 54.9552 71.3816C55.1585 71.4937 55.3232 71.6445 55.4494 71.8337C55.5826 72.023 55.6492 72.2719 55.6492 72.5804C55.6492 73.0501 55.481 73.4216 55.1445 73.695C54.815 73.9685 54.3698 74.1052 53.8089 74.1052ZM58.2966 74.1052C58.0162 74.1052 57.7498 74.0701 57.4974 74C57.2521 73.9229 57.0242 73.8177 56.8139 73.6845C56.6036 73.5443 56.4213 73.3796 56.2671 73.1903L56.877 72.5804C57.0593 72.8047 57.2696 72.973 57.508 73.0851C57.7463 73.1903 58.0127 73.2429 58.3072 73.2429C58.6016 73.2429 58.8294 73.1938 58.9907 73.0956C59.1519 72.9905 59.2326 72.8468 59.2326 72.6645C59.2326 72.4822 59.166 72.342 59.0328 72.2439C58.9066 72.1387 58.7418 72.0546 58.5385 71.9915C58.3352 71.9214 58.1179 71.8548 57.8865 71.7917C57.6622 71.7216 57.4484 71.6339 57.2451 71.5288C57.0418 71.4236 56.8735 71.2799 56.7403 71.0976C56.6141 70.9154 56.551 70.6735 56.551 70.3721C56.551 70.0706 56.6246 69.8112 56.7719 69.5939C56.9191 69.3695 57.1224 69.1978 57.3818 69.0786C57.6482 68.9594 57.9672 68.8998 58.3387 68.8998C58.7313 68.8998 59.0783 68.9699 59.3798 69.1102C59.6882 69.2434 59.9406 69.4467 60.1369 69.7201L59.527 70.33C59.3868 70.1477 59.2115 70.0075 59.0012 69.9094C58.7979 69.8112 58.5666 69.7621 58.3072 69.7621C58.0338 69.7621 57.8234 69.8112 57.6762 69.9094C57.536 70.0005 57.4659 70.1302 57.4659 70.2984C57.4659 70.4667 57.529 70.5964 57.6552 70.6875C57.7814 70.7787 57.9461 70.8558 58.1494 70.9189C58.3597 70.982 58.5771 71.0486 58.8014 71.1187C59.0257 71.1818 59.2396 71.2694 59.4429 71.3816C59.6462 71.4937 59.8109 71.6445 59.9371 71.8337C60.0703 72.023 60.1369 72.2719 60.1369 72.5804C60.1369 73.0501 59.9687 73.4216 59.6322 73.695C59.3027 73.9685 58.8575 74.1052 58.2966 74.1052ZM63.5099 74.1052C63.0122 74.1052 62.5635 73.993 62.1639 73.7687C61.7643 73.5373 61.4488 73.2253 61.2175 72.8327C60.9861 72.4402 60.8705 71.995 60.8705 71.4972C60.8705 71.0065 60.9826 70.5648 61.207 70.1723C61.4383 69.7797 61.7468 69.4712 62.1324 69.2469C62.525 69.0155 62.9631 68.8998 63.4468 68.8998C63.9095 68.8998 64.3161 69.005 64.6667 69.2153C65.0242 69.4256 65.3011 69.7166 65.4974 70.0881C65.7007 70.4597 65.8024 70.8803 65.8024 71.35C65.8024 71.4201 65.7989 71.4972 65.7919 71.5814C65.7848 71.6585 65.7708 71.7496 65.7498 71.8548H61.533V71.0661H65.245L64.898 71.3711C64.898 71.0345 64.8384 70.7506 64.7192 70.5193C64.6001 70.2809 64.4318 70.0986 64.2145 69.9725C63.9972 69.8393 63.7343 69.7727 63.4258 69.7727C63.1033 69.7727 62.8194 69.8428 62.574 69.983C62.3287 70.1232 62.1394 70.3195 62.0062 70.5719C61.873 70.8242 61.8064 71.1222 61.8064 71.4657C61.8064 71.8162 61.8765 72.1247 62.0167 72.3911C62.1569 72.6505 62.3567 72.8538 62.6161 73.001C62.8755 73.1412 63.1734 73.2113 63.5099 73.2113C63.7904 73.2113 64.0462 73.1622 64.2776 73.0641C64.5159 72.9659 64.7192 72.8187 64.8875 72.6224L65.4974 73.2429C65.2591 73.5233 64.9646 73.7371 64.6141 73.8843C64.2706 74.0315 63.9025 74.1052 63.5099 74.1052ZM68.948 74.1052C68.4853 74.1052 68.0717 73.993 67.7071 73.7687C67.3426 73.5373 67.0516 73.2253 66.8343 72.8327C66.624 72.4402 66.5188 71.9985 66.5188 71.5078C66.5188 71.017 66.624 70.5754 66.8343 70.1828C67.0516 69.7902 67.3426 69.4782 67.7071 69.2469C68.0717 69.0155 68.4853 68.8998 68.948 68.8998C69.3195 68.8998 69.6561 68.9805 69.9575 69.1417C70.259 69.2959 70.5008 69.5133 70.6831 69.7937C70.8724 70.0671 70.9775 70.3861 70.9986 70.7506V72.2544C70.9775 72.6119 70.8759 72.9309 70.6936 73.2113C70.5113 73.4917 70.2695 73.7126 69.968 73.8738C69.6666 74.028 69.3266 74.1052 68.948 74.1052ZM69.1057 73.2113C69.4212 73.2113 69.6946 73.1377 69.926 72.9905C70.1643 72.8433 70.3501 72.6435 70.4833 72.3911C70.6165 72.1317 70.6831 71.8373 70.6831 71.5078C70.6831 71.1642 70.613 70.8663 70.4728 70.6139C70.3396 70.3615 70.1538 70.1617 69.9154 70.0145C69.6841 69.8673 69.4107 69.7937 69.0952 69.7937C68.7797 69.7937 68.5028 69.8673 68.2645 70.0145C68.0261 70.1617 67.8368 70.365 67.6966 70.6244C67.5634 70.8768 67.4968 71.1677 67.4968 71.4972C67.4968 71.8337 67.5634 72.1317 67.6966 72.3911C67.8368 72.6435 68.0261 72.8433 68.2645 72.9905C68.5098 73.1377 68.7903 73.2113 69.1057 73.2113ZM71.5769 74H70.62V72.654L70.7988 71.4341L70.62 70.2248V66.4917H71.5769V74ZM74.1852 75.0095V66.4917H74.9844V75.0095H74.1852ZM72.6394 75.0095V74.2524H74.5953V75.0095H72.6394ZM72.6394 67.2383V66.4917H74.5953V67.2383H72.6394ZM77.3388 74.1052C77.1425 74.1052 76.9777 74.0386 76.8445 73.9054C76.7183 73.7651 76.6552 73.6004 76.6552 73.4111C76.6552 73.2148 76.7183 73.0536 76.8445 72.9274C76.9777 72.7942 77.1425 72.7276 77.3388 72.7276C77.5351 72.7276 77.6963 72.7942 77.8225 72.9274C77.9557 73.0536 78.0223 73.2148 78.0223 73.4111C78.0223 73.6004 77.9557 73.7651 77.8225 73.9054C77.6963 74.0386 77.5351 74.1052 77.3388 74.1052Z" fill="black"/>
<rect x="25.9492" y="113.661" width="137.034" height="40.3391" rx="20.1695" fill="#F1F1F1"/>
<path d="M54.9424 132.75C54.9424 132.963 54.879 133.172 54.7603 133.35C54.6416 133.528 54.4728 133.666 54.2754 133.748C54.0779 133.83 53.8607 133.851 53.6511 133.81C53.4415 133.768 53.2489 133.665 53.0978 133.514C52.9467 133.363 52.8438 133.17 52.8021 132.961C52.7604 132.751 52.7818 132.534 52.8636 132.336C52.9454 132.139 53.0839 131.97 53.2616 131.851C53.4393 131.733 53.6482 131.669 53.8619 131.669C54.1484 131.669 54.4233 131.783 54.6259 131.986C54.8285 132.188 54.9424 132.463 54.9424 132.75ZM65.2072 129.508V138.152C65.2072 138.439 65.0934 138.714 64.8908 138.916C64.6881 139.119 64.4133 139.233 64.1267 139.233H51.1606C50.874 139.233 50.5992 139.119 50.3966 138.916C50.1939 138.714 50.0801 138.439 50.0801 138.152V129.508C50.0801 129.222 50.1939 128.947 50.3966 128.744C50.5992 128.542 50.874 128.428 51.1606 128.428H64.1267C64.4133 128.428 64.6881 128.542 64.8908 128.744C65.0934 128.947 65.2072 129.222 65.2072 129.508ZM61.5605 138.152L60.507 136.748C60.4567 136.681 60.3914 136.626 60.3164 136.589C60.2414 136.551 60.1587 136.532 60.0748 136.532H55.2125C55.1286 136.532 55.0459 136.551 54.9709 136.589C54.8959 136.626 54.8306 136.681 54.7803 136.748L53.7268 138.152H61.5605ZM63.5865 132.75C63.5865 132.177 63.3588 131.627 62.9535 131.222C62.5482 130.816 61.9986 130.589 61.4254 130.589H53.8619C53.2887 130.589 52.7391 130.816 52.3338 131.222C51.9285 131.627 51.7008 132.177 51.7008 132.75C51.7008 133.323 51.9285 133.873 52.3338 134.278C52.7391 134.683 53.2887 134.911 53.8619 134.911H61.4254C61.9986 134.911 62.5482 134.683 62.9535 134.278C63.3588 133.873 63.5865 133.323 63.5865 132.75ZM55.7325 131.669C55.9227 131.998 56.0229 132.37 56.0229 132.75C56.0229 133.129 55.9227 133.502 55.7325 133.83H59.5548C59.3646 133.502 59.2644 133.129 59.2644 132.75C59.2644 132.37 59.3646 131.998 59.5548 131.669H55.7325ZM61.4254 131.669C61.2117 131.669 61.0028 131.733 60.8251 131.851C60.6475 131.97 60.509 132.139 60.4272 132.336C60.3454 132.534 60.324 132.751 60.3657 132.961C60.4074 133.17 60.5103 133.363 60.6614 133.514C60.8125 133.665 61.005 133.768 61.2146 133.81C61.4242 133.851 61.6415 133.83 61.8389 133.748C62.0364 133.666 62.2051 133.528 62.3239 133.35C62.4426 133.172 62.506 132.963 62.506 132.75C62.506 132.463 62.3921 132.188 62.1895 131.986C61.9868 131.783 61.712 131.669 61.4254 131.669Z" fill="black"/>
<path d="M79.6725 138.532C79.077 138.532 78.5343 138.422 78.0445 138.201C77.5547 137.97 77.1321 137.648 76.7767 137.235C76.4309 136.813 76.162 136.299 75.9699 135.694C75.7874 135.079 75.6962 134.388 75.6962 133.619C75.6962 132.544 75.8691 131.636 76.2148 130.896C76.5702 130.157 77.0504 129.595 77.6555 129.211C78.2606 128.827 78.9521 128.635 79.7301 128.635C80.5369 128.635 81.2332 128.831 81.8191 129.225C82.4146 129.619 82.8708 130.186 83.1877 130.925C83.5143 131.665 83.6776 132.553 83.6776 133.59C83.6776 134.368 83.5815 135.065 83.3894 135.679C83.2069 136.285 82.938 136.803 82.5826 137.235C82.2273 137.658 81.8047 137.98 81.3148 138.201C80.825 138.422 80.2775 138.532 79.6725 138.532ZM79.7157 137.063C79.9942 137.063 80.2631 137 80.5225 136.875C80.7818 136.741 81.0123 136.539 81.214 136.27C81.4157 135.992 81.5742 135.636 81.6894 135.204C81.8047 134.762 81.8623 134.234 81.8623 133.619C81.8623 132.88 81.7711 132.246 81.5886 131.718C81.4061 131.189 81.1516 130.786 80.825 130.507C80.5081 130.229 80.1335 130.09 79.7013 130.09C79.3459 130.09 79.0001 130.205 78.664 130.435C78.3374 130.656 78.0637 131.021 77.8428 131.53C77.6315 132.039 77.5258 132.721 77.5258 133.576C77.5258 134.181 77.5835 134.705 77.6987 135.146C77.814 135.579 77.9677 135.939 78.1597 136.227C78.3614 136.505 78.5919 136.717 78.8513 136.861C79.1202 136.995 79.4083 137.063 79.7157 137.063ZM89.2113 138.532C88.6159 138.532 88.0732 138.422 87.5834 138.201C87.0935 137.97 86.6709 137.648 86.3156 137.235C85.9698 136.813 85.7009 136.299 85.5088 135.694C85.3263 135.079 85.2351 134.388 85.2351 133.619C85.2351 132.544 85.4079 131.636 85.7537 130.896C86.1091 130.157 86.5893 129.595 87.1944 129.211C87.7995 128.827 88.491 128.635 89.269 128.635C90.0758 128.635 90.7721 128.831 91.358 129.225C91.9534 129.619 92.4097 130.186 92.7266 130.925C93.0532 131.665 93.2164 132.553 93.2164 133.59C93.2164 134.368 93.1204 135.065 92.9283 135.679C92.7458 136.285 92.4769 136.803 92.1215 137.235C91.7662 137.658 91.3436 137.98 90.8537 138.201C90.3639 138.422 89.8164 138.532 89.2113 138.532ZM89.2546 137.063C89.5331 137.063 89.802 137 90.0613 136.875C90.3207 136.741 90.5512 136.539 90.7529 136.27C90.9546 135.992 91.113 135.636 91.2283 135.204C91.3436 134.762 91.4012 134.234 91.4012 133.619C91.4012 132.88 91.3099 132.246 91.1275 131.718C90.945 131.189 90.6904 130.786 90.3639 130.507C90.0469 130.229 89.6724 130.09 89.2402 130.09C88.8848 130.09 88.539 130.205 88.2029 130.435C87.8763 130.656 87.6026 131.021 87.3817 131.53C87.1704 132.039 87.0647 132.721 87.0647 133.576C87.0647 134.181 87.1224 134.705 87.2376 135.146C87.3529 135.579 87.5065 135.939 87.6986 136.227C87.9003 136.505 88.1308 136.717 88.3902 136.861C88.6591 136.995 88.9472 137.063 89.2546 137.063ZM95.7221 138.172C95.3283 138.172 95.0306 138.085 94.8289 137.913C94.6272 137.74 94.5263 137.471 94.5263 137.106C94.5263 136.731 94.6272 136.457 94.8289 136.285C95.0306 136.112 95.3283 136.025 95.7221 136.025C96.1351 136.025 96.4424 136.112 96.6441 136.285C96.8554 136.457 96.9611 136.731 96.9611 137.106C96.9611 137.816 96.5481 138.172 95.7221 138.172ZM95.7221 133.259C95.3283 133.259 95.0306 133.173 94.8289 133C94.6272 132.827 94.5263 132.558 94.5263 132.193C94.5263 131.818 94.6272 131.545 94.8289 131.372C95.0306 131.199 95.3283 131.113 95.7221 131.113C96.1351 131.113 96.4424 131.199 96.6441 131.372C96.8554 131.545 96.9611 131.818 96.9611 132.193C96.9611 132.904 96.5481 133.259 95.7221 133.259ZM102.225 138.532C101.63 138.532 101.087 138.422 100.597 138.201C100.108 137.97 99.6849 137.648 99.3295 137.235C98.9838 136.813 98.7149 136.299 98.5228 135.694C98.3403 135.079 98.249 134.388 98.249 133.619C98.249 132.544 98.4219 131.636 98.7677 130.896C99.123 130.157 99.6033 129.595 100.208 129.211C100.813 128.827 101.505 128.635 102.283 128.635C103.09 128.635 103.786 128.831 104.372 129.225C104.967 129.619 105.424 130.186 105.741 130.925C106.067 131.665 106.23 132.553 106.23 133.59C106.23 134.368 106.134 135.065 105.942 135.679C105.76 136.285 105.491 136.803 105.135 137.235C104.78 137.658 104.358 137.98 103.868 138.201C103.378 138.422 102.83 138.532 102.225 138.532ZM102.269 137.063C102.547 137.063 102.816 137 103.075 136.875C103.335 136.741 103.565 136.539 103.767 136.27C103.969 135.992 104.127 135.636 104.242 135.204C104.358 134.762 104.415 134.234 104.415 133.619C104.415 132.88 104.324 132.246 104.141 131.718C103.959 131.189 103.704 130.786 103.378 130.507C103.061 130.229 102.686 130.09 102.254 130.09C101.899 130.09 101.553 130.205 101.217 130.435C100.89 130.656 100.617 131.021 100.396 131.53C100.184 132.039 100.079 132.721 100.079 133.576C100.079 134.181 100.136 134.705 100.252 135.146C100.367 135.579 100.521 135.939 100.713 136.227C100.914 136.505 101.145 136.717 101.404 136.861C101.673 136.995 101.961 137.063 102.269 137.063ZM111.764 138.532C111.169 138.532 110.626 138.422 110.136 138.201C109.646 137.97 109.224 137.648 108.868 137.235C108.523 136.813 108.254 136.299 108.062 135.694C107.879 135.079 107.788 134.388 107.788 133.619C107.788 132.544 107.961 131.636 108.307 130.896C108.662 130.157 109.142 129.595 109.747 129.211C110.352 128.827 111.044 128.635 111.822 128.635C112.629 128.635 113.325 128.831 113.911 129.225C114.506 129.619 114.963 130.186 115.279 130.925C115.606 131.665 115.769 132.553 115.769 133.59C115.769 134.368 115.673 135.065 115.481 135.679C115.299 136.285 115.03 136.803 114.674 137.235C114.319 137.658 113.896 137.98 113.407 138.201C112.917 138.422 112.369 138.532 111.764 138.532ZM111.807 137.063C112.086 137.063 112.355 137 112.614 136.875C112.874 136.741 113.104 136.539 113.306 136.27C113.507 135.992 113.666 135.636 113.781 135.204C113.896 134.762 113.954 134.234 113.954 133.619C113.954 132.88 113.863 132.246 113.68 131.718C113.498 131.189 113.243 130.786 112.917 130.507C112.6 130.229 112.225 130.09 111.793 130.09C111.438 130.09 111.092 130.205 110.756 130.435C110.429 130.656 110.155 131.021 109.935 131.53C109.723 132.039 109.618 132.721 109.618 133.576C109.618 134.181 109.675 134.705 109.79 135.146C109.906 135.579 110.059 135.939 110.251 136.227C110.453 136.505 110.684 136.717 110.943 136.861C111.212 136.995 111.5 137.063 111.807 137.063ZM118.275 138.172C117.881 138.172 117.583 138.085 117.382 137.913C117.18 137.74 117.079 137.471 117.079 137.106C117.079 136.731 117.18 136.457 117.382 136.285C117.583 136.112 117.881 136.025 118.275 136.025C118.688 136.025 118.995 136.112 119.197 136.285C119.408 136.457 119.514 136.731 119.514 137.106C119.514 137.816 119.101 138.172 118.275 138.172ZM118.275 133.259C117.881 133.259 117.583 133.173 117.382 133C117.18 132.827 117.079 132.558 117.079 132.193C117.079 131.818 117.18 131.545 117.382 131.372C117.583 131.199 117.881 131.113 118.275 131.113C118.688 131.113 118.995 131.199 119.197 131.372C119.408 131.545 119.514 131.818 119.514 132.193C119.514 132.904 119.101 133.259 118.275 133.259ZM124.778 138.532C124.183 138.532 123.64 138.422 123.15 138.201C122.66 137.97 122.238 137.648 121.882 137.235C121.537 136.813 121.268 136.299 121.076 135.694C120.893 135.079 120.802 134.388 120.802 133.619C120.802 132.544 120.975 131.636 121.321 130.896C121.676 130.157 122.156 129.595 122.761 129.211C123.366 128.827 124.058 128.635 124.836 128.635C125.643 128.635 126.339 128.831 126.925 129.225C127.52 129.619 127.976 130.186 128.293 130.925C128.62 131.665 128.783 132.553 128.783 133.59C128.783 134.368 128.687 135.065 128.495 135.679C128.313 136.285 128.044 136.803 127.688 137.235C127.333 137.658 126.91 137.98 126.421 138.201C125.931 138.422 125.383 138.532 124.778 138.532ZM124.821 137.063C125.1 137.063 125.369 137 125.628 136.875C125.887 136.741 126.118 136.539 126.32 136.27C126.521 135.992 126.68 135.636 126.795 135.204C126.91 134.762 126.968 134.234 126.968 133.619C126.968 132.88 126.877 132.246 126.694 131.718C126.512 131.189 126.257 130.786 125.931 130.507C125.614 130.229 125.239 130.09 124.807 130.09C124.452 130.09 124.106 130.205 123.77 130.435C123.443 130.656 123.169 131.021 122.948 131.53C122.737 132.039 122.632 132.721 122.632 133.576C122.632 134.181 122.689 134.705 122.804 135.146C122.92 135.579 123.073 135.939 123.265 136.227C123.467 136.505 123.698 136.717 123.957 136.861C124.226 136.995 124.514 137.063 124.821 137.063ZM134.317 138.532C133.722 138.532 133.179 138.422 132.689 138.201C132.199 137.97 131.777 137.648 131.421 137.235C131.076 136.813 130.807 136.299 130.615 135.694C130.432 135.079 130.341 134.388 130.341 133.619C130.341 132.544 130.514 131.636 130.859 130.896C131.215 130.157 131.695 129.595 132.3 129.211C132.905 128.827 133.597 128.635 134.375 128.635C135.181 128.635 135.878 128.831 136.464 129.225C137.059 129.619 137.515 130.186 137.832 130.925C138.159 131.665 138.322 132.553 138.322 133.59C138.322 134.368 138.226 135.065 138.034 135.679C137.852 136.285 137.583 136.803 137.227 137.235C136.872 137.658 136.449 137.98 135.959 138.201C135.47 138.422 134.922 138.532 134.317 138.532ZM134.36 137.063C134.639 137.063 134.908 137 135.167 136.875C135.426 136.741 135.657 136.539 135.859 136.27C136.06 135.992 136.219 135.636 136.334 135.204C136.449 134.762 136.507 134.234 136.507 133.619C136.507 132.88 136.416 132.246 136.233 131.718C136.051 131.189 135.796 130.786 135.47 130.507C135.153 130.229 134.778 130.09 134.346 130.09C133.99 130.09 133.645 130.205 133.309 130.435C132.982 130.656 132.708 131.021 132.487 131.53C132.276 132.039 132.17 132.721 132.17 133.576C132.17 134.181 132.228 134.705 132.343 135.146C132.459 135.579 132.612 135.939 132.804 136.227C133.006 136.505 133.237 136.717 133.496 136.861C133.765 136.995 134.053 137.063 134.36 137.063Z" fill="black"/>
<rect x="171.627" y="113.661" width="63.39" height="40.3391" rx="20.1695" fill="#EA4335"/>
<path fill-rule="evenodd" clip-rule="evenodd" d="M199.72 129.509C199.323 129.509 199 129.831 199 130.229V137.432C199 137.83 199.323 138.153 199.72 138.153H206.924C207.322 138.153 207.644 137.83 207.644 137.432V130.229C207.644 129.831 207.322 129.509 206.924 129.509H199.72Z" fill="white"/>
<rect x="243.661" y="113.661" width="63.39" height="40.3391" rx="20.1695" fill="#F1F1F1"/>
<path fill-rule="evenodd" clip-rule="evenodd" d="M270.313 130.229C270.313 129.433 270.958 128.788 271.754 128.788H273.195C273.991 128.788 274.636 129.433 274.636 130.229V137.432C274.636 138.228 273.991 138.873 273.195 138.873H271.754C270.958 138.873 270.313 138.228 270.313 137.432V130.229Z" fill="black"/>
<path fill-rule="evenodd" clip-rule="evenodd" d="M276.076 130.229C276.076 129.433 276.721 128.788 277.517 128.788H278.958C279.753 128.788 280.398 129.433 280.398 130.229V137.432C280.398 138.228 279.753 138.873 278.958 138.873H277.517C276.721 138.873 276.076 138.228 276.076 137.432V130.229Z" fill="black"/>
</svg>
