<svg width="19" height="18" viewBox="0 0 19 18" fill="none" xmlns="http://www.w3.org/2000/svg">
<path fill-rule="evenodd" clip-rule="evenodd" d="M5.4009 0.15112C6.38084 0.107177 6.69328 0.0974121 9.18947 0.0974121C11.6857 0.0974121 11.9981 0.107991 12.9772 0.15112C13.9563 0.194249 14.6246 0.346421 15.2094 0.566949C15.8218 0.792359 16.3773 1.14471 16.8368 1.60042C17.3046 2.04717 17.6655 2.5875 17.8961 3.1848C18.1233 3.75443 18.2787 4.40543 18.3238 5.35752C18.3689 6.31369 18.3789 6.61803 18.3789 9.04872C18.3789 11.4802 18.3681 11.7846 18.3238 12.7391C18.2795 13.6912 18.1233 14.3422 17.8961 14.9118C17.6655 15.5092 17.304 16.0504 16.8368 16.4978C16.3773 16.9535 15.8218 17.3051 15.2094 17.5297C14.6246 17.751 13.9563 17.9024 12.9789 17.9463C11.9981 17.9903 11.6857 18 9.18947 18C6.69328 18 6.38084 17.9894 5.4009 17.9463C4.42348 17.9032 3.75515 17.751 3.17037 17.5297C2.55711 17.305 2.00148 16.9529 1.54216 16.4978C1.07465 16.0508 0.712865 15.5098 0.48203 14.9126C0.255634 14.343 0.100249 13.692 0.0551368 12.7399C0.0100249 11.7837 0 11.4794 0 9.04872C0 6.61722 0.0108603 6.31287 0.0551368 5.35915C0.0994134 4.40543 0.255634 3.75443 0.48203 3.1848C0.713206 2.58757 1.07527 2.04661 1.543 1.5996C2.00167 1.14431 2.55674 0.791906 3.16953 0.566949C3.75432 0.346421 4.42264 0.195063 5.40007 0.15112H5.4009ZM12.9029 1.76235C11.9338 1.71923 11.6431 1.71027 9.18947 1.71027C6.73588 1.71027 6.44516 1.71923 5.47609 1.76235C4.5797 1.80223 4.09349 1.94789 3.76935 2.07077C3.34079 2.23352 3.0342 2.42638 2.71257 2.73967C2.40768 3.0286 2.17304 3.38033 2.02586 3.76907C1.89971 4.08481 1.75018 4.55842 1.70924 5.43158C1.66497 6.37553 1.65578 6.65872 1.65578 9.04872C1.65578 11.4387 1.66497 11.7219 1.70924 12.6659C1.75018 13.539 1.89971 14.0126 2.02586 14.3284C2.17289 14.7165 2.40764 15.0689 2.71257 15.3578C3.00913 15.6548 3.37087 15.8834 3.76935 16.0267C4.09349 16.1495 4.5797 16.2952 5.47609 16.3351C6.44516 16.3782 6.73505 16.3872 9.18947 16.3872C11.6439 16.3872 11.9338 16.3782 12.9029 16.3351C13.7992 16.2952 14.2855 16.1495 14.6096 16.0267C15.0382 15.8639 15.3447 15.6711 15.6664 15.3578C15.9713 15.0689 16.2061 14.7165 16.3531 14.3284C16.4792 14.0126 16.6288 13.539 16.6697 12.6659C16.714 11.7219 16.7232 11.4387 16.7232 9.04872C16.7232 6.65872 16.714 6.37553 16.6697 5.43158C16.6288 4.55842 16.4792 4.08481 16.3531 3.76907C16.186 3.35162 15.988 3.05297 15.6664 2.73967C15.3697 2.44271 15.0087 2.21416 14.6096 2.07077C14.2855 1.94789 13.7992 1.80223 12.9029 1.76235ZM8.01573 11.8082C8.67123 12.074 9.40115 12.1098 10.0808 11.9097C10.7604 11.7095 11.3477 11.2857 11.7421 10.7106C12.1366 10.1355 12.3139 9.44491 12.2438 8.75666C12.1736 8.06842 11.8603 7.42525 11.3574 6.93702C11.0368 6.62493 10.6491 6.38596 10.2223 6.23731C9.79552 6.08867 9.3402 6.03405 8.88914 6.07738C8.43808 6.12072 8.00249 6.26094 7.61373 6.48794C7.22498 6.71494 6.89273 7.02307 6.6409 7.39016C6.38907 7.75725 6.22394 8.17416 6.15738 8.61088C6.09082 9.0476 6.12449 9.49326 6.25597 9.91579C6.38746 10.3383 6.61348 10.7272 6.91777 11.0544C7.22206 11.3816 7.59704 11.639 8.01573 11.8082ZM5.84952 5.79532C6.28813 5.36808 6.80883 5.02918 7.3819 4.79795C7.95497 4.56673 8.56918 4.44772 9.18947 4.44772C9.80976 4.44772 10.424 4.56673 10.997 4.79795C11.5701 5.02918 12.0908 5.36808 12.5294 5.79532C12.968 6.22257 13.316 6.72978 13.5533 7.28799C13.7907 7.84621 13.9129 8.44451 13.9129 9.04872C13.9129 9.65293 13.7907 10.2512 13.5533 10.8094C13.316 11.3677 12.968 11.8749 12.5294 12.3021C11.6436 13.165 10.4422 13.6497 9.18947 13.6497C7.93675 13.6497 6.73533 13.165 5.84952 12.3021C4.9637 11.4393 4.46606 10.269 4.46606 9.04872C4.46606 7.82846 4.9637 6.65818 5.84952 5.79532ZM14.9605 5.13293C15.0692 5.03305 15.1562 4.91295 15.2163 4.77974C15.2765 4.64652 15.3087 4.50289 15.3108 4.35736C15.313 4.21183 15.2852 4.06735 15.229 3.93248C15.1729 3.79761 15.0895 3.67509 14.9838 3.57218C14.8782 3.46926 14.7524 3.38804 14.6139 3.33332C14.4755 3.27861 14.3271 3.25151 14.1777 3.25363C14.0283 3.25575 13.8809 3.28705 13.7441 3.34567C13.6074 3.4043 13.4841 3.48906 13.3815 3.59493C13.1821 3.80083 13.073 4.07433 13.0772 4.35736C13.0814 4.64039 13.1987 4.91067 13.4042 5.11083C13.6097 5.31098 13.8872 5.42525 14.1777 5.42938C14.4683 5.4335 14.7491 5.32716 14.9605 5.13293Z" fill="white"/>
</svg>
