<svg width="19" height="18" viewBox="0 0 19 18" fill="none" xmlns="http://www.w3.org/2000/svg">
<path d="M18.3334 1.31617V16.5837C18.3334 16.9328 18.1958 17.2676 17.9508 17.5144C17.7058 17.7612 17.3735 17.8999 17.027 17.8999H1.8728C1.52633 17.8999 1.19404 17.7612 0.949042 17.5144C0.704044 17.2676 0.566406 16.9328 0.566406 16.5837L0.566406 1.31617C0.566406 0.9671 0.704044 0.632327 0.949042 0.385497C1.19404 0.138668 1.52633 0 1.8728 0L17.027 0C17.3735 0 17.7058 0.138668 17.9508 0.385497C18.1958 0.632327 18.3334 0.9671 18.3334 1.31617ZM5.792 6.84409H3.1792V15.2676H5.792V6.84409ZM6.02715 3.94851C6.02853 3.7494 5.99096 3.55196 5.9166 3.36747C5.84224 3.18298 5.73254 3.01505 5.59376 2.87328C5.45498 2.73151 5.28984 2.61866 5.10777 2.54119C4.9257 2.46372 4.73027 2.42313 4.53263 2.42175H4.4856C4.08369 2.42175 3.69823 2.58261 3.41404 2.86893C3.12984 3.15525 2.97018 3.54359 2.97018 3.94851C2.97018 4.35343 3.12984 4.74177 3.41404 5.02809C3.69823 5.31441 4.08369 5.47527 4.4856 5.47527C4.68325 5.48017 4.87992 5.44578 5.06438 5.37408C5.24884 5.30237 5.41746 5.19475 5.56062 5.05737C5.70378 4.91998 5.81866 4.75553 5.89871 4.5734C5.97876 4.39126 6.02241 4.19502 6.02715 3.99589V3.94851ZM15.7206 10.1503C15.7206 7.61799 14.1216 6.6335 12.533 6.6335C12.0129 6.60726 11.495 6.71887 11.0311 6.9572C10.5671 7.19554 10.1733 7.55226 9.88887 7.99179H9.81571V6.84409H7.35968V15.2676H9.97248V10.7873C9.93471 10.3285 10.0782 9.87314 10.3717 9.52024C10.6652 9.16734 11.0851 8.94538 11.5402 8.90258H11.6394C12.4703 8.90258 13.0869 9.42904 13.0869 10.7557V15.2676H15.6997L15.7206 10.1503Z" fill="white"/>
</svg>
