<svg width="65" height="25" viewBox="0 0 65 25" fill="none" xmlns="http://www.w3.org/2000/svg">
<path d="M9.57781 4.93009L8.00022 7.38054C13.8656 6.46763 26.8342 6.40036 31.3 14.0112C27.1255 5.01658 15.0791 4.20937 9.57781 4.93009Z" fill="#5BC7E1"/>
<path d="M55.4493 4.93009L57.0269 7.38054C51.1615 6.46763 38.1929 6.40036 33.7271 14.0112C37.9016 5.01658 49.9479 4.20937 55.4493 4.93009Z" fill="#5BC7E1"/>
<path d="M16.0095 0.894043L14.3106 3.20036C19.1647 3.48867 25.7178 4.35352 31.3 10.84C26.2032 3.20035 20.2569 0.894061 16.0095 0.894043Z" fill="#F98810"/>
<path d="M49.0176 0.894043L50.7165 3.20036C45.8624 3.48867 39.3093 4.35352 33.7271 10.84C38.8239 3.20035 44.7702 0.894061 49.0176 0.894043Z" fill="#F98810"/>
<path d="M3.51016 10.4076L1.68986 13.1463C8.40473 10.7919 23.7276 8.50486 31.3 18.1913C26.0576 6.77513 10.5891 8.2454 3.51016 10.4076Z" fill="#3759B4"/>
<path d="M61.5169 10.4076L63.3372 13.1463C56.6223 10.7919 41.2995 8.50486 33.7271 18.1913C38.9695 6.77513 54.438 8.2454 61.5169 10.4076Z" fill="#3759B4"/>
<path d="M2.41797 15.4526C0.595031 16.0224 0.435867 16.9902 0.597671 17.4706C0.888923 18.2778 1.93256 18.0953 2.41797 17.9031C18.8006 13.5787 25.8215 16.6057 28.9943 22.9481C30.2922 25.5427 34.5765 25.5427 36.0328 22.9481C39.2689 17.1824 45.6197 13.5787 62.4877 17.9031C63.0136 17.9992 64.1139 17.9896 64.308 17.1824C64.2109 16.3752 63.2967 15.789 62.8518 15.5968C48.4108 11.5607 39.0666 14.1553 36.1541 18.9121C33.6829 22.9481 31.241 22.9481 28.9943 19.0562C26.0818 14.0112 17.1017 11.849 2.41797 15.4526Z" fill="#0530A1"/>
</svg>
