<svg width="116" height="24" viewBox="0 0 116 24" fill="none" xmlns="http://www.w3.org/2000/svg">
<path d="M49.1743 16.9019C49.3109 16.9019 49.3838 16.8564 49.4566 16.7382L52.5901 10.8914C52.9636 10.1913 53.3371 9.42747 53.5192 9.05466C53.5466 8.98192 53.6103 9.0092 53.6103 9.05466V19.4206C53.6103 19.5388 53.6832 19.6024 53.7925 19.6024H55.7418C55.8602 19.6024 55.924 19.5297 55.924 19.4206V5.49024C55.924 5.37203 55.8511 5.30838 55.7418 5.30838H53.1822C53.0182 5.30838 52.9271 5.38113 52.8543 5.49024L48.7917 13.4465C48.7644 13.492 48.7461 13.492 48.7188 13.4465L44.6562 5.49024C44.5833 5.37203 44.4923 5.30838 44.3283 5.30838H41.7687C41.6503 5.30838 41.5865 5.38113 41.5865 5.49024V19.4297C41.5865 19.5479 41.6594 19.6115 41.7687 19.6115H43.718C43.8364 19.6115 43.9002 19.5388 43.9002 19.4297V9.06376C43.9002 9.01829 43.973 8.99101 43.9913 9.06376C44.1734 9.43657 44.5469 10.2004 44.9204 10.9005L48.0539 16.7473C48.1267 16.8655 48.1905 16.9109 48.3362 16.9109H49.1743V16.9019ZM79.7803 4.96285C79.7803 4.84464 79.7075 4.78099 79.5982 4.78099H77.6488C77.5304 4.78099 77.4667 4.85374 77.4667 4.96285V9.53659C77.4667 9.60933 77.4393 9.62752 77.3756 9.60933C76.5193 9.23652 75.6995 9.02739 74.7704 9.02739C71.892 9.02739 69.7514 10.9733 69.7514 14.3195C69.7514 18.0748 72.0013 19.7934 74.5882 19.7934C75.7997 19.7934 76.7471 19.4661 77.7217 18.775L79.3249 19.5843C79.6073 19.7207 79.7895 19.5843 79.7895 19.3297V4.96285H79.7803ZM58.101 14.3286C58.101 18.2021 60.7062 19.7752 63.3022 19.7752C64.8143 19.7752 66.2262 19.3569 67.4377 18.4567C67.5561 18.3658 67.5743 18.2931 67.5106 18.1567L66.8821 16.9746C66.8092 16.8382 66.7181 16.8382 66.5997 16.9019C65.4884 17.5474 64.5593 17.8566 63.4389 17.8566C62.1181 17.8566 60.606 17.1837 60.3965 15.0014C60.3965 14.9742 60.3965 14.9287 60.4694 14.9287H67.7383C67.9751 14.9287 67.9478 14.5377 67.9478 14.1831C67.9478 10.4459 65.7161 9.0092 63.2294 9.0092C60.3236 9.01829 58.101 10.946 58.101 14.3286ZM91.8588 17.8566C90.8842 17.8566 90.2101 17.4838 89.9095 16.8109C89.7729 16.5109 89.7 16.1108 89.7 15.5106V9.33654C89.7 9.21834 89.6271 9.15469 89.5178 9.15469H87.5594C87.441 9.15469 87.3772 9.22743 87.3772 9.33654V15.6016C87.3772 16.5745 87.5138 17.2292 87.7507 17.7566C88.3792 19.1205 89.7273 19.7752 91.4945 19.7752C92.8153 19.7752 93.8172 19.4479 94.8192 18.7568L96.4224 19.5661C96.7048 19.7025 96.887 19.5661 96.887 19.3115V9.34564C96.887 9.22743 96.8141 9.16378 96.7048 9.16378H94.7555C94.6371 9.16378 94.5733 9.23652 94.5733 9.34564V15.7743C94.5733 16.3563 94.546 16.6109 94.1816 16.9837C93.4347 17.6747 92.6695 17.8566 91.8588 17.8566ZM72.0833 14.3286C72.0833 12.1008 73.313 10.946 74.8706 10.946C75.6631 10.946 76.3827 11.1279 76.9839 11.6643C77.4029 12.0371 77.4485 12.3645 77.4485 13.1465V15.7652C77.4485 16.3472 77.4211 16.6018 77.0568 16.9746C76.3372 17.6747 75.572 17.8566 74.8706 17.8566C73.6409 17.8566 72.0833 17.0655 72.0833 14.3286ZM82.4948 19.4297C82.4948 19.5479 82.5677 19.6115 82.677 19.6115H84.6263C84.7447 19.6115 84.8085 19.5388 84.8085 19.4297V9.33654C84.8085 9.21834 84.7356 9.15469 84.6263 9.15469H82.677C82.5586 9.15469 82.4948 9.22743 82.4948 9.33654V19.4297ZM60.4876 13.0283C60.7244 11.7098 61.6991 10.846 63.1838 10.846C64.6686 10.846 65.5795 11.8644 65.5795 13.0737C65.5795 13.1192 65.5522 13.1465 65.5066 13.1465H60.5605C60.4694 13.1465 60.4876 13.0555 60.4876 13.0283ZM82.2853 6.02672C82.2853 6.74506 82.8865 7.32701 83.6516 7.32701C84.4168 7.32701 85.018 6.74506 85.018 6.02672C85.018 5.30838 84.4168 4.72644 83.6516 4.72644C82.8865 4.72644 82.2853 5.30838 82.2853 6.02672ZM113.301 19.4297C113.301 19.5479 113.374 19.6115 113.483 19.6115H115.433C115.551 19.6115 115.615 19.5388 115.615 19.4297V13.3101C115.615 12.1281 115.433 11.3825 115.123 10.7823C114.476 9.55477 113.219 9.01829 111.68 9.01829C110.286 9.01829 109.011 9.50931 108.009 10.4823C107.262 9.50931 106.169 9.01829 104.848 9.01829C103.591 9.01829 102.598 9.34564 101.642 10.0367L100.039 9.22743C99.7563 9.09104 99.5741 9.22743 99.5741 9.48203V19.4297C99.5741 19.5479 99.647 19.6115 99.7563 19.6115H101.706C101.824 19.6115 101.888 19.5388 101.888 19.4297V13.0283C101.888 12.4281 101.933 12.1463 102.234 11.8189C102.744 11.2642 103.509 10.9642 104.302 10.9642C105.604 10.9642 106.415 11.7098 106.415 13.0737V19.4297C106.415 19.5479 106.488 19.6115 106.597 19.6115H108.546C108.665 19.6115 108.729 19.5388 108.729 19.4297V13.0283C108.729 12.4281 108.774 12.1463 109.075 11.8189C109.585 11.2642 110.35 10.9642 111.142 10.9642C111.999 10.9642 112.655 11.2915 113.001 11.9189C113.165 12.2463 113.256 12.6646 113.256 13.2374V19.4297H113.301Z" fill="#222328"/>
<path d="M19.2696 0.0243132C19.1238 -0.0393372 19.0145 0.0243132 19.0145 0.187986V19.6559L27.5587 23.9114C27.9777 24.1205 28.3239 23.9114 28.3239 23.4295V4.69807C28.3239 4.59805 28.2783 4.51621 28.1873 4.47984L19.2696 0.0243132Z" fill="#BBBBBB"/>
<path d="M9.69607 15.0094L18.8597 0.151614C18.9417 0.0152203 19.1329 -0.0393372 19.2696 0.0334062L28.1235 4.44347C28.2328 4.49803 28.2783 4.63442 28.2055 4.74354L19.0054 19.6559L9.69607 15.0094Z" fill="#676767"/>
<path d="M1.41603 0.415309C0.851275 0.124335 0.659987 0.342565 0.98791 0.88814L9.69607 15.0094L19.0054 19.665L9.75983 4.64352C9.7234 4.57986 9.65963 4.52531 9.59587 4.48894L1.41603 0.415309Z" fill="#222328"/>
<path d="M9.69607 23.4386C9.69607 23.9114 9.34993 24.1296 8.93092 23.9205L0.905929 19.9105C0.614443 19.765 0.386719 19.3922 0.386719 19.074V0.469866C0.386719 0.151614 0.614443 0.00612739 0.905929 0.151614L9.58676 4.48894C9.65053 4.52531 9.70518 4.59805 9.70518 4.67079V23.4386H9.69607Z" fill="#222328"/>
</svg>
