<svg width="47" height="64" viewBox="0 0 47 64" fill="none" xmlns="http://www.w3.org/2000/svg">
<path d="M15.9454 2.79062C20.1845 0.434976 26.9111 0.50015 30.9638 2.9489C35.0259 5.38835 34.8861 9.28028 30.6563 11.6452C26.4266 14.0009 19.7 13.9357 15.638 11.487C11.5852 9.04751 11.7157 5.14627 15.9454 2.79062Z" fill="#EDF1F4"/>
<path d="M41.8451 34.0938C41.8638 34.1403 42.1433 34.7548 42.4694 35.7232C41.5191 34.3917 40.1216 33.144 38.2955 32.0454C30.3578 27.2689 17.212 27.1386 8.93884 31.7474C6.7867 32.9485 5.16561 34.3545 4.10352 35.8628C4.2619 35.388 4.43893 34.9597 4.75569 34.1496C4.75569 34.1403 5.25879 32.9485 6.01344 31.7195C6.71219 30.5649 7.31776 29.8201 7.6718 29.3732C8.78047 27.9951 10.4202 26.552 11.4078 25.8816C12.1624 25.3695 12.9357 24.8388 13.7555 24.4291C13.7649 24.4198 13.8487 24.3825 13.8487 24.3825C14.3425 24.1311 14.6499 23.6284 14.6406 23.079V17.5391C18.2461 19.4478 23.3424 20.0251 27.8795 19.0009C29.3329 18.675 30.6652 18.2001 31.8391 17.5949L31.8577 23.0138C31.8577 23.5539 32.1466 24.038 32.6217 24.2987C32.9944 24.4943 33.367 24.7177 33.8049 24.9598C35.2769 25.8537 36.0782 26.5333 36.7862 27.1292C37.5781 27.8182 38.2489 28.5817 38.9011 29.3173C38.929 29.3545 39.693 30.2391 40.5502 31.6171C41.0532 32.4457 41.1837 32.6971 41.8451 34.1031V34.0938Z" fill="#EDF1F4"/>
<path d="M43.2896 39.2519C43.5038 40.8534 43.5132 42.1476 43.4386 43.2742C43.4014 43.386 43.3455 43.4977 43.2896 43.6001C43.215 43.7677 43.1219 43.926 43.038 44.0936C42.8983 44.3264 42.7678 44.5498 42.6095 44.7826C42.5163 44.9316 42.4045 45.0619 42.302 45.2109C42.1995 45.3599 42.0784 45.4995 41.9573 45.6485C41.7523 45.8906 41.538 46.1233 41.2958 46.3561C41.1747 46.4958 41.0443 46.6168 40.9045 46.7379C40.0194 47.5572 38.948 48.3393 37.681 49.0376C29.4171 53.6558 16.2714 53.5162 8.33361 48.749C7.84915 48.4604 7.39264 48.1624 6.97339 47.8459C6.59141 47.5665 6.23739 47.2779 5.90199 46.9799C5.86472 46.952 5.83676 46.9148 5.79949 46.8961C5.48273 46.5982 5.17529 46.2909 4.9051 45.993C4.87715 45.9651 4.8492 45.9278 4.81193 45.8813C4.09455 45.0619 3.55419 44.196 3.17221 43.3115C3.17221 43.0508 3.15357 42.8832 3.15357 42.8366C3.10699 41.2631 3.1629 40.7417 3.32128 39.3451C3.32128 39.3357 3.46102 38.1626 3.85232 36.7287C3.94549 36.3749 4.02933 36.1142 4.10386 35.8535C5.16595 34.3544 6.77773 32.9485 8.93919 31.7381C17.2123 27.1292 30.3674 27.2596 38.2959 32.036C40.1219 33.1347 41.5194 34.3824 42.4697 35.7138C42.7772 36.6263 43.1125 37.8646 43.2896 39.2426V39.2519Z" fill="#FD814C"/>
<path d="M43.4381 43.2744C43.4381 43.2744 43.4381 43.2931 43.4381 43.3024C43.4009 43.4049 43.3543 43.5073 43.2891 43.6005C43.3356 43.498 43.3915 43.3769 43.4381 43.2744Z" fill="#FC611F"/>
<path d="M43.0381 44.0936C43.1219 43.9259 43.2151 43.7676 43.2896 43.5999C43.2244 43.7676 43.1313 43.9259 43.0381 44.0936Z" fill="#FC611F"/>
<path d="M42.6092 44.7827C42.5161 44.9318 42.4136 45.0622 42.3018 45.2113C42.4042 45.0622 42.5161 44.9318 42.6092 44.7827Z" fill="#FC611F"/>
<path d="M40.9043 46.7379C41.044 46.6168 41.1745 46.4957 41.2956 46.356C41.1745 46.4864 41.044 46.6075 40.9043 46.7379Z" fill="#FC611F"/>
<path d="M36.5815 6.79412C36.2368 6.06787 35.6126 5.22059 35.1747 4.76435C34.1965 3.74947 33.6375 3.38635 32.7244 2.79976C30.2555 1.34727 27.7307 0.835174 26.4357 0.667579C25.4389 0.527916 22.4016 0.12755 18.7588 0.937594C14.0353 1.98972 10.6068 4.61538 9.60992 7.93935C8.90185 10.2857 9.5913 12.1665 9.91738 12.8741C10.2621 13.619 10.7745 14.5128 11.7062 15.4439C12.2558 15.9932 12.9639 16.5705 13.8862 17.1199C14.1285 17.2688 14.3707 17.3992 14.6223 17.5295C18.2464 19.4383 23.3333 20.0155 27.8705 18.9913C29.3239 18.6655 30.6562 18.1906 31.8301 17.5854C32.9574 17.0267 33.9356 16.3377 34.7368 15.5649C35.8269 14.5314 36.6002 13.321 36.9915 12.0175C37.7741 9.40116 36.8703 7.43657 36.5722 6.79412H36.5815ZM15.6378 11.4868C11.585 9.04735 11.7155 5.1461 15.9452 2.79045C20.1843 0.43481 26.9109 0.499984 30.9636 2.94874C35.0257 5.38818 34.8859 9.28012 30.6562 11.6451C26.4264 14.0007 19.6998 13.9355 15.6378 11.4868Z" fill="#118995"/>
<path d="M5.90137 46.9797C6.22745 47.2686 6.59079 47.5574 6.97277 47.8462C6.59079 47.5667 6.23677 47.2872 5.90137 46.9797Z" fill="#FC611F"/>
<path d="M4.90527 45.9832C5.17546 46.2813 5.4829 46.5887 5.79966 46.8869C5.4829 46.5981 5.17546 46.2999 4.90527 45.9832Z" fill="#FC611F"/>
<path d="M3.17188 43.3115C3.55386 44.1961 4.09422 45.0527 4.81159 45.8813C4.0849 45.0713 3.54453 44.224 3.18119 43.3581C3.17187 43.3395 3.17188 43.3301 3.17188 43.3115Z" fill="#FC611F"/>
<path d="M43.4383 43.3022C43.401 43.9168 43.3451 44.4661 43.2613 44.9968C43.0097 46.8776 42.3949 48.8236 41.4539 50.7975C41.0067 51.7379 39.9818 53.6 38.2024 55.5274C37.6061 56.1791 36.5813 57.2871 34.3453 58.4789C33.4788 58.9352 31.6435 59.8011 29.0721 60.3597C23.7802 61.5329 19.2431 60.7415 17.9853 60.4621C17.2866 60.3039 16.4946 60.1456 15.4978 59.8197C14.0816 59.3728 13.1965 58.9445 13.1593 58.9258C12.0226 58.3765 10.6158 57.6875 9.00407 56.1419C7.73701 54.9129 6.40474 53.1531 5.54762 51.5423C4.84887 50.2481 3.99174 48.4325 3.47933 45.7975C3.28368 44.8013 3.19982 43.8981 3.17188 43.3581C3.53522 44.224 4.07557 45.062 4.80227 45.8813C4.83954 45.9186 4.86749 45.9558 4.89544 45.9931C5.16562 46.3003 5.47306 46.6076 5.78983 46.8962C5.8271 46.9148 5.85506 46.9521 5.89233 46.98C6.21841 47.278 6.58175 47.5573 6.96373 47.8459C7.38298 48.1532 7.83949 48.4605 8.32395 48.7491C16.2617 53.5162 29.4075 53.6559 37.6713 49.0377C38.929 48.3394 40.0098 47.5666 40.8949 46.7379C41.0346 46.6076 41.165 46.4866 41.2862 46.3562C41.5284 46.1234 41.7427 45.8907 41.9477 45.6486C42.0688 45.4996 42.1899 45.3599 42.2924 45.211C42.4135 45.062 42.5066 44.9316 42.5998 44.7827C42.7582 44.5499 42.8886 44.3264 43.0284 44.0937C43.1215 43.9261 43.2147 43.7678 43.2799 43.6002C43.3358 43.5071 43.3824 43.4047 43.429 43.3022H43.4383Z" fill="#FC611F"/>
<path d="M46.1775 38.8702C45.749 35.6673 44.603 33.144 44.4726 32.8368C43.7832 31.3936 43.6248 31.0398 43.0285 30.0714C42.0782 28.5258 41.1932 27.511 41.1 27.3899C40.4106 26.6171 39.6373 25.7326 38.687 24.9132C37.9789 24.2987 37.0007 23.47 35.2864 22.4272C35.1001 22.3248 34.9324 22.2224 34.774 22.1386L34.7554 15.5651C33.9542 16.3286 32.9666 17.0176 31.8486 17.5856L31.8672 23.0045C31.8672 23.5445 32.1561 24.0287 32.6312 24.2894C33.0039 24.4849 33.3765 24.7084 33.8144 24.9505C35.2864 25.8443 36.0877 26.524 36.7957 27.1199C37.5876 27.8089 38.2584 28.5724 38.9106 29.3079C38.9385 29.3452 39.7025 30.2297 40.5596 31.6077C41.0627 32.4364 41.1932 32.6878 41.8546 34.0937C41.8733 34.1403 42.1528 34.7548 42.4788 35.7231C42.7863 36.6356 43.1217 37.8739 43.2987 39.2519C43.513 40.8534 43.5223 42.1476 43.4478 43.2742C43.4478 43.2835 43.4478 43.2928 43.4478 43.3022C43.4105 43.9167 43.3546 44.466 43.2708 44.9967C43.0192 46.8775 42.4043 48.8235 41.4633 50.7974C41.0161 51.7378 39.9913 53.6 38.2118 55.5273C37.6156 56.1791 36.5907 57.287 34.3548 58.4788C33.4883 58.9351 31.6529 59.801 29.0815 60.3596C23.7897 61.5328 19.2525 60.7414 17.9948 60.462C17.296 60.3038 16.5041 60.1455 15.5072 59.8196C14.0911 59.3727 13.206 58.9444 13.1688 58.9258C12.0321 58.3764 10.6253 57.6874 9.01357 56.1418C7.7465 54.9128 6.41421 53.153 5.55708 51.5423C4.85833 50.248 4.00122 48.4324 3.4888 45.7975C3.29315 44.8012 3.2093 43.898 3.18135 43.358C3.17204 43.3394 3.17204 43.3301 3.17204 43.3115C3.17204 43.0508 3.1534 42.8832 3.1534 42.8366C3.10682 41.2631 3.16273 40.7417 3.32111 39.345C3.32111 39.3357 3.46085 38.1626 3.85215 36.7287C3.94532 36.3749 4.02916 36.1142 4.10369 35.8535C4.26207 35.3786 4.4391 34.9503 4.75586 34.1403C4.75586 34.131 5.25897 32.9392 6.01361 31.7101C6.71236 30.5556 7.31794 29.8107 7.67197 29.3638C8.78065 27.9858 10.4204 26.5426 11.4079 25.8722C12.1626 25.3602 12.9359 24.8294 13.7557 24.4197C13.765 24.4104 13.8489 24.3732 13.8489 24.3732C14.3427 24.1218 14.6501 23.619 14.6408 23.0697V17.5297C14.3799 17.3994 14.1377 17.269 13.8955 17.12C12.9731 16.5707 12.2651 15.9934 11.7154 15.4441L11.734 22.1945C11.0539 22.5948 10.4017 23.0324 9.76821 23.4607C8.62226 24.2335 6.75895 25.8443 5.40804 27.5296C5.02606 27.9951 4.31798 28.8703 3.52606 30.1832C2.63167 31.6357 2.06337 33.023 2.05405 33.0416C1.54164 34.3544 1.36462 34.792 1.04785 35.9373C0.609972 37.5201 0.432958 38.9074 0.423641 39.0099C0.255942 40.4717 0.190714 41.142 0.237298 42.9018C0.246614 43.1718 0.293205 44.6336 0.63792 46.3468C1.22487 49.3635 2.20312 51.4492 2.98571 52.911C3.97327 54.7731 5.51982 56.8122 6.99185 58.2368C8.9297 60.1082 10.7185 60.9741 11.8924 61.5421C12.0042 61.5887 13.029 62.0821 14.6222 62.5849C15.7495 62.948 16.6532 63.1343 17.3799 63.2925C18.237 63.4788 20.4171 63.8791 23.2959 63.8791C25.1872 63.8791 27.3766 63.7022 29.7058 63.1901C32.6125 62.5477 34.7181 61.5607 35.7243 61.03C38.3888 59.6148 39.6652 58.2368 40.3547 57.4919C42.395 55.2945 43.5689 53.1344 44.0906 52.045C45.162 49.8104 45.8608 47.5665 46.1589 45.3878C46.3918 43.6746 46.5595 41.6914 46.1869 38.8702H46.1775Z" fill="#70B8BF"/>
<path opacity="0.3" d="M13.4762 39.9502C10.97 38.507 8.939 39.6709 8.92969 42.5479C8.92969 45.4157 10.9421 48.9165 13.4482 50.3597C15.9544 51.8029 17.9854 50.6484 17.9947 47.7713C17.9947 44.8943 15.9823 41.3934 13.4762 39.9502Z" fill="white"/>
<path opacity="0.3" d="M13.448 51.2165C12.1996 50.4903 11.1748 51.0768 11.1748 52.5107C11.1748 53.9446 12.181 55.695 13.4387 56.412C14.6872 57.1382 15.712 56.5516 15.712 55.1271C15.712 53.6932 14.7058 51.9334 13.4574 51.2165H13.448Z" fill="white"/>
</svg>
