<svg width="233" height="242" viewBox="0 0 233 242" fill="none" xmlns="http://www.w3.org/2000/svg">
<rect x="-12" width="245" height="242" rx="10" fill="white"/>
<path d="M5.152 34V22.752H7.328V34H5.152ZM6.752 34V32.064H12.48V34H6.752ZM17.3115 34.16C16.5008 34.16 15.7808 33.9893 15.1515 33.648C14.5222 33.296 14.0208 32.816 13.6475 32.208C13.2848 31.6 13.1035 30.9067 13.1035 30.128C13.1035 29.36 13.2795 28.6773 13.6315 28.08C13.9942 27.472 14.4848 26.992 15.1035 26.64C15.7222 26.2773 16.4102 26.096 17.1675 26.096C17.9142 26.096 18.5702 26.2667 19.1355 26.608C19.7115 26.9387 20.1595 27.3973 20.4795 27.984C20.8102 28.56 20.9755 29.216 20.9755 29.952C20.9755 30.0907 20.9648 30.2347 20.9435 30.384C20.9328 30.5227 20.9062 30.6827 20.8635 30.864L14.3675 30.88V29.312L19.8875 29.296L19.0395 29.952C19.0182 29.4933 18.9328 29.1093 18.7835 28.8C18.6448 28.4907 18.4368 28.256 18.1595 28.096C17.8928 27.9253 17.5622 27.84 17.1675 27.84C16.7515 27.84 16.3888 27.936 16.0795 28.128C15.7702 28.3093 15.5302 28.5707 15.3595 28.912C15.1995 29.2427 15.1195 29.6373 15.1195 30.096C15.1195 30.5653 15.2048 30.976 15.3755 31.328C15.5568 31.6693 15.8128 31.936 16.1435 32.128C16.4742 32.3093 16.8582 32.4 17.2955 32.4C17.6902 32.4 18.0475 32.336 18.3675 32.208C18.6875 32.0693 18.9648 31.8667 19.1995 31.6L20.4315 32.832C20.0582 33.2693 19.5995 33.6 19.0555 33.824C18.5222 34.048 17.9408 34.16 17.3115 34.16ZM25.5038 34.16C24.7998 34.16 24.1651 33.984 23.5998 33.632C23.0344 33.28 22.5918 32.8 22.2718 32.192C21.9518 31.584 21.7918 30.9013 21.7918 30.144C21.7918 29.376 21.9518 28.688 22.2718 28.08C22.5918 27.472 23.0344 26.992 23.5998 26.64C24.1651 26.288 24.7998 26.112 25.5038 26.112C26.0584 26.112 26.5544 26.224 26.9918 26.448C27.4291 26.672 27.7758 26.9867 28.0318 27.392C28.2984 27.7867 28.4424 28.2347 28.4638 28.736V31.52C28.4424 32.032 28.2984 32.4853 28.0318 32.88C27.7758 33.2747 27.4291 33.5893 26.9918 33.824C26.5544 34.048 26.0584 34.16 25.5038 34.16ZM25.8878 32.224C26.4744 32.224 26.9491 32.032 27.3118 31.648C27.6744 31.2533 27.8558 30.7467 27.8558 30.128C27.8558 29.7227 27.7704 29.3653 27.5998 29.056C27.4398 28.736 27.2104 28.4907 26.9118 28.32C26.6238 28.1387 26.2824 28.048 25.8878 28.048C25.5038 28.048 25.1624 28.1387 24.8638 28.32C24.5758 28.4907 24.3464 28.736 24.1758 29.056C24.0158 29.3653 23.9358 29.7227 23.9358 30.128C23.9358 30.544 24.0158 30.912 24.1758 31.232C24.3464 31.5413 24.5758 31.7867 24.8638 31.968C25.1624 32.1387 25.5038 32.224 25.8878 32.224ZM27.7438 34V31.92L28.0798 30.032L27.7438 28.176V26.272H29.8238V34H27.7438ZM34.942 34.16C34.2273 34.16 33.5873 33.984 33.022 33.632C32.4567 33.28 32.0087 32.8 31.678 32.192C31.358 31.584 31.198 30.9013 31.198 30.144C31.198 29.376 31.358 28.688 31.678 28.08C32.0087 27.472 32.4513 26.992 33.006 26.64C33.5713 26.288 34.2167 26.112 34.942 26.112C35.4967 26.112 35.9927 26.224 36.43 26.448C36.878 26.672 37.2353 26.9867 37.502 27.392C37.7793 27.7867 37.9287 28.2347 37.95 28.736V31.488C37.9287 31.9893 37.7847 32.4427 37.518 32.848C37.2513 33.2533 36.894 33.5733 36.446 33.808C35.998 34.0427 35.4967 34.16 34.942 34.16ZM35.294 32.224C35.6887 32.224 36.03 32.1387 36.318 31.968C36.6167 31.7867 36.846 31.5413 37.006 31.232C37.1767 30.912 37.262 30.544 37.262 30.128C37.262 29.7227 37.1767 29.3653 37.006 29.056C36.846 28.736 36.6167 28.4907 36.318 28.32C36.03 28.1387 35.694 28.048 35.31 28.048C34.9153 28.048 34.5687 28.1387 34.27 28.32C33.982 28.5013 33.7527 28.7467 33.582 29.056C33.422 29.3653 33.342 29.7227 33.342 30.128C33.342 30.544 33.422 30.912 33.582 31.232C33.7527 31.5413 33.9873 31.7867 34.286 31.968C34.5847 32.1387 34.9207 32.224 35.294 32.224ZM39.23 34H37.15V31.92L37.486 30.032L37.134 28.176V22.432H39.23V34ZM44.7803 34.16C43.9696 34.16 43.2496 33.9893 42.6203 33.648C41.9909 33.296 41.4896 32.816 41.1163 32.208C40.7536 31.6 40.5723 30.9067 40.5723 30.128C40.5723 29.36 40.7483 28.6773 41.1003 28.08C41.4629 27.472 41.9536 26.992 42.5723 26.64C43.1909 26.2773 43.8789 26.096 44.6363 26.096C45.3829 26.096 46.0389 26.2667 46.6043 26.608C47.1803 26.9387 47.6283 27.3973 47.9483 27.984C48.2789 28.56 48.4443 29.216 48.4443 29.952C48.4443 30.0907 48.4336 30.2347 48.4123 30.384C48.4016 30.5227 48.3749 30.6827 48.3323 30.864L41.8363 30.88V29.312L47.3563 29.296L46.5083 29.952C46.4869 29.4933 46.4016 29.1093 46.2523 28.8C46.1136 28.4907 45.9056 28.256 45.6283 28.096C45.3616 27.9253 45.0309 27.84 44.6363 27.84C44.2203 27.84 43.8576 27.936 43.5483 28.128C43.2389 28.3093 42.9989 28.5707 42.8283 28.912C42.6683 29.2427 42.5883 29.6373 42.5883 30.096C42.5883 30.5653 42.6736 30.976 42.8443 31.328C43.0256 31.6693 43.2816 31.936 43.6123 32.128C43.9429 32.3093 44.3269 32.4 44.7643 32.4C45.1589 32.4 45.5163 32.336 45.8363 32.208C46.1563 32.0693 46.4336 31.8667 46.6683 31.6L47.9003 32.832C47.5269 33.2693 47.0683 33.6 46.5243 33.824C45.9909 34.048 45.4096 34.16 44.7803 34.16ZM49.7405 34V26.272H51.8365V34H49.7405ZM51.8365 29.728L51.0205 29.184C51.1165 28.2347 51.3938 27.488 51.8525 26.944C52.3112 26.3893 52.9725 26.112 53.8365 26.112C54.2098 26.112 54.5458 26.176 54.8445 26.304C55.1432 26.4213 55.4152 26.6187 55.6605 26.896L54.3485 28.4C54.2312 28.272 54.0872 28.176 53.9165 28.112C53.7565 28.048 53.5698 28.016 53.3565 28.016C52.9085 28.016 52.5405 28.16 52.2525 28.448C51.9752 28.7253 51.8365 29.152 51.8365 29.728ZM60.5129 34.16C59.9582 34.16 59.4569 34.0427 59.0089 33.808C58.5609 33.5733 58.2035 33.2533 57.9369 32.848C57.6702 32.4427 57.5262 31.9893 57.5049 31.488V28.736C57.5262 28.2347 57.6702 27.7867 57.9369 27.392C58.2142 26.9867 58.5769 26.672 59.0249 26.448C59.4729 26.224 59.9689 26.112 60.5129 26.112C61.2275 26.112 61.8675 26.288 62.4329 26.64C62.9982 26.992 63.4409 27.472 63.7609 28.08C64.0915 28.688 64.2569 29.376 64.2569 30.144C64.2569 30.9013 64.0915 31.584 63.7609 32.192C63.4409 32.8 62.9982 33.28 62.4329 33.632C61.8675 33.984 61.2275 34.16 60.5129 34.16ZM60.1609 32.224C60.5449 32.224 60.8809 32.1387 61.1689 31.968C61.4675 31.7867 61.6969 31.5413 61.8569 31.232C62.0275 30.912 62.1129 30.544 62.1129 30.128C62.1129 29.7227 62.0275 29.3653 61.8569 29.056C61.6969 28.736 61.4675 28.4907 61.1689 28.32C60.8702 28.1387 60.5289 28.048 60.1449 28.048C59.7609 28.048 59.4195 28.1387 59.1209 28.32C58.8329 28.4907 58.6035 28.736 58.4329 29.056C58.2729 29.3653 58.1929 29.7227 58.1929 30.128C58.1929 30.544 58.2729 30.912 58.4329 31.232C58.6035 31.5413 58.8382 31.7867 59.1369 31.968C59.4355 32.1387 59.7769 32.224 60.1609 32.224ZM56.2249 34V22.432H58.3209V28.176L57.9689 30.032L58.3049 31.92V34H56.2249ZM69.2631 34.16C68.4845 34.16 67.7805 33.984 67.1511 33.632C66.5325 33.2693 66.0365 32.784 65.6631 32.176C65.3005 31.5573 65.1191 30.8693 65.1191 30.112C65.1191 29.3547 65.3005 28.6773 65.6631 28.08C66.0258 27.472 66.5218 26.992 67.1511 26.64C67.7805 26.2773 68.4791 26.096 69.2471 26.096C70.0365 26.096 70.7405 26.2773 71.3591 26.64C71.9885 26.992 72.4845 27.472 72.8471 28.08C73.2098 28.6773 73.3911 29.3547 73.3911 30.112C73.3911 30.8693 73.2098 31.5573 72.8471 32.176C72.4845 32.784 71.9885 33.2693 71.3591 33.632C70.7405 33.984 70.0418 34.16 69.2631 34.16ZM69.2471 32.208C69.6418 32.208 69.9885 32.1227 70.2871 31.952C70.5965 31.7707 70.8311 31.5253 70.9911 31.216C71.1618 30.896 71.2471 30.5333 71.2471 30.128C71.2471 29.7227 71.1618 29.3653 70.9911 29.056C70.8205 28.7467 70.5858 28.5067 70.2871 28.336C69.9885 28.1547 69.6418 28.064 69.2471 28.064C68.8631 28.064 68.5218 28.1547 68.2231 28.336C67.9245 28.5067 67.6898 28.7467 67.5191 29.056C67.3485 29.3653 67.2631 29.7227 67.2631 30.128C67.2631 30.5333 67.3485 30.896 67.5191 31.216C67.6898 31.5253 67.9245 31.7707 68.2231 31.952C68.5218 32.1227 68.8631 32.208 69.2471 32.208ZM77.9725 34.16C77.2685 34.16 76.6338 33.984 76.0685 33.632C75.5032 33.28 75.0605 32.8 74.7405 32.192C74.4205 31.584 74.2605 30.9013 74.2605 30.144C74.2605 29.376 74.4205 28.688 74.7405 28.08C75.0605 27.472 75.5032 26.992 76.0685 26.64C76.6338 26.288 77.2685 26.112 77.9725 26.112C78.5272 26.112 79.0232 26.224 79.4605 26.448C79.8978 26.672 80.2445 26.9867 80.5005 27.392C80.7672 27.7867 80.9112 28.2347 80.9325 28.736V31.52C80.9112 32.032 80.7672 32.4853 80.5005 32.88C80.2445 33.2747 79.8978 33.5893 79.4605 33.824C79.0232 34.048 78.5272 34.16 77.9725 34.16ZM78.3565 32.224C78.9432 32.224 79.4178 32.032 79.7805 31.648C80.1432 31.2533 80.3245 30.7467 80.3245 30.128C80.3245 29.7227 80.2392 29.3653 80.0685 29.056C79.9085 28.736 79.6792 28.4907 79.3805 28.32C79.0925 28.1387 78.7512 28.048 78.3565 28.048C77.9725 28.048 77.6312 28.1387 77.3325 28.32C77.0445 28.4907 76.8152 28.736 76.6445 29.056C76.4845 29.3653 76.4045 29.7227 76.4045 30.128C76.4045 30.544 76.4845 30.912 76.6445 31.232C76.8152 31.5413 77.0445 31.7867 77.3325 31.968C77.6312 32.1387 77.9725 32.224 78.3565 32.224ZM80.2125 34V31.92L80.5485 30.032L80.2125 28.176V26.272H82.2925V34H80.2125ZM84.1468 34V26.272H86.2428V34H84.1468ZM86.2428 29.728L85.4268 29.184C85.5228 28.2347 85.8001 27.488 86.2588 26.944C86.7174 26.3893 87.3788 26.112 88.2428 26.112C88.6161 26.112 88.9521 26.176 89.2508 26.304C89.5494 26.4213 89.8214 26.6187 90.0668 26.896L88.7548 28.4C88.6374 28.272 88.4934 28.176 88.3228 28.112C88.1628 28.048 87.9761 28.016 87.7628 28.016C87.3148 28.016 86.9468 28.16 86.6588 28.448C86.3814 28.7253 86.2428 29.152 86.2428 29.728ZM93.8483 34.16C93.1336 34.16 92.4936 33.984 91.9283 33.632C91.3629 33.28 90.9149 32.8 90.5843 32.192C90.2643 31.584 90.1043 30.9013 90.1043 30.144C90.1043 29.376 90.2643 28.688 90.5843 28.08C90.9149 27.472 91.3576 26.992 91.9123 26.64C92.4776 26.288 93.1229 26.112 93.8483 26.112C94.4029 26.112 94.8989 26.224 95.3363 26.448C95.7843 26.672 96.1416 26.9867 96.4083 27.392C96.6856 27.7867 96.8349 28.2347 96.8563 28.736V31.488C96.8349 31.9893 96.6909 32.4427 96.4243 32.848C96.1576 33.2533 95.8003 33.5733 95.3523 33.808C94.9043 34.0427 94.4029 34.16 93.8483 34.16ZM94.2003 32.224C94.5949 32.224 94.9363 32.1387 95.2243 31.968C95.5229 31.7867 95.7523 31.5413 95.9123 31.232C96.0829 30.912 96.1683 30.544 96.1683 30.128C96.1683 29.7227 96.0829 29.3653 95.9123 29.056C95.7523 28.736 95.5229 28.4907 95.2243 28.32C94.9363 28.1387 94.6003 28.048 94.2163 28.048C93.8216 28.048 93.4749 28.1387 93.1763 28.32C92.8883 28.5013 92.6589 28.7467 92.4883 29.056C92.3283 29.3653 92.2483 29.7227 92.2483 30.128C92.2483 30.544 92.3283 30.912 92.4883 31.232C92.6589 31.5413 92.8936 31.7867 93.1923 31.968C93.4909 32.1387 93.8269 32.224 94.2003 32.224ZM98.1363 34H96.0563V31.92L96.3923 30.032L96.0403 28.176V22.432H98.1363V34Z" fill="#121212"/>
<path d="M128.784 72H91.2156C79.983 72 69.6065 77.9959 63.9939 87.7255L45.2095 120.275C39.5968 130.004 39.5968 141.996 45.2095 151.725L63.9939 184.275C69.6065 194.004 79.983 200 91.2156 200H128.784C140.017 200 150.393 194.004 156.006 184.275L174.791 151.725C180.403 141.996 180.403 130.004 174.791 120.275L156.006 87.7255C150.393 77.9959 140.017 72 128.784 72Z" fill="#183EA9"/>
<path d="M126.121 81.0928H93.8937C84.2564 81.0928 75.3581 86.2321 70.5431 94.5853L54.4296 122.508C49.6146 130.853 49.6146 141.139 54.4296 149.485L70.5431 177.408C75.3581 185.753 84.2637 190.9 93.8937 190.9H126.121C135.758 190.9 144.656 185.761 149.471 177.408L165.585 149.485C170.4 141.139 170.4 130.853 165.585 122.508L149.471 94.5853C144.656 86.2394 135.751 81.0928 126.121 81.0928Z" stroke="white" stroke-width="1.56669" stroke-linecap="round" stroke-linejoin="round"/>
<path d="M93.2745 103.194V101.714H93.9609V97.8452H93.2745V96.3652H96.9765C97.8916 96.3652 98.5822 96.5225 99.0484 96.8371C99.5174 97.1517 99.7519 97.6207 99.7519 98.2441C99.7519 98.573 99.6704 98.8647 99.5074 99.1192C99.3472 99.3737 99.1142 99.5682 98.8082 99.7026C99.137 99.8341 99.3958 100.033 99.5846 100.299C99.7733 100.562 99.8677 100.878 99.8677 101.247C99.8677 101.873 99.6389 102.355 99.1814 102.692C98.7238 103.027 98.0689 103.194 97.2167 103.194H93.2745ZM96.7148 97.8023H96.14V99.1149H96.7148C97.2467 99.1149 97.5127 98.8961 97.5127 98.4586C97.5127 98.021 97.2467 97.8023 96.7148 97.8023ZM96.14 101.757H96.8049C97.354 101.757 97.6285 101.516 97.6285 101.032C97.6285 100.549 97.354 100.307 96.8049 100.307H96.14V101.757ZM100.494 103.194V101.907H101.116V99.9385H100.494V98.7674L103.132 98.5143V99.3937C103.301 99.082 103.534 98.8547 103.831 98.7117C104.129 98.5687 104.413 98.4972 104.685 98.4972V100.342C104.428 100.253 104.192 100.209 103.977 100.209C103.834 100.209 103.684 100.234 103.527 100.286C103.369 100.335 103.252 100.402 103.175 100.488V101.907H104.162V103.194H100.494ZM107.606 103.272C107.069 103.272 106.604 103.176 106.212 102.984C105.823 102.793 105.523 102.519 105.311 102.165C105.102 101.81 104.998 101.388 104.998 100.899C104.998 100.408 105.102 99.9843 105.311 99.6296C105.523 99.275 105.823 99.0019 106.212 98.8103C106.604 98.6159 107.069 98.5186 107.606 98.5186C108.144 98.5186 108.607 98.6159 108.996 98.8103C109.388 99.0019 109.688 99.275 109.897 99.6296C110.108 99.9843 110.214 100.408 110.214 100.899C110.214 101.388 110.108 101.81 109.897 102.165C109.688 102.519 109.388 102.793 108.996 102.984C108.607 103.176 108.144 103.272 107.606 103.272ZM107.606 102.023C107.992 102.023 108.185 101.647 108.185 100.895C108.185 100.143 107.992 99.7669 107.606 99.7669C107.22 99.7669 107.027 100.143 107.027 100.895C107.027 101.647 107.22 102.023 107.606 102.023ZM110.763 103.194V101.907H111.385V99.9385H110.763V98.7674L113.402 98.5143V99.0977C113.579 98.9118 113.8 98.7689 114.066 98.6688C114.332 98.5658 114.618 98.5143 114.924 98.5143C115.442 98.5143 115.821 98.6616 116.061 98.9562C116.304 99.2479 116.426 99.6883 116.426 100.277V101.907H117.026V103.194H114.367V100.277C114.367 100.112 114.331 99.9914 114.259 99.9171C114.188 99.8398 114.094 99.8012 113.976 99.8012C113.879 99.8012 113.782 99.8298 113.685 99.887C113.59 99.9442 113.51 100.023 113.444 100.123V101.907H113.83V103.194H110.763ZM117.592 103.194V102.079L119.652 99.6039H118.622L118.536 100.312H117.592V98.5958H122.204V99.7112L120.188 102.186H121.26L121.346 101.307H122.29V103.194H117.592ZM125.52 103.272C124.67 103.272 124.004 103.058 123.521 102.632C123.04 102.203 122.8 101.61 122.8 100.852C122.8 100.375 122.904 99.9614 123.113 99.6125C123.325 99.2636 123.619 98.9948 123.997 98.806C124.374 98.6144 124.813 98.5186 125.314 98.5186C125.803 98.5186 126.222 98.6087 126.571 98.7889C126.92 98.9662 127.186 99.215 127.369 99.5353C127.554 99.8527 127.647 100.22 127.647 100.638C127.647 100.735 127.643 100.829 127.635 100.921C127.626 101.009 127.616 101.091 127.604 101.165H124.846C124.895 101.457 125.026 101.667 125.241 101.796C125.458 101.922 125.723 101.985 126.034 101.985C126.298 101.985 126.548 101.939 126.785 101.847C127.025 101.753 127.228 101.636 127.394 101.496L127.51 101.547V102.778C127.373 102.873 127.196 102.957 126.978 103.031C126.761 103.106 126.525 103.164 126.27 103.207C126.019 103.25 125.769 103.272 125.52 103.272ZM125.425 99.5739C125.234 99.5739 125.089 99.6482 124.992 99.7969C124.895 99.9457 124.841 100.153 124.829 100.419H126.022C126.01 100.153 125.956 99.9457 125.859 99.7969C125.764 99.6482 125.62 99.5739 125.425 99.5739Z" fill="white"/>
<path d="M92.2745 180.218V178.738H92.9609V174.869H92.2745V173.389H96.1352V174.869H95.1915V178.76H96.5899L96.7615 177.16H98.1771V180.218H92.2745ZM101.407 180.295C100.558 180.295 99.8915 180.082 99.4082 179.656C98.9278 179.227 98.6875 178.634 98.6875 177.876C98.6875 177.399 98.7919 176.985 99.0007 176.636C99.2123 176.288 99.5069 176.019 99.8844 175.83C100.262 175.638 100.701 175.543 101.201 175.543C101.69 175.543 102.109 175.633 102.458 175.813C102.807 175.99 103.073 176.239 103.256 176.559C103.442 176.877 103.535 177.244 103.535 177.662C103.535 177.759 103.531 177.853 103.522 177.945C103.513 178.033 103.503 178.115 103.492 178.189H100.734C100.782 178.481 100.914 178.691 101.128 178.82C101.346 178.946 101.61 179.009 101.922 179.009C102.185 179.009 102.435 178.963 102.673 178.871C102.913 178.777 103.116 178.66 103.282 178.52L103.398 178.571V179.802C103.26 179.897 103.083 179.981 102.866 180.055C102.648 180.13 102.412 180.188 102.158 180.231C101.906 180.274 101.656 180.295 101.407 180.295ZM101.313 176.598C101.121 176.598 100.977 176.672 100.88 176.821C100.782 176.97 100.728 177.177 100.717 177.443H101.909C101.898 177.177 101.843 176.97 101.746 176.821C101.652 176.672 101.507 176.598 101.313 176.598ZM105.568 180.295C105.274 180.295 105.01 180.237 104.779 180.12C104.55 179.999 104.37 179.835 104.238 179.626C104.11 179.418 104.045 179.177 104.045 178.906C104.045 178.482 104.208 178.145 104.534 177.893C104.86 177.642 105.295 177.516 105.838 177.516C106.027 177.516 106.207 177.527 106.379 177.55C106.55 177.573 106.725 177.612 106.902 177.666V177.572C106.902 177.311 106.822 177.123 106.662 177.005C106.505 176.888 106.252 176.829 105.903 176.829C105.651 176.829 105.397 176.862 105.139 176.928C104.882 176.994 104.647 177.085 104.436 177.203L104.32 177.151V175.899C104.62 175.781 104.96 175.693 105.341 175.633C105.724 175.573 106.109 175.543 106.495 175.543C107.35 175.543 107.975 175.686 108.369 175.972C108.764 176.257 108.961 176.716 108.961 177.348V178.931H109.519V180.218H107.177L106.967 179.545C106.832 179.779 106.641 179.964 106.392 180.098C106.146 180.23 105.871 180.295 105.568 180.295ZM106.465 179.197C106.542 179.197 106.622 179.184 106.705 179.159C106.791 179.13 106.856 179.093 106.902 179.047V178.331C106.831 178.299 106.758 178.278 106.683 178.266C106.612 178.255 106.545 178.249 106.482 178.249C106.336 178.249 106.213 178.292 106.113 178.378C106.016 178.464 105.967 178.578 105.967 178.721C105.967 178.867 106.013 178.983 106.104 179.069C106.196 179.154 106.316 179.197 106.465 179.197ZM113.706 179.039C114.263 179.039 114.684 179.152 114.967 179.377C115.253 179.603 115.396 179.925 115.396 180.343C115.396 180.706 115.271 181.012 115.022 181.261C114.777 181.509 114.432 181.697 113.989 181.823C113.545 181.948 113.028 182.011 112.436 182.011C111.85 182.011 111.372 181.958 111.003 181.853C110.637 181.75 110.368 181.611 110.197 181.437C110.028 181.265 109.944 181.078 109.944 180.875C109.944 180.72 110.001 180.58 110.115 180.454C110.232 180.328 110.381 180.237 110.561 180.18C110.355 180.014 110.252 179.796 110.252 179.528C110.252 179.29 110.337 179.092 110.505 178.931C110.677 178.768 110.92 178.648 111.235 178.571C110.852 178.46 110.533 178.285 110.278 178.048C110.026 177.81 109.901 177.509 109.901 177.143C109.901 176.662 110.122 176.276 110.566 175.984C111.009 175.69 111.657 175.543 112.509 175.543C112.958 175.543 113.36 175.6 113.714 175.714L115.499 175.538V176.868H114.958C114.978 176.957 114.988 177.048 114.988 177.143C114.988 177.623 114.759 178.009 114.302 178.301C113.844 178.59 113.192 178.734 112.346 178.734C112.14 178.734 112.037 178.784 112.037 178.884C112.037 178.987 112.14 179.039 112.346 179.039H113.706ZM112.509 176.452C112.334 176.449 112.187 176.509 112.067 176.632C111.947 176.752 111.887 176.92 111.887 177.134C111.887 177.351 111.945 177.522 112.063 177.644C112.183 177.767 112.331 177.828 112.509 177.825C112.686 177.822 112.833 177.76 112.951 177.64C113.071 177.517 113.131 177.348 113.131 177.134C113.131 176.922 113.071 176.757 112.951 176.636C112.833 176.516 112.686 176.455 112.509 176.452ZM111.248 180.634C111.248 180.806 111.336 180.94 111.514 181.038C111.691 181.138 111.955 181.188 112.307 181.188C112.69 181.188 112.966 181.143 113.135 181.055C113.304 180.966 113.388 180.853 113.388 180.716C113.388 180.573 113.285 180.501 113.079 180.501H111.762C111.588 180.501 111.426 180.49 111.278 180.467C111.258 180.521 111.248 180.577 111.248 180.634ZM118.064 180.3C117.006 180.3 116.477 179.705 116.477 178.515V176.962H115.876V175.791L118.536 175.538V178.52C118.536 178.694 118.574 178.82 118.652 178.897C118.729 178.974 118.827 179.013 118.947 179.013C119.162 179.013 119.328 178.903 119.445 178.683V176.962H119.059V175.791L121.504 175.538V178.931H122.105V180.218H119.488V179.716C119.316 179.899 119.112 180.042 118.875 180.145C118.64 180.248 118.37 180.3 118.064 180.3ZM125.258 180.295C124.408 180.295 123.742 180.082 123.259 179.656C122.778 179.227 122.538 178.634 122.538 177.876C122.538 177.399 122.642 176.985 122.851 176.636C123.063 176.288 123.357 176.019 123.735 175.83C124.112 175.638 124.551 175.543 125.052 175.543C125.541 175.543 125.96 175.633 126.309 175.813C126.657 175.99 126.923 176.239 127.106 176.559C127.292 176.877 127.385 177.244 127.385 177.662C127.385 177.759 127.381 177.853 127.372 177.945C127.364 178.033 127.354 178.115 127.342 178.189H124.584C124.633 178.481 124.764 178.691 124.979 178.82C125.196 178.946 125.461 179.009 125.772 179.009C126.035 179.009 126.286 178.963 126.523 178.871C126.763 178.777 126.966 178.66 127.132 178.52L127.248 178.571V179.802C127.111 179.897 126.933 179.981 126.716 180.055C126.499 180.13 126.263 180.188 126.008 180.231C125.757 180.274 125.506 180.295 125.258 180.295ZM125.163 176.598C124.972 176.598 124.827 176.672 124.73 176.821C124.633 176.97 124.578 177.177 124.567 177.443H125.759C125.748 177.177 125.694 176.97 125.596 176.821C125.502 176.672 125.358 176.598 125.163 176.598Z" fill="white"/>
<path d="M92.1089 114.528C86.0938 114.528 81.2129 119.411 81.2129 125.429C81.2129 131.446 86.0938 136.329 92.1089 136.329C98.124 136.329 103.005 131.446 103.005 125.429C103.005 119.411 98.124 114.528 92.1089 114.528ZM92.1089 132.274C88.333 132.274 85.2669 129.206 85.2669 125.429C85.2669 121.651 88.333 118.583 92.1089 118.583C95.8848 118.583 98.9509 121.651 98.9509 125.429C98.9509 129.206 95.8848 132.274 92.1089 132.274ZM127.892 114.528C121.877 114.528 116.996 119.411 116.996 125.429C116.996 131.446 121.877 136.329 127.892 136.329C133.907 136.329 138.788 131.446 138.788 125.429C138.788 119.411 133.907 114.528 127.892 114.528ZM127.892 132.274C124.116 132.274 121.05 129.206 121.05 125.429C121.05 121.651 124.116 118.583 127.892 118.583C131.668 118.583 134.734 121.651 134.734 125.429C134.734 129.206 131.668 132.274 127.892 132.274Z" fill="#FBE98F"/>
<path d="M92.1094 111.035V130.224C92.1094 139.075 98.6001 146.403 107.074 147.714V163.871H112.928V147.714C121.409 146.403 127.893 139.067 127.893 130.224V111.035H92.1094Z" fill="url(#paint0_linear_183_35548)"/>
<path d="M92.1094 111.035V130.224C92.1094 139.075 98.6001 146.403 107.074 147.714V163.871H112.928V147.714C121.409 146.403 127.893 139.067 127.893 130.224V111.035H92.1094Z" stroke="black" stroke-width="0.732098" stroke-linecap="round" stroke-linejoin="round"/>
<path d="M127.035 164.713H92.9785C92.9785 161.557 95.5324 159.002 98.6863 159.002H121.334C124.488 159.002 127.042 161.557 127.042 164.713H127.035Z" fill="#FBE98F"/>
<path d="M115.422 126.805H104.585C102.47 126.805 100.758 125.092 100.758 122.976C100.758 120.86 102.47 119.147 104.585 119.147H115.422C117.537 119.147 119.25 120.86 119.25 122.976C119.25 125.092 117.537 126.805 115.422 126.805Z" stroke="black" stroke-width="0.732098" stroke-linecap="round" stroke-linejoin="round"/>
<path d="M128.492 112.829H91.5156C89.9862 112.829 88.7422 111.585 88.7422 110.054C88.7422 108.524 89.9862 107.28 91.5156 107.28H128.492C130.021 107.28 131.265 108.524 131.265 110.054C131.265 111.585 130.021 112.829 128.492 112.829Z" fill="#FBE98F"/>
<path d="M100.758 112.829H127.899" stroke="black" stroke-width="0.732098" stroke-linecap="round" stroke-linejoin="round"/>
<path d="M124.351 131.739C123.693 137.501 117.905 142.018 112.768 143.658" stroke="black" stroke-width="0.732098" stroke-linecap="round" stroke-linejoin="round"/>
<path d="M97.9922 162.729H123.341" stroke="black" stroke-width="0.732098" stroke-linecap="round" stroke-linejoin="round"/>
<path d="M66.248 121.482C68.8385 122.156 69.2702 122.698 69.8117 125.926C70.3532 122.698 70.785 122.156 73.3754 121.482C70.785 120.809 70.3532 120.267 69.8117 117.039C69.2702 120.267 68.8385 120.809 66.248 121.482Z" fill="white"/>
<path d="M124.336 148.694C126.926 149.368 127.358 149.91 127.9 153.138C128.441 149.91 128.873 149.368 131.463 148.694C128.873 148.021 128.441 147.479 127.9 144.25C127.358 147.479 126.926 148.021 124.336 148.694Z" fill="white"/>
<path d="M72.666 112.543C77.1956 113.722 77.964 114.674 78.908 120.318C79.852 114.674 80.6203 113.715 85.1499 112.543C80.6203 111.365 79.852 110.413 78.908 104.769C77.964 110.413 77.1956 111.372 72.666 112.543Z" fill="white"/>
<path d="M133.219 154.002C137.704 155.166 138.458 156.11 139.395 161.696C140.332 156.11 141.085 155.166 145.571 154.002C141.085 152.838 140.332 151.894 139.395 146.308C138.458 151.894 137.704 152.838 133.219 154.002Z" fill="white"/>
<path d="M80.9277 153.138C84.0816 153.958 84.6158 154.624 85.2744 158.556C85.933 154.624 86.4672 153.958 89.6211 153.138C86.4672 152.318 85.933 151.652 85.2744 147.721C84.6158 151.652 84.0816 152.318 80.9277 153.138Z" fill="white"/>
<path d="M138.896 114.527C142.05 115.347 142.585 116.014 143.243 119.945C143.902 116.014 144.436 115.347 147.59 114.527C144.436 113.707 143.902 113.041 143.243 109.11C142.585 113.041 142.05 113.707 138.896 114.527Z" fill="white"/>
<path d="M59.752 220V218.224H62.68C63.2027 218.224 63.608 218.064 63.896 217.744C64.1947 217.424 64.344 217.045 64.344 216.608C64.344 216.309 64.28 216.037 64.152 215.792C64.024 215.547 63.832 215.355 63.576 215.216C63.3307 215.067 63.032 214.992 62.68 214.992H59.752V213.232H62.44C62.888 213.232 63.2453 213.12 63.512 212.896C63.7893 212.672 63.928 212.336 63.928 211.888C63.928 211.429 63.7893 211.088 63.512 210.864C63.2453 210.64 62.888 210.528 62.44 210.528H59.752V208.752H62.696C63.4427 208.752 64.0667 208.891 64.568 209.168C65.08 209.435 65.464 209.792 65.72 210.24C65.976 210.677 66.104 211.157 66.104 211.68C66.104 212.32 65.9067 212.875 65.512 213.344C65.128 213.803 64.5627 214.144 63.816 214.368L63.912 213.664C64.744 213.899 65.384 214.288 65.832 214.832C66.2907 215.365 66.52 216.011 66.52 216.768C66.52 217.365 66.3707 217.909 66.072 218.4C65.784 218.88 65.3573 219.269 64.792 219.568C64.2373 219.856 63.56 220 62.76 220H59.752ZM58.152 220V208.752H60.312V220H58.152ZM68.0218 220V212.272H70.1178V220H68.0218ZM70.1178 215.728L69.3018 215.184C69.3978 214.235 69.6751 213.488 70.1338 212.944C70.5924 212.389 71.2538 212.112 72.1178 212.112C72.4911 212.112 72.8271 212.176 73.1258 212.304C73.4244 212.421 73.6964 212.619 73.9418 212.896L72.6298 214.4C72.5124 214.272 72.3684 214.176 72.1978 214.112C72.0378 214.048 71.8511 214.016 71.6378 214.016C71.1898 214.016 70.8218 214.16 70.5338 214.448C70.2564 214.725 70.1178 215.152 70.1178 215.728ZM78.0913 220.16C77.3126 220.16 76.6086 219.984 75.9793 219.632C75.3606 219.269 74.8646 218.784 74.4913 218.176C74.1286 217.557 73.9473 216.869 73.9473 216.112C73.9473 215.355 74.1286 214.677 74.4913 214.08C74.8539 213.472 75.3499 212.992 75.9793 212.64C76.6086 212.277 77.3073 212.096 78.0753 212.096C78.8646 212.096 79.5686 212.277 80.1873 212.64C80.8166 212.992 81.3126 213.472 81.6753 214.08C82.0379 214.677 82.2193 215.355 82.2193 216.112C82.2193 216.869 82.0379 217.557 81.6753 218.176C81.3126 218.784 80.8166 219.269 80.1873 219.632C79.5686 219.984 78.8699 220.16 78.0913 220.16ZM78.0753 218.208C78.4699 218.208 78.8166 218.123 79.1153 217.952C79.4246 217.771 79.6593 217.525 79.8193 217.216C79.9899 216.896 80.0753 216.533 80.0753 216.128C80.0753 215.723 79.9899 215.365 79.8193 215.056C79.6486 214.747 79.4139 214.507 79.1153 214.336C78.8166 214.155 78.4699 214.064 78.0753 214.064C77.6913 214.064 77.3499 214.155 77.0513 214.336C76.7526 214.507 76.5179 214.747 76.3473 215.056C76.1766 215.365 76.0913 215.723 76.0913 216.128C76.0913 216.533 76.1766 216.896 76.3473 217.216C76.5179 217.525 76.7526 217.771 77.0513 217.952C77.3499 218.123 77.6913 218.208 78.0753 218.208ZM88.7686 220V215.568C88.7686 215.109 88.6246 214.736 88.3366 214.448C88.0486 214.16 87.6753 214.016 87.2166 214.016C86.918 214.016 86.6513 214.08 86.4166 214.208C86.182 214.336 85.9953 214.517 85.8566 214.752C85.7286 214.987 85.6646 215.259 85.6646 215.568L84.8486 215.152C84.8486 214.544 84.9766 214.016 85.2326 213.568C85.4993 213.109 85.862 212.752 86.3206 212.496C86.79 212.24 87.318 212.112 87.9046 212.112C88.47 212.112 88.9766 212.256 89.4246 212.544C89.8726 212.821 90.2246 213.189 90.4806 213.648C90.7366 214.096 90.8646 214.581 90.8646 215.104V220H88.7686ZM83.5686 220V212.272H85.6646V220H83.5686ZM92.009 218.8L96.105 213.472H98.633L94.537 218.8H92.009ZM92.009 220V218.8L93.673 218.176H98.537V220H92.009ZM92.297 214.096V212.272H98.633V213.472L96.953 214.096H92.297ZM103.562 220.16C102.751 220.16 102.031 219.989 101.402 219.648C100.772 219.296 100.271 218.816 99.8975 218.208C99.5348 217.6 99.3535 216.907 99.3535 216.128C99.3535 215.36 99.5295 214.677 99.8815 214.08C100.244 213.472 100.735 212.992 101.354 212.64C101.972 212.277 102.66 212.096 103.418 212.096C104.164 212.096 104.82 212.267 105.386 212.608C105.962 212.939 106.41 213.397 106.73 213.984C107.06 214.56 107.226 215.216 107.226 215.952C107.226 216.091 107.215 216.235 107.194 216.384C107.183 216.523 107.156 216.683 107.114 216.864L100.618 216.88V215.312L106.138 215.296L105.29 215.952C105.268 215.493 105.183 215.109 105.034 214.8C104.895 214.491 104.687 214.256 104.41 214.096C104.143 213.925 103.812 213.84 103.418 213.84C103.002 213.84 102.639 213.936 102.33 214.128C102.02 214.309 101.78 214.571 101.61 214.912C101.45 215.243 101.37 215.637 101.37 216.096C101.37 216.565 101.455 216.976 101.626 217.328C101.807 217.669 102.063 217.936 102.394 218.128C102.724 218.309 103.108 218.4 103.546 218.4C103.94 218.4 104.298 218.336 104.618 218.208C104.938 218.069 105.215 217.867 105.45 217.6L106.682 218.832C106.308 219.269 105.85 219.6 105.306 219.824C104.772 220.048 104.191 220.16 103.562 220.16ZM111.871 220V208.752H114.047V220H111.871ZM113.471 220V218.064H119.199V220H113.471ZM124.03 220.16C123.22 220.16 122.5 219.989 121.87 219.648C121.241 219.296 120.74 218.816 120.366 218.208C120.004 217.6 119.822 216.907 119.822 216.128C119.822 215.36 119.998 214.677 120.35 214.08C120.713 213.472 121.204 212.992 121.822 212.64C122.441 212.277 123.129 212.096 123.886 212.096C124.633 212.096 125.289 212.267 125.854 212.608C126.43 212.939 126.878 213.397 127.198 213.984C127.529 214.56 127.694 215.216 127.694 215.952C127.694 216.091 127.684 216.235 127.662 216.384C127.652 216.523 127.625 216.683 127.582 216.864L121.086 216.88V215.312L126.606 215.296L125.758 215.952C125.737 215.493 125.652 215.109 125.502 214.8C125.364 214.491 125.156 214.256 124.878 214.096C124.612 213.925 124.281 213.84 123.886 213.84C123.47 213.84 123.108 213.936 122.798 214.128C122.489 214.309 122.249 214.571 122.078 214.912C121.918 215.243 121.838 215.637 121.838 216.096C121.838 216.565 121.924 216.976 122.094 217.328C122.276 217.669 122.532 217.936 122.862 218.128C123.193 218.309 123.577 218.4 124.014 218.4C124.409 218.4 124.766 218.336 125.086 218.208C125.406 218.069 125.684 217.867 125.918 217.6L127.15 218.832C126.777 219.269 126.318 219.6 125.774 219.824C125.241 220.048 124.66 220.16 124.03 220.16ZM132.223 220.16C131.519 220.16 130.884 219.984 130.319 219.632C129.753 219.28 129.311 218.8 128.991 218.192C128.671 217.584 128.511 216.901 128.511 216.144C128.511 215.376 128.671 214.688 128.991 214.08C129.311 213.472 129.753 212.992 130.319 212.64C130.884 212.288 131.519 212.112 132.223 212.112C132.777 212.112 133.273 212.224 133.711 212.448C134.148 212.672 134.495 212.987 134.751 213.392C135.017 213.787 135.161 214.235 135.183 214.736V217.52C135.161 218.032 135.017 218.485 134.751 218.88C134.495 219.275 134.148 219.589 133.711 219.824C133.273 220.048 132.777 220.16 132.223 220.16ZM132.607 218.224C133.193 218.224 133.668 218.032 134.031 217.648C134.393 217.253 134.575 216.747 134.575 216.128C134.575 215.723 134.489 215.365 134.319 215.056C134.159 214.736 133.929 214.491 133.631 214.32C133.343 214.139 133.001 214.048 132.607 214.048C132.223 214.048 131.881 214.139 131.583 214.32C131.295 214.491 131.065 214.736 130.895 215.056C130.735 215.365 130.655 215.723 130.655 216.128C130.655 216.544 130.735 216.912 130.895 217.232C131.065 217.541 131.295 217.787 131.583 217.968C131.881 218.139 132.223 218.224 132.607 218.224ZM134.463 220V217.92L134.799 216.032L134.463 214.176V212.272H136.543V220H134.463ZM141.629 223.424C140.807 223.424 140.082 223.275 139.453 222.976C138.823 222.688 138.322 222.277 137.949 221.744L139.277 220.416C139.575 220.768 139.906 221.035 140.269 221.216C140.642 221.408 141.09 221.504 141.613 221.504C142.263 221.504 142.775 221.339 143.149 221.008C143.533 220.677 143.725 220.219 143.725 219.632V217.696L144.077 216L143.741 214.304V212.272H145.821V219.6C145.821 220.368 145.639 221.035 145.277 221.6C144.925 222.176 144.434 222.624 143.805 222.944C143.175 223.264 142.45 223.424 141.629 223.424ZM141.533 219.792C140.839 219.792 140.215 219.627 139.661 219.296C139.106 218.955 138.669 218.491 138.349 217.904C138.039 217.317 137.885 216.661 137.885 215.936C137.885 215.211 138.039 214.56 138.349 213.984C138.669 213.408 139.106 212.955 139.661 212.624C140.215 212.283 140.839 212.112 141.533 212.112C142.109 212.112 142.615 212.224 143.053 212.448C143.501 212.672 143.853 212.981 144.109 213.376C144.365 213.76 144.503 214.213 144.525 214.736V217.168C144.503 217.68 144.359 218.139 144.093 218.544C143.837 218.939 143.485 219.248 143.037 219.472C142.599 219.685 142.098 219.792 141.533 219.792ZM141.949 217.888C142.333 217.888 142.663 217.808 142.941 217.648C143.229 217.477 143.453 217.248 143.613 216.96C143.773 216.661 143.853 216.325 143.853 215.952C143.853 215.568 143.773 215.232 143.613 214.944C143.453 214.656 143.229 214.432 142.941 214.272C142.663 214.101 142.333 214.016 141.949 214.016C141.565 214.016 141.229 214.101 140.941 214.272C140.653 214.432 140.429 214.661 140.269 214.96C140.109 215.248 140.029 215.579 140.029 215.952C140.029 216.315 140.109 216.645 140.269 216.944C140.429 217.232 140.653 217.461 140.941 217.632C141.229 217.803 141.565 217.888 141.949 217.888ZM150.958 220.16C150.276 220.16 149.668 220.016 149.134 219.728C148.612 219.44 148.201 219.04 147.902 218.528C147.604 218.016 147.454 217.424 147.454 216.752V212.272H149.566V216.704C149.566 217.024 149.62 217.301 149.726 217.536C149.833 217.76 149.993 217.931 150.206 218.048C150.42 218.165 150.67 218.224 150.958 218.224C151.396 218.224 151.737 218.091 151.982 217.824C152.228 217.557 152.35 217.184 152.35 216.704V212.272H154.446V216.752C154.446 217.435 154.297 218.032 153.998 218.544C153.71 219.056 153.3 219.456 152.766 219.744C152.244 220.021 151.641 220.16 150.958 220.16ZM159.812 220.16C159.001 220.16 158.281 219.989 157.652 219.648C157.022 219.296 156.521 218.816 156.148 218.208C155.785 217.6 155.604 216.907 155.604 216.128C155.604 215.36 155.78 214.677 156.132 214.08C156.494 213.472 156.985 212.992 157.604 212.64C158.222 212.277 158.91 212.096 159.668 212.096C160.414 212.096 161.07 212.267 161.636 212.608C162.212 212.939 162.66 213.397 162.98 213.984C163.31 214.56 163.476 215.216 163.476 215.952C163.476 216.091 163.465 216.235 163.444 216.384C163.433 216.523 163.406 216.683 163.364 216.864L156.868 216.88V215.312L162.388 215.296L161.54 215.952C161.518 215.493 161.433 215.109 161.284 214.8C161.145 214.491 160.937 214.256 160.66 214.096C160.393 213.925 160.062 213.84 159.668 213.84C159.252 213.84 158.889 213.936 158.58 214.128C158.27 214.309 158.03 214.571 157.86 214.912C157.7 215.243 157.62 215.637 157.62 216.096C157.62 216.565 157.705 216.976 157.876 217.328C158.057 217.669 158.313 217.936 158.644 218.128C158.974 218.309 159.358 218.4 159.796 218.4C160.19 218.4 160.548 218.336 160.868 218.208C161.188 218.069 161.465 217.867 161.7 217.6L162.932 218.832C162.558 219.269 162.1 219.6 161.556 219.824C161.022 220.048 160.441 220.16 159.812 220.16Z" fill="#121212"/>
<path d="M7.97 53.1C7.47 53.1 7.00667 53.01 6.58 52.83C6.15333 52.6433 5.78 52.3867 5.46 52.06C5.14667 51.7333 4.90333 51.3533 4.73 50.92C4.55667 50.4867 4.47 50.0233 4.47 49.53C4.47 49.03 4.55667 48.5633 4.73 48.13C4.90333 47.6967 5.14667 47.32 5.46 47C5.78 46.6733 6.15 46.42 6.57 46.24C6.99667 46.0533 7.46 45.96 7.96 45.96C8.50667 45.96 8.98667 46.0533 9.4 46.24C9.81333 46.4267 10.18 46.68 10.5 47L9.85 47.65C9.63 47.4033 9.36 47.21 9.04 47.07C8.72667 46.93 8.36667 46.86 7.96 46.86C7.59333 46.86 7.25667 46.9267 6.95 47.06C6.64333 47.1867 6.37667 47.37 6.15 47.61C5.92333 47.85 5.74667 48.1333 5.62 48.46C5.5 48.7867 5.44 49.1433 5.44 49.53C5.44 49.9167 5.5 50.2733 5.62 50.6C5.74667 50.9267 5.92333 51.21 6.15 51.45C6.37667 51.69 6.64333 51.8767 6.95 52.01C7.25667 52.1367 7.59333 52.2 7.96 52.2C8.39333 52.2 8.77 52.13 9.09 51.99C9.41 51.8433 9.68 51.6467 9.9 51.4L10.55 52.04C10.23 52.3733 9.85333 52.6333 9.42 52.82C8.99333 53.0067 8.51 53.1 7.97 53.1ZM13.5488 53.1C13.0821 53.1 12.6621 52.99 12.2888 52.77C11.9154 52.55 11.6188 52.2533 11.3988 51.88C11.1788 51.5 11.0688 51.0767 11.0688 50.61C11.0688 50.15 11.1788 49.7367 11.3988 49.37C11.6188 48.9967 11.9154 48.7 12.2888 48.48C12.6621 48.26 13.0821 48.15 13.5488 48.15C14.0088 48.15 14.4254 48.26 14.7988 48.48C15.1788 48.6933 15.4788 48.9867 15.6988 49.36C15.9188 49.7333 16.0288 50.15 16.0288 50.61C16.0288 51.0767 15.9188 51.5 15.6988 51.88C15.4788 52.2533 15.1788 52.55 14.7988 52.77C14.4254 52.99 14.0088 53.1 13.5488 53.1ZM13.5488 52.23C13.8488 52.23 14.1154 52.16 14.3488 52.02C14.5821 51.88 14.7654 51.69 14.8988 51.45C15.0321 51.2033 15.0988 50.9233 15.0988 50.61C15.0988 50.3033 15.0288 50.03 14.8888 49.79C14.7554 49.55 14.5721 49.3633 14.3388 49.23C14.1121 49.09 13.8488 49.02 13.5488 49.02C13.2488 49.02 12.9821 49.09 12.7488 49.23C12.5154 49.3633 12.3321 49.55 12.1988 49.79C12.0654 50.03 11.9988 50.3033 11.9988 50.61C11.9988 50.9233 12.0654 51.2033 12.1988 51.45C12.3321 51.69 12.5154 51.88 12.7488 52.02C12.9821 52.16 13.2488 52.23 13.5488 52.23ZM17.0428 53V48.25H17.9428V53H17.0428ZM20.2528 53V50.13C20.2528 49.7767 20.1428 49.5 19.9228 49.3C19.7095 49.0933 19.4395 48.99 19.1128 48.99C18.8928 48.99 18.6961 49.0367 18.5228 49.13C18.3495 49.2233 18.2095 49.3533 18.1028 49.52C17.9961 49.6867 17.9428 49.8867 17.9428 50.12L17.5728 49.94C17.5728 49.58 17.6495 49.2667 17.8028 49C17.9628 48.7333 18.1795 48.5267 18.4528 48.38C18.7261 48.2267 19.0328 48.15 19.3728 48.15C19.7061 48.15 20.0061 48.2233 20.2728 48.37C20.5461 48.5167 20.7595 48.7233 20.9128 48.99C21.0728 49.2567 21.1528 49.5733 21.1528 49.94V53H20.2528ZM23.4628 53V50.13C23.4628 49.7767 23.3528 49.5 23.1328 49.3C22.9195 49.0933 22.6528 48.99 22.3328 48.99C22.1128 48.99 21.9128 49.0367 21.7328 49.13C21.5595 49.2233 21.4195 49.3533 21.3128 49.52C21.2061 49.6867 21.1528 49.8867 21.1528 50.12L20.6428 49.94C20.6628 49.5733 20.7595 49.26 20.9328 49C21.1128 48.7333 21.3428 48.5267 21.6228 48.38C21.9028 48.2267 22.2095 48.15 22.5428 48.15C22.8895 48.15 23.1995 48.2233 23.4728 48.37C23.7461 48.5167 23.9628 48.7233 24.1228 48.99C24.2895 49.2567 24.3728 49.5767 24.3728 49.95V53H23.4628ZM28.0975 53.1C27.7375 53.1 27.4108 53.0267 27.1175 52.88C26.8308 52.7267 26.6008 52.5167 26.4275 52.25C26.2542 51.9833 26.1575 51.68 26.1375 51.34V49.91C26.1575 49.5633 26.2542 49.26 26.4275 49C26.6075 48.7333 26.8408 48.5267 27.1275 48.38C27.4208 48.2267 27.7442 48.15 28.0975 48.15C28.5308 48.15 28.9208 48.26 29.2675 48.48C29.6208 48.7 29.8975 48.9967 30.0975 49.37C30.2975 49.7433 30.3975 50.1633 30.3975 50.63C30.3975 51.0967 30.2975 51.5167 30.0975 51.89C29.8975 52.2633 29.6208 52.56 29.2675 52.78C28.9208 52.9933 28.5308 53.1 28.0975 53.1ZM27.9475 52.25C28.2475 52.25 28.5108 52.18 28.7375 52.04C28.9642 51.9 29.1442 51.71 29.2775 51.47C29.4108 51.2233 29.4775 50.94 29.4775 50.62C29.4775 50.3067 29.4108 50.0267 29.2775 49.78C29.1442 49.5333 28.9642 49.3433 28.7375 49.21C28.5108 49.07 28.2508 49 27.9575 49C27.6575 49 27.3942 49.07 27.1675 49.21C26.9408 49.3433 26.7642 49.5333 26.6375 49.78C26.5108 50.0267 26.4475 50.31 26.4475 50.63C26.4475 50.9433 26.5075 51.2233 26.6275 51.47C26.7542 51.71 26.9308 51.9 27.1575 52.04C27.3908 52.18 27.6542 52.25 27.9475 52.25ZM25.5975 54.99V48.25H26.4975V49.5L26.3275 50.65L26.4975 51.81V54.99H25.5975ZM31.4178 53V45.86H32.3178V53H31.4178ZM35.8346 53.1C35.3613 53.1 34.9346 52.9933 34.5546 52.78C34.1746 52.56 33.8746 52.2633 33.6546 51.89C33.4346 51.5167 33.3246 51.0933 33.3246 50.62C33.3246 50.1533 33.4313 49.7333 33.6446 49.36C33.8646 48.9867 34.1579 48.6933 34.5246 48.48C34.8979 48.26 35.3146 48.15 35.7746 48.15C36.2146 48.15 36.6013 48.25 36.9346 48.45C37.2746 48.65 37.5379 48.9267 37.7246 49.28C37.9179 49.6333 38.0146 50.0333 38.0146 50.48C38.0146 50.5467 38.0113 50.62 38.0046 50.7C37.9979 50.7733 37.9846 50.86 37.9646 50.96H33.9546V50.21H37.4846L37.1546 50.5C37.1546 50.18 37.0979 49.91 36.9846 49.69C36.8713 49.4633 36.7113 49.29 36.5046 49.17C36.2979 49.0433 36.0479 48.98 35.7546 48.98C35.4479 48.98 35.1779 49.0467 34.9446 49.18C34.7113 49.3133 34.5313 49.5 34.4046 49.74C34.2779 49.98 34.2146 50.2633 34.2146 50.59C34.2146 50.9233 34.2813 51.2167 34.4146 51.47C34.5479 51.7167 34.7379 51.91 34.9846 52.05C35.2313 52.1833 35.5146 52.25 35.8346 52.25C36.1013 52.25 36.3446 52.2033 36.5646 52.11C36.7913 52.0167 36.9846 51.8767 37.1446 51.69L37.7246 52.28C37.4979 52.5467 37.2179 52.75 36.8846 52.89C36.5579 53.03 36.2079 53.1 35.8346 53.1ZM39.5795 53V46.26H40.4795V53H39.5795ZM38.4095 49.07V48.25H41.6495V49.07H38.4095ZM44.5846 53.1C44.1113 53.1 43.6846 52.9933 43.3046 52.78C42.9246 52.56 42.6246 52.2633 42.4046 51.89C42.1846 51.5167 42.0746 51.0933 42.0746 50.62C42.0746 50.1533 42.1813 49.7333 42.3946 49.36C42.6146 48.9867 42.9079 48.6933 43.2746 48.48C43.6479 48.26 44.0646 48.15 44.5246 48.15C44.9646 48.15 45.3513 48.25 45.6846 48.45C46.0246 48.65 46.2879 48.9267 46.4746 49.28C46.6679 49.6333 46.7646 50.0333 46.7646 50.48C46.7646 50.5467 46.7613 50.62 46.7546 50.7C46.7479 50.7733 46.7346 50.86 46.7146 50.96H42.7046V50.21H46.2346L45.9046 50.5C45.9046 50.18 45.8479 49.91 45.7346 49.69C45.6213 49.4633 45.4613 49.29 45.2546 49.17C45.0479 49.0433 44.7979 48.98 44.5046 48.98C44.1979 48.98 43.9279 49.0467 43.6946 49.18C43.4613 49.3133 43.2813 49.5 43.1546 49.74C43.0279 49.98 42.9646 50.2633 42.9646 50.59C42.9646 50.9233 43.0313 51.2167 43.1646 51.47C43.2979 51.7167 43.4879 51.91 43.7346 52.05C43.9813 52.1833 44.2646 52.25 44.5846 52.25C44.8513 52.25 45.0946 52.2033 45.3146 52.11C45.5413 52.0167 45.7346 51.8767 45.8946 51.69L46.4746 52.28C46.2479 52.5467 45.9679 52.75 45.6346 52.89C45.3079 53.03 44.9579 53.1 44.5846 53.1ZM51.846 53.1C51.4127 53.1 51.0193 52.9933 50.666 52.78C50.3127 52.56 50.0327 52.2633 49.826 51.89C49.626 51.5167 49.526 51.0967 49.526 50.63C49.526 50.1633 49.626 49.7433 49.826 49.37C50.0327 48.9967 50.3093 48.7 50.656 48.48C51.0093 48.26 51.406 48.15 51.846 48.15C52.206 48.15 52.526 48.2267 52.806 48.38C53.0927 48.5267 53.3227 48.7333 53.496 49C53.6693 49.26 53.766 49.5633 53.786 49.91V51.34C53.766 51.68 53.6693 51.9833 53.496 52.25C53.3293 52.5167 53.1027 52.7267 52.816 52.88C52.536 53.0267 52.2127 53.1 51.846 53.1ZM51.996 52.25C52.4427 52.25 52.8027 52.1 53.076 51.8C53.3493 51.4933 53.486 51.1033 53.486 50.63C53.486 50.3033 53.4227 50.02 53.296 49.78C53.176 49.5333 53.0027 49.3433 52.776 49.21C52.5493 49.07 52.286 49 51.986 49C51.686 49 51.4193 49.07 51.186 49.21C50.9593 49.35 50.7793 49.5433 50.646 49.79C50.5193 50.03 50.456 50.3067 50.456 50.62C50.456 50.94 50.5193 51.2233 50.646 51.47C50.7793 51.71 50.9627 51.9 51.196 52.04C51.4293 52.18 51.696 52.25 51.996 52.25ZM53.426 53V51.72L53.596 50.56L53.426 49.41V48.25H54.336V53H53.426ZM57.7264 53V45.86H58.6264V53H57.7264ZM62.1432 53.1C61.6699 53.1 61.2432 52.9933 60.8632 52.78C60.4832 52.56 60.1832 52.2633 59.9632 51.89C59.7432 51.5167 59.6332 51.0933 59.6332 50.62C59.6332 50.1533 59.7399 49.7333 59.9532 49.36C60.1732 48.9867 60.4665 48.6933 60.8332 48.48C61.2065 48.26 61.6232 48.15 62.0832 48.15C62.5232 48.15 62.9099 48.25 63.2432 48.45C63.5832 48.65 63.8465 48.9267 64.0332 49.28C64.2265 49.6333 64.3232 50.0333 64.3232 50.48C64.3232 50.5467 64.3199 50.62 64.3132 50.7C64.3065 50.7733 64.2932 50.86 64.2732 50.96H60.2632V50.21H63.7932L63.4632 50.5C63.4632 50.18 63.4065 49.91 63.2932 49.69C63.1799 49.4633 63.0199 49.29 62.8132 49.17C62.6065 49.0433 62.3565 48.98 62.0632 48.98C61.7565 48.98 61.4865 49.0467 61.2532 49.18C61.0199 49.3133 60.8399 49.5 60.7132 49.74C60.5865 49.98 60.5232 50.2633 60.5232 50.59C60.5232 50.9233 60.5899 51.2167 60.7232 51.47C60.8565 51.7167 61.0465 51.91 61.2932 52.05C61.5399 52.1833 61.8232 52.25 62.1432 52.25C62.4099 52.25 62.6532 52.2033 62.8732 52.11C63.0999 52.0167 63.2932 51.8767 63.4532 51.69L64.0332 52.28C63.8065 52.5467 63.5265 52.75 63.1932 52.89C62.8665 53.03 62.5165 53.1 62.1432 53.1ZM66.8145 53.1C66.5479 53.1 66.2945 53.0667 66.0545 53C65.8212 52.9267 65.6045 52.8267 65.4045 52.7C65.2045 52.5667 65.0312 52.41 64.8845 52.23L65.4645 51.65C65.6379 51.8633 65.8379 52.0233 66.0645 52.13C66.2912 52.23 66.5445 52.28 66.8245 52.28C67.1045 52.28 67.3212 52.2333 67.4745 52.14C67.6279 52.04 67.7045 51.9033 67.7045 51.73C67.7045 51.5567 67.6412 51.4233 67.5145 51.33C67.3945 51.23 67.2379 51.15 67.0445 51.09C66.8512 51.0233 66.6445 50.96 66.4245 50.9C66.2112 50.8333 66.0079 50.75 65.8145 50.65C65.6212 50.55 65.4612 50.4133 65.3345 50.24C65.2145 50.0667 65.1545 49.8367 65.1545 49.55C65.1545 49.2633 65.2245 49.0167 65.3645 48.81C65.5045 48.5967 65.6979 48.4333 65.9445 48.32C66.1979 48.2067 66.5012 48.15 66.8545 48.15C67.2279 48.15 67.5579 48.2167 67.8445 48.35C68.1379 48.4767 68.3779 48.67 68.5645 48.93L67.9845 49.51C67.8512 49.3367 67.6845 49.2033 67.4845 49.11C67.2912 49.0167 67.0712 48.97 66.8245 48.97C66.5645 48.97 66.3645 49.0167 66.2245 49.11C66.0912 49.1967 66.0245 49.32 66.0245 49.48C66.0245 49.64 66.0845 49.7633 66.2045 49.85C66.3245 49.9367 66.4812 50.01 66.6745 50.07C66.8745 50.13 67.0812 50.1933 67.2945 50.26C67.5079 50.32 67.7112 50.4033 67.9045 50.51C68.0979 50.6167 68.2545 50.76 68.3745 50.94C68.5012 51.12 68.5645 51.3567 68.5645 51.65C68.5645 52.0967 68.4045 52.45 68.0845 52.71C67.7712 52.97 67.3479 53.1 66.8145 53.1ZM71.0821 53.1C70.8154 53.1 70.5621 53.0667 70.3221 53C70.0888 52.9267 69.8721 52.8267 69.6721 52.7C69.4721 52.5667 69.2988 52.41 69.1521 52.23L69.7321 51.65C69.9054 51.8633 70.1054 52.0233 70.3321 52.13C70.5588 52.23 70.8121 52.28 71.0921 52.28C71.3721 52.28 71.5888 52.2333 71.7421 52.14C71.8954 52.04 71.9721 51.9033 71.9721 51.73C71.9721 51.5567 71.9088 51.4233 71.7821 51.33C71.6621 51.23 71.5054 51.15 71.3121 51.09C71.1188 51.0233 70.9121 50.96 70.6921 50.9C70.4788 50.8333 70.2754 50.75 70.0821 50.65C69.8888 50.55 69.7288 50.4133 69.6021 50.24C69.4821 50.0667 69.4221 49.8367 69.4221 49.55C69.4221 49.2633 69.4921 49.0167 69.6321 48.81C69.7721 48.5967 69.9654 48.4333 70.2121 48.32C70.4654 48.2067 70.7688 48.15 71.1221 48.15C71.4954 48.15 71.8254 48.2167 72.1121 48.35C72.4054 48.4767 72.6454 48.67 72.8321 48.93L72.2521 49.51C72.1188 49.3367 71.9521 49.2033 71.7521 49.11C71.5588 49.0167 71.3388 48.97 71.0921 48.97C70.8321 48.97 70.6321 49.0167 70.4921 49.11C70.3588 49.1967 70.2921 49.32 70.2921 49.48C70.2921 49.64 70.3521 49.7633 70.4721 49.85C70.5921 49.9367 70.7488 50.01 70.9421 50.07C71.1421 50.13 71.3488 50.1933 71.5621 50.26C71.7754 50.32 71.9788 50.4033 72.1721 50.51C72.3654 50.6167 72.5221 50.76 72.6421 50.94C72.7688 51.12 72.8321 51.3567 72.8321 51.65C72.8321 52.0967 72.6721 52.45 72.3521 52.71C72.0388 52.97 71.6154 53.1 71.0821 53.1ZM76.0097 53.1C75.543 53.1 75.123 52.99 74.7497 52.77C74.3764 52.55 74.0797 52.2533 73.8597 51.88C73.6397 51.5 73.5297 51.0767 73.5297 50.61C73.5297 50.15 73.6397 49.7367 73.8597 49.37C74.0797 48.9967 74.3764 48.7 74.7497 48.48C75.123 48.26 75.543 48.15 76.0097 48.15C76.4697 48.15 76.8864 48.26 77.2597 48.48C77.6397 48.6933 77.9397 48.9867 78.1597 49.36C78.3797 49.7333 78.4897 50.15 78.4897 50.61C78.4897 51.0767 78.3797 51.5 78.1597 51.88C77.9397 52.2533 77.6397 52.55 77.2597 52.77C76.8864 52.99 76.4697 53.1 76.0097 53.1ZM76.0097 52.23C76.3097 52.23 76.5764 52.16 76.8097 52.02C77.043 51.88 77.2264 51.69 77.3597 51.45C77.493 51.2033 77.5597 50.9233 77.5597 50.61C77.5597 50.3033 77.4897 50.03 77.3497 49.79C77.2164 49.55 77.033 49.3633 76.7997 49.23C76.573 49.09 76.3097 49.02 76.0097 49.02C75.7097 49.02 75.443 49.09 75.2097 49.23C74.9764 49.3633 74.793 49.55 74.6597 49.79C74.5264 50.03 74.4597 50.3033 74.4597 50.61C74.4597 50.9233 74.5264 51.2033 74.6597 51.45C74.793 51.69 74.9764 51.88 75.2097 52.02C75.443 52.16 75.7097 52.23 76.0097 52.23ZM82.8638 53V50.23C82.8638 49.87 82.7504 49.5733 82.5238 49.34C82.2971 49.1067 82.0038 48.99 81.6438 48.99C81.4038 48.99 81.1904 49.0433 81.0038 49.15C80.8171 49.2567 80.6704 49.4033 80.5638 49.59C80.4571 49.7767 80.4038 49.99 80.4038 50.23L80.0338 50.02C80.0338 49.66 80.1138 49.34 80.2738 49.06C80.4338 48.78 80.6571 48.56 80.9438 48.4C81.2304 48.2333 81.5538 48.15 81.9138 48.15C82.2738 48.15 82.5904 48.24 82.8638 48.42C83.1438 48.6 83.3638 48.8367 83.5238 49.13C83.6838 49.4167 83.7638 49.7233 83.7638 50.05V53H82.8638ZM79.5037 53V48.25H80.4038V53H79.5037ZM87.7923 53V46.26H88.6923V53H87.7923ZM86.6223 49.07V48.25H89.8623V49.07H86.6223ZM92.7675 53.1C92.3008 53.1 91.8808 52.99 91.5075 52.77C91.1342 52.55 90.8375 52.2533 90.6175 51.88C90.3975 51.5 90.2875 51.0767 90.2875 50.61C90.2875 50.15 90.3975 49.7367 90.6175 49.37C90.8375 48.9967 91.1342 48.7 91.5075 48.48C91.8808 48.26 92.3008 48.15 92.7675 48.15C93.2275 48.15 93.6442 48.26 94.0175 48.48C94.3975 48.6933 94.6975 48.9867 94.9175 49.36C95.1375 49.7333 95.2475 50.15 95.2475 50.61C95.2475 51.0767 95.1375 51.5 94.9175 51.88C94.6975 52.2533 94.3975 52.55 94.0175 52.77C93.6442 52.99 93.2275 53.1 92.7675 53.1ZM92.7675 52.23C93.0675 52.23 93.3342 52.16 93.5675 52.02C93.8008 51.88 93.9842 51.69 94.1175 51.45C94.2508 51.2033 94.3175 50.9233 94.3175 50.61C94.3175 50.3033 94.2475 50.03 94.1075 49.79C93.9742 49.55 93.7908 49.3633 93.5575 49.23C93.3308 49.09 93.0675 49.02 92.7675 49.02C92.4675 49.02 92.2008 49.09 91.9675 49.23C91.7342 49.3633 91.5508 49.55 91.4175 49.79C91.2842 50.03 91.2175 50.3033 91.2175 50.61C91.2175 50.9233 91.2842 51.2033 91.4175 51.45C91.5508 51.69 91.7342 51.88 91.9675 52.02C92.2008 52.16 92.4675 52.23 92.7675 52.23ZM97.7416 55.09C97.435 55.09 97.1783 55.04 96.9716 54.94C96.7583 54.84 96.5683 54.6967 96.4016 54.51L96.9816 53.92C97.075 54.0333 97.1783 54.1167 97.2916 54.17C97.3983 54.2233 97.5283 54.25 97.6816 54.25C97.8816 54.25 98.055 54.1867 98.2016 54.06C98.3483 53.94 98.4216 53.7567 98.4216 53.51V48.25H99.3216V53.5C99.3216 53.8467 99.2483 54.1367 99.1016 54.37C98.955 54.6033 98.7616 54.78 98.5216 54.9C98.2816 55.0267 98.0216 55.09 97.7416 55.09ZM98.8816 47.3C98.7216 47.3 98.5883 47.2467 98.4816 47.14C98.375 47.0267 98.3216 46.8867 98.3216 46.72C98.3216 46.56 98.375 46.4267 98.4816 46.32C98.5883 46.2067 98.7216 46.15 98.8816 46.15C99.0483 46.15 99.185 46.2067 99.2916 46.32C99.3983 46.4267 99.4516 46.56 99.4516 46.72C99.4516 46.8867 99.3983 47.0267 99.2916 47.14C99.185 47.2467 99.0483 47.3 98.8816 47.3ZM102.816 53.1C102.35 53.1 101.93 52.99 101.556 52.77C101.183 52.55 100.886 52.2533 100.666 51.88C100.446 51.5 100.336 51.0767 100.336 50.61C100.336 50.15 100.446 49.7367 100.666 49.37C100.886 48.9967 101.183 48.7 101.556 48.48C101.93 48.26 102.35 48.15 102.816 48.15C103.276 48.15 103.693 48.26 104.066 48.48C104.446 48.6933 104.746 48.9867 104.966 49.36C105.186 49.7333 105.296 50.15 105.296 50.61C105.296 51.0767 105.186 51.5 104.966 51.88C104.746 52.2533 104.446 52.55 104.066 52.77C103.693 52.99 103.276 53.1 102.816 53.1ZM102.816 52.23C103.116 52.23 103.383 52.16 103.616 52.02C103.85 51.88 104.033 51.69 104.166 51.45C104.3 51.2033 104.366 50.9233 104.366 50.61C104.366 50.3033 104.296 50.03 104.156 49.79C104.023 49.55 103.84 49.3633 103.606 49.23C103.38 49.09 103.116 49.02 102.816 49.02C102.516 49.02 102.25 49.09 102.016 49.23C101.783 49.3633 101.6 49.55 101.466 49.79C101.333 50.03 101.266 50.3033 101.266 50.61C101.266 50.9233 101.333 51.2033 101.466 51.45C101.6 51.69 101.783 51.88 102.016 52.02C102.25 52.16 102.516 52.23 102.816 52.23ZM106.32 53V48.25H107.22V53H106.32ZM106.77 47.3C106.604 47.3 106.467 47.2467 106.36 47.14C106.254 47.0267 106.2 46.8867 106.2 46.72C106.2 46.56 106.254 46.4267 106.36 46.32C106.467 46.2067 106.604 46.15 106.77 46.15C106.937 46.15 107.074 46.2067 107.18 46.32C107.287 46.4267 107.34 46.56 107.34 46.72C107.34 46.8867 107.287 47.0267 107.18 47.14C107.074 47.2467 106.937 47.3 106.77 47.3ZM111.907 53V50.23C111.907 49.87 111.793 49.5733 111.567 49.34C111.34 49.1067 111.047 48.99 110.687 48.99C110.447 48.99 110.233 49.0433 110.047 49.15C109.86 49.2567 109.713 49.4033 109.607 49.59C109.5 49.7767 109.447 49.99 109.447 50.23L109.077 50.02C109.077 49.66 109.157 49.34 109.317 49.06C109.477 48.78 109.7 48.56 109.987 48.4C110.273 48.2333 110.597 48.15 110.957 48.15C111.317 48.15 111.633 48.24 111.907 48.42C112.187 48.6 112.407 48.8367 112.567 49.13C112.727 49.4167 112.807 49.7233 112.807 50.05V53H111.907ZM108.547 53V48.25H109.447V53H108.547ZM116.835 53V46.26H117.735V53H116.835ZM115.665 49.07V48.25H118.905V49.07H115.665ZM123.147 53V50.23C123.147 49.87 123.034 49.5733 122.807 49.34C122.58 49.1067 122.287 48.99 121.927 48.99C121.687 48.99 121.474 49.0433 121.287 49.15C121.1 49.2567 120.954 49.4033 120.847 49.59C120.74 49.7767 120.687 49.99 120.687 50.23L120.317 50.02C120.317 49.66 120.397 49.34 120.557 49.06C120.717 48.78 120.94 48.56 121.227 48.4C121.514 48.2333 121.837 48.15 122.197 48.15C122.557 48.15 122.874 48.23 123.147 48.39C123.427 48.55 123.647 48.7733 123.807 49.06C123.967 49.3467 124.047 49.6767 124.047 50.05V53H123.147ZM119.787 53V45.86H120.687V53H119.787ZM125.275 53V48.25H126.175V53H125.275ZM125.725 47.3C125.559 47.3 125.422 47.2467 125.315 47.14C125.209 47.0267 125.155 46.8867 125.155 46.72C125.155 46.56 125.209 46.4267 125.315 46.32C125.422 46.2067 125.559 46.15 125.725 46.15C125.892 46.15 126.029 46.2067 126.135 46.32C126.242 46.4267 126.295 46.56 126.295 46.72C126.295 46.8867 126.242 47.0267 126.135 47.14C126.029 47.2467 125.892 47.3 125.725 47.3ZM129.012 53.1C128.745 53.1 128.492 53.0667 128.252 53C128.018 52.9267 127.802 52.8267 127.602 52.7C127.402 52.5667 127.228 52.41 127.082 52.23L127.662 51.65C127.835 51.8633 128.035 52.0233 128.262 52.13C128.488 52.23 128.742 52.28 129.022 52.28C129.302 52.28 129.518 52.2333 129.672 52.14C129.825 52.04 129.902 51.9033 129.902 51.73C129.902 51.5567 129.838 51.4233 129.712 51.33C129.592 51.23 129.435 51.15 129.242 51.09C129.048 51.0233 128.842 50.96 128.622 50.9C128.408 50.8333 128.205 50.75 128.012 50.65C127.818 50.55 127.658 50.4133 127.532 50.24C127.412 50.0667 127.352 49.8367 127.352 49.55C127.352 49.2633 127.422 49.0167 127.562 48.81C127.702 48.5967 127.895 48.4333 128.142 48.32C128.395 48.2067 128.698 48.15 129.052 48.15C129.425 48.15 129.755 48.2167 130.042 48.35C130.335 48.4767 130.575 48.67 130.762 48.93L130.182 49.51C130.048 49.3367 129.882 49.2033 129.682 49.11C129.488 49.0167 129.268 48.97 129.022 48.97C128.762 48.97 128.562 49.0167 128.422 49.11C128.288 49.1967 128.222 49.32 128.222 49.48C128.222 49.64 128.282 49.7633 128.402 49.85C128.522 49.9367 128.678 50.01 128.872 50.07C129.072 50.13 129.278 50.1933 129.492 50.26C129.705 50.32 129.908 50.4033 130.102 50.51C130.295 50.6167 130.452 50.76 130.572 50.94C130.698 51.12 130.762 51.3567 130.762 51.65C130.762 52.0967 130.602 52.45 130.282 52.71C129.968 52.97 129.545 53.1 129.012 53.1ZM135.209 53L133.329 48.25H134.269L135.629 51.95H135.329L136.679 48.25H137.199L138.549 51.95H138.249L139.609 48.25H140.549L138.679 53H138.149L136.779 49.41H137.109L135.729 53H135.209ZM143.413 53.1C142.939 53.1 142.513 52.9933 142.133 52.78C141.753 52.56 141.453 52.2633 141.233 51.89C141.013 51.5167 140.903 51.0933 140.903 50.62C140.903 50.1533 141.009 49.7333 141.223 49.36C141.443 48.9867 141.736 48.6933 142.103 48.48C142.476 48.26 142.893 48.15 143.353 48.15C143.793 48.15 144.179 48.25 144.513 48.45C144.853 48.65 145.116 48.9267 145.303 49.28C145.496 49.6333 145.593 50.0333 145.593 50.48C145.593 50.5467 145.589 50.62 145.583 50.7C145.576 50.7733 145.563 50.86 145.543 50.96H141.533V50.21H145.063L144.733 50.5C144.733 50.18 144.676 49.91 144.563 49.69C144.449 49.4633 144.289 49.29 144.083 49.17C143.876 49.0433 143.626 48.98 143.333 48.98C143.026 48.98 142.756 49.0467 142.523 49.18C142.289 49.3133 142.109 49.5 141.983 49.74C141.856 49.98 141.793 50.2633 141.793 50.59C141.793 50.9233 141.859 51.2167 141.993 51.47C142.126 51.7167 142.316 51.91 142.563 52.05C142.809 52.1833 143.093 52.25 143.413 52.25C143.679 52.25 143.923 52.2033 144.143 52.11C144.369 52.0167 144.563 51.8767 144.723 51.69L145.303 52.28C145.076 52.5467 144.796 52.75 144.463 52.89C144.136 53.03 143.786 53.1 143.413 53.1ZM148.774 53.1C148.301 53.1 147.874 52.9933 147.494 52.78C147.114 52.56 146.814 52.2633 146.594 51.89C146.374 51.5167 146.264 51.0933 146.264 50.62C146.264 50.1533 146.371 49.7333 146.584 49.36C146.804 48.9867 147.097 48.6933 147.464 48.48C147.837 48.26 148.254 48.15 148.714 48.15C149.154 48.15 149.541 48.25 149.874 48.45C150.214 48.65 150.477 48.9267 150.664 49.28C150.857 49.6333 150.954 50.0333 150.954 50.48C150.954 50.5467 150.951 50.62 150.944 50.7C150.937 50.7733 150.924 50.86 150.904 50.96H146.894V50.21H150.424L150.094 50.5C150.094 50.18 150.037 49.91 149.924 49.69C149.811 49.4633 149.651 49.29 149.444 49.17C149.237 49.0433 148.987 48.98 148.694 48.98C148.387 48.98 148.117 49.0467 147.884 49.18C147.651 49.3133 147.471 49.5 147.344 49.74C147.217 49.98 147.154 50.2633 147.154 50.59C147.154 50.9233 147.221 51.2167 147.354 51.47C147.487 51.7167 147.677 51.91 147.924 52.05C148.171 52.1833 148.454 52.25 148.774 52.25C149.041 52.25 149.284 52.2033 149.504 52.11C149.731 52.0167 149.924 51.8767 150.084 51.69L150.664 52.28C150.437 52.5467 150.157 52.75 149.824 52.89C149.497 53.03 149.147 53.1 148.774 53.1ZM154.975 53L152.755 50.57L154.955 48.25H156.045L153.595 50.81L153.635 50.29L156.135 53H154.975ZM151.935 53V45.86H152.835V53H151.935ZM156.836 48.27L157.456 47.08L157.776 47C157.743 47.0733 157.699 47.1333 157.646 47.18C157.599 47.2267 157.539 47.25 157.466 47.25C157.326 47.25 157.196 47.1933 157.076 47.08C156.963 46.96 156.906 46.8133 156.906 46.64C156.906 46.4533 156.969 46.2933 157.096 46.16C157.229 46.0267 157.389 45.96 157.576 45.96C157.749 45.96 157.903 46.0267 158.036 46.16C158.169 46.2933 158.236 46.4533 158.236 46.64C158.236 46.7133 158.219 46.8033 158.186 46.91C158.159 47.01 158.103 47.1433 158.016 47.31L157.356 48.55L156.836 48.27ZM160.203 53.1C159.937 53.1 159.683 53.0667 159.443 53C159.21 52.9267 158.993 52.8267 158.793 52.7C158.593 52.5667 158.42 52.41 158.273 52.23L158.853 51.65C159.027 51.8633 159.227 52.0233 159.453 52.13C159.68 52.23 159.933 52.28 160.213 52.28C160.493 52.28 160.71 52.2333 160.863 52.14C161.017 52.04 161.093 51.9033 161.093 51.73C161.093 51.5567 161.03 51.4233 160.903 51.33C160.783 51.23 160.627 51.15 160.433 51.09C160.24 51.0233 160.033 50.96 159.813 50.9C159.6 50.8333 159.397 50.75 159.203 50.65C159.01 50.55 158.85 50.4133 158.723 50.24C158.603 50.0667 158.543 49.8367 158.543 49.55C158.543 49.2633 158.613 49.0167 158.753 48.81C158.893 48.5967 159.087 48.4333 159.333 48.32C159.587 48.2067 159.89 48.15 160.243 48.15C160.617 48.15 160.947 48.2167 161.233 48.35C161.527 48.4767 161.767 48.67 161.953 48.93L161.373 49.51C161.24 49.3367 161.073 49.2033 160.873 49.11C160.68 49.0167 160.46 48.97 160.213 48.97C159.953 48.97 159.753 49.0167 159.613 49.11C159.48 49.1967 159.413 49.32 159.413 49.48C159.413 49.64 159.473 49.7633 159.593 49.85C159.713 49.9367 159.87 50.01 160.063 50.07C160.263 50.13 160.47 50.1933 160.683 50.26C160.897 50.32 161.1 50.4033 161.293 50.51C161.487 50.6167 161.643 50.76 161.763 50.94C161.89 51.12 161.953 51.3567 161.953 51.65C161.953 52.0967 161.793 52.45 161.473 52.71C161.16 52.97 160.737 53.1 160.203 53.1ZM165.041 53V45.86H165.941V53H165.041ZM169.458 53.1C168.984 53.1 168.558 52.9933 168.178 52.78C167.798 52.56 167.498 52.2633 167.278 51.89C167.058 51.5167 166.948 51.0933 166.948 50.62C166.948 50.1533 167.054 49.7333 167.268 49.36C167.488 48.9867 167.781 48.6933 168.148 48.48C168.521 48.26 168.938 48.15 169.398 48.15C169.838 48.15 170.224 48.25 170.558 48.45C170.898 48.65 171.161 48.9267 171.348 49.28C171.541 49.6333 171.638 50.0333 171.638 50.48C171.638 50.5467 171.634 50.62 171.628 50.7C171.621 50.7733 171.608 50.86 171.588 50.96H167.578V50.21H171.108L170.778 50.5C170.778 50.18 170.721 49.91 170.608 49.69C170.494 49.4633 170.334 49.29 170.128 49.17C169.921 49.0433 169.671 48.98 169.378 48.98C169.071 48.98 168.801 49.0467 168.568 49.18C168.334 49.3133 168.154 49.5 168.028 49.74C167.901 49.98 167.838 50.2633 167.838 50.59C167.838 50.9233 167.904 51.2167 168.038 51.47C168.171 51.7167 168.361 51.91 168.608 52.05C168.854 52.1833 169.138 52.25 169.458 52.25C169.724 52.25 169.968 52.2033 170.188 52.11C170.414 52.0167 170.608 51.8767 170.768 51.69L171.348 52.28C171.121 52.5467 170.841 52.75 170.508 52.89C170.181 53.03 169.831 53.1 169.458 53.1ZM174.639 53.1C174.206 53.1 173.812 52.9933 173.459 52.78C173.106 52.56 172.826 52.2633 172.619 51.89C172.419 51.5167 172.319 51.0967 172.319 50.63C172.319 50.1633 172.419 49.7433 172.619 49.37C172.826 48.9967 173.102 48.7 173.449 48.48C173.802 48.26 174.199 48.15 174.639 48.15C174.999 48.15 175.319 48.2267 175.599 48.38C175.886 48.5267 176.116 48.7333 176.289 49C176.462 49.26 176.559 49.5633 176.579 49.91V51.34C176.559 51.68 176.462 51.9833 176.289 52.25C176.122 52.5167 175.896 52.7267 175.609 52.88C175.329 53.0267 175.006 53.1 174.639 53.1ZM174.789 52.25C175.236 52.25 175.596 52.1 175.869 51.8C176.142 51.4933 176.279 51.1033 176.279 50.63C176.279 50.3033 176.216 50.02 176.089 49.78C175.969 49.5333 175.796 49.3433 175.569 49.21C175.342 49.07 175.079 49 174.779 49C174.479 49 174.212 49.07 173.979 49.21C173.752 49.35 173.572 49.5433 173.439 49.79C173.312 50.03 173.249 50.3067 173.249 50.62C173.249 50.94 173.312 51.2233 173.439 51.47C173.572 51.71 173.756 51.9 173.989 52.04C174.222 52.18 174.489 52.25 174.789 52.25ZM176.219 53V51.72L176.389 50.56L176.219 49.41V48.25H177.129V53H176.219ZM180.449 53.1C180.009 53.1 179.616 52.9933 179.269 52.78C178.923 52.56 178.646 52.2633 178.439 51.89C178.239 51.5167 178.139 51.0967 178.139 50.63C178.139 50.1633 178.239 49.7433 178.439 49.37C178.646 48.9967 178.923 48.7 179.269 48.48C179.616 48.26 180.009 48.15 180.449 48.15C180.803 48.15 181.123 48.2267 181.409 48.38C181.696 48.5267 181.926 48.7333 182.099 49C182.279 49.26 182.379 49.5633 182.399 49.91V51.34C182.379 51.68 182.283 51.9833 182.109 52.25C181.936 52.5167 181.706 52.7267 181.419 52.88C181.133 53.0267 180.809 53.1 180.449 53.1ZM180.599 52.25C180.899 52.25 181.159 52.18 181.379 52.04C181.606 51.9 181.783 51.71 181.909 51.47C182.036 51.2233 182.099 50.9433 182.099 50.63C182.099 50.3033 182.033 50.02 181.899 49.78C181.773 49.54 181.596 49.35 181.369 49.21C181.149 49.07 180.889 49 180.589 49C180.289 49 180.026 49.07 179.799 49.21C179.573 49.35 179.393 49.5433 179.259 49.79C179.133 50.03 179.069 50.3067 179.069 50.62C179.069 50.94 179.133 51.2233 179.259 51.47C179.393 51.71 179.573 51.9 179.799 52.04C180.033 52.18 180.299 52.25 180.599 52.25ZM182.949 53H182.039V51.72L182.209 50.56L182.039 49.41V45.86H182.949V53ZM186.46 53.1C185.986 53.1 185.56 52.9933 185.18 52.78C184.8 52.56 184.5 52.2633 184.28 51.89C184.06 51.5167 183.95 51.0933 183.95 50.62C183.95 50.1533 184.056 49.7333 184.27 49.36C184.49 48.9867 184.783 48.6933 185.15 48.48C185.523 48.26 185.94 48.15 186.4 48.15C186.84 48.15 187.226 48.25 187.56 48.45C187.9 48.65 188.163 48.9267 188.35 49.28C188.543 49.6333 188.64 50.0333 188.64 50.48C188.64 50.5467 188.636 50.62 188.63 50.7C188.623 50.7733 188.61 50.86 188.59 50.96H184.58V50.21H188.11L187.78 50.5C187.78 50.18 187.723 49.91 187.61 49.69C187.496 49.4633 187.336 49.29 187.13 49.17C186.923 49.0433 186.673 48.98 186.38 48.98C186.073 48.98 185.803 49.0467 185.57 49.18C185.336 49.3133 185.156 49.5 185.03 49.74C184.903 49.98 184.84 50.2633 184.84 50.59C184.84 50.9233 184.906 51.2167 185.04 51.47C185.173 51.7167 185.363 51.91 185.61 52.05C185.856 52.1833 186.14 52.25 186.46 52.25C186.726 52.25 186.97 52.2033 187.19 52.11C187.416 52.0167 187.61 51.8767 187.77 51.69L188.35 52.28C188.123 52.5467 187.843 52.75 187.51 52.89C187.183 53.03 186.833 53.1 186.46 53.1ZM189.621 53V48.25H190.521V53H189.621ZM190.521 50.29L190.181 50.14C190.181 49.5333 190.321 49.05 190.601 48.69C190.881 48.33 191.284 48.15 191.811 48.15C192.051 48.15 192.268 48.1933 192.461 48.28C192.654 48.36 192.834 48.4967 193.001 48.69L192.411 49.3C192.311 49.1933 192.201 49.1167 192.081 49.07C191.961 49.0233 191.821 49 191.661 49C191.328 49 191.054 49.1067 190.841 49.32C190.628 49.5333 190.521 49.8567 190.521 50.29ZM196.027 53.1C195.667 53.1 195.341 53.0267 195.047 52.88C194.761 52.7267 194.531 52.5167 194.357 52.25C194.184 51.9833 194.087 51.68 194.067 51.34V49.91C194.087 49.5633 194.184 49.26 194.357 49C194.537 48.7333 194.771 48.5267 195.057 48.38C195.351 48.2267 195.674 48.15 196.027 48.15C196.461 48.15 196.851 48.26 197.197 48.48C197.551 48.7 197.827 48.9967 198.027 49.37C198.227 49.7433 198.327 50.1633 198.327 50.63C198.327 51.0967 198.227 51.5167 198.027 51.89C197.827 52.2633 197.551 52.56 197.197 52.78C196.851 52.9933 196.461 53.1 196.027 53.1ZM195.877 52.25C196.177 52.25 196.441 52.18 196.667 52.04C196.894 51.9 197.074 51.71 197.207 51.47C197.341 51.2233 197.407 50.94 197.407 50.62C197.407 50.3067 197.341 50.0267 197.207 49.78C197.074 49.5333 196.894 49.3433 196.667 49.21C196.441 49.07 196.181 49 195.887 49C195.587 49 195.324 49.07 195.097 49.21C194.871 49.3433 194.694 49.5333 194.567 49.78C194.441 50.0267 194.377 50.31 194.377 50.63C194.377 50.9433 194.437 51.2233 194.557 51.47C194.684 51.71 194.861 51.9 195.087 52.04C195.321 52.18 195.584 52.25 195.877 52.25ZM193.527 53V45.86H194.427V49.41L194.257 50.56L194.427 51.72V53H193.527ZM201.518 53.1C201.051 53.1 200.631 52.99 200.258 52.77C199.884 52.55 199.588 52.2533 199.368 51.88C199.148 51.5 199.038 51.0767 199.038 50.61C199.038 50.15 199.148 49.7367 199.368 49.37C199.588 48.9967 199.884 48.7 200.258 48.48C200.631 48.26 201.051 48.15 201.518 48.15C201.978 48.15 202.394 48.26 202.768 48.48C203.148 48.6933 203.448 48.9867 203.668 49.36C203.888 49.7333 203.998 50.15 203.998 50.61C203.998 51.0767 203.888 51.5 203.668 51.88C203.448 52.2533 203.148 52.55 202.768 52.77C202.394 52.99 201.978 53.1 201.518 53.1ZM201.518 52.23C201.818 52.23 202.084 52.16 202.318 52.02C202.551 51.88 202.734 51.69 202.868 51.45C203.001 51.2033 203.068 50.9233 203.068 50.61C203.068 50.3033 202.998 50.03 202.858 49.79C202.724 49.55 202.541 49.3633 202.308 49.23C202.081 49.09 201.818 49.02 201.518 49.02C201.218 49.02 200.951 49.09 200.718 49.23C200.484 49.3633 200.301 49.55 200.168 49.79C200.034 50.03 199.968 50.3033 199.968 50.61C199.968 50.9233 200.034 51.2033 200.168 51.45C200.301 51.69 200.484 51.88 200.718 52.02C200.951 52.16 201.218 52.23 201.518 52.23ZM207.032 53.1C206.598 53.1 206.205 52.9933 205.852 52.78C205.498 52.56 205.218 52.2633 205.012 51.89C204.812 51.5167 204.712 51.0967 204.712 50.63C204.712 50.1633 204.812 49.7433 205.012 49.37C205.218 48.9967 205.495 48.7 205.842 48.48C206.195 48.26 206.592 48.15 207.032 48.15C207.392 48.15 207.712 48.2267 207.992 48.38C208.278 48.5267 208.508 48.7333 208.682 49C208.855 49.26 208.952 49.5633 208.972 49.91V51.34C208.952 51.68 208.855 51.9833 208.682 52.25C208.515 52.5167 208.288 52.7267 208.002 52.88C207.722 53.0267 207.398 53.1 207.032 53.1ZM207.182 52.25C207.628 52.25 207.988 52.1 208.262 51.8C208.535 51.4933 208.672 51.1033 208.672 50.63C208.672 50.3033 208.608 50.02 208.482 49.78C208.362 49.5333 208.188 49.3433 207.962 49.21C207.735 49.07 207.472 49 207.172 49C206.872 49 206.605 49.07 206.372 49.21C206.145 49.35 205.965 49.5433 205.832 49.79C205.705 50.03 205.642 50.3067 205.642 50.62C205.642 50.94 205.705 51.2233 205.832 51.47C205.965 51.71 206.148 51.9 206.382 52.04C206.615 52.18 206.882 52.25 207.182 52.25ZM208.612 53V51.72L208.782 50.56L208.612 49.41V48.25H209.522V53H208.612ZM210.832 53V48.25H211.732V53H210.832ZM211.732 50.29L211.392 50.14C211.392 49.5333 211.532 49.05 211.812 48.69C212.092 48.33 212.495 48.15 213.022 48.15C213.262 48.15 213.479 48.1933 213.672 48.28C213.865 48.36 214.045 48.4967 214.212 48.69L213.622 49.3C213.522 49.1933 213.412 49.1167 213.292 49.07C213.172 49.0233 213.032 49 212.872 49C212.539 49 212.265 49.1067 212.052 49.32C211.839 49.5333 211.732 49.8567 211.732 50.29ZM216.699 53.1C216.259 53.1 215.866 52.9933 215.519 52.78C215.173 52.56 214.896 52.2633 214.689 51.89C214.489 51.5167 214.389 51.0967 214.389 50.63C214.389 50.1633 214.489 49.7433 214.689 49.37C214.896 48.9967 215.173 48.7 215.519 48.48C215.866 48.26 216.259 48.15 216.699 48.15C217.053 48.15 217.373 48.2267 217.659 48.38C217.946 48.5267 218.176 48.7333 218.349 49C218.529 49.26 218.629 49.5633 218.649 49.91V51.34C218.629 51.68 218.533 51.9833 218.359 52.25C218.186 52.5167 217.956 52.7267 217.669 52.88C217.383 53.0267 217.059 53.1 216.699 53.1ZM216.849 52.25C217.149 52.25 217.409 52.18 217.629 52.04C217.856 51.9 218.033 51.71 218.159 51.47C218.286 51.2233 218.349 50.9433 218.349 50.63C218.349 50.3033 218.283 50.02 218.149 49.78C218.023 49.54 217.846 49.35 217.619 49.21C217.399 49.07 217.139 49 216.839 49C216.539 49 216.276 49.07 216.049 49.21C215.823 49.35 215.643 49.5433 215.509 49.79C215.383 50.03 215.319 50.3067 215.319 50.62C215.319 50.94 215.383 51.2233 215.509 51.47C215.643 51.71 215.823 51.9 216.049 52.04C216.283 52.18 216.549 52.25 216.849 52.25ZM219.199 53H218.289V51.72L218.459 50.56L218.289 49.41V45.86H219.199V53Z" fill="#121212" fill-opacity="0.7"/>
<defs>
<linearGradient id="paint0_linear_183_35548" x1="110.008" y1="125.289" x2="110.008" y2="162.773" gradientUnits="userSpaceOnUse">
<stop stop-color="#FBE98F"/>
<stop offset="1" stop-color="#FF9933"/>
</linearGradient>
</defs>
</svg>
