<svg width="246" height="243" viewBox="0 0 246 243" fill="none" xmlns="http://www.w3.org/2000/svg">
<rect x="0.839349" y="0.622063" width="244.321" height="241.321" rx="9.66065" fill="white"/>
<rect x="0.839349" y="0.622063" width="244.321" height="241.321" rx="9.66065" stroke="#EAEBF0" stroke-width="0.678697"/>
<rect x="17.5" y="206.283" width="20" height="20" rx="10" fill="#0530A1"/>
<path d="M25 216.283L26.7678 218.05L30.3029 214.515" stroke="white" stroke-width="0.925926" stroke-linecap="round" stroke-linejoin="round"/>
<path d="M23.412 197.283V188.883H24.372L27.864 194.631H27.24L30.732 188.883H31.692V197.283H30.312V191.307L30.624 191.391L28.032 195.651H27.072L24.48 191.391L24.792 191.307V197.283H23.412Z" fill="black" fill-opacity="0.3"/>
<rect x="48.5" y="206.283" width="20" height="20" rx="10" fill="#0530A1"/>
<path d="M56 216.283L57.7678 218.05L61.3029 214.515" stroke="white" stroke-width="0.925926" stroke-linecap="round" stroke-linejoin="round"/>
<path d="M57.524 197.283V189.123H58.904V197.283H57.524ZM54.788 190.143V188.883H61.64V190.143H54.788Z" fill="black" fill-opacity="0.3"/>
<rect x="81.5" y="206.283" width="20" height="20" rx="10" fill="#0530A1"/>
<path d="M89 216.283L90.7678 218.05L94.3029 214.515" stroke="white" stroke-width="0.925926" stroke-linecap="round" stroke-linejoin="round"/>
<path d="M88.572 197.283L85.812 188.883H87.168L89.244 195.351H88.884L90.912 188.883H91.872L93.9 195.351H93.54L95.616 188.883H96.972L94.212 197.283H93.252L91.212 190.827H91.572L89.532 197.283H88.572Z" fill="black" fill-opacity="0.3"/>
<rect x="113.5" y="206.283" width="20" height="20" rx="10" fill="#0530A1"/>
<path d="M121 216.283L122.768 218.05L126.303 214.515" stroke="white" stroke-width="0.925926" stroke-linecap="round" stroke-linejoin="round"/>
<path d="M122.524 197.283V189.123H123.904V197.283H122.524ZM119.788 190.143V188.883H126.64V190.143H119.788Z" fill="black" fill-opacity="0.3"/>
<path d="M148.836 219.467L151.932 216.179C152.188 215.907 152.396 215.663 152.556 215.447C152.716 215.231 152.832 215.027 152.904 214.835C152.976 214.643 153.012 214.447 153.012 214.247C153.012 213.871 152.888 213.579 152.64 213.371C152.4 213.155 152.092 213.047 151.716 213.047C151.316 213.047 150.964 213.147 150.66 213.347C150.356 213.547 150.084 213.859 149.844 214.283L148.884 213.491C149.212 212.923 149.616 212.495 150.096 212.207C150.576 211.911 151.132 211.763 151.764 211.763C152.284 211.763 152.74 211.867 153.132 212.075C153.524 212.283 153.828 212.575 154.044 212.951C154.26 213.319 154.368 213.747 154.368 214.235C154.368 214.587 154.324 214.903 154.236 215.183C154.156 215.455 154.016 215.731 153.816 216.011C153.616 216.283 153.34 216.603 152.988 216.971L150.612 219.431L148.836 219.467ZM148.836 220.283V219.467L150.024 219.047H154.536V220.283H148.836ZM155.328 217.283L158.316 211.883H159.876L156.816 217.283H155.328ZM155.328 218.123V217.283L155.916 216.887H161.844V218.123H155.328ZM159.312 220.283V214.787H160.668V220.283H159.312Z" fill="black"/>
<path d="M153.412 197.283V188.883H154.792V197.283H153.412ZM154.36 193.683V192.423H158.632V193.683H154.36ZM154.36 190.143V188.883H158.836V190.143H154.36Z" fill="black"/>
<path d="M180.836 219.467L183.932 216.179C184.188 215.907 184.396 215.663 184.556 215.447C184.716 215.231 184.832 215.027 184.904 214.835C184.976 214.643 185.012 214.447 185.012 214.247C185.012 213.871 184.888 213.579 184.64 213.371C184.4 213.155 184.092 213.047 183.716 213.047C183.316 213.047 182.964 213.147 182.66 213.347C182.356 213.547 182.084 213.859 181.844 214.283L180.884 213.491C181.212 212.923 181.616 212.495 182.096 212.207C182.576 211.911 183.132 211.763 183.764 211.763C184.284 211.763 184.74 211.867 185.132 212.075C185.524 212.283 185.828 212.575 186.044 212.951C186.26 213.319 186.368 213.747 186.368 214.235C186.368 214.587 186.324 214.903 186.236 215.183C186.156 215.455 186.016 215.731 185.816 216.011C185.616 216.283 185.34 216.603 184.988 216.971L182.612 219.431L180.836 219.467ZM180.836 220.283V219.467L182.024 219.047H186.536V220.283H180.836ZM189.956 220.403C189.372 220.403 188.852 220.303 188.396 220.103C187.94 219.895 187.556 219.595 187.244 219.203L188.18 218.267C188.348 218.523 188.584 218.727 188.888 218.879C189.2 219.031 189.548 219.107 189.932 219.107C190.284 219.107 190.592 219.043 190.856 218.915C191.12 218.787 191.328 218.603 191.48 218.363C191.632 218.123 191.708 217.839 191.708 217.511C191.708 217.167 191.632 216.883 191.48 216.659C191.336 216.427 191.14 216.255 190.892 216.143C190.652 216.023 190.392 215.963 190.112 215.963C189.792 215.963 189.504 215.999 189.248 216.071C189 216.143 188.756 216.271 188.516 216.455L188.552 215.591C188.68 215.423 188.828 215.287 188.996 215.183C189.164 215.071 189.36 214.987 189.584 214.931C189.808 214.875 190.072 214.847 190.376 214.847C190.968 214.847 191.464 214.971 191.864 215.219C192.272 215.467 192.58 215.799 192.788 216.215C192.996 216.623 193.1 217.079 193.1 217.583C193.1 218.127 192.964 218.611 192.692 219.035C192.428 219.459 192.06 219.795 191.588 220.043C191.116 220.283 190.572 220.403 189.956 220.403ZM188.516 216.455L187.76 215.699L188.132 211.883H189.392L188.96 215.855L188.516 216.455ZM188.372 213.119L188.132 211.883H192.632V213.119H188.372Z" fill="black"/>
<path d="M187.752 197.403C187.088 197.403 186.524 197.283 186.06 197.043C185.596 196.803 185.18 196.451 184.812 195.987L185.748 195.051C185.98 195.387 186.256 195.651 186.576 195.843C186.896 196.027 187.304 196.119 187.8 196.119C188.264 196.119 188.632 196.023 188.904 195.831C189.184 195.639 189.324 195.375 189.324 195.039C189.324 194.759 189.252 194.531 189.108 194.355C188.964 194.179 188.772 194.035 188.532 193.923C188.3 193.803 188.04 193.699 187.752 193.611C187.472 193.515 187.188 193.411 186.9 193.299C186.62 193.179 186.36 193.031 186.12 192.855C185.888 192.679 185.7 192.451 185.556 192.171C185.412 191.891 185.34 191.535 185.34 191.103C185.34 190.607 185.46 190.187 185.7 189.843C185.948 189.491 186.28 189.223 186.696 189.039C187.112 188.855 187.576 188.763 188.088 188.763C188.64 188.763 189.132 188.871 189.564 189.087C190.004 189.303 190.36 189.579 190.632 189.915L189.696 190.851C189.456 190.579 189.204 190.379 188.94 190.251C188.684 190.115 188.388 190.047 188.052 190.047C187.636 190.047 187.308 190.131 187.068 190.299C186.836 190.467 186.72 190.703 186.72 191.007C186.72 191.263 186.792 191.471 186.936 191.631C187.08 191.783 187.268 191.915 187.5 192.027C187.74 192.131 188 192.231 188.28 192.327C188.568 192.423 188.852 192.531 189.132 192.651C189.42 192.771 189.68 192.927 189.912 193.119C190.152 193.303 190.344 193.543 190.488 193.839C190.632 194.135 190.704 194.507 190.704 194.955C190.704 195.707 190.436 196.303 189.9 196.743C189.372 197.183 188.656 197.403 187.752 197.403Z" fill="black" fill-opacity="0.3"/>
<path d="M212.836 219.467L215.932 216.179C216.188 215.907 216.396 215.663 216.556 215.447C216.716 215.231 216.832 215.027 216.904 214.835C216.976 214.643 217.012 214.447 217.012 214.247C217.012 213.871 216.888 213.579 216.64 213.371C216.4 213.155 216.092 213.047 215.716 213.047C215.316 213.047 214.964 213.147 214.66 213.347C214.356 213.547 214.084 213.859 213.844 214.283L212.884 213.491C213.212 212.923 213.616 212.495 214.096 212.207C214.576 211.911 215.132 211.763 215.764 211.763C216.284 211.763 216.74 211.867 217.132 212.075C217.524 212.283 217.828 212.575 218.044 212.951C218.26 213.319 218.368 213.747 218.368 214.235C218.368 214.587 218.324 214.903 218.236 215.183C218.156 215.455 218.016 215.731 217.816 216.011C217.616 216.283 217.34 216.603 216.988 216.971L214.612 219.431L212.836 219.467ZM212.836 220.283V219.467L214.024 219.047H218.536V220.283H212.836ZM222.364 220.403C221.804 220.403 221.3 220.275 220.852 220.019C220.404 219.755 220.048 219.403 219.784 218.963C219.528 218.523 219.4 218.035 219.4 217.499C219.4 216.731 219.668 215.955 220.204 215.171L222.496 211.883H224.092L221.644 215.327L221.14 215.627C221.22 215.443 221.32 215.287 221.44 215.159C221.568 215.023 221.732 214.919 221.932 214.847C222.14 214.775 222.396 214.739 222.7 214.739C223.188 214.739 223.628 214.855 224.02 215.087C224.42 215.311 224.74 215.627 224.98 216.035C225.22 216.435 225.34 216.907 225.34 217.451C225.34 217.995 225.208 218.491 224.944 218.939C224.68 219.387 224.32 219.743 223.864 220.007C223.416 220.271 222.916 220.403 222.364 220.403ZM222.364 219.107C222.668 219.107 222.94 219.035 223.18 218.891C223.42 218.747 223.608 218.551 223.744 218.303C223.888 218.047 223.96 217.763 223.96 217.451C223.96 217.139 223.888 216.859 223.744 216.611C223.608 216.363 223.42 216.171 223.18 216.035C222.94 215.891 222.668 215.819 222.364 215.819C222.06 215.819 221.788 215.891 221.548 216.035C221.308 216.179 221.12 216.375 220.984 216.623C220.848 216.863 220.78 217.139 220.78 217.451C220.78 217.763 220.848 218.047 220.984 218.303C221.12 218.551 221.308 218.747 221.548 218.891C221.788 219.035 222.06 219.107 222.364 219.107Z" fill="black" fill-opacity="0.3"/>
<path d="M219.752 197.403C219.088 197.403 218.524 197.283 218.06 197.043C217.596 196.803 217.18 196.451 216.812 195.987L217.748 195.051C217.98 195.387 218.256 195.651 218.576 195.843C218.896 196.027 219.304 196.119 219.8 196.119C220.264 196.119 220.632 196.023 220.904 195.831C221.184 195.639 221.324 195.375 221.324 195.039C221.324 194.759 221.252 194.531 221.108 194.355C220.964 194.179 220.772 194.035 220.532 193.923C220.3 193.803 220.04 193.699 219.752 193.611C219.472 193.515 219.188 193.411 218.9 193.299C218.62 193.179 218.36 193.031 218.12 192.855C217.888 192.679 217.7 192.451 217.556 192.171C217.412 191.891 217.34 191.535 217.34 191.103C217.34 190.607 217.46 190.187 217.7 189.843C217.948 189.491 218.28 189.223 218.696 189.039C219.112 188.855 219.576 188.763 220.088 188.763C220.64 188.763 221.132 188.871 221.564 189.087C222.004 189.303 222.36 189.579 222.632 189.915L221.696 190.851C221.456 190.579 221.204 190.379 220.94 190.251C220.684 190.115 220.388 190.047 220.052 190.047C219.636 190.047 219.308 190.131 219.068 190.299C218.836 190.467 218.72 190.703 218.72 191.007C218.72 191.263 218.792 191.471 218.936 191.631C219.08 191.783 219.268 191.915 219.5 192.027C219.74 192.131 220 192.231 220.28 192.327C220.568 192.423 220.852 192.531 221.132 192.651C221.42 192.771 221.68 192.927 221.912 193.119C222.152 193.303 222.344 193.543 222.488 193.839C222.632 194.135 222.704 194.507 222.704 194.955C222.704 195.707 222.436 196.303 221.9 196.743C221.372 197.183 220.656 197.403 219.752 197.403Z" fill="black" fill-opacity="0.3"/>
<rect x="74.2965" y="17.4268" width="98.3972" height="98.3972" rx="49.1986" stroke="#EAEBF0" stroke-width="2.04994"/>
<path fill-rule="evenodd" clip-rule="evenodd" d="M124.245 90.1143C111.751 90.1143 103.531 79.5443 104.763 68.0404C105.775 58.5824 116.496 45.3665 122.36 41.0097C123.192 40.3911 124.074 41.152 123.883 42.2192C122.36 47.0556 121.734 53.7065 127.557 56.9646C128.065 57.2548 128.699 57.1241 129.016 56.6094C129.89 55.1912 130.252 53.3013 130.402 51.7055C130.511 50.5393 131.641 49.9195 132.397 50.7654C135.859 54.6397 140.312 62.6998 141.475 66.5181C143.462 73.0407 144.635 90.1143 124.245 90.1143ZM123.724 82.0359C118.115 82.0359 115.865 77.7388 116.58 74.2097C117.252 70.8903 121.289 66.0214 123.16 64.004C123.455 63.6863 123.962 63.7146 124.244 64.0431C124.401 64.2258 124.58 64.4302 124.775 64.6537C126.706 66.8674 130.265 70.9461 130.906 74.1578C131.622 77.7388 129.337 82.0359 123.724 82.0359Z" fill="#FE5E52"/>
<g clip-path="url(#clip0_279_1653)">
<rect width="37" height="40" transform="translate(104.5 95.2827)" fill="white"/>
<path d="M110.748 129.539L123.468 116.243C124.364 115.283 125.084 114.435 125.628 113.699C126.204 112.931 126.62 112.211 126.876 111.539C127.132 110.835 127.26 110.131 127.26 109.427C127.26 108.019 126.796 106.915 125.868 106.115C124.972 105.315 123.804 104.915 122.364 104.915C120.892 104.915 119.58 105.299 118.428 106.067C117.308 106.835 116.252 108.051 115.26 109.715L110.796 105.923C112.14 103.651 113.804 101.939 115.788 100.787C117.804 99.6027 120.108 99.0107 122.7 99.0107C124.908 99.0107 126.828 99.4427 128.46 100.307C130.124 101.171 131.404 102.371 132.3 103.907C133.196 105.443 133.644 107.235 133.644 109.283C133.644 110.659 133.468 111.907 133.116 113.027C132.796 114.147 132.236 115.267 131.436 116.387C130.668 117.475 129.596 118.707 128.22 120.083L118.956 129.539H110.748ZM110.748 133.283V129.539L116.316 127.619H134.364V133.283H110.748Z" fill="black"/>
</g>
<path d="M81.5 153.283L77.852 142.035H79.996L82.7 150.691H81.98L84.636 142.035H86.252L88.908 150.691H88.172L90.892 142.035H93.036L89.372 153.283H87.756L85.084 144.643H85.788L83.132 153.283H81.5ZM96.9365 153.443C96.1258 153.443 95.4058 153.272 94.7765 152.931C94.1472 152.579 93.6458 152.099 93.2725 151.491C92.9098 150.883 92.7285 150.189 92.7285 149.411C92.7285 148.643 92.9045 147.96 93.2565 147.363C93.6192 146.755 94.1098 146.275 94.7285 145.923C95.3472 145.56 96.0352 145.379 96.7925 145.379C97.5392 145.379 98.1952 145.549 98.7605 145.891C99.3365 146.221 99.7845 146.68 100.105 147.267C100.435 147.843 100.601 148.499 100.601 149.235C100.601 149.373 100.59 149.517 100.569 149.667C100.558 149.805 100.531 149.965 100.489 150.147L93.9925 150.163V148.595L99.5125 148.579L98.6645 149.235C98.6432 148.776 98.5578 148.392 98.4085 148.083C98.2698 147.773 98.0618 147.539 97.7845 147.379C97.5178 147.208 97.1872 147.123 96.7925 147.123C96.3765 147.123 96.0138 147.219 95.7045 147.411C95.3952 147.592 95.1552 147.853 94.9845 148.195C94.8245 148.525 94.7445 148.92 94.7445 149.379C94.7445 149.848 94.8298 150.259 95.0005 150.611C95.1818 150.952 95.4378 151.219 95.7685 151.411C96.0992 151.592 96.4832 151.683 96.9205 151.683C97.3152 151.683 97.6725 151.619 97.9925 151.491C98.3125 151.352 98.5898 151.149 98.8245 150.883L100.057 152.115C99.6832 152.552 99.2245 152.883 98.6805 153.107C98.1472 153.331 97.5658 153.443 96.9365 153.443ZM105.593 153.443C104.782 153.443 104.062 153.272 103.433 152.931C102.803 152.579 102.302 152.099 101.929 151.491C101.566 150.883 101.385 150.189 101.385 149.411C101.385 148.643 101.561 147.96 101.913 147.363C102.275 146.755 102.766 146.275 103.385 145.923C104.003 145.56 104.691 145.379 105.449 145.379C106.195 145.379 106.851 145.549 107.417 145.891C107.993 146.221 108.441 146.68 108.761 147.267C109.091 147.843 109.257 148.499 109.257 149.235C109.257 149.373 109.246 149.517 109.225 149.667C109.214 149.805 109.187 149.965 109.145 150.147L102.649 150.163V148.595L108.169 148.579L107.321 149.235C107.299 148.776 107.214 148.392 107.065 148.083C106.926 147.773 106.718 147.539 106.441 147.379C106.174 147.208 105.843 147.123 105.449 147.123C105.033 147.123 104.67 147.219 104.361 147.411C104.051 147.592 103.811 147.853 103.641 148.195C103.481 148.525 103.401 148.92 103.401 149.379C103.401 149.848 103.486 150.259 103.657 150.611C103.838 150.952 104.094 151.219 104.425 151.411C104.755 151.592 105.139 151.683 105.577 151.683C105.971 151.683 106.329 151.619 106.649 151.491C106.969 151.352 107.246 151.149 107.481 150.883L108.713 152.115C108.339 152.552 107.881 152.883 107.337 153.107C106.803 153.331 106.222 153.443 105.593 153.443ZM115.481 153.283L112.489 149.299L115.465 145.555H117.881L114.393 149.779L114.473 148.755L118.041 153.283H115.481ZM110.553 153.283V141.715H112.649V153.283H110.553ZM125.619 153.443C124.712 153.443 123.934 153.288 123.283 152.979C122.643 152.669 122.062 152.205 121.539 151.587L122.979 150.147C123.31 150.584 123.694 150.925 124.131 151.171C124.568 151.405 125.102 151.523 125.731 151.523C126.296 151.523 126.744 151.411 127.075 151.187C127.416 150.963 127.587 150.653 127.587 150.259C127.587 149.917 127.491 149.64 127.299 149.427C127.107 149.213 126.851 149.032 126.531 148.883C126.222 148.733 125.875 148.6 125.491 148.483C125.118 148.355 124.739 148.211 124.355 148.051C123.982 147.891 123.635 147.693 123.315 147.459C123.006 147.213 122.755 146.904 122.563 146.531C122.371 146.147 122.275 145.667 122.275 145.091C122.275 144.408 122.44 143.827 122.771 143.347C123.102 142.867 123.555 142.499 124.131 142.243C124.707 141.987 125.358 141.859 126.083 141.859C126.851 141.859 127.544 142.003 128.163 142.291C128.782 142.579 129.288 142.952 129.683 143.411L128.243 144.851C127.912 144.488 127.571 144.221 127.219 144.051C126.878 143.88 126.488 143.795 126.051 143.795C125.55 143.795 125.155 143.891 124.867 144.083C124.579 144.275 124.435 144.552 124.435 144.915C124.435 145.224 124.531 145.475 124.723 145.667C124.915 145.859 125.166 146.024 125.475 146.163C125.795 146.301 126.142 146.435 126.515 146.563C126.899 146.691 127.278 146.835 127.651 146.995C128.035 147.155 128.382 147.363 128.691 147.619C129.011 147.875 129.267 148.205 129.459 148.611C129.651 149.005 129.747 149.496 129.747 150.083C129.747 151.128 129.379 151.949 128.643 152.547C127.907 153.144 126.899 153.443 125.619 153.443ZM132.377 153.283V142.339H134.473V153.283H132.377ZM130.569 147.395V145.555H136.281V147.395H130.569ZM137.459 153.283V145.555H139.555V153.283H137.459ZM139.555 149.011L138.739 148.467C138.835 147.517 139.113 146.771 139.571 146.227C140.03 145.672 140.691 145.395 141.555 145.395C141.929 145.395 142.265 145.459 142.563 145.587C142.862 145.704 143.134 145.901 143.379 146.179L142.067 147.683C141.95 147.555 141.806 147.459 141.635 147.395C141.475 147.331 141.289 147.299 141.075 147.299C140.627 147.299 140.259 147.443 139.971 147.731C139.694 148.008 139.555 148.435 139.555 149.011ZM147.593 153.443C146.782 153.443 146.062 153.272 145.433 152.931C144.803 152.579 144.302 152.099 143.929 151.491C143.566 150.883 143.385 150.189 143.385 149.411C143.385 148.643 143.561 147.96 143.913 147.363C144.275 146.755 144.766 146.275 145.385 145.923C146.003 145.56 146.691 145.379 147.449 145.379C148.195 145.379 148.851 145.549 149.417 145.891C149.993 146.221 150.441 146.68 150.761 147.267C151.091 147.843 151.257 148.499 151.257 149.235C151.257 149.373 151.246 149.517 151.225 149.667C151.214 149.805 151.187 149.965 151.145 150.147L144.649 150.163V148.595L150.169 148.579L149.321 149.235C149.299 148.776 149.214 148.392 149.065 148.083C148.926 147.773 148.718 147.539 148.441 147.379C148.174 147.208 147.843 147.123 147.449 147.123C147.033 147.123 146.67 147.219 146.361 147.411C146.051 147.592 145.811 147.853 145.641 148.195C145.481 148.525 145.401 148.92 145.401 149.379C145.401 149.848 145.486 150.259 145.657 150.611C145.838 150.952 146.094 151.219 146.425 151.411C146.755 151.592 147.139 151.683 147.577 151.683C147.971 151.683 148.329 151.619 148.649 151.491C148.969 151.352 149.246 151.149 149.481 150.883L150.713 152.115C150.339 152.552 149.881 152.883 149.337 153.107C148.803 153.331 148.222 153.443 147.593 153.443ZM155.785 153.443C155.081 153.443 154.446 153.267 153.881 152.915C153.316 152.563 152.873 152.083 152.553 151.475C152.233 150.867 152.073 150.184 152.073 149.427C152.073 148.659 152.233 147.971 152.553 147.363C152.873 146.755 153.316 146.275 153.881 145.923C154.446 145.571 155.081 145.395 155.785 145.395C156.34 145.395 156.836 145.507 157.273 145.731C157.71 145.955 158.057 146.269 158.313 146.675C158.58 147.069 158.724 147.517 158.745 148.019V150.803C158.724 151.315 158.58 151.768 158.313 152.163C158.057 152.557 157.71 152.872 157.273 153.107C156.836 153.331 156.34 153.443 155.785 153.443ZM156.169 151.507C156.756 151.507 157.23 151.315 157.593 150.931C157.956 150.536 158.137 150.029 158.137 149.411C158.137 149.005 158.052 148.648 157.881 148.339C157.721 148.019 157.492 147.773 157.193 147.603C156.905 147.421 156.564 147.331 156.169 147.331C155.785 147.331 155.444 147.421 155.145 147.603C154.857 147.773 154.628 148.019 154.457 148.339C154.297 148.648 154.217 149.005 154.217 149.411C154.217 149.827 154.297 150.195 154.457 150.515C154.628 150.824 154.857 151.069 155.145 151.251C155.444 151.421 155.785 151.507 156.169 151.507ZM158.025 153.283V151.203L158.361 149.315L158.025 147.459V145.555H160.105V153.283H158.025ZM166.887 153.283L163.895 149.299L166.871 145.555H169.287L165.799 149.779L165.879 148.755L169.447 153.283H166.887ZM161.959 153.283V141.715H164.055V153.283H161.959Z" fill="#121212"/>
<path d="M69.52 167.463L66.79 163.343H67.88L70.08 166.713H69.59L71.8 163.343H72.87L70.12 167.463H69.52ZM69.36 170.283V166.843H70.3V170.283H69.36ZM74.5058 170.383C74.0391 170.383 73.6191 170.273 73.2458 170.053C72.8724 169.833 72.5758 169.536 72.3558 169.163C72.1358 168.783 72.0258 168.359 72.0258 167.893C72.0258 167.433 72.1358 167.019 72.3558 166.653C72.5758 166.279 72.8724 165.983 73.2458 165.763C73.6191 165.543 74.0391 165.433 74.5058 165.433C74.9658 165.433 75.3824 165.543 75.7558 165.763C76.1358 165.976 76.4358 166.269 76.6558 166.643C76.8758 167.016 76.9858 167.433 76.9858 167.893C76.9858 168.359 76.8758 168.783 76.6558 169.163C76.4358 169.536 76.1358 169.833 75.7558 170.053C75.3824 170.273 74.9658 170.383 74.5058 170.383ZM74.5058 169.513C74.8058 169.513 75.0724 169.443 75.3058 169.303C75.5391 169.163 75.7224 168.973 75.8558 168.733C75.9891 168.486 76.0558 168.206 76.0558 167.893C76.0558 167.586 75.9858 167.313 75.8458 167.073C75.7124 166.833 75.5291 166.646 75.2958 166.513C75.0691 166.373 74.8058 166.303 74.5058 166.303C74.2058 166.303 73.9391 166.373 73.7058 166.513C73.4724 166.646 73.2891 166.833 73.1558 167.073C73.0224 167.313 72.9558 167.586 72.9558 167.893C72.9558 168.206 73.0224 168.486 73.1558 168.733C73.2891 168.973 73.4724 169.163 73.7058 169.303C73.9391 169.443 74.2058 169.513 74.5058 169.513ZM79.9098 170.383C79.5232 170.383 79.1732 170.296 78.8598 170.123C78.5532 169.943 78.3132 169.696 78.1398 169.383C77.9665 169.069 77.8798 168.706 77.8798 168.293V165.533H78.7798V168.253C78.7798 168.513 78.8232 168.739 78.9098 168.933C79.0032 169.119 79.1365 169.263 79.3098 169.363C79.4832 169.463 79.6865 169.513 79.9198 169.513C80.2732 169.513 80.5498 169.403 80.7498 169.183C80.9498 168.956 81.0498 168.646 81.0498 168.253V165.533H81.9498V168.293C81.9498 168.706 81.8632 169.069 81.6898 169.383C81.5165 169.696 81.2765 169.943 80.9698 170.123C80.6698 170.296 80.3165 170.383 79.9098 170.383ZM87.2562 170.383C86.8228 170.383 86.4295 170.276 86.0762 170.063C85.7228 169.843 85.4428 169.546 85.2362 169.173C85.0362 168.799 84.9362 168.379 84.9362 167.913C84.9362 167.446 85.0362 167.026 85.2362 166.653C85.4428 166.279 85.7195 165.983 86.0662 165.763C86.4195 165.543 86.8162 165.433 87.2562 165.433C87.6162 165.433 87.9362 165.509 88.2162 165.663C88.5028 165.809 88.7328 166.016 88.9062 166.283C89.0795 166.543 89.1762 166.846 89.1962 167.193V168.623C89.1762 168.963 89.0795 169.266 88.9062 169.533C88.7395 169.799 88.5128 170.009 88.2262 170.163C87.9462 170.309 87.6228 170.383 87.2562 170.383ZM87.4062 169.533C87.8528 169.533 88.2128 169.383 88.4862 169.083C88.7595 168.776 88.8962 168.386 88.8962 167.913C88.8962 167.586 88.8328 167.303 88.7062 167.063C88.5862 166.816 88.4128 166.626 88.1862 166.493C87.9595 166.353 87.6962 166.283 87.3962 166.283C87.0962 166.283 86.8295 166.353 86.5962 166.493C86.3695 166.633 86.1895 166.826 86.0562 167.073C85.9295 167.313 85.8662 167.589 85.8662 167.903C85.8662 168.223 85.9295 168.506 86.0562 168.753C86.1895 168.993 86.3728 169.183 86.6062 169.323C86.8395 169.463 87.1062 169.533 87.4062 169.533ZM88.8362 170.283V169.003L89.0062 167.843L88.8362 166.693V165.533H89.7462V170.283H88.8362ZM91.0565 170.283V165.533H91.9565V170.283H91.0565ZM91.9565 167.573L91.6165 167.423C91.6165 166.816 91.7565 166.333 92.0365 165.973C92.3165 165.613 92.7198 165.433 93.2465 165.433C93.4865 165.433 93.7032 165.476 93.8965 165.563C94.0898 165.643 94.2698 165.779 94.4365 165.973L93.8465 166.583C93.7465 166.476 93.6365 166.399 93.5165 166.353C93.3965 166.306 93.2565 166.283 93.0965 166.283C92.7632 166.283 92.4898 166.389 92.2765 166.603C92.0632 166.816 91.9565 167.139 91.9565 167.573ZM97.1139 170.383C96.6406 170.383 96.2139 170.276 95.8339 170.063C95.4539 169.843 95.1539 169.546 94.9339 169.173C94.7139 168.799 94.6039 168.376 94.6039 167.903C94.6039 167.436 94.7106 167.016 94.9239 166.643C95.1439 166.269 95.4372 165.976 95.8039 165.763C96.1772 165.543 96.5939 165.433 97.0539 165.433C97.4939 165.433 97.8806 165.533 98.2139 165.733C98.5539 165.933 98.8172 166.209 99.0039 166.563C99.1972 166.916 99.2939 167.316 99.2939 167.763C99.2939 167.829 99.2906 167.903 99.2839 167.983C99.2772 168.056 99.2639 168.143 99.2439 168.243H95.2339V167.493H98.7639L98.4339 167.783C98.4339 167.463 98.3772 167.193 98.2639 166.973C98.1506 166.746 97.9906 166.573 97.7839 166.453C97.5772 166.326 97.3272 166.263 97.0339 166.263C96.7272 166.263 96.4572 166.329 96.2239 166.463C95.9906 166.596 95.8106 166.783 95.6839 167.023C95.5572 167.263 95.4939 167.546 95.4939 167.873C95.4939 168.206 95.5606 168.499 95.6939 168.753C95.8272 168.999 96.0172 169.193 96.2639 169.333C96.5106 169.466 96.7939 169.533 97.1139 169.533C97.3806 169.533 97.6239 169.486 97.8439 169.393C98.0706 169.299 98.2639 169.159 98.4239 168.973L99.0039 169.563C98.7772 169.829 98.4972 170.033 98.1639 170.173C97.8372 170.313 97.4872 170.383 97.1139 170.383ZM104.365 170.383C103.925 170.383 103.532 170.276 103.185 170.063C102.839 169.843 102.562 169.546 102.355 169.173C102.155 168.799 102.055 168.379 102.055 167.913C102.055 167.446 102.155 167.026 102.355 166.653C102.562 166.279 102.839 165.983 103.185 165.763C103.532 165.543 103.925 165.433 104.365 165.433C104.719 165.433 105.039 165.509 105.325 165.663C105.612 165.809 105.842 166.016 106.015 166.283C106.195 166.543 106.295 166.846 106.315 167.193V168.623C106.295 168.963 106.199 169.266 106.025 169.533C105.852 169.799 105.622 170.009 105.335 170.163C105.049 170.309 104.725 170.383 104.365 170.383ZM104.515 169.533C104.815 169.533 105.075 169.463 105.295 169.323C105.522 169.183 105.699 168.993 105.825 168.753C105.952 168.506 106.015 168.226 106.015 167.913C106.015 167.586 105.949 167.303 105.815 167.063C105.689 166.823 105.512 166.633 105.285 166.493C105.065 166.353 104.805 166.283 104.505 166.283C104.205 166.283 103.942 166.353 103.715 166.493C103.489 166.633 103.309 166.826 103.175 167.073C103.049 167.313 102.985 167.589 102.985 167.903C102.985 168.223 103.049 168.506 103.175 168.753C103.309 168.993 103.489 169.183 103.715 169.323C103.949 169.463 104.215 169.533 104.515 169.533ZM106.865 170.283H105.955V169.003L106.125 167.843L105.955 166.693V163.143H106.865V170.283ZM110.346 170.383C109.879 170.383 109.459 170.273 109.086 170.053C108.712 169.833 108.416 169.536 108.196 169.163C107.976 168.783 107.866 168.359 107.866 167.893C107.866 167.433 107.976 167.019 108.196 166.653C108.416 166.279 108.712 165.983 109.086 165.763C109.459 165.543 109.879 165.433 110.346 165.433C110.806 165.433 111.222 165.543 111.596 165.763C111.976 165.976 112.276 166.269 112.496 166.643C112.716 167.016 112.826 167.433 112.826 167.893C112.826 168.359 112.716 168.783 112.496 169.163C112.276 169.536 111.976 169.833 111.596 170.053C111.222 170.273 110.806 170.383 110.346 170.383ZM110.346 169.513C110.646 169.513 110.912 169.443 111.146 169.303C111.379 169.163 111.562 168.973 111.696 168.733C111.829 168.486 111.896 168.206 111.896 167.893C111.896 167.586 111.826 167.313 111.686 167.073C111.552 166.833 111.369 166.646 111.136 166.513C110.909 166.373 110.646 166.303 110.346 166.303C110.046 166.303 109.779 166.373 109.546 166.513C109.312 166.646 109.129 166.833 108.996 167.073C108.862 167.313 108.796 167.586 108.796 167.893C108.796 168.206 108.862 168.486 108.996 168.733C109.129 168.973 109.312 169.163 109.546 169.303C109.779 169.443 110.046 169.513 110.346 169.513ZM113.85 170.283V165.533H114.75V170.283H113.85ZM114.3 164.583C114.133 164.583 113.996 164.529 113.89 164.423C113.783 164.309 113.73 164.169 113.73 164.003C113.73 163.843 113.783 163.709 113.89 163.603C113.996 163.489 114.133 163.433 114.3 163.433C114.466 163.433 114.603 163.489 114.71 163.603C114.816 163.709 114.87 163.843 114.87 164.003C114.87 164.169 114.816 164.309 114.71 164.423C114.603 164.529 114.466 164.583 114.3 164.583ZM119.436 170.283V167.513C119.436 167.153 119.323 166.856 119.096 166.623C118.869 166.389 118.576 166.273 118.216 166.273C117.976 166.273 117.763 166.326 117.576 166.433C117.389 166.539 117.243 166.686 117.136 166.873C117.029 167.059 116.976 167.273 116.976 167.513L116.606 167.303C116.606 166.943 116.686 166.623 116.846 166.343C117.006 166.063 117.229 165.843 117.516 165.683C117.803 165.516 118.126 165.433 118.486 165.433C118.846 165.433 119.163 165.523 119.436 165.703C119.716 165.883 119.936 166.119 120.096 166.413C120.256 166.699 120.336 167.006 120.336 167.333V170.283H119.436ZM116.076 170.283V165.533H116.976V170.283H116.076ZM123.525 172.373C123.038 172.373 122.605 172.283 122.225 172.103C121.851 171.923 121.551 171.669 121.325 171.343L121.905 170.753C122.098 170.999 122.328 171.186 122.595 171.313C122.861 171.446 123.178 171.513 123.545 171.513C124.031 171.513 124.415 171.383 124.695 171.123C124.981 170.869 125.125 170.526 125.125 170.093V168.913L125.285 167.843L125.125 166.783V165.533H126.025V170.093C126.025 170.546 125.918 170.943 125.705 171.283C125.498 171.623 125.205 171.889 124.825 172.083C124.451 172.276 124.018 172.373 123.525 172.373ZM123.525 170.203C123.091 170.203 122.701 170.099 122.355 169.893C122.015 169.686 121.745 169.403 121.545 169.043C121.345 168.676 121.245 168.266 121.245 167.813C121.245 167.359 121.345 166.956 121.545 166.603C121.745 166.243 122.015 165.959 122.355 165.753C122.701 165.539 123.091 165.433 123.525 165.433C123.898 165.433 124.228 165.506 124.515 165.653C124.801 165.799 125.028 166.006 125.195 166.273C125.368 166.533 125.461 166.839 125.475 167.193V168.453C125.455 168.799 125.358 169.106 125.185 169.373C125.018 169.633 124.791 169.836 124.505 169.983C124.218 170.129 123.891 170.203 123.525 170.203ZM123.705 169.353C123.998 169.353 124.255 169.289 124.475 169.163C124.701 169.036 124.875 168.859 124.995 168.633C125.115 168.399 125.175 168.129 125.175 167.823C125.175 167.516 125.111 167.249 124.985 167.023C124.865 166.789 124.695 166.609 124.475 166.483C124.255 166.349 123.995 166.283 123.695 166.283C123.395 166.283 123.131 166.349 122.905 166.483C122.678 166.609 122.498 166.789 122.365 167.023C122.238 167.249 122.175 167.513 122.175 167.813C122.175 168.113 122.238 168.379 122.365 168.613C122.498 168.846 122.678 169.029 122.905 169.163C123.138 169.289 123.405 169.353 123.705 169.353ZM129.426 170.283V165.533H130.326V170.283H129.426ZM130.326 167.573L129.986 167.423C129.986 166.816 130.126 166.333 130.406 165.973C130.686 165.613 131.089 165.433 131.616 165.433C131.856 165.433 132.072 165.476 132.266 165.563C132.459 165.643 132.639 165.779 132.806 165.973L132.216 166.583C132.116 166.476 132.006 166.399 131.886 166.353C131.766 166.306 131.626 166.283 131.466 166.283C131.132 166.283 130.859 166.389 130.646 166.603C130.432 166.816 130.326 167.139 130.326 167.573ZM135.483 170.383C135.01 170.383 134.583 170.276 134.203 170.063C133.823 169.843 133.523 169.546 133.303 169.173C133.083 168.799 132.973 168.376 132.973 167.903C132.973 167.436 133.08 167.016 133.293 166.643C133.513 166.269 133.806 165.976 134.173 165.763C134.546 165.543 134.963 165.433 135.423 165.433C135.863 165.433 136.25 165.533 136.583 165.733C136.923 165.933 137.186 166.209 137.373 166.563C137.566 166.916 137.663 167.316 137.663 167.763C137.663 167.829 137.66 167.903 137.653 167.983C137.646 168.056 137.633 168.143 137.613 168.243H133.603V167.493H137.133L136.803 167.783C136.803 167.463 136.746 167.193 136.633 166.973C136.52 166.746 136.36 166.573 136.153 166.453C135.946 166.326 135.696 166.263 135.403 166.263C135.096 166.263 134.826 166.329 134.593 166.463C134.36 166.596 134.18 166.783 134.053 167.023C133.926 167.263 133.863 167.546 133.863 167.873C133.863 168.206 133.93 168.499 134.063 168.753C134.196 168.999 134.386 169.193 134.633 169.333C134.88 169.466 135.163 169.533 135.483 169.533C135.75 169.533 135.993 169.486 136.213 169.393C136.44 169.299 136.633 169.159 136.793 168.973L137.373 169.563C137.146 169.829 136.866 170.033 136.533 170.173C136.206 170.313 135.856 170.383 135.483 170.383ZM140.664 170.383C140.231 170.383 139.838 170.276 139.484 170.063C139.131 169.843 138.851 169.546 138.644 169.173C138.444 168.799 138.344 168.379 138.344 167.913C138.344 167.446 138.444 167.026 138.644 166.653C138.851 166.279 139.128 165.983 139.474 165.763C139.828 165.543 140.224 165.433 140.664 165.433C141.024 165.433 141.344 165.509 141.624 165.663C141.911 165.809 142.141 166.016 142.314 166.283C142.488 166.543 142.584 166.846 142.604 167.193V168.623C142.584 168.963 142.488 169.266 142.314 169.533C142.148 169.799 141.921 170.009 141.634 170.163C141.354 170.309 141.031 170.383 140.664 170.383ZM140.814 169.533C141.261 169.533 141.621 169.383 141.894 169.083C142.168 168.776 142.304 168.386 142.304 167.913C142.304 167.586 142.241 167.303 142.114 167.063C141.994 166.816 141.821 166.626 141.594 166.493C141.368 166.353 141.104 166.283 140.804 166.283C140.504 166.283 140.238 166.353 140.004 166.493C139.778 166.633 139.598 166.826 139.464 167.073C139.338 167.313 139.274 167.589 139.274 167.903C139.274 168.223 139.338 168.506 139.464 168.753C139.598 168.993 139.781 169.183 140.014 169.323C140.248 169.463 140.514 169.533 140.814 169.533ZM142.244 170.283V169.003L142.414 167.843L142.244 166.693V165.533H143.154V170.283H142.244ZM144.465 170.283V163.143H145.365V170.283H144.465ZM146.681 170.283V163.143H147.581V170.283H146.681ZM150.458 170.323L148.398 165.533H149.398L150.928 169.283H150.608L152.218 165.533H153.218L150.998 170.323H150.458ZM149.098 172.273L150.498 169.403L150.998 170.323L150.098 172.273H149.098ZM158.085 172.373C157.598 172.373 157.165 172.283 156.785 172.103C156.412 171.923 156.112 171.669 155.885 171.343L156.465 170.753C156.658 170.999 156.888 171.186 157.155 171.313C157.422 171.446 157.738 171.513 158.105 171.513C158.592 171.513 158.975 171.383 159.255 171.123C159.542 170.869 159.685 170.526 159.685 170.093V168.913L159.845 167.843L159.685 166.783V165.533H160.585V170.093C160.585 170.546 160.478 170.943 160.265 171.283C160.058 171.623 159.765 171.889 159.385 172.083C159.012 172.276 158.578 172.373 158.085 172.373ZM158.085 170.203C157.652 170.203 157.262 170.099 156.915 169.893C156.575 169.686 156.305 169.403 156.105 169.043C155.905 168.676 155.805 168.266 155.805 167.813C155.805 167.359 155.905 166.956 156.105 166.603C156.305 166.243 156.575 165.959 156.915 165.753C157.262 165.539 157.652 165.433 158.085 165.433C158.458 165.433 158.788 165.506 159.075 165.653C159.362 165.799 159.588 166.006 159.755 166.273C159.928 166.533 160.022 166.839 160.035 167.193V168.453C160.015 168.799 159.918 169.106 159.745 169.373C159.578 169.633 159.352 169.836 159.065 169.983C158.778 170.129 158.452 170.203 158.085 170.203ZM158.265 169.353C158.558 169.353 158.815 169.289 159.035 169.163C159.262 169.036 159.435 168.859 159.555 168.633C159.675 168.399 159.735 168.129 159.735 167.823C159.735 167.516 159.672 167.249 159.545 167.023C159.425 166.789 159.255 166.609 159.035 166.483C158.815 166.349 158.555 166.283 158.255 166.283C157.955 166.283 157.692 166.349 157.465 166.483C157.238 166.609 157.058 166.789 156.925 167.023C156.798 167.249 156.735 167.513 156.735 167.813C156.735 168.113 156.798 168.379 156.925 168.613C157.058 168.846 157.238 169.029 157.465 169.163C157.698 169.289 157.965 169.353 158.265 169.353ZM161.906 170.283V165.533H162.806V170.283H161.906ZM162.806 167.573L162.466 167.423C162.466 166.816 162.606 166.333 162.886 165.973C163.166 165.613 163.569 165.433 164.096 165.433C164.336 165.433 164.553 165.476 164.746 165.563C164.939 165.643 165.119 165.779 165.286 165.973L164.696 166.583C164.596 166.476 164.486 166.399 164.366 166.353C164.246 166.306 164.106 166.283 163.946 166.283C163.613 166.283 163.339 166.389 163.126 166.603C162.913 166.816 162.806 167.139 162.806 167.573ZM167.964 170.383C167.49 170.383 167.064 170.276 166.684 170.063C166.304 169.843 166.004 169.546 165.784 169.173C165.564 168.799 165.454 168.376 165.454 167.903C165.454 167.436 165.56 167.016 165.774 166.643C165.994 166.269 166.287 165.976 166.654 165.763C167.027 165.543 167.444 165.433 167.904 165.433C168.344 165.433 168.73 165.533 169.064 165.733C169.404 165.933 169.667 166.209 169.854 166.563C170.047 166.916 170.144 167.316 170.144 167.763C170.144 167.829 170.14 167.903 170.134 167.983C170.127 168.056 170.114 168.143 170.094 168.243H166.084V167.493H169.614L169.284 167.783C169.284 167.463 169.227 167.193 169.114 166.973C169 166.746 168.84 166.573 168.634 166.453C168.427 166.326 168.177 166.263 167.884 166.263C167.577 166.263 167.307 166.329 167.074 166.463C166.84 166.596 166.66 166.783 166.534 167.023C166.407 167.263 166.344 167.546 166.344 167.873C166.344 168.206 166.41 168.499 166.544 168.753C166.677 168.999 166.867 169.193 167.114 169.333C167.36 169.466 167.644 169.533 167.964 169.533C168.23 169.533 168.474 169.486 168.694 169.393C168.92 169.299 169.114 169.159 169.274 168.973L169.854 169.563C169.627 169.829 169.347 170.033 169.014 170.173C168.687 170.313 168.337 170.383 167.964 170.383ZM173.145 170.383C172.712 170.383 172.318 170.276 171.965 170.063C171.612 169.843 171.332 169.546 171.125 169.173C170.925 168.799 170.825 168.379 170.825 167.913C170.825 167.446 170.925 167.026 171.125 166.653C171.332 166.279 171.608 165.983 171.955 165.763C172.308 165.543 172.705 165.433 173.145 165.433C173.505 165.433 173.825 165.509 174.105 165.663C174.392 165.809 174.622 166.016 174.795 166.283C174.968 166.543 175.065 166.846 175.085 167.193V168.623C175.065 168.963 174.968 169.266 174.795 169.533C174.628 169.799 174.402 170.009 174.115 170.163C173.835 170.309 173.512 170.383 173.145 170.383ZM173.295 169.533C173.742 169.533 174.102 169.383 174.375 169.083C174.648 168.776 174.785 168.386 174.785 167.913C174.785 167.586 174.722 167.303 174.595 167.063C174.475 166.816 174.302 166.626 174.075 166.493C173.848 166.353 173.585 166.283 173.285 166.283C172.985 166.283 172.718 166.353 172.485 166.493C172.258 166.633 172.078 166.826 171.945 167.073C171.818 167.313 171.755 167.589 171.755 167.903C171.755 168.223 171.818 168.506 171.945 168.753C172.078 168.993 172.262 169.183 172.495 169.323C172.728 169.463 172.995 169.533 173.295 169.533ZM174.725 170.283V169.003L174.895 167.843L174.725 166.693V165.533H175.635V170.283H174.725ZM177.656 170.283V163.543H178.556V170.283H177.656ZM176.486 166.353V165.533H179.726V166.353H176.486Z" fill="#121212" fill-opacity="0.7"/>
<defs>
<clipPath id="clip0_279_1653">
<rect width="37" height="40" fill="white" transform="translate(104.5 95.2827)"/>
</clipPath>
</defs>
</svg>
