<svg width="90" height="242" viewBox="0 0 90 242" fill="none" xmlns="http://www.w3.org/2000/svg">
<rect width="245" height="242" rx="10" fill="white"/>
<path d="M20.416 34.16C19.5093 34.16 18.7307 34.0053 18.08 33.696C17.44 33.3867 16.8587 32.9227 16.336 32.304L17.776 30.864C18.1067 31.3013 18.4907 31.6427 18.928 31.888C19.3653 32.1227 19.8987 32.24 20.528 32.24C21.0933 32.24 21.5413 32.128 21.872 31.904C22.2133 31.68 22.384 31.3707 22.384 30.976C22.384 30.6347 22.288 30.3573 22.096 30.144C21.904 29.9307 21.648 29.7493 21.328 29.6C21.0187 29.4507 20.672 29.3173 20.288 29.2C19.9147 29.072 19.536 28.928 19.152 28.768C18.7787 28.608 18.432 28.4107 18.112 28.176C17.8027 27.9307 17.552 27.6213 17.36 27.248C17.168 26.864 17.072 26.384 17.072 25.808C17.072 25.1253 17.2373 24.544 17.568 24.064C17.8987 23.584 18.352 23.216 18.928 22.96C19.504 22.704 20.1547 22.576 20.88 22.576C21.648 22.576 22.3413 22.72 22.96 23.008C23.5787 23.296 24.0853 23.6693 24.48 24.128L23.04 25.568C22.7093 25.2053 22.368 24.9387 22.016 24.768C21.6747 24.5973 21.2853 24.512 20.848 24.512C20.3467 24.512 19.952 24.608 19.664 24.8C19.376 24.992 19.232 25.2693 19.232 25.632C19.232 25.9413 19.328 26.192 19.52 26.384C19.712 26.576 19.9627 26.7413 20.272 26.88C20.592 27.0187 20.9387 27.152 21.312 27.28C21.696 27.408 22.0747 27.552 22.448 27.712C22.832 27.872 23.1787 28.08 23.488 28.336C23.808 28.592 24.064 28.9227 24.256 29.328C24.448 29.7227 24.544 30.2133 24.544 30.8C24.544 31.8453 24.176 32.6667 23.44 33.264C22.704 33.8613 21.696 34.16 20.416 34.16ZM30.9654 34L27.9734 30.016L30.9494 26.272H33.3654L29.8774 30.496L29.9574 29.472L33.5254 34H30.9654ZM26.0374 34V22.432H28.1334V34H26.0374ZM34.2093 34V26.272H36.3213V34H34.2093ZM35.2653 25.024C34.9239 25.024 34.6413 24.912 34.4173 24.688C34.1933 24.4533 34.0813 24.1653 34.0813 23.824C34.0813 23.4933 34.1933 23.2107 34.4173 22.976C34.6413 22.7413 34.9239 22.624 35.2653 22.624C35.6173 22.624 35.8999 22.7413 36.1133 22.976C36.3373 23.2107 36.4493 23.4933 36.4493 23.824C36.4493 24.1653 36.3373 24.4533 36.1133 24.688C35.8999 24.912 35.6173 25.024 35.2653 25.024ZM38.178 34V22.432H40.274V34H38.178ZM42.1311 34V22.432H44.2271V34H42.1311ZM54.6333 34.16C53.8333 34.16 53.0813 34.016 52.3773 33.728C51.6839 33.4293 51.0706 33.0133 50.5373 32.48C50.0146 31.9467 49.6039 31.3333 49.3053 30.64C49.0173 29.936 48.8733 29.1787 48.8733 28.368C48.8733 27.5467 49.0226 26.7893 49.3213 26.096C49.6199 25.392 50.0359 24.7787 50.5693 24.256C51.1026 23.7227 51.7266 23.312 52.4413 23.024C53.1559 22.7253 53.9293 22.576 54.7613 22.576C55.6893 22.576 56.5426 22.752 57.3212 23.104C58.0999 23.4453 58.7453 23.9307 59.2573 24.56L57.7853 26.032C57.4333 25.5733 56.9959 25.2213 56.4733 24.976C55.9506 24.7307 55.3746 24.608 54.7453 24.608C54.0306 24.608 53.3959 24.768 52.8413 25.088C52.2973 25.3973 51.8706 25.8347 51.5613 26.4C51.2519 26.9547 51.0973 27.6053 51.0973 28.352C51.0973 29.0987 51.2466 29.76 51.5453 30.336C51.8546 30.9013 52.2706 31.344 52.7933 31.664C53.3266 31.984 53.9346 32.144 54.6173 32.144C55.3213 32.144 55.9239 32.016 56.4253 31.76C56.9266 31.4933 57.3106 31.1093 57.5773 30.608C57.8439 30.096 57.9773 29.472 57.9773 28.736L59.4013 29.712L54.4893 29.664V27.776H60.2173V28.08C60.2173 29.424 59.9773 30.5493 59.4973 31.456C59.0173 32.352 58.3559 33.0293 57.5133 33.488C56.6813 33.936 55.7213 34.16 54.6333 34.16ZM61.6624 34V26.272H63.7584V34H61.6624ZM63.7584 29.728L62.9424 29.184C63.0384 28.2347 63.3157 27.488 63.7744 26.944C64.233 26.3893 64.8944 26.112 65.7584 26.112C66.1317 26.112 66.4677 26.176 66.7664 26.304C67.065 26.4213 67.337 26.6187 67.5824 26.896L66.2704 28.4C66.153 28.272 66.009 28.176 65.8384 28.112C65.6784 28.048 65.4917 28.016 65.2784 28.016C64.8304 28.016 64.4624 28.16 64.1744 28.448C63.897 28.7253 63.7584 29.152 63.7584 29.728ZM71.3319 34.16C70.6279 34.16 69.9932 33.984 69.4279 33.632C68.8625 33.28 68.4199 32.8 68.0999 32.192C67.7799 31.584 67.6199 30.9013 67.6199 30.144C67.6199 29.376 67.7799 28.688 68.0999 28.08C68.4199 27.472 68.8625 26.992 69.4279 26.64C69.9932 26.288 70.6279 26.112 71.3319 26.112C71.8865 26.112 72.3825 26.224 72.8199 26.448C73.2572 26.672 73.6039 26.9867 73.8599 27.392C74.1265 27.7867 74.2705 28.2347 74.2919 28.736V31.52C74.2705 32.032 74.1265 32.4853 73.8599 32.88C73.6039 33.2747 73.2572 33.5893 72.8199 33.824C72.3825 34.048 71.8865 34.16 71.3319 34.16ZM71.7159 32.224C72.3025 32.224 72.7772 32.032 73.1399 31.648C73.5025 31.2533 73.6839 30.7467 73.6839 30.128C73.6839 29.7227 73.5985 29.3653 73.4279 29.056C73.2679 28.736 73.0385 28.4907 72.7399 28.32C72.4519 28.1387 72.1105 28.048 71.7159 28.048C71.3319 28.048 70.9905 28.1387 70.6919 28.32C70.4039 28.4907 70.1745 28.736 70.0039 29.056C69.8439 29.3653 69.7639 29.7227 69.7639 30.128C69.7639 30.544 69.8439 30.912 70.0039 31.232C70.1745 31.5413 70.4039 31.7867 70.6919 31.968C70.9905 32.1387 71.3319 32.224 71.7159 32.224ZM73.5719 34V31.92L73.9079 30.032L73.5719 28.176V26.272H75.6519V34H73.5719ZM81.7941 34.16C81.2395 34.16 80.7381 34.048 80.2901 33.824C79.8421 33.5893 79.4848 33.2747 79.2181 32.88C78.9515 32.4853 78.8075 32.032 78.7861 31.52V28.784C78.8075 28.272 78.9515 27.8187 79.2181 27.424C79.4955 27.0187 79.8528 26.6987 80.2901 26.464C80.7381 26.2293 81.2395 26.112 81.7941 26.112C82.5088 26.112 83.1488 26.288 83.7141 26.64C84.2795 26.992 84.7221 27.472 85.0421 28.08C85.3728 28.688 85.5381 29.376 85.5381 30.144C85.5381 30.9013 85.3728 31.584 85.0421 32.192C84.7221 32.8 84.2795 33.28 83.7141 33.632C83.1488 33.984 82.5088 34.16 81.7941 34.16ZM81.4261 32.224C81.8101 32.224 82.1515 32.1387 82.4501 31.968C82.7488 31.7867 82.9781 31.5413 83.1381 31.232C83.3088 30.912 83.3941 30.544 83.3941 30.128C83.3941 29.7227 83.3088 29.3653 83.1381 29.056C82.9781 28.736 82.7488 28.4907 82.4501 28.32C82.1515 28.1387 81.8101 28.048 81.4261 28.048C81.0528 28.048 80.7168 28.1387 80.4181 28.32C80.1195 28.4907 79.8848 28.736 79.7141 29.056C79.5541 29.3653 79.4741 29.7227 79.4741 30.128C79.4741 30.544 79.5541 30.912 79.7141 31.232C79.8848 31.5413 80.1141 31.7867 80.4021 31.968C80.7008 32.1387 81.0421 32.224 81.4261 32.224ZM77.5061 37.232V26.272H79.6021V28.304L79.2501 30.176L79.5861 32.048V37.232H77.5061ZM92.1124 34V29.568C92.1124 29.1093 91.9684 28.736 91.6804 28.448C91.3924 28.16 91.019 28.016 90.5604 28.016C90.2617 28.016 89.995 28.08 89.7604 28.208C89.5257 28.336 89.339 28.5173 89.2004 28.752C89.0724 28.9867 89.0084 29.2587 89.0084 29.568L88.1924 29.152C88.1924 28.544 88.3204 28.016 88.5764 27.568C88.8324 27.1093 89.1844 26.752 89.6324 26.496C90.091 26.24 90.6137 26.112 91.2004 26.112C91.787 26.112 92.3044 26.24 92.7524 26.496C93.211 26.752 93.5684 27.104 93.8244 27.552C94.0804 28 94.2084 28.5173 94.2084 29.104V34H92.1124ZM86.9124 34V22.432H89.0084V34H86.9124Z" fill="#121212"/>
<path d="M122.228 80.991L174.166 110.679M122.228 80.991L69.9961 110.238M122.228 80.991V95.394M122.228 200.477L174.166 170.202M122.228 200.477L69.9961 170.349M122.228 200.477V185.192M174.166 170.202V110.679M174.166 170.202L148.761 155.577M174.166 110.679L161.333 118.03M69.9961 110.238L83.5323 118.03M69.9961 110.238V140.293V170.349M69.9961 170.349L83.5323 162.595M122.228 95.394L83.5323 118.03M122.228 95.394L161.333 118.03M122.228 95.394V109.797M83.5323 118.03V162.595M83.5323 118.03L95.7833 125.082M83.5323 162.595L122.228 185.192M83.5323 162.595L95.7833 155.577M161.333 118.03V162.255C161.333 162.465 161.221 162.66 161.038 162.765L122.228 185.192M161.333 118.03L148.761 125.231M122.228 185.192V171.083M122.228 109.797L95.7833 125.082M122.228 109.797L148.761 125.231M122.228 109.797V124.2M95.7833 125.082V155.577M95.7833 125.082L108.4 132.344M95.7833 155.577L122.228 171.083M95.7833 155.577L108.4 148.35M122.228 171.083L148.761 155.577M122.228 171.083V156.239M148.761 155.577V125.231M148.761 155.577L136.206 148.35M148.761 125.231L136.206 132.423M122.228 124.2L136.206 132.423M122.228 124.2V156.239M122.228 124.2L108.4 132.344M136.206 132.423V148.35M136.206 132.423L108.4 148.35M136.206 148.35L122.228 156.239M136.206 148.35L108.4 132.344M122.228 156.239L108.4 148.35M108.4 148.35V132.344" stroke="#F1F1F1" stroke-opacity="0.8" stroke-width="2" stroke-linejoin="round"/>
<path d="M90.7422 122.142L122.229 110.238L153.127 122.583L148.86 155.945L121.934 172.112L88.5352 159.767L90.7422 122.142Z" stroke="#2F52FF" stroke-width="2.35866" stroke-linejoin="round"/>
<path d="M40.6605 180.112V175.159H41.4742V180.112H40.6605ZM43.8093 180.112V175.159H44.623V180.112H43.8093ZM41.2195 177.919V177.176H43.9862V177.919H41.2195ZM45.5989 180.112V176.716H46.3773V180.112H45.5989ZM45.9881 176.093C45.856 176.093 45.7452 176.048 45.6555 175.958C45.5706 175.869 45.5282 175.758 45.5282 175.626C45.5282 175.494 45.5706 175.383 45.6555 175.293C45.7452 175.204 45.856 175.159 45.9881 175.159C46.1249 175.159 46.2358 175.204 46.3207 175.293C46.4056 175.383 46.448 175.494 46.448 175.626C46.448 175.758 46.4056 175.869 46.3207 175.958C46.2358 176.048 46.1249 176.093 45.9881 176.093ZM48.3612 180.183C48.1725 180.183 47.9909 180.159 47.8164 180.112C47.6418 180.06 47.4814 179.989 47.3352 179.9C47.1889 179.805 47.0616 179.692 46.9531 179.56L47.4484 179.065C47.5663 179.202 47.7008 179.305 47.8517 179.376C48.0074 179.442 48.1819 179.475 48.3754 179.475C48.5499 179.475 48.682 179.449 48.7716 179.397C48.8612 179.345 48.9061 179.27 48.9061 179.171C48.9061 179.067 48.8636 178.987 48.7787 178.93C48.6938 178.874 48.5829 178.827 48.4461 178.789C48.314 178.746 48.1725 178.704 48.0216 178.661C47.8753 178.619 47.7338 178.562 47.597 178.492C47.4649 178.416 47.3564 178.315 47.2715 178.187C47.1866 178.06 47.1441 177.895 47.1441 177.692C47.1441 177.475 47.1937 177.289 47.2927 177.133C47.3965 176.977 47.5404 176.857 47.7244 176.772C47.9131 176.687 48.1371 176.645 48.3966 176.645C48.6702 176.645 48.9108 176.694 49.1183 176.793C49.3306 176.888 49.5075 177.032 49.649 177.225L49.1537 177.72C49.0546 177.598 48.9414 177.506 48.8141 177.444C48.6867 177.383 48.5405 177.352 48.3754 177.352C48.2197 177.352 48.0994 177.376 48.0145 177.423C47.9296 177.47 47.8871 177.539 47.8871 177.628C47.8871 177.723 47.9296 177.796 48.0145 177.848C48.0994 177.9 48.2079 177.944 48.34 177.982C48.4768 178.02 48.6183 178.062 48.7645 178.11C48.9155 178.152 49.057 178.213 49.1891 178.294C49.3259 178.369 49.4368 178.473 49.5217 178.605C49.6066 178.732 49.649 178.9 49.649 179.107C49.649 179.437 49.5335 179.699 49.3023 179.893C49.0712 180.086 48.7575 180.183 48.3612 180.183ZM50.8073 180.112V175.3H51.5856V180.112H50.8073ZM49.9935 177.423V176.716H52.3994V177.423H49.9935ZM54.4249 180.183C54.0947 180.183 53.7952 180.105 53.5263 179.949C53.2574 179.789 53.0428 179.574 52.8824 179.305C52.7267 179.037 52.6489 178.737 52.6489 178.407C52.6489 178.077 52.7267 177.779 52.8824 177.515C53.0428 177.251 53.2574 177.041 53.5263 176.885C53.7952 176.725 54.0947 176.645 54.4249 176.645C54.7599 176.645 55.0618 176.723 55.3307 176.878C55.5996 177.034 55.8118 177.246 55.9675 177.515C56.1279 177.779 56.2081 178.077 56.2081 178.407C56.2081 178.737 56.1279 179.037 55.9675 179.305C55.8118 179.574 55.5996 179.789 55.3307 179.949C55.0618 180.105 54.7599 180.183 54.4249 180.183ZM54.4249 179.433C54.6183 179.433 54.7882 179.39 54.9344 179.305C55.0854 179.216 55.2009 179.093 55.2811 178.937C55.366 178.782 55.4085 178.605 55.4085 178.407C55.4085 178.209 55.366 178.034 55.2811 177.883C55.1962 177.732 55.0806 177.614 54.9344 177.529C54.7882 177.44 54.6183 177.395 54.4249 177.395C54.2362 177.395 54.0664 177.44 53.9155 177.529C53.7692 177.614 53.6537 177.732 53.5687 177.883C53.4885 178.034 53.4485 178.209 53.4485 178.407C53.4485 178.605 53.4885 178.782 53.5687 178.937C53.6537 179.093 53.7692 179.216 53.9155 179.305C54.0664 179.39 54.2362 179.433 54.4249 179.433ZM56.8554 180.112V176.716H57.6337V180.112H56.8554ZM57.6337 178.223L57.3648 178.088C57.3648 177.659 57.4592 177.312 57.6479 177.048C57.8413 176.779 58.1314 176.645 58.5182 176.645C58.6881 176.645 58.8414 176.675 58.9782 176.737C59.115 176.798 59.2423 176.897 59.3603 177.034L58.8508 177.558C58.7895 177.492 58.7211 177.444 58.6456 177.416C58.5701 177.388 58.4828 177.374 58.3838 177.374C58.1668 177.374 57.9875 177.442 57.846 177.579C57.7045 177.716 57.6337 177.93 57.6337 178.223ZM60.7853 180.147L59.3347 176.716H60.1909L61.1816 179.235H60.9339L61.9812 176.716H62.8444L61.2665 180.147H60.7853ZM59.7734 181.527L60.8278 179.355L61.2665 180.147L60.6367 181.527H59.7734Z" fill="#121212"/>
<path d="M29.8461 105.158V100.205H30.6599V105.158H29.8461ZM30.4051 105.158V104.415H33.1789V105.158H30.4051ZM30.4051 102.985V102.271H32.9383V102.985H30.4051ZM30.4051 100.948V100.205H33.1435V100.948H30.4051ZM35.4222 105.228C35.0873 105.228 34.783 105.151 34.5094 104.995C34.2405 104.839 34.0282 104.627 33.8726 104.358C33.7169 104.089 33.6391 103.79 33.6391 103.459C33.6391 103.125 33.7169 102.825 33.8726 102.561C34.0282 102.292 34.2405 102.08 34.5094 101.924C34.783 101.768 35.0873 101.69 35.4222 101.69C35.6864 101.69 35.9317 101.742 36.1581 101.846C36.3893 101.945 36.585 102.089 36.7454 102.278L36.2359 102.794C36.1369 102.676 36.0166 102.589 35.8751 102.533C35.7383 102.471 35.5873 102.441 35.4222 102.441C35.2288 102.441 35.0566 102.485 34.9057 102.575C34.7594 102.66 34.6439 102.778 34.5589 102.929C34.4787 103.08 34.4386 103.257 34.4386 103.459C34.4386 103.658 34.4787 103.835 34.5589 103.99C34.6439 104.141 34.7594 104.261 34.9057 104.351C35.0566 104.436 35.2288 104.478 35.4222 104.478C35.5873 104.478 35.7383 104.45 35.8751 104.394C36.0166 104.332 36.1369 104.243 36.2359 104.125L36.7454 104.641C36.585 104.83 36.3893 104.976 36.1581 105.08C35.9317 105.179 35.6864 105.228 35.4222 105.228ZM38.7942 105.228C38.464 105.228 38.1644 105.151 37.8955 104.995C37.6267 104.835 37.412 104.62 37.2516 104.351C37.096 104.082 37.0181 103.783 37.0181 103.452C37.0181 103.122 37.096 102.825 37.2516 102.561C37.412 102.297 37.6267 102.087 37.8955 101.931C38.1644 101.771 38.464 101.69 38.7942 101.69C39.1291 101.69 39.431 101.768 39.6999 101.924C39.9688 102.08 40.1811 102.292 40.3368 102.561C40.4971 102.825 40.5773 103.122 40.5773 103.452C40.5773 103.783 40.4971 104.082 40.3368 104.351C40.1811 104.62 39.9688 104.835 39.6999 104.995C39.431 105.151 39.1291 105.228 38.7942 105.228ZM38.7942 104.478C38.9876 104.478 39.1574 104.436 39.3037 104.351C39.4546 104.261 39.5702 104.139 39.6504 103.983C39.7353 103.827 39.7778 103.651 39.7778 103.452C39.7778 103.254 39.7353 103.08 39.6504 102.929C39.5655 102.778 39.4499 102.66 39.3037 102.575C39.1574 102.485 38.9876 102.441 38.7942 102.441C38.6055 102.441 38.4357 102.485 38.2847 102.575C38.1385 102.66 38.0229 102.778 37.938 102.929C37.8578 103.08 37.8177 103.254 37.8177 103.452C37.8177 103.651 37.8578 103.827 37.938 103.983C38.0229 104.139 38.1385 104.261 38.2847 104.351C38.4357 104.436 38.6055 104.478 38.7942 104.478ZM43.5526 105.158V103.198C43.5526 102.971 43.4795 102.785 43.3333 102.639C43.1918 102.492 43.0078 102.419 42.7813 102.419C42.6304 102.419 42.4959 102.452 42.378 102.518C42.2601 102.584 42.1681 102.676 42.1021 102.794C42.036 102.912 42.003 103.047 42.003 103.198L41.6987 103.028C41.6987 102.768 41.7553 102.54 41.8685 102.341C41.9818 102.139 42.1374 101.981 42.3356 101.867C42.5384 101.749 42.7648 101.69 43.0149 101.69C43.2696 101.69 43.496 101.757 43.6941 101.889C43.8923 102.016 44.0479 102.183 44.1612 102.391C44.2744 102.594 44.331 102.806 44.331 103.028V105.158H43.5526ZM41.2246 105.158V101.761H42.003V105.158H41.2246ZM46.6787 105.228C46.3485 105.228 46.0489 105.151 45.78 104.995C45.5111 104.835 45.2965 104.62 45.1361 104.351C44.9804 104.082 44.9026 103.783 44.9026 103.452C44.9026 103.122 44.9804 102.825 45.1361 102.561C45.2965 102.297 45.5111 102.087 45.78 101.931C46.0489 101.771 46.3485 101.69 46.6787 101.69C47.0136 101.69 47.3155 101.768 47.5844 101.924C47.8533 102.08 48.0656 102.292 48.2212 102.561C48.3816 102.825 48.4618 103.122 48.4618 103.452C48.4618 103.783 48.3816 104.082 48.2212 104.351C48.0656 104.62 47.8533 104.835 47.5844 104.995C47.3155 105.151 47.0136 105.228 46.6787 105.228ZM46.6787 104.478C46.8721 104.478 47.0419 104.436 47.1881 104.351C47.3391 104.261 47.4547 104.139 47.5349 103.983C47.6198 103.827 47.6622 103.651 47.6622 103.452C47.6622 103.254 47.6198 103.08 47.5349 102.929C47.4499 102.778 47.3344 102.66 47.1881 102.575C47.0419 102.485 46.8721 102.441 46.6787 102.441C46.49 102.441 46.3202 102.485 46.1692 102.575C46.023 102.66 45.9074 102.778 45.8225 102.929C45.7423 103.08 45.7022 103.254 45.7022 103.452C45.7022 103.651 45.7423 103.827 45.8225 103.983C45.9074 104.139 46.023 104.261 46.1692 104.351C46.3202 104.436 46.49 104.478 46.6787 104.478ZM49.1091 105.158V101.761H49.8875V105.158H49.1091ZM51.3663 105.158V103.134C51.3663 102.908 51.2956 102.733 51.1541 102.61C51.0125 102.483 50.838 102.419 50.6304 102.419C50.4889 102.419 50.3616 102.448 50.2483 102.504C50.1398 102.561 50.0526 102.643 49.9865 102.752C49.9205 102.856 49.8875 102.983 49.8875 103.134L49.5832 102.964C49.5832 102.705 49.6398 102.481 49.753 102.292C49.8662 102.103 50.0195 101.957 50.213 101.853C50.4064 101.745 50.6234 101.69 50.8639 101.69C51.1045 101.69 51.3215 101.742 51.5149 101.846C51.7083 101.95 51.8617 102.096 51.9749 102.285C52.0881 102.474 52.1447 102.7 52.1447 102.964V105.158H51.3663ZM53.6236 105.158V103.134C53.6236 102.908 53.5528 102.733 53.4113 102.61C53.2698 102.483 53.0952 102.419 52.8877 102.419C52.7509 102.419 52.6259 102.448 52.5126 102.504C52.3994 102.561 52.3098 102.643 52.2438 102.752C52.1777 102.856 52.1447 102.983 52.1447 103.134L51.706 102.964C51.7296 102.705 51.8051 102.481 51.9324 102.292C52.0598 102.103 52.2225 101.957 52.4207 101.853C52.6235 101.745 52.8452 101.69 53.0858 101.69C53.3311 101.69 53.5528 101.742 53.7509 101.846C53.9491 101.95 54.1071 102.096 54.225 102.285C54.343 102.474 54.4019 102.7 54.4019 102.964V105.158H53.6236ZM55.2109 105.158V101.761H55.9893V105.158H55.2109ZM55.6001 101.139C55.468 101.139 55.3572 101.094 55.2675 101.004C55.1826 100.914 55.1402 100.804 55.1402 100.672C55.1402 100.539 55.1826 100.429 55.2675 100.339C55.3572 100.249 55.468 100.205 55.6001 100.205C55.7369 100.205 55.8478 100.249 55.9327 100.339C56.0176 100.429 56.06 100.539 56.06 100.672C56.06 100.804 56.0176 100.914 55.9327 101.004C55.8478 101.094 55.7369 101.139 55.6001 101.139ZM58.4261 105.228C58.0911 105.228 57.7869 105.151 57.5133 104.995C57.2444 104.839 57.0321 104.627 56.8764 104.358C56.7208 104.089 56.6429 103.79 56.6429 103.459C56.6429 103.125 56.7208 102.825 56.8764 102.561C57.0321 102.292 57.2444 102.08 57.5133 101.924C57.7869 101.768 58.0911 101.69 58.4261 101.69C58.6902 101.69 58.9355 101.742 59.162 101.846C59.3931 101.945 59.5889 102.089 59.7493 102.278L59.2398 102.794C59.1407 102.676 59.0205 102.589 58.8789 102.533C58.7421 102.471 58.5912 102.441 58.4261 102.441C58.2327 102.441 58.0605 102.485 57.9095 102.575C57.7633 102.66 57.6477 102.778 57.5628 102.929C57.4826 103.08 57.4425 103.257 57.4425 103.459C57.4425 103.658 57.4826 103.835 57.5628 103.99C57.6477 104.141 57.7633 104.261 57.9095 104.351C58.0605 104.436 58.2327 104.478 58.4261 104.478C58.5912 104.478 58.7421 104.45 58.8789 104.394C59.0205 104.332 59.1407 104.243 59.2398 104.125L59.7493 104.641C59.5889 104.83 59.3931 104.976 59.162 105.08C58.9355 105.179 58.6902 105.228 58.4261 105.228ZM61.4214 105.228C61.2327 105.228 61.0511 105.205 60.8765 105.158C60.702 105.106 60.5416 105.035 60.3954 104.945C60.2491 104.851 60.1217 104.738 60.0133 104.606L60.5086 104.11C60.6265 104.247 60.7609 104.351 60.9119 104.422C61.0676 104.488 61.2421 104.521 61.4355 104.521C61.6101 104.521 61.7421 104.495 61.8318 104.443C61.9214 104.391 61.9662 104.316 61.9662 104.217C61.9662 104.113 61.9238 104.033 61.8389 103.976C61.7539 103.919 61.6431 103.872 61.5063 103.835C61.3742 103.792 61.2327 103.75 61.0817 103.707C60.9355 103.665 60.794 103.608 60.6572 103.537C60.5251 103.462 60.4166 103.36 60.3317 103.233C60.2468 103.106 60.2043 102.941 60.2043 102.738C60.2043 102.521 60.2538 102.334 60.3529 102.179C60.4567 102.023 60.6006 101.903 60.7845 101.818C60.9732 101.733 61.1973 101.69 61.4568 101.69C61.7304 101.69 61.9709 101.74 62.1785 101.839C62.3908 101.933 62.5677 102.077 62.7092 102.271L62.2139 102.766C62.1148 102.643 62.0016 102.551 61.8742 102.49C61.7469 102.429 61.6006 102.398 61.4355 102.398C61.2799 102.398 61.1596 102.422 61.0746 102.469C60.9897 102.516 60.9473 102.584 60.9473 102.674C60.9473 102.768 60.9897 102.842 61.0746 102.893C61.1596 102.945 61.2681 102.99 61.4001 103.028C61.5369 103.066 61.6785 103.108 61.8247 103.155C61.9757 103.198 62.1172 103.259 62.2493 103.339C62.3861 103.415 62.4969 103.518 62.5818 103.651C62.6667 103.778 62.7092 103.945 62.7092 104.153C62.7092 104.483 62.5936 104.745 62.3625 104.938C62.1313 105.132 61.8176 105.228 61.4214 105.228Z" fill="#121212"/>
</svg>
