<svg width="44" height="71" viewBox="0 0 44 71" fill="none" xmlns="http://www.w3.org/2000/svg">
<path d="M43.4963 65.9845L16.3942 50.3516L9.05273 54.6159L36.1455 70.2488L43.4963 65.9845Z" fill="#467293"/>
<path d="M8.55957 54.1502L18.9849 48.0981C19.1153 48.3123 19.2923 48.4799 19.4694 48.5823C19.6464 48.6847 19.8234 48.722 19.9538 48.6661L9.52851 54.7182C9.38876 54.774 9.22107 54.7368 9.04405 54.6344C8.86704 54.5319 8.69 54.3643 8.55957 54.1502Z" fill="#FEDFD2"/>
<path d="M16.6092 42.8933C16.3762 43.033 16.162 43.2099 15.9756 43.4333C15.6123 43.6475 15.1278 43.9268 14.7552 44.141C12.0906 45.6866 9.42604 47.2322 6.76149 48.7778L5.54102 49.4854C5.72735 49.2619 5.94162 49.085 6.17454 48.9454C9.30492 47.1297 13.4695 44.7089 16.5998 42.8933H16.6092Z" fill="#FEDFD2"/>
<path d="M0.975683 37.1393L11.401 31.0779L11.3823 36.2826L0.957031 42.344L0.975683 37.1393Z" fill="#FEDFD2"/>
<path d="M6.18359 48.9455L16.6089 42.8935C17.3729 42.4465 18.379 42.4838 19.4784 43.1169L9.0531 49.169C7.96306 48.5358 6.95687 48.4986 6.18359 48.9455Z" fill="#184F78"/>
<path d="M9.52832 54.7182L19.9536 48.6662L22.9722 47.4651L12.5469 53.5171L9.52832 54.7182Z" fill="#FEDFD2"/>
<path d="M9.0533 49.1688C10.4881 49.9975 11.7551 51.6548 12.5377 53.517L9.52846 54.7088C9.38871 54.7647 9.22102 54.7274 9.04401 54.625C8.86699 54.5226 8.68996 54.355 8.55952 54.1408L5.55957 49.4761C6.3608 48.5264 7.62787 48.3309 9.06263 49.1595L9.0533 49.1688Z" fill="#184F78"/>
<path d="M9.05371 49.1688L19.479 43.1167C20.9138 43.9454 22.1808 45.6027 22.9634 47.4649L12.5381 53.5169C11.7555 51.6548 10.4885 49.9974 9.05371 49.1688Z" fill="#184F78"/>
<path d="M0.957031 42.3441L11.3823 36.2828L16.0965 34.9792L5.67127 41.0313L0.957031 42.3441Z" fill="#FEDFD2"/>
<path d="M5.6709 41.0313L16.0962 34.9792L19.4874 40.9568L9.06213 47.0182L5.6709 41.0313Z" fill="#FEDFD2"/>
<path d="M12.4817 44.9698L22.907 38.9084L19.4878 40.9568L9.0625 47.0182L12.4817 44.9698Z" fill="#FD814C"/>
<path d="M12.4814 43.7777L22.9067 37.7163V38.9081L12.4814 44.9695V43.7777Z" fill="#FEDFD2"/>
<path d="M12.4814 43.7777L22.9067 37.7163V38.9081L12.4814 44.9695V43.7777Z" fill="#FD814C"/>
<path d="M12.4817 44.9693L17.168 51.6918L9.52833 54.7178C9.38858 54.7737 9.22089 54.7364 9.04388 54.634C9.22089 54.7364 9.3979 54.7737 9.52833 54.7178L12.5376 53.526C11.755 51.6638 10.4879 50.0065 9.05318 49.1778C7.62773 48.3585 6.35138 48.5447 5.55015 49.4944L0.957031 42.3437L5.67127 41.0402L9.0625 47.0177L12.4817 44.9693Z" fill="#FEDFD2"/>
<path d="M12.4814 44.9698L22.9067 38.9084L27.593 45.6402L17.1677 51.6923L12.4814 44.9698Z" fill="#FEDFD2"/>
<path d="M5.74542 16.9905L16.1707 10.9385L16.0962 34.9791L5.6709 41.0311L5.74542 16.9905Z" fill="#FC611F"/>
<path d="M5.74579 16.9905L5.67127 41.0311L0.957031 42.3439L0.975683 37.1392L1.04091 14.2717L5.74579 16.9905Z" fill="#FC611F"/>
<path d="M1.04102 14.2715L11.4663 8.21948L16.1712 10.9382L5.7459 16.9903L1.04102 14.2715Z" fill="#FC611F"/>
<path d="M5.74512 16.9905L16.1704 10.9385L22.9715 14.8584L12.5462 20.9104L5.74512 16.9905Z" fill="#FD814C"/>
<path d="M12.5466 20.9105L22.9719 14.8584L22.9067 37.7165L12.4814 43.7779L12.5466 20.9105Z" fill="#FD814C"/>
<path d="M12.5465 20.9109L12.4813 43.7783V44.9701L9.06213 47.0185L5.6709 41.0316L5.74542 16.991L12.5465 20.9109Z" fill="#FD814C"/>
<path d="M12.5469 20.9105L22.9722 14.8584L27.6771 17.5772L17.2518 23.6292L12.5469 20.9105Z" fill="#FDA079"/>
<path d="M17.2515 23.6292L17.1677 51.6921L12.4814 44.9696V43.7778L12.5466 20.9104L17.2515 23.6292Z" fill="#FDA079"/>
<path d="M17.2518 23.6294L27.6771 17.5774L27.5933 45.6403L17.168 51.6924L17.2518 23.6294Z" fill="#FD814C"/>
<path d="M17.252 20.929L27.6773 14.877V17.5771L17.252 23.6291V20.929Z" fill="#D1DCE4"/>
<path d="M1.0498 11.5716L11.4751 5.51953L27.6767 14.8769L17.2514 20.929L1.0498 11.5716Z" fill="#D1DCE4"/>
<path d="M1.05031 11.5718L17.2519 20.9292V23.6293L12.547 20.9106L5.7459 16.9907L1.04102 14.2719L1.05031 11.5718Z" fill="#9DA5AB"/>
<path d="M15.8731 14.0762C16.6463 14.5231 17.2705 15.6032 17.2612 16.497V20.929L1.04102 11.5716V7.14896C1.05033 6.26443 1.68384 5.90131 2.44781 6.34823L15.8637 14.0762H15.8731Z" fill="#123B5A"/>
<path d="M26.2985 8.0241L12.8826 0.286791C12.5006 0.0633305 12.1466 0.0447031 11.895 0.193677L1.46973 6.24573C1.72128 6.09676 2.0753 6.11538 2.45729 6.33884L15.8732 14.0669C16.6465 14.5138 17.2707 15.5938 17.2614 16.4877V20.9196L27.6774 14.8676V10.4356C27.696 9.54177 27.0718 8.46171 26.2985 8.01478V8.0241Z" fill="#184F78"/>
</svg>
