<svg width="102" height="24" viewBox="0 0 102 24" fill="none" xmlns="http://www.w3.org/2000/svg">
<path d="M40.3491 8.56826H43.5207V18.5518H40.3491V8.56826Z" fill="black"/>
<path d="M44.1829 8.56825H47.2376V9.93319H47.2959C48.0353 8.86069 48.9886 8.2758 50.3701 8.2758C52.5492 8.2758 53.8334 9.83571 53.8334 12.0586V18.5518H50.6619V12.7021C50.6619 11.6491 50.1366 10.9276 49.1054 10.9276C48.0548 10.9276 47.3543 11.8051 47.3543 13.0335V18.5518H44.1829V8.56825Z" fill="black"/>
<path d="M43.8372 5.89724C43.8372 4.84422 42.9855 3.99069 41.9348 3.99069C40.8842 3.99069 40.0324 4.84422 40.0324 5.89724C40.0324 6.95017 40.8842 7.8037 41.9348 7.8037C42.9855 7.8037 43.8372 6.95017 43.8372 5.89724Z" fill="black"/>
<path d="M76.1386 8.42405C76.0481 8.41589 75.9444 8.41225 75.823 8.41225C74.6167 8.41225 73.7995 8.93871 73.099 10.1282H73.0407V8.56826H70.0054V18.5517H73.1769V14.067C73.1769 11.989 74.3251 11.0261 76.1386 11.1941V8.42405Z" fill="black"/>
<path d="M91.7021 12.2535C90.4374 12.0196 89.3089 11.9221 89.3089 11.2202C89.3089 10.5961 89.9121 10.3037 90.6903 10.3037C91.5658 10.3037 92.1691 10.5766 92.2858 11.4736H95.2043C95.0487 9.50424 93.531 8.27573 90.7099 8.27573C88.3555 8.27573 86.4099 9.3677 86.4099 11.4736C86.4099 13.8134 88.2583 14.2814 89.99 14.574C91.313 14.808 92.5193 14.9055 92.5193 15.8024C92.5193 16.4459 91.9161 16.7969 90.9628 16.7969C90.0063 16.7969 89.3737 16.3913 89.1797 15.5685H86.1577C86.3801 17.6208 88.1777 18.8638 90.9822 18.8638C93.5894 18.8638 95.5156 17.7328 95.5156 15.549C95.5156 12.9945 93.4532 12.546 91.7021 12.2535Z" fill="black"/>
<path d="M81.0583 10.5376C82.0895 10.5376 82.8288 11.2981 82.9456 12.4876H79.0154C79.2294 11.2981 79.852 10.5376 81.0583 10.5376ZM81.2334 16.5628C79.9298 16.5628 79.1905 15.7244 78.9958 14.3789H86.156C86.1754 12.3511 85.5918 10.6156 84.4049 9.52374C83.5488 8.74378 82.4203 8.27575 80.9998 8.27575C77.9647 8.27575 75.8828 10.5571 75.8828 13.5406C75.8828 16.5628 77.9064 18.8443 81.1945 18.8443C82.4591 18.8443 83.4709 18.5128 84.3076 17.9278C85.1831 17.3234 85.7668 16.4654 85.9808 15.5685H82.8872C82.6148 16.1924 82.0701 16.5628 81.2334 16.5628Z" fill="black"/>
<path d="M101.101 16.1976C100.954 16.2034 100.757 16.212 100.576 16.212C99.8946 16.212 99.4666 16.0169 99.4666 15.2369V10.5571H101.101V8.56825H99.4666V5.40938H96.3729V8.56825H95.3996V10.5571H96.3729V15.9194C96.3729 18.0644 97.6961 18.6688 99.5445 18.6688C100.25 18.6688 100.783 18.6159 101.101 18.5536V16.1976Z" fill="black"/>
<path d="M59.497 16.2021C59.3705 16.207 59.2244 16.212 59.088 16.212C58.4071 16.212 57.979 16.0169 57.979 15.2369V10.5571H59.497V8.56824H57.979V5.40938H54.8854V8.56824H53.8538V10.5571H54.8854V15.9194C54.8854 18.0644 56.2084 18.6688 58.0568 18.6688C58.6823 18.6688 59.1719 18.6271 59.497 18.5742V16.2021Z" fill="black"/>
<path d="M66.405 12.4876C66.2883 11.2982 65.5488 10.5376 64.5176 10.5376C63.3113 10.5376 62.6887 11.2982 62.4747 12.4876H66.405ZM59.3422 13.5405C59.3422 10.5571 61.424 8.27582 64.4593 8.27582C65.8796 8.27582 67.0082 8.74375 67.8642 9.5237C69.0511 10.6157 69.6347 12.3511 69.6153 14.379H62.4553C62.6498 15.7244 63.3892 16.5629 64.6928 16.5629C65.5294 16.5629 66.0742 16.1924 66.3465 15.5685H69.4402C69.2261 16.4654 68.6425 17.3233 67.7669 17.9279C66.9303 18.5128 65.9186 18.8443 64.6539 18.8443C61.3656 18.8443 59.3422 16.5629 59.3422 13.5405Z" fill="black"/>
<path d="M34.8414 11.1617C36.0867 11.1617 36.7871 10.4207 36.7871 9.30912C36.7871 8.19777 36.0672 7.51529 34.8414 7.51529H32.4092V11.1617H34.8414ZM29.1984 4.60992H34.7058C36.3984 4.60992 37.6437 5.07786 38.4998 5.89686C39.3948 6.73524 39.9007 7.9248 39.9007 9.32869C39.9007 12 38.0523 13.8915 35.1921 13.8915H32.4092V18.5518H29.1984V4.60992Z" fill="black"/>
<path d="M12.8723 0C6.25935 0 0.898438 5.37252 0.898438 12C0.898438 17.0838 4.05314 21.4283 8.50731 23.1767C8.40268 22.2273 8.30806 20.7671 8.54883 19.7306C8.76643 18.7941 9.9529 13.7659 9.9529 13.7659C9.9529 13.7659 9.59475 13.047 9.59475 11.9842C9.59475 10.3156 10.5598 9.06991 11.7614 9.06991C12.7829 9.06991 13.2764 9.83855 13.2764 10.7603C13.2764 11.7899 12.6223 13.3292 12.2847 14.7557C12.0026 15.9501 12.8824 16.9241 14.0579 16.9241C16.186 16.9241 17.8219 14.6753 17.8219 11.4291C17.8219 8.55585 15.7619 6.54699 12.8203 6.54699C9.41336 6.54699 7.41359 9.10798 7.41359 11.7546C7.41359 12.786 7.81003 13.892 8.30472 14.4932C8.40258 14.612 8.41691 14.7161 8.38776 14.8374C8.29687 15.2164 8.09487 16.0315 8.05522 16.1983C8.003 16.4179 7.88169 16.4646 7.65476 16.3587C6.1593 15.6611 5.2243 13.4699 5.2243 11.7099C5.2243 7.92453 7.96865 4.44813 13.1359 4.44813C17.2896 4.44813 20.5176 7.41449 20.5176 11.3788C20.5176 15.5144 17.9156 18.8428 14.3042 18.8428C13.0909 18.8428 11.9502 18.2111 11.5598 17.4649C11.5598 17.4649 10.9594 19.756 10.8138 20.3175C10.5435 21.3598 9.81372 22.6663 9.32561 23.4634C10.4459 23.811 11.6379 24 12.8723 24C19.4852 24 24.8462 18.6274 24.8462 12C24.8462 5.37252 19.4852 0 12.8723 0Z" fill="black"/>
</svg>
