<svg width="39" height="73" viewBox="0 0 39 73" fill="none" xmlns="http://www.w3.org/2000/svg">
<path d="M22.8811 56.4314L31.0562 60.9314C30.7743 60.775 30.2397 60.8578 29.6273 61.1983L21.4619 56.7075C22.0743 56.367 22.609 56.2841 22.8909 56.4406L22.8811 56.4314Z" fill="#184F78"/>
<path d="M16.8255 68.1854L8.66016 63.6845L21.4428 56.6985L29.6179 61.1902L16.8255 68.1854Z" fill="#184F78"/>
<path d="M16.8257 68.185L8.65061 63.6934C7.74659 64.1904 7.00781 65.0556 7.00781 65.617V67.5407L15.1829 72.0324V70.1087C15.1829 69.5473 15.9119 68.6821 16.816 68.185H16.8257Z" fill="#123B5A"/>
<path d="M29.6178 61.1897C30.5316 60.6926 31.2606 60.7479 31.2606 61.3093C31.2606 61.88 31.2606 63.1686 31.2606 63.233L15.1826 72.0231V70.0994C15.1826 69.5379 15.9117 68.6727 16.8157 68.1757L29.6081 61.1805L29.6178 61.1897Z" fill="#184F78"/>
<path d="M16.6604 68.2676L8.49508 63.776L8.48535 61.7234L16.6604 66.2151V68.2676Z" fill="#BD4917"/>
<path d="M16.6604 66.2152L8.48535 61.7235L21.6083 54.5442L29.7833 59.0451L16.6604 66.2152Z" fill="#FC611F"/>
<path d="M29.7831 59.0454V61.098L29.6178 61.19L16.8254 68.1853L16.6602 68.2681V66.2155L29.7831 59.0454Z" fill="#FC611F"/>
<path d="M14.1816 57.2134C14.4052 57.3331 14.7065 57.3147 15.0468 57.1306L23.2218 61.6215C22.8816 61.8055 22.5803 61.8239 22.3567 61.7043C19.9071 60.3607 16.641 58.557 14.1914 57.2134H14.1816Z" fill="#184F78"/>
<path d="M16.262 55.1333C16.262 54.7743 16.1259 54.5166 15.912 54.397L24.0774 58.8887C24.301 59.0083 24.4273 59.266 24.437 59.625C24.437 60.3521 23.8927 61.2542 23.222 61.6223L15.0469 57.1306C15.7176 56.7625 16.262 55.8696 16.262 55.1333Z" fill="#184F78"/>
<path d="M15.9022 54.3969L24.0676 58.8878C23.844 58.7682 23.5427 58.7774 23.2024 58.9706L15.0273 54.4798C15.3676 54.2957 15.6786 54.2773 15.8925 54.3969H15.9022Z" fill="#FC611F"/>
<path d="M22.3473 61.7058L14.1819 57.2141C13.9584 57.0945 13.8223 56.8368 13.8223 56.4686C13.8223 55.7415 14.3569 54.8486 15.0373 54.4805L23.2124 58.9722C22.5417 59.3403 21.9973 60.2331 21.9973 60.9603C21.9973 61.3285 22.1334 61.5862 22.357 61.7058H22.3473Z" fill="#FC611F"/>
<path d="M23.2022 57.6737C26.828 55.6948 29.7733 56.3115 29.7831 59.0452L16.6602 66.2245C16.6602 63.4909 19.5861 59.6527 23.2022 57.6737ZM23.2119 61.6316C23.8826 61.2634 24.427 60.3706 24.427 59.6343C24.427 58.9071 23.8729 58.6126 23.2022 58.9808C22.5314 59.3489 21.9871 60.2418 21.9871 60.9689C21.9871 61.7052 22.5314 61.9998 23.2022 61.6316H23.2119Z" fill="#184F78"/>
<path d="M23.2024 58.9719C23.8731 58.6038 24.4272 58.8983 24.4272 59.6253C24.4272 60.3523 23.8829 61.2542 23.2122 61.6223C22.5414 61.9904 21.9971 61.6867 21.9971 60.9597C21.9971 60.2327 22.5317 59.34 23.2122 58.9719H23.2024Z" fill="#FC611F"/>
<path d="M20.4515 52.372C19.2656 51.7185 17.2826 51.9486 15.0274 53.1728C11.4113 55.1517 8.47565 58.9806 8.48538 61.7235L16.6605 66.2152C16.6605 63.4815 19.5864 59.6434 23.2025 57.6644C25.448 56.4403 27.431 56.2102 28.6169 56.8545L20.4515 52.3628V52.372Z" fill="#123B5A"/>
<path d="M8.23294 23.4609L12.3156 21.2151C10.0215 22.4761 8.60232 25.1545 8.5926 28.9651C8.57316 36.623 14.2792 45.9838 21.317 49.8312C24.447 51.5432 27.4118 51.9481 29.7545 50.9909L25.6718 53.2367C23.3291 54.194 20.374 53.789 17.244 52.077C10.2062 48.2296 4.49048 38.8689 4.51964 31.2109C4.52936 27.4096 5.9583 24.7311 8.25237 23.4609H8.23294Z" fill="#BD4917"/>
<path d="M29.7735 56.4488L33.8562 54.2034C33.8562 54.7923 33.6326 55.2433 33.2438 55.4457L29.1611 57.6912C29.55 57.4795 29.7735 57.0286 29.7735 56.4488Z" fill="#BD4917"/>
<path d="M29.7734 54.8653L33.8561 52.6199V54.1935L29.7734 56.4481V54.8653Z" fill="#BD4917"/>
<path d="M32.0186 54.6448L36.1109 52.3901L36.1012 53.8441L32.0186 56.0896V54.6448Z" fill="#BD4917"/>
<path d="M23.416 49.9329L27.4987 47.687L36.1112 52.3904L32.0188 54.6454L23.416 49.9329Z" fill="#BD4917"/>
<path d="M5.31641 18.7114L9.39907 16.466C12.4708 14.7727 16.7187 15.012 21.4041 17.5703L17.3214 19.8157C12.6361 17.2574 8.38814 17.0181 5.31641 18.7114Z" fill="#BD4917"/>
<path d="M17.3213 19.8162L21.4039 17.5703L21.3942 22.0436L17.3115 24.2986L17.3213 19.8162Z" fill="#BD4917"/>
<path d="M17.3212 19.8162V24.2987C10.264 20.4513 4.51907 23.5532 4.49963 31.2111C4.48019 38.8691 10.1862 48.2298 17.224 52.0772C20.354 53.7892 23.3188 54.185 25.6518 53.2369V52.6295L23.4063 51.3961V49.9418L32.0188 54.6452V56.0903L29.7734 54.8661V56.4492C29.7734 57.0383 29.5401 57.4893 29.161 57.6918C25.9629 59.4222 21.7246 59.008 17.2142 56.5505C7.90185 51.4605 0.358618 39.0808 0.38778 28.9561C0.416942 18.8314 8.01851 14.7263 17.3212 19.8162Z" fill="#FC611F"/>
<path d="M18.7211 34.7376L12.2568 12.1503C12.5193 13.0523 13.3844 13.7979 14.8134 14.1936C17.7587 14.9944 21.9678 13.9727 24.2133 11.9018C25.37 10.8433 25.7783 9.70195 25.5061 8.75391L31.9703 31.3412C32.2425 32.2984 31.8343 33.4306 30.6775 34.489C28.432 36.5508 24.223 37.5817 21.2776 36.7809C19.8487 36.3943 18.9835 35.6396 18.7211 34.7376Z" fill="#184F78"/>
<path d="M22.9592 6.7007C25.9046 7.50147 26.4684 9.83016 24.2229 11.8919C21.9774 13.9537 17.7684 14.9845 14.823 14.1838C11.8777 13.383 11.3138 11.0543 13.5593 8.99258C15.8048 6.92162 20.0138 5.89993 22.9592 6.7007Z" fill="#123B5A"/>
<path d="M13.2384 9.51718L11.7803 4.40882C11.9747 5.08994 12.6357 5.66059 13.7147 5.95513C15.9407 6.56261 19.1291 5.78945 20.8302 4.22472C21.7051 3.42395 22.0161 2.56796 21.812 1.84082L23.2701 6.94921C23.4742 7.67635 23.1632 8.53234 22.2883 9.33311C20.5872 10.8978 17.3988 11.671 15.1728 11.0635C14.0938 10.769 13.4328 10.1983 13.2384 9.51718Z" fill="#184F78"/>
<path d="M19.8681 0.294143C22.0941 0.901625 22.5218 2.65963 20.8207 4.22436C19.1196 5.78908 15.9312 6.56225 13.7052 5.95477C11.4792 5.34728 11.0514 3.58928 12.7526 2.02455C14.4537 0.459824 17.6323 -0.313339 19.8681 0.294143Z" fill="#123B5A"/>
<path d="M15.3773 5.23612C14.8621 5.23612 14.3955 5.1809 13.9775 5.06127C13.2776 4.86802 12.811 4.53673 12.7138 4.15022C12.6069 3.73611 12.8694 3.20235 13.4429 2.67781C14.5316 1.67472 16.4466 1.00293 18.2157 1.00293C18.7309 1.00293 19.1975 1.05815 19.6155 1.17778C20.3154 1.37104 20.782 1.70235 20.8792 2.08886C20.9861 2.50297 20.7237 3.0367 20.1599 3.56124C19.0711 4.56433 17.1464 5.24533 15.387 5.24533L15.3773 5.23612Z" fill="#7495AE"/>
<path d="M22.3857 36.9732C22.726 38.1514 23.0467 39.2927 23.3675 40.388C23.387 40.4524 23.4259 40.5168 23.455 40.5813C23.4842 40.6365 23.4939 40.6917 23.5328 40.7378C23.5814 40.8114 23.6494 40.885 23.7272 40.9495C23.7661 40.9863 23.7952 41.0323 23.8438 41.0691C23.9313 41.1427 24.048 41.2072 24.1549 41.2716C24.1938 41.2992 24.223 41.3268 24.2716 41.3452C24.4368 41.4281 24.6312 41.5017 24.8353 41.5569C26.5267 42.0171 28.9375 41.4281 30.2206 40.2407C30.3858 40.0934 30.5219 39.937 30.6288 39.7805C30.6677 39.7345 30.6872 39.6793 30.7164 39.6332C30.7844 39.532 30.8524 39.4307 30.8913 39.3203C30.9205 39.2559 30.9205 39.2007 30.9399 39.1362C30.9691 39.0534 30.9982 38.9613 30.9982 38.8785C30.9982 38.8141 30.9983 38.7496 30.9885 38.6852C30.9885 38.6116 30.9885 38.5287 30.9594 38.4551C30.9594 38.4551 30.9594 38.4367 30.9594 38.4275L29.9776 35.0127C27.9362 36.4762 24.8937 37.2585 22.3857 36.964V36.9732Z" fill="#7495AE"/>
<path d="M38.2694 49.2422V51.0831C38.2694 52.4545 37.3071 53.8168 35.4116 54.8661C31.5816 56.9738 25.3604 56.9738 21.5207 54.8661C19.5766 53.8076 18.6143 52.4177 18.6143 51.0279V49.187C18.6143 50.5769 19.5863 51.9667 21.5305 53.0252C25.3798 55.1238 31.6011 55.1238 35.4213 53.0252C37.3168 51.9851 38.2694 50.6137 38.2694 49.2422Z" fill="#123B5A"/>
<path d="M35.373 45.4044C39.2224 47.503 39.2419 50.9178 35.4216 53.0256C31.5917 55.1333 25.3705 55.1333 21.5308 53.0256C17.6717 50.9178 17.6523 47.503 21.4822 45.3952C25.3024 43.2966 31.5236 43.2966 35.3827 45.3952L35.373 45.4044Z" fill="#184F78"/>
</svg>
