<svg width="49" height="48" viewBox="0 0 49 48" fill="none" xmlns="http://www.w3.org/2000/svg">
<path d="M38.334 30C33.914 30 30.334 33.58 30.334 38C30.334 39.5 30.754 40.92 31.494 42.12C32.874 44.44 35.414 46 38.334 46C41.254 46 43.794 44.44 45.174 42.12C45.914 40.92 46.334 39.5 46.334 38C46.334 33.58 42.754 30 38.334 30ZM42.474 37.14L38.214 41.08C37.934 41.34 37.554 41.48 37.194 41.48C36.814 41.48 36.434 41.34 36.134 41.04L34.154 39.06C33.574 38.48 33.574 37.52 34.154 36.94C34.734 36.36 35.694 36.36 36.274 36.94L37.234 37.9L40.434 34.94C41.034 34.38 41.994 34.42 42.554 35.02C43.114 35.62 43.074 36.56 42.474 37.14Z" fill="#2F52FF"/>
<path d="M44.334 15.1V16C44.334 17.1 43.434 18 42.334 18H6.33398C5.23398 18 4.33398 17.1 4.33398 16V15.08C4.33398 10.5 8.03398 6.79999 12.614 6.79999H36.034C40.614 6.79999 44.334 10.52 44.334 15.1Z" fill="#2F52FF"/>
<path d="M4.33398 23V32.92C4.33398 37.5 8.03398 41.2 12.614 41.2H25.134C26.294 41.2 27.294 40.22 27.194 39.06C26.914 36 27.894 32.68 30.614 30.04C31.734 28.94 33.114 28.1 34.614 27.62C37.114 26.82 39.534 26.92 41.674 27.64C42.974 28.08 44.334 27.14 44.334 25.76V22.98C44.334 21.88 43.434 20.98 42.334 20.98H6.33398C5.23398 21 4.33398 21.9 4.33398 23ZM16.334 34.5H12.334C11.514 34.5 10.834 33.82 10.834 33C10.834 32.18 11.514 31.5 12.334 31.5H16.334C17.154 31.5 17.834 32.18 17.834 33C17.834 33.82 17.154 34.5 16.334 34.5Z" fill="#2F52FF"/>
</svg>
