<svg width="128" height="32" viewBox="0 0 128 32" fill="none" xmlns="http://www.w3.org/2000/svg">
<path fill-rule="evenodd" clip-rule="evenodd" d="M25.9613 4H7.9575C6.40868 4 5.15252 5.25446 5.15041 6.80328V24.7806C5.14742 25.527 5.44183 26.2439 5.96858 26.7728C6.49534 27.3017 7.21105 27.599 7.9575 27.599H25.9613C26.7071 27.598 27.4218 27.3002 27.9477 26.7715C28.4737 26.2427 28.7676 25.5264 28.7646 24.7806V6.80328C28.7625 5.25593 27.5086 4.00208 25.9613 4ZM15.3345 20.9975C15.3335 21.247 15.2332 21.4858 15.0557 21.6611C14.8783 21.8365 14.6383 21.9339 14.3888 21.9319H10.4543C9.93975 21.9298 9.5237 21.5121 9.5237 20.9975V9.28878C9.5237 8.77418 9.93975 8.35643 10.4543 8.35435H14.3888C14.904 8.35642 15.3211 8.77357 15.3232 9.28878L15.3345 20.9975ZM24.414 15.6217C24.414 15.8715 24.314 16.1109 24.1363 16.2865C23.9586 16.462 23.718 16.5592 23.4682 16.5562H19.5338C19.0186 16.554 18.6014 16.1369 18.5994 15.6217V9.28878C18.6014 8.77357 19.0186 8.35642 19.5338 8.35435H23.4682C23.9828 8.35643 24.3989 8.77418 24.3989 9.28878L24.414 15.6217Z" fill="#222328"/>
<path d="M54.0811 5.72888V10.2913H48.675V27.599H43.4619V10.2913H38.0559V5.72888H54.0811Z" fill="#222328"/>
<path d="M60.7166 27.599H55.897V10.575H60.7166V13.8361C61.6321 11.5397 63.0962 10.174 65.7028 10.3405V15.3834C62.298 15.1185 60.7166 15.9508 60.7166 18.6784V27.599Z" fill="#222328"/>
<path d="M92.0332 27.7314C88.8743 27.7314 86.8881 26.2182 86.8881 22.6393V4H91.7419V21.9735C91.7419 23.0063 92.4228 23.3733 93.2551 23.3733C93.4952 23.3781 93.7353 23.3668 93.9739 23.3392V27.5347C93.3391 27.6893 92.686 27.7555 92.0332 27.7314Z" fill="#222328"/>
<path d="M102.157 27.7314C98.9979 27.7314 97.0079 26.2182 97.0079 22.6393V4H101.862V21.9735C101.862 23.0063 102.546 23.3733 103.394 23.3733C103.633 23.3782 103.872 23.3668 104.109 23.3392V27.5347C103.47 27.6908 102.813 27.757 102.157 27.7314Z" fill="#222328"/>
<path d="M106.435 19.0794C106.435 13.8209 109.462 10.2232 114.675 10.2232C119.888 10.2232 122.85 13.8096 122.85 19.0794C122.85 24.3493 119.854 28 114.675 28C109.496 28 106.435 24.3039 106.435 19.0794ZM111.161 19.0794C111.161 21.6406 112.235 23.6721 114.675 23.6721C117.115 23.6721 118.129 21.6406 118.129 19.0794C118.129 16.5183 117.089 14.5397 114.675 14.5397C112.261 14.5397 111.161 16.5145 111.161 19.0794Z" fill="#222328"/>
<path d="M72.2097 20.6192C73.5591 20.7674 74.9152 20.847 76.2728 20.8575C79.9651 20.8575 83.0823 19.8663 83.0823 16.2913C83.0823 12.8222 79.8781 10.2156 76.0231 10.2156C70.8326 10.2156 67.5073 13.9798 67.5073 19.2383C67.5073 24.6974 70.3749 27.9395 76.8554 27.9395C78.7779 27.9551 80.6866 27.6139 82.4846 26.9332V22.855C80.82 23.3884 78.9474 23.918 77.0256 23.918C74.4455 23.918 72.6485 23.0706 72.2097 20.6192ZM75.9247 13.9306C77.2904 13.9306 78.3875 14.8575 78.3875 16.1248C78.3875 17.7554 76.6662 18.2661 74.6839 18.2661C73.8402 18.2622 72.998 18.1952 72.1643 18.0656C72.2273 17.2706 72.4553 16.4976 72.8339 15.7957C73.4524 14.6631 74.6343 13.9528 75.9247 13.9382V13.9306Z" fill="#222328"/>
</svg>
