<svg width="16" height="18" viewBox="0 0 16 18" fill="none" xmlns="http://www.w3.org/2000/svg">
<path d="M12.7981 2.80528C12.1469 2.05307 11.7554 1.07225 11.7554 0H10.9393C11.1495 1.17199 11.8419 2.17776 12.7981 2.80528Z" fill="white"/>
<path d="M5.24715 8.86473C3.83342 8.86473 2.68348 10.0243 2.68348 11.4498C2.68348 12.4431 3.24402 13.3075 4.06011 13.7397C3.75511 13.3158 3.57376 12.7963 3.57376 12.2311C3.57376 10.8056 4.7237 9.64606 6.13746 9.64606C6.40124 9.64606 6.65676 9.69176 6.89583 9.76659V6.62469C6.6485 6.5914 6.39711 6.5706 6.13746 6.5706C6.0921 6.5706 6.05088 6.57476 6.00554 6.57476V8.98525C5.76236 8.91043 5.51094 8.86473 5.24715 8.86473Z" fill="white"/>
<path d="M15.1103 4.18507V6.57476C13.5275 6.57476 12.0602 6.0636 10.8649 5.19913V11.4539C10.8649 14.5751 8.34661 17.1186 5.24708 17.1186C4.0518 17.1186 2.93895 16.7362 2.02806 16.092C3.05435 17.2017 4.51755 17.8999 6.1374 17.8999C9.23274 17.8999 11.7552 15.3606 11.7552 12.2353V5.98046C12.9505 6.84494 14.4178 7.35609 16.0005 7.35609V4.2807C15.6914 4.2807 15.3946 4.24741 15.1103 4.18507Z" fill="white"/>
<path d="M10.8649 11.4539V5.19913C12.0602 6.0636 13.5275 6.57476 15.1103 6.57476V4.18507C14.1952 3.98979 13.3916 3.49105 12.7981 2.80528C11.8419 2.17776 11.1535 1.17199 10.935 0H8.70105L8.69692 12.3308C8.64749 13.7106 7.51811 14.8203 6.1374 14.8203C5.28006 14.8203 4.52579 14.3922 4.05593 13.7439C3.23983 13.3075 2.67929 12.4472 2.67929 11.4539C2.67929 10.0284 3.82923 8.86889 5.24297 8.86889C5.50675 8.86889 5.7623 8.91459 6.00136 8.98942V6.57892C2.96781 6.64542 0.519531 9.15564 0.519531 12.2353C0.519531 13.7231 1.09244 15.078 2.02806 16.092C2.93895 16.7362 4.0518 17.1186 5.24708 17.1186C8.34248 17.1186 10.8649 14.5751 10.8649 11.4539Z" fill="white"/>
</svg>
