<svg width="64" height="25" viewBox="0 0 64 25" fill="none" xmlns="http://www.w3.org/2000/svg">
<path d="M9.02849 4.93009L7.4509 7.38054C13.3163 6.46763 26.2849 6.40036 30.7507 14.0112C26.5761 5.01658 14.5298 4.20937 9.02849 4.93009Z" fill="white"/>
<path d="M54.8999 4.93009L56.4775 7.38054C50.6121 6.46763 37.6435 6.40036 33.1777 14.0112C37.3523 5.01658 49.3986 4.20937 54.8999 4.93009Z" fill="white"/>
<path d="M15.4602 0.894043L13.7613 3.20036C18.6154 3.48867 25.1684 4.35352 30.7507 10.84C25.6539 3.20035 19.7076 0.894061 15.4602 0.894043Z" fill="white"/>
<path d="M48.4682 0.894043L50.1672 3.20036C45.313 3.48867 38.76 4.35352 33.1777 10.84C38.2746 3.20035 44.2209 0.894061 48.4682 0.894043Z" fill="white"/>
<path d="M2.96084 10.4076L1.14054 13.1463C7.85541 10.7919 23.1783 8.50486 30.7507 18.1913C25.5082 6.77513 10.0398 8.2454 2.96084 10.4076Z" fill="white"/>
<path d="M60.9676 10.4076L62.7879 13.1463C56.073 10.7919 40.7502 8.50486 33.1777 18.1913C38.4202 6.77513 53.8887 8.2454 60.9676 10.4076Z" fill="white"/>
<path d="M1.86865 15.4526C0.0457149 16.0224 -0.113449 16.9902 0.0483549 17.4706C0.339607 18.2778 1.38324 18.0953 1.86865 17.9031C18.2513 13.5787 25.2722 16.6057 28.445 22.9481C29.7429 25.5427 34.0272 25.5427 35.4835 22.9481C38.7196 17.1824 45.0704 13.5787 61.9384 17.9031C62.4643 17.9992 63.5645 17.9896 63.7587 17.1824C63.6616 16.3752 62.7474 15.789 62.3025 15.5968C47.8615 11.5607 38.5173 14.1553 35.6048 18.9121C33.1336 22.9481 30.6917 22.9481 28.445 19.0562C25.5325 14.0112 16.5524 11.849 1.86865 15.4526Z" fill="white"/>
</svg>
