<svg width="18" height="18" viewBox="0 0 18 18" fill="none" xmlns="http://www.w3.org/2000/svg">
<path fill-rule="evenodd" clip-rule="evenodd" d="M5.66797 2.33342C5.66797 1.41294 6.41416 0.666748 7.33464 0.666748H10.668C11.5884 0.666748 12.3346 1.41294 12.3346 2.33341V5.66675H15.668C16.5884 5.66675 17.3346 6.41294 17.3346 7.33341V15.6667C17.3346 16.5872 16.5884 17.3334 15.668 17.3334H2.33464C1.41416 17.3334 0.667969 16.5872 0.667969 15.6667V10.6667C0.667969 9.74627 1.41416 9.00008 2.33464 9.00008H5.66797V2.33342ZM10.668 15.6667V2.33341L7.33464 2.33342V15.6667H10.668ZM12.3346 7.33341V15.6667H15.668V7.33341H12.3346ZM2.33464 10.6667H5.66797V15.6667H2.33464V10.6667Z" fill="#929292"/>
</svg>
