<svg width="30" height="28" viewBox="0 0 30 28" fill="none" xmlns="http://www.w3.org/2000/svg">
<path d="M23.666 19.3333C26.2433 19.3333 28.3327 15.4531 28.3327 10.6667C28.3327 5.8802 26.2433 2 23.666 2M23.666 19.3333C21.0887 19.3333 18.9993 15.4531 18.9993 10.6667C18.9993 5.8802 21.0887 2 23.666 2M23.666 19.3333L6.25741 16.1681C5.02075 15.9433 4.40242 15.8309 3.90245 15.5853C2.88531 15.0856 2.12783 14.178 1.81821 13.0879C1.66602 12.5521 1.66602 11.9236 1.66602 10.6667C1.66602 9.40973 1.66602 8.78127 1.81821 8.24543C2.12783 7.15532 2.88531 6.2477 3.90245 5.74806C4.40242 5.50247 5.02075 5.39005 6.25741 5.1652L23.666 2M5.66602 16.6667L6.19116 24.0187C6.24103 24.7169 6.26596 25.0659 6.41785 25.3305C6.55157 25.5634 6.75253 25.7506 6.9944 25.8674C7.26911 26 7.6191 26 8.31907 26H10.6956C11.4958 26 11.8959 26 12.192 25.8404C12.4522 25.7002 12.6585 25.4775 12.7783 25.2073C12.9147 24.8998 12.884 24.5009 12.8227 23.703L12.3327 17.3333" stroke="black" stroke-width="2.66667" stroke-linecap="round" stroke-linejoin="round"/>
</svg>
