<svg width="473" height="372" viewBox="0 0 473 372" fill="none" xmlns="http://www.w3.org/2000/svg">
<path d="M3.87522 13V4.672H4.99122V13H3.87522ZM2.17122 5.68V4.672H4.87122V5.68H2.17122ZM8.83537 13.12C8.26737 13.12 7.75937 13.02 7.31137 12.82C6.87137 12.612 6.49937 12.312 6.19537 11.92L6.96337 11.152C7.14737 11.432 7.39937 11.656 7.71937 11.824C8.04737 11.984 8.41137 12.064 8.81137 12.064C9.18737 12.064 9.51537 11.992 9.79537 11.848C10.0834 11.704 10.3074 11.504 10.4674 11.248C10.6354 10.984 10.7194 10.672 10.7194 10.312C10.7194 9.944 10.6394 9.632 10.4794 9.376C10.3194 9.12 10.1034 8.928 9.83137 8.8C9.56737 8.664 9.27537 8.596 8.95537 8.596C8.62737 8.596 8.32737 8.636 8.05537 8.716C7.79137 8.796 7.53937 8.932 7.29937 9.124L7.31137 8.404C7.44737 8.236 7.60337 8.1 7.77937 7.996C7.95537 7.892 8.15537 7.812 8.37937 7.756C8.60337 7.7 8.86337 7.672 9.15937 7.672C9.73537 7.672 10.2234 7.792 10.6234 8.032C11.0234 8.272 11.3274 8.596 11.5354 9.004C11.7514 9.412 11.8594 9.868 11.8594 10.372C11.8594 10.9 11.7274 11.372 11.4634 11.788C11.2074 12.204 10.8514 12.532 10.3954 12.772C9.93937 13.004 9.41937 13.12 8.83537 13.12ZM7.29937 9.124L6.68737 8.512L7.05937 4.672H8.09137L7.67137 8.62L7.29937 9.124ZM7.28737 5.68L7.05937 4.672H11.4394V5.68H7.28737ZM16.2116 13.12C15.5876 13.12 15.0156 12.944 14.4956 12.592C13.9836 12.24 13.5756 11.744 13.2716 11.104C12.9676 10.456 12.8156 9.696 12.8156 8.824C12.8156 7.952 12.9636 7.196 13.2596 6.556C13.5636 5.916 13.9716 5.424 14.4836 5.08C14.9956 4.728 15.5596 4.552 16.1756 4.552C16.8076 4.552 17.3796 4.728 17.8916 5.08C18.4036 5.424 18.8076 5.916 19.1036 6.556C19.4076 7.196 19.5596 7.956 19.5596 8.836C19.5596 9.708 19.4076 10.468 19.1036 11.116C18.8076 11.756 18.4036 12.252 17.8916 12.604C17.3876 12.948 16.8276 13.12 16.2116 13.12ZM16.1876 12.052C16.6276 12.052 17.0116 11.932 17.3396 11.692C17.6756 11.444 17.9396 11.08 18.1316 10.6C18.3236 10.12 18.4196 9.528 18.4196 8.824C18.4196 8.12 18.3236 7.532 18.1316 7.06C17.9396 6.58 17.6756 6.22 17.3396 5.98C17.0036 5.732 16.6156 5.608 16.1756 5.608C15.7436 5.608 15.3596 5.732 15.0236 5.98C14.6876 6.22 14.4236 6.58 14.2316 7.06C14.0476 7.532 13.9556 8.12 13.9556 8.824C13.9556 9.528 14.0476 10.12 14.2316 10.6C14.4236 11.08 14.6876 11.444 15.0236 11.692C15.3596 11.932 15.7476 12.052 16.1876 12.052ZM20.5504 14.32L21.2944 12.892L21.6784 12.796C21.6384 12.884 21.5864 12.956 21.5224 13.012C21.4664 13.068 21.3944 13.096 21.3064 13.096C21.1384 13.096 20.9824 13.028 20.8384 12.892C20.7024 12.748 20.6344 12.572 20.6344 12.364C20.6344 12.132 20.7104 11.94 20.8624 11.788C21.0144 11.628 21.2064 11.548 21.4384 11.548C21.6464 11.548 21.8304 11.628 21.9904 11.788C22.1504 11.94 22.2304 12.132 22.2304 12.364C22.2304 12.452 22.2104 12.56 22.1704 12.688C22.1384 12.808 22.0704 12.964 21.9664 13.156L21.1744 14.656L20.5504 14.32ZM26.535 13.12C25.911 13.12 25.339 12.944 24.819 12.592C24.307 12.24 23.899 11.744 23.595 11.104C23.291 10.456 23.139 9.696 23.139 8.824C23.139 7.952 23.287 7.196 23.583 6.556C23.887 5.916 24.295 5.424 24.807 5.08C25.319 4.728 25.883 4.552 26.499 4.552C27.131 4.552 27.703 4.728 28.215 5.08C28.727 5.424 29.131 5.916 29.427 6.556C29.731 7.196 29.883 7.956 29.883 8.836C29.883 9.708 29.731 10.468 29.427 11.116C29.131 11.756 28.727 12.252 28.215 12.604C27.711 12.948 27.151 13.12 26.535 13.12ZM26.511 12.052C26.951 12.052 27.335 11.932 27.663 11.692C27.999 11.444 28.263 11.08 28.455 10.6C28.647 10.12 28.743 9.528 28.743 8.824C28.743 8.12 28.647 7.532 28.455 7.06C28.263 6.58 27.999 6.22 27.663 5.98C27.327 5.732 26.939 5.608 26.499 5.608C26.067 5.608 25.683 5.732 25.347 5.98C25.011 6.22 24.747 6.58 24.555 7.06C24.371 7.532 24.279 8.12 24.279 8.824C24.279 9.528 24.371 10.12 24.555 10.6C24.747 11.08 25.011 11.444 25.347 11.692C25.683 11.932 26.071 12.052 26.511 12.052ZM34.31 13.12C33.686 13.12 33.114 12.944 32.594 12.592C32.082 12.24 31.674 11.744 31.37 11.104C31.066 10.456 30.914 9.696 30.914 8.824C30.914 7.952 31.062 7.196 31.358 6.556C31.662 5.916 32.07 5.424 32.582 5.08C33.094 4.728 33.658 4.552 34.274 4.552C34.906 4.552 35.478 4.728 35.99 5.08C36.502 5.424 36.906 5.916 37.202 6.556C37.506 7.196 37.658 7.956 37.658 8.836C37.658 9.708 37.506 10.468 37.202 11.116C36.906 11.756 36.502 12.252 35.99 12.604C35.486 12.948 34.926 13.12 34.31 13.12ZM34.286 12.052C34.726 12.052 35.11 11.932 35.438 11.692C35.774 11.444 36.038 11.08 36.23 10.6C36.422 10.12 36.518 9.528 36.518 8.824C36.518 8.12 36.422 7.532 36.23 7.06C36.038 6.58 35.774 6.22 35.438 5.98C35.102 5.732 34.714 5.608 34.274 5.608C33.842 5.608 33.458 5.732 33.122 5.98C32.786 6.22 32.522 6.58 32.33 7.06C32.146 7.532 32.054 8.12 32.054 8.824C32.054 9.528 32.146 10.12 32.33 10.6C32.522 11.08 32.786 11.444 33.122 11.692C33.458 11.932 33.846 12.052 34.286 12.052ZM42.085 13.12C41.461 13.12 40.889 12.944 40.369 12.592C39.857 12.24 39.449 11.744 39.145 11.104C38.841 10.456 38.689 9.696 38.689 8.824C38.689 7.952 38.837 7.196 39.133 6.556C39.437 5.916 39.845 5.424 40.357 5.08C40.869 4.728 41.433 4.552 42.049 4.552C42.681 4.552 43.253 4.728 43.765 5.08C44.277 5.424 44.681 5.916 44.977 6.556C45.281 7.196 45.433 7.956 45.433 8.836C45.433 9.708 45.281 10.468 44.977 11.116C44.681 11.756 44.277 12.252 43.765 12.604C43.261 12.948 42.701 13.12 42.085 13.12ZM42.061 12.052C42.501 12.052 42.885 11.932 43.213 11.692C43.549 11.444 43.813 11.08 44.005 10.6C44.197 10.12 44.293 9.528 44.293 8.824C44.293 8.12 44.197 7.532 44.005 7.06C43.813 6.58 43.549 6.22 43.213 5.98C42.877 5.732 42.489 5.608 42.049 5.608C41.617 5.608 41.233 5.732 40.897 5.98C40.561 6.22 40.297 6.58 40.105 7.06C39.921 7.532 39.829 8.12 39.829 8.824C39.829 9.528 39.921 10.12 40.105 10.6C40.297 11.08 40.561 11.444 40.897 11.692C41.233 11.932 41.621 12.052 42.061 12.052Z" fill="#5F6D7E"/>
<line x1="62.5" y1="8.5" x2="471.5" y2="8.5" stroke="#EAEBF0" stroke-linecap="round" stroke-dasharray="4 12"/>
<path d="M2.4924 77.8V69.472H3.6084V77.8H2.4924ZM0.788405 70.48V69.472H3.4884V70.48H0.788405ZM8.43656 77.92C7.81256 77.92 7.24056 77.744 6.72056 77.392C6.20856 77.04 5.80056 76.544 5.49656 75.904C5.19256 75.256 5.04056 74.496 5.04056 73.624C5.04056 72.752 5.18856 71.996 5.48456 71.356C5.78856 70.716 6.19656 70.224 6.70856 69.88C7.22056 69.528 7.78456 69.352 8.40056 69.352C9.03256 69.352 9.60456 69.528 10.1166 69.88C10.6286 70.224 11.0326 70.716 11.3286 71.356C11.6326 71.996 11.7846 72.756 11.7846 73.636C11.7846 74.508 11.6326 75.268 11.3286 75.916C11.0326 76.556 10.6286 77.052 10.1166 77.404C9.61256 77.748 9.05256 77.92 8.43656 77.92ZM8.41256 76.852C8.85256 76.852 9.23656 76.732 9.56456 76.492C9.90056 76.244 10.1646 75.88 10.3566 75.4C10.5486 74.92 10.6446 74.328 10.6446 73.624C10.6446 72.92 10.5486 72.332 10.3566 71.86C10.1646 71.38 9.90056 71.02 9.56456 70.78C9.22856 70.532 8.84056 70.408 8.40056 70.408C7.96856 70.408 7.58456 70.532 7.24856 70.78C6.91256 71.02 6.64856 71.38 6.45656 71.86C6.27256 72.332 6.18056 72.92 6.18056 73.624C6.18056 74.328 6.27256 74.92 6.45656 75.4C6.64856 75.88 6.91256 76.244 7.24856 76.492C7.58456 76.732 7.97256 76.852 8.41256 76.852ZM16.2116 77.92C15.5876 77.92 15.0156 77.744 14.4956 77.392C13.9836 77.04 13.5756 76.544 13.2716 75.904C12.9676 75.256 12.8156 74.496 12.8156 73.624C12.8156 72.752 12.9636 71.996 13.2596 71.356C13.5636 70.716 13.9716 70.224 14.4836 69.88C14.9956 69.528 15.5596 69.352 16.1756 69.352C16.8076 69.352 17.3796 69.528 17.8916 69.88C18.4036 70.224 18.8076 70.716 19.1036 71.356C19.4076 71.996 19.5596 72.756 19.5596 73.636C19.5596 74.508 19.4076 75.268 19.1036 75.916C18.8076 76.556 18.4036 77.052 17.8916 77.404C17.3876 77.748 16.8276 77.92 16.2116 77.92ZM16.1876 76.852C16.6276 76.852 17.0116 76.732 17.3396 76.492C17.6756 76.244 17.9396 75.88 18.1316 75.4C18.3236 74.92 18.4196 74.328 18.4196 73.624C18.4196 72.92 18.3236 72.332 18.1316 71.86C17.9396 71.38 17.6756 71.02 17.3396 70.78C17.0036 70.532 16.6156 70.408 16.1756 70.408C15.7436 70.408 15.3596 70.532 15.0236 70.78C14.6876 71.02 14.4236 71.38 14.2316 71.86C14.0476 72.332 13.9556 72.92 13.9556 73.624C13.9556 74.328 14.0476 74.92 14.2316 75.4C14.4236 75.88 14.6876 76.244 15.0236 76.492C15.3596 76.732 15.7476 76.852 16.1876 76.852ZM20.5504 79.12L21.2944 77.692L21.6784 77.596C21.6384 77.684 21.5864 77.756 21.5224 77.812C21.4664 77.868 21.3944 77.896 21.3064 77.896C21.1384 77.896 20.9824 77.828 20.8384 77.692C20.7024 77.548 20.6344 77.372 20.6344 77.164C20.6344 76.932 20.7104 76.74 20.8624 76.588C21.0144 76.428 21.2064 76.348 21.4384 76.348C21.6464 76.348 21.8304 76.428 21.9904 76.588C22.1504 76.74 22.2304 76.932 22.2304 77.164C22.2304 77.252 22.2104 77.36 22.1704 77.488C22.1384 77.608 22.0704 77.764 21.9664 77.956L21.1744 79.456L20.5504 79.12ZM26.535 77.92C25.911 77.92 25.339 77.744 24.819 77.392C24.307 77.04 23.899 76.544 23.595 75.904C23.291 75.256 23.139 74.496 23.139 73.624C23.139 72.752 23.287 71.996 23.583 71.356C23.887 70.716 24.295 70.224 24.807 69.88C25.319 69.528 25.883 69.352 26.499 69.352C27.131 69.352 27.703 69.528 28.215 69.88C28.727 70.224 29.131 70.716 29.427 71.356C29.731 71.996 29.883 72.756 29.883 73.636C29.883 74.508 29.731 75.268 29.427 75.916C29.131 76.556 28.727 77.052 28.215 77.404C27.711 77.748 27.151 77.92 26.535 77.92ZM26.511 76.852C26.951 76.852 27.335 76.732 27.663 76.492C27.999 76.244 28.263 75.88 28.455 75.4C28.647 74.92 28.743 74.328 28.743 73.624C28.743 72.92 28.647 72.332 28.455 71.86C28.263 71.38 27.999 71.02 27.663 70.78C27.327 70.532 26.939 70.408 26.499 70.408C26.067 70.408 25.683 70.532 25.347 70.78C25.011 71.02 24.747 71.38 24.555 71.86C24.371 72.332 24.279 72.92 24.279 73.624C24.279 74.328 24.371 74.92 24.555 75.4C24.747 75.88 25.011 76.244 25.347 76.492C25.683 76.732 26.071 76.852 26.511 76.852ZM34.31 77.92C33.686 77.92 33.114 77.744 32.594 77.392C32.082 77.04 31.674 76.544 31.37 75.904C31.066 75.256 30.914 74.496 30.914 73.624C30.914 72.752 31.062 71.996 31.358 71.356C31.662 70.716 32.07 70.224 32.582 69.88C33.094 69.528 33.658 69.352 34.274 69.352C34.906 69.352 35.478 69.528 35.99 69.88C36.502 70.224 36.906 70.716 37.202 71.356C37.506 71.996 37.658 72.756 37.658 73.636C37.658 74.508 37.506 75.268 37.202 75.916C36.906 76.556 36.502 77.052 35.99 77.404C35.486 77.748 34.926 77.92 34.31 77.92ZM34.286 76.852C34.726 76.852 35.11 76.732 35.438 76.492C35.774 76.244 36.038 75.88 36.23 75.4C36.422 74.92 36.518 74.328 36.518 73.624C36.518 72.92 36.422 72.332 36.23 71.86C36.038 71.38 35.774 71.02 35.438 70.78C35.102 70.532 34.714 70.408 34.274 70.408C33.842 70.408 33.458 70.532 33.122 70.78C32.786 71.02 32.522 71.38 32.33 71.86C32.146 72.332 32.054 72.92 32.054 73.624C32.054 74.328 32.146 74.92 32.33 75.4C32.522 75.88 32.786 76.244 33.122 76.492C33.458 76.732 33.846 76.852 34.286 76.852ZM42.085 77.92C41.461 77.92 40.889 77.744 40.369 77.392C39.857 77.04 39.449 76.544 39.145 75.904C38.841 75.256 38.689 74.496 38.689 73.624C38.689 72.752 38.837 71.996 39.133 71.356C39.437 70.716 39.845 70.224 40.357 69.88C40.869 69.528 41.433 69.352 42.049 69.352C42.681 69.352 43.253 69.528 43.765 69.88C44.277 70.224 44.681 70.716 44.977 71.356C45.281 71.996 45.433 72.756 45.433 73.636C45.433 74.508 45.281 75.268 44.977 75.916C44.681 76.556 44.277 77.052 43.765 77.404C43.261 77.748 42.701 77.92 42.085 77.92ZM42.061 76.852C42.501 76.852 42.885 76.732 43.213 76.492C43.549 76.244 43.813 75.88 44.005 75.4C44.197 74.92 44.293 74.328 44.293 73.624C44.293 72.92 44.197 72.332 44.005 71.86C43.813 71.38 43.549 71.02 43.213 70.78C42.877 70.532 42.489 70.408 42.049 70.408C41.617 70.408 41.233 70.532 40.897 70.78C40.561 71.02 40.297 71.38 40.105 71.86C39.921 72.332 39.829 72.92 39.829 73.624C39.829 74.328 39.921 74.92 40.105 75.4C40.297 75.88 40.561 76.244 40.897 76.492C41.233 76.732 41.621 76.852 42.061 76.852Z" fill="#5F6D7E"/>
<line x1="62.5" y1="73.3" x2="471.5" y2="73.3" stroke="#EAEBF0" stroke-linecap="round" stroke-dasharray="4 12"/>
<path d="M9.12141 142.6L12.2414 134.932L13.3574 134.968L10.3094 142.6H9.12141ZM7.81341 135.28V134.272H13.3574V134.968L12.8654 135.28H7.81341ZM16.6221 142.72C16.0541 142.72 15.5461 142.62 15.0981 142.42C14.6581 142.212 14.2861 141.912 13.9821 141.52L14.7501 140.752C14.9341 141.032 15.1861 141.256 15.5061 141.424C15.8341 141.584 16.1981 141.664 16.5981 141.664C16.9741 141.664 17.3021 141.592 17.5821 141.448C17.8701 141.304 18.0941 141.104 18.2541 140.848C18.4221 140.584 18.5061 140.272 18.5061 139.912C18.5061 139.544 18.4261 139.232 18.2661 138.976C18.1061 138.72 17.8901 138.528 17.6181 138.4C17.3541 138.264 17.0621 138.196 16.7421 138.196C16.4141 138.196 16.1141 138.236 15.8421 138.316C15.5781 138.396 15.3261 138.532 15.0861 138.724L15.0981 138.004C15.2341 137.836 15.3901 137.7 15.5661 137.596C15.7421 137.492 15.9421 137.412 16.1661 137.356C16.3901 137.3 16.6501 137.272 16.9461 137.272C17.5221 137.272 18.0101 137.392 18.4101 137.632C18.8101 137.872 19.1141 138.196 19.3221 138.604C19.5381 139.012 19.6461 139.468 19.6461 139.972C19.6461 140.5 19.5141 140.972 19.2501 141.388C18.9941 141.804 18.6381 142.132 18.1821 142.372C17.7261 142.604 17.2061 142.72 16.6221 142.72ZM15.0861 138.724L14.4741 138.112L14.8461 134.272H15.8781L15.4581 138.22L15.0861 138.724ZM15.0741 135.28L14.8461 134.272H19.2261V135.28H15.0741ZM20.5504 143.92L21.2944 142.492L21.6784 142.396C21.6384 142.484 21.5864 142.556 21.5224 142.612C21.4664 142.668 21.3944 142.696 21.3064 142.696C21.1384 142.696 20.9824 142.628 20.8384 142.492C20.7024 142.348 20.6344 142.172 20.6344 141.964C20.6344 141.732 20.7104 141.54 20.8624 141.388C21.0144 141.228 21.2064 141.148 21.4384 141.148C21.6464 141.148 21.8304 141.228 21.9904 141.388C22.1504 141.54 22.2304 141.732 22.2304 141.964C22.2304 142.052 22.2104 142.16 22.1704 142.288C22.1384 142.408 22.0704 142.564 21.9664 142.756L21.1744 144.256L20.5504 143.92ZM26.535 142.72C25.911 142.72 25.339 142.544 24.819 142.192C24.307 141.84 23.899 141.344 23.595 140.704C23.291 140.056 23.139 139.296 23.139 138.424C23.139 137.552 23.287 136.796 23.583 136.156C23.887 135.516 24.295 135.024 24.807 134.68C25.319 134.328 25.883 134.152 26.499 134.152C27.131 134.152 27.703 134.328 28.215 134.68C28.727 135.024 29.131 135.516 29.427 136.156C29.731 136.796 29.883 137.556 29.883 138.436C29.883 139.308 29.731 140.068 29.427 140.716C29.131 141.356 28.727 141.852 28.215 142.204C27.711 142.548 27.151 142.72 26.535 142.72ZM26.511 141.652C26.951 141.652 27.335 141.532 27.663 141.292C27.999 141.044 28.263 140.68 28.455 140.2C28.647 139.72 28.743 139.128 28.743 138.424C28.743 137.72 28.647 137.132 28.455 136.66C28.263 136.18 27.999 135.82 27.663 135.58C27.327 135.332 26.939 135.208 26.499 135.208C26.067 135.208 25.683 135.332 25.347 135.58C25.011 135.82 24.747 136.18 24.555 136.66C24.371 137.132 24.279 137.72 24.279 138.424C24.279 139.128 24.371 139.72 24.555 140.2C24.747 140.68 25.011 141.044 25.347 141.292C25.683 141.532 26.071 141.652 26.511 141.652ZM34.31 142.72C33.686 142.72 33.114 142.544 32.594 142.192C32.082 141.84 31.674 141.344 31.37 140.704C31.066 140.056 30.914 139.296 30.914 138.424C30.914 137.552 31.062 136.796 31.358 136.156C31.662 135.516 32.07 135.024 32.582 134.68C33.094 134.328 33.658 134.152 34.274 134.152C34.906 134.152 35.478 134.328 35.99 134.68C36.502 135.024 36.906 135.516 37.202 136.156C37.506 136.796 37.658 137.556 37.658 138.436C37.658 139.308 37.506 140.068 37.202 140.716C36.906 141.356 36.502 141.852 35.99 142.204C35.486 142.548 34.926 142.72 34.31 142.72ZM34.286 141.652C34.726 141.652 35.11 141.532 35.438 141.292C35.774 141.044 36.038 140.68 36.23 140.2C36.422 139.72 36.518 139.128 36.518 138.424C36.518 137.72 36.422 137.132 36.23 136.66C36.038 136.18 35.774 135.82 35.438 135.58C35.102 135.332 34.714 135.208 34.274 135.208C33.842 135.208 33.458 135.332 33.122 135.58C32.786 135.82 32.522 136.18 32.33 136.66C32.146 137.132 32.054 137.72 32.054 138.424C32.054 139.128 32.146 139.72 32.33 140.2C32.522 140.68 32.786 141.044 33.122 141.292C33.458 141.532 33.846 141.652 34.286 141.652ZM42.085 142.72C41.461 142.72 40.889 142.544 40.369 142.192C39.857 141.84 39.449 141.344 39.145 140.704C38.841 140.056 38.689 139.296 38.689 138.424C38.689 137.552 38.837 136.796 39.133 136.156C39.437 135.516 39.845 135.024 40.357 134.68C40.869 134.328 41.433 134.152 42.049 134.152C42.681 134.152 43.253 134.328 43.765 134.68C44.277 135.024 44.681 135.516 44.977 136.156C45.281 136.796 45.433 137.556 45.433 138.436C45.433 139.308 45.281 140.068 44.977 140.716C44.681 141.356 44.277 141.852 43.765 142.204C43.261 142.548 42.701 142.72 42.085 142.72ZM42.061 141.652C42.501 141.652 42.885 141.532 43.213 141.292C43.549 141.044 43.813 140.68 44.005 140.2C44.197 139.72 44.293 139.128 44.293 138.424C44.293 137.72 44.197 137.132 44.005 136.66C43.813 136.18 43.549 135.82 43.213 135.58C42.877 135.332 42.489 135.208 42.049 135.208C41.617 135.208 41.233 135.332 40.897 135.58C40.561 135.82 40.297 136.18 40.105 136.66C39.921 137.132 39.829 137.72 39.829 138.424C39.829 139.128 39.921 139.72 40.105 140.2C40.297 140.68 40.561 141.044 40.897 141.292C41.233 141.532 41.621 141.652 42.061 141.652Z" fill="#5F6D7E"/>
<line x1="62.5" y1="138.1" x2="471.5" y2="138.1" stroke="#EAEBF0" stroke-linecap="round" stroke-dasharray="4 12"/>
<path d="M8.83538 207.52C8.26738 207.52 7.75938 207.42 7.31138 207.22C6.87138 207.012 6.49938 206.712 6.19538 206.32L6.96338 205.552C7.14738 205.832 7.39938 206.056 7.71938 206.224C8.04738 206.384 8.41138 206.464 8.81138 206.464C9.18738 206.464 9.51538 206.392 9.79538 206.248C10.0834 206.104 10.3074 205.904 10.4674 205.648C10.6354 205.384 10.7194 205.072 10.7194 204.712C10.7194 204.344 10.6394 204.032 10.4794 203.776C10.3194 203.52 10.1034 203.328 9.83138 203.2C9.56738 203.064 9.27538 202.996 8.95538 202.996C8.62738 202.996 8.32738 203.036 8.05538 203.116C7.79138 203.196 7.53938 203.332 7.29938 203.524L7.31138 202.804C7.44738 202.636 7.60338 202.5 7.77938 202.396C7.95538 202.292 8.15538 202.212 8.37938 202.156C8.60338 202.1 8.86338 202.072 9.15938 202.072C9.73538 202.072 10.2234 202.192 10.6234 202.432C11.0234 202.672 11.3274 202.996 11.5354 203.404C11.7514 203.812 11.8594 204.268 11.8594 204.772C11.8594 205.3 11.7274 205.772 11.4634 206.188C11.2074 206.604 10.8514 206.932 10.3954 207.172C9.93938 207.404 9.41938 207.52 8.83538 207.52ZM7.29938 203.524L6.68738 202.912L7.05938 199.072H8.09138L7.67138 203.02L7.29938 203.524ZM7.28738 200.08L7.05938 199.072H11.4394V200.08H7.28738ZM16.2116 207.52C15.5876 207.52 15.0156 207.344 14.4956 206.992C13.9836 206.64 13.5756 206.144 13.2716 205.504C12.9676 204.856 12.8156 204.096 12.8156 203.224C12.8156 202.352 12.9636 201.596 13.2596 200.956C13.5636 200.316 13.9716 199.824 14.4836 199.48C14.9956 199.128 15.5596 198.952 16.1756 198.952C16.8076 198.952 17.3796 199.128 17.8916 199.48C18.4036 199.824 18.8076 200.316 19.1036 200.956C19.4076 201.596 19.5596 202.356 19.5596 203.236C19.5596 204.108 19.4076 204.868 19.1036 205.516C18.8076 206.156 18.4036 206.652 17.8916 207.004C17.3876 207.348 16.8276 207.52 16.2116 207.52ZM16.1876 206.452C16.6276 206.452 17.0116 206.332 17.3396 206.092C17.6756 205.844 17.9396 205.48 18.1316 205C18.3236 204.52 18.4196 203.928 18.4196 203.224C18.4196 202.52 18.3236 201.932 18.1316 201.46C17.9396 200.98 17.6756 200.62 17.3396 200.38C17.0036 200.132 16.6156 200.008 16.1756 200.008C15.7436 200.008 15.3596 200.132 15.0236 200.38C14.6876 200.62 14.4236 200.98 14.2316 201.46C14.0476 201.932 13.9556 202.52 13.9556 203.224C13.9556 203.928 14.0476 204.52 14.2316 205C14.4236 205.48 14.6876 205.844 15.0236 206.092C15.3596 206.332 15.7476 206.452 16.1876 206.452ZM20.5504 208.72L21.2944 207.292L21.6784 207.196C21.6384 207.284 21.5864 207.356 21.5224 207.412C21.4664 207.468 21.3944 207.496 21.3064 207.496C21.1384 207.496 20.9824 207.428 20.8384 207.292C20.7024 207.148 20.6344 206.972 20.6344 206.764C20.6344 206.532 20.7104 206.34 20.8624 206.188C21.0144 206.028 21.2064 205.948 21.4384 205.948C21.6464 205.948 21.8304 206.028 21.9904 206.188C22.1504 206.34 22.2304 206.532 22.2304 206.764C22.2304 206.852 22.2104 206.96 22.1704 207.088C22.1384 207.208 22.0704 207.364 21.9664 207.556L21.1744 209.056L20.5504 208.72ZM26.535 207.52C25.911 207.52 25.339 207.344 24.819 206.992C24.307 206.64 23.899 206.144 23.595 205.504C23.291 204.856 23.139 204.096 23.139 203.224C23.139 202.352 23.287 201.596 23.583 200.956C23.887 200.316 24.295 199.824 24.807 199.48C25.319 199.128 25.883 198.952 26.499 198.952C27.131 198.952 27.703 199.128 28.215 199.48C28.727 199.824 29.131 200.316 29.427 200.956C29.731 201.596 29.883 202.356 29.883 203.236C29.883 204.108 29.731 204.868 29.427 205.516C29.131 206.156 28.727 206.652 28.215 207.004C27.711 207.348 27.151 207.52 26.535 207.52ZM26.511 206.452C26.951 206.452 27.335 206.332 27.663 206.092C27.999 205.844 28.263 205.48 28.455 205C28.647 204.52 28.743 203.928 28.743 203.224C28.743 202.52 28.647 201.932 28.455 201.46C28.263 200.98 27.999 200.62 27.663 200.38C27.327 200.132 26.939 200.008 26.499 200.008C26.067 200.008 25.683 200.132 25.347 200.38C25.011 200.62 24.747 200.98 24.555 201.46C24.371 201.932 24.279 202.52 24.279 203.224C24.279 203.928 24.371 204.52 24.555 205C24.747 205.48 25.011 205.844 25.347 206.092C25.683 206.332 26.071 206.452 26.511 206.452ZM34.31 207.52C33.686 207.52 33.114 207.344 32.594 206.992C32.082 206.64 31.674 206.144 31.37 205.504C31.066 204.856 30.914 204.096 30.914 203.224C30.914 202.352 31.062 201.596 31.358 200.956C31.662 200.316 32.07 199.824 32.582 199.48C33.094 199.128 33.658 198.952 34.274 198.952C34.906 198.952 35.478 199.128 35.99 199.48C36.502 199.824 36.906 200.316 37.202 200.956C37.506 201.596 37.658 202.356 37.658 203.236C37.658 204.108 37.506 204.868 37.202 205.516C36.906 206.156 36.502 206.652 35.99 207.004C35.486 207.348 34.926 207.52 34.31 207.52ZM34.286 206.452C34.726 206.452 35.11 206.332 35.438 206.092C35.774 205.844 36.038 205.48 36.23 205C36.422 204.52 36.518 203.928 36.518 203.224C36.518 202.52 36.422 201.932 36.23 201.46C36.038 200.98 35.774 200.62 35.438 200.38C35.102 200.132 34.714 200.008 34.274 200.008C33.842 200.008 33.458 200.132 33.122 200.38C32.786 200.62 32.522 200.98 32.33 201.46C32.146 201.932 32.054 202.52 32.054 203.224C32.054 203.928 32.146 204.52 32.33 205C32.522 205.48 32.786 205.844 33.122 206.092C33.458 206.332 33.846 206.452 34.286 206.452ZM42.085 207.52C41.461 207.52 40.889 207.344 40.369 206.992C39.857 206.64 39.449 206.144 39.145 205.504C38.841 204.856 38.689 204.096 38.689 203.224C38.689 202.352 38.837 201.596 39.133 200.956C39.437 200.316 39.845 199.824 40.357 199.48C40.869 199.128 41.433 198.952 42.049 198.952C42.681 198.952 43.253 199.128 43.765 199.48C44.277 199.824 44.681 200.316 44.977 200.956C45.281 201.596 45.433 202.356 45.433 203.236C45.433 204.108 45.281 204.868 44.977 205.516C44.681 206.156 44.277 206.652 43.765 207.004C43.261 207.348 42.701 207.52 42.085 207.52ZM42.061 206.452C42.501 206.452 42.885 206.332 43.213 206.092C43.549 205.844 43.813 205.48 44.005 205C44.197 204.52 44.293 203.928 44.293 203.224C44.293 202.52 44.197 201.932 44.005 201.46C43.813 200.98 43.549 200.62 43.213 200.38C42.877 200.132 42.489 200.008 42.049 200.008C41.617 200.008 41.233 200.132 40.897 200.38C40.561 200.62 40.297 200.98 40.105 201.46C39.921 201.932 39.829 202.52 39.829 203.224C39.829 203.928 39.921 204.52 40.105 205C40.297 205.48 40.561 205.844 40.897 206.092C41.233 206.332 41.621 206.452 42.061 206.452Z" fill="#5F6D7E"/>
<line x1="62.5" y1="202.9" x2="471.5" y2="202.9" stroke="#EAEBF0" stroke-linecap="round" stroke-dasharray="4 12"/>
<path d="M7.64991 271.516L10.7219 268.276C11.0339 267.956 11.2779 267.68 11.4539 267.448C11.6299 267.208 11.7539 266.988 11.8259 266.788C11.9059 266.588 11.9459 266.38 11.9459 266.164C11.9459 265.74 11.8099 265.408 11.5379 265.168C11.2659 264.928 10.9139 264.808 10.4819 264.808C10.0579 264.808 9.68591 264.912 9.36591 265.12C9.04591 265.32 8.76191 265.632 8.51391 266.056L7.72191 265.396C8.04991 264.852 8.44591 264.444 8.90991 264.172C9.37391 263.892 9.90991 263.752 10.5179 263.752C11.0299 263.752 11.4739 263.852 11.8499 264.052C12.2339 264.252 12.5299 264.532 12.7379 264.892C12.9459 265.252 13.0499 265.672 13.0499 266.152C13.0499 266.496 13.0059 266.804 12.9179 267.076C12.8379 267.348 12.6899 267.628 12.4739 267.916C12.2659 268.196 11.9739 268.532 11.5979 268.924L9.11391 271.48L7.64991 271.516ZM7.64991 272.2V271.516L8.60991 271.192H13.2419V272.2H7.64991ZM16.6221 272.32C16.0541 272.32 15.5461 272.22 15.0981 272.02C14.6581 271.812 14.2861 271.512 13.9821 271.12L14.7501 270.352C14.9341 270.632 15.1861 270.856 15.5061 271.024C15.8341 271.184 16.1981 271.264 16.5981 271.264C16.9741 271.264 17.3021 271.192 17.5821 271.048C17.8701 270.904 18.0941 270.704 18.2541 270.448C18.4221 270.184 18.5061 269.872 18.5061 269.512C18.5061 269.144 18.4261 268.832 18.2661 268.576C18.1061 268.32 17.8901 268.128 17.6181 268C17.3541 267.864 17.0621 267.796 16.7421 267.796C16.4141 267.796 16.1141 267.836 15.8421 267.916C15.5781 267.996 15.3261 268.132 15.0861 268.324L15.0981 267.604C15.2341 267.436 15.3901 267.3 15.5661 267.196C15.7421 267.092 15.9421 267.012 16.1661 266.956C16.3901 266.9 16.6501 266.872 16.9461 266.872C17.5221 266.872 18.0101 266.992 18.4101 267.232C18.8101 267.472 19.1141 267.796 19.3221 268.204C19.5381 268.612 19.6461 269.068 19.6461 269.572C19.6461 270.1 19.5141 270.572 19.2501 270.988C18.9941 271.404 18.6381 271.732 18.1821 271.972C17.7261 272.204 17.2061 272.32 16.6221 272.32ZM15.0861 268.324L14.4741 267.712L14.8461 263.872H15.8781L15.4581 267.82L15.0861 268.324ZM15.0741 264.88L14.8461 263.872H19.2261V264.88H15.0741ZM20.5504 273.52L21.2944 272.092L21.6784 271.996C21.6384 272.084 21.5864 272.156 21.5224 272.212C21.4664 272.268 21.3944 272.296 21.3064 272.296C21.1384 272.296 20.9824 272.228 20.8384 272.092C20.7024 271.948 20.6344 271.772 20.6344 271.564C20.6344 271.332 20.7104 271.14 20.8624 270.988C21.0144 270.828 21.2064 270.748 21.4384 270.748C21.6464 270.748 21.8304 270.828 21.9904 270.988C22.1504 271.14 22.2304 271.332 22.2304 271.564C22.2304 271.652 22.2104 271.76 22.1704 271.888C22.1384 272.008 22.0704 272.164 21.9664 272.356L21.1744 273.856L20.5504 273.52ZM26.535 272.32C25.911 272.32 25.339 272.144 24.819 271.792C24.307 271.44 23.899 270.944 23.595 270.304C23.291 269.656 23.139 268.896 23.139 268.024C23.139 267.152 23.287 266.396 23.583 265.756C23.887 265.116 24.295 264.624 24.807 264.28C25.319 263.928 25.883 263.752 26.499 263.752C27.131 263.752 27.703 263.928 28.215 264.28C28.727 264.624 29.131 265.116 29.427 265.756C29.731 266.396 29.883 267.156 29.883 268.036C29.883 268.908 29.731 269.668 29.427 270.316C29.131 270.956 28.727 271.452 28.215 271.804C27.711 272.148 27.151 272.32 26.535 272.32ZM26.511 271.252C26.951 271.252 27.335 271.132 27.663 270.892C27.999 270.644 28.263 270.28 28.455 269.8C28.647 269.32 28.743 268.728 28.743 268.024C28.743 267.32 28.647 266.732 28.455 266.26C28.263 265.78 27.999 265.42 27.663 265.18C27.327 264.932 26.939 264.808 26.499 264.808C26.067 264.808 25.683 264.932 25.347 265.18C25.011 265.42 24.747 265.78 24.555 266.26C24.371 266.732 24.279 267.32 24.279 268.024C24.279 268.728 24.371 269.32 24.555 269.8C24.747 270.28 25.011 270.644 25.347 270.892C25.683 271.132 26.071 271.252 26.511 271.252ZM34.31 272.32C33.686 272.32 33.114 272.144 32.594 271.792C32.082 271.44 31.674 270.944 31.37 270.304C31.066 269.656 30.914 268.896 30.914 268.024C30.914 267.152 31.062 266.396 31.358 265.756C31.662 265.116 32.07 264.624 32.582 264.28C33.094 263.928 33.658 263.752 34.274 263.752C34.906 263.752 35.478 263.928 35.99 264.28C36.502 264.624 36.906 265.116 37.202 265.756C37.506 266.396 37.658 267.156 37.658 268.036C37.658 268.908 37.506 269.668 37.202 270.316C36.906 270.956 36.502 271.452 35.99 271.804C35.486 272.148 34.926 272.32 34.31 272.32ZM34.286 271.252C34.726 271.252 35.11 271.132 35.438 270.892C35.774 270.644 36.038 270.28 36.23 269.8C36.422 269.32 36.518 268.728 36.518 268.024C36.518 267.32 36.422 266.732 36.23 266.26C36.038 265.78 35.774 265.42 35.438 265.18C35.102 264.932 34.714 264.808 34.274 264.808C33.842 264.808 33.458 264.932 33.122 265.18C32.786 265.42 32.522 265.78 32.33 266.26C32.146 266.732 32.054 267.32 32.054 268.024C32.054 268.728 32.146 269.32 32.33 269.8C32.522 270.28 32.786 270.644 33.122 270.892C33.458 271.132 33.846 271.252 34.286 271.252ZM42.085 272.32C41.461 272.32 40.889 272.144 40.369 271.792C39.857 271.44 39.449 270.944 39.145 270.304C38.841 269.656 38.689 268.896 38.689 268.024C38.689 267.152 38.837 266.396 39.133 265.756C39.437 265.116 39.845 264.624 40.357 264.28C40.869 263.928 41.433 263.752 42.049 263.752C42.681 263.752 43.253 263.928 43.765 264.28C44.277 264.624 44.681 265.116 44.977 265.756C45.281 266.396 45.433 267.156 45.433 268.036C45.433 268.908 45.281 269.668 44.977 270.316C44.681 270.956 44.277 271.452 43.765 271.804C43.261 272.148 42.701 272.32 42.085 272.32ZM42.061 271.252C42.501 271.252 42.885 271.132 43.213 270.892C43.549 270.644 43.813 270.28 44.005 269.8C44.197 269.32 44.293 268.728 44.293 268.024C44.293 267.32 44.197 266.732 44.005 266.26C43.813 265.78 43.549 265.42 43.213 265.18C42.877 264.932 42.489 264.808 42.049 264.808C41.617 264.808 41.233 264.932 40.897 265.18C40.561 265.42 40.297 265.78 40.105 266.26C39.921 266.732 39.829 267.32 39.829 268.024C39.829 268.728 39.921 269.32 40.105 269.8C40.297 270.28 40.561 270.644 40.897 270.892C41.233 271.132 41.621 271.252 42.061 271.252Z" fill="#5F6D7E"/>
<line x1="62.5" y1="267.7" x2="471.5" y2="267.7" stroke="#EAEBF0" stroke-linecap="round" stroke-dasharray="4 12"/>
<path d="M42.085 337.12C41.461 337.12 40.889 336.944 40.369 336.592C39.857 336.24 39.449 335.744 39.145 335.104C38.841 334.456 38.689 333.696 38.689 332.824C38.689 331.952 38.837 331.196 39.133 330.556C39.437 329.916 39.845 329.424 40.357 329.08C40.869 328.728 41.433 328.552 42.049 328.552C42.681 328.552 43.253 328.728 43.765 329.08C44.277 329.424 44.681 329.916 44.977 330.556C45.281 331.196 45.433 331.956 45.433 332.836C45.433 333.708 45.281 334.468 44.977 335.116C44.681 335.756 44.277 336.252 43.765 336.604C43.261 336.948 42.701 337.12 42.085 337.12ZM42.061 336.052C42.501 336.052 42.885 335.932 43.213 335.692C43.549 335.444 43.813 335.08 44.005 334.6C44.197 334.12 44.293 333.528 44.293 332.824C44.293 332.12 44.197 331.532 44.005 331.06C43.813 330.58 43.549 330.22 43.213 329.98C42.877 329.732 42.489 329.608 42.049 329.608C41.617 329.608 41.233 329.732 40.897 329.98C40.561 330.22 40.297 330.58 40.105 331.06C39.921 331.532 39.829 332.12 39.829 332.824C39.829 333.528 39.921 334.12 40.105 334.6C40.297 335.08 40.561 335.444 40.897 335.692C41.233 335.932 41.621 336.052 42.061 336.052Z" fill="#5F6D7E"/>
<line x1="62.5" y1="332.5" x2="471.5" y2="332.5" stroke="#EAEBF0" stroke-linecap="round" stroke-dasharray="4 12"/>
<path d="M80.1569 368.13C79.4463 368.13 78.8396 368 78.3369 367.74C77.8343 367.48 77.3879 367.103 76.9979 366.609L77.8299 365.777C78.1159 366.176 78.4453 366.479 78.8179 366.687C79.1906 366.886 79.6499 366.986 80.1959 366.986C80.7333 366.986 81.1623 366.869 81.4829 366.635C81.8123 366.401 81.9769 366.08 81.9769 365.673C81.9769 365.335 81.8989 365.062 81.7429 364.854C81.5869 364.646 81.3746 364.477 81.1059 364.347C80.8459 364.208 80.5599 364.087 80.2479 363.983C79.9359 363.87 79.6239 363.753 79.3119 363.632C78.9999 363.502 78.7139 363.346 78.4539 363.164C78.1939 362.973 77.9816 362.726 77.8169 362.423C77.6609 362.12 77.5829 361.738 77.5829 361.279C77.5829 360.768 77.7043 360.334 77.9469 359.979C78.1983 359.615 78.5363 359.338 78.9609 359.147C79.3943 358.948 79.8796 358.848 80.4169 358.848C81.0063 358.848 81.5349 358.965 82.0029 359.199C82.4709 359.424 82.8523 359.723 83.1469 360.096L82.3149 360.928C82.0463 360.616 81.7559 360.382 81.4439 360.226C81.1406 360.07 80.7896 359.992 80.3909 359.992C79.9056 359.992 79.5199 360.1 79.2339 360.317C78.9479 360.525 78.8049 360.82 78.8049 361.201C78.8049 361.504 78.8829 361.751 79.0389 361.942C79.2036 362.124 79.4159 362.28 79.6759 362.41C79.9359 362.54 80.2219 362.661 80.5339 362.774C80.8546 362.878 81.1709 362.995 81.4829 363.125C81.7949 363.255 82.0809 363.42 82.3409 363.619C82.6009 363.818 82.8089 364.078 82.9649 364.399C83.1296 364.711 83.2119 365.105 83.2119 365.582C83.2119 366.379 82.9346 367.003 82.3799 367.454C81.8339 367.905 81.0929 368.13 80.1569 368.13ZM87.0339 368.13C86.5312 368.13 86.0762 368.017 85.6689 367.792C85.2702 367.558 84.9582 367.237 84.7329 366.83C84.5075 366.423 84.3949 365.95 84.3949 365.413V361.825H85.5649V365.361C85.5649 365.699 85.6212 365.994 85.7339 366.245C85.8552 366.488 86.0285 366.674 86.2539 366.804C86.4792 366.934 86.7435 366.999 87.0469 366.999C87.5062 366.999 87.8659 366.856 88.1259 366.57C88.3859 366.275 88.5159 365.872 88.5159 365.361V361.825H89.6859V365.413C89.6859 365.95 89.5732 366.423 89.3479 366.83C89.1225 367.237 88.8105 367.558 88.4119 367.792C88.0219 368.017 87.5625 368.13 87.0339 368.13ZM95.522 368V364.399C95.522 363.931 95.3747 363.545 95.08 363.242C94.7853 362.939 94.404 362.787 93.936 362.787C93.624 362.787 93.3467 362.856 93.104 362.995C92.8613 363.134 92.6707 363.324 92.532 363.567C92.3933 363.81 92.324 364.087 92.324 364.399L91.843 364.126C91.843 363.658 91.947 363.242 92.155 362.878C92.363 362.514 92.6533 362.228 93.026 362.02C93.3987 361.803 93.819 361.695 94.287 361.695C94.755 361.695 95.1667 361.812 95.522 362.046C95.886 362.28 96.172 362.588 96.38 362.969C96.588 363.342 96.692 363.74 96.692 364.165V368H95.522ZM91.154 368V361.825H92.324V368H91.154Z" fill="#5F6D7E"/>
<path d="M135.471 368V358.978H136.329L140.151 365.257H139.566L143.388 358.978H144.246V368H143.024V361.123L143.31 361.201L140.294 366.154H139.436L136.42 361.201L136.693 361.123V368H135.471ZM148.889 368.13C148.282 368.13 147.736 367.987 147.251 367.701C146.766 367.415 146.38 367.029 146.094 366.544C145.808 366.05 145.665 365.5 145.665 364.893C145.665 364.295 145.808 363.758 146.094 363.281C146.38 362.796 146.766 362.41 147.251 362.124C147.736 361.838 148.282 361.695 148.889 361.695C149.487 361.695 150.029 361.838 150.514 362.124C151.008 362.401 151.398 362.783 151.684 363.268C151.97 363.753 152.113 364.295 152.113 364.893C152.113 365.5 151.97 366.05 151.684 366.544C151.398 367.029 151.008 367.415 150.514 367.701C150.029 367.987 149.487 368.13 148.889 368.13ZM148.889 366.999C149.279 366.999 149.626 366.908 149.929 366.726C150.232 366.544 150.471 366.297 150.644 365.985C150.817 365.664 150.904 365.3 150.904 364.893C150.904 364.494 150.813 364.139 150.631 363.827C150.458 363.515 150.219 363.272 149.916 363.099C149.621 362.917 149.279 362.826 148.889 362.826C148.499 362.826 148.152 362.917 147.849 363.099C147.546 363.272 147.307 363.515 147.134 363.827C146.961 364.139 146.874 364.494 146.874 364.893C146.874 365.3 146.961 365.664 147.134 365.985C147.307 366.297 147.546 366.544 147.849 366.726C148.152 366.908 148.499 366.999 148.889 366.999ZM157.699 368V364.399C157.699 363.931 157.552 363.545 157.257 363.242C156.963 362.939 156.581 362.787 156.113 362.787C155.801 362.787 155.524 362.856 155.281 362.995C155.039 363.134 154.848 363.324 154.709 363.567C154.571 363.81 154.501 364.087 154.501 364.399L154.02 364.126C154.02 363.658 154.124 363.242 154.332 362.878C154.54 362.514 154.831 362.228 155.203 362.02C155.576 361.803 155.996 361.695 156.464 361.695C156.932 361.695 157.344 361.812 157.699 362.046C158.063 362.28 158.349 362.588 158.557 362.969C158.765 363.342 158.869 363.74 158.869 364.165V368H157.699ZM153.331 368V361.825H154.501V368H153.331Z" fill="#5F6D7E"/>
<path d="M200.294 368V359.238H201.516V368H200.294ZM197.226 360.096V358.978H204.571V360.096H197.226ZM206.932 368.13C206.43 368.13 205.975 368.017 205.567 367.792C205.169 367.558 204.857 367.237 204.631 366.83C204.406 366.423 204.293 365.95 204.293 365.413V361.825H205.463V365.361C205.463 365.699 205.52 365.994 205.632 366.245C205.754 366.488 205.927 366.674 206.152 366.804C206.378 366.934 206.642 366.999 206.945 366.999C207.405 366.999 207.764 366.856 208.024 366.57C208.284 366.275 208.414 365.872 208.414 365.361V361.825H209.584V365.413C209.584 365.95 209.472 366.423 209.246 366.83C209.021 367.237 208.709 367.558 208.31 367.792C207.92 368.017 207.461 368.13 206.932 368.13ZM213.912 368.13C213.297 368.13 212.742 367.991 212.248 367.714C211.754 367.428 211.364 367.042 211.078 366.557C210.792 366.072 210.649 365.521 210.649 364.906C210.649 364.299 210.788 363.753 211.065 363.268C211.351 362.783 211.733 362.401 212.209 362.124C212.695 361.838 213.236 361.695 213.834 361.695C214.406 361.695 214.909 361.825 215.342 362.085C215.784 362.345 216.127 362.705 216.369 363.164C216.621 363.623 216.746 364.143 216.746 364.724C216.746 364.811 216.742 364.906 216.733 365.01C216.725 365.105 216.707 365.218 216.681 365.348H211.468V364.373H216.057L215.628 364.75C215.628 364.334 215.555 363.983 215.407 363.697C215.26 363.402 215.052 363.177 214.783 363.021C214.515 362.856 214.19 362.774 213.808 362.774C213.41 362.774 213.059 362.861 212.755 363.034C212.452 363.207 212.218 363.45 212.053 363.762C211.889 364.074 211.806 364.442 211.806 364.867C211.806 365.3 211.893 365.682 212.066 366.011C212.24 366.332 212.487 366.583 212.807 366.765C213.128 366.938 213.496 367.025 213.912 367.025C214.259 367.025 214.575 366.964 214.861 366.843C215.156 366.722 215.407 366.54 215.615 366.297L216.369 367.064C216.075 367.411 215.711 367.675 215.277 367.857C214.853 368.039 214.398 368.13 213.912 368.13Z" fill="#5F6D7E"/>
<path d="M257.296 368L254.345 358.978H255.567L257.907 366.336H257.556L259.857 358.978H260.741L263.042 366.336H262.704L265.044 358.978H266.253L263.315 368H262.444L260.13 360.655H260.468L258.167 368H257.296ZM269.353 368.13C268.738 368.13 268.183 367.991 267.689 367.714C267.195 367.428 266.805 367.042 266.519 366.557C266.233 366.072 266.09 365.521 266.09 364.906C266.09 364.299 266.229 363.753 266.506 363.268C266.792 362.783 267.174 362.401 267.65 362.124C268.136 361.838 268.677 361.695 269.275 361.695C269.847 361.695 270.35 361.825 270.783 362.085C271.225 362.345 271.568 362.705 271.81 363.164C272.062 363.623 272.187 364.143 272.187 364.724C272.187 364.811 272.183 364.906 272.174 365.01C272.166 365.105 272.148 365.218 272.122 365.348H266.909V364.373H271.498L271.069 364.75C271.069 364.334 270.996 363.983 270.848 363.697C270.701 363.402 270.493 363.177 270.224 363.021C269.956 362.856 269.631 362.774 269.249 362.774C268.851 362.774 268.5 362.861 268.196 363.034C267.893 363.207 267.659 363.45 267.494 363.762C267.33 364.074 267.247 364.442 267.247 364.867C267.247 365.3 267.334 365.682 267.507 366.011C267.681 366.332 267.928 366.583 268.248 366.765C268.569 366.938 268.937 367.025 269.353 367.025C269.7 367.025 270.016 366.964 270.302 366.843C270.597 366.722 270.848 366.54 271.056 366.297L271.81 367.064C271.516 367.411 271.152 367.675 270.718 367.857C270.294 368.039 269.839 368.13 269.353 368.13ZM275.976 368.13C275.404 368.13 274.893 367.991 274.442 367.714C273.991 367.428 273.632 367.042 273.363 366.557C273.103 366.072 272.973 365.526 272.973 364.919C272.973 364.312 273.103 363.766 273.363 363.281C273.632 362.796 273.991 362.41 274.442 362.124C274.893 361.838 275.404 361.695 275.976 361.695C276.435 361.695 276.851 361.795 277.224 361.994C277.597 362.185 277.896 362.453 278.121 362.8C278.355 363.138 278.485 363.532 278.511 363.983V365.842C278.485 366.284 278.359 366.678 278.134 367.025C277.909 367.372 277.61 367.645 277.237 367.844C276.864 368.035 276.444 368.13 275.976 368.13ZM276.171 367.025C276.561 367.025 276.899 366.934 277.185 366.752C277.48 366.57 277.709 366.323 277.874 366.011C278.039 365.69 278.121 365.326 278.121 364.919C278.121 364.494 278.034 364.126 277.861 363.814C277.696 363.502 277.467 363.255 277.172 363.073C276.886 362.891 276.548 362.8 276.158 362.8C275.768 362.8 275.426 362.891 275.131 363.073C274.836 363.255 274.602 363.506 274.429 363.827C274.264 364.139 274.182 364.499 274.182 364.906C274.182 365.322 274.264 365.69 274.429 366.011C274.602 366.323 274.836 366.57 275.131 366.752C275.434 366.934 275.781 367.025 276.171 367.025ZM279.226 368H278.043V366.336L278.264 364.828L278.043 363.333V358.718H279.226V368Z" fill="#5F6D7E"/>
<path d="M319.583 368V359.238H320.805V368H319.583ZM316.515 360.096V358.978H323.86V360.096H316.515ZM329.376 368V364.399C329.376 363.931 329.229 363.545 328.934 363.242C328.639 362.939 328.258 362.787 327.79 362.787C327.478 362.787 327.201 362.856 326.958 362.995C326.715 363.134 326.525 363.324 326.386 363.567C326.247 363.81 326.178 364.087 326.178 364.399L325.697 364.126C325.697 363.658 325.801 363.242 326.009 362.878C326.217 362.514 326.507 362.228 326.88 362.02C327.253 361.803 327.673 361.695 328.141 361.695C328.609 361.695 329.021 361.799 329.376 362.007C329.74 362.215 330.026 362.505 330.234 362.878C330.442 363.251 330.546 363.68 330.546 364.165V368H329.376ZM325.008 368V358.718H326.178V368H325.008ZM334.513 368.13C334.01 368.13 333.555 368.017 333.148 367.792C332.749 367.558 332.437 367.237 332.212 366.83C331.987 366.423 331.874 365.95 331.874 365.413V361.825H333.044V365.361C333.044 365.699 333.1 365.994 333.213 366.245C333.334 366.488 333.508 366.674 333.733 366.804C333.958 366.934 334.223 366.999 334.526 366.999C334.985 366.999 335.345 366.856 335.605 366.57C335.865 366.275 335.995 365.872 335.995 365.361V361.825H337.165V365.413C337.165 365.95 337.052 366.423 336.827 366.83C336.602 367.237 336.29 367.558 335.891 367.792C335.501 368.017 335.042 368.13 334.513 368.13Z" fill="#5F6D7E"/>
<path d="M380.422 368V358.978H381.644V368H380.422ZM381.254 364.035V362.917H385.96V364.035H381.254ZM381.254 360.096V358.978H386.181V360.096H381.254ZM387.477 368V361.825H388.647V368H387.477ZM388.647 364.477L388.205 364.282C388.205 363.493 388.387 362.865 388.751 362.397C389.115 361.929 389.639 361.695 390.324 361.695C390.636 361.695 390.918 361.751 391.169 361.864C391.42 361.968 391.654 362.146 391.871 362.397L391.104 363.19C390.974 363.051 390.831 362.952 390.675 362.891C390.519 362.83 390.337 362.8 390.129 362.8C389.696 362.8 389.34 362.939 389.063 363.216C388.786 363.493 388.647 363.914 388.647 364.477ZM392.608 368V361.825H393.778V368H392.608ZM393.193 360.59C392.976 360.59 392.799 360.521 392.66 360.382C392.521 360.235 392.452 360.053 392.452 359.836C392.452 359.628 392.521 359.455 392.66 359.316C392.799 359.169 392.976 359.095 393.193 359.095C393.41 359.095 393.587 359.169 393.726 359.316C393.865 359.455 393.934 359.628 393.934 359.836C393.934 360.053 393.865 360.235 393.726 360.382C393.587 360.521 393.41 360.59 393.193 360.59Z" fill="#5F6D7E"/>
<path d="M440.95 368.13C440.24 368.13 439.633 368 439.13 367.74C438.628 367.48 438.181 367.103 437.791 366.609L438.623 365.777C438.909 366.176 439.239 366.479 439.611 366.687C439.984 366.886 440.443 366.986 440.989 366.986C441.527 366.986 441.956 366.869 442.276 366.635C442.606 366.401 442.77 366.08 442.77 365.673C442.77 365.335 442.692 365.062 442.536 364.854C442.38 364.646 442.168 364.477 441.899 364.347C441.639 364.208 441.353 364.087 441.041 363.983C440.729 363.87 440.417 363.753 440.105 363.632C439.793 363.502 439.507 363.346 439.247 363.164C438.987 362.973 438.775 362.726 438.61 362.423C438.454 362.12 438.376 361.738 438.376 361.279C438.376 360.768 438.498 360.334 438.74 359.979C438.992 359.615 439.33 359.338 439.754 359.147C440.188 358.948 440.673 358.848 441.21 358.848C441.8 358.848 442.328 358.965 442.796 359.199C443.264 359.424 443.646 359.723 443.94 360.096L443.108 360.928C442.84 360.616 442.549 360.382 442.237 360.226C441.934 360.07 441.583 359.992 441.184 359.992C440.699 359.992 440.313 360.1 440.027 360.317C439.741 360.525 439.598 360.82 439.598 361.201C439.598 361.504 439.676 361.751 439.832 361.942C439.997 362.124 440.209 362.28 440.469 362.41C440.729 362.54 441.015 362.661 441.327 362.774C441.648 362.878 441.964 362.995 442.276 363.125C442.588 363.255 442.874 363.42 443.134 363.619C443.394 363.818 443.602 364.078 443.758 364.399C443.923 364.711 444.005 365.105 444.005 365.582C444.005 366.379 443.728 367.003 443.173 367.454C442.627 367.905 441.886 368.13 440.95 368.13ZM447.881 368.13C447.318 368.13 446.807 367.991 446.347 367.714C445.888 367.428 445.524 367.042 445.255 366.557C444.995 366.072 444.865 365.526 444.865 364.919C444.865 364.312 444.995 363.766 445.255 363.281C445.524 362.796 445.884 362.41 446.334 362.124C446.794 361.838 447.309 361.695 447.881 361.695C448.349 361.695 448.765 361.795 449.129 361.994C449.502 362.185 449.801 362.453 450.026 362.8C450.252 363.138 450.377 363.532 450.403 363.983V365.842C450.377 366.284 450.252 366.678 450.026 367.025C449.81 367.372 449.515 367.645 449.142 367.844C448.778 368.035 448.358 368.13 447.881 368.13ZM448.076 367.025C448.657 367.025 449.125 366.83 449.48 366.44C449.836 366.041 450.013 365.534 450.013 364.919C450.013 364.494 449.931 364.126 449.766 363.814C449.61 363.493 449.385 363.246 449.09 363.073C448.796 362.891 448.453 362.8 448.063 362.8C447.673 362.8 447.327 362.891 447.023 363.073C446.729 363.255 446.495 363.506 446.321 363.827C446.157 364.139 446.074 364.499 446.074 364.906C446.074 365.322 446.157 365.69 446.321 366.011C446.495 366.323 446.733 366.57 447.036 366.752C447.34 366.934 447.686 367.025 448.076 367.025ZM449.935 368V366.336L450.156 364.828L449.935 363.333V361.825H451.118V368H449.935ZM453.645 368V359.238H454.815V368H453.645ZM452.124 362.891V361.825H456.336V362.891H452.124Z" fill="#5F6D7E"/>
<g clip-path="url(#clip0_1159_8355)">
<rect x="62.2188" y="238.5" width="54.7461" height="94.5" fill="#0530A1"/>
</g>
<g clip-path="url(#clip1_1159_8355)">
<g clip-path="url(#clip2_1159_8355)">
<path fill-rule="evenodd" clip-rule="evenodd" d="M432.361 -629.73L-133.324 -64.045L-134.031 -64.7521L431.654 -630.438L432.361 -629.73Z" fill="#0530A1"/>
<path fill-rule="evenodd" clip-rule="evenodd" d="M432.361 -621.73L-133.324 -56.045L-134.031 -56.7521L431.654 -622.438L432.361 -621.73Z" fill="#0530A1"/>
<path fill-rule="evenodd" clip-rule="evenodd" d="M432.361 -613.73L-133.324 -48.045L-134.031 -48.7521L431.654 -614.438L432.361 -613.73Z" fill="#0530A1"/>
<path fill-rule="evenodd" clip-rule="evenodd" d="M432.361 -605.73L-133.324 -40.045L-134.031 -40.7521L431.654 -606.438L432.361 -605.73Z" fill="#0530A1"/>
<path fill-rule="evenodd" clip-rule="evenodd" d="M432.361 -597.73L-133.324 -32.045L-134.031 -32.7521L431.654 -598.438L432.361 -597.73Z" fill="#0530A1"/>
<path fill-rule="evenodd" clip-rule="evenodd" d="M432.361 -589.73L-133.324 -24.045L-134.031 -24.7521L431.654 -590.438L432.361 -589.73Z" fill="#0530A1"/>
<path fill-rule="evenodd" clip-rule="evenodd" d="M432.361 -581.73L-133.324 -16.045L-134.031 -16.7521L431.654 -582.438L432.361 -581.73Z" fill="#0530A1"/>
<path fill-rule="evenodd" clip-rule="evenodd" d="M432.361 -573.73L-133.324 -8.04498L-134.031 -8.75208L431.654 -574.438L432.361 -573.73Z" fill="#0530A1"/>
<path fill-rule="evenodd" clip-rule="evenodd" d="M432.361 -565.73L-133.324 -0.0449829L-134.031 -0.752075L431.654 -566.438L432.361 -565.73Z" fill="#0530A1"/>
<path fill-rule="evenodd" clip-rule="evenodd" d="M432.361 -557.73L-133.324 7.95502L-134.031 7.24792L431.654 -558.438L432.361 -557.73Z" fill="#0530A1"/>
<path fill-rule="evenodd" clip-rule="evenodd" d="M432.361 -549.73L-133.324 15.955L-134.031 15.2479L431.654 -550.438L432.361 -549.73Z" fill="#0530A1"/>
<path fill-rule="evenodd" clip-rule="evenodd" d="M432.361 -541.73L-133.324 23.955L-134.031 23.2479L431.654 -542.438L432.361 -541.73Z" fill="#0530A1"/>
<path fill-rule="evenodd" clip-rule="evenodd" d="M432.361 -533.73L-133.324 31.955L-134.031 31.2479L431.654 -534.438L432.361 -533.73Z" fill="#0530A1"/>
<path fill-rule="evenodd" clip-rule="evenodd" d="M432.361 -525.73L-133.324 39.955L-134.031 39.2479L431.654 -526.438L432.361 -525.73Z" fill="#0530A1"/>
<path fill-rule="evenodd" clip-rule="evenodd" d="M432.361 -517.73L-133.324 47.955L-134.031 47.2479L431.654 -518.438L432.361 -517.73Z" fill="#0530A1"/>
<path fill-rule="evenodd" clip-rule="evenodd" d="M432.361 -509.73L-133.324 55.955L-134.031 55.2479L431.654 -510.438L432.361 -509.73Z" fill="#0530A1"/>
<path fill-rule="evenodd" clip-rule="evenodd" d="M432.361 -501.73L-133.324 63.955L-134.031 63.2479L431.654 -502.438L432.361 -501.73Z" fill="#0530A1"/>
<path fill-rule="evenodd" clip-rule="evenodd" d="M432.361 -493.73L-133.324 71.955L-134.031 71.2479L431.654 -494.438L432.361 -493.73Z" fill="#0530A1"/>
<path fill-rule="evenodd" clip-rule="evenodd" d="M432.361 -485.73L-133.324 79.955L-134.031 79.2479L431.654 -486.438L432.361 -485.73Z" fill="#0530A1"/>
<path fill-rule="evenodd" clip-rule="evenodd" d="M432.361 -477.73L-133.324 87.955L-134.031 87.2479L431.654 -478.438L432.361 -477.73Z" fill="#0530A1"/>
<path fill-rule="evenodd" clip-rule="evenodd" d="M432.361 -469.73L-133.324 95.955L-134.031 95.2479L431.654 -470.438L432.361 -469.73Z" fill="#0530A1"/>
<path fill-rule="evenodd" clip-rule="evenodd" d="M432.361 -461.73L-133.324 103.955L-134.031 103.248L431.654 -462.438L432.361 -461.73Z" fill="#0530A1"/>
<path fill-rule="evenodd" clip-rule="evenodd" d="M432.361 -453.73L-133.324 111.955L-134.031 111.248L431.654 -454.438L432.361 -453.73Z" fill="#0530A1"/>
<path fill-rule="evenodd" clip-rule="evenodd" d="M432.361 -445.73L-133.324 119.955L-134.031 119.248L431.654 -446.438L432.361 -445.73Z" fill="#0530A1"/>
<path fill-rule="evenodd" clip-rule="evenodd" d="M432.361 -437.73L-133.324 127.955L-134.031 127.248L431.654 -438.438L432.361 -437.73Z" fill="#0530A1"/>
<path fill-rule="evenodd" clip-rule="evenodd" d="M432.361 -429.73L-133.324 135.955L-134.031 135.248L431.654 -430.438L432.361 -429.73Z" fill="#0530A1"/>
<path fill-rule="evenodd" clip-rule="evenodd" d="M432.361 -421.73L-133.324 143.955L-134.031 143.248L431.654 -422.438L432.361 -421.73Z" fill="#0530A1"/>
<path fill-rule="evenodd" clip-rule="evenodd" d="M432.361 -413.73L-133.324 151.955L-134.031 151.248L431.654 -414.438L432.361 -413.73Z" fill="#0530A1"/>
<path fill-rule="evenodd" clip-rule="evenodd" d="M432.361 -405.73L-133.324 159.955L-134.031 159.248L431.654 -406.438L432.361 -405.73Z" fill="#0530A1"/>
<path fill-rule="evenodd" clip-rule="evenodd" d="M432.361 -397.73L-133.324 167.955L-134.031 167.248L431.654 -398.438L432.361 -397.73Z" fill="#0530A1"/>
<path fill-rule="evenodd" clip-rule="evenodd" d="M432.361 -389.73L-133.324 175.955L-134.031 175.248L431.654 -390.438L432.361 -389.73Z" fill="#0530A1"/>
<path fill-rule="evenodd" clip-rule="evenodd" d="M432.361 -381.73L-133.324 183.955L-134.031 183.248L431.654 -382.438L432.361 -381.73Z" fill="#0530A1"/>
<path fill-rule="evenodd" clip-rule="evenodd" d="M432.361 -373.73L-133.324 191.955L-134.031 191.248L431.654 -374.438L432.361 -373.73Z" fill="#0530A1"/>
<path fill-rule="evenodd" clip-rule="evenodd" d="M432.361 -365.73L-133.324 199.955L-134.031 199.248L431.654 -366.438L432.361 -365.73Z" fill="#0530A1"/>
<path fill-rule="evenodd" clip-rule="evenodd" d="M432.361 -357.73L-133.324 207.955L-134.031 207.248L431.654 -358.438L432.361 -357.73Z" fill="#0530A1"/>
<path fill-rule="evenodd" clip-rule="evenodd" d="M432.361 -349.73L-133.324 215.955L-134.031 215.248L431.654 -350.438L432.361 -349.73Z" fill="#0530A1"/>
<path fill-rule="evenodd" clip-rule="evenodd" d="M432.361 -341.73L-133.324 223.955L-134.031 223.248L431.654 -342.438L432.361 -341.73Z" fill="#0530A1"/>
<path fill-rule="evenodd" clip-rule="evenodd" d="M432.361 -333.73L-133.324 231.955L-134.031 231.248L431.654 -334.438L432.361 -333.73Z" fill="#0530A1"/>
<path fill-rule="evenodd" clip-rule="evenodd" d="M432.361 -325.73L-133.324 239.955L-134.031 239.248L431.654 -326.438L432.361 -325.73Z" fill="#0530A1"/>
<path fill-rule="evenodd" clip-rule="evenodd" d="M432.361 -317.73L-133.324 247.955L-134.031 247.248L431.654 -318.438L432.361 -317.73Z" fill="#0530A1"/>
<path fill-rule="evenodd" clip-rule="evenodd" d="M432.361 -309.73L-133.324 255.955L-134.031 255.248L431.654 -310.438L432.361 -309.73Z" fill="#0530A1"/>
<path fill-rule="evenodd" clip-rule="evenodd" d="M432.361 -301.73L-133.324 263.955L-134.031 263.248L431.654 -302.438L432.361 -301.73Z" fill="#0530A1"/>
<path fill-rule="evenodd" clip-rule="evenodd" d="M432.361 -293.73L-133.324 271.955L-134.031 271.248L431.654 -294.438L432.361 -293.73Z" fill="#0530A1"/>
<path fill-rule="evenodd" clip-rule="evenodd" d="M432.361 -285.73L-133.324 279.955L-134.031 279.248L431.654 -286.438L432.361 -285.73Z" fill="#0530A1"/>
<path fill-rule="evenodd" clip-rule="evenodd" d="M432.361 -277.73L-133.324 287.955L-134.031 287.248L431.654 -278.438L432.361 -277.73Z" fill="#0530A1"/>
<path fill-rule="evenodd" clip-rule="evenodd" d="M432.361 -269.73L-133.324 295.955L-134.031 295.248L431.654 -270.438L432.361 -269.73Z" fill="#0530A1"/>
<path fill-rule="evenodd" clip-rule="evenodd" d="M432.361 -261.73L-133.324 303.955L-134.031 303.248L431.654 -262.438L432.361 -261.73Z" fill="#0530A1"/>
<path fill-rule="evenodd" clip-rule="evenodd" d="M432.361 -253.73L-133.324 311.955L-134.031 311.248L431.654 -254.438L432.361 -253.73Z" fill="#0530A1"/>
<path fill-rule="evenodd" clip-rule="evenodd" d="M432.361 -245.73L-133.324 319.955L-134.031 319.248L431.654 -246.438L432.361 -245.73Z" fill="#0530A1"/>
<path fill-rule="evenodd" clip-rule="evenodd" d="M432.361 -237.73L-133.324 327.955L-134.031 327.248L431.654 -238.438L432.361 -237.73Z" fill="#0530A1"/>
<path fill-rule="evenodd" clip-rule="evenodd" d="M432.361 -229.73L-133.324 335.955L-134.031 335.248L431.654 -230.438L432.361 -229.73Z" fill="#0530A1"/>
<path fill-rule="evenodd" clip-rule="evenodd" d="M432.361 -221.73L-133.324 343.955L-134.031 343.248L431.654 -222.438L432.361 -221.73Z" fill="#0530A1"/>
<path fill-rule="evenodd" clip-rule="evenodd" d="M432.361 -213.73L-133.324 351.955L-134.031 351.248L431.654 -214.438L432.361 -213.73Z" fill="#0530A1"/>
<path fill-rule="evenodd" clip-rule="evenodd" d="M432.361 -205.73L-133.324 359.955L-134.031 359.248L431.654 -206.438L432.361 -205.73Z" fill="#0530A1"/>
<path fill-rule="evenodd" clip-rule="evenodd" d="M432.361 -197.73L-133.324 367.955L-134.031 367.248L431.654 -198.438L432.361 -197.73Z" fill="#0530A1"/>
<path fill-rule="evenodd" clip-rule="evenodd" d="M432.361 -189.73L-133.324 375.955L-134.031 375.248L431.654 -190.438L432.361 -189.73Z" fill="#0530A1"/>
<path fill-rule="evenodd" clip-rule="evenodd" d="M432.361 -181.73L-133.324 383.955L-134.031 383.248L431.654 -182.438L432.361 -181.73Z" fill="#0530A1"/>
<path fill-rule="evenodd" clip-rule="evenodd" d="M432.361 -173.73L-133.324 391.955L-134.031 391.248L431.654 -174.438L432.361 -173.73Z" fill="#0530A1"/>
<path fill-rule="evenodd" clip-rule="evenodd" d="M432.361 -165.73L-133.324 399.955L-134.031 399.248L431.654 -166.438L432.361 -165.73Z" fill="#0530A1"/>
<path fill-rule="evenodd" clip-rule="evenodd" d="M432.361 -157.73L-133.324 407.955L-134.031 407.248L431.654 -158.438L432.361 -157.73Z" fill="#0530A1"/>
<path fill-rule="evenodd" clip-rule="evenodd" d="M432.361 -149.73L-133.324 415.955L-134.031 415.248L431.654 -150.438L432.361 -149.73Z" fill="#0530A1"/>
<path fill-rule="evenodd" clip-rule="evenodd" d="M432.361 -141.73L-133.324 423.955L-134.031 423.248L431.654 -142.438L432.361 -141.73Z" fill="#0530A1"/>
<path fill-rule="evenodd" clip-rule="evenodd" d="M432.361 -133.73L-133.324 431.955L-134.031 431.248L431.654 -134.438L432.361 -133.73Z" fill="#0530A1"/>
<path fill-rule="evenodd" clip-rule="evenodd" d="M432.361 -125.73L-133.324 439.955L-134.031 439.248L431.654 -126.438L432.361 -125.73Z" fill="#0530A1"/>
<path fill-rule="evenodd" clip-rule="evenodd" d="M432.361 -117.73L-133.324 447.955L-134.031 447.248L431.654 -118.438L432.361 -117.73Z" fill="#0530A1"/>
<path fill-rule="evenodd" clip-rule="evenodd" d="M432.361 -109.73L-133.324 455.955L-134.031 455.248L431.654 -110.438L432.361 -109.73Z" fill="#0530A1"/>
<path fill-rule="evenodd" clip-rule="evenodd" d="M432.361 -101.73L-133.324 463.955L-134.031 463.248L431.654 -102.438L432.361 -101.73Z" fill="#0530A1"/>
<path fill-rule="evenodd" clip-rule="evenodd" d="M432.361 -93.7304L-133.324 471.955L-134.031 471.248L431.654 -94.4375L432.361 -93.7304Z" fill="#0530A1"/>
<path fill-rule="evenodd" clip-rule="evenodd" d="M432.361 -85.7304L-133.324 479.955L-134.031 479.248L431.654 -86.4375L432.361 -85.7304Z" fill="#0530A1"/>
<path fill-rule="evenodd" clip-rule="evenodd" d="M432.361 -77.7304L-133.324 487.955L-134.031 487.248L431.654 -78.4375L432.361 -77.7304Z" fill="#0530A1"/>
<path fill-rule="evenodd" clip-rule="evenodd" d="M432.361 -69.7304L-133.324 495.955L-134.031 495.248L431.654 -70.4375L432.361 -69.7304Z" fill="#0530A1"/>
<path fill-rule="evenodd" clip-rule="evenodd" d="M432.361 -61.7304L-133.324 503.955L-134.031 503.248L431.654 -62.4375L432.361 -61.7304Z" fill="#0530A1"/>
<path fill-rule="evenodd" clip-rule="evenodd" d="M432.361 -53.7304L-133.324 511.955L-134.031 511.248L431.654 -54.4375L432.361 -53.7304Z" fill="#0530A1"/>
<path fill-rule="evenodd" clip-rule="evenodd" d="M432.361 -45.7304L-133.324 519.955L-134.031 519.248L431.654 -46.4375L432.361 -45.7304Z" fill="#0530A1"/>
<path fill-rule="evenodd" clip-rule="evenodd" d="M432.361 -37.7304L-133.324 527.955L-134.031 527.248L431.654 -38.4375L432.361 -37.7304Z" fill="#0530A1"/>
<path fill-rule="evenodd" clip-rule="evenodd" d="M432.361 -29.7304L-133.324 535.955L-134.031 535.248L431.654 -30.4375L432.361 -29.7304Z" fill="#0530A1"/>
<path fill-rule="evenodd" clip-rule="evenodd" d="M432.361 -21.7304L-133.324 543.955L-134.031 543.248L431.654 -22.4375L432.361 -21.7304Z" fill="#0530A1"/>
<path fill-rule="evenodd" clip-rule="evenodd" d="M432.361 -13.7304L-133.324 551.955L-134.031 551.248L431.654 -14.4375L432.361 -13.7304Z" fill="#0530A1"/>
<path fill-rule="evenodd" clip-rule="evenodd" d="M432.361 -5.73041L-133.324 559.955L-134.031 559.248L431.654 -6.4375L432.361 -5.73041Z" fill="#0530A1"/>
<path fill-rule="evenodd" clip-rule="evenodd" d="M432.361 2.26959L-133.324 567.955L-134.031 567.248L431.654 1.5625L432.361 2.26959Z" fill="#0530A1"/>
<path fill-rule="evenodd" clip-rule="evenodd" d="M432.361 10.2696L-133.324 575.955L-134.031 575.248L431.654 9.5625L432.361 10.2696Z" fill="#0530A1"/>
<path fill-rule="evenodd" clip-rule="evenodd" d="M432.361 18.2696L-133.324 583.955L-134.031 583.248L431.654 17.5625L432.361 18.2696Z" fill="#0530A1"/>
<path fill-rule="evenodd" clip-rule="evenodd" d="M432.361 26.2696L-133.324 591.955L-134.031 591.248L431.654 25.5625L432.361 26.2696Z" fill="#0530A1"/>
<path fill-rule="evenodd" clip-rule="evenodd" d="M432.361 34.2696L-133.324 599.955L-134.031 599.248L431.654 33.5625L432.361 34.2696Z" fill="#0530A1"/>
<path fill-rule="evenodd" clip-rule="evenodd" d="M432.361 42.2696L-133.324 607.955L-134.031 607.248L431.654 41.5625L432.361 42.2696Z" fill="#0530A1"/>
<path fill-rule="evenodd" clip-rule="evenodd" d="M432.361 50.2696L-133.324 615.955L-134.031 615.248L431.654 49.5625L432.361 50.2696Z" fill="#0530A1"/>
<path fill-rule="evenodd" clip-rule="evenodd" d="M432.361 58.2696L-133.324 623.955L-134.031 623.248L431.654 57.5625L432.361 58.2696Z" fill="#0530A1"/>
<path fill-rule="evenodd" clip-rule="evenodd" d="M432.361 66.2696L-133.324 631.955L-134.031 631.248L431.654 65.5625L432.361 66.2696Z" fill="#0530A1"/>
<path fill-rule="evenodd" clip-rule="evenodd" d="M432.361 74.2696L-133.324 639.955L-134.031 639.248L431.654 73.5625L432.361 74.2696Z" fill="#0530A1"/>
<path fill-rule="evenodd" clip-rule="evenodd" d="M432.361 82.2696L-133.324 647.955L-134.031 647.248L431.654 81.5625L432.361 82.2696Z" fill="#0530A1"/>
<path fill-rule="evenodd" clip-rule="evenodd" d="M432.361 90.2696L-133.324 655.955L-134.031 655.248L431.654 89.5625L432.361 90.2696Z" fill="#0530A1"/>
<path fill-rule="evenodd" clip-rule="evenodd" d="M432.361 98.2696L-133.324 663.955L-134.031 663.248L431.654 97.5625L432.361 98.2696Z" fill="#0530A1"/>
<path fill-rule="evenodd" clip-rule="evenodd" d="M432.361 106.27L-133.324 671.955L-134.031 671.248L431.654 105.562L432.361 106.27Z" fill="#0530A1"/>
<path fill-rule="evenodd" clip-rule="evenodd" d="M432.361 114.27L-133.324 679.955L-134.031 679.248L431.654 113.563L432.361 114.27Z" fill="#0530A1"/>
<path fill-rule="evenodd" clip-rule="evenodd" d="M432.361 122.27L-133.324 687.955L-134.031 687.248L431.654 121.563L432.361 122.27Z" fill="#0530A1"/>
<path fill-rule="evenodd" clip-rule="evenodd" d="M432.361 130.27L-133.324 695.955L-134.031 695.248L431.654 129.563L432.361 130.27Z" fill="#0530A1"/>
<path fill-rule="evenodd" clip-rule="evenodd" d="M432.361 138.27L-133.324 703.955L-134.031 703.248L431.654 137.563L432.361 138.27Z" fill="#0530A1"/>
<path fill-rule="evenodd" clip-rule="evenodd" d="M432.361 146.27L-133.324 711.955L-134.031 711.248L431.654 145.563L432.361 146.27Z" fill="#0530A1"/>
<path fill-rule="evenodd" clip-rule="evenodd" d="M432.361 154.27L-133.324 719.955L-134.031 719.248L431.654 153.563L432.361 154.27Z" fill="#0530A1"/>
<path fill-rule="evenodd" clip-rule="evenodd" d="M432.361 162.27L-133.324 727.955L-134.031 727.248L431.654 161.563L432.361 162.27Z" fill="#0530A1"/>
<path fill-rule="evenodd" clip-rule="evenodd" d="M432.361 170.27L-133.324 735.955L-134.031 735.248L431.654 169.563L432.361 170.27Z" fill="#0530A1"/>
<path fill-rule="evenodd" clip-rule="evenodd" d="M432.361 178.27L-133.324 743.955L-134.031 743.248L431.654 177.563L432.361 178.27Z" fill="#0530A1"/>
<path fill-rule="evenodd" clip-rule="evenodd" d="M432.361 186.27L-133.324 751.955L-134.031 751.248L431.654 185.563L432.361 186.27Z" fill="#0530A1"/>
<path fill-rule="evenodd" clip-rule="evenodd" d="M432.361 194.27L-133.324 759.955L-134.031 759.248L431.654 193.563L432.361 194.27Z" fill="#0530A1"/>
<path fill-rule="evenodd" clip-rule="evenodd" d="M432.361 202.27L-133.324 767.955L-134.031 767.248L431.654 201.563L432.361 202.27Z" fill="#0530A1"/>
<path fill-rule="evenodd" clip-rule="evenodd" d="M432.361 210.27L-133.324 775.955L-134.031 775.248L431.654 209.563L432.361 210.27Z" fill="#0530A1"/>
<path fill-rule="evenodd" clip-rule="evenodd" d="M432.361 218.27L-133.324 783.955L-134.031 783.248L431.654 217.563L432.361 218.27Z" fill="#0530A1"/>
<path fill-rule="evenodd" clip-rule="evenodd" d="M432.361 226.27L-133.324 791.955L-134.031 791.248L431.654 225.563L432.361 226.27Z" fill="#0530A1"/>
<path fill-rule="evenodd" clip-rule="evenodd" d="M432.361 234.27L-133.324 799.955L-134.031 799.248L431.654 233.563L432.361 234.27Z" fill="#0530A1"/>
<path fill-rule="evenodd" clip-rule="evenodd" d="M432.361 242.27L-133.324 807.955L-134.031 807.248L431.654 241.563L432.361 242.27Z" fill="#0530A1"/>
<path fill-rule="evenodd" clip-rule="evenodd" d="M432.361 250.27L-133.324 815.955L-134.031 815.248L431.654 249.563L432.361 250.27Z" fill="#0530A1"/>
<path fill-rule="evenodd" clip-rule="evenodd" d="M432.361 258.27L-133.324 823.955L-134.031 823.248L431.654 257.563L432.361 258.27Z" fill="#0530A1"/>
<path fill-rule="evenodd" clip-rule="evenodd" d="M432.361 266.27L-133.324 831.955L-134.031 831.248L431.654 265.563L432.361 266.27Z" fill="#0530A1"/>
<path fill-rule="evenodd" clip-rule="evenodd" d="M432.361 274.27L-133.324 839.955L-134.031 839.248L431.654 273.563L432.361 274.27Z" fill="#0530A1"/>
<path fill-rule="evenodd" clip-rule="evenodd" d="M432.361 282.27L-133.324 847.955L-134.031 847.248L431.654 281.563L432.361 282.27Z" fill="#0530A1"/>
<path fill-rule="evenodd" clip-rule="evenodd" d="M432.361 290.27L-133.324 855.955L-134.031 855.248L431.654 289.563L432.361 290.27Z" fill="#0530A1"/>
<path fill-rule="evenodd" clip-rule="evenodd" d="M432.361 298.27L-133.324 863.955L-134.031 863.248L431.654 297.563L432.361 298.27Z" fill="#0530A1"/>
<path fill-rule="evenodd" clip-rule="evenodd" d="M432.361 306.27L-133.324 871.955L-134.031 871.248L431.654 305.563L432.361 306.27Z" fill="#0530A1"/>
<path fill-rule="evenodd" clip-rule="evenodd" d="M432.361 314.27L-133.324 879.955L-134.031 879.248L431.654 313.563L432.361 314.27Z" fill="#0530A1"/>
<path fill-rule="evenodd" clip-rule="evenodd" d="M432.361 322.27L-133.324 887.955L-134.031 887.248L431.654 321.563L432.361 322.27Z" fill="#0530A1"/>
<path fill-rule="evenodd" clip-rule="evenodd" d="M432.361 330.27L-133.324 895.955L-134.031 895.248L431.654 329.563L432.361 330.27Z" fill="#0530A1"/>
<path fill-rule="evenodd" clip-rule="evenodd" d="M432.361 338.27L-133.324 903.955L-134.031 903.248L431.654 337.563L432.361 338.27Z" fill="#0530A1"/>
<path fill-rule="evenodd" clip-rule="evenodd" d="M432.361 346.27L-133.324 911.955L-134.031 911.248L431.654 345.563L432.361 346.27Z" fill="#0530A1"/>
<path fill-rule="evenodd" clip-rule="evenodd" d="M432.361 354.27L-133.324 919.955L-134.031 919.248L431.654 353.563L432.361 354.27Z" fill="#0530A1"/>
<path fill-rule="evenodd" clip-rule="evenodd" d="M432.361 362.27L-133.324 927.955L-134.031 927.248L431.654 361.563L432.361 362.27Z" fill="#0530A1"/>
<path fill-rule="evenodd" clip-rule="evenodd" d="M432.361 370.27L-133.324 935.955L-134.031 935.248L431.654 369.563L432.361 370.27Z" fill="#0530A1"/>
<path fill-rule="evenodd" clip-rule="evenodd" d="M432.361 378.27L-133.324 943.955L-134.031 943.248L431.654 377.563L432.361 378.27Z" fill="#0530A1"/>
<path fill-rule="evenodd" clip-rule="evenodd" d="M432.361 386.27L-133.324 951.955L-134.031 951.248L431.654 385.563L432.361 386.27Z" fill="#0530A1"/>
<path fill-rule="evenodd" clip-rule="evenodd" d="M432.361 394.27L-133.324 959.955L-134.031 959.248L431.654 393.562L432.361 394.27Z" fill="#0530A1"/>
<path fill-rule="evenodd" clip-rule="evenodd" d="M432.361 402.27L-133.324 967.955L-134.031 967.248L431.654 401.562L432.361 402.27Z" fill="#0530A1"/>
<path fill-rule="evenodd" clip-rule="evenodd" d="M432.361 410.27L-133.324 975.955L-134.031 975.248L431.654 409.562L432.361 410.27Z" fill="#0530A1"/>
<path fill-rule="evenodd" clip-rule="evenodd" d="M432.361 418.27L-133.324 983.955L-134.031 983.248L431.654 417.562L432.361 418.27Z" fill="#0530A1"/>
<path fill-rule="evenodd" clip-rule="evenodd" d="M432.361 426.27L-133.324 991.955L-134.031 991.248L431.654 425.562L432.361 426.27Z" fill="#0530A1"/>
<path fill-rule="evenodd" clip-rule="evenodd" d="M432.361 434.27L-133.324 999.955L-134.031 999.248L431.654 433.562L432.361 434.27Z" fill="#0530A1"/>
<path fill-rule="evenodd" clip-rule="evenodd" d="M432.361 442.27L-133.324 1007.96L-134.031 1007.25L431.654 441.562L432.361 442.27Z" fill="#0530A1"/>
<path fill-rule="evenodd" clip-rule="evenodd" d="M432.361 450.27L-133.324 1015.96L-134.031 1015.25L431.654 449.562L432.361 450.27Z" fill="#0530A1"/>
<path fill-rule="evenodd" clip-rule="evenodd" d="M432.361 458.27L-133.324 1023.96L-134.031 1023.25L431.654 457.562L432.361 458.27Z" fill="#0530A1"/>
<path fill-rule="evenodd" clip-rule="evenodd" d="M432.361 466.27L-133.324 1031.96L-134.031 1031.25L431.654 465.562L432.361 466.27Z" fill="#0530A1"/>
<path fill-rule="evenodd" clip-rule="evenodd" d="M432.361 474.27L-133.324 1039.96L-134.031 1039.25L431.654 473.562L432.361 474.27Z" fill="#0530A1"/>
<path fill-rule="evenodd" clip-rule="evenodd" d="M432.361 482.27L-133.324 1047.96L-134.031 1047.25L431.654 481.562L432.361 482.27Z" fill="#0530A1"/>
<path fill-rule="evenodd" clip-rule="evenodd" d="M432.361 490.27L-133.324 1055.96L-134.031 1055.25L431.654 489.562L432.361 490.27Z" fill="#0530A1"/>
<path fill-rule="evenodd" clip-rule="evenodd" d="M432.361 498.27L-133.324 1063.96L-134.031 1063.25L431.654 497.562L432.361 498.27Z" fill="#0530A1"/>
<path fill-rule="evenodd" clip-rule="evenodd" d="M432.361 506.27L-133.324 1071.96L-134.031 1071.25L431.654 505.562L432.361 506.27Z" fill="#0530A1"/>
</g>
</g>
<g clip-path="url(#clip3_1159_8355)">
<g clip-path="url(#clip4_1159_8355)">
<rect x="180.305" y="219.938" width="55.3412" height="113.062" fill="#0530A1"/>
</g>
</g>
<g clip-path="url(#clip5_1159_8355)">
<g clip-path="url(#clip6_1159_8355)">
<rect x="239.254" y="132.188" width="55.3412" height="200.812" fill="#0530A1"/>
</g>
</g>
<g clip-path="url(#clip7_1159_8355)">
<g clip-path="url(#clip8_1159_8355)">
<rect x="298.57" y="9" width="55.1429" height="324" fill="#0530A1"/>
</g>
</g>
<g clip-path="url(#clip9_1159_8355)">
<g clip-path="url(#clip10_1159_8355)">
<rect x="357.535" y="108.562" width="55.3412" height="224.438" fill="#0530A1"/>
</g>
</g>
<g clip-path="url(#clip11_1159_8355)">
<path fill-rule="evenodd" clip-rule="evenodd" d="M728.268 -570.605L162.582 -4.91998L161.875 -5.62708L727.56 -571.312L728.268 -570.605Z" fill="#0530A1"/>
<path fill-rule="evenodd" clip-rule="evenodd" d="M728.268 -562.605L162.582 3.08002L161.875 2.37292L727.56 -563.312L728.268 -562.605Z" fill="#0530A1"/>
<path fill-rule="evenodd" clip-rule="evenodd" d="M728.268 -554.605L162.582 11.08L161.875 10.3729L727.56 -555.313L728.268 -554.605Z" fill="#0530A1"/>
<path fill-rule="evenodd" clip-rule="evenodd" d="M728.268 -546.605L162.582 19.08L161.875 18.3729L727.56 -547.312L728.268 -546.605Z" fill="#0530A1"/>
<path fill-rule="evenodd" clip-rule="evenodd" d="M728.268 -538.605L162.582 27.08L161.875 26.3729L727.56 -539.312L728.268 -538.605Z" fill="#0530A1"/>
<path fill-rule="evenodd" clip-rule="evenodd" d="M728.268 -530.605L162.582 35.08L161.875 34.3729L727.56 -531.312L728.268 -530.605Z" fill="#0530A1"/>
<path fill-rule="evenodd" clip-rule="evenodd" d="M728.268 -522.605L162.582 43.08L161.875 42.3729L727.56 -523.312L728.268 -522.605Z" fill="#0530A1"/>
<path fill-rule="evenodd" clip-rule="evenodd" d="M728.268 -514.605L162.582 51.08L161.875 50.3729L727.56 -515.312L728.268 -514.605Z" fill="#0530A1"/>
<path fill-rule="evenodd" clip-rule="evenodd" d="M728.268 -506.605L162.582 59.08L161.875 58.3729L727.56 -507.312L728.268 -506.605Z" fill="#0530A1"/>
<path fill-rule="evenodd" clip-rule="evenodd" d="M728.268 -498.605L162.582 67.08L161.875 66.3729L727.56 -499.312L728.268 -498.605Z" fill="#0530A1"/>
<path fill-rule="evenodd" clip-rule="evenodd" d="M728.268 -490.605L162.582 75.08L161.875 74.3729L727.56 -491.312L728.268 -490.605Z" fill="#0530A1"/>
<path fill-rule="evenodd" clip-rule="evenodd" d="M728.268 -482.605L162.582 83.08L161.875 82.3729L727.56 -483.312L728.268 -482.605Z" fill="#0530A1"/>
<path fill-rule="evenodd" clip-rule="evenodd" d="M728.268 -474.605L162.582 91.08L161.875 90.3729L727.56 -475.312L728.268 -474.605Z" fill="#0530A1"/>
<path fill-rule="evenodd" clip-rule="evenodd" d="M728.268 -466.605L162.582 99.08L161.875 98.3729L727.56 -467.312L728.268 -466.605Z" fill="#0530A1"/>
<path fill-rule="evenodd" clip-rule="evenodd" d="M728.268 -458.605L162.582 107.08L161.875 106.373L727.56 -459.312L728.268 -458.605Z" fill="#0530A1"/>
<path fill-rule="evenodd" clip-rule="evenodd" d="M728.268 -450.605L162.582 115.08L161.875 114.373L727.56 -451.312L728.268 -450.605Z" fill="#0530A1"/>
<path fill-rule="evenodd" clip-rule="evenodd" d="M728.268 -442.605L162.582 123.08L161.875 122.373L727.56 -443.312L728.268 -442.605Z" fill="#0530A1"/>
<path fill-rule="evenodd" clip-rule="evenodd" d="M728.268 -434.605L162.582 131.08L161.875 130.373L727.56 -435.312L728.268 -434.605Z" fill="#0530A1"/>
<path fill-rule="evenodd" clip-rule="evenodd" d="M728.268 -426.605L162.582 139.08L161.875 138.373L727.56 -427.312L728.268 -426.605Z" fill="#0530A1"/>
<path fill-rule="evenodd" clip-rule="evenodd" d="M728.268 -418.605L162.582 147.08L161.875 146.373L727.56 -419.312L728.268 -418.605Z" fill="#0530A1"/>
<path fill-rule="evenodd" clip-rule="evenodd" d="M728.268 -410.605L162.582 155.08L161.875 154.373L727.56 -411.312L728.268 -410.605Z" fill="#0530A1"/>
<path fill-rule="evenodd" clip-rule="evenodd" d="M728.268 -402.605L162.582 163.08L161.875 162.373L727.56 -403.312L728.268 -402.605Z" fill="#0530A1"/>
<path fill-rule="evenodd" clip-rule="evenodd" d="M728.268 -394.605L162.582 171.08L161.875 170.373L727.56 -395.312L728.268 -394.605Z" fill="#0530A1"/>
<path fill-rule="evenodd" clip-rule="evenodd" d="M728.268 -386.605L162.582 179.08L161.875 178.373L727.56 -387.312L728.268 -386.605Z" fill="#0530A1"/>
<path fill-rule="evenodd" clip-rule="evenodd" d="M728.268 -378.605L162.582 187.08L161.875 186.373L727.56 -379.312L728.268 -378.605Z" fill="#0530A1"/>
<path fill-rule="evenodd" clip-rule="evenodd" d="M728.268 -370.605L162.582 195.08L161.875 194.373L727.56 -371.312L728.268 -370.605Z" fill="#0530A1"/>
<path fill-rule="evenodd" clip-rule="evenodd" d="M728.268 -362.605L162.582 203.08L161.875 202.373L727.56 -363.312L728.268 -362.605Z" fill="#0530A1"/>
<path fill-rule="evenodd" clip-rule="evenodd" d="M728.268 -354.605L162.582 211.08L161.875 210.373L727.56 -355.312L728.268 -354.605Z" fill="#0530A1"/>
<path fill-rule="evenodd" clip-rule="evenodd" d="M728.268 -346.605L162.582 219.08L161.875 218.373L727.56 -347.312L728.268 -346.605Z" fill="#0530A1"/>
<path fill-rule="evenodd" clip-rule="evenodd" d="M728.268 -338.605L162.582 227.08L161.875 226.373L727.56 -339.312L728.268 -338.605Z" fill="#0530A1"/>
<path fill-rule="evenodd" clip-rule="evenodd" d="M728.268 -330.605L162.582 235.08L161.875 234.373L727.56 -331.312L728.268 -330.605Z" fill="#0530A1"/>
<path fill-rule="evenodd" clip-rule="evenodd" d="M728.268 -322.605L162.582 243.08L161.875 242.373L727.56 -323.312L728.268 -322.605Z" fill="#0530A1"/>
<path fill-rule="evenodd" clip-rule="evenodd" d="M728.268 -314.605L162.582 251.08L161.875 250.373L727.56 -315.312L728.268 -314.605Z" fill="#0530A1"/>
<path fill-rule="evenodd" clip-rule="evenodd" d="M728.268 -306.605L162.582 259.08L161.875 258.373L727.56 -307.312L728.268 -306.605Z" fill="#0530A1"/>
<path fill-rule="evenodd" clip-rule="evenodd" d="M728.268 -298.605L162.582 267.08L161.875 266.373L727.56 -299.312L728.268 -298.605Z" fill="#0530A1"/>
<path fill-rule="evenodd" clip-rule="evenodd" d="M728.268 -290.605L162.582 275.08L161.875 274.373L727.56 -291.312L728.268 -290.605Z" fill="#0530A1"/>
<path fill-rule="evenodd" clip-rule="evenodd" d="M728.268 -282.605L162.582 283.08L161.875 282.373L727.56 -283.312L728.268 -282.605Z" fill="#0530A1"/>
<path fill-rule="evenodd" clip-rule="evenodd" d="M728.268 -274.605L162.582 291.08L161.875 290.373L727.56 -275.312L728.268 -274.605Z" fill="#0530A1"/>
<path fill-rule="evenodd" clip-rule="evenodd" d="M728.268 -266.605L162.582 299.08L161.875 298.373L727.56 -267.312L728.268 -266.605Z" fill="#0530A1"/>
<path fill-rule="evenodd" clip-rule="evenodd" d="M728.268 -258.605L162.582 307.08L161.875 306.373L727.56 -259.312L728.268 -258.605Z" fill="#0530A1"/>
<path fill-rule="evenodd" clip-rule="evenodd" d="M728.268 -250.605L162.582 315.08L161.875 314.373L727.56 -251.312L728.268 -250.605Z" fill="#0530A1"/>
<path fill-rule="evenodd" clip-rule="evenodd" d="M728.268 -242.605L162.582 323.08L161.875 322.373L727.56 -243.312L728.268 -242.605Z" fill="#0530A1"/>
<path fill-rule="evenodd" clip-rule="evenodd" d="M728.268 -234.605L162.582 331.08L161.875 330.373L727.56 -235.312L728.268 -234.605Z" fill="#0530A1"/>
<path fill-rule="evenodd" clip-rule="evenodd" d="M728.268 -226.605L162.582 339.08L161.875 338.373L727.56 -227.312L728.268 -226.605Z" fill="#0530A1"/>
<path fill-rule="evenodd" clip-rule="evenodd" d="M728.268 -218.605L162.582 347.08L161.875 346.373L727.56 -219.312L728.268 -218.605Z" fill="#0530A1"/>
<path fill-rule="evenodd" clip-rule="evenodd" d="M728.268 -210.605L162.582 355.08L161.875 354.373L727.56 -211.312L728.268 -210.605Z" fill="#0530A1"/>
<path fill-rule="evenodd" clip-rule="evenodd" d="M728.268 -202.605L162.582 363.08L161.875 362.373L727.56 -203.312L728.268 -202.605Z" fill="#0530A1"/>
<path fill-rule="evenodd" clip-rule="evenodd" d="M728.268 -194.605L162.582 371.08L161.875 370.373L727.56 -195.312L728.268 -194.605Z" fill="#0530A1"/>
<path fill-rule="evenodd" clip-rule="evenodd" d="M728.268 -186.605L162.582 379.08L161.875 378.373L727.56 -187.312L728.268 -186.605Z" fill="#0530A1"/>
<path fill-rule="evenodd" clip-rule="evenodd" d="M728.268 -178.605L162.582 387.08L161.875 386.373L727.56 -179.312L728.268 -178.605Z" fill="#0530A1"/>
<path fill-rule="evenodd" clip-rule="evenodd" d="M728.268 -170.605L162.582 395.08L161.875 394.373L727.56 -171.312L728.268 -170.605Z" fill="#0530A1"/>
<path fill-rule="evenodd" clip-rule="evenodd" d="M728.268 -162.605L162.582 403.08L161.875 402.373L727.56 -163.312L728.268 -162.605Z" fill="#0530A1"/>
<path fill-rule="evenodd" clip-rule="evenodd" d="M728.268 -154.605L162.582 411.08L161.875 410.373L727.56 -155.312L728.268 -154.605Z" fill="#0530A1"/>
<path fill-rule="evenodd" clip-rule="evenodd" d="M728.268 -146.605L162.582 419.08L161.875 418.373L727.56 -147.312L728.268 -146.605Z" fill="#0530A1"/>
<path fill-rule="evenodd" clip-rule="evenodd" d="M728.268 -138.605L162.582 427.08L161.875 426.373L727.56 -139.312L728.268 -138.605Z" fill="#0530A1"/>
<path fill-rule="evenodd" clip-rule="evenodd" d="M728.268 -130.605L162.582 435.08L161.875 434.373L727.56 -131.312L728.268 -130.605Z" fill="#0530A1"/>
<path fill-rule="evenodd" clip-rule="evenodd" d="M728.268 -122.605L162.582 443.08L161.875 442.373L727.56 -123.312L728.268 -122.605Z" fill="#0530A1"/>
<path fill-rule="evenodd" clip-rule="evenodd" d="M728.268 -114.605L162.582 451.08L161.875 450.373L727.56 -115.312L728.268 -114.605Z" fill="#0530A1"/>
<path fill-rule="evenodd" clip-rule="evenodd" d="M728.268 -106.605L162.582 459.08L161.875 458.373L727.56 -107.312L728.268 -106.605Z" fill="#0530A1"/>
<path fill-rule="evenodd" clip-rule="evenodd" d="M728.268 -98.6054L162.582 467.08L161.875 466.373L727.56 -99.3125L728.268 -98.6054Z" fill="#0530A1"/>
<path fill-rule="evenodd" clip-rule="evenodd" d="M728.268 -90.6054L162.582 475.08L161.875 474.373L727.56 -91.3125L728.268 -90.6054Z" fill="#0530A1"/>
<path fill-rule="evenodd" clip-rule="evenodd" d="M728.268 -82.6054L162.582 483.08L161.875 482.373L727.56 -83.3125L728.268 -82.6054Z" fill="#0530A1"/>
<path fill-rule="evenodd" clip-rule="evenodd" d="M728.268 -74.6054L162.582 491.08L161.875 490.373L727.56 -75.3125L728.268 -74.6054Z" fill="#0530A1"/>
<path fill-rule="evenodd" clip-rule="evenodd" d="M728.268 -66.6054L162.582 499.08L161.875 498.373L727.56 -67.3125L728.268 -66.6054Z" fill="#0530A1"/>
<path fill-rule="evenodd" clip-rule="evenodd" d="M728.268 -58.6054L162.582 507.08L161.875 506.373L727.56 -59.3125L728.268 -58.6054Z" fill="#0530A1"/>
<path fill-rule="evenodd" clip-rule="evenodd" d="M728.268 -50.6054L162.582 515.08L161.875 514.373L727.56 -51.3125L728.268 -50.6054Z" fill="#0530A1"/>
<path fill-rule="evenodd" clip-rule="evenodd" d="M728.268 -42.6054L162.582 523.08L161.875 522.373L727.56 -43.3125L728.268 -42.6054Z" fill="#0530A1"/>
<path fill-rule="evenodd" clip-rule="evenodd" d="M728.268 -34.6054L162.582 531.08L161.875 530.373L727.56 -35.3125L728.268 -34.6054Z" fill="#0530A1"/>
<path fill-rule="evenodd" clip-rule="evenodd" d="M728.268 -26.6054L162.582 539.08L161.875 538.373L727.56 -27.3125L728.268 -26.6054Z" fill="#0530A1"/>
<path fill-rule="evenodd" clip-rule="evenodd" d="M728.268 -18.6054L162.582 547.08L161.875 546.373L727.56 -19.3125L728.268 -18.6054Z" fill="#0530A1"/>
<path fill-rule="evenodd" clip-rule="evenodd" d="M728.268 -10.6054L162.582 555.08L161.875 554.373L727.56 -11.3125L728.268 -10.6054Z" fill="#0530A1"/>
<path fill-rule="evenodd" clip-rule="evenodd" d="M728.268 -2.60541L162.582 563.08L161.875 562.373L727.56 -3.3125L728.268 -2.60541Z" fill="#0530A1"/>
<path fill-rule="evenodd" clip-rule="evenodd" d="M728.268 5.39459L162.582 571.08L161.875 570.373L727.56 4.6875L728.268 5.39459Z" fill="#0530A1"/>
<path fill-rule="evenodd" clip-rule="evenodd" d="M728.268 13.3946L162.582 579.08L161.875 578.373L727.56 12.6875L728.268 13.3946Z" fill="#0530A1"/>
<path fill-rule="evenodd" clip-rule="evenodd" d="M728.268 21.3946L162.582 587.08L161.875 586.373L727.56 20.6875L728.268 21.3946Z" fill="#0530A1"/>
<path fill-rule="evenodd" clip-rule="evenodd" d="M728.268 29.3946L162.582 595.08L161.875 594.373L727.56 28.6875L728.268 29.3946Z" fill="#0530A1"/>
<path fill-rule="evenodd" clip-rule="evenodd" d="M728.268 37.3946L162.582 603.08L161.875 602.373L727.56 36.6875L728.268 37.3946Z" fill="#0530A1"/>
<path fill-rule="evenodd" clip-rule="evenodd" d="M728.268 45.3946L162.582 611.08L161.875 610.373L727.56 44.6875L728.268 45.3946Z" fill="#0530A1"/>
<path fill-rule="evenodd" clip-rule="evenodd" d="M728.268 53.3946L162.582 619.08L161.875 618.373L727.56 52.6875L728.268 53.3946Z" fill="#0530A1"/>
<path fill-rule="evenodd" clip-rule="evenodd" d="M728.268 61.3946L162.582 627.08L161.875 626.373L727.56 60.6875L728.268 61.3946Z" fill="#0530A1"/>
<path fill-rule="evenodd" clip-rule="evenodd" d="M728.268 69.3946L162.582 635.08L161.875 634.373L727.56 68.6875L728.268 69.3946Z" fill="#0530A1"/>
<path fill-rule="evenodd" clip-rule="evenodd" d="M728.268 77.3946L162.582 643.08L161.875 642.373L727.56 76.6875L728.268 77.3946Z" fill="#0530A1"/>
<path fill-rule="evenodd" clip-rule="evenodd" d="M728.268 85.3946L162.582 651.08L161.875 650.373L727.56 84.6875L728.268 85.3946Z" fill="#0530A1"/>
<path fill-rule="evenodd" clip-rule="evenodd" d="M728.268 93.3946L162.582 659.08L161.875 658.373L727.56 92.6875L728.268 93.3946Z" fill="#0530A1"/>
<path fill-rule="evenodd" clip-rule="evenodd" d="M728.268 101.395L162.582 667.08L161.875 666.373L727.56 100.688L728.268 101.395Z" fill="#0530A1"/>
<path fill-rule="evenodd" clip-rule="evenodd" d="M728.268 109.395L162.582 675.08L161.875 674.373L727.56 108.688L728.268 109.395Z" fill="#0530A1"/>
<path fill-rule="evenodd" clip-rule="evenodd" d="M728.268 117.395L162.582 683.08L161.875 682.373L727.56 116.688L728.268 117.395Z" fill="#0530A1"/>
<path fill-rule="evenodd" clip-rule="evenodd" d="M728.268 125.395L162.582 691.08L161.875 690.373L727.56 124.688L728.268 125.395Z" fill="#0530A1"/>
<path fill-rule="evenodd" clip-rule="evenodd" d="M728.268 133.395L162.582 699.08L161.875 698.373L727.56 132.688L728.268 133.395Z" fill="#0530A1"/>
<path fill-rule="evenodd" clip-rule="evenodd" d="M728.268 141.395L162.582 707.08L161.875 706.373L727.56 140.688L728.268 141.395Z" fill="#0530A1"/>
<path fill-rule="evenodd" clip-rule="evenodd" d="M728.268 149.395L162.582 715.08L161.875 714.373L727.56 148.688L728.268 149.395Z" fill="#0530A1"/>
<path fill-rule="evenodd" clip-rule="evenodd" d="M728.268 157.395L162.582 723.08L161.875 722.373L727.56 156.688L728.268 157.395Z" fill="#0530A1"/>
<path fill-rule="evenodd" clip-rule="evenodd" d="M728.268 165.395L162.582 731.08L161.875 730.373L727.56 164.688L728.268 165.395Z" fill="#0530A1"/>
<path fill-rule="evenodd" clip-rule="evenodd" d="M728.268 173.395L162.582 739.08L161.875 738.373L727.56 172.688L728.268 173.395Z" fill="#0530A1"/>
<path fill-rule="evenodd" clip-rule="evenodd" d="M728.268 181.395L162.582 747.08L161.875 746.373L727.56 180.688L728.268 181.395Z" fill="#0530A1"/>
<path fill-rule="evenodd" clip-rule="evenodd" d="M728.268 189.395L162.582 755.08L161.875 754.373L727.56 188.688L728.268 189.395Z" fill="#0530A1"/>
<path fill-rule="evenodd" clip-rule="evenodd" d="M728.268 197.395L162.582 763.08L161.875 762.373L727.56 196.688L728.268 197.395Z" fill="#0530A1"/>
<path fill-rule="evenodd" clip-rule="evenodd" d="M728.268 205.395L162.582 771.08L161.875 770.373L727.56 204.688L728.268 205.395Z" fill="#0530A1"/>
<path fill-rule="evenodd" clip-rule="evenodd" d="M728.268 213.395L162.582 779.08L161.875 778.373L727.56 212.688L728.268 213.395Z" fill="#0530A1"/>
<path fill-rule="evenodd" clip-rule="evenodd" d="M728.268 221.395L162.582 787.08L161.875 786.373L727.56 220.688L728.268 221.395Z" fill="#0530A1"/>
<path fill-rule="evenodd" clip-rule="evenodd" d="M728.268 229.395L162.582 795.08L161.875 794.373L727.56 228.688L728.268 229.395Z" fill="#0530A1"/>
<path fill-rule="evenodd" clip-rule="evenodd" d="M728.268 237.395L162.582 803.08L161.875 802.373L727.56 236.688L728.268 237.395Z" fill="#0530A1"/>
<path fill-rule="evenodd" clip-rule="evenodd" d="M728.268 245.395L162.582 811.08L161.875 810.373L727.56 244.688L728.268 245.395Z" fill="#0530A1"/>
<path fill-rule="evenodd" clip-rule="evenodd" d="M728.268 253.395L162.582 819.08L161.875 818.373L727.56 252.688L728.268 253.395Z" fill="#0530A1"/>
<path fill-rule="evenodd" clip-rule="evenodd" d="M728.268 261.395L162.582 827.08L161.875 826.373L727.56 260.688L728.268 261.395Z" fill="#0530A1"/>
<path fill-rule="evenodd" clip-rule="evenodd" d="M728.268 269.395L162.582 835.08L161.875 834.373L727.56 268.688L728.268 269.395Z" fill="#0530A1"/>
<path fill-rule="evenodd" clip-rule="evenodd" d="M728.268 277.395L162.582 843.08L161.875 842.373L727.56 276.688L728.268 277.395Z" fill="#0530A1"/>
<path fill-rule="evenodd" clip-rule="evenodd" d="M728.268 285.395L162.582 851.08L161.875 850.373L727.56 284.688L728.268 285.395Z" fill="#0530A1"/>
<path fill-rule="evenodd" clip-rule="evenodd" d="M728.268 293.395L162.582 859.08L161.875 858.373L727.56 292.688L728.268 293.395Z" fill="#0530A1"/>
<path fill-rule="evenodd" clip-rule="evenodd" d="M728.268 301.395L162.582 867.08L161.875 866.373L727.56 300.688L728.268 301.395Z" fill="#0530A1"/>
<path fill-rule="evenodd" clip-rule="evenodd" d="M728.268 309.395L162.582 875.08L161.875 874.373L727.56 308.688L728.268 309.395Z" fill="#0530A1"/>
<path fill-rule="evenodd" clip-rule="evenodd" d="M728.268 317.395L162.582 883.08L161.875 882.373L727.56 316.688L728.268 317.395Z" fill="#0530A1"/>
<path fill-rule="evenodd" clip-rule="evenodd" d="M728.268 325.395L162.582 891.08L161.875 890.373L727.56 324.688L728.268 325.395Z" fill="#0530A1"/>
<path fill-rule="evenodd" clip-rule="evenodd" d="M728.268 333.395L162.582 899.08L161.875 898.373L727.56 332.688L728.268 333.395Z" fill="#0530A1"/>
<path fill-rule="evenodd" clip-rule="evenodd" d="M728.268 341.395L162.582 907.08L161.875 906.373L727.56 340.688L728.268 341.395Z" fill="#0530A1"/>
<path fill-rule="evenodd" clip-rule="evenodd" d="M728.268 349.395L162.582 915.08L161.875 914.373L727.56 348.688L728.268 349.395Z" fill="#0530A1"/>
<path fill-rule="evenodd" clip-rule="evenodd" d="M728.268 357.395L162.582 923.08L161.875 922.373L727.56 356.688L728.268 357.395Z" fill="#0530A1"/>
<path fill-rule="evenodd" clip-rule="evenodd" d="M728.268 365.395L162.582 931.08L161.875 930.373L727.56 364.688L728.268 365.395Z" fill="#0530A1"/>
<path fill-rule="evenodd" clip-rule="evenodd" d="M728.268 373.395L162.582 939.08L161.875 938.373L727.56 372.688L728.268 373.395Z" fill="#0530A1"/>
<path fill-rule="evenodd" clip-rule="evenodd" d="M728.268 381.395L162.582 947.08L161.875 946.373L727.56 380.688L728.268 381.395Z" fill="#0530A1"/>
<path fill-rule="evenodd" clip-rule="evenodd" d="M728.268 389.395L162.582 955.08L161.875 954.373L727.56 388.688L728.268 389.395Z" fill="#0530A1"/>
<path fill-rule="evenodd" clip-rule="evenodd" d="M728.268 397.395L162.582 963.08L161.875 962.373L727.56 396.688L728.268 397.395Z" fill="#0530A1"/>
<path fill-rule="evenodd" clip-rule="evenodd" d="M728.268 405.395L162.582 971.08L161.875 970.373L727.56 404.688L728.268 405.395Z" fill="#0530A1"/>
<path fill-rule="evenodd" clip-rule="evenodd" d="M728.268 413.395L162.582 979.08L161.875 978.373L727.56 412.688L728.268 413.395Z" fill="#0530A1"/>
<path fill-rule="evenodd" clip-rule="evenodd" d="M728.268 421.395L162.582 987.08L161.875 986.373L727.56 420.688L728.268 421.395Z" fill="#0530A1"/>
<path fill-rule="evenodd" clip-rule="evenodd" d="M728.268 429.395L162.582 995.08L161.875 994.373L727.56 428.688L728.268 429.395Z" fill="#0530A1"/>
<path fill-rule="evenodd" clip-rule="evenodd" d="M728.268 437.395L162.582 1003.08L161.875 1002.37L727.56 436.688L728.268 437.395Z" fill="#0530A1"/>
<path fill-rule="evenodd" clip-rule="evenodd" d="M728.268 445.395L162.582 1011.08L161.875 1010.37L727.56 444.688L728.268 445.395Z" fill="#0530A1"/>
<path fill-rule="evenodd" clip-rule="evenodd" d="M728.268 453.395L162.582 1019.08L161.875 1018.37L727.56 452.688L728.268 453.395Z" fill="#0530A1"/>
<path fill-rule="evenodd" clip-rule="evenodd" d="M728.268 461.395L162.582 1027.08L161.875 1026.37L727.56 460.688L728.268 461.395Z" fill="#0530A1"/>
<path fill-rule="evenodd" clip-rule="evenodd" d="M728.268 469.395L162.582 1035.08L161.875 1034.37L727.56 468.688L728.268 469.395Z" fill="#0530A1"/>
<path fill-rule="evenodd" clip-rule="evenodd" d="M728.268 477.395L162.582 1043.08L161.875 1042.37L727.56 476.688L728.268 477.395Z" fill="#0530A1"/>
<path fill-rule="evenodd" clip-rule="evenodd" d="M728.268 485.395L162.582 1051.08L161.875 1050.37L727.56 484.688L728.268 485.395Z" fill="#0530A1"/>
<path fill-rule="evenodd" clip-rule="evenodd" d="M728.268 493.395L162.582 1059.08L161.875 1058.37L727.56 492.688L728.268 493.395Z" fill="#0530A1"/>
<path fill-rule="evenodd" clip-rule="evenodd" d="M728.268 501.395L162.582 1067.08L161.875 1066.37L727.56 500.688L728.268 501.395Z" fill="#0530A1"/>
<path fill-rule="evenodd" clip-rule="evenodd" d="M728.268 509.395L162.582 1075.08L161.875 1074.37L727.56 508.688L728.268 509.395Z" fill="#0530A1"/>
<path fill-rule="evenodd" clip-rule="evenodd" d="M728.268 517.395L162.582 1083.08L161.875 1082.37L727.56 516.688L728.268 517.395Z" fill="#0530A1"/>
<path fill-rule="evenodd" clip-rule="evenodd" d="M728.268 525.395L162.582 1091.08L161.875 1090.37L727.56 524.688L728.268 525.395Z" fill="#0530A1"/>
<path fill-rule="evenodd" clip-rule="evenodd" d="M728.268 533.395L162.582 1099.08L161.875 1098.37L727.56 532.688L728.268 533.395Z" fill="#0530A1"/>
<path fill-rule="evenodd" clip-rule="evenodd" d="M728.268 541.395L162.582 1107.08L161.875 1106.37L727.56 540.688L728.268 541.395Z" fill="#0530A1"/>
<path fill-rule="evenodd" clip-rule="evenodd" d="M728.268 549.395L162.582 1115.08L161.875 1114.37L727.56 548.688L728.268 549.395Z" fill="#0530A1"/>
<path fill-rule="evenodd" clip-rule="evenodd" d="M728.268 557.395L162.582 1123.08L161.875 1122.37L727.56 556.688L728.268 557.395Z" fill="#0530A1"/>
<path fill-rule="evenodd" clip-rule="evenodd" d="M728.268 565.395L162.582 1131.08L161.875 1130.37L727.56 564.688L728.268 565.395Z" fill="#0530A1"/>
</g>
<defs>
<clipPath id="clip0_1159_8355">
<path d="M62.2188 240.5C62.2188 239.395 63.1142 238.5 64.2188 238.5H114.965C116.069 238.5 116.965 239.395 116.965 240.5V333H62.2188V240.5Z" fill="white"/>
</clipPath>
<clipPath id="clip1_1159_8355">
<rect width="55.1429" height="324" fill="white" transform="translate(121.145 9)"/>
</clipPath>
<clipPath id="clip2_1159_8355">
<path d="M120.969 110.563C120.969 109.458 121.864 108.562 122.969 108.562H174.31C175.415 108.562 176.31 109.458 176.31 110.562V333H120.969V110.563Z" fill="white"/>
</clipPath>
<clipPath id="clip3_1159_8355">
<rect width="55.1429" height="324" fill="white" transform="translate(180.285 9)"/>
</clipPath>
<clipPath id="clip4_1159_8355">
<path d="M180.305 221.938C180.305 220.833 181.2 219.938 182.305 219.938H233.646C234.75 219.938 235.646 220.833 235.646 221.937V333H180.305V221.938Z" fill="white"/>
</clipPath>
<clipPath id="clip5_1159_8355">
<rect width="55.1429" height="324" fill="white" transform="translate(239.43 9)"/>
</clipPath>
<clipPath id="clip6_1159_8355">
<path d="M239.254 134.187C239.254 133.083 240.149 132.188 241.254 132.188H292.595C293.7 132.188 294.595 133.083 294.595 134.188V333H239.254V134.187Z" fill="white"/>
</clipPath>
<clipPath id="clip7_1159_8355">
<rect width="55.1429" height="324" fill="white" transform="translate(298.57 9)"/>
</clipPath>
<clipPath id="clip8_1159_8355">
<path d="M298.57 11C298.57 9.89543 299.466 9 300.57 9H351.713C352.818 9 353.713 9.89543 353.713 11V333H298.57V11Z" fill="white"/>
</clipPath>
<clipPath id="clip9_1159_8355">
<rect width="55.1429" height="324" fill="white" transform="translate(357.715 9)"/>
</clipPath>
<clipPath id="clip10_1159_8355">
<path d="M357.535 110.563C357.535 109.458 358.431 108.562 359.535 108.562H410.876C411.981 108.562 412.876 109.458 412.876 110.562V333H357.535V110.563Z" fill="white"/>
</clipPath>
<clipPath id="clip11_1159_8355">
<path d="M416.875 228.688C416.875 227.583 417.77 226.688 418.875 226.688H470.216C471.321 226.688 472.216 227.583 472.216 228.687V333H416.875V228.688Z" fill="white"/>
</clipPath>
</defs>
</svg>
