<svg width="18" height="18" viewBox="0 0 18 18" fill="none" xmlns="http://www.w3.org/2000/svg">
<path fill-rule="evenodd" clip-rule="evenodd" d="M12.0547 1.34749C12.9175 0.484674 14.3164 0.484673 15.1792 1.34749L16.7586 2.92702C17.6214 3.78984 17.6214 5.18875 16.7586 6.05157L7.16872 15.6414C6.70125 16.1089 6.11207 16.4359 5.46808 16.5854L1.89714 17.2712C1.10542 17.4549 0.409804 16.7163 0.640574 15.937L1.565 12.4432C1.73231 11.8782 2.03822 11.364 2.45489 10.9473L12.0547 1.34749ZM13.9294 2.59732C13.7568 2.42475 13.4771 2.42475 13.3045 2.59732L12.1847 3.71715L13.2131 4.80745L14.3581 5.95245L15.5088 4.80175C15.6813 4.62919 15.6813 4.3494 15.5088 4.17684L13.9294 2.59732ZM13.1083 7.20227L11.9435 6.03749L10.9342 4.9676L3.70472 12.1971C3.49638 12.4054 3.34343 12.6626 3.25977 12.9451L2.67997 15.2751L5.06858 14.8636C5.39057 14.7889 5.68516 14.6254 5.9189 14.3916L13.1083 7.20227Z" fill="#272D37"/>
</svg>
