<svg width="216" height="70" viewBox="0 0 216 70" fill="none" xmlns="http://www.w3.org/2000/svg">
<path d="M40.0096 51.4811C28.0264 52.3801 27.2661 59.8681 19.7855 62.0188C12.305 64.1694 1.33203 57.8999 1.33203 57.8999V68.8381H214.059V41.1529C207.373 43.3013 204.476 53.5843 194.776 56.4679C185.076 59.3515 188.523 42.9663 180.424 34.8567C172.326 26.7471 165.935 47.4918 156.042 46.0984C146.149 44.7049 144.385 53.361 137.163 51.694C129.941 50.027 125.644 41.0368 117.365 38.2882C109.085 35.5397 106.033 12.4001 98.026 7.34143C90.0185 2.28279 86.7551 24.8887 78.6872 25.8832C70.6193 26.8777 66.1472 9.89415 59.3484 12.4001C52.5496 14.906 51.9928 50.5821 40.0096 51.4811Z" fill="url(#paint0_linear_701_13044)"/>
<path d="M1.33203 57.9218C3.27635 58.9485 12.1065 64.1406 20.0233 61.8645C27.9401 59.5885 28.1486 51.4811 40.0096 51.4811C51.8707 51.4811 52.5496 14.906 59.3484 12.4001C66.1472 9.89415 70.6193 26.8777 78.6872 25.8832C86.7551 24.8887 90.0185 2.28279 98.026 7.34143C106.033 12.4001 109.085 35.5397 117.365 38.2882C125.644 41.0368 129.142 49.8141 136.364 51.4811C143.585 53.1481 144.304 46.0984 156.042 46.0984C167.78 46.0984 172.401 26.8284 180.499 34.938C188.597 43.0476 185.02 59.4373 194.72 56.5537C204.42 53.6702 206.555 43.8463 214.059 41.2733" stroke="#5DC264" stroke-width="2" stroke-linecap="round" stroke-linejoin="round"/>
<defs>
<linearGradient id="paint0_linear_701_13044" x1="107.695" y1="6.60449" x2="107.695" y2="68.8381" gradientUnits="userSpaceOnUse">
<stop stop-color="#F04438" stop-opacity="0.3"/>
<stop offset="0.0001" stop-color="#5DC264" stop-opacity="0.3"/>
<stop offset="1" stop-color="white" stop-opacity="0"/>
</linearGradient>
</defs>
</svg>
