<svg width="36" height="36" viewBox="0 0 36 36" fill="none" xmlns="http://www.w3.org/2000/svg">
<path fill-rule="evenodd" clip-rule="evenodd" d="M5.74651 5.76824C6.40482 5.11009 7.47202 5.11022 8.13018 5.76853L17.937 15.6824L27.8723 5.7436C28.5303 5.08507 29.5975 5.08459 30.256 5.74252C30.9146 6.40046 30.915 7.46766 30.2571 8.12619L20.3203 18.0664L30.2326 27.8735C30.8907 28.5318 30.8906 29.599 30.2323 30.2572C29.574 30.9153 28.5067 30.9152 27.8486 30.2569L17.9377 20.4511L8.1284 30.2558C7.47046 30.9144 6.40326 30.9148 5.74473 30.2569C5.0862 29.599 5.08572 28.5318 5.74365 27.8732L15.5544 18.0672L5.74621 8.15191C5.08806 7.49359 5.0882 6.42639 5.74651 5.76824Z" fill="#121212"/>
</svg>
