<svg width="20" height="20" viewBox="0 0 20 20" fill="none" xmlns="http://www.w3.org/2000/svg">
<path fill-rule="evenodd" clip-rule="evenodd" d="M8.57637 5.46822C8.15094 5.04279 7.40718 4.61509 6.03497 4.95824C4.65803 5.30256 3.64224 6.32847 3.30484 7.59339C2.97369 8.83485 3.27332 10.4112 4.75617 11.8938L9.41248 16.5494C9.73803 16.8749 10.2637 16.8748 10.5892 16.5491C11.6348 15.5028 13.2964 13.8404 15.2429 11.8939C16.725 10.4118 17.0248 8.83535 16.6937 7.59365C16.3564 6.32859 15.3408 5.30255 13.9636 4.95825C12.5909 4.61506 11.8471 5.04284 11.4217 5.46822C11.189 5.7009 11.0288 5.95888 10.9267 6.16311C10.8764 6.26381 10.8422 6.34735 10.8217 6.40205C10.8115 6.42926 10.8048 6.44893 10.8013 6.45954L10.7986 6.46794C10.6945 6.82249 10.3691 7.06644 9.99913 7.06646C9.62912 7.06648 9.30368 6.82259 9.19954 6.46805L9.19685 6.45963C9.19338 6.44902 9.18671 6.42935 9.1765 6.40213C9.15598 6.34742 9.12177 6.26388 9.0714 6.16316C8.96926 5.95892 8.80907 5.70092 8.57637 5.46822ZM9.99903 4.55655C10.0739 4.46723 10.1551 4.37779 10.2432 4.2897C11.0678 3.46508 12.4073 2.85119 14.3679 3.34134C16.3239 3.83037 17.8082 5.30433 18.3041 7.16427C18.8063 9.04758 18.2726 11.2212 16.4214 13.0724C14.475 15.0187 12.8136 16.681 11.7681 17.7272C10.7919 18.7041 9.21073 18.7045 8.23406 17.728L3.57776 13.0724C1.72582 11.2208 1.19212 9.04715 1.69447 7.16384C2.19057 5.304 3.67509 3.83037 5.63064 3.34135C7.59091 2.85116 8.93029 3.46513 9.75488 4.2897C9.84296 4.37779 9.92421 4.46723 9.99903 4.55655Z" fill="#344054"/>
</svg>
