<svg width="20" height="18" viewBox="0 0 20 18" fill="none" xmlns="http://www.w3.org/2000/svg">
<path d="M12.7433 12.9226C13.0687 13.2481 13.5964 13.2481 13.9218 12.9226C14.2473 12.5972 14.2473 12.0695 13.9218 11.7441L12.7433 12.9226ZM9.99924 9.00003L10.5885 8.41077C10.2631 8.08533 9.73542 8.08533 9.40998 8.41077L9.99924 9.00003ZM6.07665 11.7441C5.75121 12.0695 5.75121 12.5972 6.07665 12.9226C6.40208 13.2481 6.92972 13.2481 7.25516 12.9226L6.07665 11.7441ZM9.1659 16.5C9.1659 16.9603 9.539 17.3334 9.99924 17.3334C10.4595 17.3334 10.8326 16.9603 10.8326 16.5H9.1659ZM16.592 13.5934C16.1879 13.8137 16.0389 14.3198 16.2592 14.7239C16.4795 15.128 16.9857 15.277 17.3898 15.0567L16.592 13.5934ZM14.9992 6.50003L14.9998 5.66669H14.9992V6.50003ZM13.9492 6.50003L13.1424 6.70862C13.2375 7.07642 13.5693 7.33336 13.9492 7.33336V6.50003ZM1.87479 13.1352C2.17956 13.4801 2.70619 13.5126 3.05106 13.2078C3.39593 12.903 3.42845 12.3764 3.12368 12.0315L1.87479 13.1352ZM13.9218 11.7441L10.5885 8.41077L9.40998 9.58928L12.7433 12.9226L13.9218 11.7441ZM9.40998 8.41077L6.07665 11.7441L7.25516 12.9226L10.5885 9.58928L9.40998 8.41077ZM9.1659 9.00003V16.5H10.8326V9.00003H9.1659ZM17.3898 15.0567C18.3651 14.525 19.1356 13.6836 19.5797 12.6653L18.0519 11.9991C17.7559 12.6779 17.2422 13.2389 16.592 13.5934L17.3898 15.0567ZM19.5797 12.6653C20.0237 11.6471 20.116 10.5099 19.842 9.43338L18.2268 9.84449C18.4095 10.5622 18.348 11.3203 18.0519 11.9991L19.5797 12.6653ZM19.842 9.43338C19.568 8.35684 18.9433 7.40221 18.0665 6.72014L17.0431 8.03566C17.6277 8.49037 18.0441 9.12679 18.2268 9.84449L19.842 9.43338ZM18.0665 6.72014C17.1896 6.03808 16.1106 5.66743 14.9998 5.66669L14.9987 7.33336C15.7393 7.33385 16.4586 7.58095 17.0431 8.03566L18.0665 6.72014ZM14.9992 5.66669H13.9492V7.33336H14.9992V5.66669ZM14.756 6.29144C14.4723 5.19385 13.9434 4.17488 13.2091 3.31112L11.9393 4.39059C12.5104 5.0624 12.9217 5.85494 13.1424 6.70862L14.756 6.29144ZM13.2091 3.31112C12.4749 2.44736 11.5543 1.7613 10.5168 1.30451L9.84521 2.82989C10.6522 3.18517 11.3682 3.71878 11.9393 4.39059L13.2091 3.31112ZM10.5168 1.30451C9.47918 0.847717 8.35156 0.632087 7.21865 0.673828L7.28001 2.33936C8.16116 2.3069 9.03821 2.47461 9.84521 2.82989L10.5168 1.30451ZM7.21865 0.673828C6.08574 0.715569 4.97704 1.01359 3.97589 1.5455L4.75787 3.01733C5.53654 2.60363 6.39887 2.37183 7.28001 2.33936L7.21865 0.673828ZM3.97589 1.5455C2.97475 2.0774 2.10721 2.82935 1.4385 3.7448L2.78434 4.7279C3.30445 4.01588 3.9792 3.43103 4.75787 3.01733L3.97589 1.5455ZM1.4385 3.7448C0.769789 4.66024 0.317312 5.71538 0.115083 6.83087L1.75502 7.12818C1.91231 6.26057 2.26423 5.43991 2.78434 4.7279L1.4385 3.7448ZM0.115083 6.83087C-0.0871449 7.94636 -0.0338616 9.09318 0.270927 10.1851L1.87623 9.73703C1.63917 8.88775 1.59773 7.99578 1.75502 7.12818L0.115083 6.83087ZM0.270927 10.1851C0.575716 11.2771 1.12408 12.2857 1.87479 13.1352L3.12368 12.0315C2.53979 11.3708 2.11329 10.5863 1.87623 9.73703L0.270927 10.1851Z" fill="#475467"/>
</svg>
