<svg width="500" height="50" viewBox="0 0 500 50" fill="none" xmlns="http://www.w3.org/2000/svg">
<line x1="62.5" y1="24.5" x2="437.5" y2="24.5" stroke="black" stroke-linecap="round" stroke-dasharray="5 5"/>
<circle cx="475" cy="25" r="24.5" stroke="#4D4D4D" stroke-opacity="0.7"/>
<path d="M471.448 29.912L475.576 25.528C475.917 25.1653 476.195 24.84 476.408 24.552C476.621 24.264 476.776 23.992 476.872 23.736C476.968 23.48 477.016 23.2187 477.016 22.952C477.016 22.4507 476.851 22.0613 476.52 21.784C476.2 21.496 475.789 21.352 475.288 21.352C474.755 21.352 474.285 21.4853 473.88 21.752C473.475 22.0187 473.112 22.4347 472.792 23L471.512 21.944C471.949 21.1867 472.488 20.616 473.128 20.232C473.768 19.8373 474.509 19.64 475.352 19.64C476.045 19.64 476.653 19.7787 477.176 20.056C477.699 20.3333 478.104 20.7227 478.392 21.224C478.68 21.7147 478.824 22.2853 478.824 22.936C478.824 23.4053 478.765 23.8267 478.648 24.2C478.541 24.5627 478.355 24.9307 478.088 25.304C477.821 25.6667 477.453 26.0933 476.984 26.584L473.816 29.864L471.448 29.912ZM471.448 31V29.912L473.032 29.352H479.048V31H471.448Z" fill="#4D4D4D" fill-opacity="0.7"/>
<circle cx="25" cy="25" r="25" fill="#0530A1"/>
<path d="M24.656 31V19.8H26.464V31H24.656ZM22.416 21.448V19.8H26.304V21.448H22.416Z" fill="white"/>
</svg>
