<svg width="14" height="18" viewBox="0 0 14 18" fill="none" xmlns="http://www.w3.org/2000/svg">
<path d="M2.24278 6.256C2.56821 6.58144 3.09585 6.58144 3.42129 6.256L6.16536 3.51193V11.5001C6.16536 11.9603 6.53846 12.3334 6.9987 12.3334C7.45894 12.3334 7.83203 11.9603 7.83203 11.5001V3.51193L10.5761 6.256C10.9015 6.58144 11.4292 6.58144 11.7546 6.256C12.0801 5.93057 12.0801 5.40293 11.7546 5.07749L7.58795 0.910825C7.50806 0.830928 7.41597 0.770647 7.31768 0.72998C7.21943 0.689236 7.11169 0.666748 6.9987 0.666748C6.78543 0.666748 6.57216 0.748107 6.40944 0.910825L2.24278 5.07749C1.91734 5.40293 1.91734 5.93057 2.24278 6.256Z" fill="white"/>
<path d="M1.9987 12.3334C1.9987 11.8732 1.6256 11.5001 1.16536 11.5001C0.705127 11.5001 0.332031 11.8732 0.332031 12.3334V14.8334C0.332031 16.2141 1.45132 17.3334 2.83203 17.3334H11.1654C12.5461 17.3334 13.6654 16.2141 13.6654 14.8334V12.3334C13.6654 11.8732 13.2923 11.5001 12.832 11.5001C12.3718 11.5001 11.9987 11.8732 11.9987 12.3334V14.8334C11.9987 15.2937 11.6256 15.6667 11.1654 15.6667H2.83203C2.37179 15.6667 1.9987 15.2937 1.9987 14.8334V12.3334Z" fill="white"/>
</svg>
