<svg width="22" height="28" viewBox="0 0 22 28" fill="none" xmlns="http://www.w3.org/2000/svg">
<path d="M3.38922 9.60956C3.90992 10.1303 4.75414 10.1303 5.27484 9.60956L9.66536 5.21903V18.0001C9.66536 18.7365 10.2623 19.3334 10.9987 19.3334C11.7351 19.3334 12.332 18.7365 12.332 18.0001V5.21903L16.7226 9.60956C17.2433 10.1303 18.0875 10.1303 18.6082 9.60956C19.1289 9.08886 19.1289 8.24464 18.6082 7.72394L11.9415 1.05727C11.8137 0.929437 11.6663 0.832986 11.5091 0.76792C11.3519 0.702729 11.1795 0.666748 10.9987 0.666748C10.6575 0.666748 10.3162 0.796923 10.0559 1.05727L3.38922 7.72394C2.86852 8.24464 2.86852 9.08886 3.38922 9.60956Z" fill="black"/>
<path d="M2.9987 19.3334C2.9987 18.597 2.40174 18.0001 1.66536 18.0001C0.928985 18.0001 0.332031 18.597 0.332031 19.3334V23.3334C0.332031 25.5426 2.12289 27.3334 4.33203 27.3334H17.6654C19.8745 27.3334 21.6654 25.5426 21.6654 23.3334V19.3334C21.6654 18.597 21.0684 18.0001 20.332 18.0001C19.5957 18.0001 18.9987 18.597 18.9987 19.3334V23.3334C18.9987 24.0698 18.4017 24.6667 17.6654 24.6667H4.33203C3.59565 24.6667 2.9987 24.0698 2.9987 23.3334V19.3334Z" fill="black"/>
</svg>
