<svg width="552" height="307" viewBox="0 0 552 307" fill="none" xmlns="http://www.w3.org/2000/svg">
<g clip-path="url(#clip0_496_2924)">
<rect y="0.508789" width="552" height="305.824" rx="15.1648" fill="#9ECBFF"/>
<path d="M318.461 56.8569C269.182 58.3444 246.804 25.3825 223.02 -1.16431L490.176 -0.456175C484.734 145.483 411.934 123.286 376.215 93.9448C353.001 76.717 337.78 56.7916 318.461 56.8569Z" fill="#BADAFE"/>
<path d="M86.2913 197.64C54.2451 164.361 14.8083 168.346 -0.904297 174.499L-0.608326 308.574L295.223 307.907C268.525 262.14 213.54 245.295 189.385 242.593C168.373 241.475 118.337 230.919 86.2913 197.64Z" fill="#BADAFE"/>
<circle cx="461.092" cy="348.741" r="75.8242" fill="#BADAFE"/>
<circle cx="559.078" cy="111.5" r="75.8242" fill="#BADAFE"/>
<path d="M49.2404 292.657C41.4992 253.82 54.2787 176.855 167.326 179.689C182.933 179.532 226.497 183.957 262.976 187.561C310.632 192.269 352.943 173.365 394.025 140.525" stroke="#72AEF5" stroke-width="1.51648" stroke-linejoin="round" stroke-dasharray="4.04 4.04"/>
<path d="M519.742 188.239C533.152 150.978 555.646 78.1427 445.177 31.654C416.543 20.1131 370.048 12.7721 318.599 16.0042C270.805 19.0066 218.717 38.0978 174.069 24.7495" stroke="#72AEF5" stroke-width="1.51648" stroke-linejoin="round" stroke-dasharray="4.04 4.04"/>
<circle cx="501.111" cy="36.3988" r="3.53846" fill="#4991EF"/>
<rect opacity="0.7" x="122.141" y="47.2671" width="303.297" height="212.308" rx="15.1648" fill="#EBF4FF"/>
<path d="M199.943 162.466L204.233 166.755L212.81 158.177" stroke="#4991EF" stroke-width="4.04396" stroke-linecap="round" stroke-linejoin="round"/>
<path d="M210.561 103.94L206.051 99.4302M206.051 99.4302L201.541 94.9202M206.051 99.4302L210.561 94.9202M206.051 99.4302L201.541 103.94" stroke="#4991EF" stroke-width="4.04396" stroke-linecap="round" stroke-linejoin="round"/>
<rect x="248.459" y="130.674" width="45.4945" height="45.4945" rx="4.04396" fill="#4991EF"/>
<path d="M183.303 198.437C183.303 196.204 185.113 194.393 187.347 194.393H224.753C226.987 194.393 228.797 196.204 228.797 198.437V235.844C228.797 238.077 226.987 239.888 224.753 239.888H201.467C200.42 239.888 199.414 239.482 198.66 238.756L191.464 231.821L184.493 224.876C183.731 224.117 183.303 223.086 183.303 222.011L183.303 198.437Z" fill="#4991EF"/>
<path d="M199.68 224.027C199.718 223.209 200.117 239.888 200.117 239.888C199.096 239.869 184.101 225.46 183.809 224.005C183.809 224.005 199.665 224.35 199.68 224.027Z" fill="#64BFFC"/>
<path d="M376.609 134.718C376.609 132.484 378.42 130.674 380.653 130.674H418.06C420.293 130.674 422.104 132.484 422.104 134.718V172.124C422.104 174.358 420.293 176.168 418.06 176.168H394.773C393.727 176.168 392.721 175.763 391.967 175.036L384.771 168.101L377.799 161.157C377.038 160.398 376.609 159.367 376.609 158.292L376.609 134.718Z" fill="#4991EF"/>
<path d="M392.987 160.308C393.024 159.489 393.424 176.168 393.424 176.168C392.403 176.149 377.407 161.74 377.115 160.285C377.115 160.285 392.972 160.63 392.987 160.308Z" fill="#64BFFC"/>
<path d="M121.928 62.4319C121.928 54.0566 128.717 47.2671 137.093 47.2671H410.06C418.435 47.2671 425.224 54.0566 425.224 62.4319V67.4869H121.928V62.4319Z" fill="#2D80EC"/>
<path d="M176.018 232.822L176.018 81.1732" stroke="#2D80EC" stroke-width="1.51648" stroke-linecap="round"/>
<path d="M239.232 233.909L239.232 82.2608" stroke="#2D80EC" stroke-width="1.51648" stroke-linecap="round"/>
<path d="M302.758 233.639V81.9908" stroke="#2D80EC" stroke-width="1.51648" stroke-linecap="round"/>
<path d="M366.283 233.369V81.7208" stroke="#2D80EC" stroke-width="1.51648" stroke-linecap="round"/>
<path d="M139.004 186.261H402.595" stroke="#2D80EC" stroke-width="1.51648" stroke-linecap="round"/>
<path d="M139.412 123.27H403.003" stroke="#2D80EC" stroke-width="1.51648" stroke-linecap="round"/>
<path d="M275.232 92.4861C275.346 91.5701 274.181 91.0855 273.613 91.8125L267.318 99.8554C266.851 100.453 267.276 101.326 268.035 101.326H272.558L271.961 106.393C271.854 107.304 273.009 107.783 273.578 107.064L280.255 98.6304C280.727 98.0339 280.303 97.1557 279.542 97.1557H274.648L275.232 92.4861Z" fill="#4991EF"/>
<circle cx="152.398" cy="157.545" r="3.53846" fill="#4991EF"/>
<circle cx="335.281" cy="154.547" r="3.53846" fill="#4991EF"/>
<path d="M72.9348 224.049C67.9084 222.604 69.0124 222.896 67.641 222.562L57.626 220.379L47.3046 226.291L36.1816 236.212L37.775 244.267L66.0597 252.882L76.6032 252.656L83.3919 257.737C86.7734 259.24 88.5782 257.165 89.0578 255.939C95.0513 257.499 95.0879 254.138 94.2914 252.436C93.8814 251.499 92.4244 250.012 91.3557 248.611C97.6217 249.571 97.3712 246.133 96.4027 244.407L91.2863 237.711C87.5076 232.327 84.0693 228.682 80.3959 226.359C78.0036 225.104 75.9091 224.904 72.9348 224.049Z" fill="#DA866E"/>
<path d="M-14.3817 304.568L5.98467 286.941C11.2946 281.849 12.265 279.36 11.9489 270.188L12.0304 240.131C11.5643 232.956 13.4171 230.556 18.4016 227.563L49.4862 211.591C54.3094 208.673 57.5486 208.194 63.9673 208.756L68.5674 209.233L73.1691 204.469C76.2651 200.493 83.7953 198.811 80.8271 208.343L80.062 210.426L94.7368 211.949C102.187 211.915 101.983 221.939 94.5917 221.819L75.8508 221.893L71.6268 233.395C69.4952 238.994 68.3583 244.055 66.3638 254.106L61.5496 279.818C58.3557 299.64 55.7621 307.02 49.4441 312.317L-14.4492 312.459L-14.3817 304.568Z" fill="#F5B89C"/>
<path d="M42.3329 233.404L57.4784 223.055C57.888 222.847 58.2665 222.679 58.7113 222.536L50.5408 239.444C47.1129 245.44 44.7395 245.618 39.855 241.147C37.0822 238.314 37.5516 236.622 42.3329 233.404Z" fill="#DA866E"/>
<path d="M91.2652 248.518C82.7921 243.835 80.0092 241.225 78.9176 237.647M78.5748 236.227C78.6671 236.721 78.7787 237.192 78.9176 237.647M78.9176 237.647C76.0576 236.686 73.4326 235.877 70.998 235.216M38.5371 238.152C43.7886 235.312 48.3725 233.588 53.5076 233.097" stroke="black" stroke-width="0.307905" stroke-linecap="round" stroke-linejoin="round"/>
<path d="M88.8292 255.872C82.854 251.863 80.3979 249.391 79.273 245.828M78.839 244.089C78.9573 244.701 79.0993 245.278 79.273 245.828M79.273 245.828C73.6104 243.839 74.0322 244.133 68.6797 243.894" stroke="black" stroke-width="0.307905" stroke-linecap="round" stroke-linejoin="round"/>
<path d="M76.123 251.177C76.2106 251.658 76.5485 252.7 77.1997 253.015" stroke="black" stroke-width="0.307905" stroke-linecap="round" stroke-linejoin="round"/>
<path d="M40.3718 159.684C36.6033 161.144 37.756 162.367 38.3675 163.693C51.5344 188.873 57.9477 202.776 64.8123 226.558C65.5063 228.682 66.282 228.794 67.8775 228.397L130.305 204.285C131.749 203.769 132.3 203.292 132.45 201.833C133.952 184.11 111.995 144.559 107.929 137.771C106.163 134.822 103.433 135.387 102.105 136.136C83.3386 143.252 44.7447 157.991 40.3718 159.684Z" fill="#4991EF"/>
<path d="M64.513 213.431C61.5419 216.634 60.4601 218.512 59.0052 221.928L58.7116 222.536L50.541 239.444L66.3632 254.106C68.3577 244.055 69.4946 238.994 71.6263 233.395L80.8265 208.343C83.7948 198.811 76.2645 200.493 73.1685 204.469L64.513 213.431Z" fill="#F5B89C"/>
<ellipse cx="75.525" cy="208.339" rx="3.07905" ry="4.92649" transform="rotate(-151.082 75.525 208.339)" fill="white"/>
<mask id="mask0_496_2924" style="mask-type:alpha" maskUnits="userSpaceOnUse" x="71" y="203" width="9" height="10">
<ellipse cx="75.525" cy="208.339" rx="3.07905" ry="4.92649" transform="rotate(-151.082 75.525 208.339)" fill="white"/>
</mask>
<g mask="url(#mask0_496_2924)">
<path d="M77.3123 211.199C76.37 209.601 73.9772 208.361 72.1328 208.621" stroke="#D06159" stroke-width="0.307905" stroke-linecap="round" stroke-linejoin="round"/>
</g>
<path d="M162.352 -0.691021L126.917 -26.9434L9.10156 -21.9032L121.934 39.2552C124.778 40.9188 126.028 41.789 127.095 44.8005C128.327 50.7122 137.471 60.9465 140.263 62.9786C154.008 73.807 161.889 79.583 176.182 89.4876C182.96 93.7852 189.152 89.6733 190.404 87.3478C204.276 94.9667 209.758 86.0341 208.296 80.5662C218.063 84.8338 223.539 76.2918 222.604 70.7748L259.515 96.8407C267.311 103.506 275.799 96.154 267.182 87.8004L218.128 42.1057L217.564 36.9004C216.092 30.3985 214.534 27.7355 210.529 24.4434C201.432 17.0719 196.013 12.9836 186.46 5.19379C180.791 0.767656 177.488 -0.641191 171.313 -0.613194L162.352 -0.691021Z" fill="#E49173"/>
<path d="M180.693 80.9724L190.405 87.3479C190.101 87.9654 188.845 89.4842 186.253 90.6195C184.72 86.1597 183.391 84.1701 180.693 80.9724Z" fill="#CD5657"/>
<path d="M190.405 87.3479L180.693 80.9724" stroke="black" stroke-width="0.340489"/>
<path d="M193.883 72.2251L208.296 80.5662C208.68 81.5762 208.825 84.5462 206.947 87.139C205.067 82.8425 197.379 74.9632 193.883 72.2251Z" fill="#CD5657"/>
<path d="M208.559 80.6848L193.883 72.2251" stroke="black" stroke-width="0.340489"/>
<path d="M208.129 60.5522L222.604 70.7748C222.894 72.1739 222.788 75.7292 220.04 78.757C219.934 75.0476 212.637 64.6235 208.129 60.5522Z" fill="#CD5556"/>
<path d="M208.129 60.5522L222.818 70.9376" stroke="black" stroke-width="0.340489"/>
<ellipse cx="263.303" cy="92.1076" rx="3.40489" ry="5.44782" transform="rotate(-50 263.303 92.1076)" fill="#F4B79C"/>
<mask id="mask1_496_2924" style="mask-type:alpha" maskUnits="userSpaceOnUse" x="258" y="87" width="11" height="10">
<ellipse cx="263.303" cy="92.1076" rx="3.40489" ry="5.44782" transform="rotate(-50 263.303 92.1076)" fill="#F4B79C"/>
</mask>
<g mask="url(#mask1_496_2924)">
<path d="M259.818 93.4392C261.753 92.7562 263.608 90.4233 263.718 88.3665" stroke="#D06159" stroke-width="0.340489" stroke-linecap="round" stroke-linejoin="round"/>
</g>
<path d="M475.433 112.608C483.209 116.511 483.995 122.156 483.584 124.777C478.834 122.14 470.831 126.266 467.423 128.658C459.755 133.366 455.938 135.059 450.01 137.53C446.608 138.689 444.771 139.084 442.146 137.281C441.22 136.449 440.964 135.766 440.744 134.242C435.428 139.235 431.238 136.283 429.873 134.14L451.308 98.0349C453.932 99.1261 463.315 105.092 475.433 112.608Z" fill="#641F3C"/>
<path d="M440.744 134.242C446.06 129.25 455.345 121.405 459.513 118.447C462.626 116.056 470.318 112.22 474.834 112.52" stroke="black" stroke-width="0.329803"/>
<path d="M460.81 103.79C454.872 104.666 449.627 110.412 445.539 115.348" stroke="black" stroke-width="0.329803"/>
<path d="M533.146 139.852L556.465 154.462L555.399 213.322L522.069 189.24C516.564 184.785 511.426 182.997 499.217 180.881C490.249 179.204 486.034 176.666 479.704 170.556L429.242 114.604C428.023 112.931 427.687 112.023 428.841 111.038C431.844 108.782 434.18 109.072 439.185 111.596L463.443 126.392C484.498 139.174 488.987 120.588 477.449 113.78L453.2 99.0071C451.083 97.7898 449.902 97.3766 447.834 98.1012L430.917 105.819C428.305 107.251 422.12 109.674 418.277 107.904C414.435 106.135 416.201 103.017 417.564 101.68L442.142 82.7092C446.188 79.943 448.466 79.8375 452.543 80.7496L494.07 91.6091C499.416 92.8263 501.844 94.1706 504.355 98.635L528.104 134.713C529.589 137.361 530.73 138.437 533.146 139.852Z" fill="#B3423A"/>
<path d="M423.211 97.3059C423.287 99.6223 420.005 102.735 416.748 102.626" stroke="black" stroke-width="0.329803" stroke-linejoin="round"/>
<path d="M487.45 40.2245L406.072 142.435C410.964 143.896 413.396 145.567 416.656 150.875L497.904 49.3314C499.585 47.0104 499.424 44.7814 497.658 43.3069L492.672 39.323C491.129 38.1864 488.624 38.692 487.45 40.2245Z" fill="#FAC70C"/>
<path d="M403.779 152.501L406.096 142.518C410.997 143.828 413.368 145.485 416.604 150.819L407.199 155.314C405.889 153.911 405.187 153.318 403.779 152.501Z" fill="#641F3C"/>
<path d="M402.594 157.199L403.789 152.513C405.207 153.327 405.969 153.993 407.164 155.32L402.594 157.199Z" fill="#D9D9D9"/>
<path d="M497.091 42.8344L493.477 39.9353L495.859 37.009C496.389 36.3332 496.688 36.2083 497.387 36.6871L499.447 38.3122C500.089 38.8748 499.994 39.2937 499.479 39.9694L497.091 42.8344Z" fill="#060A2D"/>
<path d="M439.186 111.596L463.444 126.392L479.705 170.557L429.243 114.605C428.023 112.931 427.687 112.023 428.841 111.038C431.844 108.782 434.181 109.072 439.186 111.596Z" fill="#B3423A"/>
<path d="M428.646 113.726C429.267 112.88 430.398 112.005 432.289 112.979C434 113.932 435.294 115.435 436.231 117.514C436.809 119.412 436.194 120.095 434.772 120.739" stroke="black" stroke-width="0.329803" stroke-linejoin="round"/>
</g>
<defs>
<clipPath id="clip0_496_2924">
<rect y="0.508789" width="552" height="305.824" rx="15.1648" fill="white"/>
</clipPath>
</defs>
</svg>
