<svg width="20" height="21" viewBox="0 0 20 21" fill="none" xmlns="http://www.w3.org/2000/svg">
<path d="M10.4725 0.691914C10.3169 0.244134 9.68359 0.244135 9.52795 0.691915L8.93889 2.38654C8.87023 2.58408 8.68588 2.71801 8.4768 2.72227L6.68308 2.75883C6.20912 2.76849 6.01343 3.37076 6.3912 3.65716L7.82086 4.74105C7.98751 4.8674 8.05792 5.08411 7.99736 5.28428L7.47784 7.0015C7.34056 7.45525 7.85289 7.82747 8.24201 7.5567L9.71464 6.53195C9.8863 6.4125 10.1142 6.4125 10.2858 6.53195L11.7585 7.5567C12.1476 7.82747 12.6599 7.45525 12.5226 7.0015L12.0031 5.28428C11.9425 5.08411 12.0129 4.8674 12.1796 4.74105L13.6093 3.65716C13.987 3.37076 13.7913 2.76849 13.3174 2.75883L11.5237 2.72227C11.3146 2.71801 11.1302 2.58408 11.0616 2.38654L10.4725 0.691914Z" fill="black" fill-opacity="0.7"/>
<path fill-rule="evenodd" clip-rule="evenodd" d="M6 11.3332C6 10.7809 6.44772 10.3332 7 10.3332H13C13.5523 10.3332 14 10.7809 14 11.3332V20.3332H6V11.3332ZM12 18.3332H8V12.3332H12V18.3332Z" fill="black" fill-opacity="0.7"/>
<path d="M1 15.3332C0.447715 15.3332 0 15.7809 0 16.3332V20.3332H4V15.3332H1Z" fill="black" fill-opacity="0.7"/>
<path d="M16 15.3332H19C19.5523 15.3332 20 15.7809 20 16.3332V20.3332H16V15.3332Z" fill="black" fill-opacity="0.7"/>
</svg>
