<svg width="18" height="16" viewBox="0 0 18 16" fill="none" xmlns="http://www.w3.org/2000/svg">
<path fill-rule="evenodd" clip-rule="evenodd" d="M3.16797 0.5C1.78726 0.5 0.667969 1.61929 0.667969 3V13C0.667969 14.3807 1.78726 15.5 3.16797 15.5H14.8346C16.2153 15.5 17.3346 14.3807 17.3346 13V6.33333C17.3346 4.95262 16.2153 3.83333 14.8346 3.83333H13.168V3C13.168 1.61929 12.0487 0.5 10.668 0.5H3.16797ZM15.668 8.83333V10.5H12.3346V8.83333H15.668ZM12.3346 7.16667H15.668V6.33333C15.668 5.8731 15.2949 5.5 14.8346 5.5H2.33464V13C2.33464 13.4602 2.70773 13.8333 3.16797 13.8333H14.8346C15.2949 13.8333 15.668 13.4602 15.668 13V12.1667H12.3346C11.4142 12.1667 10.668 11.4205 10.668 10.5V8.83333C10.668 7.91286 11.4142 7.16667 12.3346 7.16667Z" fill="#929292"/>
</svg>
