<svg width="304" height="69" viewBox="0 0 304 69" fill="none" xmlns="http://www.w3.org/2000/svg">
<path d="M29.4232 30.6625C18.24 32.5804 1 55.2162 1 55.2162V68.9836H303V40.1436C303 40.1436 281.626 21.089 276.731 18.9934C271.835 16.8977 259.17 16.3192 247.994 16.5623C236.819 16.8054 227.767 3.92074 218.387 3.67764C209.007 3.43453 197.701 22.3968 188.78 22.8831C179.859 23.3693 164.427 6.83802 153.367 5.37938C142.307 3.92074 129.951 12.9157 118.39 13.1588C106.829 13.4019 100.553 0.760356 88.6377 1.00346C76.7222 1.24657 72.1898 26.3038 59.3207 31.878C47.9596 36.799 41.0502 28.6684 29.4232 30.6625Z" fill="url(#paint0_linear_1220_1001)"/>
<path d="M1 55.2162C1 55.2162 18.24 32.5804 29.4232 30.6625C41.0502 28.6684 47.9596 36.799 59.3207 31.878C72.1899 26.3038 76.7222 1.24657 88.6377 1.00346C100.553 0.760356 106.829 13.4019 118.39 13.1588C129.951 12.9157 142.307 3.92074 153.367 5.37938C164.427 6.83802 179.859 23.3693 188.78 22.8831C197.701 22.3968 209.007 3.43453 218.387 3.67763C227.767 3.92074 236.819 16.8054 247.994 16.5623C259.17 16.3192 271.835 16.8977 276.731 18.9933C281.626 21.089 303 40.1436 303 40.1436" stroke="#3694EB" stroke-width="2" stroke-linecap="round" stroke-linejoin="round"/>
<defs>
<linearGradient id="paint0_linear_1220_1001" x1="152" y1="1" x2="152" y2="68.9836" gradientUnits="userSpaceOnUse">
<stop stop-color="#3694EB" stop-opacity="0.3"/>
<stop offset="1" stop-color="white" stop-opacity="0"/>
</linearGradient>
</defs>
</svg>
