<svg width="304" height="68" viewBox="0 0 304 68" fill="none" xmlns="http://www.w3.org/2000/svg">
<path d="M55.8594 50.4811C38.8627 51.3801 37.7842 58.8681 27.174 61.0188C16.5637 63.1694 1 56.8999 1 56.8999V67.8381H302.727V40.1529C293.245 42.3013 289.134 52.5843 275.377 55.4679C261.619 58.3515 266.507 41.9663 255.021 33.8567C243.534 25.7471 234.469 46.4918 220.438 45.0984C206.406 43.7049 203.903 52.361 193.66 50.694C183.417 49.027 177.322 40.0368 165.578 37.2882C153.835 34.5397 149.506 11.4001 138.148 6.34143C126.791 1.28279 122.162 23.8887 110.719 24.8832C99.2755 25.8777 92.9323 8.89415 83.2891 11.4001C73.6458 13.906 72.8561 49.5821 55.8594 50.4811Z" fill="url(#paint0_linear_1220_3995)"/>
<path d="M1 56.9218C3.75778 57.9485 16.2822 63.1406 27.5112 60.8645C38.7403 58.5885 39.0361 50.4811 55.8594 50.4811C72.6828 50.4811 73.6459 13.906 83.2891 11.4001C92.9324 8.89415 99.2755 25.8777 110.719 24.8832C122.162 23.8887 126.791 1.28279 138.149 6.34143C149.506 11.4001 153.835 34.5397 165.578 37.2882C177.322 40.0368 182.282 48.8141 192.526 50.4811C202.769 52.1481 203.789 45.0984 220.438 45.0984C237.087 45.0984 243.64 25.8284 255.126 33.938C266.613 42.0476 261.539 58.4373 275.297 55.5537C289.055 52.6702 292.084 42.8463 302.727 40.2733" stroke="#5DC264" stroke-width="2" stroke-linecap="round" stroke-linejoin="round"/>
<defs>
<linearGradient id="paint0_linear_1220_3995" x1="151.863" y1="5.60449" x2="151.863" y2="67.8381" gradientUnits="userSpaceOnUse">
<stop stop-color="#F04438" stop-opacity="0.3"/>
<stop offset="0.0001" stop-color="#5DC264" stop-opacity="0.3"/>
<stop offset="1" stop-color="white" stop-opacity="0"/>
</linearGradient>
</defs>
</svg>
