<svg width="20" height="20" viewBox="0 0 20 20" fill="none" xmlns="http://www.w3.org/2000/svg">
<path d="M14.168 13.3334C14.6282 13.3334 15.0013 12.9603 15.0013 12.5001C15.0013 12.0398 14.6282 11.6667 14.168 11.6667C13.7077 11.6667 13.3346 12.0398 13.3346 12.5001C13.3346 12.9603 13.7077 13.3334 14.168 13.3334Z" fill="#929292"/>
<path fill-rule="evenodd" clip-rule="evenodd" d="M5.0013 2.50008C5.0013 2.03984 5.3744 1.66675 5.83464 1.66675C6.29487 1.66675 6.66797 2.03984 6.66797 2.50008V3.33341H13.3346V2.50008C13.3346 2.03984 13.7077 1.66675 14.168 1.66675C14.6282 1.66675 15.0013 2.03984 15.0013 2.50008V3.33341H15.8346C17.2153 3.33341 18.3346 4.4527 18.3346 5.83341V14.1667C18.3346 15.5475 17.2153 16.6667 15.8346 16.6667H4.16797C2.78726 16.6667 1.66797 15.5475 1.66797 14.1667V5.83341C1.66797 4.4527 2.78726 3.33341 4.16797 3.33341H5.0013V2.50008ZM13.3346 5.00008V5.83341C13.3346 6.29365 13.7077 6.66675 14.168 6.66675C14.6282 6.66675 15.0013 6.29365 15.0013 5.83341V5.00008H15.8346C16.2949 5.00008 16.668 5.37318 16.668 5.83341V8.33341H3.33464V5.83341C3.33464 5.37318 3.70773 5.00008 4.16797 5.00008H5.0013V5.83341C5.0013 6.29365 5.3744 6.66675 5.83464 6.66675C6.29487 6.66675 6.66797 6.29365 6.66797 5.83341V5.00008H13.3346ZM3.33464 10.0001H16.668V14.1667C16.668 14.627 16.2949 15.0001 15.8346 15.0001H4.16797C3.70773 15.0001 3.33464 14.627 3.33464 14.1667V10.0001Z" fill="#929292"/>
</svg>
