<svg width="20" height="20" viewBox="0 0 20 20" fill="none" xmlns="http://www.w3.org/2000/svg">
<path d="M9.30469 3.03564H16.0572C16.5595 3.03564 16.9667 3.44282 16.9667 3.9451V11.208C16.9667 11.7102 16.5595 12.1174 16.0572 12.1174H10.5372M7.74891 4.91122C7.74891 5.94707 6.90919 6.78679 5.87334 6.78679C4.83749 6.78679 3.99777 5.94707 3.99777 4.91122C3.99777 3.87537 4.83749 3.03564 5.87334 3.03564C6.90919 3.03564 7.74891 3.87537 7.74891 4.91122ZM3.03516 12.6785L3.03516 10.1595C3.03516 8.59204 4.30583 7.32136 5.87329 7.32136H11.0414C11.6494 7.32136 12.1423 7.81423 12.1423 8.42222C12.1423 9.0302 11.6494 9.52307 11.0414 9.52307H8.024L7.08964 16.9642H4.65695L4.2515 12.6785H3.03516Z" stroke="#929292" stroke-width="1.5" stroke-linecap="round" stroke-linejoin="round"/>
</svg>
