<svg width="18" height="18" viewBox="0 0 18 18" fill="none" xmlns="http://www.w3.org/2000/svg">
<path fill-rule="evenodd" clip-rule="evenodd" d="M12.0527 1.34756C12.9155 0.484735 14.3145 0.484734 15.1773 1.34755L16.7566 2.92708C17.6195 3.7899 17.6195 5.18881 16.7566 6.05163L7.16677 15.6415C6.6993 16.109 6.11012 16.436 5.46613 16.5854L1.89518 17.2713C1.10347 17.455 0.407851 16.7164 0.638621 15.9371L1.56305 12.4433C1.73036 11.8782 2.03627 11.364 2.45294 10.9473L12.0527 1.34756ZM13.9275 2.59738C13.7549 2.42481 13.4751 2.42481 13.3025 2.59738L12.1827 3.71722L13.2111 4.80751L14.3561 5.95251L15.5068 4.80181C15.6794 4.62925 15.6794 4.34946 15.5068 4.1769L13.9275 2.59738ZM13.1063 7.20233L11.9415 6.03755L10.9323 4.96766L3.70276 12.1972C3.49443 12.4055 3.34147 12.6626 3.25782 12.9451L2.67802 15.2752L5.06663 14.8636C5.38862 14.7889 5.68321 14.6254 5.91694 14.3917L13.1063 7.20233Z" fill="#272D37"/>
</svg>
