<svg width="130" height="128" viewBox="0 0 130 128" fill="none" xmlns="http://www.w3.org/2000/svg">
<path d="M67.2823 119.829C99.1622 119.829 125.006 94.1251 125.006 62.4174C125.006 30.7096 99.1622 5.00537 67.2823 5.00537C35.4024 5.00537 9.55859 30.7096 9.55859 62.4174C9.55859 94.1251 35.4024 119.829 67.2823 119.829Z" fill="url(#paint0_linear_591_21018)"/>
<path fill-rule="evenodd" clip-rule="evenodd" d="M88.5389 90.8852C88.492 90.8558 88.4364 90.8389 88.3769 90.8389C88.2087 90.8389 88.0723 90.9745 88.0723 91.1419V119.325C88.0723 119.492 88.2087 119.628 88.3769 119.628C88.5451 119.628 88.6815 119.492 88.6815 119.325V113.91C92.592 108.883 96.9009 107.624 100.232 107.61C101.919 107.603 103.362 107.916 104.383 108.231C104.893 108.388 105.297 108.546 105.572 108.663C105.71 108.722 105.815 108.771 105.885 108.804C105.919 108.82 105.944 108.833 105.961 108.842L109.651 112.511C109.751 112.611 109.914 112.611 110.014 112.51C110.114 112.41 110.113 112.247 110.013 112.147L106.342 108.496L111.594 91.407L111.605 91.3985H117.464C117.606 91.3985 117.721 91.2836 117.721 91.1418C117.721 91.0001 117.606 90.8852 117.464 90.8852H88.5389ZM111.594 91.407C106.489 95.3098 105.186 99.5789 105.144 102.865C105.123 104.522 105.423 105.937 105.729 106.937C105.881 107.437 106.035 107.833 106.15 108.102C106.207 108.237 106.255 108.34 106.288 108.408C106.302 108.437 106.313 108.459 106.321 108.476L100.669 102.854C100.656 102.837 100.641 102.822 100.624 102.809L100.45 102.637C100.446 102.611 100.441 102.583 100.436 102.554C100.397 102.325 100.351 101.992 100.321 101.582C100.26 100.761 100.263 99.6317 100.519 98.3993C101.028 95.953 102.531 93.0879 106.55 91.3985H111.596L111.594 91.407ZM105.012 107.897L100.338 103.249L100.323 103.246C100.26 103.235 100.168 103.22 100.047 103.203C99.8073 103.17 99.4588 103.131 99.0296 103.109C98.1704 103.066 96.9926 103.094 95.7155 103.376C93.2079 103.928 90.3145 105.456 88.6815 109.376V113.088C92.587 108.349 96.8666 107.111 100.23 107.097C101.98 107.09 103.476 107.414 104.534 107.741C104.705 107.793 104.864 107.846 105.012 107.897ZM99.8087 101.62C99.8198 101.769 99.8328 101.908 99.8469 102.036L96.425 98.6329L100.51 91.4179L100.56 91.3985H105.342C101.889 93.1979 100.508 95.9298 100.017 98.2948C99.7486 99.5857 99.7454 100.764 99.8087 101.62ZM100.51 91.4179C97.7199 92.515 96.709 94.3224 96.38 95.8455C96.2129 96.619 96.2205 97.3267 96.2703 97.8416C96.2952 98.0987 96.3305 98.3065 96.3593 98.4489C96.3724 98.5138 96.3841 98.565 96.3928 98.6009L89.1513 91.3985H100.521L100.51 91.4179ZM99.7344 102.648L96.0307 98.9647C95.9929 98.9555 95.9374 98.9427 95.8661 98.9282C95.718 98.8982 95.502 98.8611 95.2352 98.834C94.7006 98.7797 93.9669 98.7659 93.1668 98.9262C91.6149 99.237 89.7916 100.205 88.6815 102.874V108.166C90.444 104.8 93.1987 103.404 95.605 102.874C96.9382 102.581 98.1637 102.552 99.0552 102.597C99.3103 102.609 99.5385 102.628 99.7344 102.648ZM93.066 98.4229C91.5751 98.7215 89.875 99.5799 88.6815 101.7V91.6552L95.398 98.3354C95.362 98.3312 95.325 98.3272 95.2871 98.3233C94.7164 98.2653 93.9291 98.25 93.066 98.4229Z" fill="url(#paint1_linear_591_21018)"/>
<path fill-rule="evenodd" clip-rule="evenodd" d="M67.3745 11.4078C67.0861 11.2895 66.777 11.2288 66.4651 11.2293L66.4625 11.2294C65.8326 11.2299 65.2287 11.479 64.7833 11.922C64.3382 12.3647 64.0878 12.9649 64.0869 13.591V16.5639H58.1797L58.1797 13.587C58.1816 11.4041 59.0543 9.31108 60.6063 7.76749C62.1579 6.22419 64.2618 5.35622 66.4562 5.35401L66.4574 5.35401C67.5451 5.35247 68.6225 5.5641 69.628 5.97682C70.6342 6.38985 71.5487 6.99618 72.3192 7.76111C73.0896 8.52605 73.7008 9.43456 74.1178 10.4347C74.5348 11.4348 74.7495 12.5069 74.7495 13.5896V16.4539H68.8422V13.5896C68.8422 13.2793 68.7807 12.972 68.6612 12.6854C68.5417 12.3988 68.3665 12.1384 68.1457 11.9192C67.9249 11.7 67.6628 11.5262 67.3745 11.4078ZM66.4574 5.35401L66.4562 5.35401L66.4574 5.35401Z" fill="url(#paint2_linear_591_21018)"/>
<path d="M66.8284 112.572C79.0717 112.572 88.9967 102.701 88.9967 90.5234C88.9967 78.3463 79.0717 68.4749 66.8284 68.4749C54.5852 68.4749 44.6602 78.3463 44.6602 90.5234C44.6602 102.701 54.5852 112.572 66.8284 112.572Z" fill="url(#paint3_linear_591_21018)"/>
<path d="M101.8 66.2161V49.3004C101.8 40.0737 98.1153 31.225 91.5556 24.7007C84.9959 18.1765 76.0991 14.5112 66.8224 14.5112C57.5456 14.5112 48.6488 18.1765 42.0892 24.7007C35.5295 31.225 31.8443 40.0737 31.8443 49.3004V66.2161C31.8447 70.1023 30.7394 73.9093 28.656 77.1971C26.5727 80.4848 23.5965 83.1191 20.0713 84.7954C19.2611 85.1791 18.5771 85.7839 18.0991 86.5393C17.6211 87.2946 17.3686 88.1695 17.3711 89.0621V89.1537C17.3705 89.4761 17.4338 89.7954 17.5574 90.0934C17.6811 90.3914 17.8625 90.6623 18.0915 90.8904C18.3205 91.1186 18.5925 91.2996 18.8918 91.4231C19.1912 91.5466 19.5122 91.6102 19.8363 91.6102H113.804C114.128 91.6102 114.449 91.5466 114.748 91.4231C115.048 91.2996 115.32 91.1186 115.549 90.8904C115.778 90.6623 115.959 90.3914 116.083 90.0934C116.206 89.7954 116.27 89.4761 116.269 89.1537V89.0621C116.269 88.1724 116.016 87.3007 115.539 86.5481C115.062 85.7954 114.381 85.1925 113.573 84.8091C110.046 83.1318 107.069 80.4954 104.985 77.205C102.902 73.9146 101.797 70.1046 101.8 66.2161Z" fill="url(#paint4_linear_591_21018)"/>
<path fill-rule="evenodd" clip-rule="evenodd" d="M53.1974 52.642C53.1408 52.5857 53.0651 52.5561 52.9883 52.5566C52.9134 52.5566 52.8385 52.585 52.7813 52.642L40.1925 65.1647C40.1512 65.1896 40.1178 65.2236 40.0938 65.263L31.8486 73.465C31.8444 73.4689 31.8404 73.4728 31.8366 73.4769L23.7427 81.5284C23.6279 81.6426 23.6274 81.8283 23.7416 81.9432C23.8559 82.058 24.0416 82.0585 24.1564 81.9442L32.1972 73.9456C38.7474 72.4224 43.8784 74.0918 47.3796 76.1456C49.1391 77.1777 50.487 78.3072 51.3942 79.1779C51.8477 79.6131 52.1906 79.9832 52.4193 80.2434C52.5336 80.3735 52.6194 80.4761 52.6761 80.5456C52.6837 80.5548 52.6907 80.5635 52.6973 80.5716V81.8096C52.6973 81.9716 52.8286 82.1029 52.9906 82.1029C53.1526 82.1029 53.2839 81.9716 53.2839 81.8096V80.5731L53.3063 80.5455C53.363 80.4761 53.4487 80.3735 53.5631 80.2434C53.7917 79.9832 54.1346 79.6131 54.5881 79.1779C55.4952 78.3072 56.843 77.1777 58.6022 76.1456C62.103 74.0916 67.2333 72.4222 73.7818 73.9459L81.7439 81.8663C81.8588 81.9806 82.0445 81.9801 82.1587 81.8652C82.273 81.7504 82.2725 81.5647 82.1577 81.4504L65.8846 65.2627C65.8607 65.2236 65.8274 65.1897 65.7864 65.165L53.1974 52.642ZM52.6973 79.6742V74.8578L52.6836 74.8265C52.6598 74.7727 52.6226 74.6921 52.5704 74.589C52.466 74.3827 52.3018 74.0868 52.0655 73.7353C51.5928 73.0322 50.8328 72.1083 49.6873 71.235C47.415 69.5028 43.5945 67.9457 37.4142 68.756L32.9642 73.1826C39.2623 71.9657 44.2361 73.6215 47.6764 75.6396C49.4834 76.6996 50.8674 77.8593 51.8004 78.7547C52.1707 79.11 52.4702 79.4241 52.6973 79.6742ZM54.1818 78.7547C53.811 79.1107 53.5111 79.4251 53.2839 79.6755V74.856L53.2967 74.8265C53.3205 74.7727 53.3577 74.6921 53.4099 74.589C53.5144 74.3827 53.6786 74.0868 53.9149 73.7353C54.3875 73.0322 55.1475 72.1084 56.2931 71.235C58.5651 69.503 62.3851 67.946 68.5643 68.7558L73.0146 73.1828C66.7182 71.9655 61.7453 73.6214 58.3053 75.6396C56.4986 76.6996 55.1148 77.8593 54.1818 78.7547ZM52.6973 73.6301V69.1775L52.6943 69.1734C52.6601 69.1252 52.6082 69.0538 52.5388 68.9635C52.4001 68.7828 52.1919 68.5266 51.9172 68.2288C51.3671 67.6326 50.5535 66.8737 49.499 66.2197C47.4119 64.9252 44.3766 64.0364 40.5315 65.655L38.0876 68.0861C43.9757 67.4735 47.7341 69.0084 50.0429 70.7685C51.2479 71.6871 52.0502 72.6611 52.5523 73.408C52.6037 73.4845 52.652 73.5586 52.6973 73.6301ZM49.8082 65.7212C47.8182 64.487 45.0066 63.6045 41.5196 64.6721L44.9957 61.2142C47.6485 60.0805 49.5699 60.6288 50.8323 61.4403C51.4741 61.8528 51.9522 62.3382 52.27 62.7214C52.4287 62.9126 52.5464 63.0773 52.6239 63.1929C52.6548 63.2391 52.6793 63.2774 52.6973 63.3064V68.226C52.5952 68.1052 52.4788 67.9724 52.3483 67.831C51.7725 67.207 50.9189 66.41 49.8082 65.7212ZM52.6973 62.3177V53.553L45.9614 60.2535C48.2129 59.6347 49.9408 60.1699 51.1495 60.9468C51.838 61.3894 52.3519 61.9059 52.6973 62.3177ZM67.891 68.086L65.4473 65.6551C61.6021 64.0364 58.5667 64.9252 56.4795 66.2197C55.4251 66.8737 54.6115 67.6326 54.0614 68.2288C53.7867 68.5266 53.5785 68.7828 53.4397 68.9635C53.3704 69.0538 53.3184 69.1252 53.2842 69.1734L53.2839 69.1739V73.6288C53.3289 73.5578 53.3769 73.4841 53.428 73.408C53.9301 72.6612 54.7325 71.6871 55.9374 70.7685C58.246 69.0086 62.0039 67.4739 67.891 68.086ZM53.6303 67.831C53.5009 67.9712 53.3853 68.1029 53.2839 68.2229V63.3065C53.3019 63.2775 53.3263 63.2391 53.3573 63.1928C53.4346 63.0771 53.5522 62.9125 53.7106 62.7213C54.028 62.3381 54.5056 61.8527 55.1468 61.4402C56.4085 60.6285 58.3299 60.08 60.9846 61.2158L64.4592 64.6722C60.9721 63.6045 58.1604 64.487 56.1703 65.7212C55.0597 66.41 54.2061 67.207 53.6303 67.831ZM60.018 60.2543L53.2839 53.5554V62.317C53.6289 61.9053 54.1419 61.3892 54.8294 60.9469C56.0376 60.1696 57.7656 59.6343 60.018 60.2543Z" fill="url(#paint5_linear_591_21018)"/>
<path fill-rule="evenodd" clip-rule="evenodd" d="M85.9199 52.0348V0H86.5097V52.0348H85.9199Z" fill="#FF607B"/>
<path fill-rule="evenodd" clip-rule="evenodd" d="M81.1185 48.7877C81.2539 48.7343 81.4069 48.8008 81.4603 48.9362L82.0194 50.3539L83.8469 50.9822C84.3277 49.8148 85.2082 49.0329 86.2148 49.0329C87.2227 49.0329 88.1042 49.8168 88.5847 50.9868L90.4256 50.3539L90.9847 48.9362C91.038 48.8008 91.1911 48.7343 91.3265 48.7877C91.4619 48.8411 91.5283 48.9942 91.475 49.1295L90.8713 50.6603C90.843 50.732 90.7848 50.7877 90.7119 50.8128L88.7577 51.4846C88.8665 51.861 88.9366 52.2667 88.9608 52.6912L90.6489 52.3082C90.7506 52.2851 90.857 52.3179 90.9282 52.3942L92.352 53.9203C92.4626 54.0388 92.4561 54.2244 92.3377 54.3349C92.2192 54.4454 92.0336 54.4389 91.9231 54.3205L90.6143 52.9176L88.9642 53.2919C88.9455 53.7019 88.8841 54.0949 88.7863 54.4617L90.0573 54.1734C90.1671 54.1485 90.2815 54.1886 90.3517 54.2767L91.5267 55.7524C91.6276 55.8792 91.6066 56.0637 91.4799 56.1646C91.3532 56.2655 91.1686 56.2446 91.0677 56.1178L90.0075 54.7862L88.5632 55.1139C88.4142 55.4646 88.2288 55.7794 88.0147 56.0472C88.1124 56.2847 88.1663 56.5456 88.1663 56.8195C88.1663 57.9205 87.2937 58.8131 86.2172 58.8131C85.1408 58.8131 84.2681 57.9205 84.2681 56.8195C84.2681 56.5472 84.3215 56.2876 84.4181 56.0512C84.2017 55.7813 84.0145 55.4635 83.8644 55.1091L82.4405 54.7861L81.3802 56.1177C81.2793 56.2444 81.0948 56.2653 80.968 56.1644C80.8413 56.0635 80.8204 55.879 80.9213 55.7523L82.0963 54.2766C82.1664 54.1885 82.2808 54.1483 82.3906 54.1732L83.6421 54.4571C83.5446 54.0899 83.4835 53.6965 83.4652 53.2863L81.8401 52.9176L80.5312 54.3205C80.4207 54.4389 80.2351 54.4454 80.1167 54.3349C79.9982 54.2244 79.9918 54.0388 80.1023 53.9203L81.5261 52.3942C81.5973 52.3179 81.7037 52.2851 81.8055 52.3082L83.4691 52.6857C83.4938 52.2613 83.5642 51.8559 83.6733 51.4798L81.7331 50.8128C81.6602 50.7877 81.6019 50.732 81.5737 50.6603L80.97 49.1295C80.9166 48.9942 80.9831 48.8411 81.1185 48.7877Z" fill="url(#paint6_linear_591_21018)"/>
<path d="M129.626 44.5197C129.652 44.4728 129.668 44.4209 129.673 44.3674C129.677 44.314 129.67 44.2601 129.653 44.2095C129.635 44.1588 129.606 44.1125 129.569 44.0736C129.532 44.0346 129.487 44.0039 129.437 43.9835C127.981 43.4061 122.83 41.692 120.014 45.1476C118.131 47.4187 115.468 48.9158 112.54 49.3502C112.467 49.36 112.398 49.3917 112.343 49.4412C112.287 49.4907 112.248 49.5557 112.231 49.6275C112.214 49.6994 112.218 49.7748 112.245 49.8439C112.271 49.913 112.318 49.9725 112.379 50.0147C114.867 51.77 123.088 56.2429 129.626 44.5197Z" fill="url(#paint7_linear_591_21018)"/>
<path d="M20.5135 68.754C20.5343 68.7162 20.5469 68.6745 20.5504 68.6316C20.5539 68.5887 20.5483 68.5455 20.534 68.5049C20.5197 68.4642 20.4969 68.4271 20.4672 68.3958C20.4375 68.3645 20.4014 68.3397 20.3615 68.3232C19.1957 67.8649 15.0533 66.49 12.7908 69.2398C11.2811 71.0617 9.14779 72.2647 6.80063 72.6174C6.7417 72.6252 6.68653 72.6506 6.64237 72.6902C6.5982 72.7298 6.56711 72.7818 6.55315 72.8393C6.5392 72.8968 6.54305 72.9571 6.56419 73.0124C6.58533 73.0676 6.62277 73.1153 6.67161 73.149C8.65759 74.5789 15.2606 78.1719 20.5135 68.754Z" fill="url(#paint8_linear_591_21018)"/>
<path d="M118.296 63.5551C118.278 63.5237 118.267 63.4889 118.265 63.453C118.262 63.4172 118.266 63.3811 118.279 63.3472C118.291 63.3134 118.31 63.2825 118.335 63.2567C118.361 63.2309 118.391 63.2108 118.425 63.1977C119.402 62.8081 122.862 61.6578 124.751 63.9768C126.018 65.5023 127.807 66.5079 129.774 66.7999C129.826 66.8046 129.875 66.8256 129.915 66.8599C129.954 66.8942 129.982 66.94 129.994 66.9908C130.005 67.0416 130.001 67.0948 129.98 67.1428C129.96 67.1908 129.925 67.2312 129.88 67.2581C128.212 68.4451 122.687 71.447 118.296 63.5551Z" fill="url(#paint9_linear_591_21018)"/>
<path d="M0.0514454 48.6819C0.0230057 48.6295 0.00591861 48.5718 0.00128541 48.5124C-0.0033478 48.4531 0.00457568 48.3934 0.0245452 48.3373C0.0445147 48.2811 0.0760871 48.2298 0.117228 48.1865C0.158368 48.1433 0.208164 48.1091 0.263406 48.0861C1.87615 47.4491 7.58525 45.5518 10.7048 49.374C12.7944 51.894 15.7498 53.5532 18.9989 54.0302C19.0801 54.0421 19.1559 54.078 19.2164 54.1333C19.2769 54.1885 19.3193 54.2606 19.3382 54.3401C19.357 54.4196 19.3515 54.5029 19.3222 54.5792C19.2929 54.6555 19.2413 54.7213 19.174 54.7681C16.4046 56.7113 7.29496 61.67 0.0514454 48.6819Z" fill="url(#paint10_linear_591_21018)"/>
<path d="M19.4416 33.8118C19.2836 33.1955 19.8556 32.6402 20.4713 32.8123L24.6458 33.9791C25.2615 34.1512 25.4591 34.9217 25.0015 35.3659L21.8982 38.3783C21.4406 38.8225 20.671 38.6073 20.513 37.991L19.4416 33.8118Z" fill="#FFBEBD"/>
<path d="M115.219 13.4908C115.465 12.4779 116.906 12.4779 117.152 13.4908L117.986 16.9284C118.074 17.2909 118.357 17.5736 118.72 17.6607L122.155 18.4854C123.171 18.7294 123.171 20.1749 122.155 20.4189L118.72 21.2436C118.357 21.3307 118.074 21.6134 117.986 21.9758L117.152 25.4134C116.906 26.4264 115.465 26.4264 115.219 25.4134L114.385 21.9758C114.297 21.6134 114.014 21.3307 113.651 21.2436L110.216 20.4189C109.2 20.1749 109.2 18.7294 110.216 18.4854L113.651 17.6607C114.014 17.5736 114.297 17.2909 114.385 16.9284L115.219 13.4908Z" fill="#FFBEBD"/>
<path d="M43.7526 112.097C43.9984 111.084 45.4391 111.084 45.6849 112.097L46.5192 115.534C46.6072 115.897 46.8906 116.179 47.2533 116.266L50.6883 117.091C51.7044 117.335 51.7044 118.781 50.6883 119.025L47.2533 119.849C46.8906 119.936 46.6072 120.219 46.5192 120.582L45.6849 124.019C45.4391 125.032 43.9984 125.032 43.7526 124.019L42.9183 120.582C42.8303 120.219 42.5469 119.936 42.1842 119.849L38.7492 119.025C37.7331 118.781 37.7331 117.335 38.7492 117.091L42.1842 116.266C42.5469 116.179 42.8303 115.897 42.9183 115.534L43.7526 112.097Z" fill="#FFBEBD"/>
<path d="M30.3737 107.011C30.3737 108.267 29.3498 109.29 28.0796 109.29C26.8094 109.29 25.7854 108.267 25.7854 107.011C25.7854 105.756 26.8094 104.733 28.0796 104.733C29.3498 104.733 30.3737 105.756 30.3737 107.011Z" stroke="#FFBEBD" stroke-width="1.24276"/>
<path d="M33.8913 17.4154C33.8913 18.6706 32.8674 19.6938 31.5972 19.6938C30.327 19.6938 29.303 18.6706 29.303 17.4154C29.303 16.1603 30.327 15.137 31.5972 15.137C32.8674 15.137 33.8913 16.1603 33.8913 17.4154Z" stroke="#FC9999" stroke-width="1.24276"/>
<path d="M124.981 102.506C124.981 103.762 123.957 104.785 122.687 104.785C121.417 104.785 120.393 103.762 120.393 102.506C120.393 101.251 121.417 100.228 122.687 100.228C123.957 100.228 124.981 101.251 124.981 102.506Z" stroke="#FC9999" stroke-width="1.24276"/>
<defs>
<linearGradient id="paint0_linear_591_21018" x1="66.8373" y1="-13.6894" x2="68.0071" y2="187.933" gradientUnits="userSpaceOnUse">
<stop stop-color="#FFE1E1" stop-opacity="0"/>
<stop offset="1" stop-color="#FFE1E0"/>
</linearGradient>
<linearGradient id="paint1_linear_591_21018" x1="81.8528" y1="95.5761" x2="129.863" y2="101.092" gradientUnits="userSpaceOnUse">
<stop offset="0.0844027" stop-color="#FFBEBD"/>
<stop offset="1" stop-color="#FFF6F5"/>
</linearGradient>
<linearGradient id="paint2_linear_591_21018" x1="78.7807" y1="17.1412" x2="70.5709" y2="2.06296" gradientUnits="userSpaceOnUse">
<stop stop-color="#FF9999"/>
<stop offset="1" stop-color="#FFE7DA"/>
</linearGradient>
<linearGradient id="paint3_linear_591_21018" x1="104.176" y1="127.386" x2="36.3989" y2="53.7592" gradientUnits="userSpaceOnUse">
<stop stop-color="#FFDEAC"/>
<stop offset="0.70369" stop-color="#FF426F"/>
</linearGradient>
<linearGradient id="paint4_linear_591_21018" x1="80.5168" y1="85.3418" x2="59.3603" y2="22.804" gradientUnits="userSpaceOnUse">
<stop stop-color="#FF9999"/>
<stop offset="1" stop-color="#FFE7DA"/>
</linearGradient>
<linearGradient id="paint5_linear_591_21018" x1="115.127" y1="120.201" x2="57.4229" y2="41.2692" gradientUnits="userSpaceOnUse">
<stop stop-color="#FFBEBD"/>
<stop offset="1" stop-color="#FFF6F5"/>
</linearGradient>
<linearGradient id="paint6_linear_591_21018" x1="102.362" y1="33.5356" x2="74.6577" y2="50.6615" gradientUnits="userSpaceOnUse">
<stop stop-color="#FFDEAC"/>
<stop offset="1" stop-color="#FF426F"/>
</linearGradient>
<linearGradient id="paint7_linear_591_21018" x1="133.92" y1="52.8071" x2="128.064" y2="39.1262" gradientUnits="userSpaceOnUse">
<stop stop-color="#FF9999"/>
<stop offset="1" stop-color="#FFE7DA"/>
</linearGradient>
<linearGradient id="paint8_linear_591_21018" x1="23.9591" y1="75.4089" x2="19.2562" y2="64.4267" gradientUnits="userSpaceOnUse">
<stop stop-color="#FF9999"/>
<stop offset="1" stop-color="#FFE7DA"/>
</linearGradient>
<linearGradient id="paint9_linear_591_21018" x1="132.855" y1="69.1382" x2="128.91" y2="59.9311" gradientUnits="userSpaceOnUse">
<stop stop-color="#FF9999"/>
<stop offset="1" stop-color="#FFE7DA"/>
</linearGradient>
<linearGradient id="paint10_linear_591_21018" x1="24.0566" y1="57.8619" x2="17.574" y2="42.704" gradientUnits="userSpaceOnUse">
<stop stop-color="#FF9999"/>
<stop offset="1" stop-color="#FFE7DA"/>
</linearGradient>
</defs>
</svg>
