<svg width="16" height="18" viewBox="0 0 16 18" fill="none" xmlns="http://www.w3.org/2000/svg">
<path fill-rule="evenodd" clip-rule="evenodd" d="M15.6435 12.445C16.3339 11.2493 15.9242 9.72029 14.7284 9.02993L14.6767 9.00004L14.7284 8.97017C15.9241 8.27981 16.3338 6.75084 15.6435 5.5551L14.8101 4.11173C14.1198 2.916 12.5908 2.50631 11.3951 3.19666L11.3432 3.22658V3.16675C11.3432 1.78604 10.224 0.666748 8.84325 0.666748L7.17658 0.666748C5.79587 0.666748 4.67658 1.78604 4.67658 3.16675L4.67658 3.22649L4.62482 3.1966C3.42908 2.50624 1.90011 2.91593 1.20975 4.11166L0.376418 5.55504C-0.313938 6.75077 0.0957489 8.27974 1.29148 8.9701L1.34333 9.00003L1.29143 9.03C0.0957022 9.72035 -0.313986 11.2493 0.376369 12.4451L1.2097 13.8884C1.90006 15.0842 3.42903 15.4939 4.62477 14.8035L4.67658 14.7736V14.8334C4.67658 16.2141 5.79587 17.3334 7.17658 17.3334H8.84325C10.224 17.3334 11.3432 16.2141 11.3432 14.8334V14.7735L11.3951 14.8034C12.5908 15.4938 14.1198 15.0841 14.8102 13.8884L15.6435 12.445ZM12.1766 4.66995C11.0655 5.31146 9.67658 4.50958 9.67658 3.22658V3.16675C9.67658 2.70651 9.30349 2.33341 8.84325 2.33341L7.17658 2.33341C6.71636 2.33341 6.34328 2.70648 6.34325 3.16669L6.34325 3.22649C6.34324 4.50945 4.95443 5.31132 3.84333 4.6699L3.79148 4.63997C3.3929 4.40985 2.88325 4.54642 2.65313 4.94499L1.81979 6.38837C1.58967 6.78695 1.72624 7.29661 2.12481 7.52672L2.17659 7.55661C3.28777 8.19808 3.28781 9.8019 2.17666 10.4434L2.12477 10.4734C1.72619 10.7035 1.58963 11.2131 1.81974 11.6117L2.65308 13.0551C2.8832 13.4537 3.39286 13.5902 3.79143 13.3601L3.84325 13.3302C4.95436 12.6887 6.34324 13.4906 6.34325 14.7736V14.8334C6.34325 15.2937 6.71634 15.6667 7.17658 15.6667H8.84325C9.30349 15.6667 9.67658 15.2937 9.67658 14.8334V14.7735C9.67658 13.4905 11.0655 12.6886 12.1767 13.3302L12.2284 13.3601C12.627 13.5902 13.1367 13.4536 13.3668 13.055L14.2001 11.6117C14.4303 11.2131 14.2937 10.7034 13.8951 10.4733L13.8433 10.4434C12.7322 9.80183 12.7323 8.19815 13.8433 7.55667L13.8951 7.52679C14.2937 7.29666 14.4302 6.78701 14.2001 6.38844L13.3668 4.94506C13.1366 4.54648 12.627 4.40992 12.2284 4.64004L12.1766 4.66995Z" fill="#929292"/>
<path fill-rule="evenodd" clip-rule="evenodd" d="M8.00977 10.6667C8.93024 10.6667 9.67643 9.9205 9.67643 9.00003C9.67643 8.07956 8.93024 7.33336 8.00977 7.33336C7.08929 7.33336 6.3431 8.07956 6.3431 9.00003C6.3431 9.9205 7.08929 10.6667 8.00977 10.6667ZM8.00977 12.3334C9.85071 12.3334 11.3431 10.841 11.3431 9.00003C11.3431 7.15908 9.85071 5.6667 8.00977 5.6667C6.16882 5.6667 4.67643 7.15908 4.67643 9.00003C4.67643 10.841 6.16882 12.3334 8.00977 12.3334Z" fill="#929292"/>
</svg>
