<svg width="20" height="19" viewBox="0 0 20 19" fill="none" xmlns="http://www.w3.org/2000/svg">
<path d="M10.7477 1.25104C10.7477 0.790946 10.4119 0.417969 9.99772 0.417969C9.58351 0.417969 9.24772 0.790946 9.24772 1.25104V2.6943C9.24772 3.15439 9.58351 3.52737 9.99772 3.52737C10.4119 3.52737 10.7477 3.15439 10.7477 2.6943V1.25104Z" fill="#929292"/>
<path fill-rule="evenodd" clip-rule="evenodd" d="M7.07813 7.73819C7.07813 6.1263 8.38483 4.81959 9.99673 4.81959C11.6086 4.81959 12.9153 6.12629 12.9153 7.73819C12.9153 9.35009 11.6086 10.6568 9.99673 10.6568C8.38483 10.6568 7.07813 9.35009 7.07813 7.73819ZM9.99673 6.31959C9.21325 6.31959 8.57813 6.95472 8.57813 7.73819C8.57813 8.52167 9.21325 9.1568 9.99673 9.1568C10.7802 9.1568 11.4153 8.52167 11.4153 7.73819C11.4153 6.95472 10.7802 6.31959 9.99673 6.31959Z" fill="#929292"/>
<path fill-rule="evenodd" clip-rule="evenodd" d="M5.45078 13.6034C6.29603 12.3681 7.75983 11.5198 9.99756 11.5198C12.2353 11.5198 13.6991 12.3681 14.5443 13.6034C15.3314 14.7538 15.4439 16.0427 15.4463 16.7193C15.4499 17.7877 14.5834 18.4935 13.6973 18.4935H6.29778C5.41174 18.4935 4.54517 17.7877 4.54884 16.7193C4.55116 16.0427 4.6637 14.7538 5.45078 13.6034ZM9.99756 13.0198C8.18253 13.0198 7.21583 13.6801 6.68873 14.4505C6.14944 15.2387 6.05073 16.1715 6.04883 16.7244C6.0485 16.8216 6.08314 16.8817 6.12528 16.9219C6.17462 16.969 6.24027 16.9935 6.29778 16.9935H13.6973C13.7548 16.9935 13.8205 16.969 13.8698 16.9219C13.912 16.8817 13.9466 16.8216 13.9463 16.7244C13.9444 16.1715 13.8457 15.2387 13.3064 14.4505C12.7793 13.6801 11.8126 13.0198 9.99756 13.0198Z" fill="#929292"/>
<path fill-rule="evenodd" clip-rule="evenodd" d="M1.83688 8.97976C1.83688 7.6414 2.92183 6.55645 4.26019 6.55645C5.59855 6.55645 6.6835 7.6414 6.6835 8.97976C6.6835 10.3181 5.59855 11.4031 4.26019 11.4031C2.92183 11.4031 1.83688 10.3181 1.83688 8.97976ZM4.26019 8.05645C3.75026 8.05645 3.33688 8.46983 3.33688 8.97976C3.33688 9.4897 3.75026 9.90308 4.26019 9.90308C4.77012 9.90308 5.1835 9.4897 5.1835 8.97976C5.1835 8.46983 4.77012 8.05645 4.26019 8.05645Z" fill="#929292"/>
<path d="M4.47548 13.3276C4.74169 12.9386 5.06454 12.5322 5.45236 12.1478C5.21618 12.122 4.96844 12.1086 4.70885 12.1086C2.79358 12.1086 1.52315 12.8368 0.787086 13.9126C0.105544 14.9087 0.00980859 16.0209 0.00782301 16.5996C0.00449493 17.5697 0.792404 18.2112 1.59781 18.2112H3.88156C3.58802 17.9597 3.39002 17.5812 3.39161 17.1165C3.39203 16.9945 3.39535 16.8585 3.40337 16.7112H1.59781C1.58061 16.7112 1.55479 16.7028 1.53515 16.684C1.52685 16.6761 1.5209 16.6675 1.51676 16.6579C1.51295 16.6491 1.50772 16.6328 1.50781 16.6047C1.50938 16.1497 1.59128 15.3936 2.02504 14.7596C2.40159 14.2093 3.06668 13.7162 4.28647 13.624C4.34558 13.5244 4.40851 13.4255 4.47548 13.3276Z" fill="#929292"/>
<path d="M16.1138 18.2113H18.3932C19.1986 18.2113 19.9865 17.5698 19.9832 16.5997C19.9812 16.021 19.8854 14.9088 19.2039 13.9127C18.4678 12.8369 17.1974 12.1087 15.2821 12.1087C15.024 12.1087 14.7777 12.1219 14.5428 12.1474C14.9308 12.532 15.2537 12.9384 15.52 13.3276C15.5871 13.4257 15.6501 13.5247 15.7093 13.6245C16.926 13.7176 17.5899 14.2101 17.9659 14.7597C18.3997 15.3937 18.4816 16.1498 18.4832 16.6049C18.4833 16.6329 18.478 16.6492 18.4742 16.6581C18.4701 16.6676 18.4641 16.6762 18.4558 16.6842C18.4362 16.7029 18.4104 16.7113 18.3932 16.7113H16.5921C16.6002 16.8586 16.6035 16.9945 16.6039 17.1165C16.6055 17.5813 16.4074 17.9598 16.1138 18.2113Z" fill="#929292"/>
<path fill-rule="evenodd" clip-rule="evenodd" d="M15.7369 6.58336C14.3968 6.58336 13.3105 7.66968 13.3105 9.00972C13.3105 10.3498 14.3968 11.4361 15.7369 11.4361C17.0769 11.4361 18.1632 10.3498 18.1632 9.00972C18.1632 7.66968 17.0769 6.58336 15.7369 6.58336ZM14.8105 9.00972C14.8105 8.49811 15.2253 8.08336 15.7369 8.08336C16.2485 8.08336 16.6632 8.49811 16.6632 9.00972C16.6632 9.52134 16.2485 9.93608 15.7369 9.93608C15.2253 9.93608 14.8105 9.52134 14.8105 9.00972Z" fill="#929292"/>
<path d="M14.6521 2.26361C14.945 2.55651 14.9187 3.05768 14.5934 3.38301L13.5728 4.40355C13.2475 4.72889 12.7463 4.75518 12.4534 4.46229C12.1605 4.1694 12.1868 3.66822 12.5122 3.34289L13.5327 2.32235C13.858 1.99702 14.3592 1.97072 14.6521 2.26361Z" fill="#929292"/>
<path d="M6.44927 2.32235C6.12394 1.99702 5.62276 1.97072 5.32987 2.26361C5.03698 2.55651 5.06328 3.05768 5.38861 3.38301L6.40915 4.40355C6.73448 4.72889 7.23565 4.75518 7.52855 4.46229C7.82144 4.1694 7.79514 3.66822 7.46981 3.34289L6.44927 2.32235Z" fill="#929292"/>
</svg>
