<svg width="18" height="16" viewBox="0 0 18 16" fill="none" xmlns="http://www.w3.org/2000/svg">
<path d="M13.168 12.3334C13.6282 12.3334 14.0013 11.9603 14.0013 11.5001C14.0013 11.0398 13.6282 10.6667 13.168 10.6667C12.7077 10.6667 12.3346 11.0398 12.3346 11.5001C12.3346 11.9603 12.7077 12.3334 13.168 12.3334Z" fill="#929292"/>
<path fill-rule="evenodd" clip-rule="evenodd" d="M4.0013 1.50008C4.0013 1.03984 4.3744 0.666748 4.83464 0.666748C5.29487 0.666748 5.66797 1.03984 5.66797 1.50008V2.33341H12.3346V1.50008C12.3346 1.03984 12.7077 0.666748 13.168 0.666748C13.6282 0.666748 14.0013 1.03984 14.0013 1.50008V2.33341H14.8346C16.2153 2.33341 17.3346 3.4527 17.3346 4.83341V13.1667C17.3346 14.5475 16.2153 15.6667 14.8346 15.6667H3.16797C1.78726 15.6667 0.667969 14.5475 0.667969 13.1667V4.83341C0.667969 3.4527 1.78726 2.33341 3.16797 2.33341H4.0013V1.50008ZM12.3346 4.00008V4.83341C12.3346 5.29365 12.7077 5.66675 13.168 5.66675C13.6282 5.66675 14.0013 5.29365 14.0013 4.83341V4.00008H14.8346C15.2949 4.00008 15.668 4.37318 15.668 4.83341V7.33341H2.33464V4.83341C2.33464 4.37318 2.70773 4.00008 3.16797 4.00008H4.0013V4.83341C4.0013 5.29365 4.3744 5.66675 4.83464 5.66675C5.29487 5.66675 5.66797 5.29365 5.66797 4.83341V4.00008H12.3346ZM2.33464 9.00008H15.668V13.1667C15.668 13.627 15.2949 14.0001 14.8346 14.0001H3.16797C2.70773 14.0001 2.33464 13.627 2.33464 13.1667V9.00008Z" fill="#929292"/>
</svg>
