<svg width="20" height="20" viewBox="0 0 20 20" fill="none" xmlns="http://www.w3.org/2000/svg">
<path d="M7.5013 14.1667L3.33464 18.3334M12.5013 14.1667L16.668 18.3334M10.0013 1.66675V3.33341M10.0013 18.3334V14.1667M4.33464 14.1667H15.668C16.6014 14.1667 17.0681 14.1667 17.4246 13.9851C17.7382 13.8253 17.9932 13.5703 18.153 13.2567C18.3346 12.9002 18.3346 12.4335 18.3346 11.5001V6.00008C18.3346 5.06666 18.3346 4.59995 18.153 4.24343C17.9932 3.92983 17.7382 3.67486 17.4246 3.51507C17.0681 3.33341 16.6014 3.33341 15.668 3.33341H4.33464C3.40121 3.33341 2.9345 3.33341 2.57798 3.51507C2.26438 3.67486 2.00941 3.92983 1.84962 4.24343C1.66797 4.59995 1.66797 5.06666 1.66797 6.00008V11.5001C1.66797 12.4335 1.66797 12.9002 1.84962 13.2567C2.00941 13.5703 2.26438 13.8253 2.57798 13.9851C2.9345 14.1667 3.40121 14.1667 4.33464 14.1667Z" stroke="#929292" stroke-width="1.66667" stroke-linecap="round" stroke-linejoin="round"/>
</svg>
