<svg width="20" height="15" viewBox="0 0 20 15" fill="none" xmlns="http://www.w3.org/2000/svg">
<path d="M10 6.79956C11.6569 6.79956 13 5.45641 13 3.79956C13 2.14271 11.6569 0.799561 10 0.799561C8.34314 0.799561 7 2.14271 7 3.79956C7 5.45641 8.34314 6.79956 10 6.79956Z" fill="#0530A1"/>
<path d="M6.51968 4.93363C6.51968 6.18114 5.50837 7.19245 4.26086 7.19245C3.01335 7.19245 2.00204 6.18114 2.00204 4.93363C2.00204 3.68611 3.01335 2.6748 4.26086 2.6748C5.50837 2.6748 6.51968 3.68611 6.51968 4.93363Z" fill="#0530A1"/>
<path d="M9.99982 7.69244C7.77482 7.69244 6.44044 8.52066 5.687 9.62182C4.95881 10.6861 4.84282 12.9053 4.8405 13.5802C4.83817 14.259 5.38092 14.702 5.93737 14.702H14.0622C14.6187 14.702 15.1614 14.259 15.1591 13.5802C15.1568 12.9053 15.0408 10.6861 14.3126 9.62182C13.5592 8.52066 12.2248 7.69244 9.99982 7.69244Z" fill="#0530A1"/>
<path d="M5.42913 8.3461C5.16929 8.59287 4.94444 8.86075 4.75104 9.14341C3.86471 10.4388 3.72353 12.9229 3.72071 13.7445C3.72015 13.9096 3.74608 14.0632 3.79335 14.2034H0.905866C0.446316 14.2034 -0.00191694 13.8375 6.16607e-06 13.277C0.00191867 12.7195 0.0977156 10.7127 0.699097 9.83382C1.32133 8.92442 2.42334 8.24043 4.26088 8.24043C4.68918 8.24043 5.07751 8.27759 5.42913 8.3461Z" fill="#0530A1"/>
<path d="M16.2076 14.2034C16.2549 14.0632 16.2808 13.9096 16.2802 13.7445C16.2774 12.9229 16.1362 10.4388 15.2499 9.14341C15.0565 8.86067 14.8315 8.59271 14.5716 8.34589C14.9229 8.27751 15.3109 8.24043 15.7387 8.24043C17.5763 8.24043 18.6783 8.92442 19.3005 9.83382C19.9019 10.7127 19.9977 12.7195 19.9996 13.277C20.0015 13.8375 19.5533 14.2034 19.0937 14.2034H16.2076Z" fill="#0530A1"/>
<path d="M17.9975 4.93363C17.9975 6.18114 16.9862 7.19245 15.7387 7.19245C14.4912 7.19245 13.4799 6.18114 13.4799 4.93363C13.4799 3.68611 14.4912 2.6748 15.7387 2.6748C16.9862 2.6748 17.9975 3.68611 17.9975 4.93363Z" fill="#0530A1"/>
</svg>
