<svg width="20" height="20" viewBox="0 0 20 20" fill="none" xmlns="http://www.w3.org/2000/svg">
<path fill-rule="evenodd" clip-rule="evenodd" d="M3.33203 3.33342C3.33203 2.41294 4.07822 1.66675 4.9987 1.66675H11.8083C12.2504 1.66675 12.6743 1.84234 12.9869 2.1549L16.1772 5.34526C16.4898 5.65782 16.6654 6.08174 16.6654 6.52377V16.6667C16.6654 17.5872 15.9192 18.3334 14.9987 18.3334H4.9987C4.07822 18.3334 3.33203 17.5872 3.33203 16.6667V3.33342ZM6.66536 6.66675C6.20513 6.66675 5.83203 7.03984 5.83203 7.50008C5.83203 7.96032 6.20513 8.33341 6.66536 8.33341H8.33203C8.79227 8.33341 9.16536 7.96032 9.16536 7.50008C9.16536 7.03984 8.79227 6.66675 8.33203 6.66675H6.66536ZM5.83203 10.8334C5.83203 10.3732 6.20513 10.0001 6.66536 10.0001H9.9987C10.4589 10.0001 10.832 10.3732 10.832 10.8334C10.832 11.2937 10.4589 11.6667 9.9987 11.6667H6.66536C6.20513 11.6667 5.83203 11.2937 5.83203 10.8334ZM5.83203 14.1667C5.83203 13.7065 6.20513 13.3334 6.66536 13.3334H11.6654C12.1256 13.3334 12.4987 13.7065 12.4987 14.1667C12.4987 14.627 12.1256 15.0001 11.6654 15.0001H6.66536C6.20513 15.0001 5.83203 14.627 5.83203 14.1667Z" fill="#0530A1"/>
</svg>
