<svg width="24" height="24" viewBox="0 0 24 24" fill="none" xmlns="http://www.w3.org/2000/svg">
<rect width="24" height="24" rx="12" fill="#0530A1"/>
<path d="M12.5633 7.56209C12.5633 7.25166 12.3116 7 12.0011 7C11.6906 7 11.4389 7.25166 11.4389 7.56209V11.4343H7.56216C7.25168 11.4343 6.99998 11.6859 6.99998 11.9964C6.99998 12.3068 7.25168 12.5585 7.56216 12.5585H11.4389V16.4379C11.4389 16.7483 11.6906 17 12.0011 17C12.3116 17 12.5633 16.7483 12.5633 16.4379V12.5585H16.4378C16.7483 12.5585 17 12.3068 17 11.9964C17 11.6859 16.7483 11.4343 16.4378 11.4343H12.5633V7.56209Z" fill="white"/>
</svg>
