<svg width="18" height="17" viewBox="0 0 18 17" fill="none" xmlns="http://www.w3.org/2000/svg">
<path d="M3.16797 7.9023L7.98596 10.0651C8.63237 10.3553 9.37024 10.3553 10.0166 10.0651L14.8346 7.9023V13.3874C14.8346 14.5496 12.223 16.3333 9.0013 16.3333C5.77964 16.3333 3.16797 14.5496 3.16797 13.3874V7.9023Z" fill="#2F52FF"/>
<path d="M10.0166 0.717631C9.37023 0.427456 8.63237 0.427456 7.98596 0.717632L1.16285 3.78053C0.861913 3.91562 0.667969 4.21705 0.667969 4.54968C0.667969 4.8823 0.861913 5.18373 1.16285 5.31882L7.98596 8.38172C8.63237 8.6719 9.37024 8.67189 10.0166 8.38172L16.8398 5.31882C17.1407 5.18373 17.3346 4.8823 17.3346 4.54968C17.3346 4.21705 17.1407 3.91562 16.8398 3.78053L10.0166 0.717631Z" fill="#2F52FF"/>
</svg>
