<svg width="20" height="20" viewBox="0 0 20 20" fill="none" xmlns="http://www.w3.org/2000/svg">
<path fill-rule="evenodd" clip-rule="evenodd" d="M7.07031 5.6188C7.07031 4.0069 8.37701 2.7002 9.98891 2.7002C11.6008 2.7002 12.9075 4.0069 12.9075 5.6188C12.9075 7.2307 11.6008 8.5374 9.98891 8.5374C8.37701 8.5374 7.07031 7.2307 7.07031 5.6188ZM9.98891 4.2002C9.20544 4.2002 8.57031 4.83533 8.57031 5.6188C8.57031 6.40227 9.20544 7.0374 9.98891 7.0374C10.7724 7.0374 11.4075 6.40227 11.4075 5.6188C11.4075 4.83533 10.7724 4.2002 9.98891 4.2002Z" fill="#929292"/>
<path fill-rule="evenodd" clip-rule="evenodd" d="M5.44296 11.621C6.28822 10.3857 7.75202 9.53739 9.98974 9.53739C12.2275 9.53739 13.6913 10.3857 14.5365 11.621C15.3236 12.7713 15.4361 14.6605 15.4385 15.3371C15.4421 16.4055 14.5756 17.1113 13.6895 17.1113H6.28997C5.40393 17.1113 4.53736 16.4055 4.54103 15.3371C4.54335 14.6605 4.65589 12.7713 5.44296 11.621ZM9.98974 11.0374C8.17472 11.0374 7.20802 11.6977 6.68092 12.468C6.14163 13.2562 6.04292 14.7893 6.04102 15.3422C6.04069 15.4394 6.07533 15.4995 6.11746 15.5397C6.16681 15.5868 6.23246 15.6113 6.28997 15.6113H13.6895C13.747 15.6113 13.8127 15.5868 13.862 15.5397C13.9042 15.4995 13.9388 15.4394 13.9385 15.3422C13.9366 14.7893 13.8379 13.2562 13.2986 12.468C12.7715 11.6977 11.8048 11.0374 9.98974 11.0374Z" fill="#929292"/>
<path fill-rule="evenodd" clip-rule="evenodd" d="M1.82906 6.86037C1.82906 5.52201 2.91402 4.43706 4.25238 4.43706C5.59074 4.43706 6.67569 5.52201 6.67569 6.86037C6.67569 8.19873 5.59074 9.28368 4.25238 9.28368C2.91402 9.28368 1.82906 8.19873 1.82906 6.86037ZM4.25238 5.93705C3.74244 5.93705 3.32906 6.35044 3.32906 6.86037C3.32906 7.3703 3.74244 7.78368 4.25238 7.78368C4.76231 7.78368 5.17569 7.3703 5.17569 6.86037C5.17569 6.35044 4.76231 5.93705 4.25238 5.93705Z" fill="#929292"/>
<path d="M4.46767 11.3452C4.73388 10.9561 5.05672 10.5498 5.44454 10.1653C5.20837 10.1395 4.96063 10.1262 4.70104 10.1262C2.78576 10.1262 1.51534 10.8544 0.779274 11.9302C0.0977315 12.9262 0.00199609 14.6387 1.0506e-05 15.2174C-0.00331757 16.1875 0.784592 16.829 1.59 16.829H3.87375C3.58021 16.5775 3.3822 16.199 3.3838 15.7343C3.38422 15.6123 3.38754 15.4763 3.39555 15.329H1.59C1.5728 15.329 1.54698 15.3206 1.52734 15.3018C1.51904 15.2939 1.51308 15.2853 1.50894 15.2757C1.50513 15.2669 1.49991 15.2506 1.5 15.2225C1.50156 14.7675 1.58347 13.4111 2.01723 12.7772C2.39378 12.2269 3.05887 11.7338 4.27865 11.6416C4.33777 11.542 4.4007 11.4431 4.46767 11.3452Z" fill="#929292"/>
<path d="M16.106 16.8291H18.3854C19.1908 16.8291 19.9787 16.1876 19.9754 15.2175C19.9734 14.6388 19.8776 12.9263 19.1961 11.9303C18.46 10.8545 17.1896 10.1262 15.2743 10.1262C15.0162 10.1262 14.7699 10.1395 14.535 10.165C14.9229 10.5495 15.2459 10.956 15.5122 11.3452C15.5793 11.4432 15.6423 11.5423 15.7015 11.642C16.9182 11.7352 17.5821 12.2277 17.9581 12.7773C18.3919 13.4112 18.4738 14.7676 18.4754 15.2227C18.4755 15.2507 18.4702 15.267 18.4664 15.2759C18.4623 15.2854 18.4563 15.294 18.448 15.302C18.4284 15.3207 18.4026 15.3291 18.3854 15.3291H16.5843C16.5924 15.4764 16.5957 15.6123 16.5961 15.7343C16.5977 16.1991 16.3996 16.5776 16.106 16.8291Z" fill="#929292"/>
<path fill-rule="evenodd" clip-rule="evenodd" d="M15.7291 4.46397C14.389 4.46397 13.3027 5.55029 13.3027 6.89033C13.3027 8.23037 14.389 9.31669 15.7291 9.31669C17.0691 9.31669 18.1554 8.23037 18.1554 6.89033C18.1554 5.55029 17.0691 4.46397 15.7291 4.46397ZM14.8027 6.89033C14.8027 6.37871 15.2175 5.96397 15.7291 5.96397C16.2407 5.96397 16.6554 6.37871 16.6554 6.89033C16.6554 7.40194 16.2407 7.81669 15.7291 7.81669C15.2175 7.81669 14.8027 7.40194 14.8027 6.89033Z" fill="#929292"/>
</svg>
