<svg width="18" height="17" viewBox="0 0 18 17" fill="none" xmlns="http://www.w3.org/2000/svg">
<path fill-rule="evenodd" clip-rule="evenodd" d="M10.0166 0.717631C9.37023 0.427456 8.63237 0.427457 7.98596 0.717632L1.16285 3.78053C0.861913 3.91562 0.667969 4.21705 0.667969 4.54967C0.667969 4.8823 0.861913 5.18372 1.16285 5.31882L7.98596 8.38171C8.63237 8.67189 9.37024 8.67189 10.0166 8.38171L16.8398 5.31882C17.1407 5.18372 17.3346 4.8823 17.3346 4.54967C17.3346 4.21705 17.1407 3.91562 16.8398 3.78053L10.0166 0.717631ZM8.66285 2.25592C8.87832 2.1592 9.12428 2.1592 9.33975 2.25592L14.4495 4.54967L9.33975 6.84342C9.12428 6.94015 8.87832 6.94015 8.66285 6.84342L3.55315 4.54967L8.66285 2.25592Z" fill="#929292"/>
<path d="M3.16808 8.74405L3.16797 8.75813V13.3874C3.16797 13.5181 3.19809 13.647 3.25595 13.7638C3.43618 14.1279 3.74743 14.4548 4.08619 14.7285C4.43738 15.0123 4.87239 15.2825 5.36522 15.5167C6.34984 15.9847 7.61623 16.3333 9.0013 16.3333C10.3864 16.3333 11.6528 15.9847 12.6374 15.5167C13.1302 15.2825 13.5652 15.0123 13.9164 14.7285C14.2552 14.4548 14.5664 14.1279 14.7467 13.7638C14.8045 13.647 14.8346 13.5181 14.8346 13.3874V8.75813L14.8345 8.74405L13.168 9.49216V13.1355C13.1071 13.2075 13.0133 13.3025 12.8753 13.414C12.6405 13.6037 12.3203 13.807 11.9277 13.9936C11.1415 14.3673 10.1162 14.65 9.0013 14.65C7.88637 14.65 6.8611 14.3673 6.07488 13.9936C5.6823 13.807 5.3621 13.6037 5.12735 13.414C4.9893 13.3025 4.89547 13.2075 4.83464 13.1355V9.49216L3.16808 8.74405Z" fill="#929292"/>
</svg>
