<svg width="14" height="18" viewBox="0 0 14 18" fill="none" xmlns="http://www.w3.org/2000/svg">
<path fill-rule="evenodd" clip-rule="evenodd" d="M1.9987 15.6667H11.9987L11.9987 5.52377L8.80834 2.33341H1.9987V15.6667ZM1.9987 0.666748C1.07822 0.666748 0.332031 1.41294 0.332031 2.33342V15.6667C0.332031 16.5872 1.07822 17.3334 1.9987 17.3334H11.9987C12.9192 17.3334 13.6654 16.5872 13.6654 15.6667V5.52377C13.6654 5.08174 13.4898 4.65782 13.1772 4.34526L9.98685 1.1549C9.67429 0.842343 9.25037 0.666748 8.80834 0.666748H1.9987Z" fill="#929292"/>
<path d="M3.66536 13.1667C3.66536 12.7065 4.03846 12.3334 4.4987 12.3334H9.4987C9.95893 12.3334 10.332 12.7065 10.332 13.1667C10.332 13.627 9.95893 14.0001 9.4987 14.0001H4.4987C4.03846 14.0001 3.66536 13.627 3.66536 13.1667Z" fill="#929292"/>
<path d="M3.66536 9.83341C3.66536 9.37318 4.03846 9.00008 4.4987 9.00008H7.83203C8.29227 9.00008 8.66536 9.37318 8.66536 9.83341C8.66536 10.2937 8.29227 10.6667 7.83203 10.6667H4.4987C4.03846 10.6667 3.66536 10.2937 3.66536 9.83341Z" fill="#929292"/>
<path d="M3.66536 6.50008C3.66536 6.03984 4.03846 5.66675 4.4987 5.66675H6.16536C6.6256 5.66675 6.9987 6.03984 6.9987 6.50008C6.9987 6.96032 6.6256 7.33341 6.16536 7.33341H4.4987C4.03846 7.33341 3.66536 6.96032 3.66536 6.50008Z" fill="#929292"/>
</svg>
