<svg width="20" height="19" viewBox="0 0 20 19" fill="none" xmlns="http://www.w3.org/2000/svg">
<path fill-rule="evenodd" clip-rule="evenodd" d="M11.2184 0.260547C10.4427 -0.0876635 9.55728 -0.0876625 8.78158 0.260548L0.593862 3.93602C0.232734 4.09813 0 4.45984 0 4.859C0 5.25815 0.232734 5.61986 0.593862 5.78197L8.78158 9.45744C9.55728 9.80566 10.4427 9.80565 11.2184 9.45744L19.4061 5.78197C19.7673 5.61986 20 5.25815 20 4.859C20 4.45984 19.7673 4.09813 19.4061 3.93602L11.2184 0.260547ZM9.59386 2.1065C9.85243 1.99043 10.1476 1.99043 10.4061 2.1065L16.5378 4.859L10.4061 7.6115C10.1476 7.72757 9.85243 7.72757 9.59386 7.6115L3.46221 4.859L9.59386 2.1065Z" fill="black" fill-opacity="0.7"/>
<path d="M3.00014 9.89224L3 9.90915V15.4643C3 15.6211 3.03615 15.7757 3.10557 15.916C3.32185 16.3529 3.69535 16.7452 4.10187 17.0736C4.5233 17.4142 5.04531 17.7384 5.6367 18.0195C6.81825 18.5811 8.33791 18.9994 10 18.9994C11.6621 18.9994 13.1818 18.5811 14.3633 18.0195C14.9547 17.7384 15.4767 17.4142 15.8981 17.0736C16.3046 16.7452 16.6781 16.3529 16.8944 15.916C16.9639 15.7757 17 15.6211 17 15.4643V9.90915L16.9999 9.89224L15 10.79V15.162C14.927 15.2484 14.8144 15.3624 14.6487 15.4962C14.367 15.7239 13.9828 15.9678 13.5117 16.1917C12.5682 16.6401 11.3379 16.9793 10 16.9793C8.66209 16.9793 7.43175 16.6401 6.4883 16.1917C6.01719 15.9678 5.63295 15.7239 5.35126 15.4962C5.1856 15.3624 5.07301 15.2484 5 15.162V10.79L3.00014 9.89224Z" fill="black" fill-opacity="0.7"/>
</svg>
