<svg width="24" height="24" viewBox="0 0 24 24" fill="none" xmlns="http://www.w3.org/2000/svg">
<path d="M12 1.5C11.1716 1.5 10.5 2.17157 10.5 3L10.5 11.3787L8.06066 8.93934C7.47487 8.35355 6.52513 8.35355 5.93934 8.93934C5.35355 9.52512 5.35355 10.4749 5.93934 11.0607L10.9393 16.0607C11.5251 16.6464 12.4749 16.6464 13.0607 16.0607L18.0607 11.0607C18.6464 10.4749 18.6464 9.52513 18.0607 8.93934C17.4749 8.35355 16.5251 8.35355 15.9393 8.93934L13.5 11.3787L13.5 3C13.5 2.17157 12.8284 1.5 12 1.5Z" fill="black"/>
<path d="M5 14.5C4.17157 14.5 3.5 15.1716 3.5 16V19C3.5 20.933 5.067 22.5 7 22.5H17C18.933 22.5 20.5 20.933 20.5 19V16C20.5 15.1716 19.8284 14.5 19 14.5C18.1716 14.5 17.5 15.1716 17.5 16V19C17.5 19.2761 17.2761 19.5 17 19.5H7C6.72386 19.5 6.5 19.2761 6.5 19V16C6.5 15.1716 5.82843 14.5 5 14.5Z" fill="black"/>
</svg>
