<svg width="24" height="25" viewBox="0 0 24 25" fill="none" xmlns="http://www.w3.org/2000/svg">
<path d="M15.3909 5.54252L16.8009 8.36251C16.9909 8.75251 17.5009 9.12251 17.9309 9.20251L20.4809 9.62251C22.1109 9.89251 22.4909 11.0725 21.3209 12.2525L19.3309 14.2425C19.0009 14.5725 18.8109 15.2225 18.9209 15.6925L19.4909 18.1525C19.9409 20.0925 18.9009 20.8525 17.1909 19.8325L14.8009 18.4125C14.3709 18.1525 13.6509 18.1525 13.2209 18.4125L10.8309 19.8325C9.12091 20.8425 8.08093 20.0925 8.53093 18.1525L9.10093 15.6925C9.21093 15.2325 9.02093 14.5825 8.69093 14.2425L6.70094 12.2525C5.53094 11.0825 5.91094 9.90251 7.54094 9.62251L10.0909 9.20251C10.5209 9.13251 11.0309 8.75251 11.2209 8.36251L12.6309 5.54252C13.3809 4.01252 14.6209 4.01252 15.3909 5.54252Z" stroke="black" stroke-opacity="0.7" stroke-width="2" stroke-linecap="round" stroke-linejoin="round"/>
<path d="M8 5.33252H2" stroke="black" stroke-opacity="0.7" stroke-width="2" stroke-miterlimit="11.4737" stroke-linecap="round"/>
<path d="M5 19.3325H2" stroke="black" stroke-opacity="0.7" stroke-width="2" stroke-miterlimit="11.4737" stroke-linecap="round"/>
<path d="M3 12.3325H2" stroke="black" stroke-opacity="0.7" stroke-width="2" stroke-miterlimit="11.4737" stroke-linecap="round"/>
</svg>
